<?xml version="1.0" encoding="UTF-8" standalone="no"?>
<!DOCTYPE svg PUBLIC "-//W3C//DTD SVG 1.1//EN"
 "http://www.w3.org/Graphics/SVG/1.1/DTD/svg11.dtd">
<!-- Generated by graphviz version 2.38.0 (20140413.2041)
 -->
<!-- Title: /home/travis/build/steup/atwork&#45;commander/atwork_commander_core/src/atwork_refbox_ros_node.cpp Pages: 1 -->
<svg width="1766pt" height="251pt"
 viewBox="0.00 0.00 1765.50 251.00" xmlns="http://www.w3.org/2000/svg" xmlns:xlink="http://www.w3.org/1999/xlink">
<g id="graph0" class="graph" transform="scale(1 1) rotate(0) translate(4 247)">
<title>/home/travis/build/steup/atwork&#45;commander/atwork_commander_core/src/atwork_refbox_ros_node.cpp</title>
<!-- Node1 -->
<g id="node1" class="node"><title>Node1</title>
<polygon fill="#bfbfbf" stroke="black" points="893,-190.5 893,-242.5 1054,-242.5 1054,-190.5 893,-190.5"/>
<text text-anchor="start" x="901" y="-230.5" font-family="Helvetica,sans-Serif" font-size="10.00">/home/travis/build</text>
<text text-anchor="start" x="901" y="-219.5" font-family="Helvetica,sans-Serif" font-size="10.00">/steup/atwork&#45;commander</text>
<text text-anchor="start" x="901" y="-208.5" font-family="Helvetica,sans-Serif" font-size="10.00">/atwork_commander_core</text>
<text text-anchor="middle" x="973.5" y="-197.5" font-family="Helvetica,sans-Serif" font-size="10.00">/src/atwork_refbox_ros_node.cpp</text>
</g>
<!-- Node2 -->
<g id="node2" class="node"><title>Node2</title>
<polygon fill="none" stroke="#bfbfbf" points="0,-129 0,-148 55,-148 55,-129 0,-129"/>
<text text-anchor="middle" x="27.5" y="-136" font-family="Helvetica,sans-Serif" font-size="10.00">ros/ros.h</text>
</g>
<!-- Node1&#45;&gt;Node2 -->
<g id="edge1" class="edge"><title>Node1&#45;&gt;Node2</title>
<path fill="none" stroke="midnightblue" d="M892.717,-212.74C701.553,-205.768 225.786,-185.709 69.5,-154 65.9917,-153.288 62.3752,-152.358 58.805,-151.312"/>
<polygon fill="midnightblue" stroke="midnightblue" points="59.586,-147.886 48.9942,-148.142 57.4339,-154.547 59.586,-147.886"/>
</g>
<!-- Node3 -->
<g id="node3" class="node"><title>Node3</title>
<g id="a_node3"><a xlink:href="TaskGenerator_8h.html" target="_top" xlink:title="atwork_commander_gen\l/TaskGenerator.h">
<polygon fill="none" stroke="black" points="256,-123.5 256,-153.5 379,-153.5 379,-123.5 256,-123.5"/>
<text text-anchor="start" x="264" y="-141.5" font-family="Helvetica,sans-Serif" font-size="10.00">atwork_commander_gen</text>
<text text-anchor="middle" x="317.5" y="-130.5" font-family="Helvetica,sans-Serif" font-size="10.00">/TaskGenerator.h</text>
</a>
</g>
</g>
<!-- Node1&#45;&gt;Node3 -->
<g id="edge2" class="edge"><title>Node1&#45;&gt;Node3</title>
<path fill="none" stroke="midnightblue" d="M892.831,-206.208C788.596,-194.194 601.503,-172.603 441.5,-154 424.583,-152.033 406.368,-149.907 389.246,-147.906"/>
<polygon fill="midnightblue" stroke="midnightblue" points="389.648,-144.429 379.31,-146.744 388.835,-151.382 389.648,-144.429"/>
</g>
<!-- Node5 -->
<g id="node5" class="node"><title>Node5</title>
<polygon fill="none" stroke="#bfbfbf" points="34,-0.5 34,-19.5 117,-19.5 117,-0.5 34,-0.5"/>
<text text-anchor="middle" x="75.5" y="-7.5" font-family="Helvetica,sans-Serif" font-size="10.00">unordered_map</text>
</g>
<!-- Node1&#45;&gt;Node5 -->
<g id="edge22" class="edge"><title>Node1&#45;&gt;Node5</title>
<path fill="none" stroke="midnightblue" d="M892.807,-212.234C729.811,-205.054 366.616,-185.946 246.5,-154 178.283,-135.857 150.01,-139.207 102.5,-87 87.9511,-71.0129 81.1307,-46.6703 78.0083,-29.863"/>
<polygon fill="midnightblue" stroke="midnightblue" points="81.4084,-28.9561 76.388,-19.6263 74.4945,-30.0506 81.4084,-28.9561"/>
</g>
<!-- Node9 -->
<g id="node9" class="node"><title>Node9</title>
<polygon fill="none" stroke="#bfbfbf" points="404.5,-0.5 404.5,-19.5 448.5,-19.5 448.5,-0.5 404.5,-0.5"/>
<text text-anchor="middle" x="426.5" y="-7.5" font-family="Helvetica,sans-Serif" font-size="10.00">vector</text>
</g>
<!-- Node1&#45;&gt;Node9 -->
<g id="edge23" class="edge"><title>Node1&#45;&gt;Node9</title>
<path fill="none" stroke="midnightblue" d="M892.846,-214.781C779.28,-212.079 580.19,-200.61 527.5,-154 493.748,-124.143 528.586,-92.0133 501.5,-56 490.465,-41.3275 473.124,-30.4767 457.895,-23.1106"/>
<polygon fill="midnightblue" stroke="midnightblue" points="459.314,-19.9111 448.761,-18.9714 456.425,-26.287 459.314,-19.9111"/>
</g>
<!-- Node10 -->
<g id="node10" class="node"><title>Node10</title>
<polygon fill="none" stroke="#bfbfbf" points="362,-56.5 362,-86.5 493,-86.5 493,-56.5 362,-56.5"/>
<text text-anchor="start" x="370" y="-74.5" font-family="Helvetica,sans-Serif" font-size="10.00">atwork_commander_msgs</text>
<text text-anchor="middle" x="427.5" y="-63.5" font-family="Helvetica,sans-Serif" font-size="10.00">/Task.h</text>
</g>
<!-- Node1&#45;&gt;Node10 -->
<g id="edge14" class="edge"><title>Node1&#45;&gt;Node10</title>
<path fill="none" stroke="midnightblue" d="M892.614,-212.366C774.12,-206.571 560.178,-191.189 493.5,-154 469.423,-140.571 450.738,-114.516 439.49,-95.4684"/>
<polygon fill="midnightblue" stroke="midnightblue" points="442.398,-93.4989 434.436,-86.509 436.301,-96.9384 442.398,-93.4989"/>
</g>
<!-- Node12 -->
<g id="node12" class="node"><title>Node12</title>
<polygon fill="none" stroke="#bfbfbf" points="536,-123.5 536,-153.5 667,-153.5 667,-123.5 536,-123.5"/>
<text text-anchor="start" x="544" y="-141.5" font-family="Helvetica,sans-Serif" font-size="10.00">atwork_commander_msgs</text>
<text text-anchor="middle" x="601.5" y="-130.5" font-family="Helvetica,sans-Serif" font-size="10.00">/RobotState.h</text>
</g>
<!-- Node1&#45;&gt;Node12 -->
<g id="edge12" class="edge"><title>Node1&#45;&gt;Node12</title>
<path fill="none" stroke="midnightblue" d="M892.782,-199.009C828.685,-185.914 739.718,-167.738 677.019,-154.929"/>
<polygon fill="midnightblue" stroke="midnightblue" points="677.688,-151.493 667.19,-152.921 676.287,-158.351 677.688,-151.493"/>
</g>
<!-- Node13 -->
<g id="node13" class="node"><title>Node13</title>
<polygon fill="none" stroke="#bfbfbf" points="685,-123.5 685,-153.5 816,-153.5 816,-123.5 685,-123.5"/>
<text text-anchor="start" x="693" y="-141.5" font-family="Helvetica,sans-Serif" font-size="10.00">atwork_commander_msgs</text>
<text text-anchor="middle" x="750.5" y="-130.5" font-family="Helvetica,sans-Serif" font-size="10.00">/RefboxState.h</text>
</g>
<!-- Node1&#45;&gt;Node13 -->
<g id="edge13" class="edge"><title>Node1&#45;&gt;Node13</title>
<path fill="none" stroke="midnightblue" d="M899.863,-190.404C867.607,-179.411 830.553,-166.783 801.421,-156.854"/>
<polygon fill="midnightblue" stroke="midnightblue" points="802.458,-153.51 791.864,-153.597 800.2,-160.136 802.458,-153.51"/>
</g>
<!-- Node14 -->
<g id="node14" class="node"><title>Node14</title>
<polygon fill="none" stroke="#bfbfbf" points="834,-123.5 834,-153.5 965,-153.5 965,-123.5 834,-123.5"/>
<text text-anchor="start" x="842" y="-141.5" font-family="Helvetica,sans-Serif" font-size="10.00">atwork_commander_msgs</text>
<text text-anchor="middle" x="899.5" y="-130.5" font-family="Helvetica,sans-Serif" font-size="10.00">/LoadTask.h</text>
</g>
<!-- Node1&#45;&gt;Node14 -->
<g id="edge15" class="edge"><title>Node1&#45;&gt;Node14</title>
<path fill="none" stroke="midnightblue" d="M948.859,-190.193C939.662,-180.747 929.314,-170.119 920.477,-161.044"/>
<polygon fill="midnightblue" stroke="midnightblue" points="922.952,-158.568 913.468,-153.845 917.936,-163.452 922.952,-158.568"/>
</g>
<!-- Node15 -->
<g id="node15" class="node"><title>Node15</title>
<polygon fill="none" stroke="#bfbfbf" points="983,-123.5 983,-153.5 1114,-153.5 1114,-123.5 983,-123.5"/>
<text text-anchor="start" x="991" y="-141.5" font-family="Helvetica,sans-Serif" font-size="10.00">atwork_commander_msgs</text>
<text text-anchor="middle" x="1048.5" y="-130.5" font-family="Helvetica,sans-Serif" font-size="10.00">/GenerateTask.h</text>
</g>
<!-- Node1&#45;&gt;Node15 -->
<g id="edge16" class="edge"><title>Node1&#45;&gt;Node15</title>
<path fill="none" stroke="midnightblue" d="M998.474,-190.193C1007.8,-180.747 1018.28,-170.119 1027.24,-161.044"/>
<polygon fill="midnightblue" stroke="midnightblue" points="1029.81,-163.421 1034.34,-153.845 1024.83,-158.505 1029.81,-163.421"/>
</g>
<!-- Node16 -->
<g id="node16" class="node"><title>Node16</title>
<polygon fill="none" stroke="#bfbfbf" points="1132,-123.5 1132,-153.5 1263,-153.5 1263,-123.5 1132,-123.5"/>
<text text-anchor="start" x="1140" y="-141.5" font-family="Helvetica,sans-Serif" font-size="10.00">atwork_commander_msgs</text>
<text text-anchor="middle" x="1197.5" y="-130.5" font-family="Helvetica,sans-Serif" font-size="10.00">/StartTask.h</text>
</g>
<!-- Node1&#45;&gt;Node16 -->
<g id="edge17" class="edge"><title>Node1&#45;&gt;Node16</title>
<path fill="none" stroke="midnightblue" d="M1047.47,-190.404C1079.87,-179.411 1117.09,-166.783 1146.35,-156.854"/>
<polygon fill="midnightblue" stroke="midnightblue" points="1147.61,-160.125 1155.95,-153.597 1145.36,-153.496 1147.61,-160.125"/>
</g>
<!-- Node17 -->
<g id="node17" class="node"><title>Node17</title>
<polygon fill="none" stroke="#bfbfbf" points="1281,-123.5 1281,-153.5 1412,-153.5 1412,-123.5 1281,-123.5"/>
<text text-anchor="start" x="1289" y="-141.5" font-family="Helvetica,sans-Serif" font-size="10.00">atwork_commander_msgs</text>
<text text-anchor="middle" x="1346.5" y="-130.5" font-family="Helvetica,sans-Serif" font-size="10.00">/StateUpdate.h</text>
</g>
<!-- Node1&#45;&gt;Node17 -->
<g id="edge18" class="edge"><title>Node1&#45;&gt;Node17</title>
<path fill="none" stroke="midnightblue" d="M1054.44,-199.009C1118.81,-185.893 1208.19,-167.68 1271.08,-154.868"/>
<polygon fill="midnightblue" stroke="midnightblue" points="1271.83,-158.286 1280.93,-152.86 1270.44,-151.427 1271.83,-158.286"/>
</g>
<!-- Node18 -->
<g id="node18" class="node"><title>Node18</title>
<polygon fill="none" stroke="#bfbfbf" points="1430,-129 1430,-148 1489,-148 1489,-129 1430,-129"/>
<text text-anchor="middle" x="1459.5" y="-136" font-family="Helvetica,sans-Serif" font-size="10.00">stdexcept</text>
</g>
<!-- Node1&#45;&gt;Node18 -->
<g id="edge19" class="edge"><title>Node1&#45;&gt;Node18</title>
<path fill="none" stroke="midnightblue" d="M1054.28,-209.985C1144.81,-202.522 1295.43,-186.254 1421.5,-154 1424.32,-153.278 1427.22,-152.412 1430.1,-151.468"/>
<polygon fill="midnightblue" stroke="midnightblue" points="1431.42,-154.711 1439.66,-148.048 1429.07,-148.12 1431.42,-154.711"/>
</g>
<!-- Node19 -->
<g id="node19" class="node"><title>Node19</title>
<polygon fill="none" stroke="#bfbfbf" points="1507.5,-129 1507.5,-148 1561.5,-148 1561.5,-129 1507.5,-129"/>
<text text-anchor="middle" x="1534.5" y="-136" font-family="Helvetica,sans-Serif" font-size="10.00">iostream</text>
</g>
<!-- Node1&#45;&gt;Node19 -->
<g id="edge20" class="edge"><title>Node1&#45;&gt;Node19</title>
<path fill="none" stroke="midnightblue" d="M1054.31,-212.695C1158.45,-207.572 1344.44,-193.297 1498.5,-154 1501.01,-153.359 1503.59,-152.583 1506.14,-151.726"/>
<polygon fill="midnightblue" stroke="midnightblue" points="1507.61,-154.914 1515.76,-148.144 1505.17,-148.354 1507.61,-154.914"/>
</g>
<!-- Node20 -->
<g id="node20" class="node"><title>Node20</title>
<polygon fill="none" stroke="#bfbfbf" points="1580,-129 1580,-148 1631,-148 1631,-129 1580,-129"/>
<text text-anchor="middle" x="1605.5" y="-136" font-family="Helvetica,sans-Serif" font-size="10.00">numeric</text>
</g>
<!-- Node1&#45;&gt;Node20 -->
<g id="edge21" class="edge"><title>Node1&#45;&gt;Node20</title>
<path fill="none" stroke="midnightblue" d="M1054.45,-214.554C1170.46,-211.543 1389.94,-199.664 1570.5,-154 1573.01,-153.365 1575.58,-152.582 1578.12,-151.712"/>
<polygon fill="midnightblue" stroke="midnightblue" points="1579.59,-154.899 1587.67,-148.053 1577.08,-148.362 1579.59,-154.899"/>
</g>
<!-- Node21 -->
<g id="node21" class="node"><title>Node21</title>
<polygon fill="none" stroke="#bfbfbf" points="1649.5,-129 1649.5,-148 1693.5,-148 1693.5,-129 1649.5,-129"/>
<text text-anchor="middle" x="1671.5" y="-136" font-family="Helvetica,sans-Serif" font-size="10.00">thread</text>
</g>
<!-- Node1&#45;&gt;Node21 -->
<g id="edge24" class="edge"><title>Node1&#45;&gt;Node21</title>
<path fill="none" stroke="midnightblue" d="M1054.23,-211.541C1206.82,-203.484 1531.98,-183.419 1640.5,-154 1642.44,-153.475 1644.4,-152.837 1646.35,-152.124"/>
<polygon fill="midnightblue" stroke="midnightblue" points="1647.97,-155.241 1655.81,-148.119 1645.24,-148.795 1647.97,-155.241"/>
</g>
<!-- Node22 -->
<g id="node22" class="node"><title>Node22</title>
<polygon fill="none" stroke="#bfbfbf" points="1711.5,-129 1711.5,-148 1757.5,-148 1757.5,-129 1711.5,-129"/>
<text text-anchor="middle" x="1734.5" y="-136" font-family="Helvetica,sans-Serif" font-size="10.00">chrono</text>
</g>
<!-- Node1&#45;&gt;Node22 -->
<g id="edge25" class="edge"><title>Node1&#45;&gt;Node22</title>
<path fill="none" stroke="midnightblue" d="M1054.08,-212.161C1217.32,-204.831 1581.82,-185.434 1702.5,-154 1704.66,-153.438 1706.85,-152.741 1709.03,-151.958"/>
<polygon fill="midnightblue" stroke="midnightblue" points="1710.38,-155.188 1718.29,-148.138 1707.71,-148.718 1710.38,-155.188"/>
</g>
<!-- Node4 -->
<g id="node4" class="node"><title>Node4</title>
<g id="a_node4"><a xlink:href="ConfigParserInterface_8h.html" target="_top" xlink:title="atwork_commander_gen\l/ConfigParserInterface.h">
<polygon fill="none" stroke="black" points="112,-56.5 112,-86.5 235,-86.5 235,-56.5 112,-56.5"/>
<text text-anchor="start" x="120" y="-74.5" font-family="Helvetica,sans-Serif" font-size="10.00">atwork_commander_gen</text>
<text text-anchor="middle" x="173.5" y="-63.5" font-family="Helvetica,sans-Serif" font-size="10.00">/ConfigParserInterface.h</text>
</a>
</g>
</g>
<!-- Node3&#45;&gt;Node4 -->
<g id="edge3" class="edge"><title>Node3&#45;&gt;Node4</title>
<path fill="none" stroke="midnightblue" d="M286.254,-123.396C265.025,-113.814 236.749,-101.05 213.823,-90.7016"/>
<polygon fill="midnightblue" stroke="midnightblue" points="215.239,-87.5007 204.685,-86.5765 212.359,-93.8808 215.239,-87.5007"/>
</g>
<!-- Node7 -->
<g id="node7" class="node"><title>Node7</title>
<polygon fill="none" stroke="#bfbfbf" points="251,-0.5 251,-19.5 292,-19.5 292,-0.5 251,-0.5"/>
<text text-anchor="middle" x="271.5" y="-7.5" font-family="Helvetica,sans-Serif" font-size="10.00">string</text>
</g>
<!-- Node3&#45;&gt;Node7 -->
<g id="edge10" class="edge"><title>Node3&#45;&gt;Node7</title>
<path fill="none" stroke="midnightblue" d="M304.796,-123.087C297.078,-113.514 287.734,-100.301 282.5,-87 275.193,-68.4318 272.67,-45.5971 271.835,-29.8318"/>
<polygon fill="midnightblue" stroke="midnightblue" points="275.33,-29.6345 271.481,-19.7637 268.335,-29.8806 275.33,-29.6345"/>
</g>
<!-- Node3&#45;&gt;Node10 -->
<g id="edge9" class="edge"><title>Node3&#45;&gt;Node10</title>
<path fill="none" stroke="midnightblue" d="M341.368,-123.396C357.08,-114.112 377.846,-101.841 395.051,-91.6742"/>
<polygon fill="midnightblue" stroke="midnightblue" points="396.85,-94.6771 403.678,-86.5765 393.288,-88.6506 396.85,-94.6771"/>
</g>
<!-- Node11 -->
<g id="node11" class="node"><title>Node11</title>
<polygon fill="none" stroke="#bfbfbf" points="291.5,-62 291.5,-81 343.5,-81 343.5,-62 291.5,-62"/>
<text text-anchor="middle" x="317.5" y="-69" font-family="Helvetica,sans-Serif" font-size="10.00">memory</text>
</g>
<!-- Node3&#45;&gt;Node11 -->
<g id="edge11" class="edge"><title>Node3&#45;&gt;Node11</title>
<path fill="none" stroke="midnightblue" d="M317.5,-123.396C317.5,-114.064 317.5,-101.714 317.5,-91.5173"/>
<polygon fill="midnightblue" stroke="midnightblue" points="321,-91.1945 317.5,-81.1945 314,-91.1946 321,-91.1945"/>
</g>
<!-- Node4&#45;&gt;Node5 -->
<g id="edge4" class="edge"><title>Node4&#45;&gt;Node5</title>
<path fill="none" stroke="midnightblue" d="M150.275,-56.3993C134.714,-46.9511 114.303,-34.5589 98.7382,-25.1089"/>
<polygon fill="midnightblue" stroke="midnightblue" points="100.124,-21.8558 89.7599,-19.6578 96.4913,-27.8394 100.124,-21.8558"/>
</g>
<!-- Node6 -->
<g id="node6" class="node"><title>Node6</title>
<polygon fill="none" stroke="#bfbfbf" points="198,-0.5 198,-19.5 233,-19.5 233,-0.5 198,-0.5"/>
<text text-anchor="middle" x="215.5" y="-7.5" font-family="Helvetica,sans-Serif" font-size="10.00">map</text>
</g>
<!-- Node4&#45;&gt;Node6 -->
<g id="edge5" class="edge"><title>Node4&#45;&gt;Node6</title>
<path fill="none" stroke="midnightblue" d="M183.453,-56.3993C189.494,-47.8424 197.238,-36.8708 203.601,-27.857"/>
<polygon fill="midnightblue" stroke="midnightblue" points="206.481,-29.8459 209.389,-19.6578 200.762,-25.8091 206.481,-29.8459"/>
</g>
<!-- Node4&#45;&gt;Node7 -->
<g id="edge6" class="edge"><title>Node4&#45;&gt;Node7</title>
<path fill="none" stroke="midnightblue" d="M196.725,-56.3993C212.286,-46.9511 232.697,-34.5589 248.262,-25.1089"/>
<polygon fill="midnightblue" stroke="midnightblue" points="250.509,-27.8394 257.24,-19.6578 246.876,-21.8558 250.509,-27.8394"/>
</g>
<!-- Node8 -->
<g id="node8" class="node"><title>Node8</title>
<polygon fill="none" stroke="#bfbfbf" points="135,-0.5 135,-19.5 180,-19.5 180,-0.5 135,-0.5"/>
<text text-anchor="middle" x="157.5" y="-7.5" font-family="Helvetica,sans-Serif" font-size="10.00">iosfwd</text>
</g>
<!-- Node4&#45;&gt;Node8 -->
<g id="edge7" class="edge"><title>Node4&#45;&gt;Node8</title>
<path fill="none" stroke="midnightblue" d="M169.708,-56.3993C167.551,-48.3772 164.823,-38.2328 162.493,-29.569"/>
<polygon fill="midnightblue" stroke="midnightblue" points="165.805,-28.4058 159.828,-19.6578 159.045,-30.2236 165.805,-28.4058"/>
</g>
<!-- Node4&#45;&gt;Node9 -->
<g id="edge8" class="edge"><title>Node4&#45;&gt;Node9</title>
<path fill="none" stroke="midnightblue" d="M233.137,-56.4747C283.668,-44.5909 354.174,-28.0095 394.604,-18.5012"/>
<polygon fill="midnightblue" stroke="midnightblue" points="395.513,-21.8831 404.446,-16.1867 393.91,-15.069 395.513,-21.8831"/>
</g>
</g>
</svg>
