<?xml version="1.0" encoding="UTF-8" standalone="no"?>
<!DOCTYPE svg PUBLIC "-//W3C//DTD SVG 1.1//EN"
 "http://www.w3.org/Graphics/SVG/1.1/DTD/svg11.dtd">
<!-- Generated by graphviz version 2.38.0 (20140413.2041)
 -->
<!-- Title: /home/travis/build/steup/atwork&#45;commander/atwork_commander/tests/src/basic_setup.cpp Pages: 1 -->
<svg width="557pt" height="184pt"
 viewBox="0.00 0.00 557.00 184.00" xmlns="http://www.w3.org/2000/svg" xmlns:xlink="http://www.w3.org/1999/xlink">
<g id="graph0" class="graph" transform="scale(1 1) rotate(0) translate(4 180)">
<title>/home/travis/build/steup/atwork&#45;commander/atwork_commander/tests/src/basic_setup.cpp</title>
<!-- Node1 -->
<g id="node1" class="node"><title>Node1</title>
<polygon fill="#bfbfbf" stroke="black" points="312.5,-123.5 312.5,-175.5 442.5,-175.5 442.5,-123.5 312.5,-123.5"/>
<text text-anchor="start" x="320.5" y="-163.5" font-family="Helvetica,sans-Serif" font-size="10.00">/home/travis/build</text>
<text text-anchor="start" x="320.5" y="-152.5" font-family="Helvetica,sans-Serif" font-size="10.00">/steup/atwork&#45;commander</text>
<text text-anchor="start" x="320.5" y="-141.5" font-family="Helvetica,sans-Serif" font-size="10.00">/atwork_commander/tests</text>
<text text-anchor="middle" x="377.5" y="-130.5" font-family="Helvetica,sans-Serif" font-size="10.00">/src/basic_setup.cpp</text>
</g>
<!-- Node2 -->
<g id="node2" class="node"><title>Node2</title>
<polygon fill="none" stroke="#bfbfbf" points="227,-67.5 227,-86.5 282,-86.5 282,-67.5 227,-67.5"/>
<text text-anchor="middle" x="254.5" y="-74.5" font-family="Helvetica,sans-Serif" font-size="10.00">ros/ros.h</text>
</g>
<!-- Node1&#45;&gt;Node2 -->
<g id="edge1" class="edge"><title>Node1&#45;&gt;Node2</title>
<path fill="none" stroke="midnightblue" d="M333.788,-123.446C315.147,-112.761 294.12,-100.709 278.406,-91.7021"/>
<polygon fill="midnightblue" stroke="midnightblue" points="279.793,-88.4632 269.377,-86.527 276.312,-94.5364 279.793,-88.4632"/>
</g>
<!-- Node3 -->
<g id="node3" class="node"><title>Node3</title>
<g id="a_node3"><a xlink:href="Control_8hpp.html" target="_top" xlink:title="atwork_commander/Control.hpp">
<polygon fill="none" stroke="black" points="300,-67.5 300,-86.5 455,-86.5 455,-67.5 300,-67.5"/>
<text text-anchor="middle" x="377.5" y="-74.5" font-family="Helvetica,sans-Serif" font-size="10.00">atwork_commander/Control.hpp</text>
</a>
</g>
</g>
<!-- Node1&#45;&gt;Node3 -->
<g id="edge2" class="edge"><title>Node1&#45;&gt;Node3</title>
<path fill="none" stroke="midnightblue" d="M377.5,-123.446C377.5,-114.73 377.5,-105.104 377.5,-96.9641"/>
<polygon fill="midnightblue" stroke="midnightblue" points="381,-96.6954 377.5,-86.6955 374,-96.6955 381,-96.6954"/>
</g>
<!-- Node7 -->
<g id="node7" class="node"><title>Node7</title>
<polygon fill="none" stroke="#bfbfbf" points="508,-6 508,-25 549,-25 549,-6 508,-6"/>
<text text-anchor="middle" x="528.5" y="-13" font-family="Helvetica,sans-Serif" font-size="10.00">string</text>
</g>
<!-- Node1&#45;&gt;Node7 -->
<g id="edge8" class="edge"><title>Node1&#45;&gt;Node7</title>
<path fill="none" stroke="midnightblue" d="M416.026,-123.463C431.339,-112.877 448.778,-100 463.5,-87 482.694,-70.0504 502.288,-48.0182 514.873,-33.1297"/>
<polygon fill="midnightblue" stroke="midnightblue" points="517.7,-35.2034 521.416,-25.2815 512.324,-30.7208 517.7,-35.2034"/>
</g>
<!-- Node4 -->
<g id="node4" class="node"><title>Node4</title>
<polygon fill="none" stroke="#bfbfbf" points="0,-0.5 0,-30.5 131,-30.5 131,-0.5 0,-0.5"/>
<text text-anchor="start" x="8" y="-18.5" font-family="Helvetica,sans-Serif" font-size="10.00">atwork_commander_msgs</text>
<text text-anchor="middle" x="65.5" y="-7.5" font-family="Helvetica,sans-Serif" font-size="10.00">/RefboxState.h</text>
</g>
<!-- Node3&#45;&gt;Node4 -->
<g id="edge3" class="edge"><title>Node3&#45;&gt;Node4</title>
<path fill="none" stroke="midnightblue" d="M331.857,-67.4629C286.086,-58.8812 213.302,-45.1783 141.4,-31.3596"/>
<polygon fill="midnightblue" stroke="midnightblue" points="141.744,-27.8617 131.263,-29.4095 140.422,-34.7357 141.744,-27.8617"/>
</g>
<!-- Node5 -->
<g id="node5" class="node"><title>Node5</title>
<polygon fill="none" stroke="#bfbfbf" points="149,-0.5 149,-30.5 280,-30.5 280,-0.5 149,-0.5"/>
<text text-anchor="start" x="157" y="-18.5" font-family="Helvetica,sans-Serif" font-size="10.00">atwork_commander_msgs</text>
<text text-anchor="middle" x="214.5" y="-7.5" font-family="Helvetica,sans-Serif" font-size="10.00">/Task.h</text>
</g>
<!-- Node3&#45;&gt;Node5 -->
<g id="edge4" class="edge"><title>Node3&#45;&gt;Node5</title>
<path fill="none" stroke="midnightblue" d="M354.146,-67.4751C330.316,-58.7765 292.648,-45.0264 262.436,-33.9981"/>
<polygon fill="midnightblue" stroke="midnightblue" points="263.51,-30.6642 252.916,-30.523 261.109,-37.2398 263.51,-30.6642"/>
</g>
<!-- Node6 -->
<g id="node6" class="node"><title>Node6</title>
<polygon fill="none" stroke="#bfbfbf" points="298,-6 298,-25 427,-25 427,-6 298,-6"/>
<text text-anchor="middle" x="362.5" y="-13" font-family="Helvetica,sans-Serif" font-size="10.00">boost/filesystem/path.hpp</text>
</g>
<!-- Node3&#45;&gt;Node6 -->
<g id="edge5" class="edge"><title>Node3&#45;&gt;Node6</title>
<path fill="none" stroke="midnightblue" d="M375.351,-67.4751C373.212,-58.9919 369.862,-45.7043 367.119,-34.8222"/>
<polygon fill="midnightblue" stroke="midnightblue" points="370.484,-33.8501 364.645,-25.0091 363.696,-35.5613 370.484,-33.8501"/>
</g>
<!-- Node3&#45;&gt;Node7 -->
<g id="edge6" class="edge"><title>Node3&#45;&gt;Node7</title>
<path fill="none" stroke="midnightblue" d="M402.8,-67.3729C427.47,-58.7778 465.927,-44.8924 498.5,-31 499.697,-30.4894 500.916,-29.9565 502.143,-29.4092"/>
<polygon fill="midnightblue" stroke="midnightblue" points="503.901,-32.4516 511.494,-25.0626 500.951,-26.1038 503.901,-32.4516"/>
</g>
<!-- Node8 -->
<g id="node8" class="node"><title>Node8</title>
<polygon fill="none" stroke="#bfbfbf" points="445.5,-6 445.5,-25 489.5,-25 489.5,-6 445.5,-6"/>
<text text-anchor="middle" x="467.5" y="-13" font-family="Helvetica,sans-Serif" font-size="10.00">vector</text>
</g>
<!-- Node3&#45;&gt;Node8 -->
<g id="edge7" class="edge"><title>Node3&#45;&gt;Node8</title>
<path fill="none" stroke="midnightblue" d="M390.395,-67.4751C404.964,-57.8431 428.902,-42.0175 446.245,-30.5517"/>
<polygon fill="midnightblue" stroke="midnightblue" points="448.217,-33.4437 454.629,-25.0091 444.357,-27.6044 448.217,-33.4437"/>
</g>
</g>
</svg>
