<?xml version="1.0" encoding="UTF-8" standalone="no"?>
<!DOCTYPE svg PUBLIC "-//W3C//DTD SVG 1.1//EN"
 "http://www.w3.org/Graphics/SVG/1.1/DTD/svg11.dtd">
<!-- Generated by graphviz version 2.38.0 (20140413.2041)
 -->
<!-- Title: main Pages: 1 -->
<!--zoomable 186 -->
<svg id="main" version="1.1" xmlns="http://www.w3.org/2000/svg" xmlns:xlink="http://www.w3.org/1999/xlink" xml:space="preserve" onload="init(evt)">
<style type="text/css"><![CDATA[
.edge:hover path { stroke: red; }
.edge:hover polygon { stroke: red; fill: red; }
]]></style>
<script type="text/javascript"><![CDATA[
var edges = document.getElementsByTagName('g');
if (edges && edges.length) {
  for (var i=0;i<edges.length;i++) {
    if (edges[i].id.substr(0,4)=='edge') {
      edges[i].setAttribute('class','edge');
    }
  }
}
]]></script>
        <defs>
                <circle id="rim" cx="0" cy="0" r="7"/>
                <circle id="rim2" cx="0" cy="0" r="3.5"/>
                <g id="zoomPlus">
                        <use xlink:href="#rim" fill="#404040">
                                <set attributeName="fill" to="#808080" begin="zoomplus.mouseover" end="zoomplus.mouseout"/>
                        </use>
                        <path d="M-4,0h8M0,-4v8" fill="none" stroke="white" stroke-width="1.5" pointer-events="none"/>
                </g>
                <g id="zoomMin">
                        <use xlink:href="#rim" fill="#404040">
                                <set attributeName="fill" to="#808080" begin="zoomminus.mouseover" end="zoomminus.mouseout"/>
                        </use>
                        <path d="M-4,0h8" fill="none" stroke="white" stroke-width="1.5" pointer-events="none"/>
                </g>
                <g id="dirArrow">
                        <path fill="none" stroke="white" stroke-width="1.5" d="M0,-3.0v7 M-2.5,-0.5L0,-3.0L2.5,-0.5"/>
                </g>
               <g id="resetDef">
                       <use xlink:href="#rim2" fill="#404040">
                               <set attributeName="fill" to="#808080" begin="reset.mouseover" end="reset.mouseout"/>
                       </use>
               </g>
        </defs>

<script type="text/javascript">
var viewWidth = 574;
var viewHeight = 186;
var sectionId = 'dynsection-1';
</script>
<script xlink:href="svgpan.js"/>
<svg id="graph" class="graph">
<g id="viewport">
<title>main</title>
<!-- Node1 -->
<g id="node1" class="node"><title>Node1</title>
<polygon fill="#bfbfbf" stroke="black" points="0,-79 0,-98 38,-98 38,-79 0,-79"/>
<text text-anchor="middle" x="19" y="-86" font-family="Helvetica,sans-Serif" font-size="10.00">main</text>
</g>
<!-- Node2 -->
<g id="node2" class="node"><title>Node2</title>
<g id="a_node2"><a xlink:href="classatwork__commander_1_1Control.html#a1c41197baa292fac512b2d5f9971adf5" target="_top" xlink:title="Command to forward the current state of the RefBox manually. ">
<polygon fill="none" stroke="black" points="74,-98.5 74,-128.5 214,-128.5 214,-98.5 74,-98.5"/>
<text text-anchor="start" x="82" y="-116.5" font-family="Helvetica,sans-Serif" font-size="10.00">atwork_commander::Control</text>
<text text-anchor="middle" x="144" y="-105.5" font-family="Helvetica,sans-Serif" font-size="10.00">::forward</text>
</a>
</g>
</g>
<!-- Node1&#45;&gt;Node2 -->
<g id="edge1" class="edge"><title>Node1&#45;&gt;Node2</title>
<path fill="none" stroke="midnightblue" d="M38.1491,-92.1888C45.3902,-93.6606 54.2627,-95.464 63.7518,-97.3926"/>
<polygon fill="midnightblue" stroke="midnightblue" points="63.3242,-100.877 73.821,-99.4392 64.7185,-94.0175 63.3242,-100.877"/>
</g>
<!-- Node7 -->
<g id="node7" class="node"><title>Node7</title>
<g id="a_node7"><a xlink:href="classatwork__commander_1_1Control.html#a0be93e60d9410ceaad5af2bc7a62c771" target="_top" xlink:title="Command to generate a new Task on the RefBox. ">
<polygon fill="none" stroke="black" points="74,-49.5 74,-79.5 214,-79.5 214,-49.5 74,-49.5"/>
<text text-anchor="start" x="82" y="-67.5" font-family="Helvetica,sans-Serif" font-size="10.00">atwork_commander::Control</text>
<text text-anchor="middle" x="144" y="-56.5" font-family="Helvetica,sans-Serif" font-size="10.00">::generate</text>
</a>
</g>
</g>
<!-- Node1&#45;&gt;Node7 -->
<g id="edge6" class="edge"><title>Node1&#45;&gt;Node7</title>
<path fill="none" stroke="midnightblue" d="M38.1491,-84.9587C45.3902,-83.5458 54.2627,-81.8146 63.7518,-79.9631"/>
<polygon fill="midnightblue" stroke="midnightblue" points="64.6764,-83.3487 73.821,-77.9983 63.3358,-76.4783 64.6764,-83.3487"/>
</g>
<!-- Node9 -->
<g id="node9" class="node"><title>Node9</title>
<g id="a_node9"><a xlink:href="classatwork__commander_1_1Control.html#a03d7ab8dde7ac8c41b29a9480b013ed6" target="_top" xlink:title="Command to start the current Task of the RefBox. ">
<polygon fill="none" stroke="black" points="74,-147.5 74,-177.5 214,-177.5 214,-147.5 74,-147.5"/>
<text text-anchor="start" x="82" y="-165.5" font-family="Helvetica,sans-Serif" font-size="10.00">atwork_commander::Control</text>
<text text-anchor="middle" x="144" y="-154.5" font-family="Helvetica,sans-Serif" font-size="10.00">::start</text>
</a>
</g>
</g>
<!-- Node1&#45;&gt;Node9 -->
<g id="edge9" class="edge"><title>Node1&#45;&gt;Node9</title>
<path fill="none" stroke="midnightblue" d="M28.2327,-98.2451C38.0933,-109.369 55.5988,-127.449 74,-138.5 76.7726,-140.165 79.6774,-141.737 82.6607,-143.217"/>
<polygon fill="midnightblue" stroke="midnightblue" points="81.2414,-146.416 91.7919,-147.385 84.1481,-140.048 81.2414,-146.416"/>
</g>
<!-- Node11 -->
<g id="node11" class="node"><title>Node11</title>
<g id="a_node11"><a xlink:href="classatwork__commander_1_1Control.html#a2e6e218794bada422610486644e8d4c5" target="_top" xlink:title="Getter of RefBox state. ">
<polygon fill="none" stroke="black" points="74,-0.5 74,-30.5 214,-30.5 214,-0.5 74,-0.5"/>
<text text-anchor="start" x="82" y="-18.5" font-family="Helvetica,sans-Serif" font-size="10.00">atwork_commander::Control</text>
<text text-anchor="middle" x="144" y="-7.5" font-family="Helvetica,sans-Serif" font-size="10.00">::state</text>
</a>
</g>
</g>
<!-- Node1&#45;&gt;Node11 -->
<g id="edge14" class="edge"><title>Node1&#45;&gt;Node11</title>
<path fill="none" stroke="midnightblue" d="M28.6964,-78.8239C38.7158,-68.1736 56.1101,-51.1539 74,-40.5 77.4124,-38.4678 81.0168,-36.5599 84.7159,-34.776"/>
<polygon fill="midnightblue" stroke="midnightblue" points="86.3532,-37.8778 94.0504,-30.5974 83.4931,-31.4888 86.3532,-37.8778"/>
</g>
<!-- Node3 -->
<g id="node3" class="node"><title>Node3</title>
<g id="a_node3"><a xlink:href="classatwork__commander_1_1ControlImpl.html#a5628bbe3067a289d3d1dda5f59e9cece" target="_top" xlink:title="atwork_commander::Control\lImpl::forward">
<polygon fill="none" stroke="black" points="250,-98.5 250,-128.5 390,-128.5 390,-98.5 250,-98.5"/>
<text text-anchor="start" x="258" y="-116.5" font-family="Helvetica,sans-Serif" font-size="10.00">atwork_commander::Control</text>
<text text-anchor="middle" x="320" y="-105.5" font-family="Helvetica,sans-Serif" font-size="10.00">Impl::forward</text>
</a>
</g>
</g>
<!-- Node2&#45;&gt;Node3 -->
<g id="edge2" class="edge"><title>Node2&#45;&gt;Node3</title>
<path fill="none" stroke="midnightblue" d="M214.019,-113.5C222.476,-113.5 231.169,-113.5 239.761,-113.5"/>
<polygon fill="midnightblue" stroke="midnightblue" points="239.78,-117 249.779,-113.5 239.779,-110 239.78,-117"/>
</g>
<!-- Node4 -->
<g id="node4" class="node"><title>Node4</title>
<g id="a_node4"><a xlink:href="classatwork__commander_1_1ControlError.html#aa8e0a508d07409af6b9ccc3f2b04862c" target="_top" xlink:title="Constructor taking the error description. ">
<polygon fill="none" stroke="black" points="426,-98.5 426,-128.5 566,-128.5 566,-98.5 426,-98.5"/>
<text text-anchor="start" x="434" y="-116.5" font-family="Helvetica,sans-Serif" font-size="10.00">atwork_commander::Control</text>
<text text-anchor="middle" x="496" y="-105.5" font-family="Helvetica,sans-Serif" font-size="10.00">Error::ControlError</text>
</a>
</g>
</g>
<!-- Node3&#45;&gt;Node4 -->
<g id="edge3" class="edge"><title>Node3&#45;&gt;Node4</title>
<path fill="none" stroke="midnightblue" d="M390.019,-113.5C398.476,-113.5 407.169,-113.5 415.761,-113.5"/>
<polygon fill="midnightblue" stroke="midnightblue" points="415.78,-117 425.779,-113.5 415.779,-110 415.78,-117"/>
</g>
<!-- Node5 -->
<g id="node5" class="node"><title>Node5</title>
<g id="a_node5"><a xlink:href="namespaceatwork__commander__msgs.html#a9ecf5e83b56ed832452324374f4ec311" target="_top" xlink:title="atwork_commander_msgs\l::stateName">
<polygon fill="none" stroke="black" points="430.5,-147.5 430.5,-177.5 561.5,-177.5 561.5,-147.5 430.5,-147.5"/>
<text text-anchor="start" x="438.5" y="-165.5" font-family="Helvetica,sans-Serif" font-size="10.00">atwork_commander_msgs</text>
<text text-anchor="middle" x="496" y="-154.5" font-family="Helvetica,sans-Serif" font-size="10.00">::stateName</text>
</a>
</g>
</g>
<!-- Node3&#45;&gt;Node5 -->
<g id="edge4" class="edge"><title>Node3&#45;&gt;Node5</title>
<path fill="none" stroke="midnightblue" d="M374.626,-128.601C392.737,-133.702 413.124,-139.443 431.9,-144.73"/>
<polygon fill="midnightblue" stroke="midnightblue" points="430.977,-148.107 441.552,-147.448 432.875,-141.369 430.977,-148.107"/>
</g>
<!-- Node6 -->
<g id="node6" class="node"><title>Node6</title>
<g id="a_node6"><a xlink:href="namespaceatwork__commander.html#a144d24cd0805258cbfd6f8cb8795feca" target="_top" xlink:title="atwork_commander::call">
<polygon fill="none" stroke="black" points="434.5,-60 434.5,-79 557.5,-79 557.5,-60 434.5,-60"/>
<text text-anchor="middle" x="496" y="-67" font-family="Helvetica,sans-Serif" font-size="10.00">atwork_commander::call</text>
</a>
</g>
</g>
<!-- Node3&#45;&gt;Node6 -->
<g id="edge5" class="edge"><title>Node3&#45;&gt;Node6</title>
<path fill="none" stroke="midnightblue" d="M380.394,-98.4808C402.307,-92.9396 426.827,-86.7393 447.545,-81.5001"/>
<polygon fill="midnightblue" stroke="midnightblue" points="448.546,-84.8573 457.383,-79.0124 446.83,-78.0709 448.546,-84.8573"/>
</g>
<!-- Node8 -->
<g id="node8" class="node"><title>Node8</title>
<g id="a_node8"><a xlink:href="classatwork__commander_1_1ControlImpl.html#aa442ba265143eca7295803670ef72f3d" target="_top" xlink:title="atwork_commander::Control\lImpl::generate">
<polygon fill="none" stroke="black" points="250,-49.5 250,-79.5 390,-79.5 390,-49.5 250,-49.5"/>
<text text-anchor="start" x="258" y="-67.5" font-family="Helvetica,sans-Serif" font-size="10.00">atwork_commander::Control</text>
<text text-anchor="middle" x="320" y="-56.5" font-family="Helvetica,sans-Serif" font-size="10.00">Impl::generate</text>
</a>
</g>
</g>
<!-- Node7&#45;&gt;Node8 -->
<g id="edge7" class="edge"><title>Node7&#45;&gt;Node8</title>
<path fill="none" stroke="midnightblue" d="M214.019,-64.5C222.476,-64.5 231.169,-64.5 239.761,-64.5"/>
<polygon fill="midnightblue" stroke="midnightblue" points="239.78,-68.0001 249.779,-64.5 239.779,-61.0001 239.78,-68.0001"/>
</g>
<!-- Node8&#45;&gt;Node6 -->
<g id="edge8" class="edge"><title>Node8&#45;&gt;Node6</title>
<path fill="none" stroke="midnightblue" d="M390.019,-66.4833C401.207,-66.8048 412.809,-67.1382 424.041,-67.4609"/>
<polygon fill="midnightblue" stroke="midnightblue" points="424.134,-70.965 434.23,-67.7537 424.335,-63.9678 424.134,-70.965"/>
</g>
<!-- Node10 -->
<g id="node10" class="node"><title>Node10</title>
<g id="a_node10"><a xlink:href="classatwork__commander_1_1ControlImpl.html#a61e7adc72e3d1ae5f8ba7099e7ea1a58" target="_top" xlink:title="atwork_commander::Control\lImpl::start">
<polygon fill="none" stroke="black" points="250,-147.5 250,-177.5 390,-177.5 390,-147.5 250,-147.5"/>
<text text-anchor="start" x="258" y="-165.5" font-family="Helvetica,sans-Serif" font-size="10.00">atwork_commander::Control</text>
<text text-anchor="middle" x="320" y="-154.5" font-family="Helvetica,sans-Serif" font-size="10.00">Impl::start</text>
</a>
</g>
</g>
<!-- Node9&#45;&gt;Node10 -->
<g id="edge10" class="edge"><title>Node9&#45;&gt;Node10</title>
<path fill="none" stroke="midnightblue" d="M214.019,-162.5C222.476,-162.5 231.169,-162.5 239.761,-162.5"/>
<polygon fill="midnightblue" stroke="midnightblue" points="239.78,-166 249.779,-162.5 239.779,-159 239.78,-166"/>
</g>
<!-- Node10&#45;&gt;Node4 -->
<g id="edge11" class="edge"><title>Node10&#45;&gt;Node4</title>
<path fill="none" stroke="midnightblue" d="M374.626,-147.399C392.737,-142.298 413.124,-136.557 431.9,-131.27"/>
<polygon fill="midnightblue" stroke="midnightblue" points="432.875,-134.631 441.552,-128.552 430.977,-127.893 432.875,-134.631"/>
</g>
<!-- Node10&#45;&gt;Node5 -->
<g id="edge12" class="edge"><title>Node10&#45;&gt;Node5</title>
<path fill="none" stroke="midnightblue" d="M390.019,-162.5C399.878,-162.5 410.059,-162.5 420.025,-162.5"/>
<polygon fill="midnightblue" stroke="midnightblue" points="420.311,-166 430.311,-162.5 420.311,-159 420.311,-166"/>
</g>
<!-- Node10&#45;&gt;Node6 -->
<g id="edge13" class="edge"><title>Node10&#45;&gt;Node6</title>
<path fill="none" stroke="midnightblue" d="M374.996,-147.373C380.299,-144.83 385.408,-141.89 390,-138.5 411.741,-122.45 403.845,-104.973 426,-89.5 429.509,-87.0496 433.316,-84.8968 437.28,-83.0059"/>
<polygon fill="midnightblue" stroke="midnightblue" points="438.866,-86.1366 446.743,-79.0519 436.167,-79.6776 438.866,-86.1366"/>
</g>
</g>
</svg>
        <g id="navigator" transform="translate(0 0)" fill="#404254">
                <rect fill="#f2f5e9" fill-opacity="0.5" stroke="#606060" stroke-width=".5" x="0" y="0" width="60" height="60"/>
                <use id="zoomplus" xlink:href="#zoomPlus" x="17" y="9" onmousedown="handleZoom(evt,'in')"/>
                <use id="zoomminus" xlink:href="#zoomMin" x="42" y="9" onmousedown="handleZoom(evt,'out')"/>
                <use id="reset" xlink:href="#resetDef" x="30" y="36" onmousedown="handleReset()"/>
                <g id="arrowUp" xlink:href="#dirArrow" transform="translate(30 24)" onmousedown="handlePan(0,-1)">
                  <use xlink:href="#rim" fill="#404040">
                        <set attributeName="fill" to="#808080" begin="arrowUp.mouseover" end="arrowUp.mouseout"/>
                  </use>
                  <path fill="none" stroke="white" stroke-width="1.5" d="M0,-3.0v7 M-2.5,-0.5L0,-3.0L2.5,-0.5"/>
                </g>
                <g id="arrowRight" xlink:href="#dirArrow" transform="rotate(90) translate(36 -43)" onmousedown="handlePan(1,0)">
                  <use xlink:href="#rim" fill="#404040">
                        <set attributeName="fill" to="#808080" begin="arrowRight.mouseover" end="arrowRight.mouseout"/>
                  </use>
                  <path fill="none" stroke="white" stroke-width="1.5" d="M0,-3.0v7 M-2.5,-0.5L0,-3.0L2.5,-0.5"/>
                </g>
                <g id="arrowDown" xlink:href="#dirArrow" transform="rotate(180) translate(-30 -48)" onmousedown="handlePan(0,1)">
                  <use xlink:href="#rim" fill="#404040">
                        <set attributeName="fill" to="#808080" begin="arrowDown.mouseover" end="arrowDown.mouseout"/>
                  </use>
                  <path fill="none" stroke="white" stroke-width="1.5" d="M0,-3.0v7 M-2.5,-0.5L0,-3.0L2.5,-0.5"/>
                </g>
                <g id="arrowLeft" xlink:href="#dirArrow" transform="rotate(270) translate(-36 17)" onmousedown="handlePan(-1,0)">
                  <use xlink:href="#rim" fill="#404040">
                        <set attributeName="fill" to="#808080" begin="arrowLeft.mouseover" end="arrowLeft.mouseout"/>
                  </use>
                  <path fill="none" stroke="white" stroke-width="1.5" d="M0,-3.0v7 M-2.5,-0.5L0,-3.0L2.5,-0.5"/>
                </g>
        </g>
        <svg viewBox="0 0 15 15" width="100%" height="30px" preserveAspectRatio="xMaxYMin meet">
         <g id="arrow_out" transform="scale(0.3 0.3)">
          <a xlink:href="basic__setup_8cpp_a3c04138a5bfe5d72780bb7e82a18e627_cgraph_org.svg" target="_base">
           <rect id="button" ry="5" rx="5" y="6" x="6" height="38" width="38"
                fill="#f2f5e9" fill-opacity="0.5" stroke="#606060" stroke-width="1.0"/>
           <path id="arrow"
             d="M 11.500037,31.436501 C 11.940474,20.09759 22.043105,11.32322 32.158766,21.979434 L 37.068811,17.246167 C 37.068811,17.246167 37.088388,32 37.088388,32 L 22.160133,31.978069 C 22.160133,31.978069 26.997745,27.140456 26.997745,27.140456 C 18.528582,18.264221 13.291696,25.230495 11.500037,31.436501 z"
             style="fill:#404040;"/>
          </a>
         </g>
        </svg>
</svg>
