<?xml version="1.0" encoding="UTF-8" standalone="no"?>
<!DOCTYPE svg PUBLIC "-//W3C//DTD SVG 1.1//EN"
 "http://www.w3.org/Graphics/SVG/1.1/DTD/svg11.dtd">
<!-- Generated by graphviz version 2.38.0 (20140413.2041)
 -->
<!-- Title: atwork_commander::Control::start Pages: 1 -->
<svg width="500pt" height="127pt"
 viewBox="0.00 0.00 500.00 126.50" xmlns="http://www.w3.org/2000/svg" xmlns:xlink="http://www.w3.org/1999/xlink">
<g id="graph0" class="graph" transform="scale(1 1) rotate(0) translate(4 122.5)">
<title>atwork_commander::Control::start</title>
<!-- Node1 -->
<g id="node1" class="node"><title>Node1</title>
<polygon fill="#bfbfbf" stroke="black" points="0,-39 0,-69 140,-69 140,-39 0,-39"/>
<text text-anchor="start" x="8" y="-57" font-family="Helvetica,sans-Serif" font-size="10.00">atwork_commander::Control</text>
<text text-anchor="middle" x="70" y="-46" font-family="Helvetica,sans-Serif" font-size="10.00">::start</text>
</g>
<!-- Node2 -->
<g id="node2" class="node"><title>Node2</title>
<g id="a_node2"><a xlink:href="classatwork__commander_1_1ControlImpl.html#a61e7adc72e3d1ae5f8ba7099e7ea1a58" target="_top" xlink:title="atwork_commander::Control\lImpl::start">
<polygon fill="none" stroke="black" points="176,-39 176,-69 316,-69 316,-39 176,-39"/>
<text text-anchor="start" x="184" y="-57" font-family="Helvetica,sans-Serif" font-size="10.00">atwork_commander::Control</text>
<text text-anchor="middle" x="246" y="-46" font-family="Helvetica,sans-Serif" font-size="10.00">Impl::start</text>
</a>
</g>
</g>
<!-- Node1&#45;&gt;Node2 -->
<g id="edge1" class="edge"><title>Node1&#45;&gt;Node2</title>
<path fill="none" stroke="midnightblue" d="M140.019,-54C148.476,-54 157.169,-54 165.761,-54"/>
<polygon fill="midnightblue" stroke="midnightblue" points="165.78,-57.5001 175.779,-54 165.779,-50.5001 165.78,-57.5001"/>
</g>
<!-- Node3 -->
<g id="node3" class="node"><title>Node3</title>
<g id="a_node3"><a xlink:href="classatwork__commander_1_1ControlError.html#aa8e0a508d07409af6b9ccc3f2b04862c" target="_top" xlink:title="Constructor taking the error description. ">
<polygon fill="none" stroke="black" points="352,-88 352,-118 492,-118 492,-88 352,-88"/>
<text text-anchor="start" x="360" y="-106" font-family="Helvetica,sans-Serif" font-size="10.00">atwork_commander::Control</text>
<text text-anchor="middle" x="422" y="-95" font-family="Helvetica,sans-Serif" font-size="10.00">Error::ControlError</text>
</a>
</g>
</g>
<!-- Node2&#45;&gt;Node3 -->
<g id="edge2" class="edge"><title>Node2&#45;&gt;Node3</title>
<path fill="none" stroke="midnightblue" d="M300.626,-69.1014C318.737,-74.2019 339.124,-79.9429 357.9,-85.2305"/>
<polygon fill="midnightblue" stroke="midnightblue" points="356.977,-88.6067 367.552,-87.9484 358.875,-81.8687 356.977,-88.6067"/>
</g>
<!-- Node4 -->
<g id="node4" class="node"><title>Node4</title>
<g id="a_node4"><a xlink:href="namespaceatwork__commander__msgs.html#a9ecf5e83b56ed832452324374f4ec311" target="_top" xlink:title="atwork_commander_msgs\l::stateName">
<polygon fill="none" stroke="black" points="356.5,-39 356.5,-69 487.5,-69 487.5,-39 356.5,-39"/>
<text text-anchor="start" x="364.5" y="-57" font-family="Helvetica,sans-Serif" font-size="10.00">atwork_commander_msgs</text>
<text text-anchor="middle" x="422" y="-46" font-family="Helvetica,sans-Serif" font-size="10.00">::stateName</text>
</a>
</g>
</g>
<!-- Node2&#45;&gt;Node4 -->
<g id="edge3" class="edge"><title>Node2&#45;&gt;Node4</title>
<path fill="none" stroke="midnightblue" d="M316.019,-54C325.878,-54 336.059,-54 346.025,-54"/>
<polygon fill="midnightblue" stroke="midnightblue" points="346.311,-57.5001 356.311,-54 346.311,-50.5001 346.311,-57.5001"/>
</g>
<!-- Node5 -->
<g id="node5" class="node"><title>Node5</title>
<g id="a_node5"><a xlink:href="namespaceatwork__commander.html#a144d24cd0805258cbfd6f8cb8795feca" target="_top" xlink:title="atwork_commander::call">
<polygon fill="none" stroke="black" points="360.5,-0.5 360.5,-19.5 483.5,-19.5 483.5,-0.5 360.5,-0.5"/>
<text text-anchor="middle" x="422" y="-7.5" font-family="Helvetica,sans-Serif" font-size="10.00">atwork_commander::call</text>
</a>
</g>
</g>
<!-- Node2&#45;&gt;Node5 -->
<g id="edge4" class="edge"><title>Node2&#45;&gt;Node5</title>
<path fill="none" stroke="midnightblue" d="M306.394,-38.9808C328.307,-33.4396 352.827,-27.2393 373.545,-22.0001"/>
<polygon fill="midnightblue" stroke="midnightblue" points="374.546,-25.3573 383.383,-19.5124 372.83,-18.5709 374.546,-25.3573"/>
</g>
</g>
</svg>
