<?xml version="1.0" encoding="UTF-8" standalone="no"?>
<!DOCTYPE svg PUBLIC "-//W3C//DTD SVG 1.1//EN"
 "http://www.w3.org/Graphics/SVG/1.1/DTD/svg11.dtd">
<!-- Generated by graphviz version 2.38.0 (20140413.2041)
 -->
<!-- Title: atwork_commander::MainVisGroup Pages: 1 -->
<svg width="230pt" height="241pt"
 viewBox="0.00 0.00 230.00 241.00" xmlns="http://www.w3.org/2000/svg" xmlns:xlink="http://www.w3.org/1999/xlink">
<g id="graph0" class="graph" transform="scale(1 1) rotate(0) translate(4 237)">
<title>atwork_commander::MainVisGroup</title>
<!-- Node1 -->
<g id="node1" class="node"><title>Node1</title>
<polygon fill="#bfbfbf" stroke="black" points="19,-0.5 19,-30.5 162,-30.5 162,-0.5 19,-0.5"/>
<text text-anchor="start" x="27" y="-18.5" font-family="Helvetica,sans-Serif" font-size="10.00">atwork_commander::MainVis</text>
<text text-anchor="middle" x="90.5" y="-7.5" font-family="Helvetica,sans-Serif" font-size="10.00">Group</text>
</g>
<!-- Node2 -->
<g id="node2" class="node"><title>Node2</title>
<g id="a_node2"><a xlink:href="classatwork__commander_1_1VisGroup.html" target="_top" xlink:title="Abstract Base Class VisGroup. ">
<polygon fill="none" stroke="black" points="-1.42109e-14,-156.5 -1.42109e-14,-175.5 149,-175.5 149,-156.5 -1.42109e-14,-156.5"/>
<text text-anchor="middle" x="74.5" y="-163.5" font-family="Helvetica,sans-Serif" font-size="10.00">atwork_commander::VisGroup</text>
</a>
</g>
</g>
<!-- Node2&#45;&gt;Node1 -->
<g id="edge1" class="edge"><title>Node2&#45;&gt;Node1</title>
<path fill="none" stroke="midnightblue" d="M74.2086,-146.211C74.1564,-128.541 74.6476,-101.382 77.5,-78 79.5087,-61.5343 83.7151,-42.9405 86.8012,-30.5505"/>
<polygon fill="midnightblue" stroke="midnightblue" points="70.7097,-146.35 74.302,-156.317 77.7094,-146.285 70.7097,-146.35"/>
</g>
<!-- Node4 -->
<g id="node4" class="node"><title>Node4</title>
<polygon fill="none" stroke="#bfbfbf" points="87,-78.5 87,-108.5 222,-108.5 222,-78.5 87,-78.5"/>
<text text-anchor="start" x="95" y="-96.5" font-family="Helvetica,sans-Serif" font-size="10.00">std::vector&lt; atwork</text>
<text text-anchor="middle" x="154.5" y="-85.5" font-family="Helvetica,sans-Serif" font-size="10.00">_commander::VisGroup * &gt;</text>
</g>
<!-- Node2&#45;&gt;Node4 -->
<g id="edge4" class="edge"><title>Node2&#45;&gt;Node4</title>
<path fill="none" stroke="#9a32cd" stroke-dasharray="5,2" d="M92.1565,-149.44C106.009,-137.232 125.126,-120.386 138.527,-108.576"/>
<polygon fill="#9a32cd" stroke="#9a32cd" points="89.498,-147.118 84.3096,-156.355 94.1261,-152.37 89.498,-147.118"/>
<text text-anchor="middle" x="138" y="-130" font-family="Helvetica,sans-Serif" font-size="10.00"> elements</text>
</g>
<!-- Node3 -->
<g id="node3" class="node"><title>Node3</title>
<polygon fill="none" stroke="#bfbfbf" points="47,-213.5 47,-232.5 102,-232.5 102,-213.5 47,-213.5"/>
<text text-anchor="middle" x="74.5" y="-220.5" font-family="Helvetica,sans-Serif" font-size="10.00">QWidget</text>
</g>
<!-- Node3&#45;&gt;Node2 -->
<g id="edge2" class="edge"><title>Node3&#45;&gt;Node2</title>
<path fill="none" stroke="midnightblue" d="M74.5,-203.117C74.5,-193.817 74.5,-183.056 74.5,-175.715"/>
<polygon fill="midnightblue" stroke="midnightblue" points="71.0001,-203.406 74.5,-213.406 78.0001,-203.406 71.0001,-203.406"/>
</g>
<!-- Node4&#45;&gt;Node1 -->
<g id="edge3" class="edge"><title>Node4&#45;&gt;Node1</title>
<path fill="none" stroke="#9a32cd" stroke-dasharray="5,2" d="M135.811,-70.3065C125.054,-57.5329 111.855,-41.8596 102.484,-30.7309"/>
<polygon fill="#9a32cd" stroke="#9a32cd" points="133.344,-72.8103 142.462,-78.205 138.698,-68.3014 133.344,-72.8103"/>
<text text-anchor="middle" x="151" y="-52" font-family="Helvetica,sans-Serif" font-size="10.00"> subGroups</text>
</g>
</g>
</svg>
