<?xml version="1.0" encoding="UTF-8" standalone="no"?>
<!DOCTYPE svg PUBLIC "-//W3C//DTD SVG 1.1//EN"
 "http://www.w3.org/Graphics/SVG/1.1/DTD/svg11.dtd">
<!-- Generated by graphviz version 2.38.0 (20140413.2041)
 -->
<!-- Title: atwork_commander::RefboxUI::RefboxUI Pages: 1 -->
<svg width="518pt" height="186pt"
 viewBox="0.00 0.00 518.00 186.00" xmlns="http://www.w3.org/2000/svg" xmlns:xlink="http://www.w3.org/1999/xlink">
<g id="graph0" class="graph" transform="scale(1 1) rotate(0) translate(4 182)">
<title>atwork_commander::RefboxUI::RefboxUI</title>
<!-- Node1 -->
<g id="node1" class="node"><title>Node1</title>
<polygon fill="#bfbfbf" stroke="black" points="0,-49.5 0,-79.5 140,-79.5 140,-49.5 0,-49.5"/>
<text text-anchor="start" x="8" y="-67.5" font-family="Helvetica,sans-Serif" font-size="10.00">atwork_commander::Refbox</text>
<text text-anchor="middle" x="70" y="-56.5" font-family="Helvetica,sans-Serif" font-size="10.00">UI::RefboxUI</text>
</g>
<!-- Node2 -->
<g id="node2" class="node"><title>Node2</title>
<g id="a_node2"><a xlink:href="classatwork__commander_1_1VisGroup.html#a3625a60aa0c1c5bb1bfa16deef78e9eb" target="_top" xlink:title="atwork_commander::VisGroup\l::getLayout">
<polygon fill="none" stroke="black" points="176,-98.5 176,-128.5 325,-128.5 325,-98.5 176,-98.5"/>
<text text-anchor="start" x="184" y="-116.5" font-family="Helvetica,sans-Serif" font-size="10.00">atwork_commander::VisGroup</text>
<text text-anchor="middle" x="250.5" y="-105.5" font-family="Helvetica,sans-Serif" font-size="10.00">::getLayout</text>
</a>
</g>
</g>
<!-- Node1&#45;&gt;Node2 -->
<g id="edge1" class="edge"><title>Node1&#45;&gt;Node2</title>
<path fill="none" stroke="midnightblue" d="M126.012,-79.6014C144.593,-84.7019 165.506,-90.4429 184.768,-95.7305"/>
<polygon fill="midnightblue" stroke="midnightblue" points="184.099,-99.1763 194.669,-98.4484 185.953,-92.426 184.099,-99.1763"/>
</g>
<!-- Node5 -->
<g id="node5" class="node"><title>Node5</title>
<g id="a_node5"><a xlink:href="classatwork__commander_1_1MainVisGroup.html#af1c7fd751989c17ebfff0d726eebcee4" target="_top" xlink:title="Hand a VisGroup&#45;SubClass&#45;Instance over to the MainVisGroup. ">
<polygon fill="none" stroke="black" points="179,-49.5 179,-79.5 322,-79.5 322,-49.5 179,-49.5"/>
<text text-anchor="start" x="187" y="-67.5" font-family="Helvetica,sans-Serif" font-size="10.00">atwork_commander::MainVis</text>
<text text-anchor="middle" x="250.5" y="-56.5" font-family="Helvetica,sans-Serif" font-size="10.00">Group::registerSubclass</text>
</a>
</g>
</g>
<!-- Node1&#45;&gt;Node5 -->
<g id="edge4" class="edge"><title>Node1&#45;&gt;Node5</title>
<path fill="none" stroke="midnightblue" d="M140.013,-64.5C149.379,-64.5 159.059,-64.5 168.61,-64.5"/>
<polygon fill="midnightblue" stroke="midnightblue" points="168.902,-68.0001 178.902,-64.5 168.902,-61.0001 168.902,-68.0001"/>
</g>
<!-- Node7 -->
<g id="node7" class="node"><title>Node7</title>
<g id="a_node7"><a xlink:href="classatwork__commander_1_1MainVisGroup.html#aa1792b6615522d05178030a9e2315796" target="_top" xlink:title="atwork_commander::MainVis\lGroup::setControlPtr">
<polygon fill="none" stroke="black" points="179,-0.5 179,-30.5 322,-30.5 322,-0.5 179,-0.5"/>
<text text-anchor="start" x="187" y="-18.5" font-family="Helvetica,sans-Serif" font-size="10.00">atwork_commander::MainVis</text>
<text text-anchor="middle" x="250.5" y="-7.5" font-family="Helvetica,sans-Serif" font-size="10.00">Group::setControlPtr</text>
</a>
</g>
</g>
<!-- Node1&#45;&gt;Node7 -->
<g id="edge6" class="edge"><title>Node1&#45;&gt;Node7</title>
<path fill="none" stroke="midnightblue" d="M126.012,-49.3986C144.593,-44.2981 165.506,-38.5571 184.768,-33.2695"/>
<polygon fill="midnightblue" stroke="midnightblue" points="185.953,-36.574 194.669,-30.5516 184.099,-29.8237 185.953,-36.574"/>
</g>
<!-- Node3 -->
<g id="node3" class="node"><title>Node3</title>
<g id="a_node3"><a xlink:href="classatwork__commander_1_1VisGroup.html#ab16f264ab8442490f30803048a6f0112" target="_top" xlink:title="Disable update of the Widget if hasFocus returns true. ">
<polygon fill="none" stroke="black" points="361,-147.5 361,-177.5 510,-177.5 510,-147.5 361,-147.5"/>
<text text-anchor="start" x="369" y="-165.5" font-family="Helvetica,sans-Serif" font-size="10.00">atwork_commander::VisGroup</text>
<text text-anchor="middle" x="435.5" y="-154.5" font-family="Helvetica,sans-Serif" font-size="10.00">::hasFocus</text>
</a>
</g>
</g>
<!-- Node2&#45;&gt;Node3 -->
<g id="edge2" class="edge"><title>Node2&#45;&gt;Node3</title>
<path fill="none" stroke="midnightblue" d="M307.899,-128.601C327.035,-133.725 348.586,-139.496 368.408,-144.803"/>
<polygon fill="midnightblue" stroke="midnightblue" points="367.722,-148.243 378.287,-147.448 369.533,-141.481 367.722,-148.243"/>
</g>
<!-- Node4 -->
<g id="node4" class="node"><title>Node4</title>
<g id="a_node4"><a xlink:href="classatwork__commander_1_1VisGroup.html#a4cb190b5198ab8de98ff2163932d5114" target="_top" xlink:title="Causes the Widget to update itself. ">
<polygon fill="none" stroke="black" points="361,-98.5 361,-128.5 510,-128.5 510,-98.5 361,-98.5"/>
<text text-anchor="start" x="369" y="-116.5" font-family="Helvetica,sans-Serif" font-size="10.00">atwork_commander::VisGroup</text>
<text text-anchor="middle" x="435.5" y="-105.5" font-family="Helvetica,sans-Serif" font-size="10.00">::update</text>
</a>
</g>
</g>
<!-- Node2&#45;&gt;Node4 -->
<g id="edge3" class="edge"><title>Node2&#45;&gt;Node4</title>
<path fill="none" stroke="midnightblue" d="M325.142,-113.5C333.474,-113.5 342.011,-113.5 350.463,-113.5"/>
<polygon fill="midnightblue" stroke="midnightblue" points="350.711,-117 360.711,-113.5 350.711,-110 350.711,-117"/>
</g>
<!-- Node6 -->
<g id="node6" class="node"><title>Node6</title>
<g id="a_node6"><a xlink:href="classatwork__commander_1_1VisGroup.html#afcbff2fc94b97091181b9ddb2386eb5f" target="_top" xlink:title="atwork_commander::VisGroup\l::getWidget">
<polygon fill="none" stroke="black" points="361,-49.5 361,-79.5 510,-79.5 510,-49.5 361,-49.5"/>
<text text-anchor="start" x="369" y="-67.5" font-family="Helvetica,sans-Serif" font-size="10.00">atwork_commander::VisGroup</text>
<text text-anchor="middle" x="435.5" y="-56.5" font-family="Helvetica,sans-Serif" font-size="10.00">::getWidget</text>
</a>
</g>
</g>
<!-- Node5&#45;&gt;Node6 -->
<g id="edge5" class="edge"><title>Node5&#45;&gt;Node6</title>
<path fill="none" stroke="midnightblue" d="M322.253,-64.5C331.559,-64.5 341.168,-64.5 350.666,-64.5"/>
<polygon fill="midnightblue" stroke="midnightblue" points="350.909,-68.0001 360.909,-64.5 350.909,-61.0001 350.909,-68.0001"/>
</g>
</g>
</svg>
