<?xml version="1.0" encoding="UTF-8" standalone="no"?>
<!DOCTYPE svg PUBLIC "-//W3C//DTD SVG 1.1//EN"
 "http://www.w3.org/Graphics/SVG/1.1/DTD/svg11.dtd">
<!-- Generated by graphviz version 2.38.0 (20140413.2041)
 -->
<!-- Title: atwork_commander::Control::forward Pages: 1 -->
<svg width="413pt" height="66pt"
 viewBox="0.00 0.00 413.00 66.00" xmlns="http://www.w3.org/2000/svg" xmlns:xlink="http://www.w3.org/1999/xlink">
<g id="graph0" class="graph" transform="scale(1 1) rotate(0) translate(4 62)">
<title>atwork_commander::Control::forward</title>
<!-- Node1 -->
<g id="node1" class="node"><title>Node1</title>
<polygon fill="#bfbfbf" stroke="black" points="0,-14 0,-44 140,-44 140,-14 0,-14"/>
<text text-anchor="start" x="8" y="-32" font-family="Helvetica,sans-Serif" font-size="10.00">atwork_commander::Control</text>
<text text-anchor="middle" x="70" y="-21" font-family="Helvetica,sans-Serif" font-size="10.00">::forward</text>
</g>
<!-- Node2 -->
<g id="node2" class="node"><title>Node2</title>
<g id="a_node2"><a xlink:href="control__node_8cpp.html#af9d4be400cd482065e05d3fe6809d499" target="_top" xlink:title="forward">
<polygon fill="none" stroke="black" points="176,-38.5 176,-57.5 225,-57.5 225,-38.5 176,-38.5"/>
<text text-anchor="middle" x="200.5" y="-45.5" font-family="Helvetica,sans-Serif" font-size="10.00">forward</text>
</a>
</g>
</g>
<!-- Node1&#45;&gt;Node2 -->
<g id="edge1" class="edge"><title>Node1&#45;&gt;Node2</title>
<path fill="none" stroke="midnightblue" d="M150.271,-40.721C159.485,-42.0834 168.262,-43.3812 175.786,-44.4937"/>
<polygon fill="midnightblue" stroke="midnightblue" points="150.544,-37.2234 140.14,-39.223 149.52,-44.1481 150.544,-37.2234"/>
</g>
<!-- Node5 -->
<g id="node5" class="node"><title>Node5</title>
<g id="a_node5"><a xlink:href="basic__setup_8cpp.html#a3c04138a5bfe5d72780bb7e82a18e627" target="_top" xlink:title="main">
<polygon fill="none" stroke="black" points="181.5,-0.5 181.5,-19.5 219.5,-19.5 219.5,-0.5 181.5,-0.5"/>
<text text-anchor="middle" x="200.5" y="-7.5" font-family="Helvetica,sans-Serif" font-size="10.00">main</text>
</a>
</g>
</g>
<!-- Node1&#45;&gt;Node5 -->
<g id="edge4" class="edge"><title>Node1&#45;&gt;Node5</title>
<path fill="none" stroke="midnightblue" d="M150.107,-17.3032C161.822,-15.5711 172.84,-13.942 181.484,-12.6639"/>
<polygon fill="midnightblue" stroke="midnightblue" points="149.52,-13.8519 140.14,-18.777 150.544,-20.7766 149.52,-13.8519"/>
</g>
<!-- Node3 -->
<g id="node3" class="node"><title>Node3</title>
<g id="a_node3"><a xlink:href="control__node_8cpp.html#a98733d6ad140ddb4f5a57388e89684ea" target="_top" xlink:title="stateUpdate">
<polygon fill="none" stroke="black" points="261,-38.5 261,-57.5 331,-57.5 331,-38.5 261,-38.5"/>
<text text-anchor="middle" x="296" y="-45.5" font-family="Helvetica,sans-Serif" font-size="10.00">stateUpdate</text>
</a>
</g>
</g>
<!-- Node2&#45;&gt;Node3 -->
<g id="edge2" class="edge"><title>Node2&#45;&gt;Node3</title>
<path fill="none" stroke="midnightblue" d="M235.227,-48C243.55,-48 252.47,-48 260.814,-48"/>
<polygon fill="midnightblue" stroke="midnightblue" points="235.094,-44.5001 225.094,-48 235.094,-51.5001 235.094,-44.5001"/>
</g>
<!-- Node4 -->
<g id="node4" class="node"><title>Node4</title>
<g id="a_node4"><a xlink:href="control__node_8cpp.html#a3c04138a5bfe5d72780bb7e82a18e627" target="_top" xlink:title="main">
<polygon fill="none" stroke="black" points="367,-38.5 367,-57.5 405,-57.5 405,-38.5 367,-38.5"/>
<text text-anchor="middle" x="386" y="-45.5" font-family="Helvetica,sans-Serif" font-size="10.00">main</text>
</a>
</g>
</g>
<!-- Node3&#45;&gt;Node4 -->
<g id="edge3" class="edge"><title>Node3&#45;&gt;Node4</title>
<path fill="none" stroke="midnightblue" d="M341.181,-48C350.247,-48 359.302,-48 366.808,-48"/>
<polygon fill="midnightblue" stroke="midnightblue" points="341.023,-44.5001 331.023,-48 341.023,-51.5001 341.023,-44.5001"/>
</g>
</g>
</svg>
