<?xml version="1.0" encoding="UTF-8" standalone="no"?>
<!DOCTYPE svg PUBLIC "-//W3C//DTD SVG 1.1//EN"
 "http://www.w3.org/Graphics/SVG/1.1/DTD/svg11.dtd">
<!-- Generated by graphviz version 2.38.0 (20140413.2041)
 -->
<!-- Title: atwork_commander::ControlImpl::generate Pages: 1 -->
<svg width="919pt" height="85pt"
 viewBox="0.00 0.00 919.00 85.00" xmlns="http://www.w3.org/2000/svg" xmlns:xlink="http://www.w3.org/1999/xlink">
<g id="graph0" class="graph" transform="scale(1 1) rotate(0) translate(4 81)">
<title>atwork_commander::ControlImpl::generate</title>
<!-- Node1 -->
<g id="node1" class="node"><title>Node1</title>
<polygon fill="#bfbfbf" stroke="black" points="0,-14 0,-44 140,-44 140,-14 0,-14"/>
<text text-anchor="start" x="8" y="-32" font-family="Helvetica,sans-Serif" font-size="10.00">atwork_commander::Control</text>
<text text-anchor="middle" x="70" y="-21" font-family="Helvetica,sans-Serif" font-size="10.00">Impl::generate</text>
</g>
<!-- Node2 -->
<g id="node2" class="node"><title>Node2</title>
<g id="a_node2"><a xlink:href="classatwork__commander_1_1Control.html#a0be93e60d9410ceaad5af2bc7a62c771" target="_top" xlink:title="Command to generate a new Task on the RefBox. ">
<polygon fill="none" stroke="black" points="176,-14 176,-44 316,-44 316,-14 176,-14"/>
<text text-anchor="start" x="184" y="-32" font-family="Helvetica,sans-Serif" font-size="10.00">atwork_commander::Control</text>
<text text-anchor="middle" x="246" y="-21" font-family="Helvetica,sans-Serif" font-size="10.00">::generate</text>
</a>
</g>
</g>
<!-- Node1&#45;&gt;Node2 -->
<g id="edge1" class="edge"><title>Node1&#45;&gt;Node2</title>
<path fill="none" stroke="midnightblue" d="M150.035,-29C158.625,-29 167.319,-29 175.779,-29"/>
<polygon fill="midnightblue" stroke="midnightblue" points="150.019,-25.5001 140.019,-29 150.019,-32.5001 150.019,-25.5001"/>
</g>
<!-- Node3 -->
<g id="node3" class="node"><title>Node3</title>
<g id="a_node3"><a xlink:href="control__node_8cpp.html#ae7f1525a6480d4cc745dc300c883f55e" target="_top" xlink:title="generate">
<polygon fill="none" stroke="black" points="352,-38.5 352,-57.5 406,-57.5 406,-38.5 352,-38.5"/>
<text text-anchor="middle" x="379" y="-45.5" font-family="Helvetica,sans-Serif" font-size="10.00">generate</text>
</a>
</g>
</g>
<!-- Node2&#45;&gt;Node3 -->
<g id="edge2" class="edge"><title>Node2&#45;&gt;Node3</title>
<path fill="none" stroke="midnightblue" d="M326.335,-40.5066C335.446,-41.8281 344.184,-43.0954 351.798,-44.1997"/>
<polygon fill="midnightblue" stroke="midnightblue" points="326.735,-37.028 316.336,-39.0564 325.73,-43.9556 326.735,-37.028"/>
</g>
<!-- Node9 -->
<g id="node9" class="node"><title>Node9</title>
<g id="a_node9"><a xlink:href="basic__setup_8cpp.html#a3c04138a5bfe5d72780bb7e82a18e627" target="_top" xlink:title="main">
<polygon fill="none" stroke="black" points="360,-0.5 360,-19.5 398,-19.5 398,-0.5 360,-0.5"/>
<text text-anchor="middle" x="379" y="-7.5" font-family="Helvetica,sans-Serif" font-size="10.00">main</text>
</a>
</g>
</g>
<!-- Node2&#45;&gt;Node9 -->
<g id="edge8" class="edge"><title>Node2&#45;&gt;Node9</title>
<path fill="none" stroke="midnightblue" d="M326.433,-17.4791C338.882,-15.6737 350.626,-13.9703 359.753,-12.6466"/>
<polygon fill="midnightblue" stroke="midnightblue" points="325.73,-14.0444 316.336,-18.9436 326.735,-20.972 325.73,-14.0444"/>
</g>
<!-- Node4 -->
<g id="node4" class="node"><title>Node4</title>
<g id="a_node4"><a xlink:href="structRefboxMockBase.html#a853adab4d4ebd43316656b9228d85b6d" target="_top" xlink:title="RefboxMockBase::generateCall">
<polygon fill="none" stroke="black" points="442,-57.5 442,-76.5 597,-76.5 597,-57.5 442,-57.5"/>
<text text-anchor="middle" x="519.5" y="-64.5" font-family="Helvetica,sans-Serif" font-size="10.00">RefboxMockBase::generateCall</text>
</a>
</g>
</g>
<!-- Node3&#45;&gt;Node4 -->
<g id="edge3" class="edge"><title>Node3&#45;&gt;Node4</title>
<path fill="none" stroke="midnightblue" d="M416.118,-52.9548C426.259,-54.346 437.64,-55.9074 449.03,-57.4698"/>
<polygon fill="midnightblue" stroke="midnightblue" points="416.434,-49.4654 406.051,-51.5738 415.482,-56.4005 416.434,-49.4654"/>
</g>
<!-- Node7 -->
<g id="node7" class="node"><title>Node7</title>
<g id="a_node7"><a xlink:href="control__node_8cpp.html#a98733d6ad140ddb4f5a57388e89684ea" target="_top" xlink:title="stateUpdate">
<polygon fill="none" stroke="black" points="484.5,-19.5 484.5,-38.5 554.5,-38.5 554.5,-19.5 484.5,-19.5"/>
<text text-anchor="middle" x="519.5" y="-26.5" font-family="Helvetica,sans-Serif" font-size="10.00">stateUpdate</text>
</a>
</g>
</g>
<!-- Node3&#45;&gt;Node7 -->
<g id="edge6" class="edge"><title>Node3&#45;&gt;Node7</title>
<path fill="none" stroke="midnightblue" d="M416.229,-43.0299C437.318,-40.1369 463.741,-36.5121 484.446,-33.6717"/>
<polygon fill="midnightblue" stroke="midnightblue" points="415.482,-39.5995 406.051,-44.4262 416.434,-46.5346 415.482,-39.5995"/>
</g>
<!-- Node5 -->
<g id="node5" class="node"><title>Node5</title>
<g id="a_node5"><a xlink:href="structRefboxMockBase.html#a4b3ccf44781edf61e4f6382899fdbf26" target="_top" xlink:title="RefboxMockBase::connect">
<polygon fill="none" stroke="black" points="633,-57.5 633,-76.5 768,-76.5 768,-57.5 633,-57.5"/>
<text text-anchor="middle" x="700.5" y="-64.5" font-family="Helvetica,sans-Serif" font-size="10.00">RefboxMockBase::connect</text>
</a>
</g>
</g>
<!-- Node4&#45;&gt;Node5 -->
<g id="edge4" class="edge"><title>Node4&#45;&gt;Node5</title>
<path fill="none" stroke="midnightblue" d="M607.253,-67C615.853,-67 624.487,-67 632.838,-67"/>
<polygon fill="midnightblue" stroke="midnightblue" points="607.191,-63.5001 597.191,-67 607.191,-70.5001 607.191,-63.5001"/>
</g>
<!-- Node6 -->
<g id="node6" class="node"><title>Node6</title>
<g id="a_node6"><a xlink:href="structControlTests.html#a2bc96f00c7bf8ee99a12bf53094c63fd" target="_top" xlink:title="ControlTests::SetUp">
<polygon fill="none" stroke="black" points="804,-57.5 804,-76.5 911,-76.5 911,-57.5 804,-57.5"/>
<text text-anchor="middle" x="857.5" y="-64.5" font-family="Helvetica,sans-Serif" font-size="10.00">ControlTests::SetUp</text>
</a>
</g>
</g>
<!-- Node5&#45;&gt;Node6 -->
<g id="edge5" class="edge"><title>Node5&#45;&gt;Node6</title>
<path fill="none" stroke="midnightblue" d="M778.299,-67C786.985,-67 795.683,-67 803.957,-67"/>
<polygon fill="midnightblue" stroke="midnightblue" points="778.134,-63.5001 768.133,-67 778.133,-70.5001 778.134,-63.5001"/>
</g>
<!-- Node8 -->
<g id="node8" class="node"><title>Node8</title>
<g id="a_node8"><a xlink:href="control__node_8cpp.html#a3c04138a5bfe5d72780bb7e82a18e627" target="_top" xlink:title="main">
<polygon fill="none" stroke="black" points="681.5,-19.5 681.5,-38.5 719.5,-38.5 719.5,-19.5 681.5,-19.5"/>
<text text-anchor="middle" x="700.5" y="-26.5" font-family="Helvetica,sans-Serif" font-size="10.00">main</text>
</a>
</g>
</g>
<!-- Node7&#45;&gt;Node8 -->
<g id="edge7" class="edge"><title>Node7&#45;&gt;Node8</title>
<path fill="none" stroke="midnightblue" d="M564.766,-29C602.314,-29 654.272,-29 681.385,-29"/>
<polygon fill="midnightblue" stroke="midnightblue" points="564.59,-25.5001 554.59,-29 564.59,-32.5001 564.59,-25.5001"/>
</g>
</g>
</svg>
