<?xml version="1.0" encoding="UTF-8" standalone="no"?>
<!DOCTYPE svg PUBLIC "-//W3C//DTD SVG 1.1//EN"
 "http://www.w3.org/Graphics/SVG/1.1/DTD/svg11.dtd">
<!-- Generated by graphviz version 2.38.0 (20140413.2041)
 -->
<!-- Title: atwork_commander::ControlError::ControlError Pages: 1 -->
<!--zoomable 568 -->
<svg id="main" version="1.1" xmlns="http://www.w3.org/2000/svg" xmlns:xlink="http://www.w3.org/1999/xlink" xml:space="preserve" onload="init(evt)">
<style type="text/css"><![CDATA[
.edge:hover path { stroke: red; }
.edge:hover polygon { stroke: red; fill: red; }
]]></style>
<script type="text/javascript"><![CDATA[
var edges = document.getElementsByTagName('g');
if (edges && edges.length) {
  for (var i=0;i<edges.length;i++) {
    if (edges[i].id.substr(0,4)=='edge') {
      edges[i].setAttribute('class','edge');
    }
  }
}
]]></script>
        <defs>
                <circle id="rim" cx="0" cy="0" r="7"/>
                <circle id="rim2" cx="0" cy="0" r="3.5"/>
                <g id="zoomPlus">
                        <use xlink:href="#rim" fill="#404040">
                                <set attributeName="fill" to="#808080" begin="zoomplus.mouseover" end="zoomplus.mouseout"/>
                        </use>
                        <path d="M-4,0h8M0,-4v8" fill="none" stroke="white" stroke-width="1.5" pointer-events="none"/>
                </g>
                <g id="zoomMin">
                        <use xlink:href="#rim" fill="#404040">
                                <set attributeName="fill" to="#808080" begin="zoomminus.mouseover" end="zoomminus.mouseout"/>
                        </use>
                        <path d="M-4,0h8" fill="none" stroke="white" stroke-width="1.5" pointer-events="none"/>
                </g>
                <g id="dirArrow">
                        <path fill="none" stroke="white" stroke-width="1.5" d="M0,-3.0v7 M-2.5,-0.5L0,-3.0L2.5,-0.5"/>
                </g>
               <g id="resetDef">
                       <use xlink:href="#rim2" fill="#404040">
                               <set attributeName="fill" to="#808080" begin="reset.mouseover" end="reset.mouseout"/>
                       </use>
               </g>
        </defs>

<script type="text/javascript">
var viewWidth = 1093;
var viewHeight = 568;
var sectionId = 'dynsection-2';
</script>
<script xlink:href="svgpan.js"/>
<svg id="graph" class="graph">
<g id="viewport">
<title>atwork_commander::ControlError::ControlError</title>
<!-- Node1 -->
<g id="node1" class="node"><title>Node1</title>
<polygon fill="#bfbfbf" stroke="black" points="0,-431 0,-461 140,-461 140,-431 0,-431"/>
<text text-anchor="start" x="8" y="-449" font-family="Helvetica,sans-Serif" font-size="10.00">atwork_commander::Control</text>
<text text-anchor="middle" x="70" y="-438" font-family="Helvetica,sans-Serif" font-size="10.00">Error::ControlError</text>
</g>
<!-- Node2 -->
<g id="node2" class="node"><title>Node2</title>
<g id="a_node2"><a xlink:href="classatwork__commander_1_1ControlImpl.html#a5628bbe3067a289d3d1dda5f59e9cece" target="_top" xlink:title="atwork_commander::Control\lImpl::forward">
<polygon fill="none" stroke="black" points="176,-431 176,-461 316,-461 316,-431 176,-431"/>
<text text-anchor="start" x="184" y="-449" font-family="Helvetica,sans-Serif" font-size="10.00">atwork_commander::Control</text>
<text text-anchor="middle" x="246" y="-438" font-family="Helvetica,sans-Serif" font-size="10.00">Impl::forward</text>
</a>
</g>
</g>
<!-- Node1&#45;&gt;Node2 -->
<g id="edge1" class="edge"><title>Node1&#45;&gt;Node2</title>
<path fill="none" stroke="midnightblue" d="M150.035,-446C158.625,-446 167.319,-446 175.779,-446"/>
<polygon fill="midnightblue" stroke="midnightblue" points="150.019,-442.5 140.019,-446 150.019,-449.5 150.019,-442.5"/>
</g>
<!-- Node8 -->
<g id="node8" class="node"><title>Node8</title>
<g id="a_node8"><a xlink:href="classatwork__commander_1_1ControlImpl.html#ab5b74ad5c6560c7d7e6111a6e85cbbfe" target="_top" xlink:title="atwork_commander::Control\lImpl::load">
<polygon fill="none" stroke="black" points="176,-480 176,-510 316,-510 316,-480 176,-480"/>
<text text-anchor="start" x="184" y="-498" font-family="Helvetica,sans-Serif" font-size="10.00">atwork_commander::Control</text>
<text text-anchor="middle" x="246" y="-487" font-family="Helvetica,sans-Serif" font-size="10.00">Impl::load</text>
</a>
</g>
</g>
<!-- Node1&#45;&gt;Node8 -->
<g id="edge7" class="edge"><title>Node1&#45;&gt;Node8</title>
<path fill="none" stroke="midnightblue" d="M134.284,-463.821C153.07,-469.112 173.455,-474.852 191.552,-479.948"/>
<polygon fill="midnightblue" stroke="midnightblue" points="135.2,-460.443 124.626,-461.101 133.302,-467.181 135.2,-460.443"/>
</g>
<!-- Node11 -->
<g id="node11" class="node"><title>Node11</title>
<g id="a_node11"><a xlink:href="classatwork__commander_1_1ControlImpl.html#a61e7adc72e3d1ae5f8ba7099e7ea1a58" target="_top" xlink:title="atwork_commander::Control\lImpl::start">
<polygon fill="none" stroke="black" points="176,-333 176,-363 316,-363 316,-333 176,-333"/>
<text text-anchor="start" x="184" y="-351" font-family="Helvetica,sans-Serif" font-size="10.00">atwork_commander::Control</text>
<text text-anchor="middle" x="246" y="-340" font-family="Helvetica,sans-Serif" font-size="10.00">Impl::start</text>
</a>
</g>
</g>
<!-- Node1&#45;&gt;Node11 -->
<g id="edge11" class="edge"><title>Node1&#45;&gt;Node11</title>
<path fill="none" stroke="midnightblue" d="M96.8693,-424.664C117.36,-408.554 147.229,-386.772 176,-372 182.318,-368.756 189.174,-365.783 196.03,-363.117"/>
<polygon fill="midnightblue" stroke="midnightblue" points="94.6,-421.997 88.9614,-430.967 98.9629,-427.471 94.6,-421.997"/>
</g>
<!-- Node26 -->
<g id="node26" class="node"><title>Node26</title>
<g id="a_node26"><a xlink:href="classatwork__commander_1_1ControlImpl.html#aaf1ece7e47d04a8963468f0b169a400b" target="_top" xlink:title="atwork_commander::Control\lImpl::stop">
<polygon fill="none" stroke="black" points="176,-382 176,-412 316,-412 316,-382 176,-382"/>
<text text-anchor="start" x="184" y="-400" font-family="Helvetica,sans-Serif" font-size="10.00">atwork_commander::Control</text>
<text text-anchor="middle" x="246" y="-389" font-family="Helvetica,sans-Serif" font-size="10.00">Impl::stop</text>
</a>
</g>
</g>
<!-- Node1&#45;&gt;Node26 -->
<g id="edge28" class="edge"><title>Node1&#45;&gt;Node26</title>
<path fill="none" stroke="midnightblue" d="M134.284,-428.179C153.07,-422.888 173.455,-417.148 191.552,-412.052"/>
<polygon fill="midnightblue" stroke="midnightblue" points="133.302,-424.819 124.626,-430.899 135.2,-431.557 133.302,-424.819"/>
</g>
<!-- Node29 -->
<g id="node29" class="node"><title>Node29</title>
<g id="a_node29"><a xlink:href="classatwork__commander_1_1ControlImpl.html#a5c41d7d76657ed6b278d239fb14893f4" target="_top" xlink:title="atwork_commander::Control\lImpl::store">
<polygon fill="none" stroke="black" points="176,-529 176,-559 316,-559 316,-529 176,-529"/>
<text text-anchor="start" x="184" y="-547" font-family="Helvetica,sans-Serif" font-size="10.00">atwork_commander::Control</text>
<text text-anchor="middle" x="246" y="-536" font-family="Helvetica,sans-Serif" font-size="10.00">Impl::store</text>
</a>
</g>
</g>
<!-- Node1&#45;&gt;Node29 -->
<g id="edge32" class="edge"><title>Node1&#45;&gt;Node29</title>
<path fill="none" stroke="midnightblue" d="M96.8693,-467.336C117.36,-483.446 147.229,-505.228 176,-520 182.318,-523.244 189.174,-526.217 196.03,-528.883"/>
<polygon fill="midnightblue" stroke="midnightblue" points="98.9629,-464.529 88.9614,-461.033 94.6,-470.003 98.9629,-464.529"/>
</g>
<!-- Node3 -->
<g id="node3" class="node"><title>Node3</title>
<g id="a_node3"><a xlink:href="classatwork__commander_1_1Control.html#a1c41197baa292fac512b2d5f9971adf5" target="_top" xlink:title="Command to forward the current state of the RefBox manually. ">
<polygon fill="none" stroke="black" points="352,-431 352,-461 492,-461 492,-431 352,-431"/>
<text text-anchor="start" x="360" y="-449" font-family="Helvetica,sans-Serif" font-size="10.00">atwork_commander::Control</text>
<text text-anchor="middle" x="422" y="-438" font-family="Helvetica,sans-Serif" font-size="10.00">::forward</text>
</a>
</g>
</g>
<!-- Node2&#45;&gt;Node3 -->
<g id="edge2" class="edge"><title>Node2&#45;&gt;Node3</title>
<path fill="none" stroke="midnightblue" d="M326.035,-446C334.625,-446 343.319,-446 351.779,-446"/>
<polygon fill="midnightblue" stroke="midnightblue" points="326.019,-442.5 316.019,-446 326.019,-449.5 326.019,-442.5"/>
</g>
<!-- Node4 -->
<g id="node4" class="node"><title>Node4</title>
<g id="a_node4"><a xlink:href="control__node_8cpp.html#af9d4be400cd482065e05d3fe6809d499" target="_top" xlink:title="forward">
<polygon fill="none" stroke="black" points="528,-458.5 528,-477.5 577,-477.5 577,-458.5 528,-458.5"/>
<text text-anchor="middle" x="552.5" y="-465.5" font-family="Helvetica,sans-Serif" font-size="10.00">forward</text>
</a>
</g>
</g>
<!-- Node3&#45;&gt;Node4 -->
<g id="edge3" class="edge"><title>Node3&#45;&gt;Node4</title>
<path fill="none" stroke="midnightblue" d="M502.271,-459.572C511.485,-461.149 520.262,-462.652 527.786,-463.94"/>
<polygon fill="midnightblue" stroke="midnightblue" points="502.587,-456.075 492.14,-457.837 501.406,-462.975 502.587,-456.075"/>
</g>
<!-- Node7 -->
<g id="node7" class="node"><title>Node7</title>
<g id="a_node7"><a xlink:href="basic__setup_8cpp.html#a3c04138a5bfe5d72780bb7e82a18e627" target="_top" xlink:title="main">
<polygon fill="none" stroke="black" points="533.5,-420.5 533.5,-439.5 571.5,-439.5 571.5,-420.5 533.5,-420.5"/>
<text text-anchor="middle" x="552.5" y="-427.5" font-family="Helvetica,sans-Serif" font-size="10.00">main</text>
</a>
</g>
</g>
<!-- Node3&#45;&gt;Node7 -->
<g id="edge6" class="edge"><title>Node3&#45;&gt;Node7</title>
<path fill="none" stroke="midnightblue" d="M502.107,-436.15C513.822,-434.691 524.84,-433.32 533.484,-432.243"/>
<polygon fill="midnightblue" stroke="midnightblue" points="501.631,-432.682 492.14,-437.391 502.496,-439.629 501.631,-432.682"/>
</g>
<!-- Node5 -->
<g id="node5" class="node"><title>Node5</title>
<g id="a_node5"><a xlink:href="control__node_8cpp.html#a98733d6ad140ddb4f5a57388e89684ea" target="_top" xlink:title="stateUpdate">
<polygon fill="none" stroke="black" points="655.5,-496.5 655.5,-515.5 725.5,-515.5 725.5,-496.5 655.5,-496.5"/>
<text text-anchor="middle" x="690.5" y="-503.5" font-family="Helvetica,sans-Serif" font-size="10.00">stateUpdate</text>
</a>
</g>
</g>
<!-- Node4&#45;&gt;Node5 -->
<g id="edge4" class="edge"><title>Node4&#45;&gt;Node5</title>
<path fill="none" stroke="midnightblue" d="M586.76,-479.045C595.28,-481.758 604.452,-484.576 613,-487 626.824,-490.919 642.178,-494.82 655.48,-498.058"/>
<polygon fill="midnightblue" stroke="midnightblue" points="587.725,-475.679 577.134,-475.94 585.576,-482.341 587.725,-475.679"/>
</g>
<!-- Node6 -->
<g id="node6" class="node"><title>Node6</title>
<g id="a_node6"><a xlink:href="control__node_8cpp.html#a3c04138a5bfe5d72780bb7e82a18e627" target="_top" xlink:title="main">
<polygon fill="none" stroke="black" points="854,-515.5 854,-534.5 892,-534.5 892,-515.5 854,-515.5"/>
<text text-anchor="middle" x="873" y="-522.5" font-family="Helvetica,sans-Serif" font-size="10.00">main</text>
</a>
</g>
</g>
<!-- Node5&#45;&gt;Node6 -->
<g id="edge5" class="edge"><title>Node5&#45;&gt;Node6</title>
<path fill="none" stroke="midnightblue" d="M736.137,-510.699C773.999,-514.684 826.393,-520.199 853.733,-523.077"/>
<polygon fill="midnightblue" stroke="midnightblue" points="736.187,-507.185 725.876,-509.618 735.454,-514.146 736.187,-507.185"/>
</g>
<!-- Node9 -->
<g id="node9" class="node"><title>Node9</title>
<g id="a_node9"><a xlink:href="classatwork__commander_1_1Control.html#a37613a7516afdbb671a79cfbe5de22fc" target="_top" xlink:title="Command to load a locally stored task in the RefBox. ">
<polygon fill="none" stroke="black" points="352,-480 352,-510 492,-510 492,-480 352,-480"/>
<text text-anchor="start" x="360" y="-498" font-family="Helvetica,sans-Serif" font-size="10.00">atwork_commander::Control</text>
<text text-anchor="middle" x="422" y="-487" font-family="Helvetica,sans-Serif" font-size="10.00">::load</text>
</a>
</g>
</g>
<!-- Node8&#45;&gt;Node9 -->
<g id="edge8" class="edge"><title>Node8&#45;&gt;Node9</title>
<path fill="none" stroke="midnightblue" d="M326.035,-495C334.625,-495 343.319,-495 351.779,-495"/>
<polygon fill="midnightblue" stroke="midnightblue" points="326.019,-491.5 316.019,-495 326.019,-498.5 326.019,-491.5"/>
</g>
<!-- Node10 -->
<g id="node10" class="node"><title>Node10</title>
<g id="a_node10"><a xlink:href="control__node_8cpp.html#a7ab31acf3df582231c4eb6741df30232" target="_top" xlink:title="load">
<polygon fill="none" stroke="black" points="535,-496.5 535,-515.5 570,-515.5 570,-496.5 535,-496.5"/>
<text text-anchor="middle" x="552.5" y="-503.5" font-family="Helvetica,sans-Serif" font-size="10.00">load</text>
</a>
</g>
</g>
<!-- Node9&#45;&gt;Node10 -->
<g id="edge9" class="edge"><title>Node9&#45;&gt;Node10</title>
<path fill="none" stroke="midnightblue" d="M502.124,-501.773C514.413,-502.825 525.935,-503.812 534.752,-504.566"/>
<polygon fill="midnightblue" stroke="midnightblue" points="502.402,-498.284 492.14,-500.919 501.805,-505.259 502.402,-498.284"/>
</g>
<!-- Node10&#45;&gt;Node5 -->
<g id="edge10" class="edge"><title>Node10&#45;&gt;Node5</title>
<path fill="none" stroke="midnightblue" d="M580.255,-506C601.792,-506 632.199,-506 655.467,-506"/>
<polygon fill="midnightblue" stroke="midnightblue" points="580.176,-502.5 570.176,-506 580.176,-509.5 580.176,-502.5"/>
</g>
<!-- Node12 -->
<g id="node12" class="node"><title>Node12</title>
<g id="a_node12"><a xlink:href="classatwork__commander_1_1Control.html#a03d7ab8dde7ac8c41b29a9480b013ed6" target="_top" xlink:title="Command to start the current Task of the RefBox. ">
<polygon fill="none" stroke="black" points="352,-333 352,-363 492,-363 492,-333 352,-333"/>
<text text-anchor="start" x="360" y="-351" font-family="Helvetica,sans-Serif" font-size="10.00">atwork_commander::Control</text>
<text text-anchor="middle" x="422" y="-340" font-family="Helvetica,sans-Serif" font-size="10.00">::start</text>
</a>
</g>
</g>
<!-- Node11&#45;&gt;Node12 -->
<g id="edge12" class="edge"><title>Node11&#45;&gt;Node12</title>
<path fill="none" stroke="midnightblue" d="M326.035,-348C334.625,-348 343.319,-348 351.779,-348"/>
<polygon fill="midnightblue" stroke="midnightblue" points="326.019,-344.5 316.019,-348 326.019,-351.5 326.019,-344.5"/>
</g>
<!-- Node12&#45;&gt;Node7 -->
<g id="edge13" class="edge"><title>Node12&#45;&gt;Node7</title>
<path fill="none" stroke="midnightblue" d="M484.376,-367.486C487.008,-368.9 489.563,-370.403 492,-372 511.731,-384.928 510.783,-394.875 528,-411 531.37,-414.156 535.2,-417.387 538.775,-420.269"/>
<polygon fill="midnightblue" stroke="midnightblue" points="485.712,-364.244 475.188,-363.018 482.65,-370.539 485.712,-364.244"/>
</g>
<!-- Node13 -->
<g id="node13" class="node"><title>Node13</title>
<g id="a_node13"><a xlink:href="control__node_8cpp.html#a92904aa73140a9bcbc31b3f01cbc1b91" target="_top" xlink:title="start">
<polygon fill="none" stroke="black" points="534.5,-267.5 534.5,-286.5 570.5,-286.5 570.5,-267.5 534.5,-267.5"/>
<text text-anchor="middle" x="552.5" y="-274.5" font-family="Helvetica,sans-Serif" font-size="10.00">start</text>
</a>
</g>
</g>
<!-- Node12&#45;&gt;Node13 -->
<g id="edge14" class="edge"><title>Node12&#45;&gt;Node13</title>
<path fill="none" stroke="midnightblue" d="M459.273,-327.958C483.778,-314.418 515.029,-297.151 534.137,-286.594"/>
<polygon fill="midnightblue" stroke="midnightblue" points="457.312,-325.043 450.252,-332.943 460.697,-331.17 457.312,-325.043"/>
</g>
<!-- Node13&#45;&gt;Node5 -->
<g id="edge26" class="edge"><title>Node13&#45;&gt;Node5</title>
<path fill="none" stroke="midnightblue" d="M558.464,-296.516C571.459,-347.313 605.961,-480.187 613,-487 624.21,-497.85 640.606,-502.804 655.347,-504.962"/>
<polygon fill="midnightblue" stroke="midnightblue" points="561.834,-295.566 555.97,-286.742 555.051,-297.297 561.834,-295.566"/>
</g>
<!-- Node14 -->
<g id="node14" class="node"><title>Node14</title>
<g id="a_node14"><a xlink:href="classatwork__commander_1_1task__generator_1_1simple_1_1Generator.html#a0515fa959863c880c68a7b02f0354af1" target="_top" xlink:title="atwork_commander::task\l_generator::simple::Generator\l::extractTablesByTypes">
<polygon fill="none" stroke="black" points="617.5,-0.5 617.5,-41.5 763.5,-41.5 763.5,-0.5 617.5,-0.5"/>
<text text-anchor="start" x="625.5" y="-29.5" font-family="Helvetica,sans-Serif" font-size="10.00">atwork_commander::task</text>
<text text-anchor="start" x="625.5" y="-18.5" font-family="Helvetica,sans-Serif" font-size="10.00">_generator::simple::Generator</text>
<text text-anchor="middle" x="690.5" y="-7.5" font-family="Helvetica,sans-Serif" font-size="10.00">::extractTablesByTypes</text>
</a>
</g>
</g>
<!-- Node13&#45;&gt;Node14 -->
<g id="edge15" class="edge"><title>Node13&#45;&gt;Node14</title>
<path fill="none" stroke="midnightblue" d="M553.053,-257.202C553.157,-214.189 559.383,-111.245 613,-51 616.13,-47.4833 619.724,-44.3747 623.611,-41.6275"/>
<polygon fill="midnightblue" stroke="midnightblue" points="549.555,-257.474 553.147,-267.442 556.555,-257.41 549.555,-257.474"/>
</g>
<!-- Node15 -->
<g id="node15" class="node"><title>Node15</title>
<g id="a_node15"><a xlink:href="classatwork__commander_1_1task__generator_1_1jurek_1_1Generator.html#a70cc89ff444ae7b05324a744e852fd92" target="_top" xlink:title="atwork_commander::task\l_generator::jurek::Generator\l::fromTask">
<polygon fill="none" stroke="black" points="621.5,-136.5 621.5,-177.5 759.5,-177.5 759.5,-136.5 621.5,-136.5"/>
<text text-anchor="start" x="629.5" y="-165.5" font-family="Helvetica,sans-Serif" font-size="10.00">atwork_commander::task</text>
<text text-anchor="start" x="629.5" y="-154.5" font-family="Helvetica,sans-Serif" font-size="10.00">_generator::jurek::Generator</text>
<text text-anchor="middle" x="690.5" y="-143.5" font-family="Helvetica,sans-Serif" font-size="10.00">::fromTask</text>
</a>
</g>
</g>
<!-- Node13&#45;&gt;Node15 -->
<g id="edge16" class="edge"><title>Node13&#45;&gt;Node15</title>
<path fill="none" stroke="midnightblue" d="M561.715,-258.099C571.34,-237.958 589.066,-206.362 613,-187 617.326,-183.501 622.109,-180.371 627.109,-177.581"/>
<polygon fill="midnightblue" stroke="midnightblue" points="558.409,-256.912 557.43,-267.462 564.774,-259.825 558.409,-256.912"/>
</g>
<!-- Node17 -->
<g id="node17" class="node"><title>Node17</title>
<g id="a_node17"><a xlink:href="classatwork__commander_1_1task__generator_1_1simple_1_1Generator.html#ae43f7548b2a38f70517904984353d741" target="_top" xlink:title="atwork_commander::task\l_generator::simple::Generator\l::generateCavities">
<polygon fill="none" stroke="black" points="617.5,-436.5 617.5,-477.5 763.5,-477.5 763.5,-436.5 617.5,-436.5"/>
<text text-anchor="start" x="625.5" y="-465.5" font-family="Helvetica,sans-Serif" font-size="10.00">atwork_commander::task</text>
<text text-anchor="start" x="625.5" y="-454.5" font-family="Helvetica,sans-Serif" font-size="10.00">_generator::simple::Generator</text>
<text text-anchor="middle" x="690.5" y="-443.5" font-family="Helvetica,sans-Serif" font-size="10.00">::generateCavities</text>
</a>
</g>
</g>
<!-- Node13&#45;&gt;Node17 -->
<g id="edge18" class="edge"><title>Node13&#45;&gt;Node17</title>
<path fill="none" stroke="midnightblue" d="M556.196,-296.645C561.519,-328.209 576.23,-390.374 613,-427 616.538,-430.524 620.538,-433.645 624.808,-436.407"/>
<polygon fill="midnightblue" stroke="midnightblue" points="559.616,-295.857 554.637,-286.505 552.698,-296.921 559.616,-295.857"/>
</g>
<!-- Node18 -->
<g id="node18" class="node"><title>Node18</title>
<g id="a_node18"><a xlink:href="classatwork__commander_1_1task__generator_1_1simple_1_1Generator.html#aeed622f5caca536e6081abc394f4ab6f" target="_top" xlink:title="atwork_commander::task\l_generator::simple::Generator\l::generateContainers">
<polygon fill="none" stroke="black" points="617.5,-376.5 617.5,-417.5 763.5,-417.5 763.5,-376.5 617.5,-376.5"/>
<text text-anchor="start" x="625.5" y="-405.5" font-family="Helvetica,sans-Serif" font-size="10.00">atwork_commander::task</text>
<text text-anchor="start" x="625.5" y="-394.5" font-family="Helvetica,sans-Serif" font-size="10.00">_generator::simple::Generator</text>
<text text-anchor="middle" x="690.5" y="-383.5" font-family="Helvetica,sans-Serif" font-size="10.00">::generateContainers</text>
</a>
</g>
</g>
<!-- Node13&#45;&gt;Node18 -->
<g id="edge19" class="edge"><title>Node13&#45;&gt;Node18</title>
<path fill="none" stroke="midnightblue" d="M561.715,-295.901C571.34,-316.042 589.066,-347.638 613,-367 617.326,-370.499 622.109,-373.629 627.109,-376.419"/>
<polygon fill="midnightblue" stroke="midnightblue" points="564.774,-294.175 557.43,-286.538 558.409,-297.088 564.774,-294.175"/>
</g>
<!-- Node19 -->
<g id="node19" class="node"><title>Node19</title>
<g id="a_node19"><a xlink:href="classatwork__commander_1_1task__generator_1_1simple_1_1Generator.html#aa392cc94f4e6c7b515066c94637864a3" target="_top" xlink:title="atwork_commander::task\l_generator::simple::Generator\l::generateImpl">
<polygon fill="none" stroke="black" points="617.5,-316.5 617.5,-357.5 763.5,-357.5 763.5,-316.5 617.5,-316.5"/>
<text text-anchor="start" x="625.5" y="-345.5" font-family="Helvetica,sans-Serif" font-size="10.00">atwork_commander::task</text>
<text text-anchor="start" x="625.5" y="-334.5" font-family="Helvetica,sans-Serif" font-size="10.00">_generator::simple::Generator</text>
<text text-anchor="middle" x="690.5" y="-323.5" font-family="Helvetica,sans-Serif" font-size="10.00">::generateImpl</text>
</a>
</g>
</g>
<!-- Node13&#45;&gt;Node19 -->
<g id="edge20" class="edge"><title>Node13&#45;&gt;Node19</title>
<path fill="none" stroke="midnightblue" d="M579.64,-290.842C589.933,-296.118 601.922,-302.048 613,-307 620.163,-310.202 627.78,-313.413 635.324,-316.481"/>
<polygon fill="midnightblue" stroke="midnightblue" points="581.227,-287.722 570.738,-286.228 578.006,-293.937 581.227,-287.722"/>
</g>
<!-- Node20 -->
<g id="node20" class="node"><title>Node20</title>
<g id="a_node20"><a xlink:href="classatwork__commander_1_1task__generator_1_1simple_1_1Generator.html#a061ffb97af3746a1667192d58ac0d1e9" target="_top" xlink:title="atwork_commander::task\l_generator::simple::Generator\l::generateObjects">
<polygon fill="none" stroke="black" points="617.5,-256.5 617.5,-297.5 763.5,-297.5 763.5,-256.5 617.5,-256.5"/>
<text text-anchor="start" x="625.5" y="-285.5" font-family="Helvetica,sans-Serif" font-size="10.00">atwork_commander::task</text>
<text text-anchor="start" x="625.5" y="-274.5" font-family="Helvetica,sans-Serif" font-size="10.00">_generator::simple::Generator</text>
<text text-anchor="middle" x="690.5" y="-263.5" font-family="Helvetica,sans-Serif" font-size="10.00">::generateObjects</text>
</a>
</g>
</g>
<!-- Node13&#45;&gt;Node20 -->
<g id="edge21" class="edge"><title>Node13&#45;&gt;Node20</title>
<path fill="none" stroke="midnightblue" d="M580.979,-277C591.618,-277 604.34,-277 617.267,-277"/>
<polygon fill="midnightblue" stroke="midnightblue" points="580.725,-273.5 570.724,-277 580.724,-280.5 580.725,-273.5"/>
</g>
<!-- Node21 -->
<g id="node21" class="node"><title>Node21</title>
<g id="a_node21"><a xlink:href="classatwork__commander_1_1com__plugin_1_1ros_1_1TaskObjectCentric.html#a3ebc7c27450a6b6775f1aeda32610d9c" target="_top" xlink:title="atwork_commander::com\l_plugin::ros::TaskObjectCentric\l::sendTask">
<polygon fill="none" stroke="black" points="613,-196.5 613,-237.5 768,-237.5 768,-196.5 613,-196.5"/>
<text text-anchor="start" x="621" y="-225.5" font-family="Helvetica,sans-Serif" font-size="10.00">atwork_commander::com</text>
<text text-anchor="start" x="621" y="-214.5" font-family="Helvetica,sans-Serif" font-size="10.00">_plugin::ros::TaskObjectCentric</text>
<text text-anchor="middle" x="690.5" y="-203.5" font-family="Helvetica,sans-Serif" font-size="10.00">::sendTask</text>
</a>
</g>
</g>
<!-- Node13&#45;&gt;Node21 -->
<g id="edge22" class="edge"><title>Node13&#45;&gt;Node21</title>
<path fill="none" stroke="midnightblue" d="M579.64,-263.158C589.933,-257.882 601.922,-251.952 613,-247 620.163,-243.798 627.78,-240.587 635.324,-237.519"/>
<polygon fill="midnightblue" stroke="midnightblue" points="578.006,-260.063 570.738,-267.772 581.227,-266.278 578.006,-260.063"/>
</g>
<!-- Node22 -->
<g id="node22" class="node"><title>Node22</title>
<g id="a_node22"><a xlink:href="structRefboxMockBase.html#a7e9673745c84952c97ebff920f58693b" target="_top" xlink:title="RefboxMockBase::startCall">
<polygon fill="none" stroke="black" points="622,-98.5 622,-117.5 759,-117.5 759,-98.5 622,-98.5"/>
<text text-anchor="middle" x="690.5" y="-105.5" font-family="Helvetica,sans-Serif" font-size="10.00">RefboxMockBase::startCall</text>
</a>
</g>
</g>
<!-- Node13&#45;&gt;Node22 -->
<g id="edge23" class="edge"><title>Node13&#45;&gt;Node22</title>
<path fill="none" stroke="midnightblue" d="M555.608,-257.212C560.125,-224.981 573.753,-161.305 613,-127 617.431,-123.127 622.531,-120.02 627.951,-117.529"/>
<polygon fill="midnightblue" stroke="midnightblue" points="552.127,-256.846 554.364,-267.202 559.073,-257.711 552.127,-256.846"/>
</g>
<!-- Node25 -->
<g id="node25" class="node"><title>Node25</title>
<g id="a_node25"><a xlink:href="tests_2src_2control_8cpp.html#a20da634552403fe88d29dd9bfaabb42c" target="_top" xlink:title="TEST_F">
<polygon fill="none" stroke="black" points="664,-60.5 664,-79.5 717,-79.5 717,-60.5 664,-60.5"/>
<text text-anchor="middle" x="690.5" y="-67.5" font-family="Helvetica,sans-Serif" font-size="10.00">TEST_F</text>
</a>
</g>
</g>
<!-- Node13&#45;&gt;Node25 -->
<g id="edge27" class="edge"><title>Node13&#45;&gt;Node25</title>
<path fill="none" stroke="midnightblue" d="M553.784,-256.682C555.47,-218.14 564.822,-134.231 613,-89 626.569,-76.2614 647.311,-71.6952 663.775,-70.2135"/>
<polygon fill="midnightblue" stroke="midnightblue" points="550.273,-256.994 553.473,-267.094 557.27,-257.203 550.273,-256.994"/>
</g>
<!-- Node16 -->
<g id="node16" class="node"><title>Node16</title>
<g id="a_node16"><a xlink:href="classatwork__commander_1_1task__generator_1_1jurek_1_1Generator.html#a25c39f9ca5492f944c61ed463ba0b36b" target="_top" xlink:title="atwork_commander::task\l_generator::jurek::Generator\l::check">
<polygon fill="none" stroke="black" points="804,-136.5 804,-177.5 942,-177.5 942,-136.5 804,-136.5"/>
<text text-anchor="start" x="812" y="-165.5" font-family="Helvetica,sans-Serif" font-size="10.00">atwork_commander::task</text>
<text text-anchor="start" x="812" y="-154.5" font-family="Helvetica,sans-Serif" font-size="10.00">_generator::jurek::Generator</text>
<text text-anchor="middle" x="873" y="-143.5" font-family="Helvetica,sans-Serif" font-size="10.00">::check</text>
</a>
</g>
</g>
<!-- Node15&#45;&gt;Node16 -->
<g id="edge17" class="edge"><title>Node15&#45;&gt;Node16</title>
<path fill="none" stroke="midnightblue" d="M770.029,-157C781.333,-157 792.886,-157 803.964,-157"/>
<polygon fill="midnightblue" stroke="midnightblue" points="769.739,-153.5 759.739,-157 769.739,-160.5 769.739,-153.5"/>
</g>
<!-- Node23 -->
<g id="node23" class="node"><title>Node23</title>
<g id="a_node23"><a xlink:href="structRefboxMockBase.html#a4b3ccf44781edf61e4f6382899fdbf26" target="_top" xlink:title="RefboxMockBase::connect">
<polygon fill="none" stroke="black" points="805.5,-98.5 805.5,-117.5 940.5,-117.5 940.5,-98.5 805.5,-98.5"/>
<text text-anchor="middle" x="873" y="-105.5" font-family="Helvetica,sans-Serif" font-size="10.00">RefboxMockBase::connect</text>
</a>
</g>
</g>
<!-- Node22&#45;&gt;Node23 -->
<g id="edge24" class="edge"><title>Node22&#45;&gt;Node23</title>
<path fill="none" stroke="midnightblue" d="M769.248,-108C781.287,-108 793.629,-108 805.394,-108"/>
<polygon fill="midnightblue" stroke="midnightblue" points="769.225,-104.5 759.225,-108 769.225,-111.5 769.225,-104.5"/>
</g>
<!-- Node24 -->
<g id="node24" class="node"><title>Node24</title>
<g id="a_node24"><a xlink:href="structControlTests.html#a2bc96f00c7bf8ee99a12bf53094c63fd" target="_top" xlink:title="ControlTests::SetUp">
<polygon fill="none" stroke="black" points="978,-98.5 978,-117.5 1085,-117.5 1085,-98.5 978,-98.5"/>
<text text-anchor="middle" x="1031.5" y="-105.5" font-family="Helvetica,sans-Serif" font-size="10.00">ControlTests::SetUp</text>
</a>
</g>
</g>
<!-- Node23&#45;&gt;Node24 -->
<g id="edge25" class="edge"><title>Node23&#45;&gt;Node24</title>
<path fill="none" stroke="midnightblue" d="M950.971,-108C959.99,-108 969.031,-108 977.615,-108"/>
<polygon fill="midnightblue" stroke="midnightblue" points="950.824,-104.5 940.824,-108 950.824,-111.5 950.824,-104.5"/>
</g>
<!-- Node27 -->
<g id="node27" class="node"><title>Node27</title>
<g id="a_node27"><a xlink:href="classatwork__commander_1_1Control.html#a7fff8db983aba8be78b76aa5d49d1747" target="_top" xlink:title="Command to stop the ongoing task of the RefBox. ">
<polygon fill="none" stroke="black" points="352,-382 352,-412 492,-412 492,-382 352,-382"/>
<text text-anchor="start" x="360" y="-400" font-family="Helvetica,sans-Serif" font-size="10.00">atwork_commander::Control</text>
<text text-anchor="middle" x="422" y="-389" font-family="Helvetica,sans-Serif" font-size="10.00">::stop</text>
</a>
</g>
</g>
<!-- Node26&#45;&gt;Node27 -->
<g id="edge29" class="edge"><title>Node26&#45;&gt;Node27</title>
<path fill="none" stroke="midnightblue" d="M326.035,-397C334.625,-397 343.319,-397 351.779,-397"/>
<polygon fill="midnightblue" stroke="midnightblue" points="326.019,-393.5 316.019,-397 326.019,-400.5 326.019,-393.5"/>
</g>
<!-- Node28 -->
<g id="node28" class="node"><title>Node28</title>
<g id="a_node28"><a xlink:href="control__node_8cpp.html#aef1bb144bc6c180c58ad077faa817079" target="_top" xlink:title="stop">
<polygon fill="none" stroke="black" points="535,-382.5 535,-401.5 570,-401.5 570,-382.5 535,-382.5"/>
<text text-anchor="middle" x="552.5" y="-389.5" font-family="Helvetica,sans-Serif" font-size="10.00">stop</text>
</a>
</g>
</g>
<!-- Node27&#45;&gt;Node28 -->
<g id="edge30" class="edge"><title>Node27&#45;&gt;Node28</title>
<path fill="none" stroke="midnightblue" d="M502.489,-393.907C514.641,-393.434 526.022,-392.991 534.752,-392.652"/>
<polygon fill="midnightblue" stroke="midnightblue" points="501.996,-390.423 492.14,-394.31 502.268,-397.418 501.996,-390.423"/>
</g>
<!-- Node28&#45;&gt;Node5 -->
<g id="edge31" class="edge"><title>Node28&#45;&gt;Node5</title>
<path fill="none" stroke="midnightblue" d="M574.829,-408.448C575.591,-409.282 576.319,-410.134 577,-411 600.111,-440.374 584.078,-463.327 613,-487 624.86,-496.708 640.986,-501.558 655.374,-503.943"/>
<polygon fill="midnightblue" stroke="midnightblue" points="577.084,-405.766 567.38,-401.515 572.315,-410.89 577.084,-405.766"/>
</g>
<!-- Node30 -->
<g id="node30" class="node"><title>Node30</title>
<g id="a_node30"><a xlink:href="classatwork__commander_1_1Control.html#a624a50e21757ca512ccbc55cc4a63159" target="_top" xlink:title="Command to store the current task of the RefBox locally. ">
<polygon fill="none" stroke="black" points="352,-529 352,-559 492,-559 492,-529 352,-529"/>
<text text-anchor="start" x="360" y="-547" font-family="Helvetica,sans-Serif" font-size="10.00">atwork_commander::Control</text>
<text text-anchor="middle" x="422" y="-536" font-family="Helvetica,sans-Serif" font-size="10.00">::store</text>
</a>
</g>
</g>
<!-- Node29&#45;&gt;Node30 -->
<g id="edge33" class="edge"><title>Node29&#45;&gt;Node30</title>
<path fill="none" stroke="midnightblue" d="M326.035,-544C334.625,-544 343.319,-544 351.779,-544"/>
<polygon fill="midnightblue" stroke="midnightblue" points="326.019,-540.5 316.019,-544 326.019,-547.5 326.019,-540.5"/>
</g>
<!-- Node31 -->
<g id="node31" class="node"><title>Node31</title>
<g id="a_node31"><a xlink:href="control__node_8cpp.html#ae03f3fcb1ae2050f4a7eae357059132d" target="_top" xlink:title="store">
<polygon fill="none" stroke="black" points="533.5,-534.5 533.5,-553.5 571.5,-553.5 571.5,-534.5 533.5,-534.5"/>
<text text-anchor="middle" x="552.5" y="-541.5" font-family="Helvetica,sans-Serif" font-size="10.00">store</text>
</a>
</g>
</g>
<!-- Node30&#45;&gt;Node31 -->
<g id="edge34" class="edge"><title>Node30&#45;&gt;Node31</title>
<path fill="none" stroke="midnightblue" d="M502.459,-544C514.042,-544 524.926,-544 533.484,-544"/>
<polygon fill="midnightblue" stroke="midnightblue" points="502.14,-540.5 492.14,-544 502.14,-547.5 502.14,-540.5"/>
</g>
<!-- Node31&#45;&gt;Node5 -->
<g id="edge37" class="edge"><title>Node31&#45;&gt;Node5</title>
<path fill="none" stroke="midnightblue" d="M581.398,-534.675C591.331,-531.465 602.624,-527.942 613,-525 626.824,-521.081 642.178,-517.18 655.48,-513.942"/>
<polygon fill="midnightblue" stroke="midnightblue" points="580.051,-531.432 571.635,-537.868 582.228,-538.086 580.051,-531.432"/>
</g>
<!-- Node32 -->
<g id="node32" class="node"><title>Node32</title>
<g id="a_node32"><a xlink:href="control__node_8cpp.html#aa9dc8d22b59934c7172c6c350ab384f4" target="_top" xlink:title="parseArgs">
<polygon fill="none" stroke="black" points="660,-534.5 660,-553.5 721,-553.5 721,-534.5 660,-534.5"/>
<text text-anchor="middle" x="690.5" y="-541.5" font-family="Helvetica,sans-Serif" font-size="10.00">parseArgs</text>
</a>
</g>
</g>
<!-- Node31&#45;&gt;Node32 -->
<g id="edge35" class="edge"><title>Node31&#45;&gt;Node32</title>
<path fill="none" stroke="midnightblue" d="M581.649,-544C604.507,-544 636.648,-544 659.89,-544"/>
<polygon fill="midnightblue" stroke="midnightblue" points="581.56,-540.5 571.56,-544 581.56,-547.5 581.56,-540.5"/>
</g>
<!-- Node32&#45;&gt;Node6 -->
<g id="edge36" class="edge"><title>Node32&#45;&gt;Node6</title>
<path fill="none" stroke="midnightblue" d="M731.551,-539.784C769.65,-535.774 825.254,-529.921 853.72,-526.924"/>
<polygon fill="midnightblue" stroke="midnightblue" points="730.885,-536.335 721.306,-540.863 731.617,-543.296 730.885,-536.335"/>
</g>
</g>
</svg>
        <g id="navigator" transform="translate(0 0)" fill="#404254">
                <rect fill="#f2f5e9" fill-opacity="0.5" stroke="#606060" stroke-width=".5" x="0" y="0" width="60" height="60"/>
                <use id="zoomplus" xlink:href="#zoomPlus" x="17" y="9" onmousedown="handleZoom(evt,'in')"/>
                <use id="zoomminus" xlink:href="#zoomMin" x="42" y="9" onmousedown="handleZoom(evt,'out')"/>
                <use id="reset" xlink:href="#resetDef" x="30" y="36" onmousedown="handleReset()"/>
                <g id="arrowUp" xlink:href="#dirArrow" transform="translate(30 24)" onmousedown="handlePan(0,-1)">
                  <use xlink:href="#rim" fill="#404040">
                        <set attributeName="fill" to="#808080" begin="arrowUp.mouseover" end="arrowUp.mouseout"/>
                  </use>
                  <path fill="none" stroke="white" stroke-width="1.5" d="M0,-3.0v7 M-2.5,-0.5L0,-3.0L2.5,-0.5"/>
                </g>
                <g id="arrowRight" xlink:href="#dirArrow" transform="rotate(90) translate(36 -43)" onmousedown="handlePan(1,0)">
                  <use xlink:href="#rim" fill="#404040">
                        <set attributeName="fill" to="#808080" begin="arrowRight.mouseover" end="arrowRight.mouseout"/>
                  </use>
                  <path fill="none" stroke="white" stroke-width="1.5" d="M0,-3.0v7 M-2.5,-0.5L0,-3.0L2.5,-0.5"/>
                </g>
                <g id="arrowDown" xlink:href="#dirArrow" transform="rotate(180) translate(-30 -48)" onmousedown="handlePan(0,1)">
                  <use xlink:href="#rim" fill="#404040">
                        <set attributeName="fill" to="#808080" begin="arrowDown.mouseover" end="arrowDown.mouseout"/>
                  </use>
                  <path fill="none" stroke="white" stroke-width="1.5" d="M0,-3.0v7 M-2.5,-0.5L0,-3.0L2.5,-0.5"/>
                </g>
                <g id="arrowLeft" xlink:href="#dirArrow" transform="rotate(270) translate(-36 17)" onmousedown="handlePan(-1,0)">
                  <use xlink:href="#rim" fill="#404040">
                        <set attributeName="fill" to="#808080" begin="arrowLeft.mouseover" end="arrowLeft.mouseout"/>
                  </use>
                  <path fill="none" stroke="white" stroke-width="1.5" d="M0,-3.0v7 M-2.5,-0.5L0,-3.0L2.5,-0.5"/>
                </g>
        </g>
        <svg viewBox="0 0 15 15" width="100%" height="30px" preserveAspectRatio="xMaxYMin meet">
         <g id="arrow_out" transform="scale(0.3 0.3)">
          <a xlink:href="classatwork__commander_1_1ControlError_aa8e0a508d07409af6b9ccc3f2b04862c_icgraph_org.svg" target="_base">
           <rect id="button" ry="5" rx="5" y="6" x="6" height="38" width="38"
                fill="#f2f5e9" fill-opacity="0.5" stroke="#606060" stroke-width="1.0"/>
           <path id="arrow"
             d="M 11.500037,31.436501 C 11.940474,20.09759 22.043105,11.32322 32.158766,21.979434 L 37.068811,17.246167 C 37.068811,17.246167 37.088388,32 37.088388,32 L 22.160133,31.978069 C 22.160133,31.978069 26.997745,27.140456 26.997745,27.140456 C 18.528582,18.264221 13.291696,25.230495 11.500037,31.436501 z"
             style="fill:#404040;"/>
          </a>
         </g>
        </svg>
</svg>
