<?xml version="1.0" encoding="UTF-8" standalone="no"?>
<!DOCTYPE svg PUBLIC "-//W3C//DTD SVG 1.1//EN"
 "http://www.w3.org/Graphics/SVG/1.1/DTD/svg11.dtd">
<!-- Generated by graphviz version 2.38.0 (20140413.2041)
 -->
<!-- Title: atwork_commander::ControlImpl::store Pages: 1 -->
<svg width="578pt" height="66pt"
 viewBox="0.00 0.00 578.00 66.00" xmlns="http://www.w3.org/2000/svg" xmlns:xlink="http://www.w3.org/1999/xlink">
<g id="graph0" class="graph" transform="scale(1 1) rotate(0) translate(4 62)">
<title>atwork_commander::ControlImpl::store</title>
<!-- Node1 -->
<g id="node1" class="node"><title>Node1</title>
<polygon fill="#bfbfbf" stroke="black" points="0,-14 0,-44 140,-44 140,-14 0,-14"/>
<text text-anchor="start" x="8" y="-32" font-family="Helvetica,sans-Serif" font-size="10.00">atwork_commander::Control</text>
<text text-anchor="middle" x="70" y="-21" font-family="Helvetica,sans-Serif" font-size="10.00">Impl::store</text>
</g>
<!-- Node2 -->
<g id="node2" class="node"><title>Node2</title>
<g id="a_node2"><a xlink:href="classatwork__commander_1_1Control.html#a624a50e21757ca512ccbc55cc4a63159" target="_top" xlink:title="Command to store the current task of the RefBox locally. ">
<polygon fill="none" stroke="black" points="176,-14 176,-44 316,-44 316,-14 176,-14"/>
<text text-anchor="start" x="184" y="-32" font-family="Helvetica,sans-Serif" font-size="10.00">atwork_commander::Control</text>
<text text-anchor="middle" x="246" y="-21" font-family="Helvetica,sans-Serif" font-size="10.00">::store</text>
</a>
</g>
</g>
<!-- Node1&#45;&gt;Node2 -->
<g id="edge1" class="edge"><title>Node1&#45;&gt;Node2</title>
<path fill="none" stroke="midnightblue" d="M150.035,-29C158.625,-29 167.319,-29 175.779,-29"/>
<polygon fill="midnightblue" stroke="midnightblue" points="150.019,-25.5001 140.019,-29 150.019,-32.5001 150.019,-25.5001"/>
</g>
<!-- Node3 -->
<g id="node3" class="node"><title>Node3</title>
<g id="a_node3"><a xlink:href="control__node_8cpp.html#ae03f3fcb1ae2050f4a7eae357059132d" target="_top" xlink:title="store">
<polygon fill="none" stroke="black" points="352,-19.5 352,-38.5 390,-38.5 390,-19.5 352,-19.5"/>
<text text-anchor="middle" x="371" y="-26.5" font-family="Helvetica,sans-Serif" font-size="10.00">store</text>
</a>
</g>
</g>
<!-- Node2&#45;&gt;Node3 -->
<g id="edge2" class="edge"><title>Node2&#45;&gt;Node3</title>
<path fill="none" stroke="midnightblue" d="M326.08,-29C335.535,-29 344.384,-29 351.627,-29"/>
<polygon fill="midnightblue" stroke="midnightblue" points="326.05,-25.5001 316.05,-29 326.05,-32.5001 326.05,-25.5001"/>
</g>
<!-- Node4 -->
<g id="node4" class="node"><title>Node4</title>
<g id="a_node4"><a xlink:href="control__node_8cpp.html#aa9dc8d22b59934c7172c6c350ab384f4" target="_top" xlink:title="parseArgs">
<polygon fill="none" stroke="black" points="430.5,-38.5 430.5,-57.5 491.5,-57.5 491.5,-38.5 430.5,-38.5"/>
<text text-anchor="middle" x="461" y="-45.5" font-family="Helvetica,sans-Serif" font-size="10.00">parseArgs</text>
</a>
</g>
</g>
<!-- Node3&#45;&gt;Node4 -->
<g id="edge3" class="edge"><title>Node3&#45;&gt;Node4</title>
<path fill="none" stroke="midnightblue" d="M400.133,-35.0742C409.778,-37.1566 420.598,-39.4927 430.359,-41.6002"/>
<polygon fill="midnightblue" stroke="midnightblue" points="400.747,-31.6262 390.234,-32.9368 399.27,-38.4685 400.747,-31.6262"/>
</g>
<!-- Node6 -->
<g id="node6" class="node"><title>Node6</title>
<g id="a_node6"><a xlink:href="control__node_8cpp.html#a98733d6ad140ddb4f5a57388e89684ea" target="_top" xlink:title="stateUpdate">
<polygon fill="none" stroke="black" points="426,-0.5 426,-19.5 496,-19.5 496,-0.5 426,-0.5"/>
<text text-anchor="middle" x="461" y="-7.5" font-family="Helvetica,sans-Serif" font-size="10.00">stateUpdate</text>
</a>
</g>
</g>
<!-- Node3&#45;&gt;Node6 -->
<g id="edge5" class="edge"><title>Node3&#45;&gt;Node6</title>
<path fill="none" stroke="midnightblue" d="M400.042,-22.9455C408.226,-21.1784 417.263,-19.2273 425.784,-17.3875"/>
<polygon fill="midnightblue" stroke="midnightblue" points="399.27,-19.5315 390.234,-25.0632 400.747,-26.3738 399.27,-19.5315"/>
</g>
<!-- Node5 -->
<g id="node5" class="node"><title>Node5</title>
<g id="a_node5"><a xlink:href="control__node_8cpp.html#a3c04138a5bfe5d72780bb7e82a18e627" target="_top" xlink:title="main">
<polygon fill="none" stroke="black" points="532,-19.5 532,-38.5 570,-38.5 570,-19.5 532,-19.5"/>
<text text-anchor="middle" x="551" y="-26.5" font-family="Helvetica,sans-Serif" font-size="10.00">main</text>
</a>
</g>
</g>
<!-- Node4&#45;&gt;Node5 -->
<g id="edge4" class="edge"><title>Node4&#45;&gt;Node5</title>
<path fill="none" stroke="midnightblue" d="M501.69,-39.4307C512.201,-37.1612 523.043,-34.8202 531.786,-32.9325"/>
<polygon fill="midnightblue" stroke="midnightblue" points="500.829,-36.0358 491.793,-41.5675 502.306,-42.8781 500.829,-36.0358"/>
</g>
<!-- Node6&#45;&gt;Node5 -->
<g id="edge6" class="edge"><title>Node6&#45;&gt;Node5</title>
<path fill="none" stroke="midnightblue" d="M505.888,-19.4759C515.052,-21.4544 524.222,-23.4342 531.808,-25.0722"/>
<polygon fill="midnightblue" stroke="midnightblue" points="506.537,-16.0353 496.023,-17.3459 505.059,-22.8776 506.537,-16.0353"/>
</g>
</g>
</svg>
