<?xml version="1.0" encoding="UTF-8" standalone="no"?>
<!DOCTYPE svg PUBLIC "-//W3C//DTD SVG 1.1//EN"
 "http://www.w3.org/Graphics/SVG/1.1/DTD/svg11.dtd">
<!-- Generated by graphviz version 2.38.0 (20140413.2041)
 -->
<!-- Title: atwork_commander::task_generator::GeneratorPluginInterface::~GeneratorPluginInterface Pages: 1 -->
<svg width="396pt" height="230pt"
 viewBox="0.00 0.00 396.00 230.00" xmlns="http://www.w3.org/2000/svg" xmlns:xlink="http://www.w3.org/1999/xlink">
<g id="graph0" class="graph" transform="scale(1 1) rotate(0) translate(4 226)">
<title>atwork_commander::task_generator::GeneratorPluginInterface::~GeneratorPluginInterface</title>
<!-- Node1 -->
<g id="node1" class="node"><title>Node1</title>
<polygon fill="#bfbfbf" stroke="black" points="0,-90.5 0,-131.5 176,-131.5 176,-90.5 0,-90.5"/>
<text text-anchor="start" x="8" y="-119.5" font-family="Helvetica,sans-Serif" font-size="10.00">atwork_commander::task</text>
<text text-anchor="start" x="8" y="-108.5" font-family="Helvetica,sans-Serif" font-size="10.00">_generator::GeneratorPluginInterface</text>
<text text-anchor="middle" x="88" y="-97.5" font-family="Helvetica,sans-Serif" font-size="10.00">::~GeneratorPluginInterface</text>
</g>
<!-- Node2 -->
<g id="node2" class="node"><title>Node2</title>
<g id="a_node2"><a xlink:href="classatwork__commander_1_1task__generator_1_1GeneratorPluginInterface.html#aefa566cd205f5e3906154bd11beb0daf" target="_top" xlink:title="atwork_commander::task\l_generator::GeneratorPluginInterface\l::check">
<polygon fill="none" stroke="black" points="212,-180.5 212,-221.5 388,-221.5 388,-180.5 212,-180.5"/>
<text text-anchor="start" x="220" y="-209.5" font-family="Helvetica,sans-Serif" font-size="10.00">atwork_commander::task</text>
<text text-anchor="start" x="220" y="-198.5" font-family="Helvetica,sans-Serif" font-size="10.00">_generator::GeneratorPluginInterface</text>
<text text-anchor="middle" x="300" y="-187.5" font-family="Helvetica,sans-Serif" font-size="10.00">::check</text>
</a>
</g>
</g>
<!-- Node1&#45;&gt;Node2 -->
<g id="edge1" class="edge"><title>Node1&#45;&gt;Node2</title>
<path fill="none" stroke="midnightblue" d="M128.047,-131.561C151.954,-143.768 183.357,-159.127 212,-171 216.767,-172.976 221.716,-174.931 226.724,-176.838"/>
<polygon fill="midnightblue" stroke="midnightblue" points="225.806,-180.231 236.399,-180.442 228.25,-173.671 225.806,-180.231"/>
</g>
<!-- Node3 -->
<g id="node3" class="node"><title>Node3</title>
<g id="a_node3"><a xlink:href="classatwork__commander_1_1task__generator_1_1GeneratorPluginInterface.html#aa2240a3c46a2ea395608b754683bd3ef" target="_top" xlink:title="atwork_commander::task\l_generator::GeneratorPluginInterface\l::config">
<polygon fill="none" stroke="black" points="212,-120.5 212,-161.5 388,-161.5 388,-120.5 212,-120.5"/>
<text text-anchor="start" x="220" y="-149.5" font-family="Helvetica,sans-Serif" font-size="10.00">atwork_commander::task</text>
<text text-anchor="start" x="220" y="-138.5" font-family="Helvetica,sans-Serif" font-size="10.00">_generator::GeneratorPluginInterface</text>
<text text-anchor="middle" x="300" y="-127.5" font-family="Helvetica,sans-Serif" font-size="10.00">::config</text>
</a>
</g>
</g>
<!-- Node1&#45;&gt;Node3 -->
<g id="edge2" class="edge"><title>Node1&#45;&gt;Node3</title>
<path fill="none" stroke="midnightblue" d="M176.235,-123.462C184.658,-124.665 193.239,-125.891 201.751,-127.107"/>
<polygon fill="midnightblue" stroke="midnightblue" points="201.305,-130.579 211.699,-128.528 202.295,-123.649 201.305,-130.579"/>
</g>
<!-- Node4 -->
<g id="node4" class="node"><title>Node4</title>
<g id="a_node4"><a xlink:href="classatwork__commander_1_1task__generator_1_1GeneratorPluginInterface.html#ac5635efca999bcfc3294b50ddfc19da1" target="_top" xlink:title="atwork_commander::task\l_generator::GeneratorPluginInterface\l::generate">
<polygon fill="none" stroke="black" points="212,-60.5 212,-101.5 388,-101.5 388,-60.5 212,-60.5"/>
<text text-anchor="start" x="220" y="-89.5" font-family="Helvetica,sans-Serif" font-size="10.00">atwork_commander::task</text>
<text text-anchor="start" x="220" y="-78.5" font-family="Helvetica,sans-Serif" font-size="10.00">_generator::GeneratorPluginInterface</text>
<text text-anchor="middle" x="300" y="-67.5" font-family="Helvetica,sans-Serif" font-size="10.00">::generate</text>
</a>
</g>
</g>
<!-- Node1&#45;&gt;Node4 -->
<g id="edge3" class="edge"><title>Node1&#45;&gt;Node4</title>
<path fill="none" stroke="midnightblue" d="M176.235,-98.5379C184.658,-97.3346 193.239,-96.1087 201.751,-94.8927"/>
<polygon fill="midnightblue" stroke="midnightblue" points="202.295,-98.3507 211.699,-93.4716 201.305,-91.421 202.295,-98.3507"/>
</g>
<!-- Node5 -->
<g id="node5" class="node"><title>Node5</title>
<g id="a_node5"><a xlink:href="classatwork__commander_1_1task__generator_1_1GeneratorPluginInterface.html#a43cd14ee511318dfe71d5dddbe265e88" target="_top" xlink:title="atwork_commander::task\l_generator::GeneratorPluginInterface\l::onInit">
<polygon fill="none" stroke="black" points="212,-0.5 212,-41.5 388,-41.5 388,-0.5 212,-0.5"/>
<text text-anchor="start" x="220" y="-29.5" font-family="Helvetica,sans-Serif" font-size="10.00">atwork_commander::task</text>
<text text-anchor="start" x="220" y="-18.5" font-family="Helvetica,sans-Serif" font-size="10.00">_generator::GeneratorPluginInterface</text>
<text text-anchor="middle" x="300" y="-7.5" font-family="Helvetica,sans-Serif" font-size="10.00">::onInit</text>
</a>
</g>
</g>
<!-- Node1&#45;&gt;Node5 -->
<g id="edge4" class="edge"><title>Node1&#45;&gt;Node5</title>
<path fill="none" stroke="midnightblue" d="M128.047,-90.4389C151.954,-78.2325 183.357,-62.8727 212,-51 216.767,-49.0241 221.716,-47.0693 226.724,-45.1617"/>
<polygon fill="midnightblue" stroke="midnightblue" points="228.25,-48.3286 236.399,-41.5583 225.806,-41.7688 228.25,-48.3286"/>
</g>
</g>
</svg>
