<?xml version="1.0" encoding="UTF-8" standalone="no"?>
<!DOCTYPE svg PUBLIC "-//W3C//DTD SVG 1.1//EN"
 "http://www.w3.org/Graphics/SVG/1.1/DTD/svg11.dtd">
<!-- Generated by graphviz version 2.38.0 (20140413.2041)
 -->
<!-- Title: atwork_commander::VisGroup Pages: 1 -->
<svg width="433pt" height="186pt"
 viewBox="0.00 0.00 433.00 186.00" xmlns="http://www.w3.org/2000/svg" xmlns:xlink="http://www.w3.org/1999/xlink">
<g id="graph0" class="graph" transform="scale(1 1) rotate(0) translate(4 182)">
<title>atwork_commander::VisGroup</title>
<!-- Node1 -->
<g id="node1" class="node"><title>Node1</title>
<polygon fill="#bfbfbf" stroke="black" points="91,-79 91,-98 240,-98 240,-79 91,-79"/>
<text text-anchor="middle" x="165.5" y="-86" font-family="Helvetica,sans-Serif" font-size="10.00">atwork_commander::VisGroup</text>
</g>
<!-- Node3 -->
<g id="node3" class="node"><title>Node3</title>
<g id="a_node3"><a xlink:href="classatwork__commander_1_1ArenaVisGroup.html" target="_top" xlink:title="Qt widget displaying task generator information. ">
<polygon fill="none" stroke="black" points="276.5,-147.5 276.5,-177.5 424.5,-177.5 424.5,-147.5 276.5,-147.5"/>
<text text-anchor="start" x="284.5" y="-165.5" font-family="Helvetica,sans-Serif" font-size="10.00">atwork_commander::ArenaVis</text>
<text text-anchor="middle" x="350.5" y="-154.5" font-family="Helvetica,sans-Serif" font-size="10.00">Group</text>
</a>
</g>
</g>
<!-- Node1&#45;&gt;Node3 -->
<g id="edge2" class="edge"><title>Node1&#45;&gt;Node3</title>
<path fill="none" stroke="midnightblue" d="M194.665,-102.424C216.562,-112.988 247.847,-127.516 276,-138.5 283.878,-141.574 292.33,-144.588 300.597,-147.386"/>
<polygon fill="midnightblue" stroke="midnightblue" points="196.126,-99.2424 185.602,-98.019 193.066,-105.538 196.126,-99.2424"/>
</g>
<!-- Node4 -->
<g id="node4" class="node"><title>Node4</title>
<g id="a_node4"><a xlink:href="classatwork__commander_1_1MainVisGroup.html" target="_top" xlink:title="The outer Widget managing all subGroups. ">
<polygon fill="none" stroke="black" points="279,-98.5 279,-128.5 422,-128.5 422,-98.5 279,-98.5"/>
<text text-anchor="start" x="287" y="-116.5" font-family="Helvetica,sans-Serif" font-size="10.00">atwork_commander::MainVis</text>
<text text-anchor="middle" x="350.5" y="-105.5" font-family="Helvetica,sans-Serif" font-size="10.00">Group</text>
</a>
</g>
</g>
<!-- Node1&#45;&gt;Node4 -->
<g id="edge3" class="edge"><title>Node1&#45;&gt;Node4</title>
<path fill="none" stroke="midnightblue" d="M246.44,-99.4208C257.204,-100.891 268.185,-102.391 278.774,-103.838"/>
<polygon fill="midnightblue" stroke="midnightblue" points="246.588,-95.9086 236.206,-98.0227 245.641,-102.844 246.588,-95.9086"/>
</g>
<!-- Node5 -->
<g id="node5" class="node"><title>Node5</title>
<g id="a_node5"><a xlink:href="classatwork__commander_1_1RobotVisGroup.html" target="_top" xlink:title="Qt widget displaying robot information and control buttons. ">
<polygon fill="none" stroke="black" points="276,-49.5 276,-79.5 425,-79.5 425,-49.5 276,-49.5"/>
<text text-anchor="start" x="284" y="-67.5" font-family="Helvetica,sans-Serif" font-size="10.00">atwork_commander::RobotVis</text>
<text text-anchor="middle" x="350.5" y="-56.5" font-family="Helvetica,sans-Serif" font-size="10.00">Group</text>
</a>
</g>
</g>
<!-- Node1&#45;&gt;Node5 -->
<g id="edge4" class="edge"><title>Node1&#45;&gt;Node5</title>
<path fill="none" stroke="midnightblue" d="M249.079,-77.67C257.986,-76.5018 267.007,-75.3188 275.8,-74.1656"/>
<polygon fill="midnightblue" stroke="midnightblue" points="248.549,-74.2094 239.089,-78.9801 249.46,-81.15 248.549,-74.2094"/>
</g>
<!-- Node6 -->
<g id="node6" class="node"><title>Node6</title>
<g id="a_node6"><a xlink:href="classatwork__commander_1_1TaskGenVisGroup.html" target="_top" xlink:title="Qt widget displaying task generator information. ">
<polygon fill="none" stroke="black" points="276.5,-0.5 276.5,-30.5 424.5,-30.5 424.5,-0.5 276.5,-0.5"/>
<text text-anchor="start" x="284.5" y="-18.5" font-family="Helvetica,sans-Serif" font-size="10.00">atwork_commander::TaskGen</text>
<text text-anchor="middle" x="350.5" y="-7.5" font-family="Helvetica,sans-Serif" font-size="10.00">VisGroup</text>
</a>
</g>
</g>
<!-- Node1&#45;&gt;Node6 -->
<g id="edge5" class="edge"><title>Node1&#45;&gt;Node6</title>
<path fill="none" stroke="midnightblue" d="M195.493,-74.5223C217.363,-64.2251 248.241,-50.209 276,-39.5 284.015,-36.4079 292.617,-33.3618 301.01,-30.532"/>
<polygon fill="midnightblue" stroke="midnightblue" points="193.951,-71.3799 186.414,-78.8266 196.95,-77.705 193.951,-71.3799"/>
</g>
<!-- Node2 -->
<g id="node2" class="node"><title>Node2</title>
<polygon fill="none" stroke="#bfbfbf" points="0,-79 0,-98 55,-98 55,-79 0,-79"/>
<text text-anchor="middle" x="27.5" y="-86" font-family="Helvetica,sans-Serif" font-size="10.00">QWidget</text>
</g>
<!-- Node2&#45;&gt;Node1 -->
<g id="edge1" class="edge"><title>Node2&#45;&gt;Node1</title>
<path fill="none" stroke="midnightblue" d="M65.1186,-88.5C73.1487,-88.5 81.9266,-88.5 90.8351,-88.5"/>
<polygon fill="midnightblue" stroke="midnightblue" points="65.0451,-85.0001 55.045,-88.5 65.045,-92.0001 65.0451,-85.0001"/>
</g>
</g>
</svg>
