<?xml version="1.0" encoding="UTF-8" standalone="no"?>
<!DOCTYPE svg PUBLIC "-//W3C//DTD SVG 1.1//EN"
 "http://www.w3.org/Graphics/SVG/1.1/DTD/svg11.dtd">
<!-- Generated by graphviz version 2.38.0 (20140413.2041)
 -->
<!-- Title: atwork_commander::StateTracker::taskUpdate Pages: 1 -->
<svg width="572pt" height="39pt"
 viewBox="0.00 0.00 572.00 39.00" xmlns="http://www.w3.org/2000/svg" xmlns:xlink="http://www.w3.org/1999/xlink">
<g id="graph0" class="graph" transform="scale(1 1) rotate(0) translate(4 35)">
<title>atwork_commander::StateTracker::taskUpdate</title>
<!-- Node1 -->
<g id="node1" class="node"><title>Node1</title>
<polygon fill="#bfbfbf" stroke="black" points="0,-0.5 0,-30.5 164,-30.5 164,-0.5 0,-0.5"/>
<text text-anchor="start" x="8" y="-18.5" font-family="Helvetica,sans-Serif" font-size="10.00">atwork_commander::StateTracker</text>
<text text-anchor="middle" x="82" y="-7.5" font-family="Helvetica,sans-Serif" font-size="10.00">::taskUpdate</text>
</g>
<!-- Node2 -->
<g id="node2" class="node"><title>Node2</title>
<g id="a_node2"><a xlink:href="classatwork__commander_1_1StateTracker.html#a107ea4b9a37d39d2251f29451ae8db1d" target="_top" xlink:title="atwork_commander::StateTracker\l::stateUpdate">
<polygon fill="none" stroke="black" points="200,-0.5 200,-30.5 364,-30.5 364,-0.5 200,-0.5"/>
<text text-anchor="start" x="208" y="-18.5" font-family="Helvetica,sans-Serif" font-size="10.00">atwork_commander::StateTracker</text>
<text text-anchor="middle" x="282" y="-7.5" font-family="Helvetica,sans-Serif" font-size="10.00">::stateUpdate</text>
</a>
</g>
</g>
<!-- Node1&#45;&gt;Node2 -->
<g id="edge1" class="edge"><title>Node1&#45;&gt;Node2</title>
<path fill="none" stroke="midnightblue" d="M164.105,-8.84898C172.457,-8.75567 180.985,-8.72833 189.44,-8.76697"/>
<polygon fill="midnightblue" stroke="midnightblue" points="189.673,-12.2688 199.7,-8.84682 189.728,-5.26901 189.673,-12.2688"/>
</g>
<!-- Node2&#45;&gt;Node1 -->
<g id="edge3" class="edge"><title>Node2&#45;&gt;Node1</title>
<path fill="none" stroke="midnightblue" d="M199.7,-22.1532C191.346,-22.2455 182.817,-22.2718 174.363,-22.2321"/>
<polygon fill="midnightblue" stroke="midnightblue" points="174.133,-18.7303 164.105,-22.151 174.077,-25.7301 174.133,-18.7303"/>
</g>
<!-- Node3 -->
<g id="node3" class="node"><title>Node3</title>
<g id="a_node3"><a xlink:href="classatwork__commander_1_1StateTracker.html#a46ad6fc41f39df97479dafe32811ff47" target="_top" xlink:title="atwork_commander::StateTracker\l::state2string">
<polygon fill="none" stroke="black" points="400,-0.5 400,-30.5 564,-30.5 564,-0.5 400,-0.5"/>
<text text-anchor="start" x="408" y="-18.5" font-family="Helvetica,sans-Serif" font-size="10.00">atwork_commander::StateTracker</text>
<text text-anchor="middle" x="482" y="-7.5" font-family="Helvetica,sans-Serif" font-size="10.00">::state2string</text>
</a>
</g>
</g>
<!-- Node2&#45;&gt;Node3 -->
<g id="edge2" class="edge"><title>Node2&#45;&gt;Node3</title>
<path fill="none" stroke="midnightblue" d="M364.105,-15.5C372.457,-15.5 380.985,-15.5 389.44,-15.5"/>
<polygon fill="midnightblue" stroke="midnightblue" points="389.7,-19.0001 399.7,-15.5 389.7,-12.0001 389.7,-19.0001"/>
</g>
</g>
</svg>
