<?xml version="1.0" encoding="UTF-8" standalone="no"?>
<!DOCTYPE svg PUBLIC "-//W3C//DTD SVG 1.1//EN"
 "http://www.w3.org/Graphics/SVG/1.1/DTD/svg11.dtd">
<!-- Generated by graphviz version 2.38.0 (20140413.2041)
 -->
<!-- Title: atwork_commander::Control::load Pages: 1 -->
<svg width="500pt" height="78pt"
 viewBox="0.00 0.00 500.00 77.50" xmlns="http://www.w3.org/2000/svg" xmlns:xlink="http://www.w3.org/1999/xlink">
<g id="graph0" class="graph" transform="scale(1 1) rotate(0) translate(4 73.5)">
<title>atwork_commander::Control::load</title>
<!-- Node1 -->
<g id="node1" class="node"><title>Node1</title>
<polygon fill="#bfbfbf" stroke="black" points="0,-17 0,-47 140,-47 140,-17 0,-17"/>
<text text-anchor="start" x="8" y="-35" font-family="Helvetica,sans-Serif" font-size="10.00">atwork_commander::Control</text>
<text text-anchor="middle" x="70" y="-24" font-family="Helvetica,sans-Serif" font-size="10.00">::load</text>
</g>
<!-- Node2 -->
<g id="node2" class="node"><title>Node2</title>
<g id="a_node2"><a xlink:href="classatwork__commander_1_1ControlImpl.html#ab5b74ad5c6560c7d7e6111a6e85cbbfe" target="_top" xlink:title="atwork_commander::Control\lImpl::load">
<polygon fill="none" stroke="black" points="176,-17 176,-47 316,-47 316,-17 176,-17"/>
<text text-anchor="start" x="184" y="-35" font-family="Helvetica,sans-Serif" font-size="10.00">atwork_commander::Control</text>
<text text-anchor="middle" x="246" y="-24" font-family="Helvetica,sans-Serif" font-size="10.00">Impl::load</text>
</a>
</g>
</g>
<!-- Node1&#45;&gt;Node2 -->
<g id="edge1" class="edge"><title>Node1&#45;&gt;Node2</title>
<path fill="none" stroke="midnightblue" d="M140.019,-32C148.476,-32 157.169,-32 165.761,-32"/>
<polygon fill="midnightblue" stroke="midnightblue" points="165.78,-35.5001 175.779,-32 165.779,-28.5001 165.78,-35.5001"/>
</g>
<!-- Node3 -->
<g id="node3" class="node"><title>Node3</title>
<g id="a_node3"><a xlink:href="classatwork__commander_1_1ControlError.html#aa8e0a508d07409af6b9ccc3f2b04862c" target="_top" xlink:title="Constructor taking the error description. ">
<polygon fill="none" stroke="black" points="352,-39 352,-69 492,-69 492,-39 352,-39"/>
<text text-anchor="start" x="360" y="-57" font-family="Helvetica,sans-Serif" font-size="10.00">atwork_commander::Control</text>
<text text-anchor="middle" x="422" y="-46" font-family="Helvetica,sans-Serif" font-size="10.00">Error::ControlError</text>
</a>
</g>
</g>
<!-- Node2&#45;&gt;Node3 -->
<g id="edge2" class="edge"><title>Node2&#45;&gt;Node3</title>
<path fill="none" stroke="midnightblue" d="M316.019,-40.7266C324.476,-41.7958 333.169,-42.8949 341.761,-43.9812"/>
<polygon fill="midnightblue" stroke="midnightblue" points="341.419,-47.4659 351.779,-45.248 342.298,-40.5212 341.419,-47.4659"/>
</g>
<!-- Node4 -->
<g id="node4" class="node"><title>Node4</title>
<g id="a_node4"><a xlink:href="namespaceatwork__commander.html#a144d24cd0805258cbfd6f8cb8795feca" target="_top" xlink:title="atwork_commander::call">
<polygon fill="none" stroke="black" points="360.5,-0.5 360.5,-19.5 483.5,-19.5 483.5,-0.5 360.5,-0.5"/>
<text text-anchor="middle" x="422" y="-7.5" font-family="Helvetica,sans-Serif" font-size="10.00">atwork_commander::call</text>
</a>
</g>
</g>
<!-- Node2&#45;&gt;Node4 -->
<g id="edge3" class="edge"><title>Node2&#45;&gt;Node4</title>
<path fill="none" stroke="midnightblue" d="M316.019,-23.2734C327.207,-21.8589 338.809,-20.392 350.041,-18.9718"/>
<polygon fill="midnightblue" stroke="midnightblue" points="350.748,-22.4104 360.23,-17.6836 349.87,-15.4657 350.748,-22.4104"/>
</g>
</g>
</svg>
