<?xml version="1.0" encoding="UTF-8" standalone="no"?>
<!DOCTYPE svg PUBLIC "-//W3C//DTD SVG 1.1//EN"
 "http://www.w3.org/Graphics/SVG/1.1/DTD/svg11.dtd">
<!-- Generated by graphviz version 2.38.0 (20140413.2041)
 -->
<!-- Title: atwork_commander::task_generator::jurek::Generator::generateImpl Pages: 1 -->
<!--zoomable 1206 -->
<svg id="main" version="1.1" xmlns="http://www.w3.org/2000/svg" xmlns:xlink="http://www.w3.org/1999/xlink" xml:space="preserve" onload="init(evt)">
<style type="text/css"><![CDATA[
.edge:hover path { stroke: red; }
.edge:hover polygon { stroke: red; fill: red; }
]]></style>
<script type="text/javascript"><![CDATA[
var edges = document.getElementsByTagName('g');
if (edges && edges.length) {
  for (var i=0;i<edges.length;i++) {
    if (edges[i].id.substr(0,4)=='edge') {
      edges[i].setAttribute('class','edge');
    }
  }
}
]]></script>
        <defs>
                <circle id="rim" cx="0" cy="0" r="7"/>
                <circle id="rim2" cx="0" cy="0" r="3.5"/>
                <g id="zoomPlus">
                        <use xlink:href="#rim" fill="#404040">
                                <set attributeName="fill" to="#808080" begin="zoomplus.mouseover" end="zoomplus.mouseout"/>
                        </use>
                        <path d="M-4,0h8M0,-4v8" fill="none" stroke="white" stroke-width="1.5" pointer-events="none"/>
                </g>
                <g id="zoomMin">
                        <use xlink:href="#rim" fill="#404040">
                                <set attributeName="fill" to="#808080" begin="zoomminus.mouseover" end="zoomminus.mouseout"/>
                        </use>
                        <path d="M-4,0h8" fill="none" stroke="white" stroke-width="1.5" pointer-events="none"/>
                </g>
                <g id="dirArrow">
                        <path fill="none" stroke="white" stroke-width="1.5" d="M0,-3.0v7 M-2.5,-0.5L0,-3.0L2.5,-0.5"/>
                </g>
               <g id="resetDef">
                       <use xlink:href="#rim2" fill="#404040">
                               <set attributeName="fill" to="#808080" begin="reset.mouseover" end="reset.mouseout"/>
                       </use>
               </g>
        </defs>

<script type="text/javascript">
var viewWidth = 668;
var viewHeight = 1206;
var sectionId = 'dynsection-19';
</script>
<script xlink:href="svgpan.js"/>
<svg id="graph" class="graph">
<g id="viewport">
<title>atwork_commander::task_generator::jurek::Generator::generateImpl</title>
<!-- Node1 -->
<g id="node1" class="node"><title>Node1</title>
<polygon fill="#bfbfbf" stroke="black" points="0,-578.5 0,-619.5 138,-619.5 138,-578.5 0,-578.5"/>
<text text-anchor="start" x="8" y="-607.5" font-family="Helvetica,sans-Serif" font-size="10.00">atwork_commander::task</text>
<text text-anchor="start" x="8" y="-596.5" font-family="Helvetica,sans-Serif" font-size="10.00">_generator::jurek::Generator</text>
<text text-anchor="middle" x="69" y="-585.5" font-family="Helvetica,sans-Serif" font-size="10.00">::generateImpl</text>
</g>
<!-- Node2 -->
<g id="node2" class="node"><title>Node2</title>
<g id="a_node2"><a xlink:href="classatwork__commander_1_1task__generator_1_1jurek_1_1Generator.html#aeba4d8c653c195ba0ed6ee5895f83982" target="_top" xlink:title="atwork_commander::task\l_generator::jurek::Generator\l::checkContainers">
<polygon fill="none" stroke="black" points="174,-1156.5 174,-1197.5 312,-1197.5 312,-1156.5 174,-1156.5"/>
<text text-anchor="start" x="182" y="-1185.5" font-family="Helvetica,sans-Serif" font-size="10.00">atwork_commander::task</text>
<text text-anchor="start" x="182" y="-1174.5" font-family="Helvetica,sans-Serif" font-size="10.00">_generator::jurek::Generator</text>
<text text-anchor="middle" x="243" y="-1163.5" font-family="Helvetica,sans-Serif" font-size="10.00">::checkContainers</text>
</a>
</g>
</g>
<!-- Node1&#45;&gt;Node2 -->
<g id="edge1" class="edge"><title>Node1&#45;&gt;Node2</title>
<path fill="none" stroke="midnightblue" d="M71.3904,-619.756C77.7669,-709.381 106.829,-1062.46 174,-1147 174.702,-1147.88 175.436,-1148.74 176.198,-1149.58"/>
<polygon fill="midnightblue" stroke="midnightblue" points="173.992,-1152.3 183.747,-1156.43 178.699,-1147.12 173.992,-1152.3"/>
</g>
<!-- Node3 -->
<g id="node3" class="node"><title>Node3</title>
<g id="a_node3"><a xlink:href="classatwork__commander_1_1task__generator_1_1jurek_1_1Generator.html#a40cfc37218574107ab9fc4285e654b2a" target="_top" xlink:title="atwork_commander::task\l_generator::jurek::Generator\l::checkPickCounts">
<polygon fill="none" stroke="black" points="174,-1096.5 174,-1137.5 312,-1137.5 312,-1096.5 174,-1096.5"/>
<text text-anchor="start" x="182" y="-1125.5" font-family="Helvetica,sans-Serif" font-size="10.00">atwork_commander::task</text>
<text text-anchor="start" x="182" y="-1114.5" font-family="Helvetica,sans-Serif" font-size="10.00">_generator::jurek::Generator</text>
<text text-anchor="middle" x="243" y="-1103.5" font-family="Helvetica,sans-Serif" font-size="10.00">::checkPickCounts</text>
</a>
</g>
</g>
<!-- Node1&#45;&gt;Node3 -->
<g id="edge2" class="edge"><title>Node1&#45;&gt;Node3</title>
<path fill="none" stroke="midnightblue" d="M71.9142,-619.706C79.9821,-703.007 113.615,-1012.73 174,-1087 174.712,-1087.88 175.455,-1088.73 176.226,-1089.55"/>
<polygon fill="midnightblue" stroke="midnightblue" points="174.049,-1092.3 183.835,-1096.36 178.717,-1087.09 174.049,-1092.3"/>
</g>
<!-- Node4 -->
<g id="node4" class="node"><title>Node4</title>
<g id="a_node4"><a xlink:href="classatwork__commander_1_1task__generator_1_1jurek_1_1Generator.html#ae79fd6729dc4e4f114726eb1c55900f9" target="_top" xlink:title="atwork_commander::task\l_generator::jurek::Generator\l::checkPickNeqPlace">
<polygon fill="none" stroke="black" points="174,-1036.5 174,-1077.5 312,-1077.5 312,-1036.5 174,-1036.5"/>
<text text-anchor="start" x="182" y="-1065.5" font-family="Helvetica,sans-Serif" font-size="10.00">atwork_commander::task</text>
<text text-anchor="start" x="182" y="-1054.5" font-family="Helvetica,sans-Serif" font-size="10.00">_generator::jurek::Generator</text>
<text text-anchor="middle" x="243" y="-1043.5" font-family="Helvetica,sans-Serif" font-size="10.00">::checkPickNeqPlace</text>
</a>
</g>
</g>
<!-- Node1&#45;&gt;Node4 -->
<g id="edge3" class="edge"><title>Node1&#45;&gt;Node4</title>
<path fill="none" stroke="midnightblue" d="M72.5896,-619.737C82.5293,-696.438 120.384,-962.934 174,-1027 174.725,-1027.87 175.479,-1028.71 176.261,-1029.53"/>
<polygon fill="midnightblue" stroke="midnightblue" points="174.122,-1032.31 183.946,-1036.27 178.74,-1027.04 174.122,-1032.31"/>
</g>
<!-- Node5 -->
<g id="node5" class="node"><title>Node5</title>
<g id="a_node5"><a xlink:href="classatwork__commander_1_1task__generator_1_1jurek_1_1Generator.html#aca4a5c5ba1da7dba33dfb0f8843c350d" target="_top" xlink:title="atwork_commander::task\l_generator::jurek::Generator\l::checkPlaceCounts">
<polygon fill="none" stroke="black" points="174,-976.5 174,-1017.5 312,-1017.5 312,-976.5 174,-976.5"/>
<text text-anchor="start" x="182" y="-1005.5" font-family="Helvetica,sans-Serif" font-size="10.00">atwork_commander::task</text>
<text text-anchor="start" x="182" y="-994.5" font-family="Helvetica,sans-Serif" font-size="10.00">_generator::jurek::Generator</text>
<text text-anchor="middle" x="243" y="-983.5" font-family="Helvetica,sans-Serif" font-size="10.00">::checkPlaceCounts</text>
</a>
</g>
</g>
<!-- Node1&#45;&gt;Node5 -->
<g id="edge4" class="edge"><title>Node1&#45;&gt;Node5</title>
<path fill="none" stroke="midnightblue" d="M70.0013,-619.745C71.1,-680.688 82.3366,-861.507 174,-967 174.857,-967.986 175.752,-968.941 176.682,-969.866"/>
<polygon fill="midnightblue" stroke="midnightblue" points="174.506,-972.609 184.406,-976.382 179.019,-967.259 174.506,-972.609"/>
</g>
<!-- Node6 -->
<g id="node6" class="node"><title>Node6</title>
<g id="a_node6"><a xlink:href="classatwork__commander_1_1task__generator_1_1jurek_1_1Generator.html#a53f1c68d9325691496b0bd11dac63dbb" target="_top" xlink:title="atwork_commander::task\l_generator::jurek::Generator\l::debugAll">
<polygon fill="none" stroke="black" points="174,-916.5 174,-957.5 312,-957.5 312,-916.5 174,-916.5"/>
<text text-anchor="start" x="182" y="-945.5" font-family="Helvetica,sans-Serif" font-size="10.00">atwork_commander::task</text>
<text text-anchor="start" x="182" y="-934.5" font-family="Helvetica,sans-Serif" font-size="10.00">_generator::jurek::Generator</text>
<text text-anchor="middle" x="243" y="-923.5" font-family="Helvetica,sans-Serif" font-size="10.00">::debugAll</text>
</a>
</g>
</g>
<!-- Node1&#45;&gt;Node6 -->
<g id="edge5" class="edge"><title>Node1&#45;&gt;Node6</title>
<path fill="none" stroke="midnightblue" d="M71.8165,-619.629C77.4879,-672.646 99.2371,-815.552 174,-902 176.612,-905.021 179.55,-907.815 182.699,-910.394"/>
<polygon fill="midnightblue" stroke="midnightblue" points="180.758,-913.31 190.902,-916.368 184.879,-907.651 180.758,-913.31"/>
</g>
<!-- Node7 -->
<g id="node7" class="node"><title>Node7</title>
<g id="a_node7"><a xlink:href="classatwork__commander_1_1task__generator_1_1jurek_1_1Generator.html#a8e4768730cfb7f3c27dc6225e629e2bb" target="_top" xlink:title="atwork_commander::task\l_generator::jurek::Generator\l::generate_objects">
<polygon fill="none" stroke="black" points="174,-818.5 174,-859.5 312,-859.5 312,-818.5 174,-818.5"/>
<text text-anchor="start" x="182" y="-847.5" font-family="Helvetica,sans-Serif" font-size="10.00">atwork_commander::task</text>
<text text-anchor="start" x="182" y="-836.5" font-family="Helvetica,sans-Serif" font-size="10.00">_generator::jurek::Generator</text>
<text text-anchor="middle" x="243" y="-825.5" font-family="Helvetica,sans-Serif" font-size="10.00">::generate_objects</text>
</a>
</g>
</g>
<!-- Node1&#45;&gt;Node7 -->
<g id="edge6" class="edge"><title>Node1&#45;&gt;Node7</title>
<path fill="none" stroke="midnightblue" d="M75.1358,-619.747C86.3374,-661.02 116.672,-754.159 174,-809 175.25,-810.196 176.556,-811.349 177.907,-812.46"/>
<polygon fill="midnightblue" stroke="midnightblue" points="175.937,-815.354 186.092,-818.375 180.038,-809.681 175.937,-815.354"/>
</g>
<!-- Node12 -->
<g id="node12" class="node"><title>Node12</title>
<g id="a_node12"><a xlink:href="classatwork__commander_1_1task__generator_1_1jurek_1_1Generator.html#a2c8f2d001e2254efcae1018dd1f36cdd" target="_top" xlink:title="atwork_commander::task\l_generator::jurek::Generator\l::toObjectType">
<polygon fill="none" stroke="black" points="522,-867.5 522,-908.5 660,-908.5 660,-867.5 522,-867.5"/>
<text text-anchor="start" x="530" y="-896.5" font-family="Helvetica,sans-Serif" font-size="10.00">atwork_commander::task</text>
<text text-anchor="start" x="530" y="-885.5" font-family="Helvetica,sans-Serif" font-size="10.00">_generator::jurek::Generator</text>
<text text-anchor="middle" x="591" y="-874.5" font-family="Helvetica,sans-Serif" font-size="10.00">::toObjectType</text>
</a>
</g>
</g>
<!-- Node1&#45;&gt;Node12 -->
<g id="edge24" class="edge"><title>Node1&#45;&gt;Node12</title>
<path fill="none" stroke="midnightblue" d="M70.7907,-619.71C74.0218,-671.877 90.4532,-808.801 174,-869 226.083,-906.528 406.092,-901.133 511.48,-894.307"/>
<polygon fill="midnightblue" stroke="midnightblue" points="512.008,-897.78 521.753,-893.622 511.542,-890.795 512.008,-897.78"/>
</g>
<!-- Node13 -->
<g id="node13" class="node"><title>Node13</title>
<g id="a_node13"><a xlink:href="classatwork__commander_1_1task__generator_1_1jurek_1_1Generator.html#a866dab16a5118384225fcdaef9d1357f" target="_top" xlink:title="atwork_commander::task\l_generator::jurek::Generator\l::get_container_id">
<polygon fill="none" stroke="black" points="174,-758.5 174,-799.5 312,-799.5 312,-758.5 174,-758.5"/>
<text text-anchor="start" x="182" y="-787.5" font-family="Helvetica,sans-Serif" font-size="10.00">atwork_commander::task</text>
<text text-anchor="start" x="182" y="-776.5" font-family="Helvetica,sans-Serif" font-size="10.00">_generator::jurek::Generator</text>
<text text-anchor="middle" x="243" y="-765.5" font-family="Helvetica,sans-Serif" font-size="10.00">::get_container_id</text>
</a>
</g>
</g>
<!-- Node1&#45;&gt;Node13 -->
<g id="edge12" class="edge"><title>Node1&#45;&gt;Node13</title>
<path fill="none" stroke="midnightblue" d="M79.637,-619.63C95.3493,-651.297 129.276,-712.086 174,-749 175.567,-750.294 177.199,-751.542 178.882,-752.745"/>
<polygon fill="midnightblue" stroke="midnightblue" points="177.349,-755.921 187.652,-758.39 181.138,-750.034 177.349,-755.921"/>
</g>
<!-- Node14 -->
<g id="node14" class="node"><title>Node14</title>
<g id="a_node14"><a xlink:href="classatwork__commander_1_1task__generator_1_1jurek_1_1Generator.html#aa27d0abd693195ad1367ea3662faf27f" target="_top" xlink:title="atwork_commander::task\l_generator::jurek::Generator\l::initialize_mAllTables">
<polygon fill="none" stroke="black" points="174,-698.5 174,-739.5 312,-739.5 312,-698.5 174,-698.5"/>
<text text-anchor="start" x="182" y="-727.5" font-family="Helvetica,sans-Serif" font-size="10.00">atwork_commander::task</text>
<text text-anchor="start" x="182" y="-716.5" font-family="Helvetica,sans-Serif" font-size="10.00">_generator::jurek::Generator</text>
<text text-anchor="middle" x="243" y="-705.5" font-family="Helvetica,sans-Serif" font-size="10.00">::initialize_mAllTables</text>
</a>
</g>
</g>
<!-- Node1&#45;&gt;Node14 -->
<g id="edge13" class="edge"><title>Node1&#45;&gt;Node14</title>
<path fill="none" stroke="midnightblue" d="M90.04,-619.597C109.98,-639.266 142.125,-668.819 174,-689 176.453,-690.553 179,-692.065 181.606,-693.531"/>
<polygon fill="midnightblue" stroke="midnightblue" points="180.166,-696.729 190.639,-698.33 183.45,-690.547 180.166,-696.729"/>
</g>
<!-- Node15 -->
<g id="node15" class="node"><title>Node15</title>
<g id="a_node15"><a xlink:href="classatwork__commander_1_1task__generator_1_1jurek_1_1Generator.html#ab64fd15facebb8d3aa4cd7c95945a531" target="_top" xlink:title="atwork_commander::task\l_generator::jurek::Generator\l::initialize_mTableTypes">
<polygon fill="none" stroke="black" points="174,-638.5 174,-679.5 312,-679.5 312,-638.5 174,-638.5"/>
<text text-anchor="start" x="182" y="-667.5" font-family="Helvetica,sans-Serif" font-size="10.00">atwork_commander::task</text>
<text text-anchor="start" x="182" y="-656.5" font-family="Helvetica,sans-Serif" font-size="10.00">_generator::jurek::Generator</text>
<text text-anchor="middle" x="243" y="-645.5" font-family="Helvetica,sans-Serif" font-size="10.00">::initialize_mTableTypes</text>
</a>
</g>
</g>
<!-- Node1&#45;&gt;Node15 -->
<g id="edge14" class="edge"><title>Node1&#45;&gt;Node15</title>
<path fill="none" stroke="midnightblue" d="M129.193,-619.649C143.461,-624.626 158.824,-629.985 173.48,-635.098"/>
<polygon fill="midnightblue" stroke="midnightblue" points="172.395,-638.426 182.99,-638.415 174.701,-631.817 172.395,-638.426"/>
</g>
<!-- Node16 -->
<g id="node16" class="node"><title>Node16</title>
<g id="a_node16"><a xlink:href="classatwork__commander_1_1task__generator_1_1jurek_1_1Generator.html#ab5d603114e701a814b4a5ab06ebe4a54" target="_top" xlink:title="atwork_commander::task\l_generator::jurek::Generator\l::initialize_picksleft">
<polygon fill="none" stroke="black" points="174,-578.5 174,-619.5 312,-619.5 312,-578.5 174,-578.5"/>
<text text-anchor="start" x="182" y="-607.5" font-family="Helvetica,sans-Serif" font-size="10.00">atwork_commander::task</text>
<text text-anchor="start" x="182" y="-596.5" font-family="Helvetica,sans-Serif" font-size="10.00">_generator::jurek::Generator</text>
<text text-anchor="middle" x="243" y="-585.5" font-family="Helvetica,sans-Serif" font-size="10.00">::initialize_picksleft</text>
</a>
</g>
</g>
<!-- Node1&#45;&gt;Node16 -->
<g id="edge15" class="edge"><title>Node1&#45;&gt;Node16</title>
<path fill="none" stroke="midnightblue" d="M138.473,-599C146.732,-599 155.216,-599 163.602,-599"/>
<polygon fill="midnightblue" stroke="midnightblue" points="163.762,-602.5 173.762,-599 163.762,-595.5 163.762,-602.5"/>
</g>
<!-- Node17 -->
<g id="node17" class="node"><title>Node17</title>
<g id="a_node17"><a xlink:href="classatwork__commander_1_1task__generator_1_1jurek_1_1Generator.html#a7135974851d33c56529cb879dd935258" target="_top" xlink:title="atwork_commander::task\l_generator::jurek::Generator\l::initialize_validpicks">
<polygon fill="none" stroke="black" points="174,-518.5 174,-559.5 312,-559.5 312,-518.5 174,-518.5"/>
<text text-anchor="start" x="182" y="-547.5" font-family="Helvetica,sans-Serif" font-size="10.00">atwork_commander::task</text>
<text text-anchor="start" x="182" y="-536.5" font-family="Helvetica,sans-Serif" font-size="10.00">_generator::jurek::Generator</text>
<text text-anchor="middle" x="243" y="-525.5" font-family="Helvetica,sans-Serif" font-size="10.00">::initialize_validpicks</text>
</a>
</g>
</g>
<!-- Node1&#45;&gt;Node17 -->
<g id="edge16" class="edge"><title>Node1&#45;&gt;Node17</title>
<path fill="none" stroke="midnightblue" d="M129.193,-578.351C143.461,-573.374 158.824,-568.015 173.48,-562.902"/>
<polygon fill="midnightblue" stroke="midnightblue" points="174.701,-566.183 182.99,-559.585 172.395,-559.574 174.701,-566.183"/>
</g>
<!-- Node18 -->
<g id="node18" class="node"><title>Node18</title>
<g id="a_node18"><a xlink:href="classatwork__commander_1_1task__generator_1_1jurek_1_1Generator.html#afc0bdb82a4951d56e106f4d896dbdaa6" target="_top" xlink:title="atwork_commander::task\l_generator::jurek::Generator\l::order">
<polygon fill="none" stroke="black" points="174,-458.5 174,-499.5 312,-499.5 312,-458.5 174,-458.5"/>
<text text-anchor="start" x="182" y="-487.5" font-family="Helvetica,sans-Serif" font-size="10.00">atwork_commander::task</text>
<text text-anchor="start" x="182" y="-476.5" font-family="Helvetica,sans-Serif" font-size="10.00">_generator::jurek::Generator</text>
<text text-anchor="middle" x="243" y="-465.5" font-family="Helvetica,sans-Serif" font-size="10.00">::order</text>
</a>
</g>
</g>
<!-- Node1&#45;&gt;Node18 -->
<g id="edge17" class="edge"><title>Node1&#45;&gt;Node18</title>
<path fill="none" stroke="midnightblue" d="M90.04,-578.403C109.98,-558.734 142.125,-529.181 174,-509 176.453,-507.447 179,-505.935 181.606,-504.469"/>
<polygon fill="midnightblue" stroke="midnightblue" points="183.45,-507.453 190.639,-499.67 180.166,-501.271 183.45,-507.453"/>
</g>
<!-- Node19 -->
<g id="node19" class="node"><title>Node19</title>
<g id="a_node19"><a xlink:href="classatwork__commander_1_1task__generator_1_1jurek_1_1Generator.html#aa491e80f0fcf0e849676c39a982b34a4" target="_top" xlink:title="atwork_commander::task\l_generator::jurek::Generator\l::printError">
<polygon fill="none" stroke="black" points="174,-398.5 174,-439.5 312,-439.5 312,-398.5 174,-398.5"/>
<text text-anchor="start" x="182" y="-427.5" font-family="Helvetica,sans-Serif" font-size="10.00">atwork_commander::task</text>
<text text-anchor="start" x="182" y="-416.5" font-family="Helvetica,sans-Serif" font-size="10.00">_generator::jurek::Generator</text>
<text text-anchor="middle" x="243" y="-405.5" font-family="Helvetica,sans-Serif" font-size="10.00">::printError</text>
</a>
</g>
</g>
<!-- Node1&#45;&gt;Node19 -->
<g id="edge18" class="edge"><title>Node1&#45;&gt;Node19</title>
<path fill="none" stroke="midnightblue" d="M79.637,-578.37C95.3493,-546.703 129.276,-485.914 174,-449 175.567,-447.706 177.199,-446.458 178.882,-445.255"/>
<polygon fill="midnightblue" stroke="midnightblue" points="181.138,-447.966 187.652,-439.61 177.349,-442.079 181.138,-447.966"/>
</g>
<!-- Node20 -->
<g id="node20" class="node"><title>Node20</title>
<g id="a_node20"><a xlink:href="classatwork__commander_1_1task__generator_1_1jurek_1_1Generator.html#a598368025bb6d251d96bad44da2a7d94" target="_top" xlink:title="atwork_commander::task\l_generator::jurek::Generator\l::readParameters">
<polygon fill="none" stroke="black" points="174,-338.5 174,-379.5 312,-379.5 312,-338.5 174,-338.5"/>
<text text-anchor="start" x="182" y="-367.5" font-family="Helvetica,sans-Serif" font-size="10.00">atwork_commander::task</text>
<text text-anchor="start" x="182" y="-356.5" font-family="Helvetica,sans-Serif" font-size="10.00">_generator::jurek::Generator</text>
<text text-anchor="middle" x="243" y="-345.5" font-family="Helvetica,sans-Serif" font-size="10.00">::readParameters</text>
</a>
</g>
</g>
<!-- Node1&#45;&gt;Node20 -->
<g id="edge19" class="edge"><title>Node1&#45;&gt;Node20</title>
<path fill="none" stroke="midnightblue" d="M75.1358,-578.253C86.3374,-536.98 116.672,-443.841 174,-389 175.25,-387.804 176.556,-386.651 177.907,-385.54"/>
<polygon fill="midnightblue" stroke="midnightblue" points="180.038,-388.319 186.092,-379.625 175.937,-382.646 180.038,-388.319"/>
</g>
<!-- Node21 -->
<g id="node21" class="node"><title>Node21</title>
<g id="a_node21"><a xlink:href="classatwork__commander_1_1task__generator_1_1jurek_1_1Generator.html#aed3e3410d35ccb8b412e65be1f02c917" target="_top" xlink:title="atwork_commander::task\l_generator::jurek::Generator\l::shortest_list">
<polygon fill="none" stroke="black" points="174,-278.5 174,-319.5 312,-319.5 312,-278.5 174,-278.5"/>
<text text-anchor="start" x="182" y="-307.5" font-family="Helvetica,sans-Serif" font-size="10.00">atwork_commander::task</text>
<text text-anchor="start" x="182" y="-296.5" font-family="Helvetica,sans-Serif" font-size="10.00">_generator::jurek::Generator</text>
<text text-anchor="middle" x="243" y="-285.5" font-family="Helvetica,sans-Serif" font-size="10.00">::shortest_list</text>
</a>
</g>
</g>
<!-- Node1&#45;&gt;Node21 -->
<g id="edge21" class="edge"><title>Node1&#45;&gt;Node21</title>
<path fill="none" stroke="midnightblue" d="M72.5319,-578.199C79.5907,-528.714 103.813,-402.626 174,-329 174.927,-328.028 175.89,-327.086 176.886,-326.172"/>
<polygon fill="midnightblue" stroke="midnightblue" points="179.394,-328.652 185.083,-319.714 175.062,-323.153 179.394,-328.652"/>
</g>
<!-- Node22 -->
<g id="node22" class="node"><title>Node22</title>
<g id="a_node22"><a xlink:href="classatwork__commander_1_1task__generator_1_1jurek_1_1Generator.html#a1fa75db61b8221e01e3c86a5b0c29a23" target="_top" xlink:title="atwork_commander::task\l_generator::jurek::Generator\l::sum_vector">
<polygon fill="none" stroke="black" points="174,-218.5 174,-259.5 312,-259.5 312,-218.5 174,-218.5"/>
<text text-anchor="start" x="182" y="-247.5" font-family="Helvetica,sans-Serif" font-size="10.00">atwork_commander::task</text>
<text text-anchor="start" x="182" y="-236.5" font-family="Helvetica,sans-Serif" font-size="10.00">_generator::jurek::Generator</text>
<text text-anchor="middle" x="243" y="-225.5" font-family="Helvetica,sans-Serif" font-size="10.00">::sum_vector</text>
</a>
</g>
</g>
<!-- Node1&#45;&gt;Node22 -->
<g id="edge22" class="edge"><title>Node1&#45;&gt;Node22</title>
<path fill="none" stroke="midnightblue" d="M70.8069,-578.363C74.0876,-521.757 90.6503,-362.08 174,-269 174.872,-268.027 175.781,-267.083 176.723,-266.169"/>
<polygon fill="midnightblue" stroke="midnightblue" points="179.046,-268.79 184.522,-259.72 174.585,-263.396 179.046,-268.79"/>
</g>
<!-- Node23 -->
<g id="node23" class="node"><title>Node23</title>
<g id="a_node23"><a xlink:href="classatwork__commander_1_1task__generator_1_1jurek_1_1Generator.html#a6a3cbca1e1886e5ce3ad930f261440f7" target="_top" xlink:title="atwork_commander::task\l_generator::jurek::Generator\l::toCavity">
<polygon fill="none" stroke="black" points="348,-145.5 348,-186.5 486,-186.5 486,-145.5 348,-145.5"/>
<text text-anchor="start" x="356" y="-174.5" font-family="Helvetica,sans-Serif" font-size="10.00">atwork_commander::task</text>
<text text-anchor="start" x="356" y="-163.5" font-family="Helvetica,sans-Serif" font-size="10.00">_generator::jurek::Generator</text>
<text text-anchor="middle" x="417" y="-152.5" font-family="Helvetica,sans-Serif" font-size="10.00">::toCavity</text>
</a>
</g>
</g>
<!-- Node1&#45;&gt;Node23 -->
<g id="edge23" class="edge"><title>Node1&#45;&gt;Node23</title>
<path fill="none" stroke="midnightblue" d="M72.5741,-578.438C82.1316,-505.459 117.944,-260.495 174,-209 197.554,-187.363 276.502,-176.321 337.894,-170.886"/>
<polygon fill="midnightblue" stroke="midnightblue" points="338.303,-174.364 347.971,-170.029 337.71,-167.389 338.303,-174.364"/>
</g>
<!-- Node24 -->
<g id="node24" class="node"><title>Node24</title>
<g id="a_node24"><a xlink:href="classatwork__commander_1_1task__generator_1_1jurek_1_1Generator.html#a24fa62686eb30e4641d99c009f3323fd" target="_top" xlink:title="atwork_commander::task\l_generator::jurek::Generator\l::toTask">
<polygon fill="none" stroke="black" points="174,-120.5 174,-161.5 312,-161.5 312,-120.5 174,-120.5"/>
<text text-anchor="start" x="182" y="-149.5" font-family="Helvetica,sans-Serif" font-size="10.00">atwork_commander::task</text>
<text text-anchor="start" x="182" y="-138.5" font-family="Helvetica,sans-Serif" font-size="10.00">_generator::jurek::Generator</text>
<text text-anchor="middle" x="243" y="-127.5" font-family="Helvetica,sans-Serif" font-size="10.00">::toTask</text>
</a>
</g>
</g>
<!-- Node1&#45;&gt;Node24 -->
<g id="edge25" class="edge"><title>Node1&#45;&gt;Node24</title>
<path fill="none" stroke="midnightblue" d="M69.3754,-578.374C68.4472,-512.287 73.9561,-302.728 174,-176 176.316,-173.066 178.946,-170.353 181.792,-167.85"/>
<polygon fill="midnightblue" stroke="midnightblue" points="183.982,-170.58 189.762,-161.701 179.707,-165.038 183.982,-170.58"/>
</g>
<!-- Node25 -->
<g id="node25" class="node"><title>Node25</title>
<g id="a_node25"><a xlink:href="classatwork__commander_1_1task__generator_1_1jurek_1_1Generator.html#a6ccb532bc6995528bda0e9200a2999ae" target="_top" xlink:title="atwork_commander::task\l_generator::jurek::Generator\l::update_validpicks">
<polygon fill="none" stroke="black" points="174,-60.5 174,-101.5 312,-101.5 312,-60.5 174,-60.5"/>
<text text-anchor="start" x="182" y="-89.5" font-family="Helvetica,sans-Serif" font-size="10.00">atwork_commander::task</text>
<text text-anchor="start" x="182" y="-78.5" font-family="Helvetica,sans-Serif" font-size="10.00">_generator::jurek::Generator</text>
<text text-anchor="middle" x="243" y="-67.5" font-family="Helvetica,sans-Serif" font-size="10.00">::update_validpicks</text>
</a>
</g>
</g>
<!-- Node1&#45;&gt;Node25 -->
<g id="edge27" class="edge"><title>Node1&#45;&gt;Node25</title>
<path fill="none" stroke="midnightblue" d="M71.9142,-578.294C79.9821,-494.993 113.615,-185.27 174,-111 174.712,-110.124 175.455,-109.273 176.226,-108.446"/>
<polygon fill="midnightblue" stroke="midnightblue" points="178.717,-110.913 183.835,-101.637 174.049,-105.697 178.717,-110.913"/>
</g>
<!-- Node26 -->
<g id="node26" class="node"><title>Node26</title>
<g id="a_node26"><a xlink:href="classatwork__commander_1_1task__generator_1_1jurek_1_1Generator.html#ac937dc6de058bbca34905a11be7424e4" target="_top" xlink:title="atwork_commander::task\l_generator::jurek::Generator\l::variation">
<polygon fill="none" stroke="black" points="174,-0.5 174,-41.5 312,-41.5 312,-0.5 174,-0.5"/>
<text text-anchor="start" x="182" y="-29.5" font-family="Helvetica,sans-Serif" font-size="10.00">atwork_commander::task</text>
<text text-anchor="start" x="182" y="-18.5" font-family="Helvetica,sans-Serif" font-size="10.00">_generator::jurek::Generator</text>
<text text-anchor="middle" x="243" y="-7.5" font-family="Helvetica,sans-Serif" font-size="10.00">::variation</text>
</a>
</g>
</g>
<!-- Node1&#45;&gt;Node26 -->
<g id="edge28" class="edge"><title>Node1&#45;&gt;Node26</title>
<path fill="none" stroke="midnightblue" d="M71.3904,-578.244C77.7669,-488.619 106.829,-135.536 174,-51 174.702,-50.116 175.436,-49.2574 176.198,-48.4235"/>
<polygon fill="midnightblue" stroke="midnightblue" points="178.699,-50.8806 183.747,-41.5657 173.992,-45.6994 178.699,-50.8806"/>
</g>
<!-- Node8 -->
<g id="node8" class="node"><title>Node8</title>
<g id="a_node8"><a xlink:href="classatwork__commander_1_1task__generator_1_1jurek_1_1Generator.html#ad315f8b6419a2eb9d41d046283031036" target="_top" xlink:title="atwork_commander::task\l_generator::jurek::Generator\l::toTaskObject">
<polygon fill="none" stroke="black" points="348,-777.5 348,-818.5 486,-818.5 486,-777.5 348,-777.5"/>
<text text-anchor="start" x="356" y="-806.5" font-family="Helvetica,sans-Serif" font-size="10.00">atwork_commander::task</text>
<text text-anchor="start" x="356" y="-795.5" font-family="Helvetica,sans-Serif" font-size="10.00">_generator::jurek::Generator</text>
<text text-anchor="middle" x="417" y="-784.5" font-family="Helvetica,sans-Serif" font-size="10.00">::toTaskObject</text>
</a>
</g>
</g>
<!-- Node7&#45;&gt;Node8 -->
<g id="edge7" class="edge"><title>Node7&#45;&gt;Node8</title>
<path fill="none" stroke="midnightblue" d="M312.473,-822.678C320.823,-820.688 329.402,-818.643 337.879,-816.622"/>
<polygon fill="midnightblue" stroke="midnightblue" points="338.847,-819.989 347.762,-814.266 337.223,-813.18 338.847,-819.989"/>
</g>
<!-- Node9 -->
<g id="node9" class="node"><title>Node9</title>
<g id="a_node9"><a xlink:href="classatwork__commander_1_1task__generator_1_1jurek_1_1Generator.html#ace8b675d10370a0bfd36927406fef7ed" target="_top" xlink:title="atwork_commander::task\l_generator::jurek::Generator\l::toContainerType">
<polygon fill="none" stroke="black" points="522,-807.5 522,-848.5 660,-848.5 660,-807.5 522,-807.5"/>
<text text-anchor="start" x="530" y="-836.5" font-family="Helvetica,sans-Serif" font-size="10.00">atwork_commander::task</text>
<text text-anchor="start" x="530" y="-825.5" font-family="Helvetica,sans-Serif" font-size="10.00">_generator::jurek::Generator</text>
<text text-anchor="middle" x="591" y="-814.5" font-family="Helvetica,sans-Serif" font-size="10.00">::toContainerType</text>
</a>
</g>
</g>
<!-- Node8&#45;&gt;Node9 -->
<g id="edge8" class="edge"><title>Node8&#45;&gt;Node9</title>
<path fill="none" stroke="midnightblue" d="M486.473,-809.943C494.823,-811.399 503.402,-812.896 511.879,-814.374"/>
<polygon fill="midnightblue" stroke="midnightblue" points="511.31,-817.828 521.762,-816.098 512.513,-810.932 511.31,-817.828"/>
</g>
<!-- Node10 -->
<g id="node10" class="node"><title>Node10</title>
<g id="a_node10"><a xlink:href="classatwork__commander_1_1task__generator_1_1jurek_1_1Generator.html#ac781b2fc429536d8d816b6bd857946b3" target="_top" xlink:title="atwork_commander::task\l_generator::jurek::Generator\l::toCavityType">
<polygon fill="none" stroke="black" points="522,-747.5 522,-788.5 660,-788.5 660,-747.5 522,-747.5"/>
<text text-anchor="start" x="530" y="-776.5" font-family="Helvetica,sans-Serif" font-size="10.00">atwork_commander::task</text>
<text text-anchor="start" x="530" y="-765.5" font-family="Helvetica,sans-Serif" font-size="10.00">_generator::jurek::Generator</text>
<text text-anchor="middle" x="591" y="-754.5" font-family="Helvetica,sans-Serif" font-size="10.00">::toCavityType</text>
</a>
</g>
</g>
<!-- Node8&#45;&gt;Node10 -->
<g id="edge9" class="edge"><title>Node8&#45;&gt;Node10</title>
<path fill="none" stroke="midnightblue" d="M486.473,-786.057C494.823,-784.601 503.402,-783.104 511.879,-781.626"/>
<polygon fill="midnightblue" stroke="midnightblue" points="512.513,-785.068 521.762,-779.902 511.31,-778.172 512.513,-785.068"/>
</g>
<!-- Node11 -->
<g id="node11" class="node"><title>Node11</title>
<g id="a_node11"><a xlink:href="classatwork__commander_1_1task__generator_1_1jurek_1_1Generator.html#ad72dba3d08229cbca8521ae1c9153f0b" target="_top" xlink:title="atwork_commander::task\l_generator::jurek::Generator\l::toColoredObjectType">
<polygon fill="none" stroke="black" points="522,-687.5 522,-728.5 660,-728.5 660,-687.5 522,-687.5"/>
<text text-anchor="start" x="530" y="-716.5" font-family="Helvetica,sans-Serif" font-size="10.00">atwork_commander::task</text>
<text text-anchor="start" x="530" y="-705.5" font-family="Helvetica,sans-Serif" font-size="10.00">_generator::jurek::Generator</text>
<text text-anchor="middle" x="591" y="-694.5" font-family="Helvetica,sans-Serif" font-size="10.00">::toColoredObjectType</text>
</a>
</g>
</g>
<!-- Node8&#45;&gt;Node11 -->
<g id="edge10" class="edge"><title>Node8&#45;&gt;Node11</title>
<path fill="none" stroke="midnightblue" d="M451.684,-777.332C471.798,-765.304 498.018,-750.163 522,-738 525.461,-736.244 529.048,-734.487 532.683,-732.753"/>
<polygon fill="midnightblue" stroke="midnightblue" points="534.196,-735.909 541.773,-728.504 531.232,-729.568 534.196,-735.909"/>
</g>
<!-- Node8&#45;&gt;Node12 -->
<g id="edge11" class="edge"><title>Node8&#45;&gt;Node12</title>
<path fill="none" stroke="midnightblue" d="M451.684,-818.668C471.798,-830.696 498.018,-845.837 522,-858 525.461,-859.756 529.048,-861.513 532.683,-863.247"/>
<polygon fill="midnightblue" stroke="midnightblue" points="531.232,-866.432 541.773,-867.496 534.196,-860.091 531.232,-866.432"/>
</g>
<!-- Node20&#45;&gt;Node8 -->
<g id="edge20" class="edge"><title>Node20&#45;&gt;Node8</title>
<path fill="none" stroke="midnightblue" d="M301.697,-379.53C305.499,-382.311 309,-385.454 312,-389 408.067,-502.558 417.171,-693.225 416.825,-767.285"/>
<polygon fill="midnightblue" stroke="midnightblue" points="413.324,-767.305 416.714,-777.343 420.324,-767.382 413.324,-767.305"/>
</g>
<!-- Node24&#45;&gt;Node23 -->
<g id="edge26" class="edge"><title>Node24&#45;&gt;Node23</title>
<path fill="none" stroke="midnightblue" d="M312.473,-150.952C320.732,-152.153 329.216,-153.386 337.602,-154.605"/>
<polygon fill="midnightblue" stroke="midnightblue" points="337.363,-158.107 347.762,-156.082 338.37,-151.18 337.363,-158.107"/>
</g>
</g>
</svg>
        <g id="navigator" transform="translate(0 0)" fill="#404254">
                <rect fill="#f2f5e9" fill-opacity="0.5" stroke="#606060" stroke-width=".5" x="0" y="0" width="60" height="60"/>
                <use id="zoomplus" xlink:href="#zoomPlus" x="17" y="9" onmousedown="handleZoom(evt,'in')"/>
                <use id="zoomminus" xlink:href="#zoomMin" x="42" y="9" onmousedown="handleZoom(evt,'out')"/>
                <use id="reset" xlink:href="#resetDef" x="30" y="36" onmousedown="handleReset()"/>
                <g id="arrowUp" xlink:href="#dirArrow" transform="translate(30 24)" onmousedown="handlePan(0,-1)">
                  <use xlink:href="#rim" fill="#404040">
                        <set attributeName="fill" to="#808080" begin="arrowUp.mouseover" end="arrowUp.mouseout"/>
                  </use>
                  <path fill="none" stroke="white" stroke-width="1.5" d="M0,-3.0v7 M-2.5,-0.5L0,-3.0L2.5,-0.5"/>
                </g>
                <g id="arrowRight" xlink:href="#dirArrow" transform="rotate(90) translate(36 -43)" onmousedown="handlePan(1,0)">
                  <use xlink:href="#rim" fill="#404040">
                        <set attributeName="fill" to="#808080" begin="arrowRight.mouseover" end="arrowRight.mouseout"/>
                  </use>
                  <path fill="none" stroke="white" stroke-width="1.5" d="M0,-3.0v7 M-2.5,-0.5L0,-3.0L2.5,-0.5"/>
                </g>
                <g id="arrowDown" xlink:href="#dirArrow" transform="rotate(180) translate(-30 -48)" onmousedown="handlePan(0,1)">
                  <use xlink:href="#rim" fill="#404040">
                        <set attributeName="fill" to="#808080" begin="arrowDown.mouseover" end="arrowDown.mouseout"/>
                  </use>
                  <path fill="none" stroke="white" stroke-width="1.5" d="M0,-3.0v7 M-2.5,-0.5L0,-3.0L2.5,-0.5"/>
                </g>
                <g id="arrowLeft" xlink:href="#dirArrow" transform="rotate(270) translate(-36 17)" onmousedown="handlePan(-1,0)">
                  <use xlink:href="#rim" fill="#404040">
                        <set attributeName="fill" to="#808080" begin="arrowLeft.mouseover" end="arrowLeft.mouseout"/>
                  </use>
                  <path fill="none" stroke="white" stroke-width="1.5" d="M0,-3.0v7 M-2.5,-0.5L0,-3.0L2.5,-0.5"/>
                </g>
        </g>
        <svg viewBox="0 0 15 15" width="100%" height="30px" preserveAspectRatio="xMaxYMin meet">
         <g id="arrow_out" transform="scale(0.3 0.3)">
          <a xlink:href="classatwork__commander_1_1task__generator_1_1jurek_1_1Generator_a20d254a95d96bb7cb48b740ab79676c3_cgraph_org.svg" target="_base">
           <rect id="button" ry="5" rx="5" y="6" x="6" height="38" width="38"
                fill="#f2f5e9" fill-opacity="0.5" stroke="#606060" stroke-width="1.0"/>
           <path id="arrow"
             d="M 11.500037,31.436501 C 11.940474,20.09759 22.043105,11.32322 32.158766,21.979434 L 37.068811,17.246167 C 37.068811,17.246167 37.088388,32 37.088388,32 L 22.160133,31.978069 C 22.160133,31.978069 26.997745,27.140456 26.997745,27.140456 C 18.528582,18.264221 13.291696,25.230495 11.500037,31.436501 z"
             style="fill:#404040;"/>
          </a>
         </g>
        </svg>
</svg>
