<?xml version="1.0" encoding="UTF-8" standalone="no"?>
<!DOCTYPE svg PUBLIC "-//W3C//DTD SVG 1.1//EN"
 "http://www.w3.org/Graphics/SVG/1.1/DTD/svg11.dtd">
<!-- Generated by graphviz version 2.38.0 (20140413.2041)
 -->
<!-- Title: atwork_commander::com_plugin::Base::sendRobotState Pages: 1 -->
<svg width="536pt" height="50pt"
 viewBox="0.00 0.00 536.00 50.00" xmlns="http://www.w3.org/2000/svg" xmlns:xlink="http://www.w3.org/1999/xlink">
<g id="graph0" class="graph" transform="scale(1 1) rotate(0) translate(4 46)">
<title>atwork_commander::com_plugin::Base::sendRobotState</title>
<!-- Node1 -->
<g id="node1" class="node"><title>Node1</title>
<polygon fill="#bfbfbf" stroke="black" points="0,-6 0,-36 152,-36 152,-6 0,-6"/>
<text text-anchor="start" x="8" y="-24" font-family="Helvetica,sans-Serif" font-size="10.00">atwork_commander::com</text>
<text text-anchor="middle" x="76" y="-13" font-family="Helvetica,sans-Serif" font-size="10.00">_plugin::Base::sendRobotState</text>
</g>
<!-- Node2 -->
<g id="node2" class="node"><title>Node2</title>
<g id="a_node2"><a xlink:href="classatwork__commander_1_1com__plugin_1_1ros_1_1TaskArenaCentric.html#a557f44d9b6eb23e10c4f8a7118f8e115" target="_top" xlink:title="atwork_commander::com\l_plugin::ros::TaskArenaCentric\l::receiveRobotStateClb">
<polygon fill="none" stroke="black" points="188,-0.5 188,-41.5 340,-41.5 340,-0.5 188,-0.5"/>
<text text-anchor="start" x="196" y="-29.5" font-family="Helvetica,sans-Serif" font-size="10.00">atwork_commander::com</text>
<text text-anchor="start" x="196" y="-18.5" font-family="Helvetica,sans-Serif" font-size="10.00">_plugin::ros::TaskArenaCentric</text>
<text text-anchor="middle" x="264" y="-7.5" font-family="Helvetica,sans-Serif" font-size="10.00">::receiveRobotStateClb</text>
</a>
</g>
</g>
<!-- Node1&#45;&gt;Node2 -->
<g id="edge1" class="edge"><title>Node1&#45;&gt;Node2</title>
<path fill="none" stroke="midnightblue" d="M162.147,-21C170.742,-21 179.426,-21 187.905,-21"/>
<polygon fill="midnightblue" stroke="midnightblue" points="162.117,-17.5001 152.117,-21 162.117,-24.5001 162.117,-17.5001"/>
</g>
<!-- Node3 -->
<g id="node3" class="node"><title>Node3</title>
<g id="a_node3"><a xlink:href="classatwork__commander_1_1com__plugin_1_1ros_1_1TaskArenaCentric.html#ade373c0cd97e78a34a7b4b797313c3bb" target="_top" xlink:title="atwork_commander::com\l_plugin::ros::TaskArenaCentric\l::onInit">
<polygon fill="none" stroke="black" points="376,-0.5 376,-41.5 528,-41.5 528,-0.5 376,-0.5"/>
<text text-anchor="start" x="384" y="-29.5" font-family="Helvetica,sans-Serif" font-size="10.00">atwork_commander::com</text>
<text text-anchor="start" x="384" y="-18.5" font-family="Helvetica,sans-Serif" font-size="10.00">_plugin::ros::TaskArenaCentric</text>
<text text-anchor="middle" x="452" y="-7.5" font-family="Helvetica,sans-Serif" font-size="10.00">::onInit</text>
</a>
</g>
</g>
<!-- Node2&#45;&gt;Node3 -->
<g id="edge2" class="edge"><title>Node2&#45;&gt;Node3</title>
<path fill="none" stroke="midnightblue" d="M350.147,-21C358.742,-21 367.426,-21 375.905,-21"/>
<polygon fill="midnightblue" stroke="midnightblue" points="350.117,-17.5001 340.117,-21 350.117,-24.5001 350.117,-17.5001"/>
</g>
</g>
</svg>
