<?xml version="1.0" encoding="UTF-8" standalone="no"?>
<!DOCTYPE svg PUBLIC "-//W3C//DTD SVG 1.1//EN"
 "http://www.w3.org/Graphics/SVG/1.1/DTD/svg11.dtd">
<!-- Generated by graphviz version 2.38.0 (20140413.2041)
 -->
<!-- Title: atwork_commander::Control::generate Pages: 1 -->
<svg width="743pt" height="85pt"
 viewBox="0.00 0.00 743.00 85.00" xmlns="http://www.w3.org/2000/svg" xmlns:xlink="http://www.w3.org/1999/xlink">
<g id="graph0" class="graph" transform="scale(1 1) rotate(0) translate(4 81)">
<title>atwork_commander::Control::generate</title>
<!-- Node1 -->
<g id="node1" class="node"><title>Node1</title>
<polygon fill="#bfbfbf" stroke="black" points="0,-14 0,-44 140,-44 140,-14 0,-14"/>
<text text-anchor="start" x="8" y="-32" font-family="Helvetica,sans-Serif" font-size="10.00">atwork_commander::Control</text>
<text text-anchor="middle" x="70" y="-21" font-family="Helvetica,sans-Serif" font-size="10.00">::generate</text>
</g>
<!-- Node2 -->
<g id="node2" class="node"><title>Node2</title>
<g id="a_node2"><a xlink:href="control__node_8cpp.html#ae7f1525a6480d4cc745dc300c883f55e" target="_top" xlink:title="generate">
<polygon fill="none" stroke="black" points="176,-38.5 176,-57.5 230,-57.5 230,-38.5 176,-38.5"/>
<text text-anchor="middle" x="203" y="-45.5" font-family="Helvetica,sans-Serif" font-size="10.00">generate</text>
</a>
</g>
</g>
<!-- Node1&#45;&gt;Node2 -->
<g id="edge1" class="edge"><title>Node1&#45;&gt;Node2</title>
<path fill="none" stroke="midnightblue" d="M150.335,-40.5066C159.446,-41.8281 168.184,-43.0954 175.798,-44.1997"/>
<polygon fill="midnightblue" stroke="midnightblue" points="150.735,-37.028 140.336,-39.0564 149.73,-43.9556 150.735,-37.028"/>
</g>
<!-- Node8 -->
<g id="node8" class="node"><title>Node8</title>
<g id="a_node8"><a xlink:href="basic__setup_8cpp.html#a3c04138a5bfe5d72780bb7e82a18e627" target="_top" xlink:title="main">
<polygon fill="none" stroke="black" points="184,-0.5 184,-19.5 222,-19.5 222,-0.5 184,-0.5"/>
<text text-anchor="middle" x="203" y="-7.5" font-family="Helvetica,sans-Serif" font-size="10.00">main</text>
</a>
</g>
</g>
<!-- Node1&#45;&gt;Node8 -->
<g id="edge7" class="edge"><title>Node1&#45;&gt;Node8</title>
<path fill="none" stroke="midnightblue" d="M150.433,-17.4791C162.882,-15.6737 174.626,-13.9703 183.753,-12.6466"/>
<polygon fill="midnightblue" stroke="midnightblue" points="149.73,-14.0444 140.336,-18.9436 150.735,-20.972 149.73,-14.0444"/>
</g>
<!-- Node3 -->
<g id="node3" class="node"><title>Node3</title>
<g id="a_node3"><a xlink:href="structRefboxMockBase.html#a853adab4d4ebd43316656b9228d85b6d" target="_top" xlink:title="RefboxMockBase::generateCall">
<polygon fill="none" stroke="black" points="266,-57.5 266,-76.5 421,-76.5 421,-57.5 266,-57.5"/>
<text text-anchor="middle" x="343.5" y="-64.5" font-family="Helvetica,sans-Serif" font-size="10.00">RefboxMockBase::generateCall</text>
</a>
</g>
</g>
<!-- Node2&#45;&gt;Node3 -->
<g id="edge2" class="edge"><title>Node2&#45;&gt;Node3</title>
<path fill="none" stroke="midnightblue" d="M240.118,-52.9548C250.259,-54.346 261.64,-55.9074 273.03,-57.4698"/>
<polygon fill="midnightblue" stroke="midnightblue" points="240.434,-49.4654 230.051,-51.5738 239.482,-56.4005 240.434,-49.4654"/>
</g>
<!-- Node6 -->
<g id="node6" class="node"><title>Node6</title>
<g id="a_node6"><a xlink:href="control__node_8cpp.html#a98733d6ad140ddb4f5a57388e89684ea" target="_top" xlink:title="stateUpdate">
<polygon fill="none" stroke="black" points="308.5,-19.5 308.5,-38.5 378.5,-38.5 378.5,-19.5 308.5,-19.5"/>
<text text-anchor="middle" x="343.5" y="-26.5" font-family="Helvetica,sans-Serif" font-size="10.00">stateUpdate</text>
</a>
</g>
</g>
<!-- Node2&#45;&gt;Node6 -->
<g id="edge5" class="edge"><title>Node2&#45;&gt;Node6</title>
<path fill="none" stroke="midnightblue" d="M240.229,-43.0299C261.318,-40.1369 287.741,-36.5121 308.446,-33.6717"/>
<polygon fill="midnightblue" stroke="midnightblue" points="239.482,-39.5995 230.051,-44.4262 240.434,-46.5346 239.482,-39.5995"/>
</g>
<!-- Node4 -->
<g id="node4" class="node"><title>Node4</title>
<g id="a_node4"><a xlink:href="structRefboxMockBase.html#a4b3ccf44781edf61e4f6382899fdbf26" target="_top" xlink:title="RefboxMockBase::connect">
<polygon fill="none" stroke="black" points="457,-57.5 457,-76.5 592,-76.5 592,-57.5 457,-57.5"/>
<text text-anchor="middle" x="524.5" y="-64.5" font-family="Helvetica,sans-Serif" font-size="10.00">RefboxMockBase::connect</text>
</a>
</g>
</g>
<!-- Node3&#45;&gt;Node4 -->
<g id="edge3" class="edge"><title>Node3&#45;&gt;Node4</title>
<path fill="none" stroke="midnightblue" d="M431.253,-67C439.853,-67 448.487,-67 456.838,-67"/>
<polygon fill="midnightblue" stroke="midnightblue" points="431.191,-63.5001 421.191,-67 431.191,-70.5001 431.191,-63.5001"/>
</g>
<!-- Node5 -->
<g id="node5" class="node"><title>Node5</title>
<g id="a_node5"><a xlink:href="structControlTests.html#a2bc96f00c7bf8ee99a12bf53094c63fd" target="_top" xlink:title="ControlTests::SetUp">
<polygon fill="none" stroke="black" points="628,-57.5 628,-76.5 735,-76.5 735,-57.5 628,-57.5"/>
<text text-anchor="middle" x="681.5" y="-64.5" font-family="Helvetica,sans-Serif" font-size="10.00">ControlTests::SetUp</text>
</a>
</g>
</g>
<!-- Node4&#45;&gt;Node5 -->
<g id="edge4" class="edge"><title>Node4&#45;&gt;Node5</title>
<path fill="none" stroke="midnightblue" d="M602.299,-67C610.985,-67 619.683,-67 627.957,-67"/>
<polygon fill="midnightblue" stroke="midnightblue" points="602.134,-63.5001 592.133,-67 602.133,-70.5001 602.134,-63.5001"/>
</g>
<!-- Node7 -->
<g id="node7" class="node"><title>Node7</title>
<g id="a_node7"><a xlink:href="control__node_8cpp.html#a3c04138a5bfe5d72780bb7e82a18e627" target="_top" xlink:title="main">
<polygon fill="none" stroke="black" points="505.5,-19.5 505.5,-38.5 543.5,-38.5 543.5,-19.5 505.5,-19.5"/>
<text text-anchor="middle" x="524.5" y="-26.5" font-family="Helvetica,sans-Serif" font-size="10.00">main</text>
</a>
</g>
</g>
<!-- Node6&#45;&gt;Node7 -->
<g id="edge6" class="edge"><title>Node6&#45;&gt;Node7</title>
<path fill="none" stroke="midnightblue" d="M388.766,-29C426.314,-29 478.272,-29 505.385,-29"/>
<polygon fill="midnightblue" stroke="midnightblue" points="388.59,-25.5001 378.59,-29 388.59,-32.5001 388.59,-25.5001"/>
</g>
</g>
</svg>
