<?xml version="1.0" encoding="UTF-8" standalone="no"?>
<!DOCTYPE svg PUBLIC "-//W3C//DTD SVG 1.1//EN"
 "http://www.w3.org/Graphics/SVG/1.1/DTD/svg11.dtd">
<!-- Generated by graphviz version 2.38.0 (20140413.2041)
 -->
<!-- Title: atwork_commander::task_generator::jurek::Generator::onInit Pages: 1 -->
<svg width="339pt" height="278pt"
 viewBox="0.00 0.00 339.00 278.00" xmlns="http://www.w3.org/2000/svg" xmlns:xlink="http://www.w3.org/1999/xlink">
<g id="graph0" class="graph" transform="scale(1 1) rotate(0) translate(4 274)">
<title>atwork_commander::task_generator::jurek::Generator::onInit</title>
<!-- Node1 -->
<g id="node1" class="node"><title>Node1</title>
<polygon fill="#bfbfbf" stroke="black" points="0,-108.5 0,-149.5 138,-149.5 138,-108.5 0,-108.5"/>
<text text-anchor="start" x="8" y="-137.5" font-family="Helvetica,sans-Serif" font-size="10.00">atwork_commander::task</text>
<text text-anchor="start" x="8" y="-126.5" font-family="Helvetica,sans-Serif" font-size="10.00">_generator::jurek::Generator</text>
<text text-anchor="middle" x="69" y="-115.5" font-family="Helvetica,sans-Serif" font-size="10.00">::onInit</text>
</g>
<!-- Node2 -->
<g id="node2" class="node"><title>Node2</title>
<g id="a_node2"><a xlink:href="classatwork__commander_1_1task__generator_1_1DefaultConfigParser.html#a71ede20472bea4b2008ac5ff269bd803" target="_top" xlink:title="atwork_commander::task\l_generator::DefaultConfigParser\l::arena">
<polygon fill="none" stroke="black" points="174,-228.5 174,-269.5 331,-269.5 331,-228.5 174,-228.5"/>
<text text-anchor="start" x="182" y="-257.5" font-family="Helvetica,sans-Serif" font-size="10.00">atwork_commander::task</text>
<text text-anchor="start" x="182" y="-246.5" font-family="Helvetica,sans-Serif" font-size="10.00">_generator::DefaultConfigParser</text>
<text text-anchor="middle" x="252.5" y="-235.5" font-family="Helvetica,sans-Serif" font-size="10.00">::arena</text>
</a>
</g>
</g>
<!-- Node1&#45;&gt;Node2 -->
<g id="edge1" class="edge"><title>Node1&#45;&gt;Node2</title>
<path fill="none" stroke="midnightblue" d="M89.4647,-149.546C109.224,-169.457 141.463,-199.437 174,-219 176.844,-220.71 179.802,-222.355 182.832,-223.932"/>
<polygon fill="midnightblue" stroke="midnightblue" points="181.569,-227.211 192.09,-228.462 184.645,-220.923 181.569,-227.211"/>
</g>
<!-- Node3 -->
<g id="node3" class="node"><title>Node3</title>
<g id="a_node3"><a xlink:href="classatwork__commander_1_1task__generator_1_1jurek_1_1Generator.html#a28ede1164fe37346ccd08d3eb8263739" target="_top" xlink:title="atwork_commander::task\l_generator::jurek::Generator\l::extractCavities">
<polygon fill="none" stroke="black" points="183.5,-168.5 183.5,-209.5 321.5,-209.5 321.5,-168.5 183.5,-168.5"/>
<text text-anchor="start" x="191.5" y="-197.5" font-family="Helvetica,sans-Serif" font-size="10.00">atwork_commander::task</text>
<text text-anchor="start" x="191.5" y="-186.5" font-family="Helvetica,sans-Serif" font-size="10.00">_generator::jurek::Generator</text>
<text text-anchor="middle" x="252.5" y="-175.5" font-family="Helvetica,sans-Serif" font-size="10.00">::extractCavities</text>
</a>
</g>
</g>
<!-- Node1&#45;&gt;Node3 -->
<g id="edge2" class="edge"><title>Node1&#45;&gt;Node3</title>
<path fill="none" stroke="midnightblue" d="M132.208,-149.565C147.505,-154.621 164.006,-160.076 179.713,-165.269"/>
<polygon fill="midnightblue" stroke="midnightblue" points="178.78,-168.647 189.373,-168.462 180.977,-162 178.78,-168.647"/>
</g>
<!-- Node4 -->
<g id="node4" class="node"><title>Node4</title>
<g id="a_node4"><a xlink:href="classatwork__commander_1_1task__generator_1_1jurek_1_1Generator.html#ac061c8239af92034feac985821de9be9" target="_top" xlink:title="atwork_commander::task\l_generator::jurek::Generator\l::extractObjectTypes">
<polygon fill="none" stroke="black" points="183.5,-108.5 183.5,-149.5 321.5,-149.5 321.5,-108.5 183.5,-108.5"/>
<text text-anchor="start" x="191.5" y="-137.5" font-family="Helvetica,sans-Serif" font-size="10.00">atwork_commander::task</text>
<text text-anchor="start" x="191.5" y="-126.5" font-family="Helvetica,sans-Serif" font-size="10.00">_generator::jurek::Generator</text>
<text text-anchor="middle" x="252.5" y="-115.5" font-family="Helvetica,sans-Serif" font-size="10.00">::extractObjectTypes</text>
</a>
</g>
</g>
<!-- Node1&#45;&gt;Node4 -->
<g id="edge3" class="edge"><title>Node1&#45;&gt;Node4</title>
<path fill="none" stroke="midnightblue" d="M138.1,-129C149.537,-129 161.486,-129 173.156,-129"/>
<polygon fill="midnightblue" stroke="midnightblue" points="173.32,-132.5 183.32,-129 173.32,-125.5 173.32,-132.5"/>
</g>
<!-- Node5 -->
<g id="node5" class="node"><title>Node5</title>
<g id="a_node5"><a xlink:href="classatwork__commander_1_1ConfigParserInterface.html#a4e87712c6a4bb07aba934e5600619565" target="_top" xlink:title="atwork_commander::Config\lParserInterface::reload">
<polygon fill="none" stroke="black" points="184,-60 184,-90 321,-90 321,-60 184,-60"/>
<text text-anchor="start" x="192" y="-78" font-family="Helvetica,sans-Serif" font-size="10.00">atwork_commander::Config</text>
<text text-anchor="middle" x="252.5" y="-67" font-family="Helvetica,sans-Serif" font-size="10.00">ParserInterface::reload</text>
</a>
</g>
</g>
<!-- Node1&#45;&gt;Node5 -->
<g id="edge4" class="edge"><title>Node1&#45;&gt;Node5</title>
<path fill="none" stroke="midnightblue" d="M138.1,-108.739C155.506,-103.56 174.099,-98.0283 191.089,-92.9734"/>
<polygon fill="midnightblue" stroke="midnightblue" points="192.3,-96.265 200.887,-90.0586 190.304,-89.5556 192.3,-96.265"/>
</g>
<!-- Node6 -->
<g id="node6" class="node"><title>Node6</title>
<g id="a_node6"><a xlink:href="classatwork__commander_1_1task__generator_1_1jurek_1_1Generator.html#adb189ab93716d6035972a17cdd7d94fb" target="_top" xlink:title="atwork_commander::task\l_generator::jurek::Generator\l::sanityCheck">
<polygon fill="none" stroke="black" points="183.5,-0.5 183.5,-41.5 321.5,-41.5 321.5,-0.5 183.5,-0.5"/>
<text text-anchor="start" x="191.5" y="-29.5" font-family="Helvetica,sans-Serif" font-size="10.00">atwork_commander::task</text>
<text text-anchor="start" x="191.5" y="-18.5" font-family="Helvetica,sans-Serif" font-size="10.00">_generator::jurek::Generator</text>
<text text-anchor="middle" x="252.5" y="-7.5" font-family="Helvetica,sans-Serif" font-size="10.00">::sanityCheck</text>
</a>
</g>
</g>
<!-- Node1&#45;&gt;Node6 -->
<g id="edge5" class="edge"><title>Node1&#45;&gt;Node6</title>
<path fill="none" stroke="midnightblue" d="M93.4986,-108.402C113.778,-91.3777 144.395,-67.4209 174,-51 177.217,-49.2155 180.563,-47.4888 183.979,-45.8262"/>
<polygon fill="midnightblue" stroke="midnightblue" points="185.544,-48.9584 193.146,-41.5788 182.601,-42.6069 185.544,-48.9584"/>
</g>
</g>
</svg>
