<?xml version="1.0" encoding="UTF-8" standalone="no"?>
<!DOCTYPE svg PUBLIC "-//W3C//DTD SVG 1.1//EN"
 "http://www.w3.org/Graphics/SVG/1.1/DTD/svg11.dtd">
<!-- Generated by graphviz version 2.38.0 (20140413.2041)
 -->
<!-- Title: atwork_commander::VisGroup::getWidget Pages: 1 -->
<svg width="512pt" height="39pt"
 viewBox="0.00 0.00 512.00 39.00" xmlns="http://www.w3.org/2000/svg" xmlns:xlink="http://www.w3.org/1999/xlink">
<g id="graph0" class="graph" transform="scale(1 1) rotate(0) translate(4 35)">
<title>atwork_commander::VisGroup::getWidget</title>
<!-- Node1 -->
<g id="node1" class="node"><title>Node1</title>
<polygon fill="#bfbfbf" stroke="black" points="0,-0.5 0,-30.5 149,-30.5 149,-0.5 0,-0.5"/>
<text text-anchor="start" x="8" y="-18.5" font-family="Helvetica,sans-Serif" font-size="10.00">atwork_commander::VisGroup</text>
<text text-anchor="middle" x="74.5" y="-7.5" font-family="Helvetica,sans-Serif" font-size="10.00">::getWidget</text>
</g>
<!-- Node2 -->
<g id="node2" class="node"><title>Node2</title>
<g id="a_node2"><a xlink:href="classatwork__commander_1_1MainVisGroup.html#af1c7fd751989c17ebfff0d726eebcee4" target="_top" xlink:title="Hand a VisGroup&#45;SubClass&#45;Instance over to the MainVisGroup. ">
<polygon fill="none" stroke="black" points="185,-0.5 185,-30.5 328,-30.5 328,-0.5 185,-0.5"/>
<text text-anchor="start" x="193" y="-18.5" font-family="Helvetica,sans-Serif" font-size="10.00">atwork_commander::MainVis</text>
<text text-anchor="middle" x="256.5" y="-7.5" font-family="Helvetica,sans-Serif" font-size="10.00">Group::registerSubclass</text>
</a>
</g>
</g>
<!-- Node1&#45;&gt;Node2 -->
<g id="edge1" class="edge"><title>Node1&#45;&gt;Node2</title>
<path fill="none" stroke="midnightblue" d="M159.495,-15.5C167.955,-15.5 176.485,-15.5 184.786,-15.5"/>
<polygon fill="midnightblue" stroke="midnightblue" points="159.232,-12.0001 149.232,-15.5 159.232,-19.0001 159.232,-12.0001"/>
</g>
<!-- Node3 -->
<g id="node3" class="node"><title>Node3</title>
<g id="a_node3"><a xlink:href="classatwork__commander_1_1RefboxUI.html#a5f630563e6d29e93e68ac3cfcecc9f96" target="_top" xlink:title="atwork_commander::Refbox\lUI::RefboxUI">
<polygon fill="none" stroke="black" points="364,-0.5 364,-30.5 504,-30.5 504,-0.5 364,-0.5"/>
<text text-anchor="start" x="372" y="-18.5" font-family="Helvetica,sans-Serif" font-size="10.00">atwork_commander::Refbox</text>
<text text-anchor="middle" x="434" y="-7.5" font-family="Helvetica,sans-Serif" font-size="10.00">UI::RefboxUI</text>
</a>
</g>
</g>
<!-- Node2&#45;&gt;Node3 -->
<g id="edge2" class="edge"><title>Node2&#45;&gt;Node3</title>
<path fill="none" stroke="midnightblue" d="M338.171,-15.5C346.783,-15.5 355.487,-15.5 363.947,-15.5"/>
<polygon fill="midnightblue" stroke="midnightblue" points="338.124,-12.0001 328.124,-15.5 338.124,-19.0001 338.124,-12.0001"/>
</g>
</g>
</svg>
