<?xml version="1.0" encoding="UTF-8" standalone="no"?>
<!DOCTYPE svg PUBLIC "-//W3C//DTD SVG 1.1//EN"
 "http://www.w3.org/Graphics/SVG/1.1/DTD/svg11.dtd">
<!-- Generated by graphviz version 2.38.0 (20140413.2041)
 -->
<!-- Title: atwork_commander::task_generator::simple::Generator::generateObjects Pages: 1 -->
<svg width="754pt" height="127pt"
 viewBox="0.00 0.00 754.00 126.50" xmlns="http://www.w3.org/2000/svg" xmlns:xlink="http://www.w3.org/1999/xlink">
<g id="graph0" class="graph" transform="scale(1 1) rotate(0) translate(4 122.5)">
<title>atwork_commander::task_generator::simple::Generator::generateObjects</title>
<!-- Node1 -->
<g id="node1" class="node"><title>Node1</title>
<polygon fill="#bfbfbf" stroke="black" points="0,-44 0,-85 146,-85 146,-44 0,-44"/>
<text text-anchor="start" x="8" y="-73" font-family="Helvetica,sans-Serif" font-size="10.00">atwork_commander::task</text>
<text text-anchor="start" x="8" y="-62" font-family="Helvetica,sans-Serif" font-size="10.00">_generator::simple::Generator</text>
<text text-anchor="middle" x="73" y="-51" font-family="Helvetica,sans-Serif" font-size="10.00">::generateObjects</text>
</g>
<!-- Node2 -->
<g id="node2" class="node"><title>Node2</title>
<g id="a_node2"><a xlink:href="control__node_8cpp.html#a92904aa73140a9bcbc31b3f01cbc1b91" target="_top" xlink:title="start">
<polygon fill="none" stroke="black" points="182,-55 182,-74 218,-74 218,-55 182,-55"/>
<text text-anchor="middle" x="200" y="-62" font-family="Helvetica,sans-Serif" font-size="10.00">start</text>
</a>
</g>
</g>
<!-- Node1&#45;&gt;Node2 -->
<g id="edge1" class="edge"><title>Node1&#45;&gt;Node2</title>
<path fill="none" stroke="midnightblue" d="M146.351,-64.5C155.305,-64.5 163.982,-64.5 171.623,-64.5"/>
<polygon fill="midnightblue" stroke="midnightblue" points="171.654,-68.0001 181.654,-64.5 171.654,-61.0001 171.654,-68.0001"/>
</g>
<!-- Node3 -->
<g id="node3" class="node"><title>Node3</title>
<g id="a_node3"><a xlink:href="classatwork__commander_1_1Control.html#a03d7ab8dde7ac8c41b29a9480b013ed6" target="_top" xlink:title="Command to start the current Task of the RefBox. ">
<polygon fill="none" stroke="black" points="254,-49.5 254,-79.5 394,-79.5 394,-49.5 254,-49.5"/>
<text text-anchor="start" x="262" y="-67.5" font-family="Helvetica,sans-Serif" font-size="10.00">atwork_commander::Control</text>
<text text-anchor="middle" x="324" y="-56.5" font-family="Helvetica,sans-Serif" font-size="10.00">::start</text>
</a>
</g>
</g>
<!-- Node2&#45;&gt;Node3 -->
<g id="edge2" class="edge"><title>Node2&#45;&gt;Node3</title>
<path fill="none" stroke="midnightblue" d="M218.221,-64.5C225.387,-64.5 234.257,-64.5 243.779,-64.5"/>
<polygon fill="midnightblue" stroke="midnightblue" points="243.894,-68.0001 253.894,-64.5 243.893,-61.0001 243.894,-68.0001"/>
</g>
<!-- Node4 -->
<g id="node4" class="node"><title>Node4</title>
<g id="a_node4"><a xlink:href="classatwork__commander_1_1ControlImpl.html#a61e7adc72e3d1ae5f8ba7099e7ea1a58" target="_top" xlink:title="atwork_commander::Control\lImpl::start">
<polygon fill="none" stroke="black" points="430,-49.5 430,-79.5 570,-79.5 570,-49.5 430,-49.5"/>
<text text-anchor="start" x="438" y="-67.5" font-family="Helvetica,sans-Serif" font-size="10.00">atwork_commander::Control</text>
<text text-anchor="middle" x="500" y="-56.5" font-family="Helvetica,sans-Serif" font-size="10.00">Impl::start</text>
</a>
</g>
</g>
<!-- Node3&#45;&gt;Node4 -->
<g id="edge3" class="edge"><title>Node3&#45;&gt;Node4</title>
<path fill="none" stroke="midnightblue" d="M394.019,-64.5C402.476,-64.5 411.169,-64.5 419.761,-64.5"/>
<polygon fill="midnightblue" stroke="midnightblue" points="419.78,-68.0001 429.779,-64.5 419.779,-61.0001 419.78,-68.0001"/>
</g>
<!-- Node5 -->
<g id="node5" class="node"><title>Node5</title>
<g id="a_node5"><a xlink:href="namespaceatwork__commander.html#a144d24cd0805258cbfd6f8cb8795feca" target="_top" xlink:title="atwork_commander::call">
<polygon fill="none" stroke="black" points="614.5,-99 614.5,-118 737.5,-118 737.5,-99 614.5,-99"/>
<text text-anchor="middle" x="676" y="-106" font-family="Helvetica,sans-Serif" font-size="10.00">atwork_commander::call</text>
</a>
</g>
</g>
<!-- Node4&#45;&gt;Node5 -->
<g id="edge4" class="edge"><title>Node4&#45;&gt;Node5</title>
<path fill="none" stroke="midnightblue" d="M560.394,-79.5192C582.307,-85.0604 606.827,-91.2607 627.545,-96.4999"/>
<polygon fill="midnightblue" stroke="midnightblue" points="626.83,-99.9291 637.383,-98.9876 628.546,-93.1427 626.83,-99.9291"/>
</g>
<!-- Node6 -->
<g id="node6" class="node"><title>Node6</title>
<g id="a_node6"><a xlink:href="classatwork__commander_1_1ControlError.html#aa8e0a508d07409af6b9ccc3f2b04862c" target="_top" xlink:title="Constructor taking the error description. ">
<polygon fill="none" stroke="black" points="606,-49.5 606,-79.5 746,-79.5 746,-49.5 606,-49.5"/>
<text text-anchor="start" x="614" y="-67.5" font-family="Helvetica,sans-Serif" font-size="10.00">atwork_commander::Control</text>
<text text-anchor="middle" x="676" y="-56.5" font-family="Helvetica,sans-Serif" font-size="10.00">Error::ControlError</text>
</a>
</g>
</g>
<!-- Node4&#45;&gt;Node6 -->
<g id="edge5" class="edge"><title>Node4&#45;&gt;Node6</title>
<path fill="none" stroke="midnightblue" d="M570.019,-64.5C578.476,-64.5 587.169,-64.5 595.761,-64.5"/>
<polygon fill="midnightblue" stroke="midnightblue" points="595.78,-68.0001 605.779,-64.5 595.779,-61.0001 595.78,-68.0001"/>
</g>
<!-- Node7 -->
<g id="node7" class="node"><title>Node7</title>
<g id="a_node7"><a xlink:href="namespaceatwork__commander__msgs.html#a9ecf5e83b56ed832452324374f4ec311" target="_top" xlink:title="atwork_commander_msgs\l::stateName">
<polygon fill="none" stroke="black" points="610.5,-0.5 610.5,-30.5 741.5,-30.5 741.5,-0.5 610.5,-0.5"/>
<text text-anchor="start" x="618.5" y="-18.5" font-family="Helvetica,sans-Serif" font-size="10.00">atwork_commander_msgs</text>
<text text-anchor="middle" x="676" y="-7.5" font-family="Helvetica,sans-Serif" font-size="10.00">::stateName</text>
</a>
</g>
</g>
<!-- Node4&#45;&gt;Node7 -->
<g id="edge6" class="edge"><title>Node4&#45;&gt;Node7</title>
<path fill="none" stroke="midnightblue" d="M554.626,-49.3986C572.737,-44.2981 593.124,-38.5571 611.9,-33.2695"/>
<polygon fill="midnightblue" stroke="midnightblue" points="612.875,-36.6313 621.552,-30.5516 610.977,-29.8933 612.875,-36.6313"/>
</g>
</g>
</svg>
