<?xml version="1.0" encoding="UTF-8" standalone="no"?>
<!DOCTYPE svg PUBLIC "-//W3C//DTD SVG 1.1//EN"
 "http://www.w3.org/Graphics/SVG/1.1/DTD/svg11.dtd">
<!-- Generated by graphviz version 2.38.0 (20140413.2041)
 -->
<!-- Title: atwork_commander::StateTracker::StateTracker Pages: 1 -->
<!--zoomable 284 -->
<svg id="main" version="1.1" xmlns="http://www.w3.org/2000/svg" xmlns:xlink="http://www.w3.org/1999/xlink" xml:space="preserve" onload="init(evt)">
<style type="text/css"><![CDATA[
.edge:hover path { stroke: red; }
.edge:hover polygon { stroke: red; fill: red; }
]]></style>
<script type="text/javascript"><![CDATA[
var edges = document.getElementsByTagName('g');
if (edges && edges.length) {
  for (var i=0;i<edges.length;i++) {
    if (edges[i].id.substr(0,4)=='edge') {
      edges[i].setAttribute('class','edge');
    }
  }
}
]]></script>
        <defs>
                <circle id="rim" cx="0" cy="0" r="7"/>
                <circle id="rim2" cx="0" cy="0" r="3.5"/>
                <g id="zoomPlus">
                        <use xlink:href="#rim" fill="#404040">
                                <set attributeName="fill" to="#808080" begin="zoomplus.mouseover" end="zoomplus.mouseout"/>
                        </use>
                        <path d="M-4,0h8M0,-4v8" fill="none" stroke="white" stroke-width="1.5" pointer-events="none"/>
                </g>
                <g id="zoomMin">
                        <use xlink:href="#rim" fill="#404040">
                                <set attributeName="fill" to="#808080" begin="zoomminus.mouseover" end="zoomminus.mouseout"/>
                        </use>
                        <path d="M-4,0h8" fill="none" stroke="white" stroke-width="1.5" pointer-events="none"/>
                </g>
                <g id="dirArrow">
                        <path fill="none" stroke="white" stroke-width="1.5" d="M0,-3.0v7 M-2.5,-0.5L0,-3.0L2.5,-0.5"/>
                </g>
               <g id="resetDef">
                       <use xlink:href="#rim2" fill="#404040">
                               <set attributeName="fill" to="#808080" begin="reset.mouseover" end="reset.mouseout"/>
                       </use>
               </g>
        </defs>

<script type="text/javascript">
var viewWidth = 781;
var viewHeight = 284;
var sectionId = 'dynsection-1';
</script>
<script xlink:href="svgpan.js"/>
<svg id="graph" class="graph">
<g id="viewport">
<title>atwork_commander::StateTracker::StateTracker</title>
<!-- Node1 -->
<g id="node1" class="node"><title>Node1</title>
<polygon fill="#bfbfbf" stroke="black" points="0,-122.5 0,-152.5 164,-152.5 164,-122.5 0,-122.5"/>
<text text-anchor="start" x="8" y="-140.5" font-family="Helvetica,sans-Serif" font-size="10.00">atwork_commander::StateTracker</text>
<text text-anchor="middle" x="82" y="-129.5" font-family="Helvetica,sans-Serif" font-size="10.00">::StateTracker</text>
</g>
<!-- Node2 -->
<g id="node2" class="node"><title>Node2</title>
<g id="a_node2"><a xlink:href="classatwork__commander_1_1StateTracker.html#afcd4c5067b7726a76377fc5301a0453b" target="_top" xlink:title="atwork_commander::StateTracker\l::externalStateUpdate">
<polygon fill="none" stroke="black" points="200,-245.5 200,-275.5 364,-275.5 364,-245.5 200,-245.5"/>
<text text-anchor="start" x="208" y="-263.5" font-family="Helvetica,sans-Serif" font-size="10.00">atwork_commander::StateTracker</text>
<text text-anchor="middle" x="282" y="-252.5" font-family="Helvetica,sans-Serif" font-size="10.00">::externalStateUpdate</text>
</a>
</g>
</g>
<!-- Node1&#45;&gt;Node2 -->
<g id="edge1" class="edge"><title>Node1&#45;&gt;Node2</title>
<path fill="none" stroke="midnightblue" d="M97.0129,-152.839C117.587,-174.484 158.091,-213.868 200,-236.5 203.458,-238.368 207.08,-240.107 210.793,-241.725"/>
<polygon fill="midnightblue" stroke="midnightblue" points="209.586,-245.012 220.17,-245.499 212.2,-238.518 209.586,-245.012"/>
</g>
<!-- Node6 -->
<g id="node6" class="node"><title>Node6</title>
<g id="a_node6"><a xlink:href="classatwork__commander_1_1StateTracker.html#a7ebcaac71f40542c6c14a92f421667be" target="_top" xlink:title="atwork_commander::StateTracker\l::generateTask">
<polygon fill="none" stroke="black" points="200,-147.5 200,-177.5 364,-177.5 364,-147.5 200,-147.5"/>
<text text-anchor="start" x="208" y="-165.5" font-family="Helvetica,sans-Serif" font-size="10.00">atwork_commander::StateTracker</text>
<text text-anchor="middle" x="282" y="-154.5" font-family="Helvetica,sans-Serif" font-size="10.00">::generateTask</text>
</a>
</g>
</g>
<!-- Node1&#45;&gt;Node6 -->
<g id="edge6" class="edge"><title>Node1&#45;&gt;Node6</title>
<path fill="none" stroke="midnightblue" d="M164.105,-147.741C172.549,-148.807 181.172,-149.896 189.719,-150.975"/>
<polygon fill="midnightblue" stroke="midnightblue" points="189.341,-154.455 199.7,-152.235 190.217,-147.51 189.341,-154.455"/>
</g>
<!-- Node9 -->
<g id="node9" class="node"><title>Node9</title>
<g id="a_node9"><a xlink:href="classatwork__commander_1_1StateTracker.html#a2973d1f1892346cb3f1cd4679ab16e2d" target="_top" xlink:title="atwork_commander::StateTracker\l::loadTask">
<polygon fill="none" stroke="black" points="200,-98.5 200,-128.5 364,-128.5 364,-98.5 200,-98.5"/>
<text text-anchor="start" x="208" y="-116.5" font-family="Helvetica,sans-Serif" font-size="10.00">atwork_commander::StateTracker</text>
<text text-anchor="middle" x="282" y="-105.5" font-family="Helvetica,sans-Serif" font-size="10.00">::loadTask</text>
</a>
</g>
</g>
<!-- Node1&#45;&gt;Node9 -->
<g id="edge10" class="edge"><title>Node1&#45;&gt;Node9</title>
<path fill="none" stroke="midnightblue" d="M164.105,-127.669C172.549,-126.646 181.172,-125.6 189.719,-124.564"/>
<polygon fill="midnightblue" stroke="midnightblue" points="190.194,-128.032 199.7,-123.355 189.352,-121.083 190.194,-128.032"/>
</g>
<!-- Node10 -->
<g id="node10" class="node"><title>Node10</title>
<g id="a_node10"><a xlink:href="classatwork__commander_1_1StateTracker.html#adcf0d14717c99d14991da110630818f4" target="_top" xlink:title="atwork_commander::StateTracker\l::publishUpdate">
<polygon fill="none" stroke="black" points="200,-0.5 200,-30.5 364,-30.5 364,-0.5 200,-0.5"/>
<text text-anchor="start" x="208" y="-18.5" font-family="Helvetica,sans-Serif" font-size="10.00">atwork_commander::StateTracker</text>
<text text-anchor="middle" x="282" y="-7.5" font-family="Helvetica,sans-Serif" font-size="10.00">::publishUpdate</text>
</a>
</g>
</g>
<!-- Node1&#45;&gt;Node10 -->
<g id="edge14" class="edge"><title>Node1&#45;&gt;Node10</title>
<path fill="none" stroke="midnightblue" d="M97.0455,-122.324C117.659,-100.907 158.211,-61.9323 200,-39.5 203.463,-37.6411 207.088,-35.9084 210.804,-34.2959"/>
<polygon fill="midnightblue" stroke="midnightblue" points="212.209,-37.5035 220.187,-30.5316 209.603,-31.0069 212.209,-37.5035"/>
</g>
<!-- Node11 -->
<g id="node11" class="node"><title>Node11</title>
<g id="a_node11"><a xlink:href="classatwork__commander_1_1StateTracker.html#aece66cd098363aa9c95d5904ce04d3ed" target="_top" xlink:title="atwork_commander::StateTracker\l::receiveRobotStateClb">
<polygon fill="none" stroke="black" points="200,-196.5 200,-226.5 364,-226.5 364,-196.5 200,-196.5"/>
<text text-anchor="start" x="208" y="-214.5" font-family="Helvetica,sans-Serif" font-size="10.00">atwork_commander::StateTracker</text>
<text text-anchor="middle" x="282" y="-203.5" font-family="Helvetica,sans-Serif" font-size="10.00">::receiveRobotStateClb</text>
</a>
</g>
</g>
<!-- Node1&#45;&gt;Node11 -->
<g id="edge17" class="edge"><title>Node1&#45;&gt;Node11</title>
<path fill="none" stroke="midnightblue" d="M116.449,-152.529C139.664,-162.707 171.431,-176.137 200,-186.5 206.321,-188.793 212.965,-191.064 219.617,-193.247"/>
<polygon fill="midnightblue" stroke="midnightblue" points="218.739,-196.641 229.33,-196.376 220.885,-189.978 218.739,-196.641"/>
</g>
<!-- Node12 -->
<g id="node12" class="node"><title>Node12</title>
<g id="a_node12"><a xlink:href="classatwork__commander_1_1StateTracker.html#a79ed664ccbff9446abb3f711872634c7" target="_top" xlink:title="atwork_commander::StateTracker\l::startTask">
<polygon fill="none" stroke="black" points="200,-49.5 200,-79.5 364,-79.5 364,-49.5 200,-49.5"/>
<text text-anchor="start" x="208" y="-67.5" font-family="Helvetica,sans-Serif" font-size="10.00">atwork_commander::StateTracker</text>
<text text-anchor="middle" x="282" y="-56.5" font-family="Helvetica,sans-Serif" font-size="10.00">::startTask</text>
</a>
</g>
</g>
<!-- Node1&#45;&gt;Node12 -->
<g id="edge19" class="edge"><title>Node1&#45;&gt;Node12</title>
<path fill="none" stroke="midnightblue" d="M116.16,-122.479C139.381,-112.241 171.269,-98.7385 200,-88.5 205.576,-86.5129 211.407,-84.5559 217.274,-82.6688"/>
<polygon fill="midnightblue" stroke="midnightblue" points="218.653,-85.9041 227.143,-79.566 216.554,-79.2263 218.653,-85.9041"/>
</g>
<!-- Node3 -->
<g id="node3" class="node"><title>Node3</title>
<g id="a_node3"><a xlink:href="classatwork__commander_1_1StateTracker.html#a107ea4b9a37d39d2251f29451ae8db1d" target="_top" xlink:title="atwork_commander::StateTracker\l::stateUpdate">
<polygon fill="none" stroke="black" points="404.5,-194.5 404.5,-224.5 568.5,-224.5 568.5,-194.5 404.5,-194.5"/>
<text text-anchor="start" x="412.5" y="-212.5" font-family="Helvetica,sans-Serif" font-size="10.00">atwork_commander::StateTracker</text>
<text text-anchor="middle" x="486.5" y="-201.5" font-family="Helvetica,sans-Serif" font-size="10.00">::stateUpdate</text>
</a>
</g>
</g>
<!-- Node2&#45;&gt;Node3 -->
<g id="edge2" class="edge"><title>Node2&#45;&gt;Node3</title>
<path fill="none" stroke="midnightblue" d="M342.661,-245.474C365.732,-239.664 392.29,-232.975 416.2,-226.953"/>
<polygon fill="midnightblue" stroke="midnightblue" points="417.073,-230.343 425.915,-224.506 415.363,-223.555 417.073,-230.343"/>
</g>
<!-- Node4 -->
<g id="node4" class="node"><title>Node4</title>
<g id="a_node4"><a xlink:href="classatwork__commander_1_1StateTracker.html#a6297f7a9ac4f365b4b186eee4144b670" target="_top" xlink:title="atwork_commander::StateTracker\l::taskUpdate">
<polygon fill="none" stroke="black" points="609,-194.5 609,-224.5 773,-224.5 773,-194.5 609,-194.5"/>
<text text-anchor="start" x="617" y="-212.5" font-family="Helvetica,sans-Serif" font-size="10.00">atwork_commander::StateTracker</text>
<text text-anchor="middle" x="691" y="-201.5" font-family="Helvetica,sans-Serif" font-size="10.00">::taskUpdate</text>
</a>
</g>
</g>
<!-- Node3&#45;&gt;Node4 -->
<g id="edge3" class="edge"><title>Node3&#45;&gt;Node4</title>
<path fill="none" stroke="midnightblue" d="M568.698,-202.869C578.498,-202.751 588.558,-202.721 598.493,-202.778"/>
<polygon fill="midnightblue" stroke="midnightblue" points="598.753,-206.28 608.784,-202.869 598.815,-199.28 598.753,-206.28"/>
</g>
<!-- Node5 -->
<g id="node5" class="node"><title>Node5</title>
<g id="a_node5"><a xlink:href="classatwork__commander_1_1StateTracker.html#a46ad6fc41f39df97479dafe32811ff47" target="_top" xlink:title="atwork_commander::StateTracker\l::state2string">
<polygon fill="none" stroke="black" points="609,-73.5 609,-103.5 773,-103.5 773,-73.5 609,-73.5"/>
<text text-anchor="start" x="617" y="-91.5" font-family="Helvetica,sans-Serif" font-size="10.00">atwork_commander::StateTracker</text>
<text text-anchor="middle" x="691" y="-80.5" font-family="Helvetica,sans-Serif" font-size="10.00">::state2string</text>
</a>
</g>
</g>
<!-- Node3&#45;&gt;Node5 -->
<g id="edge5" class="edge"><title>Node3&#45;&gt;Node5</title>
<path fill="none" stroke="midnightblue" d="M549.85,-194.49C557.84,-191.641 565.752,-188.327 573,-184.5 609.996,-164.966 646.233,-132.593 668.343,-110.909"/>
<polygon fill="midnightblue" stroke="midnightblue" points="670.94,-113.262 675.552,-103.724 665.999,-108.304 670.94,-113.262"/>
</g>
<!-- Node4&#45;&gt;Node3 -->
<g id="edge4" class="edge"><title>Node4&#45;&gt;Node3</title>
<path fill="none" stroke="midnightblue" d="M608.784,-216.131C598.984,-216.249 588.923,-216.279 578.988,-216.222"/>
<polygon fill="midnightblue" stroke="midnightblue" points="578.728,-212.72 568.698,-216.131 578.666,-219.719 578.728,-212.72"/>
</g>
<!-- Node6&#45;&gt;Node3 -->
<g id="edge9" class="edge"><title>Node6&#45;&gt;Node3</title>
<path fill="none" stroke="midnightblue" d="M347.629,-177.5C367.814,-182.185 390.242,-187.391 411.045,-192.219"/>
<polygon fill="midnightblue" stroke="midnightblue" points="410.258,-195.629 420.79,-194.481 411.841,-188.811 410.258,-195.629"/>
</g>
<!-- Node7 -->
<g id="node7" class="node"><title>Node7</title>
<g id="a_node7"><a xlink:href="classatwork__commander_1_1StateTracker.html#a7f52f663ec4c9af9b8a812bebcdfd95c" target="_top" xlink:title="atwork_commander::StateTracker\l::inState">
<polygon fill="none" stroke="black" points="404.5,-96.5 404.5,-126.5 568.5,-126.5 568.5,-96.5 404.5,-96.5"/>
<text text-anchor="start" x="412.5" y="-114.5" font-family="Helvetica,sans-Serif" font-size="10.00">atwork_commander::StateTracker</text>
<text text-anchor="middle" x="486.5" y="-103.5" font-family="Helvetica,sans-Serif" font-size="10.00">::inState</text>
</a>
</g>
</g>
<!-- Node6&#45;&gt;Node7 -->
<g id="edge7" class="edge"><title>Node6&#45;&gt;Node7</title>
<path fill="none" stroke="midnightblue" d="M342.661,-147.474C365.732,-141.664 392.29,-134.975 416.2,-128.953"/>
<polygon fill="midnightblue" stroke="midnightblue" points="417.073,-132.343 425.915,-126.506 415.363,-125.555 417.073,-132.343"/>
</g>
<!-- Node8 -->
<g id="node8" class="node"><title>Node8</title>
<g id="a_node8"><a xlink:href="classatwork__commander_1_1TaskGenerator.html#a4ee8fd6c263901f11e3ac8f111cdb251" target="_top" xlink:title="Check task for basic soundness. ">
<polygon fill="none" stroke="black" points="400,-145.5 400,-175.5 573,-175.5 573,-145.5 400,-145.5"/>
<text text-anchor="start" x="408" y="-163.5" font-family="Helvetica,sans-Serif" font-size="10.00">atwork_commander::TaskGenerator</text>
<text text-anchor="middle" x="486.5" y="-152.5" font-family="Helvetica,sans-Serif" font-size="10.00">::check</text>
</a>
</g>
</g>
<!-- Node6&#45;&gt;Node8 -->
<g id="edge8" class="edge"><title>Node6&#45;&gt;Node8</title>
<path fill="none" stroke="midnightblue" d="M364.198,-161.698C372.66,-161.614 381.317,-161.529 389.919,-161.444"/>
<polygon fill="midnightblue" stroke="midnightblue" points="390.012,-164.943 399.977,-161.345 389.943,-157.944 390.012,-164.943"/>
</g>
<!-- Node9&#45;&gt;Node3 -->
<g id="edge13" class="edge"><title>Node9&#45;&gt;Node3</title>
<path fill="none" stroke="midnightblue" d="M347.949,-128.638C353.601,-131.159 359.046,-134.092 364,-137.5 385.678,-152.414 378.295,-169.625 400,-184.5 402.894,-186.484 405.947,-188.312 409.107,-189.997"/>
<polygon fill="midnightblue" stroke="midnightblue" points="407.726,-193.216 418.257,-194.376 410.748,-186.902 407.726,-193.216"/>
</g>
<!-- Node9&#45;&gt;Node7 -->
<g id="edge11" class="edge"><title>Node9&#45;&gt;Node7</title>
<path fill="none" stroke="midnightblue" d="M364.198,-112.698C373.998,-112.601 384.058,-112.502 393.993,-112.404"/>
<polygon fill="midnightblue" stroke="midnightblue" points="394.319,-115.901 404.284,-112.302 394.25,-108.901 394.319,-115.901"/>
</g>
<!-- Node9&#45;&gt;Node8 -->
<g id="edge12" class="edge"><title>Node9&#45;&gt;Node8</title>
<path fill="none" stroke="midnightblue" d="M347.629,-128.5C367.814,-133.185 390.242,-138.391 411.045,-143.219"/>
<polygon fill="midnightblue" stroke="midnightblue" points="410.258,-146.629 420.79,-145.481 411.841,-139.811 410.258,-146.629"/>
</g>
<!-- Node10&#45;&gt;Node5 -->
<g id="edge15" class="edge"><title>Node10&#45;&gt;Node5</title>
<path fill="none" stroke="midnightblue" d="M364.156,-14.4431C422.948,-15.4113 503.905,-20.3427 573,-37.5 601.038,-44.4621 630.863,-57.5605 653.383,-68.7392"/>
<polygon fill="midnightblue" stroke="midnightblue" points="652.059,-71.9917 662.561,-73.3891 655.222,-65.7474 652.059,-71.9917"/>
</g>
<!-- Node10&#45;&gt;Node7 -->
<g id="edge16" class="edge"><title>Node10&#45;&gt;Node7</title>
<path fill="none" stroke="midnightblue" d="M347.949,-30.6383C353.601,-33.1594 359.046,-36.0917 364,-39.5 385.678,-54.4137 378.295,-71.6252 400,-86.5 402.894,-88.4835 405.947,-90.3118 409.107,-91.9968"/>
<polygon fill="midnightblue" stroke="midnightblue" points="407.726,-95.2158 418.257,-96.376 410.748,-88.9018 407.726,-95.2158"/>
</g>
<!-- Node11&#45;&gt;Node3 -->
<g id="edge18" class="edge"><title>Node11&#45;&gt;Node3</title>
<path fill="none" stroke="midnightblue" d="M364.198,-210.698C373.998,-210.601 384.058,-210.502 393.993,-210.404"/>
<polygon fill="midnightblue" stroke="midnightblue" points="394.319,-213.901 404.284,-210.302 394.25,-206.901 394.319,-213.901"/>
</g>
<!-- Node12&#45;&gt;Node3 -->
<g id="edge21" class="edge"><title>Node12&#45;&gt;Node3</title>
<path fill="none" stroke="midnightblue" d="M351.862,-79.6735C356.243,-82.181 360.351,-85.1007 364,-88.5 397.34,-119.562 366.604,-153.498 400,-184.5 401.704,-186.082 403.502,-187.564 405.378,-188.952"/>
<polygon fill="midnightblue" stroke="midnightblue" points="403.732,-192.053 414.049,-194.463 407.486,-186.145 403.732,-192.053"/>
</g>
<!-- Node13 -->
<g id="node13" class="node"><title>Node13</title>
<g id="a_node13"><a xlink:href="classatwork__commander_1_1StateTracker.html#ac2305cec478f1cc04be17286b2242f77" target="_top" xlink:title="atwork_commander::StateTracker\l::notInState">
<polygon fill="none" stroke="black" points="404.5,-47.5 404.5,-77.5 568.5,-77.5 568.5,-47.5 404.5,-47.5"/>
<text text-anchor="start" x="412.5" y="-65.5" font-family="Helvetica,sans-Serif" font-size="10.00">atwork_commander::StateTracker</text>
<text text-anchor="middle" x="486.5" y="-54.5" font-family="Helvetica,sans-Serif" font-size="10.00">::notInState</text>
</a>
</g>
</g>
<!-- Node12&#45;&gt;Node13 -->
<g id="edge20" class="edge"><title>Node12&#45;&gt;Node13</title>
<path fill="none" stroke="midnightblue" d="M364.198,-63.698C373.998,-63.6013 384.058,-63.5019 393.993,-63.4038"/>
<polygon fill="midnightblue" stroke="midnightblue" points="394.319,-66.9008 404.284,-63.3021 394.25,-59.9012 394.319,-66.9008"/>
</g>
</g>
</svg>
        <g id="navigator" transform="translate(0 0)" fill="#404254">
                <rect fill="#f2f5e9" fill-opacity="0.5" stroke="#606060" stroke-width=".5" x="0" y="0" width="60" height="60"/>
                <use id="zoomplus" xlink:href="#zoomPlus" x="17" y="9" onmousedown="handleZoom(evt,'in')"/>
                <use id="zoomminus" xlink:href="#zoomMin" x="42" y="9" onmousedown="handleZoom(evt,'out')"/>
                <use id="reset" xlink:href="#resetDef" x="30" y="36" onmousedown="handleReset()"/>
                <g id="arrowUp" xlink:href="#dirArrow" transform="translate(30 24)" onmousedown="handlePan(0,-1)">
                  <use xlink:href="#rim" fill="#404040">
                        <set attributeName="fill" to="#808080" begin="arrowUp.mouseover" end="arrowUp.mouseout"/>
                  </use>
                  <path fill="none" stroke="white" stroke-width="1.5" d="M0,-3.0v7 M-2.5,-0.5L0,-3.0L2.5,-0.5"/>
                </g>
                <g id="arrowRight" xlink:href="#dirArrow" transform="rotate(90) translate(36 -43)" onmousedown="handlePan(1,0)">
                  <use xlink:href="#rim" fill="#404040">
                        <set attributeName="fill" to="#808080" begin="arrowRight.mouseover" end="arrowRight.mouseout"/>
                  </use>
                  <path fill="none" stroke="white" stroke-width="1.5" d="M0,-3.0v7 M-2.5,-0.5L0,-3.0L2.5,-0.5"/>
                </g>
                <g id="arrowDown" xlink:href="#dirArrow" transform="rotate(180) translate(-30 -48)" onmousedown="handlePan(0,1)">
                  <use xlink:href="#rim" fill="#404040">
                        <set attributeName="fill" to="#808080" begin="arrowDown.mouseover" end="arrowDown.mouseout"/>
                  </use>
                  <path fill="none" stroke="white" stroke-width="1.5" d="M0,-3.0v7 M-2.5,-0.5L0,-3.0L2.5,-0.5"/>
                </g>
                <g id="arrowLeft" xlink:href="#dirArrow" transform="rotate(270) translate(-36 17)" onmousedown="handlePan(-1,0)">
                  <use xlink:href="#rim" fill="#404040">
                        <set attributeName="fill" to="#808080" begin="arrowLeft.mouseover" end="arrowLeft.mouseout"/>
                  </use>
                  <path fill="none" stroke="white" stroke-width="1.5" d="M0,-3.0v7 M-2.5,-0.5L0,-3.0L2.5,-0.5"/>
                </g>
        </g>
        <svg viewBox="0 0 15 15" width="100%" height="30px" preserveAspectRatio="xMaxYMin meet">
         <g id="arrow_out" transform="scale(0.3 0.3)">
          <a xlink:href="classatwork__commander_1_1StateTracker_a37b9d873242eff25d4c09213626dd3ae_cgraph_org.svg" target="_base">
           <rect id="button" ry="5" rx="5" y="6" x="6" height="38" width="38"
                fill="#f2f5e9" fill-opacity="0.5" stroke="#606060" stroke-width="1.0"/>
           <path id="arrow"
             d="M 11.500037,31.436501 C 11.940474,20.09759 22.043105,11.32322 32.158766,21.979434 L 37.068811,17.246167 C 37.068811,17.246167 37.088388,32 37.088388,32 L 22.160133,31.978069 C 22.160133,31.978069 26.997745,27.140456 26.997745,27.140456 C 18.528582,18.264221 13.291696,25.230495 11.500037,31.436501 z"
             style="fill:#404040;"/>
          </a>
         </g>
        </svg>
</svg>
