<?xml version="1.0" encoding="UTF-8" standalone="no"?>
<!DOCTYPE svg PUBLIC "-//W3C//DTD SVG 1.1//EN"
 "http://www.w3.org/Graphics/SVG/1.1/DTD/svg11.dtd">
<!-- Generated by graphviz version 2.38.0 (20140413.2041)
 -->
<!-- Title: atwork_commander::ControlError Pages: 1 -->
<svg width="204pt" height="185pt"
 viewBox="0.00 0.00 204.00 185.00" xmlns="http://www.w3.org/2000/svg" xmlns:xlink="http://www.w3.org/1999/xlink">
<g id="graph0" class="graph" transform="scale(1 1) rotate(0) translate(4 181)">
<title>atwork_commander::ControlError</title>
<!-- Node1 -->
<g id="node1" class="node"><title>Node1</title>
<polygon fill="#bfbfbf" stroke="black" points="33.5,-0.5 33.5,-30.5 173.5,-30.5 173.5,-0.5 33.5,-0.5"/>
<text text-anchor="start" x="41.5" y="-18.5" font-family="Helvetica,sans-Serif" font-size="10.00">atwork_commander::Control</text>
<text text-anchor="middle" x="103.5" y="-7.5" font-family="Helvetica,sans-Serif" font-size="10.00">Error</text>
</g>
<!-- Node2 -->
<g id="node2" class="node"><title>Node2</title>
<g id="a_node2"><a xlink:title="STL class. ">
<polygon fill="none" stroke="#bfbfbf" points="0,-89.5 0,-108.5 93,-108.5 93,-89.5 0,-89.5"/>
<text text-anchor="middle" x="46.5" y="-96.5" font-family="Helvetica,sans-Serif" font-size="10.00">std::runtime_error</text>
</a>
</g>
</g>
<!-- Node2&#45;&gt;Node1 -->
<g id="edge1" class="edge"><title>Node2&#45;&gt;Node1</title>
<path fill="none" stroke="midnightblue" d="M58.427,-80.9464C68.87,-66.0148 83.8626,-44.5781 93.6405,-30.5974"/>
<polygon fill="midnightblue" stroke="midnightblue" points="55.4631,-79.0774 52.6,-89.2781 61.1994,-83.0893 55.4631,-79.0774"/>
</g>
<!-- Node3 -->
<g id="node3" class="node"><title>Node3</title>
<g id="a_node3"><a xlink:title="STL class. ">
<polygon fill="none" stroke="#bfbfbf" points="4.5,-152 4.5,-171 82.5,-171 82.5,-152 4.5,-152"/>
<text text-anchor="middle" x="43.5" y="-159" font-family="Helvetica,sans-Serif" font-size="10.00">std::exception</text>
</a>
</g>
</g>
<!-- Node3&#45;&gt;Node2 -->
<g id="edge2" class="edge"><title>Node3&#45;&gt;Node2</title>
<path fill="none" stroke="midnightblue" d="M44.442,-141.503C44.9876,-130.5 45.648,-117.182 46.071,-108.652"/>
<polygon fill="midnightblue" stroke="midnightblue" points="40.9295,-141.671 43.9298,-151.832 47.9209,-142.017 40.9295,-141.671"/>
</g>
<!-- Node4 -->
<g id="node4" class="node"><title>Node4</title>
<g id="a_node4"><a xlink:title="STL class. ">
<polygon fill="none" stroke="#bfbfbf" points="115.5,-89.5 115.5,-108.5 175.5,-108.5 175.5,-89.5 115.5,-89.5"/>
<text text-anchor="middle" x="145.5" y="-96.5" font-family="Helvetica,sans-Serif" font-size="10.00">std::string</text>
</a>
</g>
</g>
<!-- Node4&#45;&gt;Node1 -->
<g id="edge3" class="edge"><title>Node4&#45;&gt;Node1</title>
<path fill="none" stroke="#9a32cd" stroke-dasharray="5,2" d="M136.273,-80.0944C128.601,-65.2085 117.834,-44.3143 110.765,-30.5974"/>
<polygon fill="#9a32cd" stroke="#9a32cd" points="133.313,-81.9923 141.005,-89.2781 139.536,-78.7857 133.313,-81.9923"/>
<text text-anchor="middle" x="158.5" y="-63" font-family="Helvetica,sans-Serif" font-size="10.00"> mArgument</text>
<text text-anchor="middle" x="158.5" y="-52" font-family="Helvetica,sans-Serif" font-size="10.00">mCommand</text>
</g>
<!-- Node5 -->
<g id="node5" class="node"><title>Node5</title>
<g id="a_node5"><a xlink:title="STL class. ">
<polygon fill="none" stroke="#bfbfbf" points="101,-146.5 101,-176.5 196,-176.5 196,-146.5 101,-146.5"/>
<text text-anchor="start" x="109" y="-164.5" font-family="Helvetica,sans-Serif" font-size="10.00">std::basic_string&lt;</text>
<text text-anchor="middle" x="148.5" y="-153.5" font-family="Helvetica,sans-Serif" font-size="10.00"> char &gt;</text>
</a>
</g>
</g>
<!-- Node5&#45;&gt;Node4 -->
<g id="edge4" class="edge"><title>Node5&#45;&gt;Node4</title>
<path fill="none" stroke="midnightblue" d="M147.303,-136.352C146.815,-126.513 146.282,-115.775 145.923,-108.54"/>
<polygon fill="midnightblue" stroke="midnightblue" points="143.813,-136.654 147.804,-146.468 150.805,-136.307 143.813,-136.654"/>
</g>
</g>
</svg>
