<?xml version="1.0" encoding="UTF-8" standalone="no"?>
<!DOCTYPE svg PUBLIC "-//W3C//DTD SVG 1.1//EN"
 "http://www.w3.org/Graphics/SVG/1.1/DTD/svg11.dtd">
<!-- Generated by graphviz version 2.38.0 (20140413.2041)
 -->
<!-- Title: atwork_commander::ConfigParserInterface::reload Pages: 1 -->
<svg width="327pt" height="110pt"
 viewBox="0.00 0.00 327.00 110.00" xmlns="http://www.w3.org/2000/svg" xmlns:xlink="http://www.w3.org/1999/xlink">
<g id="graph0" class="graph" transform="scale(1 1) rotate(0) translate(4 106)">
<title>atwork_commander::ConfigParserInterface::reload</title>
<!-- Node1 -->
<g id="node1" class="node"><title>Node1</title>
<polygon fill="#bfbfbf" stroke="black" points="0,-36 0,-66 137,-66 137,-36 0,-36"/>
<text text-anchor="start" x="8" y="-54" font-family="Helvetica,sans-Serif" font-size="10.00">atwork_commander::Config</text>
<text text-anchor="middle" x="68.5" y="-43" font-family="Helvetica,sans-Serif" font-size="10.00">ParserInterface::reload</text>
</g>
<!-- Node2 -->
<g id="node2" class="node"><title>Node2</title>
<g id="a_node2"><a xlink:href="classatwork__commander_1_1task__generator_1_1simple_1_1Generator.html#ace096450beafeb58f9cf84326beb0d63" target="_top" xlink:title="atwork_commander::task\l_generator::simple::Generator\l::onInit">
<polygon fill="none" stroke="black" points="173,-60.5 173,-101.5 319,-101.5 319,-60.5 173,-60.5"/>
<text text-anchor="start" x="181" y="-89.5" font-family="Helvetica,sans-Serif" font-size="10.00">atwork_commander::task</text>
<text text-anchor="start" x="181" y="-78.5" font-family="Helvetica,sans-Serif" font-size="10.00">_generator::simple::Generator</text>
<text text-anchor="middle" x="246" y="-67.5" font-family="Helvetica,sans-Serif" font-size="10.00">::onInit</text>
</a>
</g>
</g>
<!-- Node1&#45;&gt;Node2 -->
<g id="edge1" class="edge"><title>Node1&#45;&gt;Node2</title>
<path fill="none" stroke="midnightblue" d="M147.06,-64.2581C155.611,-65.7198 164.292,-67.2038 172.774,-68.6537"/>
<polygon fill="midnightblue" stroke="midnightblue" points="147.549,-60.791 137.102,-62.5559 146.369,-67.6909 147.549,-60.791"/>
</g>
<!-- Node3 -->
<g id="node3" class="node"><title>Node3</title>
<g id="a_node3"><a xlink:href="classatwork__commander_1_1task__generator_1_1jurek_1_1Generator.html#a456e3e8bfe057e6d7ceb6c990c3e352a" target="_top" xlink:title="atwork_commander::task\l_generator::jurek::Generator\l::onInit">
<polygon fill="none" stroke="black" points="177,-0.5 177,-41.5 315,-41.5 315,-0.5 177,-0.5"/>
<text text-anchor="start" x="185" y="-29.5" font-family="Helvetica,sans-Serif" font-size="10.00">atwork_commander::task</text>
<text text-anchor="start" x="185" y="-18.5" font-family="Helvetica,sans-Serif" font-size="10.00">_generator::jurek::Generator</text>
<text text-anchor="middle" x="246" y="-7.5" font-family="Helvetica,sans-Serif" font-size="10.00">::onInit</text>
</a>
</g>
</g>
<!-- Node1&#45;&gt;Node3 -->
<g id="edge2" class="edge"><title>Node1&#45;&gt;Node3</title>
<path fill="none" stroke="midnightblue" d="M146.977,-37.7561C156.931,-36.0546 167.064,-34.3225 176.853,-32.649"/>
<polygon fill="midnightblue" stroke="midnightblue" points="146.369,-34.3091 137.102,-39.4441 147.549,-41.209 146.369,-34.3091"/>
</g>
</g>
</svg>
