<?xml version="1.0" encoding="UTF-8" standalone="no"?>
<!DOCTYPE svg PUBLIC "-//W3C//DTD SVG 1.1//EN"
 "http://www.w3.org/Graphics/SVG/1.1/DTD/svg11.dtd">
<!-- Generated by graphviz version 2.38.0 (20140413.2041)
 -->
<!-- Title: atwork_commander::task_generator::DefaultConfigParser::update Pages: 1 -->
<svg width="681pt" height="161pt"
 viewBox="0.00 0.00 681.00 161.00" xmlns="http://www.w3.org/2000/svg" xmlns:xlink="http://www.w3.org/1999/xlink">
<g id="graph0" class="graph" transform="scale(1 1) rotate(0) translate(4 157)">
<title>atwork_commander::task_generator::DefaultConfigParser::update</title>
<!-- Node1 -->
<g id="node1" class="node"><title>Node1</title>
<polygon fill="#bfbfbf" stroke="black" points="0,-68 0,-109 157,-109 157,-68 0,-68"/>
<text text-anchor="start" x="8" y="-97" font-family="Helvetica,sans-Serif" font-size="10.00">atwork_commander::task</text>
<text text-anchor="start" x="8" y="-86" font-family="Helvetica,sans-Serif" font-size="10.00">_generator::DefaultConfigParser</text>
<text text-anchor="middle" x="78.5" y="-75" font-family="Helvetica,sans-Serif" font-size="10.00">::update</text>
</g>
<!-- Node2 -->
<g id="node2" class="node"><title>Node2</title>
<g id="a_node2"><a xlink:href="namespaceatwork__commander_1_1task__generator.html#a2835774adb8545ded8e6f915ff3c8abb" target="_top" xlink:title="atwork_commander::task\l_generator::filterObjects">
<polygon fill="none" stroke="black" points="206.5,-122.5 206.5,-152.5 333.5,-152.5 333.5,-122.5 206.5,-122.5"/>
<text text-anchor="start" x="214.5" y="-140.5" font-family="Helvetica,sans-Serif" font-size="10.00">atwork_commander::task</text>
<text text-anchor="middle" x="270" y="-129.5" font-family="Helvetica,sans-Serif" font-size="10.00">_generator::filterObjects</text>
</a>
</g>
</g>
<!-- Node1&#45;&gt;Node2 -->
<g id="edge1" class="edge"><title>Node1&#45;&gt;Node2</title>
<path fill="none" stroke="midnightblue" d="M157.124,-108.572C171.74,-112.351 186.919,-116.276 201.206,-119.97"/>
<polygon fill="midnightblue" stroke="midnightblue" points="200.379,-123.371 210.937,-122.486 202.131,-116.594 200.379,-123.371"/>
</g>
<!-- Node3 -->
<g id="node3" class="node"><title>Node3</title>
<g id="a_node3"><a xlink:href="namespaceatwork__commander_1_1task__generator.html#a22e43f83b934de0f2c2145471712d45c" target="_top" xlink:title="atwork_commander::task\l_generator::readArenaDefinition">
<polygon fill="none" stroke="black" points="193,-73.5 193,-103.5 347,-103.5 347,-73.5 193,-73.5"/>
<text text-anchor="start" x="201" y="-91.5" font-family="Helvetica,sans-Serif" font-size="10.00">atwork_commander::task</text>
<text text-anchor="middle" x="270" y="-80.5" font-family="Helvetica,sans-Serif" font-size="10.00">_generator::readArenaDefinition</text>
</a>
</g>
</g>
<!-- Node1&#45;&gt;Node3 -->
<g id="edge2" class="edge"><title>Node1&#45;&gt;Node3</title>
<path fill="none" stroke="midnightblue" d="M157.124,-88.5C165.48,-88.5 174.021,-88.5 182.474,-88.5"/>
<polygon fill="midnightblue" stroke="midnightblue" points="182.722,-92.0001 192.722,-88.5 182.722,-85.0001 182.722,-92.0001"/>
</g>
<!-- Node4 -->
<g id="node4" class="node"><title>Node4</title>
<g id="a_node4"><a xlink:href="namespaceatwork__commander_1_1task__generator.html#a25e6bca21814abcc09ddefb3d4a806c5" target="_top" xlink:title="atwork_commander::task\l_generator::readTaskList">
<polygon fill="none" stroke="black" points="206.5,-24.5 206.5,-54.5 333.5,-54.5 333.5,-24.5 206.5,-24.5"/>
<text text-anchor="start" x="214.5" y="-42.5" font-family="Helvetica,sans-Serif" font-size="10.00">atwork_commander::task</text>
<text text-anchor="middle" x="270" y="-31.5" font-family="Helvetica,sans-Serif" font-size="10.00">_generator::readTaskList</text>
</a>
</g>
</g>
<!-- Node1&#45;&gt;Node4 -->
<g id="edge3" class="edge"><title>Node1&#45;&gt;Node4</title>
<path fill="none" stroke="midnightblue" d="M157.124,-68.4284C171.74,-64.649 186.919,-60.7241 201.206,-57.0298"/>
<polygon fill="midnightblue" stroke="midnightblue" points="202.131,-60.4058 210.937,-54.5137 200.379,-53.6287 202.131,-60.4058"/>
</g>
<!-- Node5 -->
<g id="node5" class="node"><title>Node5</title>
<g id="a_node5"><a xlink:href="namespaceatwork__commander_1_1task__generator.html#a30deb628d3b15a5ce90a74f7422c39cd" target="_top" xlink:title="atwork_commander::task\l_generator::readTask">
<polygon fill="none" stroke="black" points="383,-24.5 383,-54.5 510,-54.5 510,-24.5 383,-24.5"/>
<text text-anchor="start" x="391" y="-42.5" font-family="Helvetica,sans-Serif" font-size="10.00">atwork_commander::task</text>
<text text-anchor="middle" x="446.5" y="-31.5" font-family="Helvetica,sans-Serif" font-size="10.00">_generator::readTask</text>
</a>
</g>
</g>
<!-- Node4&#45;&gt;Node5 -->
<g id="edge4" class="edge"><title>Node4&#45;&gt;Node5</title>
<path fill="none" stroke="midnightblue" d="M333.506,-39.5C346.161,-39.5 359.573,-39.5 372.552,-39.5"/>
<polygon fill="midnightblue" stroke="midnightblue" points="372.844,-43.0001 382.844,-39.5 372.844,-36.0001 372.844,-43.0001"/>
</g>
<!-- Node6 -->
<g id="node6" class="node"><title>Node6</title>
<g id="a_node6"><a xlink:href="namespaceatwork__commander_1_1task__generator.html#aa4e366e1bb47698d7351c1b233272b63" target="_top" xlink:title="atwork_commander::task\l_generator::readStrings">
<polygon fill="none" stroke="black" points="546,-49.5 546,-79.5 673,-79.5 673,-49.5 546,-49.5"/>
<text text-anchor="start" x="554" y="-67.5" font-family="Helvetica,sans-Serif" font-size="10.00">atwork_commander::task</text>
<text text-anchor="middle" x="609.5" y="-56.5" font-family="Helvetica,sans-Serif" font-size="10.00">_generator::readStrings</text>
</a>
</g>
</g>
<!-- Node5&#45;&gt;Node6 -->
<g id="edge5" class="edge"><title>Node5&#45;&gt;Node6</title>
<path fill="none" stroke="midnightblue" d="M510.208,-49.2372C518.648,-50.5478 527.363,-51.9011 535.956,-53.2354"/>
<polygon fill="midnightblue" stroke="midnightblue" points="535.545,-56.7134 545.963,-54.7893 536.619,-49.7963 535.545,-56.7134"/>
</g>
<!-- Node7 -->
<g id="node7" class="node"><title>Node7</title>
<g id="a_node7"><a xlink:href="namespaceatwork__commander_1_1task__generator.html#a64e3d08d8d47388b9abd2a9cf45fb5f6" target="_top" xlink:title="atwork_commander::task\l_generator::readStruct">
<polygon fill="none" stroke="black" points="546,-0.5 546,-30.5 673,-30.5 673,-0.5 546,-0.5"/>
<text text-anchor="start" x="554" y="-18.5" font-family="Helvetica,sans-Serif" font-size="10.00">atwork_commander::task</text>
<text text-anchor="middle" x="609.5" y="-7.5" font-family="Helvetica,sans-Serif" font-size="10.00">_generator::readStruct</text>
</a>
</g>
</g>
<!-- Node5&#45;&gt;Node7 -->
<g id="edge6" class="edge"><title>Node5&#45;&gt;Node7</title>
<path fill="none" stroke="midnightblue" d="M510.208,-30.1523C518.648,-28.8941 527.363,-27.5949 535.956,-26.314"/>
<polygon fill="midnightblue" stroke="midnightblue" points="536.589,-29.7585 545.963,-24.8222 535.557,-22.835 536.589,-29.7585"/>
</g>
</g>
</svg>
