<?xml version="1.0" encoding="UTF-8" standalone="no"?>
<!DOCTYPE svg PUBLIC "-//W3C//DTD SVG 1.1//EN"
 "http://www.w3.org/Graphics/SVG/1.1/DTD/svg11.dtd">
<!-- Generated by graphviz version 2.38.0 (20140413.2041)
 -->
<!-- Title: atwork_commander::task_generator::jurek::Generator::toObjectType Pages: 1 -->
<svg width="842pt" height="206pt"
 viewBox="0.00 0.00 842.00 205.67" xmlns="http://www.w3.org/2000/svg" xmlns:xlink="http://www.w3.org/1999/xlink">
<g id="graph0" class="graph" transform="scale(1 1) rotate(0) translate(4 201.672)">
<title>atwork_commander::task_generator::jurek::Generator::toObjectType</title>
<!-- Node1 -->
<g id="node1" class="node"><title>Node1</title>
<polygon fill="#bfbfbf" stroke="black" points="0,-141.5 0,-182.5 138,-182.5 138,-141.5 0,-141.5"/>
<text text-anchor="start" x="8" y="-170.5" font-family="Helvetica,sans-Serif" font-size="10.00">atwork_commander::task</text>
<text text-anchor="start" x="8" y="-159.5" font-family="Helvetica,sans-Serif" font-size="10.00">_generator::jurek::Generator</text>
<text text-anchor="middle" x="69" y="-148.5" font-family="Helvetica,sans-Serif" font-size="10.00">::toObjectType</text>
</g>
<!-- Node2 -->
<g id="node2" class="node"><title>Node2</title>
<g id="a_node2"><a xlink:href="classatwork__commander_1_1task__generator_1_1jurek_1_1Generator.html#a20d254a95d96bb7cb48b740ab79676c3" target="_top" xlink:title="atwork_commander::task\l_generator::jurek::Generator\l::generateImpl">
<polygon fill="none" stroke="black" points="522,-60.5 522,-101.5 660,-101.5 660,-60.5 522,-60.5"/>
<text text-anchor="start" x="530" y="-89.5" font-family="Helvetica,sans-Serif" font-size="10.00">atwork_commander::task</text>
<text text-anchor="start" x="530" y="-78.5" font-family="Helvetica,sans-Serif" font-size="10.00">_generator::jurek::Generator</text>
<text text-anchor="middle" x="591" y="-67.5" font-family="Helvetica,sans-Serif" font-size="10.00">::generateImpl</text>
</a>
</g>
</g>
<!-- Node1&#45;&gt;Node2 -->
<g id="edge1" class="edge"><title>Node1&#45;&gt;Node2</title>
<path fill="none" stroke="midnightblue" d="M148.034,-180.389C233.833,-196.855 374.329,-212.61 486,-171 522.919,-157.244 555.45,-123.832 573.914,-101.817"/>
<polygon fill="midnightblue" stroke="midnightblue" points="148.593,-176.932 138.105,-178.433 147.24,-183.8 148.593,-176.932"/>
</g>
<!-- Node4 -->
<g id="node4" class="node"><title>Node4</title>
<g id="a_node4"><a xlink:href="classatwork__commander_1_1task__generator_1_1jurek_1_1Generator.html#ad315f8b6419a2eb9d41d046283031036" target="_top" xlink:title="atwork_commander::task\l_generator::jurek::Generator\l::toTaskObject">
<polygon fill="none" stroke="black" points="174,-87.5 174,-128.5 312,-128.5 312,-87.5 174,-87.5"/>
<text text-anchor="start" x="182" y="-116.5" font-family="Helvetica,sans-Serif" font-size="10.00">atwork_commander::task</text>
<text text-anchor="start" x="182" y="-105.5" font-family="Helvetica,sans-Serif" font-size="10.00">_generator::jurek::Generator</text>
<text text-anchor="middle" x="243" y="-94.5" font-family="Helvetica,sans-Serif" font-size="10.00">::toTaskObject</text>
</a>
</g>
</g>
<!-- Node1&#45;&gt;Node4 -->
<g id="edge3" class="edge"><title>Node1&#45;&gt;Node4</title>
<path fill="none" stroke="midnightblue" d="M145.094,-138.424C155.611,-135.122 166.349,-131.751 176.666,-128.512"/>
<polygon fill="midnightblue" stroke="midnightblue" points="144.009,-135.096 135.516,-141.431 146.106,-141.775 144.009,-135.096"/>
</g>
<!-- Node3 -->
<g id="node3" class="node"><title>Node3</title>
<g id="a_node3"><a xlink:href="classatwork__commander_1_1task__generator_1_1jurek_1_1Generator.html#a85a2c2f9b418a91faf01964ce75f0562" target="_top" xlink:title="atwork_commander::task\l_generator::jurek::Generator\l::generate">
<polygon fill="none" stroke="black" points="696,-60.5 696,-101.5 834,-101.5 834,-60.5 696,-60.5"/>
<text text-anchor="start" x="704" y="-89.5" font-family="Helvetica,sans-Serif" font-size="10.00">atwork_commander::task</text>
<text text-anchor="start" x="704" y="-78.5" font-family="Helvetica,sans-Serif" font-size="10.00">_generator::jurek::Generator</text>
<text text-anchor="middle" x="765" y="-67.5" font-family="Helvetica,sans-Serif" font-size="10.00">::generate</text>
</a>
</g>
</g>
<!-- Node2&#45;&gt;Node3 -->
<g id="edge2" class="edge"><title>Node2&#45;&gt;Node3</title>
<path fill="none" stroke="midnightblue" d="M670.637,-81C679.025,-81 687.508,-81 695.762,-81"/>
<polygon fill="midnightblue" stroke="midnightblue" points="670.473,-77.5001 660.473,-81 670.473,-84.5001 670.473,-77.5001"/>
</g>
<!-- Node5 -->
<g id="node5" class="node"><title>Node5</title>
<g id="a_node5"><a xlink:href="classatwork__commander_1_1task__generator_1_1jurek_1_1Generator.html#adfa0436b500de7d24bfb09d34c9b0074" target="_top" xlink:title="atwork_commander::task\l_generator::jurek::Generator\l::toTaskObject">
<polygon fill="none" stroke="black" points="348,-120.5 348,-161.5 486,-161.5 486,-120.5 348,-120.5"/>
<text text-anchor="start" x="356" y="-149.5" font-family="Helvetica,sans-Serif" font-size="10.00">atwork_commander::task</text>
<text text-anchor="start" x="356" y="-138.5" font-family="Helvetica,sans-Serif" font-size="10.00">_generator::jurek::Generator</text>
<text text-anchor="middle" x="417" y="-127.5" font-family="Helvetica,sans-Serif" font-size="10.00">::toTaskObject</text>
</a>
</g>
</g>
<!-- Node4&#45;&gt;Node5 -->
<g id="edge4" class="edge"><title>Node4&#45;&gt;Node5</title>
<path fill="none" stroke="midnightblue" d="M322.36,-123.034C330.839,-124.661 339.417,-126.307 347.762,-127.908"/>
<polygon fill="midnightblue" stroke="midnightblue" points="322.954,-119.584 312.473,-121.137 321.635,-126.459 322.954,-119.584"/>
</g>
<!-- Node6 -->
<g id="node6" class="node"><title>Node6</title>
<g id="a_node6"><a xlink:href="classatwork__commander_1_1task__generator_1_1jurek_1_1Generator.html#a598368025bb6d251d96bad44da2a7d94" target="_top" xlink:title="atwork_commander::task\l_generator::jurek::Generator\l::readParameters">
<polygon fill="none" stroke="black" points="348,-0.5 348,-41.5 486,-41.5 486,-0.5 348,-0.5"/>
<text text-anchor="start" x="356" y="-29.5" font-family="Helvetica,sans-Serif" font-size="10.00">atwork_commander::task</text>
<text text-anchor="start" x="356" y="-18.5" font-family="Helvetica,sans-Serif" font-size="10.00">_generator::jurek::Generator</text>
<text text-anchor="middle" x="417" y="-7.5" font-family="Helvetica,sans-Serif" font-size="10.00">::readParameters</text>
</a>
</g>
</g>
<!-- Node4&#45;&gt;Node6 -->
<g id="edge5" class="edge"><title>Node4&#45;&gt;Node6</title>
<path fill="none" stroke="midnightblue" d="M288.888,-82.2995C307.056,-72.1871 328.346,-60.699 348,-51 354.364,-47.8594 361.132,-44.6835 367.837,-41.6324"/>
<polygon fill="midnightblue" stroke="midnightblue" points="286.713,-79.5062 279.697,-87.4456 290.133,-85.614 286.713,-79.5062"/>
</g>
<!-- Node9 -->
<g id="node9" class="node"><title>Node9</title>
<g id="a_node9"><a xlink:href="classatwork__commander_1_1task__generator_1_1jurek_1_1Generator.html#a8e4768730cfb7f3c27dc6225e629e2bb" target="_top" xlink:title="atwork_commander::task\l_generator::jurek::Generator\l::generate_objects">
<polygon fill="none" stroke="black" points="348,-60.5 348,-101.5 486,-101.5 486,-60.5 348,-60.5"/>
<text text-anchor="start" x="356" y="-89.5" font-family="Helvetica,sans-Serif" font-size="10.00">atwork_commander::task</text>
<text text-anchor="start" x="356" y="-78.5" font-family="Helvetica,sans-Serif" font-size="10.00">_generator::jurek::Generator</text>
<text text-anchor="middle" x="417" y="-67.5" font-family="Helvetica,sans-Serif" font-size="10.00">::generate_objects</text>
</a>
</g>
</g>
<!-- Node4&#45;&gt;Node9 -->
<g id="edge9" class="edge"><title>Node4&#45;&gt;Node9</title>
<path fill="none" stroke="midnightblue" d="M322.36,-95.6992C330.839,-94.3683 339.417,-93.0217 347.762,-91.7117"/>
<polygon fill="midnightblue" stroke="midnightblue" points="321.809,-92.2428 312.473,-97.2513 322.895,-99.1581 321.809,-92.2428"/>
</g>
<!-- Node6&#45;&gt;Node2 -->
<g id="edge8" class="edge"><title>Node6&#45;&gt;Node2</title>
<path fill="none" stroke="midnightblue" d="M486.708,-44.9678C501.369,-50.0823 516.73,-55.4408 530.99,-60.415"/>
<polygon fill="midnightblue" stroke="midnightblue" points="487.787,-41.6377 477.193,-41.6486 485.482,-48.2471 487.787,-41.6377"/>
</g>
<!-- Node7 -->
<g id="node7" class="node"><title>Node7</title>
<g id="a_node7"><a xlink:href="classatwork__commander_1_1task__generator_1_1jurek_1_1Generator.html#a70cc89ff444ae7b05324a744e852fd92" target="_top" xlink:title="atwork_commander::task\l_generator::jurek::Generator\l::fromTask">
<polygon fill="none" stroke="black" points="522,-0.5 522,-41.5 660,-41.5 660,-0.5 522,-0.5"/>
<text text-anchor="start" x="530" y="-29.5" font-family="Helvetica,sans-Serif" font-size="10.00">atwork_commander::task</text>
<text text-anchor="start" x="530" y="-18.5" font-family="Helvetica,sans-Serif" font-size="10.00">_generator::jurek::Generator</text>
<text text-anchor="middle" x="591" y="-7.5" font-family="Helvetica,sans-Serif" font-size="10.00">::fromTask</text>
</a>
</g>
</g>
<!-- Node6&#45;&gt;Node7 -->
<g id="edge6" class="edge"><title>Node6&#45;&gt;Node7</title>
<path fill="none" stroke="midnightblue" d="M496.637,-21C505.025,-21 513.508,-21 521.762,-21"/>
<polygon fill="midnightblue" stroke="midnightblue" points="496.473,-17.5001 486.473,-21 496.473,-24.5001 496.473,-17.5001"/>
</g>
<!-- Node8 -->
<g id="node8" class="node"><title>Node8</title>
<g id="a_node8"><a xlink:href="classatwork__commander_1_1task__generator_1_1jurek_1_1Generator.html#a25c39f9ca5492f944c61ed463ba0b36b" target="_top" xlink:title="atwork_commander::task\l_generator::jurek::Generator\l::check">
<polygon fill="none" stroke="black" points="696,-0.5 696,-41.5 834,-41.5 834,-0.5 696,-0.5"/>
<text text-anchor="start" x="704" y="-29.5" font-family="Helvetica,sans-Serif" font-size="10.00">atwork_commander::task</text>
<text text-anchor="start" x="704" y="-18.5" font-family="Helvetica,sans-Serif" font-size="10.00">_generator::jurek::Generator</text>
<text text-anchor="middle" x="765" y="-7.5" font-family="Helvetica,sans-Serif" font-size="10.00">::check</text>
</a>
</g>
</g>
<!-- Node7&#45;&gt;Node8 -->
<g id="edge7" class="edge"><title>Node7&#45;&gt;Node8</title>
<path fill="none" stroke="midnightblue" d="M670.637,-21C679.025,-21 687.508,-21 695.762,-21"/>
<polygon fill="midnightblue" stroke="midnightblue" points="670.473,-17.5001 660.473,-21 670.473,-24.5001 670.473,-17.5001"/>
</g>
<!-- Node9&#45;&gt;Node2 -->
<g id="edge10" class="edge"><title>Node9&#45;&gt;Node2</title>
<path fill="none" stroke="midnightblue" d="M496.637,-81C505.025,-81 513.508,-81 521.762,-81"/>
<polygon fill="midnightblue" stroke="midnightblue" points="496.473,-77.5001 486.473,-81 496.473,-84.5001 496.473,-77.5001"/>
</g>
</g>
</svg>
