<?xml version="1.0" encoding="UTF-8" standalone="no"?>
<!DOCTYPE svg PUBLIC "-//W3C//DTD SVG 1.1//EN"
 "http://www.w3.org/Graphics/SVG/1.1/DTD/svg11.dtd">
<!-- Generated by graphviz version 2.38.0 (20140413.2041)
 -->
<!-- Title: atwork_commander::com_plugin::ros::TaskArenaCentric::receiveRobotStateClb Pages: 1 -->
<svg width="350pt" height="78pt"
 viewBox="0.00 0.00 350.00 77.50" xmlns="http://www.w3.org/2000/svg" xmlns:xlink="http://www.w3.org/1999/xlink">
<g id="graph0" class="graph" transform="scale(1 1) rotate(0) translate(4 73.5)">
<title>atwork_commander::com_plugin::ros::TaskArenaCentric::receiveRobotStateClb</title>
<!-- Node1 -->
<g id="node1" class="node"><title>Node1</title>
<polygon fill="#bfbfbf" stroke="black" points="0,-17 0,-58 152,-58 152,-17 0,-17"/>
<text text-anchor="start" x="8" y="-46" font-family="Helvetica,sans-Serif" font-size="10.00">atwork_commander::com</text>
<text text-anchor="start" x="8" y="-35" font-family="Helvetica,sans-Serif" font-size="10.00">_plugin::ros::TaskArenaCentric</text>
<text text-anchor="middle" x="76" y="-24" font-family="Helvetica,sans-Serif" font-size="10.00">::receiveRobotStateClb</text>
</g>
<!-- Node2 -->
<g id="node2" class="node"><title>Node2</title>
<g id="a_node2"><a xlink:href="jurek_2Generator_8cpp.html#a28c1581327242b076230921c81cb75a4" target="_top" xlink:title="PLUGINLIB_EXPORT_CLASS">
<polygon fill="none" stroke="black" points="188,-50 188,-69 342,-69 342,-50 188,-50"/>
<text text-anchor="middle" x="265" y="-57" font-family="Helvetica,sans-Serif" font-size="10.00">PLUGINLIB_EXPORT_CLASS</text>
</a>
</g>
</g>
<!-- Node1&#45;&gt;Node2 -->
<g id="edge1" class="edge"><title>Node1&#45;&gt;Node2</title>
<path fill="none" stroke="midnightblue" d="M152.252,-46.3531C160.713,-47.3486 169.382,-48.3685 177.967,-49.3785"/>
<polygon fill="midnightblue" stroke="midnightblue" points="177.648,-52.865 187.988,-50.5575 178.466,-45.9129 177.648,-52.865"/>
</g>
<!-- Node3 -->
<g id="node3" class="node"><title>Node3</title>
<g id="a_node3"><a xlink:href="classatwork__commander_1_1com__plugin_1_1Base.html#a264e3071cb9f86e81b7fe3e0e70e0d1e" target="_top" xlink:title="atwork_commander::com\l_plugin::Base::sendRobotState">
<polygon fill="none" stroke="black" points="189,-0.5 189,-30.5 341,-30.5 341,-0.5 189,-0.5"/>
<text text-anchor="start" x="197" y="-18.5" font-family="Helvetica,sans-Serif" font-size="10.00">atwork_commander::com</text>
<text text-anchor="middle" x="265" y="-7.5" font-family="Helvetica,sans-Serif" font-size="10.00">_plugin::Base::sendRobotState</text>
</a>
</g>
</g>
<!-- Node1&#45;&gt;Node3 -->
<g id="edge2" class="edge"><title>Node1&#45;&gt;Node3</title>
<path fill="none" stroke="midnightblue" d="M152.252,-28.6469C161.027,-27.6145 170.025,-26.5559 178.92,-25.5094"/>
<polygon fill="midnightblue" stroke="midnightblue" points="179.38,-28.9795 188.902,-24.335 178.562,-22.0275 179.38,-28.9795"/>
</g>
</g>
</svg>
