<?xml version="1.0" encoding="UTF-8" standalone="no"?>
<!DOCTYPE svg PUBLIC "-//W3C//DTD SVG 1.1//EN"
 "http://www.w3.org/Graphics/SVG/1.1/DTD/svg11.dtd">
<!-- Generated by graphviz version 2.38.0 (20140413.2041)
 -->
<!-- Title: atwork_commander::task_generator::jurek::Generator::check Pages: 1 -->
<svg width="1042pt" height="578pt"
 viewBox="0.00 0.00 1042.00 578.00" xmlns="http://www.w3.org/2000/svg" xmlns:xlink="http://www.w3.org/1999/xlink">
<g id="graph0" class="graph" transform="scale(1 1) rotate(0) translate(4 574)">
<title>atwork_commander::task_generator::jurek::Generator::check</title>
<!-- Node1 -->
<g id="node1" class="node"><title>Node1</title>
<polygon fill="#bfbfbf" stroke="black" points="0,-348.5 0,-389.5 138,-389.5 138,-348.5 0,-348.5"/>
<text text-anchor="start" x="8" y="-377.5" font-family="Helvetica,sans-Serif" font-size="10.00">atwork_commander::task</text>
<text text-anchor="start" x="8" y="-366.5" font-family="Helvetica,sans-Serif" font-size="10.00">_generator::jurek::Generator</text>
<text text-anchor="middle" x="69" y="-355.5" font-family="Helvetica,sans-Serif" font-size="10.00">::check</text>
</g>
<!-- Node2 -->
<g id="node2" class="node"><title>Node2</title>
<g id="a_node2"><a xlink:href="classatwork__commander_1_1task__generator_1_1jurek_1_1Generator.html#aeba4d8c653c195ba0ed6ee5895f83982" target="_top" xlink:title="atwork_commander::task\l_generator::jurek::Generator\l::checkContainers">
<polygon fill="none" stroke="black" points="174,-528.5 174,-569.5 312,-569.5 312,-528.5 174,-528.5"/>
<text text-anchor="start" x="182" y="-557.5" font-family="Helvetica,sans-Serif" font-size="10.00">atwork_commander::task</text>
<text text-anchor="start" x="182" y="-546.5" font-family="Helvetica,sans-Serif" font-size="10.00">_generator::jurek::Generator</text>
<text text-anchor="middle" x="243" y="-535.5" font-family="Helvetica,sans-Serif" font-size="10.00">::checkContainers</text>
</a>
</g>
</g>
<!-- Node1&#45;&gt;Node2 -->
<g id="edge1" class="edge"><title>Node1&#45;&gt;Node2</title>
<path fill="none" stroke="midnightblue" d="M79.637,-389.63C95.3493,-421.297 129.276,-482.086 174,-519 175.567,-520.294 177.199,-521.542 178.882,-522.745"/>
<polygon fill="midnightblue" stroke="midnightblue" points="177.349,-525.921 187.652,-528.39 181.138,-520.034 177.349,-525.921"/>
</g>
<!-- Node3 -->
<g id="node3" class="node"><title>Node3</title>
<g id="a_node3"><a xlink:href="classatwork__commander_1_1task__generator_1_1jurek_1_1Generator.html#a2d6b7c330d7c447489f9dacefe389e4e" target="_top" xlink:title="atwork_commander::task\l_generator::jurek::Generator\l::checkObjectTypes">
<polygon fill="none" stroke="black" points="174,-468.5 174,-509.5 312,-509.5 312,-468.5 174,-468.5"/>
<text text-anchor="start" x="182" y="-497.5" font-family="Helvetica,sans-Serif" font-size="10.00">atwork_commander::task</text>
<text text-anchor="start" x="182" y="-486.5" font-family="Helvetica,sans-Serif" font-size="10.00">_generator::jurek::Generator</text>
<text text-anchor="middle" x="243" y="-475.5" font-family="Helvetica,sans-Serif" font-size="10.00">::checkObjectTypes</text>
</a>
</g>
</g>
<!-- Node1&#45;&gt;Node3 -->
<g id="edge2" class="edge"><title>Node1&#45;&gt;Node3</title>
<path fill="none" stroke="midnightblue" d="M90.04,-389.597C109.98,-409.266 142.125,-438.819 174,-459 176.453,-460.553 179,-462.065 181.606,-463.531"/>
<polygon fill="midnightblue" stroke="midnightblue" points="180.166,-466.729 190.639,-468.33 183.45,-460.547 180.166,-466.729"/>
</g>
<!-- Node5 -->
<g id="node5" class="node"><title>Node5</title>
<g id="a_node5"><a xlink:href="classatwork__commander_1_1task__generator_1_1jurek_1_1Generator.html#a40cfc37218574107ab9fc4285e654b2a" target="_top" xlink:title="atwork_commander::task\l_generator::jurek::Generator\l::checkPickCounts">
<polygon fill="none" stroke="black" points="174,-408.5 174,-449.5 312,-449.5 312,-408.5 174,-408.5"/>
<text text-anchor="start" x="182" y="-437.5" font-family="Helvetica,sans-Serif" font-size="10.00">atwork_commander::task</text>
<text text-anchor="start" x="182" y="-426.5" font-family="Helvetica,sans-Serif" font-size="10.00">_generator::jurek::Generator</text>
<text text-anchor="middle" x="243" y="-415.5" font-family="Helvetica,sans-Serif" font-size="10.00">::checkPickCounts</text>
</a>
</g>
</g>
<!-- Node1&#45;&gt;Node5 -->
<g id="edge4" class="edge"><title>Node1&#45;&gt;Node5</title>
<path fill="none" stroke="midnightblue" d="M129.193,-389.649C143.461,-394.626 158.824,-399.985 173.48,-405.098"/>
<polygon fill="midnightblue" stroke="midnightblue" points="172.395,-408.426 182.99,-408.415 174.701,-401.817 172.395,-408.426"/>
</g>
<!-- Node6 -->
<g id="node6" class="node"><title>Node6</title>
<g id="a_node6"><a xlink:href="classatwork__commander_1_1task__generator_1_1jurek_1_1Generator.html#ae79fd6729dc4e4f114726eb1c55900f9" target="_top" xlink:title="atwork_commander::task\l_generator::jurek::Generator\l::checkPickNeqPlace">
<polygon fill="none" stroke="black" points="174,-348.5 174,-389.5 312,-389.5 312,-348.5 174,-348.5"/>
<text text-anchor="start" x="182" y="-377.5" font-family="Helvetica,sans-Serif" font-size="10.00">atwork_commander::task</text>
<text text-anchor="start" x="182" y="-366.5" font-family="Helvetica,sans-Serif" font-size="10.00">_generator::jurek::Generator</text>
<text text-anchor="middle" x="243" y="-355.5" font-family="Helvetica,sans-Serif" font-size="10.00">::checkPickNeqPlace</text>
</a>
</g>
</g>
<!-- Node1&#45;&gt;Node6 -->
<g id="edge5" class="edge"><title>Node1&#45;&gt;Node6</title>
<path fill="none" stroke="midnightblue" d="M138.473,-369C146.732,-369 155.216,-369 163.602,-369"/>
<polygon fill="midnightblue" stroke="midnightblue" points="163.762,-372.5 173.762,-369 163.762,-365.5 163.762,-372.5"/>
</g>
<!-- Node7 -->
<g id="node7" class="node"><title>Node7</title>
<g id="a_node7"><a xlink:href="classatwork__commander_1_1task__generator_1_1jurek_1_1Generator.html#aca4a5c5ba1da7dba33dfb0f8843c350d" target="_top" xlink:title="atwork_commander::task\l_generator::jurek::Generator\l::checkPlaceCounts">
<polygon fill="none" stroke="black" points="174,-288.5 174,-329.5 312,-329.5 312,-288.5 174,-288.5"/>
<text text-anchor="start" x="182" y="-317.5" font-family="Helvetica,sans-Serif" font-size="10.00">atwork_commander::task</text>
<text text-anchor="start" x="182" y="-306.5" font-family="Helvetica,sans-Serif" font-size="10.00">_generator::jurek::Generator</text>
<text text-anchor="middle" x="243" y="-295.5" font-family="Helvetica,sans-Serif" font-size="10.00">::checkPlaceCounts</text>
</a>
</g>
</g>
<!-- Node1&#45;&gt;Node7 -->
<g id="edge6" class="edge"><title>Node1&#45;&gt;Node7</title>
<path fill="none" stroke="midnightblue" d="M129.193,-348.351C143.461,-343.374 158.824,-338.015 173.48,-332.902"/>
<polygon fill="midnightblue" stroke="midnightblue" points="174.701,-336.183 182.99,-329.585 172.395,-329.574 174.701,-336.183"/>
</g>
<!-- Node8 -->
<g id="node8" class="node"><title>Node8</title>
<g id="a_node8"><a xlink:href="classatwork__commander_1_1task__generator_1_1jurek_1_1Generator.html#a0a5ad279e42de3a45c8855ba893d7970" target="_top" xlink:title="atwork_commander::task\l_generator::jurek::Generator\l::debug_tasks">
<polygon fill="none" stroke="black" points="174,-228.5 174,-269.5 312,-269.5 312,-228.5 174,-228.5"/>
<text text-anchor="start" x="182" y="-257.5" font-family="Helvetica,sans-Serif" font-size="10.00">atwork_commander::task</text>
<text text-anchor="start" x="182" y="-246.5" font-family="Helvetica,sans-Serif" font-size="10.00">_generator::jurek::Generator</text>
<text text-anchor="middle" x="243" y="-235.5" font-family="Helvetica,sans-Serif" font-size="10.00">::debug_tasks</text>
</a>
</g>
</g>
<!-- Node1&#45;&gt;Node8 -->
<g id="edge7" class="edge"><title>Node1&#45;&gt;Node8</title>
<path fill="none" stroke="midnightblue" d="M90.04,-348.403C109.98,-328.734 142.125,-299.181 174,-279 176.453,-277.447 179,-275.935 181.606,-274.469"/>
<polygon fill="midnightblue" stroke="midnightblue" points="183.45,-277.453 190.639,-269.67 180.166,-271.271 183.45,-277.453"/>
</g>
<!-- Node9 -->
<g id="node9" class="node"><title>Node9</title>
<g id="a_node9"><a xlink:href="classatwork__commander_1_1task__generator_1_1jurek_1_1Generator.html#a70cc89ff444ae7b05324a744e852fd92" target="_top" xlink:title="atwork_commander::task\l_generator::jurek::Generator\l::fromTask">
<polygon fill="none" stroke="black" points="174,-168.5 174,-209.5 312,-209.5 312,-168.5 174,-168.5"/>
<text text-anchor="start" x="182" y="-197.5" font-family="Helvetica,sans-Serif" font-size="10.00">atwork_commander::task</text>
<text text-anchor="start" x="182" y="-186.5" font-family="Helvetica,sans-Serif" font-size="10.00">_generator::jurek::Generator</text>
<text text-anchor="middle" x="243" y="-175.5" font-family="Helvetica,sans-Serif" font-size="10.00">::fromTask</text>
</a>
</g>
</g>
<!-- Node1&#45;&gt;Node9 -->
<g id="edge8" class="edge"><title>Node1&#45;&gt;Node9</title>
<path fill="none" stroke="midnightblue" d="M79.637,-348.37C95.3493,-316.703 129.276,-255.914 174,-219 175.567,-217.706 177.199,-216.458 178.882,-215.255"/>
<polygon fill="midnightblue" stroke="midnightblue" points="181.138,-217.966 187.652,-209.61 177.349,-212.079 181.138,-217.966"/>
</g>
<!-- Node4 -->
<g id="node4" class="node"><title>Node4</title>
<g id="a_node4"><a xlink:href="classatwork__commander_1_1task__generator_1_1jurek_1_1Generator.html#a6a3cbca1e1886e5ce3ad930f261440f7" target="_top" xlink:title="atwork_commander::task\l_generator::jurek::Generator\l::toCavity">
<polygon fill="none" stroke="black" points="358,-468.5 358,-509.5 496,-509.5 496,-468.5 358,-468.5"/>
<text text-anchor="start" x="366" y="-497.5" font-family="Helvetica,sans-Serif" font-size="10.00">atwork_commander::task</text>
<text text-anchor="start" x="366" y="-486.5" font-family="Helvetica,sans-Serif" font-size="10.00">_generator::jurek::Generator</text>
<text text-anchor="middle" x="427" y="-475.5" font-family="Helvetica,sans-Serif" font-size="10.00">::toCavity</text>
</a>
</g>
</g>
<!-- Node3&#45;&gt;Node4 -->
<g id="edge3" class="edge"><title>Node3&#45;&gt;Node4</title>
<path fill="none" stroke="midnightblue" d="M312.029,-489C323.586,-489 335.673,-489 347.474,-489"/>
<polygon fill="midnightblue" stroke="midnightblue" points="347.751,-492.5 357.751,-489 347.751,-485.5 347.751,-492.5"/>
</g>
<!-- Node10 -->
<g id="node10" class="node"><title>Node10</title>
<g id="a_node10"><a xlink:href="classatwork__commander_1_1task__generator_1_1jurek_1_1Generator.html#a598368025bb6d251d96bad44da2a7d94" target="_top" xlink:title="atwork_commander::task\l_generator::jurek::Generator\l::readParameters">
<polygon fill="none" stroke="black" points="358,-335.5 358,-376.5 496,-376.5 496,-335.5 358,-335.5"/>
<text text-anchor="start" x="366" y="-364.5" font-family="Helvetica,sans-Serif" font-size="10.00">atwork_commander::task</text>
<text text-anchor="start" x="366" y="-353.5" font-family="Helvetica,sans-Serif" font-size="10.00">_generator::jurek::Generator</text>
<text text-anchor="middle" x="427" y="-342.5" font-family="Helvetica,sans-Serif" font-size="10.00">::readParameters</text>
</a>
</g>
</g>
<!-- Node9&#45;&gt;Node10 -->
<g id="edge9" class="edge"><title>Node9&#45;&gt;Node10</title>
<path fill="none" stroke="midnightblue" d="M300.976,-209.658C304.99,-212.417 308.733,-215.519 312,-219 343.753,-252.835 317.07,-282.41 348,-317 352.239,-321.74 357.186,-325.975 362.495,-329.742"/>
<polygon fill="midnightblue" stroke="midnightblue" points="360.786,-332.804 371.087,-335.283 364.58,-326.921 360.786,-332.804"/>
</g>
<!-- Node16 -->
<g id="node16" class="node"><title>Node16</title>
<g id="a_node16"><a xlink:href="control__node_8cpp.html#a92904aa73140a9bcbc31b3f01cbc1b91" target="_top" xlink:title="start">
<polygon fill="none" stroke="black" points="409,-288.5 409,-307.5 445,-307.5 445,-288.5 409,-288.5"/>
<text text-anchor="middle" x="427" y="-295.5" font-family="Helvetica,sans-Serif" font-size="10.00">start</text>
</a>
</g>
</g>
<!-- Node9&#45;&gt;Node16 -->
<g id="edge15" class="edge"><title>Node9&#45;&gt;Node16</title>
<path fill="none" stroke="midnightblue" d="M298.932,-209.532C303.592,-212.351 308.033,-215.5 312,-219 335.32,-239.574 322.957,-260.562 348,-279 362.591,-289.743 382.477,-294.474 398.518,-296.53"/>
<polygon fill="midnightblue" stroke="midnightblue" points="398.598,-300.055 408.896,-297.566 399.294,-293.09 398.598,-300.055"/>
</g>
<!-- Node22 -->
<g id="node22" class="node"><title>Node22</title>
<g id="a_node22"><a xlink:href="structatwork__commander_1_1task__generator_1_1jurek_1_1Converter.html#a72570b82981fcc7c3825847318d9c110" target="_top" xlink:title="atwork_commander::task\l_generator::jurek::Converter\l::toMap">
<polygon fill="none" stroke="black" points="358,-228.5 358,-269.5 496,-269.5 496,-228.5 358,-228.5"/>
<text text-anchor="start" x="366" y="-257.5" font-family="Helvetica,sans-Serif" font-size="10.00">atwork_commander::task</text>
<text text-anchor="start" x="366" y="-246.5" font-family="Helvetica,sans-Serif" font-size="10.00">_generator::jurek::Converter</text>
<text text-anchor="middle" x="427" y="-235.5" font-family="Helvetica,sans-Serif" font-size="10.00">::toMap</text>
</a>
</g>
</g>
<!-- Node9&#45;&gt;Node22 -->
<g id="edge21" class="edge"><title>Node9&#45;&gt;Node22</title>
<path fill="none" stroke="midnightblue" d="M306.379,-209.565C321.718,-214.621 338.265,-220.076 354.016,-225.269"/>
<polygon fill="midnightblue" stroke="midnightblue" points="353.109,-228.655 363.702,-228.462 355.301,-222.007 353.109,-228.655"/>
</g>
<!-- Node23 -->
<g id="node23" class="node"><title>Node23</title>
<g id="a_node23"><a xlink:href="structatwork__commander_1_1task__generator_1_1jurek_1_1Converter.html#a818939f2af05e4ef73adebf64e4eae09" target="_top" xlink:title="atwork_commander::task\l_generator::jurek::Converter\l::intersect">
<polygon fill="none" stroke="black" points="358,-168.5 358,-209.5 496,-209.5 496,-168.5 358,-168.5"/>
<text text-anchor="start" x="366" y="-197.5" font-family="Helvetica,sans-Serif" font-size="10.00">atwork_commander::task</text>
<text text-anchor="start" x="366" y="-186.5" font-family="Helvetica,sans-Serif" font-size="10.00">_generator::jurek::Converter</text>
<text text-anchor="middle" x="427" y="-175.5" font-family="Helvetica,sans-Serif" font-size="10.00">::intersect</text>
</a>
</g>
</g>
<!-- Node9&#45;&gt;Node23 -->
<g id="edge22" class="edge"><title>Node9&#45;&gt;Node23</title>
<path fill="none" stroke="midnightblue" d="M312.029,-189C323.586,-189 335.673,-189 347.474,-189"/>
<polygon fill="midnightblue" stroke="midnightblue" points="347.751,-192.5 357.751,-189 347.751,-185.5 347.751,-192.5"/>
</g>
<!-- Node24 -->
<g id="node24" class="node"><title>Node24</title>
<g id="a_node24"><a xlink:href="structatwork__commander_1_1task__generator_1_1jurek_1_1Converter.html#a87b35041c69840e35aae594139916459" target="_top" xlink:title="atwork_commander::task\l_generator::jurek::Converter::diff">
<polygon fill="none" stroke="black" points="348,-120 348,-150 506,-150 506,-120 348,-120"/>
<text text-anchor="start" x="356" y="-138" font-family="Helvetica,sans-Serif" font-size="10.00">atwork_commander::task</text>
<text text-anchor="middle" x="427" y="-127" font-family="Helvetica,sans-Serif" font-size="10.00">_generator::jurek::Converter::diff</text>
</a>
</g>
</g>
<!-- Node9&#45;&gt;Node24 -->
<g id="edge23" class="edge"><title>Node9&#45;&gt;Node24</title>
<path fill="none" stroke="midnightblue" d="M312.029,-168.816C329.584,-163.607 348.36,-158.036 365.503,-152.95"/>
<polygon fill="midnightblue" stroke="midnightblue" points="366.795,-156.217 375.386,-150.017 364.803,-149.506 366.795,-156.217"/>
</g>
<!-- Node25 -->
<g id="node25" class="node"><title>Node25</title>
<g id="a_node25"><a xlink:href="structatwork__commander_1_1task__generator_1_1jurek_1_1Converter.html#abb4856ef8459fcb507f2fb06e7efcfbe" target="_top" xlink:title="atwork_commander::task\l_generator::jurek::Converter\l::findObject">
<polygon fill="none" stroke="black" points="358,-60.5 358,-101.5 496,-101.5 496,-60.5 358,-60.5"/>
<text text-anchor="start" x="366" y="-89.5" font-family="Helvetica,sans-Serif" font-size="10.00">atwork_commander::task</text>
<text text-anchor="start" x="366" y="-78.5" font-family="Helvetica,sans-Serif" font-size="10.00">_generator::jurek::Converter</text>
<text text-anchor="middle" x="427" y="-67.5" font-family="Helvetica,sans-Serif" font-size="10.00">::findObject</text>
</a>
</g>
</g>
<!-- Node9&#45;&gt;Node25 -->
<g id="edge24" class="edge"><title>Node9&#45;&gt;Node25</title>
<path fill="none" stroke="midnightblue" d="M266.994,-168.358C287.207,-151.019 317.999,-126.498 348,-110 350.552,-108.597 353.185,-107.235 355.871,-105.916"/>
<polygon fill="midnightblue" stroke="midnightblue" points="357.57,-108.987 365.168,-101.603 354.624,-102.637 357.57,-108.987"/>
</g>
<!-- Node26 -->
<g id="node26" class="node"><title>Node26</title>
<g id="a_node26"><a xlink:href="structatwork__commander_1_1task__generator_1_1jurek_1_1Converter.html#afe1e5a4e25981b1fc92be8bfb49305ac" target="_top" xlink:title="atwork_commander::task\l_generator::jurek::Converter\l::findContainer">
<polygon fill="none" stroke="black" points="358,-0.5 358,-41.5 496,-41.5 496,-0.5 358,-0.5"/>
<text text-anchor="start" x="366" y="-29.5" font-family="Helvetica,sans-Serif" font-size="10.00">atwork_commander::task</text>
<text text-anchor="start" x="366" y="-18.5" font-family="Helvetica,sans-Serif" font-size="10.00">_generator::jurek::Converter</text>
<text text-anchor="middle" x="427" y="-7.5" font-family="Helvetica,sans-Serif" font-size="10.00">::findContainer</text>
</a>
</g>
</g>
<!-- Node9&#45;&gt;Node26 -->
<g id="edge25" class="edge"><title>Node9&#45;&gt;Node26</title>
<path fill="none" stroke="midnightblue" d="M254.656,-168.33C270.984,-138.529 304.883,-83.5113 348,-51 350.027,-49.4714 352.142,-48.0115 354.322,-46.6182"/>
<polygon fill="midnightblue" stroke="midnightblue" points="356.125,-49.6186 363.014,-41.5692 352.609,-43.5657 356.125,-49.6186"/>
</g>
<!-- Node11 -->
<g id="node11" class="node"><title>Node11</title>
<g id="a_node11"><a xlink:href="classatwork__commander_1_1task__generator_1_1jurek_1_1Generator.html#ad315f8b6419a2eb9d41d046283031036" target="_top" xlink:title="atwork_commander::task\l_generator::jurek::Generator\l::toTaskObject">
<polygon fill="none" stroke="black" points="543,-352.5 543,-393.5 681,-393.5 681,-352.5 543,-352.5"/>
<text text-anchor="start" x="551" y="-381.5" font-family="Helvetica,sans-Serif" font-size="10.00">atwork_commander::task</text>
<text text-anchor="start" x="551" y="-370.5" font-family="Helvetica,sans-Serif" font-size="10.00">_generator::jurek::Generator</text>
<text text-anchor="middle" x="612" y="-359.5" font-family="Helvetica,sans-Serif" font-size="10.00">::toTaskObject</text>
</a>
</g>
</g>
<!-- Node10&#45;&gt;Node11 -->
<g id="edge10" class="edge"><title>Node10&#45;&gt;Node11</title>
<path fill="none" stroke="midnightblue" d="M496.142,-362.33C508.051,-363.436 520.525,-364.595 532.683,-365.725"/>
<polygon fill="midnightblue" stroke="midnightblue" points="532.52,-369.224 542.801,-366.665 533.167,-362.254 532.52,-369.224"/>
</g>
<!-- Node12 -->
<g id="node12" class="node"><title>Node12</title>
<g id="a_node12"><a xlink:href="classatwork__commander_1_1task__generator_1_1jurek_1_1Generator.html#ace8b675d10370a0bfd36927406fef7ed" target="_top" xlink:title="atwork_commander::task\l_generator::jurek::Generator\l::toContainerType">
<polygon fill="none" stroke="black" points="719,-472.5 719,-513.5 857,-513.5 857,-472.5 719,-472.5"/>
<text text-anchor="start" x="727" y="-501.5" font-family="Helvetica,sans-Serif" font-size="10.00">atwork_commander::task</text>
<text text-anchor="start" x="727" y="-490.5" font-family="Helvetica,sans-Serif" font-size="10.00">_generator::jurek::Generator</text>
<text text-anchor="middle" x="788" y="-479.5" font-family="Helvetica,sans-Serif" font-size="10.00">::toContainerType</text>
</a>
</g>
</g>
<!-- Node11&#45;&gt;Node12 -->
<g id="edge11" class="edge"><title>Node11&#45;&gt;Node12</title>
<path fill="none" stroke="midnightblue" d="M633.245,-393.619C653.386,-413.305 685.847,-442.87 718,-463 720.574,-464.612 723.25,-466.178 725.987,-467.694"/>
<polygon fill="midnightblue" stroke="midnightblue" points="724.41,-470.819 734.893,-472.358 727.658,-464.618 724.41,-470.819"/>
</g>
<!-- Node13 -->
<g id="node13" class="node"><title>Node13</title>
<g id="a_node13"><a xlink:href="classatwork__commander_1_1task__generator_1_1jurek_1_1Generator.html#ac781b2fc429536d8d816b6bd857946b3" target="_top" xlink:title="atwork_commander::task\l_generator::jurek::Generator\l::toCavityType">
<polygon fill="none" stroke="black" points="719,-412.5 719,-453.5 857,-453.5 857,-412.5 719,-412.5"/>
<text text-anchor="start" x="727" y="-441.5" font-family="Helvetica,sans-Serif" font-size="10.00">atwork_commander::task</text>
<text text-anchor="start" x="727" y="-430.5" font-family="Helvetica,sans-Serif" font-size="10.00">_generator::jurek::Generator</text>
<text text-anchor="middle" x="788" y="-419.5" font-family="Helvetica,sans-Serif" font-size="10.00">::toCavityType</text>
</a>
</g>
</g>
<!-- Node11&#45;&gt;Node13 -->
<g id="edge12" class="edge"><title>Node11&#45;&gt;Node13</title>
<path fill="none" stroke="midnightblue" d="M672.881,-393.649C687.316,-398.626 702.857,-403.985 717.683,-409.098"/>
<polygon fill="midnightblue" stroke="midnightblue" points="716.709,-412.464 727.304,-412.415 718.991,-405.846 716.709,-412.464"/>
</g>
<!-- Node14 -->
<g id="node14" class="node"><title>Node14</title>
<g id="a_node14"><a xlink:href="classatwork__commander_1_1task__generator_1_1jurek_1_1Generator.html#ad72dba3d08229cbca8521ae1c9153f0b" target="_top" xlink:title="atwork_commander::task\l_generator::jurek::Generator\l::toColoredObjectType">
<polygon fill="none" stroke="black" points="719,-352.5 719,-393.5 857,-393.5 857,-352.5 719,-352.5"/>
<text text-anchor="start" x="727" y="-381.5" font-family="Helvetica,sans-Serif" font-size="10.00">atwork_commander::task</text>
<text text-anchor="start" x="727" y="-370.5" font-family="Helvetica,sans-Serif" font-size="10.00">_generator::jurek::Generator</text>
<text text-anchor="middle" x="788" y="-359.5" font-family="Helvetica,sans-Serif" font-size="10.00">::toColoredObjectType</text>
</a>
</g>
</g>
<!-- Node11&#45;&gt;Node14 -->
<g id="edge13" class="edge"><title>Node11&#45;&gt;Node14</title>
<path fill="none" stroke="midnightblue" d="M681.27,-373C690.263,-373 699.536,-373 708.68,-373"/>
<polygon fill="midnightblue" stroke="midnightblue" points="708.927,-376.5 718.927,-373 708.927,-369.5 708.927,-376.5"/>
</g>
<!-- Node15 -->
<g id="node15" class="node"><title>Node15</title>
<g id="a_node15"><a xlink:href="classatwork__commander_1_1task__generator_1_1jurek_1_1Generator.html#a2c8f2d001e2254efcae1018dd1f36cdd" target="_top" xlink:title="atwork_commander::task\l_generator::jurek::Generator\l::toObjectType">
<polygon fill="none" stroke="black" points="719,-292.5 719,-333.5 857,-333.5 857,-292.5 719,-292.5"/>
<text text-anchor="start" x="727" y="-321.5" font-family="Helvetica,sans-Serif" font-size="10.00">atwork_commander::task</text>
<text text-anchor="start" x="727" y="-310.5" font-family="Helvetica,sans-Serif" font-size="10.00">_generator::jurek::Generator</text>
<text text-anchor="middle" x="788" y="-299.5" font-family="Helvetica,sans-Serif" font-size="10.00">::toObjectType</text>
</a>
</g>
</g>
<!-- Node11&#45;&gt;Node15 -->
<g id="edge14" class="edge"><title>Node11&#45;&gt;Node15</title>
<path fill="none" stroke="midnightblue" d="M672.881,-352.351C687.316,-347.374 702.857,-342.015 717.683,-336.902"/>
<polygon fill="midnightblue" stroke="midnightblue" points="718.991,-340.154 727.304,-333.585 716.709,-333.536 718.991,-340.154"/>
</g>
<!-- Node17 -->
<g id="node17" class="node"><title>Node17</title>
<g id="a_node17"><a xlink:href="classatwork__commander_1_1Control.html#a03d7ab8dde7ac8c41b29a9480b013ed6" target="_top" xlink:title="Command to start the current Task of the RefBox. ">
<polygon fill="none" stroke="black" points="542,-274 542,-304 682,-304 682,-274 542,-274"/>
<text text-anchor="start" x="550" y="-292" font-family="Helvetica,sans-Serif" font-size="10.00">atwork_commander::Control</text>
<text text-anchor="middle" x="612" y="-281" font-family="Helvetica,sans-Serif" font-size="10.00">::start</text>
</a>
</g>
</g>
<!-- Node16&#45;&gt;Node17 -->
<g id="edge16" class="edge"><title>Node16&#45;&gt;Node17</title>
<path fill="none" stroke="midnightblue" d="M445.216,-297.153C465.127,-296.174 499.303,-294.493 531.471,-292.911"/>
<polygon fill="midnightblue" stroke="midnightblue" points="532.008,-296.389 541.824,-292.402 531.664,-289.398 532.008,-296.389"/>
</g>
<!-- Node18 -->
<g id="node18" class="node"><title>Node18</title>
<g id="a_node18"><a xlink:href="classatwork__commander_1_1ControlImpl.html#a61e7adc72e3d1ae5f8ba7099e7ea1a58" target="_top" xlink:title="atwork_commander::Control\lImpl::start">
<polygon fill="none" stroke="black" points="718,-244 718,-274 858,-274 858,-244 718,-244"/>
<text text-anchor="start" x="726" y="-262" font-family="Helvetica,sans-Serif" font-size="10.00">atwork_commander::Control</text>
<text text-anchor="middle" x="788" y="-251" font-family="Helvetica,sans-Serif" font-size="10.00">Impl::start</text>
</a>
</g>
</g>
<!-- Node17&#45;&gt;Node18 -->
<g id="edge17" class="edge"><title>Node17&#45;&gt;Node18</title>
<path fill="none" stroke="midnightblue" d="M682.019,-277.1C690.476,-275.642 699.169,-274.143 707.761,-272.662"/>
<polygon fill="midnightblue" stroke="midnightblue" points="708.52,-276.083 717.779,-270.935 707.33,-269.185 708.52,-276.083"/>
</g>
<!-- Node19 -->
<g id="node19" class="node"><title>Node19</title>
<g id="a_node19"><a xlink:href="namespaceatwork__commander.html#a144d24cd0805258cbfd6f8cb8795feca" target="_top" xlink:title="atwork_commander::call">
<polygon fill="none" stroke="black" points="902.5,-293.5 902.5,-312.5 1025.5,-312.5 1025.5,-293.5 902.5,-293.5"/>
<text text-anchor="middle" x="964" y="-300.5" font-family="Helvetica,sans-Serif" font-size="10.00">atwork_commander::call</text>
</a>
</g>
</g>
<!-- Node18&#45;&gt;Node19 -->
<g id="edge18" class="edge"><title>Node18&#45;&gt;Node19</title>
<path fill="none" stroke="midnightblue" d="M848.394,-274.019C870.307,-279.56 894.827,-285.761 915.545,-291"/>
<polygon fill="midnightblue" stroke="midnightblue" points="914.83,-294.429 925.383,-293.488 916.546,-287.643 914.83,-294.429"/>
</g>
<!-- Node20 -->
<g id="node20" class="node"><title>Node20</title>
<g id="a_node20"><a xlink:href="classatwork__commander_1_1ControlError.html#aa8e0a508d07409af6b9ccc3f2b04862c" target="_top" xlink:title="Constructor taking the error description. ">
<polygon fill="none" stroke="black" points="894,-244 894,-274 1034,-274 1034,-244 894,-244"/>
<text text-anchor="start" x="902" y="-262" font-family="Helvetica,sans-Serif" font-size="10.00">atwork_commander::Control</text>
<text text-anchor="middle" x="964" y="-251" font-family="Helvetica,sans-Serif" font-size="10.00">Error::ControlError</text>
</a>
</g>
</g>
<!-- Node18&#45;&gt;Node20 -->
<g id="edge19" class="edge"><title>Node18&#45;&gt;Node20</title>
<path fill="none" stroke="midnightblue" d="M858.019,-259C866.476,-259 875.169,-259 883.761,-259"/>
<polygon fill="midnightblue" stroke="midnightblue" points="883.78,-262.5 893.779,-259 883.779,-255.5 883.78,-262.5"/>
</g>
<!-- Node21 -->
<g id="node21" class="node"><title>Node21</title>
<g id="a_node21"><a xlink:href="namespaceatwork__commander__msgs.html#a9ecf5e83b56ed832452324374f4ec311" target="_top" xlink:title="atwork_commander_msgs\l::stateName">
<polygon fill="none" stroke="black" points="898.5,-195 898.5,-225 1029.5,-225 1029.5,-195 898.5,-195"/>
<text text-anchor="start" x="906.5" y="-213" font-family="Helvetica,sans-Serif" font-size="10.00">atwork_commander_msgs</text>
<text text-anchor="middle" x="964" y="-202" font-family="Helvetica,sans-Serif" font-size="10.00">::stateName</text>
</a>
</g>
</g>
<!-- Node18&#45;&gt;Node21 -->
<g id="edge20" class="edge"><title>Node18&#45;&gt;Node21</title>
<path fill="none" stroke="midnightblue" d="M842.626,-243.899C860.737,-238.798 881.124,-233.057 899.9,-227.77"/>
<polygon fill="midnightblue" stroke="midnightblue" points="900.875,-231.131 909.552,-225.052 898.977,-224.393 900.875,-231.131"/>
</g>
</g>
</svg>
