<?xml version="1.0" encoding="UTF-8" standalone="no"?>
<!DOCTYPE svg PUBLIC "-//W3C//DTD SVG 1.1//EN"
 "http://www.w3.org/Graphics/SVG/1.1/DTD/svg11.dtd">
<!-- Generated by graphviz version 2.38.0 (20140413.2041)
 -->
<!-- Title: atwork_commander::TaskGenerator::check Pages: 1 -->
<svg width="581pt" height="127pt"
 viewBox="0.00 0.00 581.00 126.50" xmlns="http://www.w3.org/2000/svg" xmlns:xlink="http://www.w3.org/1999/xlink">
<g id="graph0" class="graph" transform="scale(1 1) rotate(0) translate(4 122.5)">
<title>atwork_commander::TaskGenerator::check</title>
<!-- Node1 -->
<g id="node1" class="node"><title>Node1</title>
<polygon fill="#bfbfbf" stroke="black" points="0,-39 0,-69 173,-69 173,-39 0,-39"/>
<text text-anchor="start" x="8" y="-57" font-family="Helvetica,sans-Serif" font-size="10.00">atwork_commander::TaskGenerator</text>
<text text-anchor="middle" x="86.5" y="-46" font-family="Helvetica,sans-Serif" font-size="10.00">::check</text>
</g>
<!-- Node2 -->
<g id="node2" class="node"><title>Node2</title>
<g id="a_node2"><a xlink:href="classatwork__commander_1_1StateTracker.html#a7ebcaac71f40542c6c14a92f421667be" target="_top" xlink:title="atwork_commander::StateTracker\l::generateTask">
<polygon fill="none" stroke="black" points="209,-88 209,-118 373,-118 373,-88 209,-88"/>
<text text-anchor="start" x="217" y="-106" font-family="Helvetica,sans-Serif" font-size="10.00">atwork_commander::StateTracker</text>
<text text-anchor="middle" x="291" y="-95" font-family="Helvetica,sans-Serif" font-size="10.00">::generateTask</text>
</a>
</g>
</g>
<!-- Node1&#45;&gt;Node2 -->
<g id="edge1" class="edge"><title>Node1&#45;&gt;Node2</title>
<path fill="none" stroke="midnightblue" d="M159.424,-71.4038C181.825,-76.8243 206.322,-82.752 227.985,-87.9938"/>
<polygon fill="midnightblue" stroke="midnightblue" points="160.176,-67.9847 149.633,-69.0346 158.529,-74.7884 160.176,-67.9847"/>
</g>
<!-- Node4 -->
<g id="node4" class="node"><title>Node4</title>
<g id="a_node4"><a xlink:href="classatwork__commander_1_1StateTracker.html#a2973d1f1892346cb3f1cd4679ab16e2d" target="_top" xlink:title="atwork_commander::StateTracker\l::loadTask">
<polygon fill="none" stroke="black" points="209,-39 209,-69 373,-69 373,-39 209,-39"/>
<text text-anchor="start" x="217" y="-57" font-family="Helvetica,sans-Serif" font-size="10.00">atwork_commander::StateTracker</text>
<text text-anchor="middle" x="291" y="-46" font-family="Helvetica,sans-Serif" font-size="10.00">::loadTask</text>
</a>
</g>
</g>
<!-- Node1&#45;&gt;Node4 -->
<g id="edge3" class="edge"><title>Node1&#45;&gt;Node4</title>
<path fill="none" stroke="midnightblue" d="M183.158,-54C191.773,-54 200.442,-54 208.915,-54"/>
<polygon fill="midnightblue" stroke="midnightblue" points="183.085,-50.5001 173.085,-54 183.085,-57.5001 183.085,-50.5001"/>
</g>
<!-- Node5 -->
<g id="node5" class="node"><title>Node5</title>
<g id="a_node5"><a xlink:href="ExampleNode_8cpp.html#a3c04138a5bfe5d72780bb7e82a18e627" target="_top" xlink:title="main">
<polygon fill="none" stroke="black" points="272,-0.5 272,-19.5 310,-19.5 310,-0.5 272,-0.5"/>
<text text-anchor="middle" x="291" y="-7.5" font-family="Helvetica,sans-Serif" font-size="10.00">main</text>
</a>
</g>
</g>
<!-- Node1&#45;&gt;Node5 -->
<g id="edge5" class="edge"><title>Node1&#45;&gt;Node5</title>
<path fill="none" stroke="midnightblue" d="M166.8,-36.7693C205.224,-28.4206 248.077,-19.1092 271.759,-13.9635"/>
<polygon fill="midnightblue" stroke="midnightblue" points="165.651,-33.4372 156.623,-38.9808 167.138,-40.2776 165.651,-33.4372"/>
</g>
<!-- Node3 -->
<g id="node3" class="node"><title>Node3</title>
<g id="a_node3"><a xlink:href="classatwork__commander_1_1StateTracker.html#a37b9d873242eff25d4c09213626dd3ae" target="_top" xlink:title="atwork_commander::StateTracker\l::StateTracker">
<polygon fill="none" stroke="black" points="409,-63 409,-93 573,-93 573,-63 409,-63"/>
<text text-anchor="start" x="417" y="-81" font-family="Helvetica,sans-Serif" font-size="10.00">atwork_commander::StateTracker</text>
<text text-anchor="middle" x="491" y="-70" font-family="Helvetica,sans-Serif" font-size="10.00">::StateTracker</text>
</a>
</g>
</g>
<!-- Node2&#45;&gt;Node3 -->
<g id="edge2" class="edge"><title>Node2&#45;&gt;Node3</title>
<path fill="none" stroke="midnightblue" d="M383.085,-91.4994C391.63,-90.4205 400.254,-89.3316 408.7,-88.2651"/>
<polygon fill="midnightblue" stroke="midnightblue" points="382.588,-88.0342 373.105,-92.7594 383.465,-94.9791 382.588,-88.0342"/>
</g>
<!-- Node4&#45;&gt;Node3 -->
<g id="edge4" class="edge"><title>Node4&#45;&gt;Node3</title>
<path fill="none" stroke="midnightblue" d="M383.085,-65.0406C391.63,-66.0763 400.254,-67.1217 408.7,-68.1455"/>
<polygon fill="midnightblue" stroke="midnightblue" points="383.454,-61.5598 373.105,-63.831 382.612,-68.5089 383.454,-61.5598"/>
</g>
</g>
</svg>
