<?xml version="1.0" encoding="UTF-8" standalone="no"?>
<!DOCTYPE svg PUBLIC "-//W3C//DTD SVG 1.1//EN"
 "http://www.w3.org/Graphics/SVG/1.1/DTD/svg11.dtd">
<!-- Generated by graphviz version 2.38.0 (20140413.2041)
 -->
<!-- Title: atwork_commander::TaskGenVisGroup Pages: 1 -->
<!--zoomable 382 -->
<svg id="main" version="1.1" xmlns="http://www.w3.org/2000/svg" xmlns:xlink="http://www.w3.org/1999/xlink" xml:space="preserve" onload="init(evt)">
<style type="text/css"><![CDATA[
.edge:hover path { stroke: red; }
.edge:hover polygon { stroke: red; fill: red; }
]]></style>
<script type="text/javascript"><![CDATA[
var edges = document.getElementsByTagName('g');
if (edges && edges.length) {
  for (var i=0;i<edges.length;i++) {
    if (edges[i].id.substr(0,4)=='edge') {
      edges[i].setAttribute('class','edge');
    }
  }
}
]]></script>
        <defs>
                <circle id="rim" cx="0" cy="0" r="7"/>
                <circle id="rim2" cx="0" cy="0" r="3.5"/>
                <g id="zoomPlus">
                        <use xlink:href="#rim" fill="#404040">
                                <set attributeName="fill" to="#808080" begin="zoomplus.mouseover" end="zoomplus.mouseout"/>
                        </use>
                        <path d="M-4,0h8M0,-4v8" fill="none" stroke="white" stroke-width="1.5" pointer-events="none"/>
                </g>
                <g id="zoomMin">
                        <use xlink:href="#rim" fill="#404040">
                                <set attributeName="fill" to="#808080" begin="zoomminus.mouseover" end="zoomminus.mouseout"/>
                        </use>
                        <path d="M-4,0h8" fill="none" stroke="white" stroke-width="1.5" pointer-events="none"/>
                </g>
                <g id="dirArrow">
                        <path fill="none" stroke="white" stroke-width="1.5" d="M0,-3.0v7 M-2.5,-0.5L0,-3.0L2.5,-0.5"/>
                </g>
               <g id="resetDef">
                       <use xlink:href="#rim2" fill="#404040">
                               <set attributeName="fill" to="#808080" begin="reset.mouseover" end="reset.mouseout"/>
                       </use>
               </g>
        </defs>

<script type="text/javascript">
var viewWidth = 533;
var viewHeight = 382;
var sectionId = 'dynsection-1';
</script>
<script xlink:href="svgpan.js"/>
<svg id="graph" class="graph">
<g id="viewport">
<title>atwork_commander::TaskGenVisGroup</title>
<!-- Node1 -->
<g id="node1" class="node"><title>Node1</title>
<polygon fill="#bfbfbf" stroke="black" points="377,-186.878 377,-216.878 525,-216.878 525,-186.878 377,-186.878"/>
<text text-anchor="start" x="385" y="-204.878" font-family="Helvetica,sans-Serif" font-size="10.00">atwork_commander::TaskGen</text>
<text text-anchor="middle" x="451" y="-193.878" font-family="Helvetica,sans-Serif" font-size="10.00">VisGroup</text>
</g>
<!-- Node2 -->
<g id="node2" class="node"><title>Node2</title>
<g id="a_node2"><a xlink:href="classatwork__commander_1_1VisGroup.html" target="_top" xlink:title="Abstract Base Class VisGroup. ">
<polygon fill="none" stroke="black" points="98,-354.378 98,-373.378 247,-373.378 247,-354.378 98,-354.378"/>
<text text-anchor="middle" x="172.5" y="-361.378" font-family="Helvetica,sans-Serif" font-size="10.00">atwork_commander::VisGroup</text>
</a>
</g>
</g>
<!-- Node2&#45;&gt;Node1 -->
<g id="edge1" class="edge"><title>Node2&#45;&gt;Node1</title>
<path fill="none" stroke="midnightblue" d="M257.68,-372.882C291.351,-372.618 329.144,-367.125 359,-348.878 409.197,-318.199 435.872,-248.328 445.619,-217.262"/>
<polygon fill="midnightblue" stroke="midnightblue" points="257.402,-369.38 247.376,-372.805 257.349,-376.38 257.402,-369.38"/>
</g>
<!-- Node3 -->
<g id="node3" class="node"><title>Node3</title>
<polygon fill="none" stroke="#bfbfbf" points="0,-354.378 0,-373.378 55,-373.378 55,-354.378 0,-354.378"/>
<text text-anchor="middle" x="27.5" y="-361.378" font-family="Helvetica,sans-Serif" font-size="10.00">QWidget</text>
</g>
<!-- Node3&#45;&gt;Node2 -->
<g id="edge2" class="edge"><title>Node3&#45;&gt;Node2</title>
<path fill="none" stroke="midnightblue" d="M65.1016,-363.878C75.2107,-363.878 86.553,-363.878 97.9644,-363.878"/>
<polygon fill="midnightblue" stroke="midnightblue" points="65.0621,-360.378 55.0621,-363.878 65.062,-367.378 65.0621,-360.378"/>
</g>
<!-- Node4 -->
<g id="node4" class="node"><title>Node4</title>
<polygon fill="none" stroke="#bfbfbf" points="93.5,-316.378 93.5,-335.378 251.5,-335.378 251.5,-316.378 93.5,-316.378"/>
<text text-anchor="middle" x="172.5" y="-323.378" font-family="Helvetica,sans-Serif" font-size="10.00">std::unique_ptr&lt; QPushButton &gt;</text>
</g>
<!-- Node4&#45;&gt;Node1 -->
<g id="edge3" class="edge"><title>Node4&#45;&gt;Node1</title>
<path fill="none" stroke="#9a32cd" stroke-dasharray="5,2" d="M262.18,-324.353C294.141,-320.809 329.558,-313.242 359,-297.878 395.647,-278.754 425.748,-239.062 440.391,-217.18"/>
<polygon fill="#9a32cd" stroke="#9a32cd" points="261.543,-320.898 251.936,-325.367 262.233,-327.864 261.543,-320.898"/>
<text text-anchor="middle" x="315" y="-336.878" font-family="Helvetica,sans-Serif" font-size="10.00"> generateButton</text>
<text text-anchor="middle" x="315" y="-325.878" font-family="Helvetica,sans-Serif" font-size="10.00">loadButton</text>
</g>
<!-- Node5 -->
<g id="node5" class="node"><title>Node5</title>
<polygon fill="none" stroke="#bfbfbf" points="101.5,-260.378 101.5,-279.378 243.5,-279.378 243.5,-260.378 101.5,-260.378"/>
<text text-anchor="middle" x="172.5" y="-267.378" font-family="Helvetica,sans-Serif" font-size="10.00">std::unique_ptr&lt; QLineEdit &gt;</text>
</g>
<!-- Node5&#45;&gt;Node1 -->
<g id="edge4" class="edge"><title>Node5&#45;&gt;Node1</title>
<path fill="none" stroke="#9a32cd" stroke-dasharray="5,2" d="M253.708,-263.145C286.762,-259.102 325.167,-252.75 359,-242.878 380.957,-236.47 404.465,-225.77 422.087,-216.907"/>
<polygon fill="#9a32cd" stroke="#9a32cd" points="253.157,-259.685 243.633,-264.327 253.973,-266.638 253.157,-259.685"/>
<text text-anchor="middle" x="315" y="-285.878" font-family="Helvetica,sans-Serif" font-size="10.00"> runTimeLineEdit</text>
<text text-anchor="middle" x="315" y="-274.878" font-family="Helvetica,sans-Serif" font-size="10.00">prepTimeLineEdit</text>
<text text-anchor="middle" x="315" y="-263.878" font-family="Helvetica,sans-Serif" font-size="10.00">pptCavatiesLineEdit</text>
</g>
<!-- Node6 -->
<g id="node6" class="node"><title>Node6</title>
<polygon fill="none" stroke="#bfbfbf" points="92.5,-215.378 92.5,-234.378 252.5,-234.378 252.5,-215.378 92.5,-215.378"/>
<text text-anchor="middle" x="172.5" y="-222.378" font-family="Helvetica,sans-Serif" font-size="10.00">std::unique_ptr&lt; QVBoxLayout &gt;</text>
</g>
<!-- Node6&#45;&gt;Node1 -->
<g id="edge5" class="edge"><title>Node6&#45;&gt;Node1</title>
<path fill="none" stroke="#9a32cd" stroke-dasharray="5,2" d="M262.975,-217.435C299.82,-214.37 341.966,-210.864 376.911,-207.957"/>
<polygon fill="#9a32cd" stroke="#9a32cd" points="262.409,-213.97 252.734,-218.287 262.99,-220.946 262.409,-213.97"/>
<text text-anchor="middle" x="315" y="-230.878" font-family="Helvetica,sans-Serif" font-size="10.00"> arenaStartVBox</text>
<text text-anchor="middle" x="315" y="-219.878" font-family="Helvetica,sans-Serif" font-size="10.00">arenaEndVBox</text>
</g>
<!-- Node7 -->
<g id="node7" class="node"><title>Node7</title>
<polygon fill="none" stroke="#bfbfbf" points="101,-170.378 101,-189.378 244,-189.378 244,-170.378 101,-170.378"/>
<text text-anchor="middle" x="172.5" y="-177.378" font-family="Helvetica,sans-Serif" font-size="10.00">std::unique_ptr&lt; QTextEdit &gt;</text>
</g>
<!-- Node7&#45;&gt;Node1 -->
<g id="edge6" class="edge"><title>Node7&#45;&gt;Node1</title>
<path fill="none" stroke="#9a32cd" stroke-dasharray="5,2" d="M254.565,-176.437C287.122,-176.065 324.94,-176.906 359,-180.878 370.273,-182.192 382.185,-184.358 393.544,-186.811"/>
<polygon fill="#9a32cd" stroke="#9a32cd" points="254.135,-172.944 244.191,-176.599 254.244,-179.943 254.135,-172.944"/>
<text text-anchor="middle" x="315" y="-194.878" font-family="Helvetica,sans-Serif" font-size="10.00"> arenaStartText</text>
<text text-anchor="middle" x="315" y="-183.878" font-family="Helvetica,sans-Serif" font-size="10.00">arenaEndText</text>
</g>
<!-- Node8 -->
<g id="node8" class="node"><title>Node8</title>
<polygon fill="none" stroke="#bfbfbf" points="107.5,-94.3776 107.5,-113.378 237.5,-113.378 237.5,-94.3776 107.5,-94.3776"/>
<text text-anchor="middle" x="172.5" y="-101.378" font-family="Helvetica,sans-Serif" font-size="10.00">std::unique_ptr&lt; QLabel &gt;</text>
</g>
<!-- Node8&#45;&gt;Node1 -->
<g id="edge7" class="edge"><title>Node8&#45;&gt;Node1</title>
<path fill="none" stroke="#9a32cd" stroke-dasharray="5,2" d="M247.981,-98.4466C282.983,-98.6189 324.499,-102.867 359,-117.878 393.699,-132.974 423.699,-167.016 439.06,-186.818"/>
<polygon fill="#9a32cd" stroke="#9a32cd" points="247.798,-94.9476 237.82,-98.5083 247.841,-101.947 247.798,-94.9476"/>
<text text-anchor="middle" x="315" y="-164.878" font-family="Helvetica,sans-Serif" font-size="10.00"> runTimeLabel</text>
<text text-anchor="middle" x="315" y="-153.878" font-family="Helvetica,sans-Serif" font-size="10.00">arenaEndLabel</text>
<text text-anchor="middle" x="315" y="-142.878" font-family="Helvetica,sans-Serif" font-size="10.00">prepTimeLabel</text>
<text text-anchor="middle" x="315" y="-131.878" font-family="Helvetica,sans-Serif" font-size="10.00">taskListLabel</text>
<text text-anchor="middle" x="315" y="-120.878" font-family="Helvetica,sans-Serif" font-size="10.00">arenaStartLabel</text>
</g>
<!-- Node9 -->
<g id="node9" class="node"><title>Node9</title>
<polygon fill="none" stroke="#bfbfbf" points="95,-56.3776 95,-75.3776 250,-75.3776 250,-56.3776 95,-56.3776"/>
<text text-anchor="middle" x="172.5" y="-63.3776" font-family="Helvetica,sans-Serif" font-size="10.00">std::unique_ptr&lt; QComboBox &gt;</text>
</g>
<!-- Node9&#45;&gt;Node1 -->
<g id="edge8" class="edge"><title>Node9&#45;&gt;Node1</title>
<path fill="none" stroke="#9a32cd" stroke-dasharray="5,2" d="M260.253,-60.7318C292.945,-62.2872 329.359,-68.4564 359,-84.8776 401.543,-108.447 430.869,-160.986 443.305,-186.873"/>
<polygon fill="#9a32cd" stroke="#9a32cd" points="260.351,-57.2332 250.238,-60.3909 260.113,-64.2292 260.351,-57.2332"/>
<text text-anchor="middle" x="315" y="-87.8776" font-family="Helvetica,sans-Serif" font-size="10.00"> taskListCombo</text>
</g>
<!-- Node10 -->
<g id="node10" class="node"><title>Node10</title>
<polygon fill="none" stroke="#bfbfbf" points="92,-1.37764 92,-20.3776 253,-20.3776 253,-1.37764 92,-1.37764"/>
<text text-anchor="middle" x="172.5" y="-8.37764" font-family="Helvetica,sans-Serif" font-size="10.00">std::unique_ptr&lt; QHBoxLayout &gt;</text>
</g>
<!-- Node10&#45;&gt;Node1 -->
<g id="edge9" class="edge"><title>Node10&#45;&gt;Node1</title>
<path fill="none" stroke="#9a32cd" stroke-dasharray="5,2" d="M242.063,-0.648126C279.519,1.36561 325.049,-2.36053 359,-24.8776 417.166,-63.4552 440.197,-151.356 447.325,-186.723"/>
<polygon fill="#9a32cd" stroke="#9a32cd" points="241.466,2.81921 231.729,-1.35747 241.945,-4.16436 241.466,2.81921"/>
<text text-anchor="middle" x="315" y="-49.8776" font-family="Helvetica,sans-Serif" font-size="10.00"> basicHBox</text>
<text text-anchor="middle" x="315" y="-38.8776" font-family="Helvetica,sans-Serif" font-size="10.00">buttonHBox</text>
<text text-anchor="middle" x="315" y="-27.8776" font-family="Helvetica,sans-Serif" font-size="10.00">arenaHBox</text>
</g>
</g>
</svg>
        <g id="navigator" transform="translate(0 0)" fill="#404254">
                <rect fill="#f2f5e9" fill-opacity="0.5" stroke="#606060" stroke-width=".5" x="0" y="0" width="60" height="60"/>
                <use id="zoomplus" xlink:href="#zoomPlus" x="17" y="9" onmousedown="handleZoom(evt,'in')"/>
                <use id="zoomminus" xlink:href="#zoomMin" x="42" y="9" onmousedown="handleZoom(evt,'out')"/>
                <use id="reset" xlink:href="#resetDef" x="30" y="36" onmousedown="handleReset()"/>
                <g id="arrowUp" xlink:href="#dirArrow" transform="translate(30 24)" onmousedown="handlePan(0,-1)">
                  <use xlink:href="#rim" fill="#404040">
                        <set attributeName="fill" to="#808080" begin="arrowUp.mouseover" end="arrowUp.mouseout"/>
                  </use>
                  <path fill="none" stroke="white" stroke-width="1.5" d="M0,-3.0v7 M-2.5,-0.5L0,-3.0L2.5,-0.5"/>
                </g>
                <g id="arrowRight" xlink:href="#dirArrow" transform="rotate(90) translate(36 -43)" onmousedown="handlePan(1,0)">
                  <use xlink:href="#rim" fill="#404040">
                        <set attributeName="fill" to="#808080" begin="arrowRight.mouseover" end="arrowRight.mouseout"/>
                  </use>
                  <path fill="none" stroke="white" stroke-width="1.5" d="M0,-3.0v7 M-2.5,-0.5L0,-3.0L2.5,-0.5"/>
                </g>
                <g id="arrowDown" xlink:href="#dirArrow" transform="rotate(180) translate(-30 -48)" onmousedown="handlePan(0,1)">
                  <use xlink:href="#rim" fill="#404040">
                        <set attributeName="fill" to="#808080" begin="arrowDown.mouseover" end="arrowDown.mouseout"/>
                  </use>
                  <path fill="none" stroke="white" stroke-width="1.5" d="M0,-3.0v7 M-2.5,-0.5L0,-3.0L2.5,-0.5"/>
                </g>
                <g id="arrowLeft" xlink:href="#dirArrow" transform="rotate(270) translate(-36 17)" onmousedown="handlePan(-1,0)">
                  <use xlink:href="#rim" fill="#404040">
                        <set attributeName="fill" to="#808080" begin="arrowLeft.mouseover" end="arrowLeft.mouseout"/>
                  </use>
                  <path fill="none" stroke="white" stroke-width="1.5" d="M0,-3.0v7 M-2.5,-0.5L0,-3.0L2.5,-0.5"/>
                </g>
        </g>
        <svg viewBox="0 0 15 15" width="100%" height="30px" preserveAspectRatio="xMaxYMin meet">
         <g id="arrow_out" transform="scale(0.3 0.3)">
          <a xlink:href="classatwork__commander_1_1TaskGenVisGroup__coll__graph_org.svg" target="_base">
           <rect id="button" ry="5" rx="5" y="6" x="6" height="38" width="38"
                fill="#f2f5e9" fill-opacity="0.5" stroke="#606060" stroke-width="1.0"/>
           <path id="arrow"
             d="M 11.500037,31.436501 C 11.940474,20.09759 22.043105,11.32322 32.158766,21.979434 L 37.068811,17.246167 C 37.068811,17.246167 37.088388,32 37.088388,32 L 22.160133,31.978069 C 22.160133,31.978069 26.997745,27.140456 26.997745,27.140456 C 18.528582,18.264221 13.291696,25.230495 11.500037,31.436501 z"
             style="fill:#404040;"/>
          </a>
         </g>
        </svg>
</svg>
