<?xml version="1.0" encoding="UTF-8" standalone="no"?>
<!DOCTYPE svg PUBLIC "-//W3C//DTD SVG 1.1//EN"
 "http://www.w3.org/Graphics/SVG/1.1/DTD/svg11.dtd">
<!-- Generated by graphviz version 2.38.0 (20140413.2041)
 -->
<!-- Title: atwork_commander::RobotVisGroup Pages: 1 -->
<svg width="521pt" height="114pt"
 viewBox="0.00 0.00 521.00 114.00" xmlns="http://www.w3.org/2000/svg" xmlns:xlink="http://www.w3.org/1999/xlink">
<g id="graph0" class="graph" transform="scale(1 1) rotate(0) translate(4 110)">
<title>atwork_commander::RobotVisGroup</title>
<!-- Node1 -->
<g id="node1" class="node"><title>Node1</title>
<polygon fill="#bfbfbf" stroke="black" points="364,-33 364,-63 513,-63 513,-33 364,-33"/>
<text text-anchor="start" x="372" y="-51" font-family="Helvetica,sans-Serif" font-size="10.00">atwork_commander::RobotVis</text>
<text text-anchor="middle" x="438.5" y="-40" font-family="Helvetica,sans-Serif" font-size="10.00">Group</text>
</g>
<!-- Node2 -->
<g id="node2" class="node"><title>Node2</title>
<g id="a_node2"><a xlink:href="classatwork__commander_1_1VisGroup.html" target="_top" xlink:title="Abstract Base Class VisGroup. ">
<polygon fill="none" stroke="black" points="98,-86.5 98,-105.5 247,-105.5 247,-86.5 98,-86.5"/>
<text text-anchor="middle" x="172.5" y="-93.5" font-family="Helvetica,sans-Serif" font-size="10.00">atwork_commander::VisGroup</text>
</a>
</g>
</g>
<!-- Node2&#45;&gt;Node1 -->
<g id="edge1" class="edge"><title>Node2&#45;&gt;Node1</title>
<path fill="none" stroke="midnightblue" d="M257.474,-93.8187C285.839,-91.859 317.524,-88.3192 346,-82 365.688,-77.631 386.843,-69.9771 403.848,-63.0363"/>
<polygon fill="midnightblue" stroke="midnightblue" points="256.945,-90.3451 247.186,-94.4714 257.388,-97.3311 256.945,-90.3451"/>
</g>
<!-- Node3 -->
<g id="node3" class="node"><title>Node3</title>
<polygon fill="none" stroke="#bfbfbf" points="0,-86.5 0,-105.5 55,-105.5 55,-86.5 0,-86.5"/>
<text text-anchor="middle" x="27.5" y="-93.5" font-family="Helvetica,sans-Serif" font-size="10.00">QWidget</text>
</g>
<!-- Node3&#45;&gt;Node2 -->
<g id="edge2" class="edge"><title>Node3&#45;&gt;Node2</title>
<path fill="none" stroke="midnightblue" d="M65.1016,-96C75.2107,-96 86.553,-96 97.9644,-96"/>
<polygon fill="midnightblue" stroke="midnightblue" points="65.0621,-92.5001 55.0621,-96 65.062,-99.5001 65.0621,-92.5001"/>
</g>
<!-- Node4 -->
<g id="node4" class="node"><title>Node4</title>
<polygon fill="none" stroke="#bfbfbf" points="93.5,-38.5 93.5,-57.5 251.5,-57.5 251.5,-38.5 93.5,-38.5"/>
<text text-anchor="middle" x="172.5" y="-45.5" font-family="Helvetica,sans-Serif" font-size="10.00">std::unique_ptr&lt; QPushButton &gt;</text>
</g>
<!-- Node4&#45;&gt;Node1 -->
<g id="edge3" class="edge"><title>Node4&#45;&gt;Node1</title>
<path fill="none" stroke="#9a32cd" stroke-dasharray="5,2" d="M261.755,-48C294.818,-48 332.01,-48 363.637,-48"/>
<polygon fill="#9a32cd" stroke="#9a32cd" points="261.637,-44.5001 251.637,-48 261.637,-51.5001 261.637,-44.5001"/>
<text text-anchor="middle" x="308.5" y="-73" font-family="Helvetica,sans-Serif" font-size="10.00"> stopButton</text>
<text text-anchor="middle" x="308.5" y="-62" font-family="Helvetica,sans-Serif" font-size="10.00">playPauseButton</text>
<text text-anchor="middle" x="308.5" y="-51" font-family="Helvetica,sans-Serif" font-size="10.00">forwardButton</text>
</g>
<!-- Node5 -->
<g id="node5" class="node"><title>Node5</title>
<polygon fill="none" stroke="#bfbfbf" points="92,-0.5 92,-19.5 253,-19.5 253,-0.5 92,-0.5"/>
<text text-anchor="middle" x="172.5" y="-7.5" font-family="Helvetica,sans-Serif" font-size="10.00">std::unique_ptr&lt; QHBoxLayout &gt;</text>
</g>
<!-- Node5&#45;&gt;Node1 -->
<g id="edge4" class="edge"><title>Node5&#45;&gt;Node1</title>
<path fill="none" stroke="#9a32cd" stroke-dasharray="5,2" d="M258.809,-20.8601C286.632,-24.5395 317.654,-28.7878 346,-33 351.732,-33.8518 357.662,-34.7607 363.619,-35.6937"/>
<polygon fill="#9a32cd" stroke="#9a32cd" points="259.085,-17.3663 248.714,-19.5314 258.171,-24.3065 259.085,-17.3663"/>
<text text-anchor="middle" x="308.5" y="-36" font-family="Helvetica,sans-Serif" font-size="10.00"> buttonHBox</text>
</g>
</g>
</svg>
