<?xml version="1.0" encoding="UTF-8" standalone="no"?>
<!DOCTYPE svg PUBLIC "-//W3C//DTD SVG 1.1//EN"
 "http://www.w3.org/Graphics/SVG/1.1/DTD/svg11.dtd">
<!-- Generated by graphviz version 2.38.0 (20140413.2041)
 -->
<!-- Title: atwork_commander::ControlImpl::start Pages: 1 -->
<!--zoomable 524 -->
<svg id="main" version="1.1" xmlns="http://www.w3.org/2000/svg" xmlns:xlink="http://www.w3.org/1999/xlink" xml:space="preserve" onload="init(evt)">
<style type="text/css"><![CDATA[
.edge:hover path { stroke: red; }
.edge:hover polygon { stroke: red; fill: red; }
]]></style>
<script type="text/javascript"><![CDATA[
var edges = document.getElementsByTagName('g');
if (edges && edges.length) {
  for (var i=0;i<edges.length;i++) {
    if (edges[i].id.substr(0,4)=='edge') {
      edges[i].setAttribute('class','edge');
    }
  }
}
]]></script>
        <defs>
                <circle id="rim" cx="0" cy="0" r="7"/>
                <circle id="rim2" cx="0" cy="0" r="3.5"/>
                <g id="zoomPlus">
                        <use xlink:href="#rim" fill="#404040">
                                <set attributeName="fill" to="#808080" begin="zoomplus.mouseover" end="zoomplus.mouseout"/>
                        </use>
                        <path d="M-4,0h8M0,-4v8" fill="none" stroke="white" stroke-width="1.5" pointer-events="none"/>
                </g>
                <g id="zoomMin">
                        <use xlink:href="#rim" fill="#404040">
                                <set attributeName="fill" to="#808080" begin="zoomminus.mouseover" end="zoomminus.mouseout"/>
                        </use>
                        <path d="M-4,0h8" fill="none" stroke="white" stroke-width="1.5" pointer-events="none"/>
                </g>
                <g id="dirArrow">
                        <path fill="none" stroke="white" stroke-width="1.5" d="M0,-3.0v7 M-2.5,-0.5L0,-3.0L2.5,-0.5"/>
                </g>
               <g id="resetDef">
                       <use xlink:href="#rim2" fill="#404040">
                               <set attributeName="fill" to="#808080" begin="reset.mouseover" end="reset.mouseout"/>
                       </use>
               </g>
        </defs>

<script type="text/javascript">
var viewWidth = 906;
var viewHeight = 524;
var sectionId = 'dynsection-9';
</script>
<script xlink:href="svgpan.js"/>
<svg id="graph" class="graph">
<g id="viewport">
<title>atwork_commander::ControlImpl::start</title>
<!-- Node1 -->
<g id="node1" class="node"><title>Node1</title>
<polygon fill="#bfbfbf" stroke="black" points="0,-229 0,-259 140,-259 140,-229 0,-229"/>
<text text-anchor="start" x="8" y="-247" font-family="Helvetica,sans-Serif" font-size="10.00">atwork_commander::Control</text>
<text text-anchor="middle" x="70" y="-236" font-family="Helvetica,sans-Serif" font-size="10.00">Impl::start</text>
</g>
<!-- Node2 -->
<g id="node2" class="node"><title>Node2</title>
<g id="a_node2"><a xlink:href="classatwork__commander_1_1Control.html#a03d7ab8dde7ac8c41b29a9480b013ed6" target="_top" xlink:title="Command to start the current Task of the RefBox. ">
<polygon fill="none" stroke="black" points="176,-229 176,-259 316,-259 316,-229 176,-229"/>
<text text-anchor="start" x="184" y="-247" font-family="Helvetica,sans-Serif" font-size="10.00">atwork_commander::Control</text>
<text text-anchor="middle" x="246" y="-236" font-family="Helvetica,sans-Serif" font-size="10.00">::start</text>
</a>
</g>
</g>
<!-- Node1&#45;&gt;Node2 -->
<g id="edge1" class="edge"><title>Node1&#45;&gt;Node2</title>
<path fill="none" stroke="midnightblue" d="M150.035,-244C158.625,-244 167.319,-244 175.779,-244"/>
<polygon fill="midnightblue" stroke="midnightblue" points="150.019,-240.5 140.019,-244 150.019,-247.5 150.019,-240.5"/>
</g>
<!-- Node3 -->
<g id="node3" class="node"><title>Node3</title>
<g id="a_node3"><a xlink:href="basic__setup_8cpp.html#a3c04138a5bfe5d72780bb7e82a18e627" target="_top" xlink:title="main">
<polygon fill="none" stroke="black" points="352,-253.5 352,-272.5 390,-272.5 390,-253.5 352,-253.5"/>
<text text-anchor="middle" x="371" y="-260.5" font-family="Helvetica,sans-Serif" font-size="10.00">main</text>
</a>
</g>
</g>
<!-- Node2&#45;&gt;Node3 -->
<g id="edge2" class="edge"><title>Node2&#45;&gt;Node3</title>
<path fill="none" stroke="midnightblue" d="M326.08,-256.216C335.535,-257.676 344.384,-259.043 351.627,-260.162"/>
<polygon fill="midnightblue" stroke="midnightblue" points="326.468,-252.734 316.05,-254.666 325.399,-259.652 326.468,-252.734"/>
</g>
<!-- Node4 -->
<g id="node4" class="node"><title>Node4</title>
<g id="a_node4"><a xlink:href="control__node_8cpp.html#a92904aa73140a9bcbc31b3f01cbc1b91" target="_top" xlink:title="start">
<polygon fill="none" stroke="black" points="353,-215.5 353,-234.5 389,-234.5 389,-215.5 353,-215.5"/>
<text text-anchor="middle" x="371" y="-222.5" font-family="Helvetica,sans-Serif" font-size="10.00">start</text>
</a>
</g>
</g>
<!-- Node2&#45;&gt;Node4 -->
<g id="edge3" class="edge"><title>Node2&#45;&gt;Node4</title>
<path fill="none" stroke="midnightblue" d="M326.1,-231.781C335.972,-230.256 345.183,-228.833 352.593,-227.689"/>
<polygon fill="midnightblue" stroke="midnightblue" points="325.399,-228.348 316.05,-233.334 326.468,-235.266 325.399,-228.348"/>
</g>
<!-- Node5 -->
<g id="node5" class="node"><title>Node5</title>
<g id="a_node5"><a xlink:href="classatwork__commander_1_1task__generator_1_1simple_1_1Generator.html#a0515fa959863c880c68a7b02f0354af1" target="_top" xlink:title="atwork_commander::task\l_generator::simple::Generator\l::extractTablesByTypes">
<polygon fill="none" stroke="black" points="430.5,-474.5 430.5,-515.5 576.5,-515.5 576.5,-474.5 430.5,-474.5"/>
<text text-anchor="start" x="438.5" y="-503.5" font-family="Helvetica,sans-Serif" font-size="10.00">atwork_commander::task</text>
<text text-anchor="start" x="438.5" y="-492.5" font-family="Helvetica,sans-Serif" font-size="10.00">_generator::simple::Generator</text>
<text text-anchor="middle" x="503.5" y="-481.5" font-family="Helvetica,sans-Serif" font-size="10.00">::extractTablesByTypes</text>
</a>
</g>
</g>
<!-- Node4&#45;&gt;Node5 -->
<g id="edge4" class="edge"><title>Node4&#45;&gt;Node5</title>
<path fill="none" stroke="midnightblue" d="M389.327,-242.727C389.564,-243.148 389.788,-243.572 390,-244 434.174,-333.176 363.481,-387.573 426,-465 428.868,-468.552 432.214,-471.684 435.874,-474.447"/>
<polygon fill="midnightblue" stroke="midnightblue" points="391.986,-240.44 383.163,-234.574 386.402,-244.661 391.986,-240.44"/>
</g>
<!-- Node6 -->
<g id="node6" class="node"><title>Node6</title>
<g id="a_node6"><a xlink:href="classatwork__commander_1_1task__generator_1_1jurek_1_1Generator.html#a70cc89ff444ae7b05324a744e852fd92" target="_top" xlink:title="atwork_commander::task\l_generator::jurek::Generator\l::fromTask">
<polygon fill="none" stroke="black" points="434.5,-414.5 434.5,-455.5 572.5,-455.5 572.5,-414.5 434.5,-414.5"/>
<text text-anchor="start" x="442.5" y="-443.5" font-family="Helvetica,sans-Serif" font-size="10.00">atwork_commander::task</text>
<text text-anchor="start" x="442.5" y="-432.5" font-family="Helvetica,sans-Serif" font-size="10.00">_generator::jurek::Generator</text>
<text text-anchor="middle" x="503.5" y="-421.5" font-family="Helvetica,sans-Serif" font-size="10.00">::fromTask</text>
</a>
</g>
</g>
<!-- Node4&#45;&gt;Node6 -->
<g id="edge5" class="edge"><title>Node4&#45;&gt;Node6</title>
<path fill="none" stroke="midnightblue" d="M389.293,-242.745C389.54,-243.16 389.776,-243.579 390,-244 424.454,-308.723 378.288,-349.325 426,-405 428.971,-408.466 432.394,-411.535 436.11,-414.251"/>
<polygon fill="midnightblue" stroke="midnightblue" points="391.915,-240.413 383.029,-234.643 386.377,-244.695 391.915,-240.413"/>
</g>
<!-- Node8 -->
<g id="node8" class="node"><title>Node8</title>
<g id="a_node8"><a xlink:href="classatwork__commander_1_1task__generator_1_1simple_1_1Generator.html#ae43f7548b2a38f70517904984353d741" target="_top" xlink:title="atwork_commander::task\l_generator::simple::Generator\l::generateCavities">
<polygon fill="none" stroke="black" points="430.5,-354.5 430.5,-395.5 576.5,-395.5 576.5,-354.5 430.5,-354.5"/>
<text text-anchor="start" x="438.5" y="-383.5" font-family="Helvetica,sans-Serif" font-size="10.00">atwork_commander::task</text>
<text text-anchor="start" x="438.5" y="-372.5" font-family="Helvetica,sans-Serif" font-size="10.00">_generator::simple::Generator</text>
<text text-anchor="middle" x="503.5" y="-361.5" font-family="Helvetica,sans-Serif" font-size="10.00">::generateCavities</text>
</a>
</g>
</g>
<!-- Node4&#45;&gt;Node8 -->
<g id="edge7" class="edge"><title>Node4&#45;&gt;Node8</title>
<path fill="none" stroke="midnightblue" d="M389.223,-242.785C389.491,-243.188 389.75,-243.593 390,-244 414.924,-284.618 392.835,-310.779 426,-345 429.376,-348.483 433.204,-351.57 437.305,-354.305"/>
<polygon fill="midnightblue" stroke="midnightblue" points="391.769,-240.367 382.754,-234.8 386.33,-244.773 391.769,-240.367"/>
</g>
<!-- Node9 -->
<g id="node9" class="node"><title>Node9</title>
<g id="a_node9"><a xlink:href="classatwork__commander_1_1task__generator_1_1simple_1_1Generator.html#aeed622f5caca536e6081abc394f4ab6f" target="_top" xlink:title="atwork_commander::task\l_generator::simple::Generator\l::generateContainers">
<polygon fill="none" stroke="black" points="430.5,-294.5 430.5,-335.5 576.5,-335.5 576.5,-294.5 430.5,-294.5"/>
<text text-anchor="start" x="438.5" y="-323.5" font-family="Helvetica,sans-Serif" font-size="10.00">atwork_commander::task</text>
<text text-anchor="start" x="438.5" y="-312.5" font-family="Helvetica,sans-Serif" font-size="10.00">_generator::simple::Generator</text>
<text text-anchor="middle" x="503.5" y="-301.5" font-family="Helvetica,sans-Serif" font-size="10.00">::generateContainers</text>
</a>
</g>
</g>
<!-- Node4&#45;&gt;Node9 -->
<g id="edge8" class="edge"><title>Node4&#45;&gt;Node9</title>
<path fill="none" stroke="midnightblue" d="M388.114,-241.945C388.753,-242.638 389.384,-243.324 390,-244 406.342,-261.916 406.151,-271.069 426,-285 430.904,-288.442 436.258,-291.562 441.783,-294.374"/>
<polygon fill="midnightblue" stroke="midnightblue" points="390.621,-239.502 381.228,-234.6 385.514,-244.289 390.621,-239.502"/>
</g>
<!-- Node10 -->
<g id="node10" class="node"><title>Node10</title>
<g id="a_node10"><a xlink:href="classatwork__commander_1_1task__generator_1_1simple_1_1Generator.html#aa392cc94f4e6c7b515066c94637864a3" target="_top" xlink:title="atwork_commander::task\l_generator::simple::Generator\l::generateImpl">
<polygon fill="none" stroke="black" points="430.5,-234.5 430.5,-275.5 576.5,-275.5 576.5,-234.5 430.5,-234.5"/>
<text text-anchor="start" x="438.5" y="-263.5" font-family="Helvetica,sans-Serif" font-size="10.00">atwork_commander::task</text>
<text text-anchor="start" x="438.5" y="-252.5" font-family="Helvetica,sans-Serif" font-size="10.00">_generator::simple::Generator</text>
<text text-anchor="middle" x="503.5" y="-241.5" font-family="Helvetica,sans-Serif" font-size="10.00">::generateImpl</text>
</a>
</g>
</g>
<!-- Node4&#45;&gt;Node10 -->
<g id="edge9" class="edge"><title>Node4&#45;&gt;Node10</title>
<path fill="none" stroke="midnightblue" d="M398.855,-231.173C408.208,-233.324 419.196,-235.85 430.457,-238.438"/>
<polygon fill="midnightblue" stroke="midnightblue" points="399.591,-227.751 389.061,-228.922 398.022,-234.573 399.591,-227.751"/>
</g>
<!-- Node11 -->
<g id="node11" class="node"><title>Node11</title>
<g id="a_node11"><a xlink:href="classatwork__commander_1_1task__generator_1_1simple_1_1Generator.html#a061ffb97af3746a1667192d58ac0d1e9" target="_top" xlink:title="atwork_commander::task\l_generator::simple::Generator\l::generateObjects">
<polygon fill="none" stroke="black" points="430.5,-174.5 430.5,-215.5 576.5,-215.5 576.5,-174.5 430.5,-174.5"/>
<text text-anchor="start" x="438.5" y="-203.5" font-family="Helvetica,sans-Serif" font-size="10.00">atwork_commander::task</text>
<text text-anchor="start" x="438.5" y="-192.5" font-family="Helvetica,sans-Serif" font-size="10.00">_generator::simple::Generator</text>
<text text-anchor="middle" x="503.5" y="-181.5" font-family="Helvetica,sans-Serif" font-size="10.00">::generateObjects</text>
</a>
</g>
</g>
<!-- Node4&#45;&gt;Node11 -->
<g id="edge10" class="edge"><title>Node4&#45;&gt;Node11</title>
<path fill="none" stroke="midnightblue" d="M398.855,-218.827C408.208,-216.676 419.196,-214.15 430.457,-211.562"/>
<polygon fill="midnightblue" stroke="midnightblue" points="398.022,-215.427 389.061,-221.078 399.591,-222.249 398.022,-215.427"/>
</g>
<!-- Node12 -->
<g id="node12" class="node"><title>Node12</title>
<g id="a_node12"><a xlink:href="classatwork__commander_1_1com__plugin_1_1ros_1_1TaskObjectCentric.html#a3ebc7c27450a6b6775f1aeda32610d9c" target="_top" xlink:title="atwork_commander::com\l_plugin::ros::TaskObjectCentric\l::sendTask">
<polygon fill="none" stroke="black" points="426,-114.5 426,-155.5 581,-155.5 581,-114.5 426,-114.5"/>
<text text-anchor="start" x="434" y="-143.5" font-family="Helvetica,sans-Serif" font-size="10.00">atwork_commander::com</text>
<text text-anchor="start" x="434" y="-132.5" font-family="Helvetica,sans-Serif" font-size="10.00">_plugin::ros::TaskObjectCentric</text>
<text text-anchor="middle" x="503.5" y="-121.5" font-family="Helvetica,sans-Serif" font-size="10.00">::sendTask</text>
</a>
</g>
</g>
<!-- Node4&#45;&gt;Node12 -->
<g id="edge11" class="edge"><title>Node4&#45;&gt;Node12</title>
<path fill="none" stroke="midnightblue" d="M384.647,-206.92C394.608,-193.796 409.527,-176.412 426,-165 430.925,-161.588 436.294,-158.488 441.827,-155.69"/>
<polygon fill="midnightblue" stroke="midnightblue" points="381.668,-205.063 378.584,-215.199 387.316,-209.198 381.668,-205.063"/>
</g>
<!-- Node13 -->
<g id="node13" class="node"><title>Node13</title>
<g id="a_node13"><a xlink:href="structRefboxMockBase.html#a7e9673745c84952c97ebff920f58693b" target="_top" xlink:title="RefboxMockBase::startCall">
<polygon fill="none" stroke="black" points="435,-76.5 435,-95.5 572,-95.5 572,-76.5 435,-76.5"/>
<text text-anchor="middle" x="503.5" y="-83.5" font-family="Helvetica,sans-Serif" font-size="10.00">RefboxMockBase::startCall</text>
</a>
</g>
</g>
<!-- Node4&#45;&gt;Node13 -->
<g id="edge12" class="edge"><title>Node4&#45;&gt;Node13</title>
<path fill="none" stroke="midnightblue" d="M375.41,-205.06C381.068,-178.226 395.004,-130.88 426,-105 430.622,-101.141 435.915,-98.047 441.512,-95.5694"/>
<polygon fill="midnightblue" stroke="midnightblue" points="371.915,-204.702 373.466,-215.183 378.789,-206.022 371.915,-204.702"/>
</g>
<!-- Node16 -->
<g id="node16" class="node"><title>Node16</title>
<g id="a_node16"><a xlink:href="control__node_8cpp.html#a98733d6ad140ddb4f5a57388e89684ea" target="_top" xlink:title="stateUpdate">
<polygon fill="none" stroke="black" points="468.5,-38.5 468.5,-57.5 538.5,-57.5 538.5,-38.5 468.5,-38.5"/>
<text text-anchor="middle" x="503.5" y="-45.5" font-family="Helvetica,sans-Serif" font-size="10.00">stateUpdate</text>
</a>
</g>
</g>
<!-- Node4&#45;&gt;Node16 -->
<g id="edge15" class="edge"><title>Node4&#45;&gt;Node16</title>
<path fill="none" stroke="midnightblue" d="M372.951,-204.717C375.66,-171.032 386.068,-103.642 426,-67 437.394,-56.545 453.634,-51.6178 468.223,-49.3755"/>
<polygon fill="midnightblue" stroke="midnightblue" points="369.431,-204.916 372.278,-215.121 376.416,-205.367 369.431,-204.916"/>
</g>
<!-- Node18 -->
<g id="node18" class="node"><title>Node18</title>
<g id="a_node18"><a xlink:href="tests_2src_2control_8cpp.html#a20da634552403fe88d29dd9bfaabb42c" target="_top" xlink:title="TEST_F">
<polygon fill="none" stroke="black" points="477,-0.5 477,-19.5 530,-19.5 530,-0.5 477,-0.5"/>
<text text-anchor="middle" x="503.5" y="-7.5" font-family="Helvetica,sans-Serif" font-size="10.00">TEST_F</text>
</a>
</g>
</g>
<!-- Node4&#45;&gt;Node18 -->
<g id="edge17" class="edge"><title>Node4&#45;&gt;Node18</title>
<path fill="none" stroke="midnightblue" d="M371.342,-204.964C371.195,-165.413 376.775,-76.9898 426,-29 439.424,-15.9125 460.389,-11.3913 476.98,-10.0159"/>
<polygon fill="midnightblue" stroke="midnightblue" points="367.846,-205.223 371.516,-215.162 374.845,-205.103 367.846,-205.223"/>
</g>
<!-- Node7 -->
<g id="node7" class="node"><title>Node7</title>
<g id="a_node7"><a xlink:href="classatwork__commander_1_1task__generator_1_1jurek_1_1Generator.html#a25c39f9ca5492f944c61ed463ba0b36b" target="_top" xlink:title="atwork_commander::task\l_generator::jurek::Generator\l::check">
<polygon fill="none" stroke="black" points="617,-414.5 617,-455.5 755,-455.5 755,-414.5 617,-414.5"/>
<text text-anchor="start" x="625" y="-443.5" font-family="Helvetica,sans-Serif" font-size="10.00">atwork_commander::task</text>
<text text-anchor="start" x="625" y="-432.5" font-family="Helvetica,sans-Serif" font-size="10.00">_generator::jurek::Generator</text>
<text text-anchor="middle" x="686" y="-421.5" font-family="Helvetica,sans-Serif" font-size="10.00">::check</text>
</a>
</g>
</g>
<!-- Node6&#45;&gt;Node7 -->
<g id="edge6" class="edge"><title>Node6&#45;&gt;Node7</title>
<path fill="none" stroke="midnightblue" d="M583.029,-435C594.333,-435 605.886,-435 616.964,-435"/>
<polygon fill="midnightblue" stroke="midnightblue" points="582.739,-431.5 572.739,-435 582.739,-438.5 582.739,-431.5"/>
</g>
<!-- Node14 -->
<g id="node14" class="node"><title>Node14</title>
<g id="a_node14"><a xlink:href="structRefboxMockBase.html#a4b3ccf44781edf61e4f6382899fdbf26" target="_top" xlink:title="RefboxMockBase::connect">
<polygon fill="none" stroke="black" points="618.5,-76.5 618.5,-95.5 753.5,-95.5 753.5,-76.5 618.5,-76.5"/>
<text text-anchor="middle" x="686" y="-83.5" font-family="Helvetica,sans-Serif" font-size="10.00">RefboxMockBase::connect</text>
</a>
</g>
</g>
<!-- Node13&#45;&gt;Node14 -->
<g id="edge13" class="edge"><title>Node13&#45;&gt;Node14</title>
<path fill="none" stroke="midnightblue" d="M582.248,-86C594.287,-86 606.629,-86 618.394,-86"/>
<polygon fill="midnightblue" stroke="midnightblue" points="582.225,-82.5001 572.225,-86 582.225,-89.5001 582.225,-82.5001"/>
</g>
<!-- Node15 -->
<g id="node15" class="node"><title>Node15</title>
<g id="a_node15"><a xlink:href="structControlTests.html#a2bc96f00c7bf8ee99a12bf53094c63fd" target="_top" xlink:title="ControlTests::SetUp">
<polygon fill="none" stroke="black" points="791,-76.5 791,-95.5 898,-95.5 898,-76.5 791,-76.5"/>
<text text-anchor="middle" x="844.5" y="-83.5" font-family="Helvetica,sans-Serif" font-size="10.00">ControlTests::SetUp</text>
</a>
</g>
</g>
<!-- Node14&#45;&gt;Node15 -->
<g id="edge14" class="edge"><title>Node14&#45;&gt;Node15</title>
<path fill="none" stroke="midnightblue" d="M763.971,-86C772.99,-86 782.031,-86 790.615,-86"/>
<polygon fill="midnightblue" stroke="midnightblue" points="763.824,-82.5001 753.824,-86 763.824,-89.5001 763.824,-82.5001"/>
</g>
<!-- Node17 -->
<g id="node17" class="node"><title>Node17</title>
<g id="a_node17"><a xlink:href="control__node_8cpp.html#a3c04138a5bfe5d72780bb7e82a18e627" target="_top" xlink:title="main">
<polygon fill="none" stroke="black" points="667,-38.5 667,-57.5 705,-57.5 705,-38.5 667,-38.5"/>
<text text-anchor="middle" x="686" y="-45.5" font-family="Helvetica,sans-Serif" font-size="10.00">main</text>
</a>
</g>
</g>
<!-- Node16&#45;&gt;Node17 -->
<g id="edge16" class="edge"><title>Node16&#45;&gt;Node17</title>
<path fill="none" stroke="midnightblue" d="M549.137,-48C586.999,-48 639.393,-48 666.733,-48"/>
<polygon fill="midnightblue" stroke="midnightblue" points="548.876,-44.5001 538.876,-48 548.875,-51.5001 548.876,-44.5001"/>
</g>
</g>
</svg>
        <g id="navigator" transform="translate(0 0)" fill="#404254">
                <rect fill="#f2f5e9" fill-opacity="0.5" stroke="#606060" stroke-width=".5" x="0" y="0" width="60" height="60"/>
                <use id="zoomplus" xlink:href="#zoomPlus" x="17" y="9" onmousedown="handleZoom(evt,'in')"/>
                <use id="zoomminus" xlink:href="#zoomMin" x="42" y="9" onmousedown="handleZoom(evt,'out')"/>
                <use id="reset" xlink:href="#resetDef" x="30" y="36" onmousedown="handleReset()"/>
                <g id="arrowUp" xlink:href="#dirArrow" transform="translate(30 24)" onmousedown="handlePan(0,-1)">
                  <use xlink:href="#rim" fill="#404040">
                        <set attributeName="fill" to="#808080" begin="arrowUp.mouseover" end="arrowUp.mouseout"/>
                  </use>
                  <path fill="none" stroke="white" stroke-width="1.5" d="M0,-3.0v7 M-2.5,-0.5L0,-3.0L2.5,-0.5"/>
                </g>
                <g id="arrowRight" xlink:href="#dirArrow" transform="rotate(90) translate(36 -43)" onmousedown="handlePan(1,0)">
                  <use xlink:href="#rim" fill="#404040">
                        <set attributeName="fill" to="#808080" begin="arrowRight.mouseover" end="arrowRight.mouseout"/>
                  </use>
                  <path fill="none" stroke="white" stroke-width="1.5" d="M0,-3.0v7 M-2.5,-0.5L0,-3.0L2.5,-0.5"/>
                </g>
                <g id="arrowDown" xlink:href="#dirArrow" transform="rotate(180) translate(-30 -48)" onmousedown="handlePan(0,1)">
                  <use xlink:href="#rim" fill="#404040">
                        <set attributeName="fill" to="#808080" begin="arrowDown.mouseover" end="arrowDown.mouseout"/>
                  </use>
                  <path fill="none" stroke="white" stroke-width="1.5" d="M0,-3.0v7 M-2.5,-0.5L0,-3.0L2.5,-0.5"/>
                </g>
                <g id="arrowLeft" xlink:href="#dirArrow" transform="rotate(270) translate(-36 17)" onmousedown="handlePan(-1,0)">
                  <use xlink:href="#rim" fill="#404040">
                        <set attributeName="fill" to="#808080" begin="arrowLeft.mouseover" end="arrowLeft.mouseout"/>
                  </use>
                  <path fill="none" stroke="white" stroke-width="1.5" d="M0,-3.0v7 M-2.5,-0.5L0,-3.0L2.5,-0.5"/>
                </g>
        </g>
        <svg viewBox="0 0 15 15" width="100%" height="30px" preserveAspectRatio="xMaxYMin meet">
         <g id="arrow_out" transform="scale(0.3 0.3)">
          <a xlink:href="classatwork__commander_1_1ControlImpl_a61e7adc72e3d1ae5f8ba7099e7ea1a58_icgraph_org.svg" target="_base">
           <rect id="button" ry="5" rx="5" y="6" x="6" height="38" width="38"
                fill="#f2f5e9" fill-opacity="0.5" stroke="#606060" stroke-width="1.0"/>
           <path id="arrow"
             d="M 11.500037,31.436501 C 11.940474,20.09759 22.043105,11.32322 32.158766,21.979434 L 37.068811,17.246167 C 37.068811,17.246167 37.088388,32 37.088388,32 L 22.160133,31.978069 C 22.160133,31.978069 26.997745,27.140456 26.997745,27.140456 C 18.528582,18.264221 13.291696,25.230495 11.500037,31.436501 z"
             style="fill:#404040;"/>
          </a>
         </g>
        </svg>
</svg>
