<?xml version="1.0" encoding="UTF-8" standalone="no"?>
<!DOCTYPE svg PUBLIC "-//W3C//DTD SVG 1.1//EN"
 "http://www.w3.org/Graphics/SVG/1.1/DTD/svg11.dtd">
<!-- Generated by graphviz version 2.38.0 (20140413.2041)
 -->
<!-- Title: atwork_commander::task_generator::jurek::Generator::toTaskObject Pages: 1 -->
<!--zoomable 170 -->
<svg id="main" version="1.1" xmlns="http://www.w3.org/2000/svg" xmlns:xlink="http://www.w3.org/1999/xlink" xml:space="preserve" onload="init(evt)">
<style type="text/css"><![CDATA[
.edge:hover path { stroke: red; }
.edge:hover polygon { stroke: red; fill: red; }
]]></style>
<script type="text/javascript"><![CDATA[
var edges = document.getElementsByTagName('g');
if (edges && edges.length) {
  for (var i=0;i<edges.length;i++) {
    if (edges[i].id.substr(0,4)=='edge') {
      edges[i].setAttribute('class','edge');
    }
  }
}
]]></script>
        <defs>
                <circle id="rim" cx="0" cy="0" r="7"/>
                <circle id="rim2" cx="0" cy="0" r="3.5"/>
                <g id="zoomPlus">
                        <use xlink:href="#rim" fill="#404040">
                                <set attributeName="fill" to="#808080" begin="zoomplus.mouseover" end="zoomplus.mouseout"/>
                        </use>
                        <path d="M-4,0h8M0,-4v8" fill="none" stroke="white" stroke-width="1.5" pointer-events="none"/>
                </g>
                <g id="zoomMin">
                        <use xlink:href="#rim" fill="#404040">
                                <set attributeName="fill" to="#808080" begin="zoomminus.mouseover" end="zoomminus.mouseout"/>
                        </use>
                        <path d="M-4,0h8" fill="none" stroke="white" stroke-width="1.5" pointer-events="none"/>
                </g>
                <g id="dirArrow">
                        <path fill="none" stroke="white" stroke-width="1.5" d="M0,-3.0v7 M-2.5,-0.5L0,-3.0L2.5,-0.5"/>
                </g>
               <g id="resetDef">
                       <use xlink:href="#rim2" fill="#404040">
                               <set attributeName="fill" to="#808080" begin="reset.mouseover" end="reset.mouseout"/>
                       </use>
               </g>
        </defs>

<script type="text/javascript">
var viewWidth = 668;
var viewHeight = 170;
var sectionId = 'dynsection-42';
</script>
<script xlink:href="svgpan.js"/>
<svg id="graph" class="graph">
<g id="viewport">
<title>atwork_commander::task_generator::jurek::Generator::toTaskObject</title>
<!-- Node1 -->
<g id="node1" class="node"><title>Node1</title>
<polygon fill="#bfbfbf" stroke="black" points="0,-60.5 0,-101.5 138,-101.5 138,-60.5 0,-60.5"/>
<text text-anchor="start" x="8" y="-89.5" font-family="Helvetica,sans-Serif" font-size="10.00">atwork_commander::task</text>
<text text-anchor="start" x="8" y="-78.5" font-family="Helvetica,sans-Serif" font-size="10.00">_generator::jurek::Generator</text>
<text text-anchor="middle" x="69" y="-67.5" font-family="Helvetica,sans-Serif" font-size="10.00">::toTaskObject</text>
</g>
<!-- Node2 -->
<g id="node2" class="node"><title>Node2</title>
<g id="a_node2"><a xlink:href="classatwork__commander_1_1task__generator_1_1jurek_1_1Generator.html#a8e4768730cfb7f3c27dc6225e629e2bb" target="_top" xlink:title="atwork_commander::task\l_generator::jurek::Generator\l::generate_objects">
<polygon fill="none" stroke="black" points="174,-120.5 174,-161.5 312,-161.5 312,-120.5 174,-120.5"/>
<text text-anchor="start" x="182" y="-149.5" font-family="Helvetica,sans-Serif" font-size="10.00">atwork_commander::task</text>
<text text-anchor="start" x="182" y="-138.5" font-family="Helvetica,sans-Serif" font-size="10.00">_generator::jurek::Generator</text>
<text text-anchor="middle" x="243" y="-127.5" font-family="Helvetica,sans-Serif" font-size="10.00">::generate_objects</text>
</a>
</g>
</g>
<!-- Node1&#45;&gt;Node2 -->
<g id="edge1" class="edge"><title>Node1&#45;&gt;Node2</title>
<path fill="none" stroke="midnightblue" d="M138.708,-104.968C153.369,-110.082 168.73,-115.441 182.99,-120.415"/>
<polygon fill="midnightblue" stroke="midnightblue" points="139.787,-101.638 129.193,-101.649 137.482,-108.247 139.787,-101.638"/>
</g>
<!-- Node5 -->
<g id="node5" class="node"><title>Node5</title>
<g id="a_node5"><a xlink:href="classatwork__commander_1_1task__generator_1_1jurek_1_1Generator.html#a598368025bb6d251d96bad44da2a7d94" target="_top" xlink:title="atwork_commander::task\l_generator::jurek::Generator\l::readParameters">
<polygon fill="none" stroke="black" points="174,-60.5 174,-101.5 312,-101.5 312,-60.5 174,-60.5"/>
<text text-anchor="start" x="182" y="-89.5" font-family="Helvetica,sans-Serif" font-size="10.00">atwork_commander::task</text>
<text text-anchor="start" x="182" y="-78.5" font-family="Helvetica,sans-Serif" font-size="10.00">_generator::jurek::Generator</text>
<text text-anchor="middle" x="243" y="-67.5" font-family="Helvetica,sans-Serif" font-size="10.00">::readParameters</text>
</a>
</g>
</g>
<!-- Node1&#45;&gt;Node5 -->
<g id="edge4" class="edge"><title>Node1&#45;&gt;Node5</title>
<path fill="none" stroke="midnightblue" d="M148.637,-81C157.025,-81 165.508,-81 173.762,-81"/>
<polygon fill="midnightblue" stroke="midnightblue" points="148.473,-77.5001 138.473,-81 148.473,-84.5001 148.473,-77.5001"/>
</g>
<!-- Node8 -->
<g id="node8" class="node"><title>Node8</title>
<g id="a_node8"><a xlink:href="classatwork__commander_1_1task__generator_1_1jurek_1_1Generator.html#adfa0436b500de7d24bfb09d34c9b0074" target="_top" xlink:title="atwork_commander::task\l_generator::jurek::Generator\l::toTaskObject">
<polygon fill="none" stroke="black" points="174,-0.5 174,-41.5 312,-41.5 312,-0.5 174,-0.5"/>
<text text-anchor="start" x="182" y="-29.5" font-family="Helvetica,sans-Serif" font-size="10.00">atwork_commander::task</text>
<text text-anchor="start" x="182" y="-18.5" font-family="Helvetica,sans-Serif" font-size="10.00">_generator::jurek::Generator</text>
<text text-anchor="middle" x="243" y="-7.5" font-family="Helvetica,sans-Serif" font-size="10.00">::toTaskObject</text>
</a>
</g>
</g>
<!-- Node1&#45;&gt;Node8 -->
<g id="edge8" class="edge"><title>Node1&#45;&gt;Node8</title>
<path fill="none" stroke="midnightblue" d="M138.708,-57.0322C153.369,-51.9177 168.73,-46.5592 182.99,-41.585"/>
<polygon fill="midnightblue" stroke="midnightblue" points="137.482,-53.7529 129.193,-60.3514 139.787,-60.3623 137.482,-53.7529"/>
</g>
<!-- Node3 -->
<g id="node3" class="node"><title>Node3</title>
<g id="a_node3"><a xlink:href="classatwork__commander_1_1task__generator_1_1jurek_1_1Generator.html#a20d254a95d96bb7cb48b740ab79676c3" target="_top" xlink:title="atwork_commander::task\l_generator::jurek::Generator\l::generateImpl">
<polygon fill="none" stroke="black" points="348,-120.5 348,-161.5 486,-161.5 486,-120.5 348,-120.5"/>
<text text-anchor="start" x="356" y="-149.5" font-family="Helvetica,sans-Serif" font-size="10.00">atwork_commander::task</text>
<text text-anchor="start" x="356" y="-138.5" font-family="Helvetica,sans-Serif" font-size="10.00">_generator::jurek::Generator</text>
<text text-anchor="middle" x="417" y="-127.5" font-family="Helvetica,sans-Serif" font-size="10.00">::generateImpl</text>
</a>
</g>
</g>
<!-- Node2&#45;&gt;Node3 -->
<g id="edge2" class="edge"><title>Node2&#45;&gt;Node3</title>
<path fill="none" stroke="midnightblue" d="M322.637,-141C331.025,-141 339.508,-141 347.762,-141"/>
<polygon fill="midnightblue" stroke="midnightblue" points="322.473,-137.5 312.473,-141 322.473,-144.5 322.473,-137.5"/>
</g>
<!-- Node4 -->
<g id="node4" class="node"><title>Node4</title>
<g id="a_node4"><a xlink:href="classatwork__commander_1_1task__generator_1_1jurek_1_1Generator.html#a85a2c2f9b418a91faf01964ce75f0562" target="_top" xlink:title="atwork_commander::task\l_generator::jurek::Generator\l::generate">
<polygon fill="none" stroke="black" points="522,-120.5 522,-161.5 660,-161.5 660,-120.5 522,-120.5"/>
<text text-anchor="start" x="530" y="-149.5" font-family="Helvetica,sans-Serif" font-size="10.00">atwork_commander::task</text>
<text text-anchor="start" x="530" y="-138.5" font-family="Helvetica,sans-Serif" font-size="10.00">_generator::jurek::Generator</text>
<text text-anchor="middle" x="591" y="-127.5" font-family="Helvetica,sans-Serif" font-size="10.00">::generate</text>
</a>
</g>
</g>
<!-- Node3&#45;&gt;Node4 -->
<g id="edge3" class="edge"><title>Node3&#45;&gt;Node4</title>
<path fill="none" stroke="midnightblue" d="M496.637,-141C505.025,-141 513.508,-141 521.762,-141"/>
<polygon fill="midnightblue" stroke="midnightblue" points="496.473,-137.5 486.473,-141 496.473,-144.5 496.473,-137.5"/>
</g>
<!-- Node5&#45;&gt;Node3 -->
<g id="edge7" class="edge"><title>Node5&#45;&gt;Node3</title>
<path fill="none" stroke="midnightblue" d="M312.708,-104.968C327.369,-110.082 342.73,-115.441 356.99,-120.415"/>
<polygon fill="midnightblue" stroke="midnightblue" points="313.787,-101.638 303.193,-101.649 311.482,-108.247 313.787,-101.638"/>
</g>
<!-- Node6 -->
<g id="node6" class="node"><title>Node6</title>
<g id="a_node6"><a xlink:href="classatwork__commander_1_1task__generator_1_1jurek_1_1Generator.html#a70cc89ff444ae7b05324a744e852fd92" target="_top" xlink:title="atwork_commander::task\l_generator::jurek::Generator\l::fromTask">
<polygon fill="none" stroke="black" points="348,-60.5 348,-101.5 486,-101.5 486,-60.5 348,-60.5"/>
<text text-anchor="start" x="356" y="-89.5" font-family="Helvetica,sans-Serif" font-size="10.00">atwork_commander::task</text>
<text text-anchor="start" x="356" y="-78.5" font-family="Helvetica,sans-Serif" font-size="10.00">_generator::jurek::Generator</text>
<text text-anchor="middle" x="417" y="-67.5" font-family="Helvetica,sans-Serif" font-size="10.00">::fromTask</text>
</a>
</g>
</g>
<!-- Node5&#45;&gt;Node6 -->
<g id="edge5" class="edge"><title>Node5&#45;&gt;Node6</title>
<path fill="none" stroke="midnightblue" d="M322.637,-81C331.025,-81 339.508,-81 347.762,-81"/>
<polygon fill="midnightblue" stroke="midnightblue" points="322.473,-77.5001 312.473,-81 322.473,-84.5001 322.473,-77.5001"/>
</g>
<!-- Node7 -->
<g id="node7" class="node"><title>Node7</title>
<g id="a_node7"><a xlink:href="classatwork__commander_1_1task__generator_1_1jurek_1_1Generator.html#a25c39f9ca5492f944c61ed463ba0b36b" target="_top" xlink:title="atwork_commander::task\l_generator::jurek::Generator\l::check">
<polygon fill="none" stroke="black" points="522,-60.5 522,-101.5 660,-101.5 660,-60.5 522,-60.5"/>
<text text-anchor="start" x="530" y="-89.5" font-family="Helvetica,sans-Serif" font-size="10.00">atwork_commander::task</text>
<text text-anchor="start" x="530" y="-78.5" font-family="Helvetica,sans-Serif" font-size="10.00">_generator::jurek::Generator</text>
<text text-anchor="middle" x="591" y="-67.5" font-family="Helvetica,sans-Serif" font-size="10.00">::check</text>
</a>
</g>
</g>
<!-- Node6&#45;&gt;Node7 -->
<g id="edge6" class="edge"><title>Node6&#45;&gt;Node7</title>
<path fill="none" stroke="midnightblue" d="M496.637,-81C505.025,-81 513.508,-81 521.762,-81"/>
<polygon fill="midnightblue" stroke="midnightblue" points="496.473,-77.5001 486.473,-81 496.473,-84.5001 496.473,-77.5001"/>
</g>
</g>
</svg>
        <g id="navigator" transform="translate(0 0)" fill="#404254">
                <rect fill="#f2f5e9" fill-opacity="0.5" stroke="#606060" stroke-width=".5" x="0" y="0" width="60" height="60"/>
                <use id="zoomplus" xlink:href="#zoomPlus" x="17" y="9" onmousedown="handleZoom(evt,'in')"/>
                <use id="zoomminus" xlink:href="#zoomMin" x="42" y="9" onmousedown="handleZoom(evt,'out')"/>
                <use id="reset" xlink:href="#resetDef" x="30" y="36" onmousedown="handleReset()"/>
                <g id="arrowUp" xlink:href="#dirArrow" transform="translate(30 24)" onmousedown="handlePan(0,-1)">
                  <use xlink:href="#rim" fill="#404040">
                        <set attributeName="fill" to="#808080" begin="arrowUp.mouseover" end="arrowUp.mouseout"/>
                  </use>
                  <path fill="none" stroke="white" stroke-width="1.5" d="M0,-3.0v7 M-2.5,-0.5L0,-3.0L2.5,-0.5"/>
                </g>
                <g id="arrowRight" xlink:href="#dirArrow" transform="rotate(90) translate(36 -43)" onmousedown="handlePan(1,0)">
                  <use xlink:href="#rim" fill="#404040">
                        <set attributeName="fill" to="#808080" begin="arrowRight.mouseover" end="arrowRight.mouseout"/>
                  </use>
                  <path fill="none" stroke="white" stroke-width="1.5" d="M0,-3.0v7 M-2.5,-0.5L0,-3.0L2.5,-0.5"/>
                </g>
                <g id="arrowDown" xlink:href="#dirArrow" transform="rotate(180) translate(-30 -48)" onmousedown="handlePan(0,1)">
                  <use xlink:href="#rim" fill="#404040">
                        <set attributeName="fill" to="#808080" begin="arrowDown.mouseover" end="arrowDown.mouseout"/>
                  </use>
                  <path fill="none" stroke="white" stroke-width="1.5" d="M0,-3.0v7 M-2.5,-0.5L0,-3.0L2.5,-0.5"/>
                </g>
                <g id="arrowLeft" xlink:href="#dirArrow" transform="rotate(270) translate(-36 17)" onmousedown="handlePan(-1,0)">
                  <use xlink:href="#rim" fill="#404040">
                        <set attributeName="fill" to="#808080" begin="arrowLeft.mouseover" end="arrowLeft.mouseout"/>
                  </use>
                  <path fill="none" stroke="white" stroke-width="1.5" d="M0,-3.0v7 M-2.5,-0.5L0,-3.0L2.5,-0.5"/>
                </g>
        </g>
        <svg viewBox="0 0 15 15" width="100%" height="30px" preserveAspectRatio="xMaxYMin meet">
         <g id="arrow_out" transform="scale(0.3 0.3)">
          <a xlink:href="classatwork__commander_1_1task__generator_1_1jurek_1_1Generator_ad315f8b6419a2eb9d41d046283031036_icgraph_org.svg" target="_base">
           <rect id="button" ry="5" rx="5" y="6" x="6" height="38" width="38"
                fill="#f2f5e9" fill-opacity="0.5" stroke="#606060" stroke-width="1.0"/>
           <path id="arrow"
             d="M 11.500037,31.436501 C 11.940474,20.09759 22.043105,11.32322 32.158766,21.979434 L 37.068811,17.246167 C 37.068811,17.246167 37.088388,32 37.088388,32 L 22.160133,31.978069 C 22.160133,31.978069 26.997745,27.140456 26.997745,27.140456 C 18.528582,18.264221 13.291696,25.230495 11.500037,31.436501 z"
             style="fill:#404040;"/>
          </a>
         </g>
        </svg>
</svg>
