<?xml version="1.0" encoding="UTF-8" standalone="no"?>
<!DOCTYPE svg PUBLIC "-//W3C//DTD SVG 1.1//EN"
 "http://www.w3.org/Graphics/SVG/1.1/DTD/svg11.dtd">
<!-- Generated by graphviz version 2.38.0 (20140413.2041)
 -->
<!-- Title: atwork_commander::task_generator::simple::Generator Pages: 1 -->
<svg width="1672pt" height="463pt"
 viewBox="0.00 0.00 1672.00 463.00" xmlns="http://www.w3.org/2000/svg" xmlns:xlink="http://www.w3.org/1999/xlink">
<g id="graph0" class="graph" transform="scale(1 1) rotate(0) translate(4 459)">
<title>atwork_commander::task_generator::simple::Generator</title>
<!-- Node1 -->
<g id="node1" class="node"><title>Node1</title>
<polygon fill="#bfbfbf" stroke="black" points="1518,-319 1518,-349 1664,-349 1664,-319 1518,-319"/>
<text text-anchor="start" x="1526" y="-337" font-family="Helvetica,sans-Serif" font-size="10.00">atwork_commander::task</text>
<text text-anchor="middle" x="1591" y="-326" font-family="Helvetica,sans-Serif" font-size="10.00">_generator::simple::Generator</text>
</g>
<!-- Node2 -->
<g id="node2" class="node"><title>Node2</title>
<g id="a_node2"><a xlink:href="classatwork__commander_1_1task__generator_1_1GeneratorPluginInterface.html" target="_top" xlink:title="atwork_commander::task\l_generator::GeneratorPluginInterface">
<polygon fill="none" stroke="black" points="1266,-410 1266,-440 1442,-440 1442,-410 1266,-410"/>
<text text-anchor="start" x="1274" y="-428" font-family="Helvetica,sans-Serif" font-size="10.00">atwork_commander::task</text>
<text text-anchor="middle" x="1354" y="-417" font-family="Helvetica,sans-Serif" font-size="10.00">_generator::GeneratorPluginInterface</text>
</a>
</g>
</g>
<!-- Node2&#45;&gt;Node1 -->
<g id="edge1" class="edge"><title>Node2&#45;&gt;Node1</title>
<path fill="none" stroke="midnightblue" d="M1452.23,-409.528C1468.51,-405.441 1484.97,-400.34 1500,-394 1526.99,-382.611 1554.51,-362.822 1571.89,-349.1"/>
<polygon fill="midnightblue" stroke="midnightblue" points="1451.04,-406.212 1442.13,-411.943 1452.67,-413.02 1451.04,-406.212"/>
</g>
<!-- Node3 -->
<g id="node3" class="node"><title>Node3</title>
<polygon fill="none" stroke="#bfbfbf" points="1105,-365.5 1105,-406.5 1248,-406.5 1248,-365.5 1105,-365.5"/>
<text text-anchor="start" x="1113" y="-394.5" font-family="Helvetica,sans-Serif" font-size="10.00">std::vector&lt; atwork</text>
<text text-anchor="start" x="1113" y="-383.5" font-family="Helvetica,sans-Serif" font-size="10.00">_commander::task_generator</text>
<text text-anchor="middle" x="1176.5" y="-372.5" font-family="Helvetica,sans-Serif" font-size="10.00">::ObjectType &gt;</text>
</g>
<!-- Node3&#45;&gt;Node1 -->
<g id="edge2" class="edge"><title>Node3&#45;&gt;Node1</title>
<path fill="none" stroke="#9a32cd" stroke-dasharray="5,2" d="M1258.28,-377.321C1323.58,-370.103 1417.82,-359.23 1500,-348 1505.8,-347.208 1511.8,-346.352 1517.82,-345.468"/>
<polygon fill="#9a32cd" stroke="#9a32cd" points="1257.61,-373.873 1248.06,-378.447 1258.38,-380.831 1257.61,-373.873"/>
<text text-anchor="middle" x="1354" y="-380" font-family="Helvetica,sans-Serif" font-size="10.00"> mAvailableCavities</text>
</g>
<!-- Node4 -->
<g id="node4" class="node"><title>Node4</title>
<g id="a_node4"><a xlink:href="structatwork__commander_1_1task__generator_1_1ObjectType.html" target="_top" xlink:title="atwork_commander::task\l_generator::ObjectType">
<polygon fill="none" stroke="black" points="795,-386 795,-416 922,-416 922,-386 795,-386"/>
<text text-anchor="start" x="803" y="-404" font-family="Helvetica,sans-Serif" font-size="10.00">atwork_commander::task</text>
<text text-anchor="middle" x="858.5" y="-393" font-family="Helvetica,sans-Serif" font-size="10.00">_generator::ObjectType</text>
</a>
</g>
</g>
<!-- Node4&#45;&gt;Node3 -->
<g id="edge3" class="edge"><title>Node4&#45;&gt;Node3</title>
<path fill="none" stroke="#9a32cd" stroke-dasharray="5,2" d="M932.434,-397.538C984.268,-395.077 1053.51,-391.791 1104.82,-389.355"/>
<polygon fill="#9a32cd" stroke="#9a32cd" points="932.132,-394.048 922.309,-398.019 932.464,-401.04 932.132,-394.048"/>
<text text-anchor="middle" x="1013.5" y="-400" font-family="Helvetica,sans-Serif" font-size="10.00"> elements</text>
</g>
<!-- Node5 -->
<g id="node5" class="node"><title>Node5</title>
<g id="a_node5"><a xlink:href="structatwork__commander_1_1task__generator_1_1ObjectBase.html" target="_top" xlink:title="atwork_commander::task\l_generator::ObjectBase">
<polygon fill="none" stroke="black" points="444,-407 444,-437 571,-437 571,-407 444,-407"/>
<text text-anchor="start" x="452" y="-425" font-family="Helvetica,sans-Serif" font-size="10.00">atwork_commander::task</text>
<text text-anchor="middle" x="507.5" y="-414" font-family="Helvetica,sans-Serif" font-size="10.00">_generator::ObjectBase</text>
</a>
</g>
</g>
<!-- Node5&#45;&gt;Node4 -->
<g id="edge4" class="edge"><title>Node5&#45;&gt;Node4</title>
<path fill="none" stroke="midnightblue" d="M581.582,-417.603C644.735,-413.802 735.032,-408.369 794.913,-404.766"/>
<polygon fill="midnightblue" stroke="midnightblue" points="581.069,-414.127 571.297,-418.221 581.489,-421.114 581.069,-414.127"/>
</g>
<!-- Node6 -->
<g id="node6" class="node"><title>Node6</title>
<g id="a_node6"><a xlink:title="STL class. ">
<polygon fill="none" stroke="#bfbfbf" points="132,-262.5 132,-281.5 192,-281.5 192,-262.5 132,-262.5"/>
<text text-anchor="middle" x="162" y="-269.5" font-family="Helvetica,sans-Serif" font-size="10.00">std::string</text>
</a>
</g>
</g>
<!-- Node6&#45;&gt;Node5 -->
<g id="edge5" class="edge"><title>Node6&#45;&gt;Node5</title>
<path fill="none" stroke="#9a32cd" stroke-dasharray="5,2" d="M163.869,-292.052C166.323,-321.309 175.556,-375.029 210,-401 277.06,-451.563 378.69,-446.324 443.832,-435.798"/>
<polygon fill="#9a32cd" stroke="#9a32cd" points="167.345,-291.57 163.207,-281.817 160.36,-292.022 167.345,-291.57"/>
<text text-anchor="middle" x="243" y="-447" font-family="Helvetica,sans-Serif" font-size="10.00"> form</text>
<text text-anchor="middle" x="243" y="-436" font-family="Helvetica,sans-Serif" font-size="10.00">color</text>
</g>
<!-- Node8 -->
<g id="node8" class="node"><title>Node8</title>
<polygon fill="none" stroke="#bfbfbf" points="615,-319.5 615,-360.5 756,-360.5 756,-319.5 615,-319.5"/>
<text text-anchor="start" x="623" y="-348.5" font-family="Helvetica,sans-Serif" font-size="10.00">std::unordered_multimap</text>
<text text-anchor="start" x="623" y="-337.5" font-family="Helvetica,sans-Serif" font-size="10.00">&lt; string, atwork_commander</text>
<text text-anchor="middle" x="685.5" y="-326.5" font-family="Helvetica,sans-Serif" font-size="10.00">::task_generator::Table &gt;</text>
</g>
<!-- Node6&#45;&gt;Node8 -->
<g id="edge10" class="edge"><title>Node6&#45;&gt;Node8</title>
<path fill="none" stroke="#9a32cd" stroke-dasharray="5,2" d="M167.533,-291.6C173.454,-312.202 186.02,-343.584 210,-358 342.122,-437.426 534.408,-391.211 628.464,-360.528"/>
<polygon fill="#9a32cd" stroke="#9a32cd" points="170.862,-290.494 164.957,-281.697 164.087,-292.256 170.862,-290.494"/>
<text text-anchor="middle" x="357.5" y="-406" font-family="Helvetica,sans-Serif" font-size="10.00"> keys</text>
</g>
<!-- Node9 -->
<g id="node9" class="node"><title>Node9</title>
<g id="a_node9"><a xlink:href="structatwork__commander_1_1task__generator_1_1Table.html" target="_top" xlink:title="atwork_commander::task\l_generator::Table">
<polygon fill="none" stroke="black" points="294,-320 294,-350 421,-350 421,-320 294,-320"/>
<text text-anchor="start" x="302" y="-338" font-family="Helvetica,sans-Serif" font-size="10.00">atwork_commander::task</text>
<text text-anchor="middle" x="357.5" y="-327" font-family="Helvetica,sans-Serif" font-size="10.00">_generator::Table</text>
</a>
</g>
</g>
<!-- Node6&#45;&gt;Node9 -->
<g id="edge9" class="edge"><title>Node6&#45;&gt;Node9</title>
<path fill="none" stroke="#9a32cd" stroke-dasharray="5,2" d="M177.783,-289.408C186.282,-298.234 197.696,-308.27 210,-314 235.971,-326.094 267.11,-331.637 293.988,-334.041"/>
<polygon fill="#9a32cd" stroke="#9a32cd" points="180.178,-286.839 170.857,-281.803 175.002,-291.553 180.178,-286.839"/>
<text text-anchor="middle" x="243" y="-346" font-family="Helvetica,sans-Serif" font-size="10.00"> type</text>
<text text-anchor="middle" x="243" y="-335" font-family="Helvetica,sans-Serif" font-size="10.00">name</text>
</g>
<!-- Node11 -->
<g id="node11" class="node"><title>Node11</title>
<g id="a_node11"><a xlink:href="classatwork__commander_1_1ConfigParserInterface.html" target="_top" xlink:title="atwork_commander::Config\lParserInterface">
<polygon fill="none" stroke="black" points="439,-276 439,-306 576,-306 576,-276 439,-276"/>
<text text-anchor="start" x="447" y="-294" font-family="Helvetica,sans-Serif" font-size="10.00">atwork_commander::Config</text>
<text text-anchor="middle" x="507.5" y="-283" font-family="Helvetica,sans-Serif" font-size="10.00">ParserInterface</text>
</a>
</g>
</g>
<!-- Node6&#45;&gt;Node11 -->
<g id="edge13" class="edge"><title>Node6&#45;&gt;Node11</title>
<path fill="none" stroke="#9a32cd" stroke-dasharray="5,2" d="M202.456,-274.182C260.177,-277.375 368.42,-283.362 438.959,-287.264"/>
<polygon fill="#9a32cd" stroke="#9a32cd" points="202.465,-270.678 192.287,-273.62 202.078,-277.667 202.465,-270.678"/>
<text text-anchor="middle" x="243" y="-292" font-family="Helvetica,sans-Serif" font-size="10.00"> mArenaConfig</text>
<text text-anchor="middle" x="243" y="-281" font-family="Helvetica,sans-Serif" font-size="10.00">mTaskConfig</text>
</g>
<!-- Node12 -->
<g id="node12" class="node"><title>Node12</title>
<polygon fill="none" stroke="#bfbfbf" points="940,-232 940,-262 1087,-262 1087,-232 940,-232"/>
<text text-anchor="start" x="948" y="-250" font-family="Helvetica,sans-Serif" font-size="10.00">std::unordered_map</text>
<text text-anchor="middle" x="1013.5" y="-239" font-family="Helvetica,sans-Serif" font-size="10.00">&lt; std::string, TaskDefinition &gt;</text>
</g>
<!-- Node6&#45;&gt;Node12 -->
<g id="edge20" class="edge"><title>Node6&#45;&gt;Node12</title>
<path fill="none" stroke="#9a32cd" stroke-dasharray="5,2" d="M202.477,-268.976C256.022,-265.01 354.672,-258.183 439,-255 618.855,-248.21 830.632,-247.02 939.594,-246.907"/>
<polygon fill="#9a32cd" stroke="#9a32cd" points="202.099,-265.495 192.387,-269.729 202.62,-272.475 202.099,-265.495"/>
<text text-anchor="middle" x="507.5" y="-258" font-family="Helvetica,sans-Serif" font-size="10.00"> keys</text>
</g>
<!-- Node14 -->
<g id="node14" class="node"><title>Node14</title>
<polygon fill="none" stroke="#bfbfbf" points="306,-193 306,-223 409,-223 409,-193 306,-193"/>
<text text-anchor="start" x="314" y="-211" font-family="Helvetica,sans-Serif" font-size="10.00">std::unordered_map</text>
<text text-anchor="middle" x="357.5" y="-200" font-family="Helvetica,sans-Serif" font-size="10.00">&lt; std::string, int &gt;</text>
</g>
<!-- Node6&#45;&gt;Node14 -->
<g id="edge17" class="edge"><title>Node6&#45;&gt;Node14</title>
<path fill="none" stroke="#9a32cd" stroke-dasharray="5,2" d="M176.732,-254.696C185.259,-245.214 197.041,-234.165 210,-228 239.787,-213.829 276.582,-208.845 305.845,-207.396"/>
<polygon fill="#9a32cd" stroke="#9a32cd" points="173.939,-252.578 170.13,-262.465 179.273,-257.112 173.939,-252.578"/>
<text text-anchor="middle" x="243" y="-231" font-family="Helvetica,sans-Serif" font-size="10.00"> keys</text>
</g>
<!-- Node15 -->
<g id="node15" class="node"><title>Node15</title>
<polygon fill="none" stroke="#bfbfbf" points="295,-75.5 295,-94.5 420,-94.5 420,-75.5 295,-75.5"/>
<text text-anchor="middle" x="357.5" y="-82.5" font-family="Helvetica,sans-Serif" font-size="10.00">std::vector&lt; std::string &gt;</text>
</g>
<!-- Node6&#45;&gt;Node15 -->
<g id="edge19" class="edge"><title>Node6&#45;&gt;Node15</title>
<path fill="none" stroke="#9a32cd" stroke-dasharray="5,2" d="M172.049,-253.319C180.471,-237.082 194.093,-213.486 210,-196 250.583,-151.387 311.094,-112.146 339.988,-94.6621"/>
<polygon fill="#9a32cd" stroke="#9a32cd" points="168.87,-251.851 167.504,-262.357 175.124,-254.996 168.87,-251.851"/>
<text text-anchor="middle" x="243" y="-199" font-family="Helvetica,sans-Serif" font-size="10.00"> elements</text>
</g>
<!-- Node17 -->
<g id="node17" class="node"><title>Node17</title>
<polygon fill="none" stroke="#bfbfbf" points="306,-0.5 306,-41.5 409,-41.5 409,-0.5 306,-0.5"/>
<text text-anchor="start" x="314" y="-29.5" font-family="Helvetica,sans-Serif" font-size="10.00">std::unordered_map</text>
<text text-anchor="start" x="314" y="-18.5" font-family="Helvetica,sans-Serif" font-size="10.00">&lt; std::string, std::</text>
<text text-anchor="middle" x="357.5" y="-7.5" font-family="Helvetica,sans-Serif" font-size="10.00">string &gt;</text>
</g>
<!-- Node6&#45;&gt;Node17 -->
<g id="edge24" class="edge"><title>Node6&#45;&gt;Node17</title>
<path fill="none" stroke="#9a32cd" stroke-dasharray="5,2" d="M164.461,-252.158C167.721,-220.114 178.036,-156.296 210,-114 234.702,-81.3129 274.505,-57.1087 306.392,-41.5996"/>
<polygon fill="#9a32cd" stroke="#9a32cd" points="160.948,-252.158 163.552,-262.428 167.92,-252.775 160.948,-252.158"/>
<text text-anchor="middle" x="243" y="-128" font-family="Helvetica,sans-Serif" font-size="10.00"> keys</text>
<text text-anchor="middle" x="243" y="-117" font-family="Helvetica,sans-Serif" font-size="10.00">elements</text>
</g>
<!-- Node7 -->
<g id="node7" class="node"><title>Node7</title>
<g id="a_node7"><a xlink:title="STL class. ">
<polygon fill="none" stroke="#bfbfbf" points="0,-257 0,-287 95,-287 95,-257 0,-257"/>
<text text-anchor="start" x="8" y="-275" font-family="Helvetica,sans-Serif" font-size="10.00">std::basic_string&lt;</text>
<text text-anchor="middle" x="47.5" y="-264" font-family="Helvetica,sans-Serif" font-size="10.00"> char &gt;</text>
</a>
</g>
</g>
<!-- Node7&#45;&gt;Node6 -->
<g id="edge6" class="edge"><title>Node7&#45;&gt;Node6</title>
<path fill="none" stroke="midnightblue" d="M105.526,-272C114.678,-272 123.803,-272 131.931,-272"/>
<polygon fill="midnightblue" stroke="midnightblue" points="105.233,-268.5 95.2328,-272 105.233,-275.5 105.233,-268.5"/>
</g>
<!-- Node8&#45;&gt;Node1 -->
<g id="edge7" class="edge"><title>Node8&#45;&gt;Node1</title>
<path fill="none" stroke="#9a32cd" stroke-dasharray="5,2" d="M766.382,-339.47C940.374,-338.314 1351.32,-335.585 1517.95,-334.479"/>
<polygon fill="#9a32cd" stroke="#9a32cd" points="766.246,-335.97 756.27,-339.537 766.293,-342.97 766.246,-335.97"/>
<text text-anchor="middle" x="1176.5" y="-341" font-family="Helvetica,sans-Serif" font-size="10.00"> mTables</text>
</g>
<!-- Node9&#45;&gt;Node8 -->
<g id="edge8" class="edge"><title>Node9&#45;&gt;Node8</title>
<path fill="none" stroke="#9a32cd" stroke-dasharray="5,2" d="M431.688,-336.123C486.449,-336.962 560.871,-338.104 614.777,-338.931"/>
<polygon fill="#9a32cd" stroke="#9a32cd" points="431.409,-332.618 421.356,-335.964 431.301,-339.617 431.409,-332.618"/>
<text text-anchor="middle" x="507.5" y="-342" font-family="Helvetica,sans-Serif" font-size="10.00"> elements</text>
</g>
<!-- Node10 -->
<g id="node10" class="node"><title>Node10</title>
<g id="a_node10"><a xlink:href="classatwork__commander_1_1task__generator_1_1DefaultConfigParser.html" target="_top" xlink:title="atwork_commander::task\l_generator::DefaultConfigParser">
<polygon fill="none" stroke="black" points="1275.5,-258 1275.5,-288 1432.5,-288 1432.5,-258 1275.5,-258"/>
<text text-anchor="start" x="1283.5" y="-276" font-family="Helvetica,sans-Serif" font-size="10.00">atwork_commander::task</text>
<text text-anchor="middle" x="1354" y="-265" font-family="Helvetica,sans-Serif" font-size="10.00">_generator::DefaultConfigParser</text>
</a>
</g>
</g>
<!-- Node10&#45;&gt;Node1 -->
<g id="edge11" class="edge"><title>Node10&#45;&gt;Node1</title>
<path fill="none" stroke="#9a32cd" stroke-dasharray="5,2" d="M1427.01,-290.462C1450.33,-296.229 1476.29,-302.766 1500,-309 1511.92,-312.134 1524.69,-315.611 1536.76,-318.951"/>
<polygon fill="#9a32cd" stroke="#9a32cd" points="1427.74,-287.037 1417.19,-288.041 1426.06,-293.833 1427.74,-287.037"/>
<text text-anchor="middle" x="1480" y="-312" font-family="Helvetica,sans-Serif" font-size="10.00"> mConfig</text>
</g>
<!-- Node11&#45;&gt;Node10 -->
<g id="edge12" class="edge"><title>Node11&#45;&gt;Node10</title>
<path fill="none" stroke="midnightblue" d="M586.281,-290.017C721.054,-288.204 1006.72,-283.879 1248,-277 1256.84,-276.748 1266.11,-276.448 1275.31,-276.127"/>
<polygon fill="midnightblue" stroke="midnightblue" points="586.01,-286.52 576.058,-290.154 586.104,-293.52 586.01,-286.52"/>
</g>
<!-- Node12&#45;&gt;Node10 -->
<g id="edge14" class="edge"><title>Node12&#45;&gt;Node10</title>
<path fill="none" stroke="#9a32cd" stroke-dasharray="5,2" d="M1097.41,-253.368C1151.74,-257.542 1222.29,-262.96 1275.5,-267.047"/>
<polygon fill="#9a32cd" stroke="#9a32cd" points="1097.36,-249.854 1087.12,-252.578 1096.82,-256.833 1097.36,-249.854"/>
<text text-anchor="middle" x="1176.5" y="-268" font-family="Helvetica,sans-Serif" font-size="10.00"> mTasks</text>
</g>
<!-- Node13 -->
<g id="node13" class="node"><title>Node13</title>
<g id="a_node13"><a xlink:href="structatwork__commander_1_1TaskDefinition.html" target="_top" xlink:title="Configuration Information for TaskGenerator representing specific task type. ">
<polygon fill="none" stroke="black" points="600,-198.5 600,-217.5 771,-217.5 771,-198.5 600,-198.5"/>
<text text-anchor="middle" x="685.5" y="-205.5" font-family="Helvetica,sans-Serif" font-size="10.00">atwork_commander::TaskDefinition</text>
</a>
</g>
</g>
<!-- Node13&#45;&gt;Node12 -->
<g id="edge15" class="edge"><title>Node13&#45;&gt;Node12</title>
<path fill="none" stroke="#9a32cd" stroke-dasharray="5,2" d="M781.446,-213.409C824.494,-216.542 875.96,-221.238 922,-228 929.624,-229.12 937.571,-230.488 945.451,-231.971"/>
<polygon fill="#9a32cd" stroke="#9a32cd" points="781.485,-209.903 771.262,-212.685 780.989,-216.885 781.485,-209.903"/>
<text text-anchor="middle" x="858.5" y="-231" font-family="Helvetica,sans-Serif" font-size="10.00"> elements</text>
</g>
<!-- Node14&#45;&gt;Node13 -->
<g id="edge16" class="edge"><title>Node14&#45;&gt;Node13</title>
<path fill="none" stroke="#9a32cd" stroke-dasharray="5,2" d="M419.26,-208C470.114,-208 543.234,-208 599.828,-208"/>
<polygon fill="#9a32cd" stroke="#9a32cd" points="419.08,-204.5 409.08,-208 419.08,-211.5 419.08,-204.5"/>
<text text-anchor="middle" x="507.5" y="-222" font-family="Helvetica,sans-Serif" font-size="10.00"> objects</text>
<text text-anchor="middle" x="507.5" y="-211" font-family="Helvetica,sans-Serif" font-size="10.00">parameters</text>
</g>
<!-- Node16 -->
<g id="node16" class="node"><title>Node16</title>
<g id="a_node16"><a xlink:href="structatwork__commander_1_1ArenaDescription.html" target="_top" xlink:title="Configuration Information for TaskGenerator representing Arena. ">
<polygon fill="none" stroke="black" points="594,-100.5 594,-119.5 777,-119.5 777,-100.5 594,-100.5"/>
<text text-anchor="middle" x="685.5" y="-107.5" font-family="Helvetica,sans-Serif" font-size="10.00">atwork_commander::ArenaDescription</text>
</a>
</g>
</g>
<!-- Node14&#45;&gt;Node16 -->
<g id="edge22" class="edge"><title>Node14&#45;&gt;Node16</title>
<path fill="none" stroke="#9a32cd" stroke-dasharray="5,2" d="M419.035,-194.429C462.975,-184.091 523.647,-168.808 576,-152 606.194,-142.306 640.162,-128.705 661.918,-119.636"/>
<polygon fill="#9a32cd" stroke="#9a32cd" points="418.025,-191.071 409.083,-196.753 419.617,-197.887 418.025,-191.071"/>
<text text-anchor="middle" x="507.5" y="-192" font-family="Helvetica,sans-Serif" font-size="10.00"> objects</text>
</g>
<!-- Node15&#45;&gt;Node13 -->
<g id="edge18" class="edge"><title>Node15&#45;&gt;Node13</title>
<path fill="none" stroke="#9a32cd" stroke-dasharray="5,2" d="M430.491,-75.3064C484.569,-69.6056 553.091,-66.2419 576,-82 594.43,-94.6767 581.196,-110.659 594,-129 615.011,-159.098 649.907,-185.151 669.666,-198.495"/>
<polygon fill="#9a32cd" stroke="#9a32cd" points="429.789,-71.8623 420.231,-76.4333 430.553,-78.8205 429.789,-71.8623"/>
<text text-anchor="middle" x="507.5" y="-140" font-family="Helvetica,sans-Serif" font-size="10.00"> shTypes</text>
<text text-anchor="middle" x="507.5" y="-129" font-family="Helvetica,sans-Serif" font-size="10.00">cavities</text>
<text text-anchor="middle" x="507.5" y="-118" font-family="Helvetica,sans-Serif" font-size="10.00">normalTableTypes</text>
<text text-anchor="middle" x="507.5" y="-107" font-family="Helvetica,sans-Serif" font-size="10.00">ppTypes</text>
<text text-anchor="middle" x="507.5" y="-96" font-family="Helvetica,sans-Serif" font-size="10.00">ttTypes</text>
<text text-anchor="middle" x="507.5" y="-85" font-family="Helvetica,sans-Serif" font-size="10.00">allowedTables</text>
</g>
<!-- Node15&#45;&gt;Node16 -->
<g id="edge25" class="edge"><title>Node15&#45;&gt;Node16</title>
<path fill="none" stroke="#9a32cd" stroke-dasharray="5,2" d="M385.427,-70.8745C400.689,-63.6676 420.4,-55.6644 439,-52 498.741,-40.2303 516.936,-37.204 576,-52 613.502,-61.3944 652.212,-86.4984 671.675,-100.401"/>
<polygon fill="#9a32cd" stroke="#9a32cd" points="383.539,-67.9017 376.097,-75.4419 386.617,-74.1888 383.539,-67.9017"/>
<text text-anchor="middle" x="507.5" y="-55" font-family="Helvetica,sans-Serif" font-size="10.00"> cavities</text>
</g>
<!-- Node16&#45;&gt;Node10 -->
<g id="edge21" class="edge"><title>Node16&#45;&gt;Node10</title>
<path fill="none" stroke="#9a32cd" stroke-dasharray="5,2" d="M735.667,-122.024C855.125,-151.239 1160.43,-225.905 1291.6,-257.984"/>
<polygon fill="#9a32cd" stroke="#9a32cd" points="736.25,-118.564 725.704,-119.588 734.587,-125.363 736.25,-118.564"/>
<text text-anchor="middle" x="1013.5" y="-211" font-family="Helvetica,sans-Serif" font-size="10.00"> mArena</text>
</g>
<!-- Node17&#45;&gt;Node16 -->
<g id="edge23" class="edge"><title>Node17&#45;&gt;Node16</title>
<path fill="none" stroke="#9a32cd" stroke-dasharray="5,2" d="M419.172,-8.31458C463.931,-1.67836 525.558,1.65969 576,-17 622.072,-34.043 661.782,-80.3557 677.41,-100.466"/>
<polygon fill="#9a32cd" stroke="#9a32cd" points="418.364,-4.89873 409.033,-9.91656 419.457,-11.813 418.364,-4.89873"/>
<text text-anchor="middle" x="507.5" y="-31" font-family="Helvetica,sans-Serif" font-size="10.00"> workstations</text>
<text text-anchor="middle" x="507.5" y="-20" font-family="Helvetica,sans-Serif" font-size="10.00">waypoints</text>
</g>
<!-- Node18 -->
<g id="node18" class="node"><title>Node18</title>
<g id="a_node18"><a xlink:title="STL class. ">
<polygon fill="none" stroke="#bfbfbf" points="1302.5,-133 1302.5,-163 1405.5,-163 1405.5,-133 1302.5,-133"/>
<text text-anchor="start" x="1310.5" y="-151" font-family="Helvetica,sans-Serif" font-size="10.00">std::unordered_map</text>
<text text-anchor="middle" x="1354" y="-140" font-family="Helvetica,sans-Serif" font-size="10.00">&lt; K, T &gt;</text>
</a>
</g>
</g>
<!-- Node18&#45;&gt;Node1 -->
<g id="edge26" class="edge"><title>Node18&#45;&gt;Node1</title>
<path fill="none" stroke="#9a32cd" stroke-dasharray="5,2" d="M1382.33,-169.633C1430.47,-207.735 1529.22,-285.891 1570.83,-318.829"/>
<polygon fill="#9a32cd" stroke="#9a32cd" points="1384.24,-166.683 1374.23,-163.221 1379.9,-172.172 1384.24,-166.683"/>
<text text-anchor="middle" x="1480" y="-261" font-family="Helvetica,sans-Serif" font-size="10.00"> mTasks</text>
</g>
<!-- Node19 -->
<g id="node19" class="node"><title>Node19</title>
<polygon fill="none" stroke="#bfbfbf" points="999,-138.5 999,-157.5 1028,-157.5 1028,-138.5 999,-138.5"/>
<text text-anchor="middle" x="1013.5" y="-145.5" font-family="Helvetica,sans-Serif" font-size="10.00">K</text>
</g>
<!-- Node19&#45;&gt;Node18 -->
<g id="edge27" class="edge"><title>Node19&#45;&gt;Node18</title>
<path fill="none" stroke="#9a32cd" stroke-dasharray="5,2" d="M1038.28,-148C1092.9,-148 1228.31,-148 1302.47,-148"/>
<polygon fill="#9a32cd" stroke="#9a32cd" points="1038.19,-144.5 1028.19,-148 1038.19,-151.5 1038.19,-144.5"/>
<text text-anchor="middle" x="1176.5" y="-151" font-family="Helvetica,sans-Serif" font-size="10.00"> keys</text>
</g>
<!-- Node20 -->
<g id="node20" class="node"><title>Node20</title>
<polygon fill="none" stroke="#bfbfbf" points="999,-100.5 999,-119.5 1028,-119.5 1028,-100.5 999,-100.5"/>
<text text-anchor="middle" x="1013.5" y="-107.5" font-family="Helvetica,sans-Serif" font-size="10.00">T</text>
</g>
<!-- Node20&#45;&gt;Node18 -->
<g id="edge28" class="edge"><title>Node20&#45;&gt;Node18</title>
<path fill="none" stroke="#9a32cd" stroke-dasharray="5,2" d="M1038.34,-112.001C1080.62,-115.629 1171.52,-123.776 1248,-133 1265.73,-135.139 1285.1,-137.811 1302.32,-140.304"/>
<polygon fill="#9a32cd" stroke="#9a32cd" points="1038.47,-108.5 1028.21,-111.139 1037.88,-115.475 1038.47,-108.5"/>
<text text-anchor="middle" x="1176.5" y="-136" font-family="Helvetica,sans-Serif" font-size="10.00"> elements</text>
</g>
</g>
</svg>
