<?xml version="1.0" encoding="UTF-8" standalone="no"?>
<!DOCTYPE svg PUBLIC "-//W3C//DTD SVG 1.1//EN"
 "http://www.w3.org/Graphics/SVG/1.1/DTD/svg11.dtd">
<!-- Generated by graphviz version 2.38.0 (20140413.2041)
 -->
<!-- Title: atwork_commander::com_plugin::ros::TaskArenaCentric::onInit Pages: 1 -->
<svg width="538pt" height="78pt"
 viewBox="0.00 0.00 538.00 77.50" xmlns="http://www.w3.org/2000/svg" xmlns:xlink="http://www.w3.org/1999/xlink">
<g id="graph0" class="graph" transform="scale(1 1) rotate(0) translate(4 73.5)">
<title>atwork_commander::com_plugin::ros::TaskArenaCentric::onInit</title>
<!-- Node1 -->
<g id="node1" class="node"><title>Node1</title>
<polygon fill="#bfbfbf" stroke="black" points="0,-11.5 0,-52.5 152,-52.5 152,-11.5 0,-11.5"/>
<text text-anchor="start" x="8" y="-40.5" font-family="Helvetica,sans-Serif" font-size="10.00">atwork_commander::com</text>
<text text-anchor="start" x="8" y="-29.5" font-family="Helvetica,sans-Serif" font-size="10.00">_plugin::ros::TaskArenaCentric</text>
<text text-anchor="middle" x="76" y="-18.5" font-family="Helvetica,sans-Serif" font-size="10.00">::onInit</text>
</g>
<!-- Node2 -->
<g id="node2" class="node"><title>Node2</title>
<g id="a_node2"><a xlink:href="classatwork__commander_1_1com__plugin_1_1ros_1_1TaskArenaCentric.html#a557f44d9b6eb23e10c4f8a7118f8e115" target="_top" xlink:title="atwork_commander::com\l_plugin::ros::TaskArenaCentric\l::receiveRobotStateClb">
<polygon fill="none" stroke="black" points="188,-11.5 188,-52.5 340,-52.5 340,-11.5 188,-11.5"/>
<text text-anchor="start" x="196" y="-40.5" font-family="Helvetica,sans-Serif" font-size="10.00">atwork_commander::com</text>
<text text-anchor="start" x="196" y="-29.5" font-family="Helvetica,sans-Serif" font-size="10.00">_plugin::ros::TaskArenaCentric</text>
<text text-anchor="middle" x="264" y="-18.5" font-family="Helvetica,sans-Serif" font-size="10.00">::receiveRobotStateClb</text>
</a>
</g>
</g>
<!-- Node1&#45;&gt;Node2 -->
<g id="edge1" class="edge"><title>Node1&#45;&gt;Node2</title>
<path fill="none" stroke="midnightblue" d="M152.117,-32C160.596,-32 169.281,-32 177.875,-32"/>
<polygon fill="midnightblue" stroke="midnightblue" points="177.905,-35.5001 187.905,-32 177.905,-28.5001 177.905,-35.5001"/>
</g>
<!-- Node3 -->
<g id="node3" class="node"><title>Node3</title>
<g id="a_node3"><a xlink:href="classatwork__commander_1_1com__plugin_1_1Base.html#a264e3071cb9f86e81b7fe3e0e70e0d1e" target="_top" xlink:title="atwork_commander::com\l_plugin::Base::sendRobotState">
<polygon fill="none" stroke="black" points="377,-39 377,-69 529,-69 529,-39 377,-39"/>
<text text-anchor="start" x="385" y="-57" font-family="Helvetica,sans-Serif" font-size="10.00">atwork_commander::com</text>
<text text-anchor="middle" x="453" y="-46" font-family="Helvetica,sans-Serif" font-size="10.00">_plugin::Base::sendRobotState</text>
</a>
</g>
</g>
<!-- Node2&#45;&gt;Node3 -->
<g id="edge2" class="edge"><title>Node2&#45;&gt;Node3</title>
<path fill="none" stroke="midnightblue" d="M340.252,-40.8531C349.027,-41.8855 358.025,-42.9441 366.92,-43.9906"/>
<polygon fill="midnightblue" stroke="midnightblue" points="366.562,-47.4725 376.902,-45.165 367.38,-40.5205 366.562,-47.4725"/>
</g>
<!-- Node4 -->
<g id="node4" class="node"><title>Node4</title>
<g id="a_node4"><a xlink:href="jurek_2Generator_8cpp.html#a28c1581327242b076230921c81cb75a4" target="_top" xlink:title="PLUGINLIB_EXPORT_CLASS">
<polygon fill="none" stroke="black" points="376,-0.5 376,-19.5 530,-19.5 530,-0.5 376,-0.5"/>
<text text-anchor="middle" x="453" y="-7.5" font-family="Helvetica,sans-Serif" font-size="10.00">PLUGINLIB_EXPORT_CLASS</text>
</a>
</g>
</g>
<!-- Node2&#45;&gt;Node4 -->
<g id="edge3" class="edge"><title>Node2&#45;&gt;Node4</title>
<path fill="none" stroke="midnightblue" d="M340.252,-23.1469C348.713,-22.1514 357.382,-21.1315 365.967,-20.1215"/>
<polygon fill="midnightblue" stroke="midnightblue" points="366.466,-23.5871 375.988,-18.9425 365.648,-16.635 366.466,-23.5871"/>
</g>
</g>
</svg>
