<?xml version="1.0" encoding="UTF-8" standalone="no"?>
<!DOCTYPE svg PUBLIC "-//W3C//DTD SVG 1.1//EN"
 "http://www.w3.org/Graphics/SVG/1.1/DTD/svg11.dtd">
<!-- Generated by graphviz version 2.38.0 (20140413.2041)
 -->
<!-- Title: atwork_commander::RefboxUI Pages: 1 -->
<svg width="995pt" height="662pt"
 viewBox="0.00 0.00 995.00 661.54" xmlns="http://www.w3.org/2000/svg" xmlns:xlink="http://www.w3.org/1999/xlink">
<g id="graph0" class="graph" transform="scale(1 1) rotate(0) translate(4 657.538)">
<title>atwork_commander::RefboxUI</title>
<!-- Node1 -->
<g id="node1" class="node"><title>Node1</title>
<polygon fill="#bfbfbf" stroke="black" points="837,-500.538 837,-519.538 987,-519.538 987,-500.538 837,-500.538"/>
<text text-anchor="middle" x="912" y="-507.538" font-family="Helvetica,sans-Serif" font-size="10.00">atwork_commander::RefboxUI</text>
</g>
<!-- Node2 -->
<g id="node2" class="node"><title>Node2</title>
<polygon fill="none" stroke="#bfbfbf" points="659,-602.538 659,-621.538 722,-621.538 722,-602.538 659,-602.538"/>
<text text-anchor="middle" x="690.5" y="-609.538" font-family="Helvetica,sans-Serif" font-size="10.00">rviz::Panel</text>
</g>
<!-- Node2&#45;&gt;Node1 -->
<g id="edge1" class="edge"><title>Node2&#45;&gt;Node1</title>
<path fill="none" stroke="midnightblue" d="M731.956,-602.956C741.936,-600.222 752.487,-596.901 762,-593.038 813.852,-571.981 870.355,-536.776 896.379,-519.791"/>
<polygon fill="midnightblue" stroke="midnightblue" points="731.019,-599.584 722.226,-605.494 732.786,-606.357 731.019,-599.584"/>
</g>
<!-- Node3 -->
<g id="node3" class="node"><title>Node3</title>
<g id="a_node3"><a xlink:href="classatwork__commander_1_1TaskGenVisGroup.html" target="_top" xlink:title="Qt widget displaying task generator information. ">
<polygon fill="none" stroke="black" points="383.5,-176.038 383.5,-206.038 531.5,-206.038 531.5,-176.038 383.5,-176.038"/>
<text text-anchor="start" x="391.5" y="-194.038" font-family="Helvetica,sans-Serif" font-size="10.00">atwork_commander::TaskGen</text>
<text text-anchor="middle" x="457.5" y="-183.038" font-family="Helvetica,sans-Serif" font-size="10.00">VisGroup</text>
</a>
</g>
</g>
<!-- Node3&#45;&gt;Node1 -->
<g id="edge2" class="edge"><title>Node3&#45;&gt;Node1</title>
<path fill="none" stroke="#9a32cd" stroke-dasharray="5,2" d="M488.272,-212.027C576.679,-274.351 835.366,-456.718 897.478,-500.505"/>
<polygon fill="#9a32cd" stroke="#9a32cd" points="490.21,-209.111 480.021,-206.209 486.177,-214.832 490.21,-209.111"/>
<text text-anchor="middle" x="690.5" y="-405.038" font-family="Helvetica,sans-Serif" font-size="10.00"> taskGenVG</text>
</g>
<!-- Node4 -->
<g id="node4" class="node"><title>Node4</title>
<g id="a_node4"><a xlink:href="classatwork__commander_1_1VisGroup.html" target="_top" xlink:title="Abstract Base Class VisGroup. ">
<polygon fill="none" stroke="black" points="98,-559.538 98,-578.538 247,-578.538 247,-559.538 98,-559.538"/>
<text text-anchor="middle" x="172.5" y="-566.538" font-family="Helvetica,sans-Serif" font-size="10.00">atwork_commander::VisGroup</text>
</a>
</g>
</g>
<!-- Node4&#45;&gt;Node3 -->
<g id="edge3" class="edge"><title>Node4&#45;&gt;Node3</title>
<path fill="none" stroke="midnightblue" d="M182.899,-550.532C197.824,-522.998 229.548,-471.449 271,-443.038 306.957,-418.393 332.699,-444.31 365,-415.038 429.434,-356.645 449.491,-246.228 454.809,-206.098"/>
<polygon fill="midnightblue" stroke="midnightblue" points="179.738,-549.024 178.173,-559.502 185.931,-552.286 179.738,-549.024"/>
</g>
<!-- Node13 -->
<g id="node13" class="node"><title>Node13</title>
<g id="a_node13"><a xlink:href="classatwork__commander_1_1MainVisGroup.html" target="_top" xlink:title="The outer Widget managing all subGroups. ">
<polygon fill="none" stroke="black" points="619,-553.038 619,-583.038 762,-583.038 762,-553.038 619,-553.038"/>
<text text-anchor="start" x="627" y="-571.038" font-family="Helvetica,sans-Serif" font-size="10.00">atwork_commander::MainVis</text>
<text text-anchor="middle" x="690.5" y="-560.038" font-family="Helvetica,sans-Serif" font-size="10.00">Group</text>
</a>
</g>
</g>
<!-- Node4&#45;&gt;Node13 -->
<g id="edge13" class="edge"><title>Node4&#45;&gt;Node13</title>
<path fill="none" stroke="midnightblue" d="M257.349,-575.445C261.965,-575.677 266.539,-575.878 271,-576.038 393.188,-580.418 535.535,-575.585 618.765,-571.757"/>
<polygon fill="midnightblue" stroke="midnightblue" points="257.378,-571.942 247.203,-574.892 256.997,-578.931 257.378,-571.942"/>
</g>
<!-- Node14 -->
<g id="node14" class="node"><title>Node14</title>
<polygon fill="none" stroke="#bfbfbf" points="390,-623.038 390,-653.038 525,-653.038 525,-623.038 390,-623.038"/>
<text text-anchor="start" x="398" y="-641.038" font-family="Helvetica,sans-Serif" font-size="10.00">std::vector&lt; atwork</text>
<text text-anchor="middle" x="457.5" y="-630.038" font-family="Helvetica,sans-Serif" font-size="10.00">_commander::VisGroup * &gt;</text>
</g>
<!-- Node4&#45;&gt;Node14 -->
<g id="edge15" class="edge"><title>Node4&#45;&gt;Node14</title>
<path fill="none" stroke="#9a32cd" stroke-dasharray="5,2" d="M202.915,-582.779C221.964,-591.179 247.512,-601.527 271,-608.038 309.668,-618.757 354.002,-626.101 389.629,-630.839"/>
<polygon fill="#9a32cd" stroke="#9a32cd" points="204.147,-579.496 193.591,-578.594 201.281,-585.882 204.147,-579.496"/>
<text text-anchor="middle" x="318" y="-629.038" font-family="Helvetica,sans-Serif" font-size="10.00"> elements</text>
</g>
<!-- Node15 -->
<g id="node15" class="node"><title>Node15</title>
<g id="a_node15"><a xlink:href="classatwork__commander_1_1RobotVisGroup.html" target="_top" xlink:title="Qt widget displaying robot information and control buttons. ">
<polygon fill="none" stroke="black" points="383,-495.038 383,-525.038 532,-525.038 532,-495.038 383,-495.038"/>
<text text-anchor="start" x="391" y="-513.038" font-family="Helvetica,sans-Serif" font-size="10.00">atwork_commander::RobotVis</text>
<text text-anchor="middle" x="457.5" y="-502.038" font-family="Helvetica,sans-Serif" font-size="10.00">Group</text>
</a>
</g>
</g>
<!-- Node4&#45;&gt;Node15 -->
<g id="edge17" class="edge"><title>Node4&#45;&gt;Node15</title>
<path fill="none" stroke="midnightblue" d="M257.678,-569.823C291.52,-568.355 330.597,-564.375 365,-555.038 389.089,-548.5 414.4,-535.513 432.279,-525.164"/>
<polygon fill="midnightblue" stroke="midnightblue" points="257.219,-566.337 247.354,-570.201 257.475,-573.333 257.219,-566.337"/>
</g>
<!-- Node16 -->
<g id="node16" class="node"><title>Node16</title>
<g id="a_node16"><a xlink:href="classatwork__commander_1_1ArenaVisGroup.html" target="_top" xlink:title="Qt widget displaying task generator information. ">
<polygon fill="none" stroke="black" points="383.5,-446.038 383.5,-476.038 531.5,-476.038 531.5,-446.038 383.5,-446.038"/>
<text text-anchor="start" x="391.5" y="-464.038" font-family="Helvetica,sans-Serif" font-size="10.00">atwork_commander::ArenaVis</text>
<text text-anchor="middle" x="457.5" y="-453.038" font-family="Helvetica,sans-Serif" font-size="10.00">Group</text>
</a>
</g>
</g>
<!-- Node4&#45;&gt;Node16 -->
<g id="edge21" class="edge"><title>Node4&#45;&gt;Node16</title>
<path fill="none" stroke="midnightblue" d="M257.154,-559.861C300.727,-553.572 348.333,-543.841 365,-530.038 381.273,-516.561 367.615,-500.52 383,-486.038 387.122,-482.158 391.87,-478.878 396.927,-476.106"/>
<polygon fill="midnightblue" stroke="midnightblue" points="256.483,-556.421 247.062,-561.269 257.45,-563.354 256.483,-556.421"/>
</g>
<!-- Node5 -->
<g id="node5" class="node"><title>Node5</title>
<polygon fill="none" stroke="#bfbfbf" points="0,-559.538 0,-578.538 55,-578.538 55,-559.538 0,-559.538"/>
<text text-anchor="middle" x="27.5" y="-566.538" font-family="Helvetica,sans-Serif" font-size="10.00">QWidget</text>
</g>
<!-- Node5&#45;&gt;Node4 -->
<g id="edge4" class="edge"><title>Node5&#45;&gt;Node4</title>
<path fill="none" stroke="midnightblue" d="M65.1016,-569.038C75.2107,-569.038 86.553,-569.038 97.9644,-569.038"/>
<polygon fill="midnightblue" stroke="midnightblue" points="65.0621,-565.538 55.0621,-569.038 65.062,-572.538 65.0621,-565.538"/>
</g>
<!-- Node6 -->
<g id="node6" class="node"><title>Node6</title>
<polygon fill="none" stroke="#bfbfbf" points="93.5,-400.538 93.5,-419.538 251.5,-419.538 251.5,-400.538 93.5,-400.538"/>
<text text-anchor="middle" x="172.5" y="-407.538" font-family="Helvetica,sans-Serif" font-size="10.00">std::unique_ptr&lt; QPushButton &gt;</text>
</g>
<!-- Node6&#45;&gt;Node3 -->
<g id="edge5" class="edge"><title>Node6&#45;&gt;Node3</title>
<path fill="none" stroke="#9a32cd" stroke-dasharray="5,2" d="M191.614,-393.621C217.258,-370.506 262.038,-330.653 271,-326.038 309.238,-306.346 328.625,-325.989 365,-303.038 404.284,-278.251 434.575,-230.799 448.355,-206.384"/>
<polygon fill="#9a32cd" stroke="#9a32cd" points="189.104,-391.171 184.03,-400.472 193.796,-396.366 189.104,-391.171"/>
<text text-anchor="middle" x="318" y="-340.038" font-family="Helvetica,sans-Serif" font-size="10.00"> generateButton</text>
<text text-anchor="middle" x="318" y="-329.038" font-family="Helvetica,sans-Serif" font-size="10.00">loadButton</text>
</g>
<!-- Node6&#45;&gt;Node15 -->
<g id="edge18" class="edge"><title>Node6&#45;&gt;Node15</title>
<path fill="none" stroke="#9a32cd" stroke-dasharray="5,2" d="M193.023,-426.186C211.839,-440.906 241.693,-462.118 271,-474.038 306.403,-488.436 348,-497.186 382.821,-502.445"/>
<polygon fill="#9a32cd" stroke="#9a32cd" points="194.958,-423.252 184.961,-419.743 190.588,-428.72 194.958,-423.252"/>
<text text-anchor="middle" x="318" y="-523.038" font-family="Helvetica,sans-Serif" font-size="10.00"> stopButton</text>
<text text-anchor="middle" x="318" y="-512.038" font-family="Helvetica,sans-Serif" font-size="10.00">playPauseButton</text>
<text text-anchor="middle" x="318" y="-501.038" font-family="Helvetica,sans-Serif" font-size="10.00">forwardButton</text>
</g>
<!-- Node7 -->
<g id="node7" class="node"><title>Node7</title>
<polygon fill="none" stroke="#bfbfbf" points="101.5,-127.538 101.5,-146.538 243.5,-146.538 243.5,-127.538 101.5,-127.538"/>
<text text-anchor="middle" x="172.5" y="-134.538" font-family="Helvetica,sans-Serif" font-size="10.00">std::unique_ptr&lt; QLineEdit &gt;</text>
</g>
<!-- Node7&#45;&gt;Node3 -->
<g id="edge6" class="edge"><title>Node7&#45;&gt;Node3</title>
<path fill="none" stroke="#9a32cd" stroke-dasharray="5,2" d="M253.718,-134.221C288.41,-134.791 329.184,-137.885 365,-147.038 388.909,-153.148 414.033,-165.734 431.892,-175.886"/>
<polygon fill="#9a32cd" stroke="#9a32cd" points="253.666,-130.721 243.632,-134.123 253.598,-137.72 253.666,-130.721"/>
<text text-anchor="middle" x="318" y="-172.038" font-family="Helvetica,sans-Serif" font-size="10.00"> runTimeLineEdit</text>
<text text-anchor="middle" x="318" y="-161.038" font-family="Helvetica,sans-Serif" font-size="10.00">prepTimeLineEdit</text>
<text text-anchor="middle" x="318" y="-150.038" font-family="Helvetica,sans-Serif" font-size="10.00">pptCavatiesLineEdit</text>
</g>
<!-- Node8 -->
<g id="node8" class="node"><title>Node8</title>
<polygon fill="none" stroke="#bfbfbf" points="92.5,-46.5378 92.5,-65.5378 252.5,-65.5378 252.5,-46.5378 92.5,-46.5378"/>
<text text-anchor="middle" x="172.5" y="-53.5378" font-family="Helvetica,sans-Serif" font-size="10.00">std::unique_ptr&lt; QVBoxLayout &gt;</text>
</g>
<!-- Node8&#45;&gt;Node3 -->
<g id="edge7" class="edge"><title>Node8&#45;&gt;Node3</title>
<path fill="none" stroke="#9a32cd" stroke-dasharray="5,2" d="M262.988,-49.8913C296.729,-51.2024 334.333,-57.2679 365,-74.0378 407.761,-97.4208 437.256,-150.049 449.765,-175.995"/>
<polygon fill="#9a32cd" stroke="#9a32cd" points="262.737,-46.3839 252.652,-49.6304 262.561,-53.3817 262.737,-46.3839"/>
<text text-anchor="middle" x="318" y="-88.0378" font-family="Helvetica,sans-Serif" font-size="10.00"> arenaStartVBox</text>
<text text-anchor="middle" x="318" y="-77.0378" font-family="Helvetica,sans-Serif" font-size="10.00">arenaEndVBox</text>
</g>
<!-- Node9 -->
<g id="node9" class="node"><title>Node9</title>
<polygon fill="none" stroke="#bfbfbf" points="101,-1.53785 101,-20.5378 244,-20.5378 244,-1.53785 101,-1.53785"/>
<text text-anchor="middle" x="172.5" y="-8.53785" font-family="Helvetica,sans-Serif" font-size="10.00">std::unique_ptr&lt; QTextEdit &gt;</text>
</g>
<!-- Node9&#45;&gt;Node3 -->
<g id="edge8" class="edge"><title>Node9&#45;&gt;Node3</title>
<path fill="none" stroke="#9a32cd" stroke-dasharray="5,2" d="M242.256,-0.771548C281.16,1.49098 329.061,-2.00193 365,-25.0378 420.41,-60.5539 445.089,-141.895 453.235,-175.781"/>
<polygon fill="#9a32cd" stroke="#9a32cd" points="241.78,2.70331 232.057,-1.50614 242.283,-4.2786 241.78,2.70331"/>
<text text-anchor="middle" x="318" y="-39.0378" font-family="Helvetica,sans-Serif" font-size="10.00"> arenaStartText</text>
<text text-anchor="middle" x="318" y="-28.0378" font-family="Helvetica,sans-Serif" font-size="10.00">arenaEndText</text>
</g>
<!-- Node10 -->
<g id="node10" class="node"><title>Node10</title>
<polygon fill="none" stroke="#bfbfbf" points="107.5,-226.538 107.5,-245.538 237.5,-245.538 237.5,-226.538 107.5,-226.538"/>
<text text-anchor="middle" x="172.5" y="-233.538" font-family="Helvetica,sans-Serif" font-size="10.00">std::unique_ptr&lt; QLabel &gt;</text>
</g>
<!-- Node10&#45;&gt;Node3 -->
<g id="edge9" class="edge"><title>Node10&#45;&gt;Node3</title>
<path fill="none" stroke="#9a32cd" stroke-dasharray="5,2" d="M198.266,-221.351C217.396,-210.892 244.923,-197.723 271,-192.038 307.501,-184.08 349.01,-183.129 383.494,-184.468"/>
<polygon fill="#9a32cd" stroke="#9a32cd" points="196.338,-218.419 189.336,-226.371 199.768,-224.521 196.338,-218.419"/>
<text text-anchor="middle" x="318" y="-239.038" font-family="Helvetica,sans-Serif" font-size="10.00"> runTimeLabel</text>
<text text-anchor="middle" x="318" y="-228.038" font-family="Helvetica,sans-Serif" font-size="10.00">arenaEndLabel</text>
<text text-anchor="middle" x="318" y="-217.038" font-family="Helvetica,sans-Serif" font-size="10.00">prepTimeLabel</text>
<text text-anchor="middle" x="318" y="-206.038" font-family="Helvetica,sans-Serif" font-size="10.00">taskListLabel</text>
<text text-anchor="middle" x="318" y="-195.038" font-family="Helvetica,sans-Serif" font-size="10.00">arenaStartLabel</text>
</g>
<!-- Node10&#45;&gt;Node16 -->
<g id="edge22" class="edge"><title>Node10&#45;&gt;Node16</title>
<path fill="none" stroke="#9a32cd" stroke-dasharray="5,2" d="M198.171,-251.178C215.543,-262.922 238.243,-280.609 253,-301.038 266.098,-319.17 254.146,-333.331 271,-348.038 303.329,-376.248 327.476,-349.231 365,-370.038 399.681,-389.268 430.145,-425.408 445.645,-445.882"/>
<polygon fill="#9a32cd" stroke="#9a32cd" points="199.927,-248.144 189.643,-245.595 196.093,-254.001 199.927,-248.144"/>
<text text-anchor="middle" x="318" y="-406.038" font-family="Helvetica,sans-Serif" font-size="10.00"> rtt_label</text>
<text text-anchor="middle" x="318" y="-395.038" font-family="Helvetica,sans-Serif" font-size="10.00">ppt_label</text>
<text text-anchor="middle" x="318" y="-384.038" font-family="Helvetica,sans-Serif" font-size="10.00">known_objects_label</text>
<text text-anchor="middle" x="318" y="-373.038" font-family="Helvetica,sans-Serif" font-size="10.00">known_cavities_label</text>
</g>
<!-- Node11 -->
<g id="node11" class="node"><title>Node11</title>
<polygon fill="none" stroke="#bfbfbf" points="95,-89.5378 95,-108.538 250,-108.538 250,-89.5378 95,-89.5378"/>
<text text-anchor="middle" x="172.5" y="-96.5378" font-family="Helvetica,sans-Serif" font-size="10.00">std::unique_ptr&lt; QComboBox &gt;</text>
</g>
<!-- Node11&#45;&gt;Node3 -->
<g id="edge10" class="edge"><title>Node11&#45;&gt;Node3</title>
<path fill="none" stroke="#9a32cd" stroke-dasharray="5,2" d="M260.683,-98.5778C294.291,-100.949 332.408,-106.847 365,-120.038 396.126,-132.635 425.58,-159.011 442.298,-175.828"/>
<polygon fill="#9a32cd" stroke="#9a32cd" points="260.603,-95.0666 250.408,-97.9511 260.177,-102.054 260.603,-95.0666"/>
<text text-anchor="middle" x="318" y="-123.038" font-family="Helvetica,sans-Serif" font-size="10.00"> taskListCombo</text>
</g>
<!-- Node12 -->
<g id="node12" class="node"><title>Node12</title>
<polygon fill="none" stroke="#bfbfbf" points="92,-310.538 92,-329.538 253,-329.538 253,-310.538 92,-310.538"/>
<text text-anchor="middle" x="172.5" y="-317.538" font-family="Helvetica,sans-Serif" font-size="10.00">std::unique_ptr&lt; QHBoxLayout &gt;</text>
</g>
<!-- Node12&#45;&gt;Node3 -->
<g id="edge11" class="edge"><title>Node12&#45;&gt;Node3</title>
<path fill="none" stroke="#9a32cd" stroke-dasharray="5,2" d="M197.925,-305.478C217.218,-294.484 245.113,-279.691 271,-270.038 311.3,-255.011 325.295,-263.572 365,-247.038 390.962,-236.227 418.131,-218.686 436.051,-206.116"/>
<polygon fill="#9a32cd" stroke="#9a32cd" points="196.094,-302.493 189.191,-310.531 199.6,-308.552 196.094,-302.493"/>
<text text-anchor="middle" x="318" y="-295.038" font-family="Helvetica,sans-Serif" font-size="10.00"> basicHBox</text>
<text text-anchor="middle" x="318" y="-284.038" font-family="Helvetica,sans-Serif" font-size="10.00">buttonHBox</text>
<text text-anchor="middle" x="318" y="-273.038" font-family="Helvetica,sans-Serif" font-size="10.00">arenaHBox</text>
</g>
<!-- Node12&#45;&gt;Node15 -->
<g id="edge19" class="edge"><title>Node12&#45;&gt;Node15</title>
<path fill="none" stroke="#9a32cd" stroke-dasharray="5,2" d="M194.365,-336.195C211.225,-349.81 235.025,-370.332 253,-391.038 262.454,-401.929 260.024,-408.682 271,-418.038 305.962,-447.841 329.507,-431.869 365,-461.038 375.578,-469.731 371.947,-477.958 383,-486.038 387.66,-489.444 392.828,-492.383 398.202,-494.916"/>
<polygon fill="#9a32cd" stroke="#9a32cd" points="196.253,-333.225 186.248,-329.741 191.896,-338.704 196.253,-333.225"/>
<text text-anchor="middle" x="318" y="-464.038" font-family="Helvetica,sans-Serif" font-size="10.00"> buttonHBox</text>
</g>
<!-- Node13&#45;&gt;Node1 -->
<g id="edge12" class="edge"><title>Node13&#45;&gt;Node1</title>
<path fill="none" stroke="#9a32cd" stroke-dasharray="5,2" d="M758.359,-550.371C796.635,-540.257 843.17,-527.961 874.722,-519.624"/>
<polygon fill="#9a32cd" stroke="#9a32cd" points="757.086,-547.087 748.312,-553.026 758.875,-553.855 757.086,-547.087"/>
<text text-anchor="middle" x="799.5" y="-547.038" font-family="Helvetica,sans-Serif" font-size="10.00"> mainVG</text>
</g>
<!-- Node14&#45;&gt;Node13 -->
<g id="edge14" class="edge"><title>Node14&#45;&gt;Node13</title>
<path fill="none" stroke="#9a32cd" stroke-dasharray="5,2" d="M535.217,-628.966C557.189,-624.51 580.677,-617.883 601,-608.038 610.372,-603.498 609.951,-598.192 619,-593.038 625.545,-589.31 632.743,-585.988 639.962,-583.079"/>
<polygon fill="#9a32cd" stroke="#9a32cd" points="534.415,-625.556 525.246,-630.865 535.724,-632.433 534.415,-625.556"/>
<text text-anchor="middle" x="575.5" y="-628.038" font-family="Helvetica,sans-Serif" font-size="10.00"> subGroups</text>
</g>
<!-- Node15&#45;&gt;Node1 -->
<g id="edge16" class="edge"><title>Node15&#45;&gt;Node1</title>
<path fill="none" stroke="#9a32cd" stroke-dasharray="5,2" d="M542.289,-510.038C626.817,-510.038 756.071,-510.038 836.947,-510.038"/>
<polygon fill="#9a32cd" stroke="#9a32cd" points="542.209,-506.538 532.209,-510.038 542.209,-513.538 542.209,-506.538"/>
<text text-anchor="middle" x="690.5" y="-513.038" font-family="Helvetica,sans-Serif" font-size="10.00"> robotGenVG</text>
</g>
<!-- Node16&#45;&gt;Node1 -->
<g id="edge20" class="edge"><title>Node16&#45;&gt;Node1</title>
<path fill="none" stroke="#9a32cd" stroke-dasharray="5,2" d="M541.775,-470.055C626.232,-479.201 755.721,-493.223 836.772,-502"/>
<polygon fill="#9a32cd" stroke="#9a32cd" points="542.024,-466.562 531.705,-468.965 541.27,-473.521 542.024,-466.562"/>
<text text-anchor="middle" x="690.5" y="-496.038" font-family="Helvetica,sans-Serif" font-size="10.00"> arenaGenVG</text>
</g>
</g>
</svg>
