<?xml version="1.0" encoding="UTF-8" standalone="no"?>
<!DOCTYPE svg PUBLIC "-//W3C//DTD SVG 1.1//EN"
 "http://www.w3.org/Graphics/SVG/1.1/DTD/svg11.dtd">
<!-- Generated by graphviz version 2.38.0 (20140413.2041)
 -->
<!-- Title: atwork_commander::ArenaVisGroup Pages: 1 -->
<svg width="325pt" height="196pt"
 viewBox="0.00 0.00 324.50 196.00" xmlns="http://www.w3.org/2000/svg" xmlns:xlink="http://www.w3.org/1999/xlink">
<g id="graph0" class="graph" transform="scale(1 1) rotate(0) translate(4 192)">
<title>atwork_commander::ArenaVisGroup</title>
<!-- Node1 -->
<g id="node1" class="node"><title>Node1</title>
<polygon fill="#bfbfbf" stroke="black" points="118.5,-0.5 118.5,-30.5 266.5,-30.5 266.5,-0.5 118.5,-0.5"/>
<text text-anchor="start" x="126.5" y="-18.5" font-family="Helvetica,sans-Serif" font-size="10.00">atwork_commander::ArenaVis</text>
<text text-anchor="middle" x="192.5" y="-7.5" font-family="Helvetica,sans-Serif" font-size="10.00">Group</text>
</g>
<!-- Node2 -->
<g id="node2" class="node"><title>Node2</title>
<g id="a_node2"><a xlink:href="classatwork__commander_1_1VisGroup.html" target="_top" xlink:title="Abstract Base Class VisGroup. ">
<polygon fill="none" stroke="black" points="0,-111.5 0,-130.5 149,-130.5 149,-111.5 0,-111.5"/>
<text text-anchor="middle" x="74.5" y="-118.5" font-family="Helvetica,sans-Serif" font-size="10.00">atwork_commander::VisGroup</text>
</a>
</g>
</g>
<!-- Node2&#45;&gt;Node1 -->
<g id="edge1" class="edge"><title>Node2&#45;&gt;Node1</title>
<path fill="none" stroke="midnightblue" d="M92.1245,-104.541C114.849,-84.609 154.064,-50.2131 176.151,-30.8403"/>
<polygon fill="midnightblue" stroke="midnightblue" points="89.7706,-101.95 84.5606,-111.176 94.3864,-107.213 89.7706,-101.95"/>
</g>
<!-- Node3 -->
<g id="node3" class="node"><title>Node3</title>
<polygon fill="none" stroke="#bfbfbf" points="47,-168.5 47,-187.5 102,-187.5 102,-168.5 47,-168.5"/>
<text text-anchor="middle" x="74.5" y="-175.5" font-family="Helvetica,sans-Serif" font-size="10.00">QWidget</text>
</g>
<!-- Node3&#45;&gt;Node2 -->
<g id="edge2" class="edge"><title>Node3&#45;&gt;Node2</title>
<path fill="none" stroke="midnightblue" d="M74.5,-158.117C74.5,-148.817 74.5,-138.056 74.5,-130.715"/>
<polygon fill="midnightblue" stroke="midnightblue" points="71.0001,-158.406 74.5,-168.406 78.0001,-158.406 71.0001,-158.406"/>
</g>
<!-- Node4 -->
<g id="node4" class="node"><title>Node4</title>
<polygon fill="none" stroke="#bfbfbf" points="167.5,-111.5 167.5,-130.5 297.5,-130.5 297.5,-111.5 167.5,-111.5"/>
<text text-anchor="middle" x="232.5" y="-118.5" font-family="Helvetica,sans-Serif" font-size="10.00">std::unique_ptr&lt; QLabel &gt;</text>
</g>
<!-- Node4&#45;&gt;Node1 -->
<g id="edge3" class="edge"><title>Node4&#45;&gt;Node1</title>
<path fill="none" stroke="#9a32cd" stroke-dasharray="5,2" d="M225.481,-101.838C217.667,-81.6207 205.201,-49.3634 198.042,-30.8403"/>
<polygon fill="#9a32cd" stroke="#9a32cd" points="222.22,-103.11 229.09,-111.176 228.749,-100.586 222.22,-103.11"/>
<text text-anchor="middle" x="269.5" y="-85" font-family="Helvetica,sans-Serif" font-size="10.00"> rtt_label</text>
<text text-anchor="middle" x="269.5" y="-74" font-family="Helvetica,sans-Serif" font-size="10.00">ppt_label</text>
<text text-anchor="middle" x="269.5" y="-63" font-family="Helvetica,sans-Serif" font-size="10.00">known_objects_label</text>
<text text-anchor="middle" x="269.5" y="-52" font-family="Helvetica,sans-Serif" font-size="10.00">known_cavities_label</text>
</g>
</g>
</svg>
