<?xml version="1.0" encoding="UTF-8" standalone="no"?>
<!DOCTYPE svg PUBLIC "-//W3C//DTD SVG 1.1//EN"
 "http://www.w3.org/Graphics/SVG/1.1/DTD/svg11.dtd">
<!-- Generated by graphviz version 2.38.0 (20140413.2041)
 -->
<!-- Title: atwork_commander::StateTracker::state2string Pages: 1 -->
<!--zoomable 317 -->
<svg id="main" version="1.1" xmlns="http://www.w3.org/2000/svg" xmlns:xlink="http://www.w3.org/1999/xlink" xml:space="preserve" onload="init(evt)">
<style type="text/css"><![CDATA[
.edge:hover path { stroke: red; }
.edge:hover polygon { stroke: red; fill: red; }
]]></style>
<script type="text/javascript"><![CDATA[
var edges = document.getElementsByTagName('g');
if (edges && edges.length) {
  for (var i=0;i<edges.length;i++) {
    if (edges[i].id.substr(0,4)=='edge') {
      edges[i].setAttribute('class','edge');
    }
  }
}
]]></script>
        <defs>
                <circle id="rim" cx="0" cy="0" r="7"/>
                <circle id="rim2" cx="0" cy="0" r="3.5"/>
                <g id="zoomPlus">
                        <use xlink:href="#rim" fill="#404040">
                                <set attributeName="fill" to="#808080" begin="zoomplus.mouseover" end="zoomplus.mouseout"/>
                        </use>
                        <path d="M-4,0h8M0,-4v8" fill="none" stroke="white" stroke-width="1.5" pointer-events="none"/>
                </g>
                <g id="zoomMin">
                        <use xlink:href="#rim" fill="#404040">
                                <set attributeName="fill" to="#808080" begin="zoomminus.mouseover" end="zoomminus.mouseout"/>
                        </use>
                        <path d="M-4,0h8" fill="none" stroke="white" stroke-width="1.5" pointer-events="none"/>
                </g>
                <g id="dirArrow">
                        <path fill="none" stroke="white" stroke-width="1.5" d="M0,-3.0v7 M-2.5,-0.5L0,-3.0L2.5,-0.5"/>
                </g>
               <g id="resetDef">
                       <use xlink:href="#rim2" fill="#404040">
                               <set attributeName="fill" to="#808080" begin="reset.mouseover" end="reset.mouseout"/>
                       </use>
               </g>
        </defs>

<script type="text/javascript">
var viewWidth = 772;
var viewHeight = 317;
var sectionId = 'dynsection-16';
</script>
<script xlink:href="svgpan.js"/>
<svg id="graph" class="graph">
<g id="viewport">
<title>atwork_commander::StateTracker::state2string</title>
<!-- Node1 -->
<g id="node1" class="node"><title>Node1</title>
<polygon fill="#bfbfbf" stroke="black" points="0,-217.5 0,-247.5 164,-247.5 164,-217.5 0,-217.5"/>
<text text-anchor="start" x="8" y="-235.5" font-family="Helvetica,sans-Serif" font-size="10.00">atwork_commander::StateTracker</text>
<text text-anchor="middle" x="82" y="-224.5" font-family="Helvetica,sans-Serif" font-size="10.00">::state2string</text>
</g>
<!-- Node2 -->
<g id="node2" class="node"><title>Node2</title>
<g id="a_node2"><a xlink:href="classatwork__commander_1_1StateTracker.html#adcf0d14717c99d14991da110630818f4" target="_top" xlink:title="atwork_commander::StateTracker\l::publishUpdate">
<polygon fill="none" stroke="black" points="200,-265.5 200,-295.5 364,-295.5 364,-265.5 200,-265.5"/>
<text text-anchor="start" x="208" y="-283.5" font-family="Helvetica,sans-Serif" font-size="10.00">atwork_commander::StateTracker</text>
<text text-anchor="middle" x="282" y="-272.5" font-family="Helvetica,sans-Serif" font-size="10.00">::publishUpdate</text>
</a>
</g>
</g>
<!-- Node1&#45;&gt;Node2 -->
<g id="edge1" class="edge"><title>Node1&#45;&gt;Node2</title>
<path fill="none" stroke="midnightblue" d="M154.947,-249.942C175.976,-255.04 198.768,-260.565 219.115,-265.498"/>
<polygon fill="midnightblue" stroke="midnightblue" points="155.648,-246.51 145.105,-247.556 153.999,-253.313 155.648,-246.51"/>
</g>
<!-- Node4 -->
<g id="node4" class="node"><title>Node4</title>
<g id="a_node4"><a xlink:href="classatwork__commander_1_1StateTracker.html#a107ea4b9a37d39d2251f29451ae8db1d" target="_top" xlink:title="atwork_commander::StateTracker\l::stateUpdate">
<polygon fill="none" stroke="black" points="200,-170.5 200,-200.5 364,-200.5 364,-170.5 200,-170.5"/>
<text text-anchor="start" x="208" y="-188.5" font-family="Helvetica,sans-Serif" font-size="10.00">atwork_commander::StateTracker</text>
<text text-anchor="middle" x="282" y="-177.5" font-family="Helvetica,sans-Serif" font-size="10.00">::stateUpdate</text>
</a>
</g>
</g>
<!-- Node1&#45;&gt;Node4 -->
<g id="edge3" class="edge"><title>Node1&#45;&gt;Node4</title>
<path fill="none" stroke="midnightblue" d="M155.996,-215.173C176.254,-210.364 198.076,-205.184 217.728,-200.519"/>
<polygon fill="midnightblue" stroke="midnightblue" points="155.114,-211.785 146.193,-217.5 156.731,-218.595 155.114,-211.785"/>
</g>
<!-- Node3 -->
<g id="node3" class="node"><title>Node3</title>
<g id="a_node3"><a xlink:href="classatwork__commander_1_1StateTracker.html#a37b9d873242eff25d4c09213626dd3ae" target="_top" xlink:title="atwork_commander::StateTracker\l::StateTracker">
<polygon fill="none" stroke="black" points="600,-122.5 600,-152.5 764,-152.5 764,-122.5 600,-122.5"/>
<text text-anchor="start" x="608" y="-140.5" font-family="Helvetica,sans-Serif" font-size="10.00">atwork_commander::StateTracker</text>
<text text-anchor="middle" x="682" y="-129.5" font-family="Helvetica,sans-Serif" font-size="10.00">::StateTracker</text>
</a>
</g>
</g>
<!-- Node2&#45;&gt;Node3 -->
<g id="edge2" class="edge"><title>Node2&#45;&gt;Node3</title>
<path fill="none" stroke="midnightblue" d="M348.154,-297.659C407.512,-309.697 496.021,-318.415 564,-285.5 622.075,-257.38 660.054,-184.896 674.475,-152.979"/>
<polygon fill="midnightblue" stroke="midnightblue" points="348.663,-294.189 338.155,-295.544 347.214,-301.038 348.663,-294.189"/>
</g>
<!-- Node5 -->
<g id="node5" class="node"><title>Node5</title>
<g id="a_node5"><a xlink:href="classatwork__commander_1_1StateTracker.html#a6297f7a9ac4f365b4b186eee4144b670" target="_top" xlink:title="atwork_commander::StateTracker\l::taskUpdate">
<polygon fill="none" stroke="black" points="400,-245.5 400,-275.5 564,-275.5 564,-245.5 400,-245.5"/>
<text text-anchor="start" x="408" y="-263.5" font-family="Helvetica,sans-Serif" font-size="10.00">atwork_commander::StateTracker</text>
<text text-anchor="middle" x="482" y="-252.5" font-family="Helvetica,sans-Serif" font-size="10.00">::taskUpdate</text>
</a>
</g>
</g>
<!-- Node4&#45;&gt;Node5 -->
<g id="edge4" class="edge"><title>Node4&#45;&gt;Node5</title>
<path fill="none" stroke="midnightblue" d="M342.222,-204.41C360.553,-212.053 380.942,-220.553 400,-227.5 417.638,-233.93 437.888,-239.93 453.729,-245.447"/>
<polygon fill="midnightblue" stroke="midnightblue" points="343.419,-201.117 332.842,-200.505 340.728,-207.58 343.419,-201.117"/>
</g>
<!-- Node6 -->
<g id="node6" class="node"><title>Node6</title>
<g id="a_node6"><a xlink:href="classatwork__commander_1_1StateTracker.html#aece66cd098363aa9c95d5904ce04d3ed" target="_top" xlink:title="atwork_commander::StateTracker\l::receiveRobotStateClb">
<polygon fill="none" stroke="black" points="400,-196.5 400,-226.5 564,-226.5 564,-196.5 400,-196.5"/>
<text text-anchor="start" x="408" y="-214.5" font-family="Helvetica,sans-Serif" font-size="10.00">atwork_commander::StateTracker</text>
<text text-anchor="middle" x="482" y="-203.5" font-family="Helvetica,sans-Serif" font-size="10.00">::receiveRobotStateClb</text>
</a>
</g>
</g>
<!-- Node4&#45;&gt;Node6 -->
<g id="edge6" class="edge"><title>Node4&#45;&gt;Node6</title>
<path fill="none" stroke="midnightblue" d="M374.085,-197.461C382.63,-198.583 391.254,-199.715 399.7,-200.824"/>
<polygon fill="midnightblue" stroke="midnightblue" points="374.476,-193.982 364.105,-196.15 373.565,-200.922 374.476,-193.982"/>
</g>
<!-- Node7 -->
<g id="node7" class="node"><title>Node7</title>
<g id="a_node7"><a xlink:href="classatwork__commander_1_1StateTracker.html#a79ed664ccbff9446abb3f711872634c7" target="_top" xlink:title="atwork_commander::StateTracker\l::startTask">
<polygon fill="none" stroke="black" points="400,-147.5 400,-177.5 564,-177.5 564,-147.5 400,-147.5"/>
<text text-anchor="start" x="408" y="-165.5" font-family="Helvetica,sans-Serif" font-size="10.00">atwork_commander::StateTracker</text>
<text text-anchor="middle" x="482" y="-154.5" font-family="Helvetica,sans-Serif" font-size="10.00">::startTask</text>
</a>
</g>
</g>
<!-- Node4&#45;&gt;Node7 -->
<g id="edge8" class="edge"><title>Node4&#45;&gt;Node7</title>
<path fill="none" stroke="midnightblue" d="M374.085,-174.919C382.63,-173.927 391.254,-172.925 399.7,-171.944"/>
<polygon fill="midnightblue" stroke="midnightblue" points="373.635,-171.448 364.105,-176.079 374.443,-178.401 373.635,-171.448"/>
</g>
<!-- Node8 -->
<g id="node8" class="node"><title>Node8</title>
<g id="a_node8"><a xlink:href="classatwork__commander_1_1StateTracker.html#a7ebcaac71f40542c6c14a92f421667be" target="_top" xlink:title="atwork_commander::StateTracker\l::generateTask">
<polygon fill="none" stroke="black" points="400,-98.5 400,-128.5 564,-128.5 564,-98.5 400,-98.5"/>
<text text-anchor="start" x="408" y="-116.5" font-family="Helvetica,sans-Serif" font-size="10.00">atwork_commander::StateTracker</text>
<text text-anchor="middle" x="482" y="-105.5" font-family="Helvetica,sans-Serif" font-size="10.00">::generateTask</text>
</a>
</g>
</g>
<!-- Node4&#45;&gt;Node8 -->
<g id="edge10" class="edge"><title>Node4&#45;&gt;Node8</title>
<path fill="none" stroke="midnightblue" d="M327.582,-166.584C349.274,-157.639 375.827,-147.069 400,-138.5 409.571,-135.107 419.867,-131.727 429.802,-128.599"/>
<polygon fill="midnightblue" stroke="midnightblue" points="326.191,-163.372 318.295,-170.436 328.873,-169.837 326.191,-163.372"/>
</g>
<!-- Node9 -->
<g id="node9" class="node"><title>Node9</title>
<g id="a_node9"><a xlink:href="classatwork__commander_1_1StateTracker.html#a2973d1f1892346cb3f1cd4679ab16e2d" target="_top" xlink:title="atwork_commander::StateTracker\l::loadTask">
<polygon fill="none" stroke="black" points="400,-49.5 400,-79.5 564,-79.5 564,-49.5 400,-49.5"/>
<text text-anchor="start" x="408" y="-67.5" font-family="Helvetica,sans-Serif" font-size="10.00">atwork_commander::StateTracker</text>
<text text-anchor="middle" x="482" y="-56.5" font-family="Helvetica,sans-Serif" font-size="10.00">::loadTask</text>
</a>
</g>
</g>
<!-- Node4&#45;&gt;Node9 -->
<g id="edge12" class="edge"><title>Node4&#45;&gt;Node9</title>
<path fill="none" stroke="midnightblue" d="M304.72,-163.209C326.878,-141.615 363.15,-109.309 400,-89.5 407,-85.7371 414.651,-82.4493 422.367,-79.6036"/>
<polygon fill="midnightblue" stroke="midnightblue" points="302.138,-160.839 297.493,-170.362 307.063,-165.814 302.138,-160.839"/>
</g>
<!-- Node10 -->
<g id="node10" class="node"><title>Node10</title>
<g id="a_node10"><a xlink:href="classatwork__commander_1_1StateTracker.html#afcd4c5067b7726a76377fc5301a0453b" target="_top" xlink:title="atwork_commander::StateTracker\l::externalStateUpdate">
<polygon fill="none" stroke="black" points="400,-0.5 400,-30.5 564,-30.5 564,-0.5 400,-0.5"/>
<text text-anchor="start" x="408" y="-18.5" font-family="Helvetica,sans-Serif" font-size="10.00">atwork_commander::StateTracker</text>
<text text-anchor="middle" x="482" y="-7.5" font-family="Helvetica,sans-Serif" font-size="10.00">::externalStateUpdate</text>
</a>
</g>
</g>
<!-- Node4&#45;&gt;Node10 -->
<g id="edge14" class="edge"><title>Node4&#45;&gt;Node10</title>
<path fill="none" stroke="midnightblue" d="M296.052,-161.294C314.799,-128.805 352.395,-71.4873 400,-39.5 405.113,-36.0644 410.729,-33.1101 416.544,-30.5717"/>
<polygon fill="midnightblue" stroke="midnightblue" points="292.926,-159.712 291.06,-170.141 299.023,-163.152 292.926,-159.712"/>
</g>
<!-- Node5&#45;&gt;Node4 -->
<g id="edge5" class="edge"><title>Node5&#45;&gt;Node4</title>
<path fill="none" stroke="midnightblue" d="M389.922,-241.73C357.035,-229.13 322.027,-212.869 301.356,-200.659"/>
<polygon fill="midnightblue" stroke="midnightblue" points="388.99,-245.119 399.583,-245.348 391.445,-238.563 388.99,-245.119"/>
</g>
<!-- Node6&#45;&gt;Node3 -->
<g id="edge7" class="edge"><title>Node6&#45;&gt;Node3</title>
<path fill="none" stroke="midnightblue" d="M546.741,-193.374C552.605,-191.478 558.431,-189.507 564,-187.5 593.093,-177.013 625.357,-163.043 648.623,-152.535"/>
<polygon fill="midnightblue" stroke="midnightblue" points="545.359,-190.14 536.876,-196.488 547.466,-196.816 545.359,-190.14"/>
</g>
<!-- Node7&#45;&gt;Node3 -->
<g id="edge9" class="edge"><title>Node7&#45;&gt;Node3</title>
<path fill="none" stroke="midnightblue" d="M574.085,-150.999C582.63,-149.92 591.254,-148.832 599.7,-147.765"/>
<polygon fill="midnightblue" stroke="midnightblue" points="573.588,-147.534 564.105,-152.259 574.465,-154.479 573.588,-147.534"/>
</g>
<!-- Node8&#45;&gt;Node3 -->
<g id="edge11" class="edge"><title>Node8&#45;&gt;Node3</title>
<path fill="none" stroke="midnightblue" d="M574.085,-124.541C582.63,-125.576 591.254,-126.622 599.7,-127.645"/>
<polygon fill="midnightblue" stroke="midnightblue" points="574.454,-121.06 564.105,-123.331 573.612,-128.009 574.454,-121.06"/>
</g>
<!-- Node9&#45;&gt;Node3 -->
<g id="edge13" class="edge"><title>Node9&#45;&gt;Node3</title>
<path fill="none" stroke="midnightblue" d="M544.073,-82.7037C550.825,-84.9079 557.578,-87.1968 564,-89.5 592.107,-99.5799 623.37,-112.497 646.505,-122.392"/>
<polygon fill="midnightblue" stroke="midnightblue" points="544.809,-79.2643 534.218,-79.5431 542.671,-85.9299 544.809,-79.2643"/>
</g>
<!-- Node10&#45;&gt;Node3 -->
<g id="edge15" class="edge"><title>Node10&#45;&gt;Node3</title>
<path fill="none" stroke="midnightblue" d="M553.196,-34.2959C556.912,-35.9084 560.537,-37.6411 564,-39.5 605.789,-61.9323 646.341,-100.907 666.955,-122.324"/>
<polygon fill="midnightblue" stroke="midnightblue" points="554.397,-31.0069 543.813,-30.5316 551.791,-37.5035 554.397,-31.0069"/>
</g>
</g>
</svg>
        <g id="navigator" transform="translate(0 0)" fill="#404254">
                <rect fill="#f2f5e9" fill-opacity="0.5" stroke="#606060" stroke-width=".5" x="0" y="0" width="60" height="60"/>
                <use id="zoomplus" xlink:href="#zoomPlus" x="17" y="9" onmousedown="handleZoom(evt,'in')"/>
                <use id="zoomminus" xlink:href="#zoomMin" x="42" y="9" onmousedown="handleZoom(evt,'out')"/>
                <use id="reset" xlink:href="#resetDef" x="30" y="36" onmousedown="handleReset()"/>
                <g id="arrowUp" xlink:href="#dirArrow" transform="translate(30 24)" onmousedown="handlePan(0,-1)">
                  <use xlink:href="#rim" fill="#404040">
                        <set attributeName="fill" to="#808080" begin="arrowUp.mouseover" end="arrowUp.mouseout"/>
                  </use>
                  <path fill="none" stroke="white" stroke-width="1.5" d="M0,-3.0v7 M-2.5,-0.5L0,-3.0L2.5,-0.5"/>
                </g>
                <g id="arrowRight" xlink:href="#dirArrow" transform="rotate(90) translate(36 -43)" onmousedown="handlePan(1,0)">
                  <use xlink:href="#rim" fill="#404040">
                        <set attributeName="fill" to="#808080" begin="arrowRight.mouseover" end="arrowRight.mouseout"/>
                  </use>
                  <path fill="none" stroke="white" stroke-width="1.5" d="M0,-3.0v7 M-2.5,-0.5L0,-3.0L2.5,-0.5"/>
                </g>
                <g id="arrowDown" xlink:href="#dirArrow" transform="rotate(180) translate(-30 -48)" onmousedown="handlePan(0,1)">
                  <use xlink:href="#rim" fill="#404040">
                        <set attributeName="fill" to="#808080" begin="arrowDown.mouseover" end="arrowDown.mouseout"/>
                  </use>
                  <path fill="none" stroke="white" stroke-width="1.5" d="M0,-3.0v7 M-2.5,-0.5L0,-3.0L2.5,-0.5"/>
                </g>
                <g id="arrowLeft" xlink:href="#dirArrow" transform="rotate(270) translate(-36 17)" onmousedown="handlePan(-1,0)">
                  <use xlink:href="#rim" fill="#404040">
                        <set attributeName="fill" to="#808080" begin="arrowLeft.mouseover" end="arrowLeft.mouseout"/>
                  </use>
                  <path fill="none" stroke="white" stroke-width="1.5" d="M0,-3.0v7 M-2.5,-0.5L0,-3.0L2.5,-0.5"/>
                </g>
        </g>
        <svg viewBox="0 0 15 15" width="100%" height="30px" preserveAspectRatio="xMaxYMin meet">
         <g id="arrow_out" transform="scale(0.3 0.3)">
          <a xlink:href="classatwork__commander_1_1StateTracker_a46ad6fc41f39df97479dafe32811ff47_icgraph_org.svg" target="_base">
           <rect id="button" ry="5" rx="5" y="6" x="6" height="38" width="38"
                fill="#f2f5e9" fill-opacity="0.5" stroke="#606060" stroke-width="1.0"/>
           <path id="arrow"
             d="M 11.500037,31.436501 C 11.940474,20.09759 22.043105,11.32322 32.158766,21.979434 L 37.068811,17.246167 C 37.068811,17.246167 37.088388,32 37.088388,32 L 22.160133,31.978069 C 22.160133,31.978069 26.997745,27.140456 26.997745,27.140456 C 18.528582,18.264221 13.291696,25.230495 11.500037,31.436501 z"
             style="fill:#404040;"/>
          </a>
         </g>
        </svg>
</svg>
