<?xml version="1.0" encoding="UTF-8" standalone="no"?>
<!DOCTYPE svg PUBLIC "-//W3C//DTD SVG 1.1//EN"
 "http://www.w3.org/Graphics/SVG/1.1/DTD/svg11.dtd">
<!-- Generated by graphviz version 2.38.0 (20140413.2041)
 -->
<!-- Title: atwork_commander::Control::store Pages: 1 -->
<svg width="402pt" height="66pt"
 viewBox="0.00 0.00 402.00 66.00" xmlns="http://www.w3.org/2000/svg" xmlns:xlink="http://www.w3.org/1999/xlink">
<g id="graph0" class="graph" transform="scale(1 1) rotate(0) translate(4 62)">
<title>atwork_commander::Control::store</title>
<!-- Node1 -->
<g id="node1" class="node"><title>Node1</title>
<polygon fill="#bfbfbf" stroke="black" points="0,-14 0,-44 140,-44 140,-14 0,-14"/>
<text text-anchor="start" x="8" y="-32" font-family="Helvetica,sans-Serif" font-size="10.00">atwork_commander::Control</text>
<text text-anchor="middle" x="70" y="-21" font-family="Helvetica,sans-Serif" font-size="10.00">::store</text>
</g>
<!-- Node2 -->
<g id="node2" class="node"><title>Node2</title>
<g id="a_node2"><a xlink:href="control__node_8cpp.html#ae03f3fcb1ae2050f4a7eae357059132d" target="_top" xlink:title="store">
<polygon fill="none" stroke="black" points="176,-19.5 176,-38.5 214,-38.5 214,-19.5 176,-19.5"/>
<text text-anchor="middle" x="195" y="-26.5" font-family="Helvetica,sans-Serif" font-size="10.00">store</text>
</a>
</g>
</g>
<!-- Node1&#45;&gt;Node2 -->
<g id="edge1" class="edge"><title>Node1&#45;&gt;Node2</title>
<path fill="none" stroke="midnightblue" d="M150.08,-29C159.535,-29 168.384,-29 175.627,-29"/>
<polygon fill="midnightblue" stroke="midnightblue" points="150.05,-25.5001 140.05,-29 150.05,-32.5001 150.05,-25.5001"/>
</g>
<!-- Node3 -->
<g id="node3" class="node"><title>Node3</title>
<g id="a_node3"><a xlink:href="control__node_8cpp.html#aa9dc8d22b59934c7172c6c350ab384f4" target="_top" xlink:title="parseArgs">
<polygon fill="none" stroke="black" points="254.5,-38.5 254.5,-57.5 315.5,-57.5 315.5,-38.5 254.5,-38.5"/>
<text text-anchor="middle" x="285" y="-45.5" font-family="Helvetica,sans-Serif" font-size="10.00">parseArgs</text>
</a>
</g>
</g>
<!-- Node2&#45;&gt;Node3 -->
<g id="edge2" class="edge"><title>Node2&#45;&gt;Node3</title>
<path fill="none" stroke="midnightblue" d="M224.133,-35.0742C233.778,-37.1566 244.598,-39.4927 254.359,-41.6002"/>
<polygon fill="midnightblue" stroke="midnightblue" points="224.747,-31.6262 214.234,-32.9368 223.27,-38.4685 224.747,-31.6262"/>
</g>
<!-- Node5 -->
<g id="node5" class="node"><title>Node5</title>
<g id="a_node5"><a xlink:href="control__node_8cpp.html#a98733d6ad140ddb4f5a57388e89684ea" target="_top" xlink:title="stateUpdate">
<polygon fill="none" stroke="black" points="250,-0.5 250,-19.5 320,-19.5 320,-0.5 250,-0.5"/>
<text text-anchor="middle" x="285" y="-7.5" font-family="Helvetica,sans-Serif" font-size="10.00">stateUpdate</text>
</a>
</g>
</g>
<!-- Node2&#45;&gt;Node5 -->
<g id="edge4" class="edge"><title>Node2&#45;&gt;Node5</title>
<path fill="none" stroke="midnightblue" d="M224.042,-22.9455C232.226,-21.1784 241.263,-19.2273 249.784,-17.3875"/>
<polygon fill="midnightblue" stroke="midnightblue" points="223.27,-19.5315 214.234,-25.0632 224.747,-26.3738 223.27,-19.5315"/>
</g>
<!-- Node4 -->
<g id="node4" class="node"><title>Node4</title>
<g id="a_node4"><a xlink:href="control__node_8cpp.html#a3c04138a5bfe5d72780bb7e82a18e627" target="_top" xlink:title="main">
<polygon fill="none" stroke="black" points="356,-19.5 356,-38.5 394,-38.5 394,-19.5 356,-19.5"/>
<text text-anchor="middle" x="375" y="-26.5" font-family="Helvetica,sans-Serif" font-size="10.00">main</text>
</a>
</g>
</g>
<!-- Node3&#45;&gt;Node4 -->
<g id="edge3" class="edge"><title>Node3&#45;&gt;Node4</title>
<path fill="none" stroke="midnightblue" d="M325.69,-39.4307C336.201,-37.1612 347.043,-34.8202 355.786,-32.9325"/>
<polygon fill="midnightblue" stroke="midnightblue" points="324.829,-36.0358 315.793,-41.5675 326.306,-42.8781 324.829,-36.0358"/>
</g>
<!-- Node5&#45;&gt;Node4 -->
<g id="edge5" class="edge"><title>Node5&#45;&gt;Node4</title>
<path fill="none" stroke="midnightblue" d="M329.888,-19.4759C339.052,-21.4544 348.222,-23.4342 355.808,-25.0722"/>
<polygon fill="midnightblue" stroke="midnightblue" points="330.537,-16.0353 320.023,-17.3459 329.059,-22.8776 330.537,-16.0353"/>
</g>
</g>
</svg>
