<?xml version="1.0" encoding="UTF-8" standalone="no"?>
<!DOCTYPE svg PUBLIC "-//W3C//DTD SVG 1.1//EN"
 "http://www.w3.org/Graphics/SVG/1.1/DTD/svg11.dtd">
<!-- Generated by graphviz version 2.38.0 (20140413.2041)
 -->
<!-- Title: atwork_commander::VisGroup::update Pages: 1 -->
<svg width="518pt" height="284pt"
 viewBox="0.00 0.00 518.00 284.00" xmlns="http://www.w3.org/2000/svg" xmlns:xlink="http://www.w3.org/1999/xlink">
<g id="graph0" class="graph" transform="scale(1 1) rotate(0) translate(4 280)">
<title>atwork_commander::VisGroup::update</title>
<!-- Node1 -->
<g id="node1" class="node"><title>Node1</title>
<polygon fill="#bfbfbf" stroke="black" points="0,-122.5 0,-152.5 149,-152.5 149,-122.5 0,-122.5"/>
<text text-anchor="start" x="8" y="-140.5" font-family="Helvetica,sans-Serif" font-size="10.00">atwork_commander::VisGroup</text>
<text text-anchor="middle" x="74.5" y="-129.5" font-family="Helvetica,sans-Serif" font-size="10.00">::update</text>
</g>
<!-- Node2 -->
<g id="node2" class="node"><title>Node2</title>
<g id="a_node2"><a xlink:href="classatwork__commander_1_1ArenaVisGroup.html#a899fc8ee1b58b87e9610e847210c0533" target="_top" xlink:title="atwork_commander::ArenaVis\lGroup::ArenaVisGroup">
<polygon fill="none" stroke="black" points="185.5,-245.5 185.5,-275.5 333.5,-275.5 333.5,-245.5 185.5,-245.5"/>
<text text-anchor="start" x="193.5" y="-263.5" font-family="Helvetica,sans-Serif" font-size="10.00">atwork_commander::ArenaVis</text>
<text text-anchor="middle" x="259.5" y="-252.5" font-family="Helvetica,sans-Serif" font-size="10.00">Group::ArenaVisGroup</text>
</a>
</g>
</g>
<!-- Node1&#45;&gt;Node2 -->
<g id="edge1" class="edge"><title>Node1&#45;&gt;Node2</title>
<path fill="none" stroke="midnightblue" d="M95.4023,-160.39C115.865,-182.647 149.653,-216.01 185,-236.5 190.807,-239.866 197.149,-242.833 203.596,-245.428"/>
<polygon fill="midnightblue" stroke="midnightblue" points="97.7891,-157.811 88.4881,-152.737 92.595,-162.504 97.7891,-157.811"/>
</g>
<!-- Node3 -->
<g id="node3" class="node"><title>Node3</title>
<g id="a_node3"><a xlink:href="classatwork__commander_1_1VisGroup.html#a3625a60aa0c1c5bb1bfa16deef78e9eb" target="_top" xlink:title="atwork_commander::VisGroup\l::getLayout">
<polygon fill="none" stroke="black" points="185,-196.5 185,-226.5 334,-226.5 334,-196.5 185,-196.5"/>
<text text-anchor="start" x="193" y="-214.5" font-family="Helvetica,sans-Serif" font-size="10.00">atwork_commander::VisGroup</text>
<text text-anchor="middle" x="259.5" y="-203.5" font-family="Helvetica,sans-Serif" font-size="10.00">::getLayout</text>
</a>
</g>
</g>
<!-- Node1&#45;&gt;Node3 -->
<g id="edge2" class="edge"><title>Node1&#45;&gt;Node3</title>
<path fill="none" stroke="midnightblue" d="M115.319,-156.993C135.887,-166.725 161.532,-178.344 185,-187.5 192.878,-190.574 201.33,-193.588 209.597,-196.386"/>
<polygon fill="midnightblue" stroke="midnightblue" points="116.784,-153.814 106.252,-152.669 113.772,-160.132 116.784,-153.814"/>
</g>
<!-- Node5 -->
<g id="node5" class="node"><title>Node5</title>
<g id="a_node5"><a xlink:href="classatwork__commander_1_1RobotVisGroup.html#a1d86fbae204006674a9bc814e3cf53ac" target="_top" xlink:title="atwork_commander::RobotVis\lGroup::RobotVisGroup">
<polygon fill="none" stroke="black" points="185,-147.5 185,-177.5 334,-177.5 334,-147.5 185,-147.5"/>
<text text-anchor="start" x="193" y="-165.5" font-family="Helvetica,sans-Serif" font-size="10.00">atwork_commander::RobotVis</text>
<text text-anchor="middle" x="259.5" y="-154.5" font-family="Helvetica,sans-Serif" font-size="10.00">Group::RobotVisGroup</text>
</a>
</g>
</g>
<!-- Node1&#45;&gt;Node5 -->
<g id="edge4" class="edge"><title>Node1&#45;&gt;Node5</title>
<path fill="none" stroke="midnightblue" d="M159.109,-148.922C167.651,-150.089 176.285,-151.268 184.711,-152.419"/>
<polygon fill="midnightblue" stroke="midnightblue" points="159.524,-145.446 149.142,-147.56 158.576,-152.382 159.524,-145.446"/>
</g>
<!-- Node6 -->
<g id="node6" class="node"><title>Node6</title>
<g id="a_node6"><a xlink:href="classatwork__commander_1_1TaskGenVisGroup.html#a65753ffc596778a71ee4149bf58f8baa" target="_top" xlink:title="atwork_commander::TaskGen\lVisGroup::TaskGenVisGroup">
<polygon fill="none" stroke="black" points="185.5,-98.5 185.5,-128.5 333.5,-128.5 333.5,-98.5 185.5,-98.5"/>
<text text-anchor="start" x="193.5" y="-116.5" font-family="Helvetica,sans-Serif" font-size="10.00">atwork_commander::TaskGen</text>
<text text-anchor="middle" x="259.5" y="-105.5" font-family="Helvetica,sans-Serif" font-size="10.00">VisGroup::TaskGenVisGroup</text>
</a>
</g>
</g>
<!-- Node1&#45;&gt;Node6 -->
<g id="edge5" class="edge"><title>Node1&#45;&gt;Node6</title>
<path fill="none" stroke="midnightblue" d="M159.279,-126.513C167.967,-125.373 176.748,-124.222 185.306,-123.099"/>
<polygon fill="midnightblue" stroke="midnightblue" points="158.602,-123.071 149.142,-127.842 159.512,-130.012 158.602,-123.071"/>
</g>
<!-- Node7 -->
<g id="node7" class="node"><title>Node7</title>
<g id="a_node7"><a xlink:href="classatwork__commander_1_1TaskGenVisGroup.html#a4116a3e6099aad72efd5734c17d4ed65" target="_top" xlink:title="wire connects and disconnect ALL existing Signal&#45;Slots Connections ">
<polygon fill="none" stroke="black" points="185.5,-49.5 185.5,-79.5 333.5,-79.5 333.5,-49.5 185.5,-49.5"/>
<text text-anchor="start" x="193.5" y="-67.5" font-family="Helvetica,sans-Serif" font-size="10.00">atwork_commander::TaskGen</text>
<text text-anchor="middle" x="259.5" y="-56.5" font-family="Helvetica,sans-Serif" font-size="10.00">VisGroup::wire</text>
</a>
</g>
</g>
<!-- Node1&#45;&gt;Node7 -->
<g id="edge6" class="edge"><title>Node1&#45;&gt;Node7</title>
<path fill="none" stroke="midnightblue" d="M117.058,-118.286C137.373,-109.15 162.284,-98.3237 185,-89.5 193.795,-86.0839 203.275,-82.6667 212.409,-79.5045"/>
<polygon fill="midnightblue" stroke="midnightblue" points="115.446,-115.173 107.778,-122.485 118.332,-121.551 115.446,-115.173"/>
</g>
<!-- Node8 -->
<g id="node8" class="node"><title>Node8</title>
<g id="a_node8"><a xlink:href="classatwork__commander_1_1RobotVisGroup.html#a80dff47edf49a17fc3b1f5686eca6855" target="_top" xlink:title="wire connects and disconnect ALL existing Signal&#45;Slots Connections ">
<polygon fill="none" stroke="black" points="185,-0.5 185,-30.5 334,-30.5 334,-0.5 185,-0.5"/>
<text text-anchor="start" x="193" y="-18.5" font-family="Helvetica,sans-Serif" font-size="10.00">atwork_commander::RobotVis</text>
<text text-anchor="middle" x="259.5" y="-7.5" font-family="Helvetica,sans-Serif" font-size="10.00">Group::wire</text>
</a>
</g>
</g>
<!-- Node1&#45;&gt;Node8 -->
<g id="edge7" class="edge"><title>Node1&#45;&gt;Node8</title>
<path fill="none" stroke="midnightblue" d="M95.8939,-114.821C116.5,-93.1016 150.189,-60.7284 185,-40.5 191.41,-36.7755 198.458,-33.4974 205.574,-30.6458"/>
<polygon fill="midnightblue" stroke="midnightblue" points="93.1797,-112.599 88.916,-122.298 98.2975,-117.375 93.1797,-112.599"/>
</g>
<!-- Node4 -->
<g id="node4" class="node"><title>Node4</title>
<g id="a_node4"><a xlink:href="classatwork__commander_1_1RefboxUI.html#a5f630563e6d29e93e68ac3cfcecc9f96" target="_top" xlink:title="atwork_commander::Refbox\lUI::RefboxUI">
<polygon fill="none" stroke="black" points="370,-196.5 370,-226.5 510,-226.5 510,-196.5 370,-196.5"/>
<text text-anchor="start" x="378" y="-214.5" font-family="Helvetica,sans-Serif" font-size="10.00">atwork_commander::Refbox</text>
<text text-anchor="middle" x="440" y="-203.5" font-family="Helvetica,sans-Serif" font-size="10.00">UI::RefboxUI</text>
</a>
</g>
</g>
<!-- Node3&#45;&gt;Node4 -->
<g id="edge3" class="edge"><title>Node3&#45;&gt;Node4</title>
<path fill="none" stroke="midnightblue" d="M344.17,-211.5C352.763,-211.5 361.426,-211.5 369.838,-211.5"/>
<polygon fill="midnightblue" stroke="midnightblue" points="344.133,-208 334.133,-211.5 344.133,-215 344.133,-208"/>
</g>
</g>
</svg>
