<?xml version="1.0" encoding="UTF-8" standalone="no"?>
<!DOCTYPE svg PUBLIC "-//W3C//DTD SVG 1.1//EN"
 "http://www.w3.org/Graphics/SVG/1.1/DTD/svg11.dtd">
<!-- Generated by graphviz version 2.38.0 (20140413.2041)
 -->
<!-- Title: atwork_commander::task_generator::jurek::Generator::readParameters Pages: 1 -->
<svg width="494pt" height="230pt"
 viewBox="0.00 0.00 494.00 230.00" xmlns="http://www.w3.org/2000/svg" xmlns:xlink="http://www.w3.org/1999/xlink">
<g id="graph0" class="graph" transform="scale(1 1) rotate(0) translate(4 226)">
<title>atwork_commander::task_generator::jurek::Generator::readParameters</title>
<!-- Node1 -->
<g id="node1" class="node"><title>Node1</title>
<polygon fill="#bfbfbf" stroke="black" points="0,-90.5 0,-131.5 138,-131.5 138,-90.5 0,-90.5"/>
<text text-anchor="start" x="8" y="-119.5" font-family="Helvetica,sans-Serif" font-size="10.00">atwork_commander::task</text>
<text text-anchor="start" x="8" y="-108.5" font-family="Helvetica,sans-Serif" font-size="10.00">_generator::jurek::Generator</text>
<text text-anchor="middle" x="69" y="-97.5" font-family="Helvetica,sans-Serif" font-size="10.00">::readParameters</text>
</g>
<!-- Node2 -->
<g id="node2" class="node"><title>Node2</title>
<g id="a_node2"><a xlink:href="classatwork__commander_1_1task__generator_1_1jurek_1_1Generator.html#ad315f8b6419a2eb9d41d046283031036" target="_top" xlink:title="atwork_commander::task\l_generator::jurek::Generator\l::toTaskObject">
<polygon fill="none" stroke="black" points="174,-90.5 174,-131.5 312,-131.5 312,-90.5 174,-90.5"/>
<text text-anchor="start" x="182" y="-119.5" font-family="Helvetica,sans-Serif" font-size="10.00">atwork_commander::task</text>
<text text-anchor="start" x="182" y="-108.5" font-family="Helvetica,sans-Serif" font-size="10.00">_generator::jurek::Generator</text>
<text text-anchor="middle" x="243" y="-97.5" font-family="Helvetica,sans-Serif" font-size="10.00">::toTaskObject</text>
</a>
</g>
</g>
<!-- Node1&#45;&gt;Node2 -->
<g id="edge1" class="edge"><title>Node1&#45;&gt;Node2</title>
<path fill="none" stroke="midnightblue" d="M138.473,-111C146.732,-111 155.216,-111 163.602,-111"/>
<polygon fill="midnightblue" stroke="midnightblue" points="163.762,-114.5 173.762,-111 163.762,-107.5 163.762,-114.5"/>
</g>
<!-- Node3 -->
<g id="node3" class="node"><title>Node3</title>
<g id="a_node3"><a xlink:href="classatwork__commander_1_1task__generator_1_1jurek_1_1Generator.html#ace8b675d10370a0bfd36927406fef7ed" target="_top" xlink:title="atwork_commander::task\l_generator::jurek::Generator\l::toContainerType">
<polygon fill="none" stroke="black" points="348,-180.5 348,-221.5 486,-221.5 486,-180.5 348,-180.5"/>
<text text-anchor="start" x="356" y="-209.5" font-family="Helvetica,sans-Serif" font-size="10.00">atwork_commander::task</text>
<text text-anchor="start" x="356" y="-198.5" font-family="Helvetica,sans-Serif" font-size="10.00">_generator::jurek::Generator</text>
<text text-anchor="middle" x="417" y="-187.5" font-family="Helvetica,sans-Serif" font-size="10.00">::toContainerType</text>
</a>
</g>
</g>
<!-- Node2&#45;&gt;Node3 -->
<g id="edge2" class="edge"><title>Node2&#45;&gt;Node3</title>
<path fill="none" stroke="midnightblue" d="M277.684,-131.668C297.798,-143.696 324.018,-158.837 348,-171 351.461,-172.756 355.048,-174.513 358.683,-176.247"/>
<polygon fill="midnightblue" stroke="midnightblue" points="357.232,-179.432 367.773,-180.496 360.196,-173.091 357.232,-179.432"/>
</g>
<!-- Node4 -->
<g id="node4" class="node"><title>Node4</title>
<g id="a_node4"><a xlink:href="classatwork__commander_1_1task__generator_1_1jurek_1_1Generator.html#ac781b2fc429536d8d816b6bd857946b3" target="_top" xlink:title="atwork_commander::task\l_generator::jurek::Generator\l::toCavityType">
<polygon fill="none" stroke="black" points="348,-120.5 348,-161.5 486,-161.5 486,-120.5 348,-120.5"/>
<text text-anchor="start" x="356" y="-149.5" font-family="Helvetica,sans-Serif" font-size="10.00">atwork_commander::task</text>
<text text-anchor="start" x="356" y="-138.5" font-family="Helvetica,sans-Serif" font-size="10.00">_generator::jurek::Generator</text>
<text text-anchor="middle" x="417" y="-127.5" font-family="Helvetica,sans-Serif" font-size="10.00">::toCavityType</text>
</a>
</g>
</g>
<!-- Node2&#45;&gt;Node4 -->
<g id="edge3" class="edge"><title>Node2&#45;&gt;Node4</title>
<path fill="none" stroke="midnightblue" d="M312.473,-122.943C320.823,-124.399 329.402,-125.896 337.879,-127.374"/>
<polygon fill="midnightblue" stroke="midnightblue" points="337.31,-130.828 347.762,-129.098 338.513,-123.932 337.31,-130.828"/>
</g>
<!-- Node5 -->
<g id="node5" class="node"><title>Node5</title>
<g id="a_node5"><a xlink:href="classatwork__commander_1_1task__generator_1_1jurek_1_1Generator.html#ad72dba3d08229cbca8521ae1c9153f0b" target="_top" xlink:title="atwork_commander::task\l_generator::jurek::Generator\l::toColoredObjectType">
<polygon fill="none" stroke="black" points="348,-60.5 348,-101.5 486,-101.5 486,-60.5 348,-60.5"/>
<text text-anchor="start" x="356" y="-89.5" font-family="Helvetica,sans-Serif" font-size="10.00">atwork_commander::task</text>
<text text-anchor="start" x="356" y="-78.5" font-family="Helvetica,sans-Serif" font-size="10.00">_generator::jurek::Generator</text>
<text text-anchor="middle" x="417" y="-67.5" font-family="Helvetica,sans-Serif" font-size="10.00">::toColoredObjectType</text>
</a>
</g>
</g>
<!-- Node2&#45;&gt;Node5 -->
<g id="edge4" class="edge"><title>Node2&#45;&gt;Node5</title>
<path fill="none" stroke="midnightblue" d="M312.473,-99.057C320.823,-97.6007 329.402,-96.1043 337.879,-94.6258"/>
<polygon fill="midnightblue" stroke="midnightblue" points="338.513,-98.0682 347.762,-92.9019 337.31,-91.1723 338.513,-98.0682"/>
</g>
<!-- Node6 -->
<g id="node6" class="node"><title>Node6</title>
<g id="a_node6"><a xlink:href="classatwork__commander_1_1task__generator_1_1jurek_1_1Generator.html#a2c8f2d001e2254efcae1018dd1f36cdd" target="_top" xlink:title="atwork_commander::task\l_generator::jurek::Generator\l::toObjectType">
<polygon fill="none" stroke="black" points="348,-0.5 348,-41.5 486,-41.5 486,-0.5 348,-0.5"/>
<text text-anchor="start" x="356" y="-29.5" font-family="Helvetica,sans-Serif" font-size="10.00">atwork_commander::task</text>
<text text-anchor="start" x="356" y="-18.5" font-family="Helvetica,sans-Serif" font-size="10.00">_generator::jurek::Generator</text>
<text text-anchor="middle" x="417" y="-7.5" font-family="Helvetica,sans-Serif" font-size="10.00">::toObjectType</text>
</a>
</g>
</g>
<!-- Node2&#45;&gt;Node6 -->
<g id="edge5" class="edge"><title>Node2&#45;&gt;Node6</title>
<path fill="none" stroke="midnightblue" d="M277.684,-90.3321C297.798,-78.3036 324.018,-63.1633 348,-51 351.461,-49.2444 355.048,-47.4873 358.683,-45.7531"/>
<polygon fill="midnightblue" stroke="midnightblue" points="360.196,-48.9093 367.773,-41.5038 357.232,-42.5679 360.196,-48.9093"/>
</g>
</g>
</svg>
