<?xml version="1.0" encoding="UTF-8" standalone="no"?>
<!DOCTYPE svg PUBLIC "-//W3C//DTD SVG 1.1//EN"
 "http://www.w3.org/Graphics/SVG/1.1/DTD/svg11.dtd">
<!-- Generated by graphviz version 2.38.0 (20140413.2041)
 -->
<!-- Title: atwork_commander::task_generator::DefaultConfigParser::arena Pages: 1 -->
<svg width="347pt" height="110pt"
 viewBox="0.00 0.00 347.00 110.00" xmlns="http://www.w3.org/2000/svg" xmlns:xlink="http://www.w3.org/1999/xlink">
<g id="graph0" class="graph" transform="scale(1 1) rotate(0) translate(4 106)">
<title>atwork_commander::task_generator::DefaultConfigParser::arena</title>
<!-- Node1 -->
<g id="node1" class="node"><title>Node1</title>
<polygon fill="#bfbfbf" stroke="black" points="0,-30.5 0,-71.5 157,-71.5 157,-30.5 0,-30.5"/>
<text text-anchor="start" x="8" y="-59.5" font-family="Helvetica,sans-Serif" font-size="10.00">atwork_commander::task</text>
<text text-anchor="start" x="8" y="-48.5" font-family="Helvetica,sans-Serif" font-size="10.00">_generator::DefaultConfigParser</text>
<text text-anchor="middle" x="78.5" y="-37.5" font-family="Helvetica,sans-Serif" font-size="10.00">::arena</text>
</g>
<!-- Node2 -->
<g id="node2" class="node"><title>Node2</title>
<g id="a_node2"><a xlink:href="classatwork__commander_1_1task__generator_1_1simple_1_1Generator.html#ace096450beafeb58f9cf84326beb0d63" target="_top" xlink:title="atwork_commander::task\l_generator::simple::Generator\l::onInit">
<polygon fill="none" stroke="black" points="193,-60.5 193,-101.5 339,-101.5 339,-60.5 193,-60.5"/>
<text text-anchor="start" x="201" y="-89.5" font-family="Helvetica,sans-Serif" font-size="10.00">atwork_commander::task</text>
<text text-anchor="start" x="201" y="-78.5" font-family="Helvetica,sans-Serif" font-size="10.00">_generator::simple::Generator</text>
<text text-anchor="middle" x="266" y="-67.5" font-family="Helvetica,sans-Serif" font-size="10.00">::onInit</text>
</a>
</g>
</g>
<!-- Node1&#45;&gt;Node2 -->
<g id="edge1" class="edge"><title>Node1&#45;&gt;Node2</title>
<path fill="none" stroke="midnightblue" d="M167.125,-65.1711C175.707,-66.5591 184.349,-67.9567 192.754,-69.316"/>
<polygon fill="midnightblue" stroke="midnightblue" points="167.524,-61.6904 157.094,-63.5489 166.407,-68.6006 167.524,-61.6904"/>
</g>
<!-- Node3 -->
<g id="node3" class="node"><title>Node3</title>
<g id="a_node3"><a xlink:href="classatwork__commander_1_1task__generator_1_1jurek_1_1Generator.html#a456e3e8bfe057e6d7ceb6c990c3e352a" target="_top" xlink:title="atwork_commander::task\l_generator::jurek::Generator\l::onInit">
<polygon fill="none" stroke="black" points="197,-0.5 197,-41.5 335,-41.5 335,-0.5 197,-0.5"/>
<text text-anchor="start" x="205" y="-29.5" font-family="Helvetica,sans-Serif" font-size="10.00">atwork_commander::task</text>
<text text-anchor="start" x="205" y="-18.5" font-family="Helvetica,sans-Serif" font-size="10.00">_generator::jurek::Generator</text>
<text text-anchor="middle" x="266" y="-7.5" font-family="Helvetica,sans-Serif" font-size="10.00">::onInit</text>
</a>
</g>
</g>
<!-- Node1&#45;&gt;Node3 -->
<g id="edge2" class="edge"><title>Node1&#45;&gt;Node3</title>
<path fill="none" stroke="midnightblue" d="M167.059,-36.8395C177.068,-35.2208 187.158,-33.589 196.861,-32.0198"/>
<polygon fill="midnightblue" stroke="midnightblue" points="166.407,-33.3994 157.094,-38.4511 167.524,-40.3096 166.407,-33.3994"/>
</g>
</g>
</svg>
