<?xml version="1.0" encoding="UTF-8" standalone="no"?>
<!DOCTYPE svg PUBLIC "-//W3C//DTD SVG 1.1//EN"
 "http://www.w3.org/Graphics/SVG/1.1/DTD/svg11.dtd">
<!-- Generated by graphviz version 2.38.0 (20140413.2041)
 -->
<!-- Title: atwork_commander::StateTracker::generateTask Pages: 1 -->
<svg width="581pt" height="186pt"
 viewBox="0.00 0.00 581.00 186.00" xmlns="http://www.w3.org/2000/svg" xmlns:xlink="http://www.w3.org/1999/xlink">
<g id="graph0" class="graph" transform="scale(1 1) rotate(0) translate(4 182)">
<title>atwork_commander::StateTracker::generateTask</title>
<!-- Node1 -->
<g id="node1" class="node"><title>Node1</title>
<polygon fill="#bfbfbf" stroke="black" points="0,-98.5 0,-128.5 164,-128.5 164,-98.5 0,-98.5"/>
<text text-anchor="start" x="8" y="-116.5" font-family="Helvetica,sans-Serif" font-size="10.00">atwork_commander::StateTracker</text>
<text text-anchor="middle" x="82" y="-105.5" font-family="Helvetica,sans-Serif" font-size="10.00">::generateTask</text>
</g>
<!-- Node2 -->
<g id="node2" class="node"><title>Node2</title>
<g id="a_node2"><a xlink:href="classatwork__commander_1_1TaskGenerator.html#a4ee8fd6c263901f11e3ac8f111cdb251" target="_top" xlink:title="Check task for basic soundness. ">
<polygon fill="none" stroke="black" points="200,-147.5 200,-177.5 373,-177.5 373,-147.5 200,-147.5"/>
<text text-anchor="start" x="208" y="-165.5" font-family="Helvetica,sans-Serif" font-size="10.00">atwork_commander::TaskGenerator</text>
<text text-anchor="middle" x="286.5" y="-154.5" font-family="Helvetica,sans-Serif" font-size="10.00">::check</text>
</a>
</g>
</g>
<!-- Node1&#45;&gt;Node2 -->
<g id="edge1" class="edge"><title>Node1&#45;&gt;Node2</title>
<path fill="none" stroke="midnightblue" d="M145.133,-128.535C166.806,-133.779 191.304,-139.707 213.697,-145.126"/>
<polygon fill="midnightblue" stroke="midnightblue" points="212.942,-148.544 223.485,-147.494 214.588,-141.74 212.942,-148.544"/>
</g>
<!-- Node3 -->
<g id="node3" class="node"><title>Node3</title>
<g id="a_node3"><a xlink:href="classatwork__commander_1_1StateTracker.html#a7f52f663ec4c9af9b8a812bebcdfd95c" target="_top" xlink:title="atwork_commander::StateTracker\l::inState">
<polygon fill="none" stroke="black" points="204.5,-98.5 204.5,-128.5 368.5,-128.5 368.5,-98.5 204.5,-98.5"/>
<text text-anchor="start" x="212.5" y="-116.5" font-family="Helvetica,sans-Serif" font-size="10.00">atwork_commander::StateTracker</text>
<text text-anchor="middle" x="286.5" y="-105.5" font-family="Helvetica,sans-Serif" font-size="10.00">::inState</text>
</a>
</g>
</g>
<!-- Node1&#45;&gt;Node3 -->
<g id="edge2" class="edge"><title>Node1&#45;&gt;Node3</title>
<path fill="none" stroke="midnightblue" d="M164.198,-113.5C173.998,-113.5 184.058,-113.5 193.993,-113.5"/>
<polygon fill="midnightblue" stroke="midnightblue" points="194.284,-117 204.284,-113.5 194.284,-110 194.284,-117"/>
</g>
<!-- Node4 -->
<g id="node4" class="node"><title>Node4</title>
<g id="a_node4"><a xlink:href="classatwork__commander_1_1StateTracker.html#a107ea4b9a37d39d2251f29451ae8db1d" target="_top" xlink:title="atwork_commander::StateTracker\l::stateUpdate">
<polygon fill="none" stroke="black" points="204.5,-49.5 204.5,-79.5 368.5,-79.5 368.5,-49.5 204.5,-49.5"/>
<text text-anchor="start" x="212.5" y="-67.5" font-family="Helvetica,sans-Serif" font-size="10.00">atwork_commander::StateTracker</text>
<text text-anchor="middle" x="286.5" y="-56.5" font-family="Helvetica,sans-Serif" font-size="10.00">::stateUpdate</text>
</a>
</g>
</g>
<!-- Node1&#45;&gt;Node4 -->
<g id="edge3" class="edge"><title>Node1&#45;&gt;Node4</title>
<path fill="none" stroke="midnightblue" d="M145.133,-98.4654C166.806,-93.2211 191.304,-87.2931 213.697,-81.8745"/>
<polygon fill="midnightblue" stroke="midnightblue" points="214.588,-85.26 223.485,-79.5062 212.942,-78.4563 214.588,-85.26"/>
</g>
<!-- Node5 -->
<g id="node5" class="node"><title>Node5</title>
<g id="a_node5"><a xlink:href="classatwork__commander_1_1StateTracker.html#a6297f7a9ac4f365b4b186eee4144b670" target="_top" xlink:title="atwork_commander::StateTracker\l::taskUpdate">
<polygon fill="none" stroke="black" points="409,-49.5 409,-79.5 573,-79.5 573,-49.5 409,-49.5"/>
<text text-anchor="start" x="417" y="-67.5" font-family="Helvetica,sans-Serif" font-size="10.00">atwork_commander::StateTracker</text>
<text text-anchor="middle" x="491" y="-56.5" font-family="Helvetica,sans-Serif" font-size="10.00">::taskUpdate</text>
</a>
</g>
</g>
<!-- Node4&#45;&gt;Node5 -->
<g id="edge4" class="edge"><title>Node4&#45;&gt;Node5</title>
<path fill="none" stroke="midnightblue" d="M368.698,-57.8691C378.498,-57.7513 388.558,-57.7209 398.493,-57.7779"/>
<polygon fill="midnightblue" stroke="midnightblue" points="398.753,-61.2802 408.784,-57.8688 398.815,-54.2805 398.753,-61.2802"/>
</g>
<!-- Node6 -->
<g id="node6" class="node"><title>Node6</title>
<g id="a_node6"><a xlink:href="classatwork__commander_1_1StateTracker.html#a46ad6fc41f39df97479dafe32811ff47" target="_top" xlink:title="atwork_commander::StateTracker\l::state2string">
<polygon fill="none" stroke="black" points="409,-0.5 409,-30.5 573,-30.5 573,-0.5 409,-0.5"/>
<text text-anchor="start" x="417" y="-18.5" font-family="Helvetica,sans-Serif" font-size="10.00">atwork_commander::StateTracker</text>
<text text-anchor="middle" x="491" y="-7.5" font-family="Helvetica,sans-Serif" font-size="10.00">::state2string</text>
</a>
</g>
</g>
<!-- Node4&#45;&gt;Node6 -->
<g id="edge6" class="edge"><title>Node4&#45;&gt;Node6</title>
<path fill="none" stroke="midnightblue" d="M349.633,-49.4654C371.306,-44.2211 395.804,-38.2931 418.197,-32.8745"/>
<polygon fill="midnightblue" stroke="midnightblue" points="419.088,-36.26 427.985,-30.5062 417.442,-29.4563 419.088,-36.26"/>
</g>
<!-- Node5&#45;&gt;Node4 -->
<g id="edge5" class="edge"><title>Node5&#45;&gt;Node4</title>
<path fill="none" stroke="midnightblue" d="M408.784,-71.1312C398.984,-71.2488 388.923,-71.2791 378.988,-71.222"/>
<polygon fill="midnightblue" stroke="midnightblue" points="378.728,-67.7197 368.698,-71.1309 378.666,-74.7194 378.728,-67.7197"/>
</g>
</g>
</svg>
