<?xml version="1.0" encoding="UTF-8" standalone="no"?>
<!DOCTYPE svg PUBLIC "-//W3C//DTD SVG 1.1//EN"
 "http://www.w3.org/Graphics/SVG/1.1/DTD/svg11.dtd">
<!-- Generated by graphviz version 2.38.0 (20140413.2041)
 -->
<!-- Title: atwork_commander::Control::start Pages: 1 -->
<!--zoomable 524 -->
<svg id="main" version="1.1" xmlns="http://www.w3.org/2000/svg" xmlns:xlink="http://www.w3.org/1999/xlink" xml:space="preserve" onload="init(evt)">
<style type="text/css"><![CDATA[
.edge:hover path { stroke: red; }
.edge:hover polygon { stroke: red; fill: red; }
]]></style>
<script type="text/javascript"><![CDATA[
var edges = document.getElementsByTagName('g');
if (edges && edges.length) {
  for (var i=0;i<edges.length;i++) {
    if (edges[i].id.substr(0,4)=='edge') {
      edges[i].setAttribute('class','edge');
    }
  }
}
]]></script>
        <defs>
                <circle id="rim" cx="0" cy="0" r="7"/>
                <circle id="rim2" cx="0" cy="0" r="3.5"/>
                <g id="zoomPlus">
                        <use xlink:href="#rim" fill="#404040">
                                <set attributeName="fill" to="#808080" begin="zoomplus.mouseover" end="zoomplus.mouseout"/>
                        </use>
                        <path d="M-4,0h8M0,-4v8" fill="none" stroke="white" stroke-width="1.5" pointer-events="none"/>
                </g>
                <g id="zoomMin">
                        <use xlink:href="#rim" fill="#404040">
                                <set attributeName="fill" to="#808080" begin="zoomminus.mouseover" end="zoomminus.mouseout"/>
                        </use>
                        <path d="M-4,0h8" fill="none" stroke="white" stroke-width="1.5" pointer-events="none"/>
                </g>
                <g id="dirArrow">
                        <path fill="none" stroke="white" stroke-width="1.5" d="M0,-3.0v7 M-2.5,-0.5L0,-3.0L2.5,-0.5"/>
                </g>
               <g id="resetDef">
                       <use xlink:href="#rim2" fill="#404040">
                               <set attributeName="fill" to="#808080" begin="reset.mouseover" end="reset.mouseout"/>
                       </use>
               </g>
        </defs>

<script type="text/javascript">
var viewWidth = 730;
var viewHeight = 524;
var sectionId = 'dynsection-9';
</script>
<script xlink:href="svgpan.js"/>
<svg id="graph" class="graph">
<g id="viewport">
<title>atwork_commander::Control::start</title>
<!-- Node1 -->
<g id="node1" class="node"><title>Node1</title>
<polygon fill="#bfbfbf" stroke="black" points="0,-229 0,-259 140,-259 140,-229 0,-229"/>
<text text-anchor="start" x="8" y="-247" font-family="Helvetica,sans-Serif" font-size="10.00">atwork_commander::Control</text>
<text text-anchor="middle" x="70" y="-236" font-family="Helvetica,sans-Serif" font-size="10.00">::start</text>
</g>
<!-- Node2 -->
<g id="node2" class="node"><title>Node2</title>
<g id="a_node2"><a xlink:href="basic__setup_8cpp.html#a3c04138a5bfe5d72780bb7e82a18e627" target="_top" xlink:title="main">
<polygon fill="none" stroke="black" points="176,-253.5 176,-272.5 214,-272.5 214,-253.5 176,-253.5"/>
<text text-anchor="middle" x="195" y="-260.5" font-family="Helvetica,sans-Serif" font-size="10.00">main</text>
</a>
</g>
</g>
<!-- Node1&#45;&gt;Node2 -->
<g id="edge1" class="edge"><title>Node1&#45;&gt;Node2</title>
<path fill="none" stroke="midnightblue" d="M150.08,-256.216C159.535,-257.676 168.384,-259.043 175.627,-260.162"/>
<polygon fill="midnightblue" stroke="midnightblue" points="150.468,-252.734 140.05,-254.666 149.399,-259.652 150.468,-252.734"/>
</g>
<!-- Node3 -->
<g id="node3" class="node"><title>Node3</title>
<g id="a_node3"><a xlink:href="control__node_8cpp.html#a92904aa73140a9bcbc31b3f01cbc1b91" target="_top" xlink:title="start">
<polygon fill="none" stroke="black" points="177,-215.5 177,-234.5 213,-234.5 213,-215.5 177,-215.5"/>
<text text-anchor="middle" x="195" y="-222.5" font-family="Helvetica,sans-Serif" font-size="10.00">start</text>
</a>
</g>
</g>
<!-- Node1&#45;&gt;Node3 -->
<g id="edge2" class="edge"><title>Node1&#45;&gt;Node3</title>
<path fill="none" stroke="midnightblue" d="M150.1,-231.781C159.972,-230.256 169.183,-228.833 176.593,-227.689"/>
<polygon fill="midnightblue" stroke="midnightblue" points="149.399,-228.348 140.05,-233.334 150.468,-235.266 149.399,-228.348"/>
</g>
<!-- Node4 -->
<g id="node4" class="node"><title>Node4</title>
<g id="a_node4"><a xlink:href="classatwork__commander_1_1task__generator_1_1simple_1_1Generator.html#a0515fa959863c880c68a7b02f0354af1" target="_top" xlink:title="atwork_commander::task\l_generator::simple::Generator\l::extractTablesByTypes">
<polygon fill="none" stroke="black" points="254.5,-474.5 254.5,-515.5 400.5,-515.5 400.5,-474.5 254.5,-474.5"/>
<text text-anchor="start" x="262.5" y="-503.5" font-family="Helvetica,sans-Serif" font-size="10.00">atwork_commander::task</text>
<text text-anchor="start" x="262.5" y="-492.5" font-family="Helvetica,sans-Serif" font-size="10.00">_generator::simple::Generator</text>
<text text-anchor="middle" x="327.5" y="-481.5" font-family="Helvetica,sans-Serif" font-size="10.00">::extractTablesByTypes</text>
</a>
</g>
</g>
<!-- Node3&#45;&gt;Node4 -->
<g id="edge3" class="edge"><title>Node3&#45;&gt;Node4</title>
<path fill="none" stroke="midnightblue" d="M213.327,-242.727C213.564,-243.148 213.788,-243.572 214,-244 258.174,-333.176 187.481,-387.573 250,-465 252.868,-468.552 256.214,-471.684 259.874,-474.447"/>
<polygon fill="midnightblue" stroke="midnightblue" points="215.986,-240.44 207.163,-234.574 210.402,-244.661 215.986,-240.44"/>
</g>
<!-- Node5 -->
<g id="node5" class="node"><title>Node5</title>
<g id="a_node5"><a xlink:href="classatwork__commander_1_1task__generator_1_1jurek_1_1Generator.html#a70cc89ff444ae7b05324a744e852fd92" target="_top" xlink:title="atwork_commander::task\l_generator::jurek::Generator\l::fromTask">
<polygon fill="none" stroke="black" points="258.5,-414.5 258.5,-455.5 396.5,-455.5 396.5,-414.5 258.5,-414.5"/>
<text text-anchor="start" x="266.5" y="-443.5" font-family="Helvetica,sans-Serif" font-size="10.00">atwork_commander::task</text>
<text text-anchor="start" x="266.5" y="-432.5" font-family="Helvetica,sans-Serif" font-size="10.00">_generator::jurek::Generator</text>
<text text-anchor="middle" x="327.5" y="-421.5" font-family="Helvetica,sans-Serif" font-size="10.00">::fromTask</text>
</a>
</g>
</g>
<!-- Node3&#45;&gt;Node5 -->
<g id="edge4" class="edge"><title>Node3&#45;&gt;Node5</title>
<path fill="none" stroke="midnightblue" d="M213.293,-242.745C213.54,-243.16 213.776,-243.579 214,-244 248.454,-308.723 202.288,-349.325 250,-405 252.971,-408.466 256.394,-411.535 260.11,-414.251"/>
<polygon fill="midnightblue" stroke="midnightblue" points="215.915,-240.413 207.029,-234.643 210.377,-244.695 215.915,-240.413"/>
</g>
<!-- Node7 -->
<g id="node7" class="node"><title>Node7</title>
<g id="a_node7"><a xlink:href="classatwork__commander_1_1task__generator_1_1simple_1_1Generator.html#ae43f7548b2a38f70517904984353d741" target="_top" xlink:title="atwork_commander::task\l_generator::simple::Generator\l::generateCavities">
<polygon fill="none" stroke="black" points="254.5,-354.5 254.5,-395.5 400.5,-395.5 400.5,-354.5 254.5,-354.5"/>
<text text-anchor="start" x="262.5" y="-383.5" font-family="Helvetica,sans-Serif" font-size="10.00">atwork_commander::task</text>
<text text-anchor="start" x="262.5" y="-372.5" font-family="Helvetica,sans-Serif" font-size="10.00">_generator::simple::Generator</text>
<text text-anchor="middle" x="327.5" y="-361.5" font-family="Helvetica,sans-Serif" font-size="10.00">::generateCavities</text>
</a>
</g>
</g>
<!-- Node3&#45;&gt;Node7 -->
<g id="edge6" class="edge"><title>Node3&#45;&gt;Node7</title>
<path fill="none" stroke="midnightblue" d="M213.223,-242.785C213.491,-243.188 213.75,-243.593 214,-244 238.924,-284.618 216.835,-310.779 250,-345 253.376,-348.483 257.204,-351.57 261.305,-354.305"/>
<polygon fill="midnightblue" stroke="midnightblue" points="215.769,-240.367 206.754,-234.8 210.33,-244.773 215.769,-240.367"/>
</g>
<!-- Node8 -->
<g id="node8" class="node"><title>Node8</title>
<g id="a_node8"><a xlink:href="classatwork__commander_1_1task__generator_1_1simple_1_1Generator.html#aeed622f5caca536e6081abc394f4ab6f" target="_top" xlink:title="atwork_commander::task\l_generator::simple::Generator\l::generateContainers">
<polygon fill="none" stroke="black" points="254.5,-294.5 254.5,-335.5 400.5,-335.5 400.5,-294.5 254.5,-294.5"/>
<text text-anchor="start" x="262.5" y="-323.5" font-family="Helvetica,sans-Serif" font-size="10.00">atwork_commander::task</text>
<text text-anchor="start" x="262.5" y="-312.5" font-family="Helvetica,sans-Serif" font-size="10.00">_generator::simple::Generator</text>
<text text-anchor="middle" x="327.5" y="-301.5" font-family="Helvetica,sans-Serif" font-size="10.00">::generateContainers</text>
</a>
</g>
</g>
<!-- Node3&#45;&gt;Node8 -->
<g id="edge7" class="edge"><title>Node3&#45;&gt;Node8</title>
<path fill="none" stroke="midnightblue" d="M212.114,-241.945C212.753,-242.638 213.384,-243.324 214,-244 230.342,-261.916 230.151,-271.069 250,-285 254.904,-288.442 260.258,-291.562 265.783,-294.374"/>
<polygon fill="midnightblue" stroke="midnightblue" points="214.621,-239.502 205.228,-234.6 209.514,-244.289 214.621,-239.502"/>
</g>
<!-- Node9 -->
<g id="node9" class="node"><title>Node9</title>
<g id="a_node9"><a xlink:href="classatwork__commander_1_1task__generator_1_1simple_1_1Generator.html#aa392cc94f4e6c7b515066c94637864a3" target="_top" xlink:title="atwork_commander::task\l_generator::simple::Generator\l::generateImpl">
<polygon fill="none" stroke="black" points="254.5,-234.5 254.5,-275.5 400.5,-275.5 400.5,-234.5 254.5,-234.5"/>
<text text-anchor="start" x="262.5" y="-263.5" font-family="Helvetica,sans-Serif" font-size="10.00">atwork_commander::task</text>
<text text-anchor="start" x="262.5" y="-252.5" font-family="Helvetica,sans-Serif" font-size="10.00">_generator::simple::Generator</text>
<text text-anchor="middle" x="327.5" y="-241.5" font-family="Helvetica,sans-Serif" font-size="10.00">::generateImpl</text>
</a>
</g>
</g>
<!-- Node3&#45;&gt;Node9 -->
<g id="edge8" class="edge"><title>Node3&#45;&gt;Node9</title>
<path fill="none" stroke="midnightblue" d="M222.855,-231.173C232.208,-233.324 243.196,-235.85 254.457,-238.438"/>
<polygon fill="midnightblue" stroke="midnightblue" points="223.591,-227.751 213.061,-228.922 222.022,-234.573 223.591,-227.751"/>
</g>
<!-- Node10 -->
<g id="node10" class="node"><title>Node10</title>
<g id="a_node10"><a xlink:href="classatwork__commander_1_1task__generator_1_1simple_1_1Generator.html#a061ffb97af3746a1667192d58ac0d1e9" target="_top" xlink:title="atwork_commander::task\l_generator::simple::Generator\l::generateObjects">
<polygon fill="none" stroke="black" points="254.5,-174.5 254.5,-215.5 400.5,-215.5 400.5,-174.5 254.5,-174.5"/>
<text text-anchor="start" x="262.5" y="-203.5" font-family="Helvetica,sans-Serif" font-size="10.00">atwork_commander::task</text>
<text text-anchor="start" x="262.5" y="-192.5" font-family="Helvetica,sans-Serif" font-size="10.00">_generator::simple::Generator</text>
<text text-anchor="middle" x="327.5" y="-181.5" font-family="Helvetica,sans-Serif" font-size="10.00">::generateObjects</text>
</a>
</g>
</g>
<!-- Node3&#45;&gt;Node10 -->
<g id="edge9" class="edge"><title>Node3&#45;&gt;Node10</title>
<path fill="none" stroke="midnightblue" d="M222.855,-218.827C232.208,-216.676 243.196,-214.15 254.457,-211.562"/>
<polygon fill="midnightblue" stroke="midnightblue" points="222.022,-215.427 213.061,-221.078 223.591,-222.249 222.022,-215.427"/>
</g>
<!-- Node11 -->
<g id="node11" class="node"><title>Node11</title>
<g id="a_node11"><a xlink:href="classatwork__commander_1_1com__plugin_1_1ros_1_1TaskObjectCentric.html#a3ebc7c27450a6b6775f1aeda32610d9c" target="_top" xlink:title="atwork_commander::com\l_plugin::ros::TaskObjectCentric\l::sendTask">
<polygon fill="none" stroke="black" points="250,-114.5 250,-155.5 405,-155.5 405,-114.5 250,-114.5"/>
<text text-anchor="start" x="258" y="-143.5" font-family="Helvetica,sans-Serif" font-size="10.00">atwork_commander::com</text>
<text text-anchor="start" x="258" y="-132.5" font-family="Helvetica,sans-Serif" font-size="10.00">_plugin::ros::TaskObjectCentric</text>
<text text-anchor="middle" x="327.5" y="-121.5" font-family="Helvetica,sans-Serif" font-size="10.00">::sendTask</text>
</a>
</g>
</g>
<!-- Node3&#45;&gt;Node11 -->
<g id="edge10" class="edge"><title>Node3&#45;&gt;Node11</title>
<path fill="none" stroke="midnightblue" d="M208.647,-206.92C218.608,-193.796 233.527,-176.412 250,-165 254.925,-161.588 260.294,-158.488 265.827,-155.69"/>
<polygon fill="midnightblue" stroke="midnightblue" points="205.668,-205.063 202.584,-215.199 211.316,-209.198 205.668,-205.063"/>
</g>
<!-- Node12 -->
<g id="node12" class="node"><title>Node12</title>
<g id="a_node12"><a xlink:href="structRefboxMockBase.html#a7e9673745c84952c97ebff920f58693b" target="_top" xlink:title="RefboxMockBase::startCall">
<polygon fill="none" stroke="black" points="259,-76.5 259,-95.5 396,-95.5 396,-76.5 259,-76.5"/>
<text text-anchor="middle" x="327.5" y="-83.5" font-family="Helvetica,sans-Serif" font-size="10.00">RefboxMockBase::startCall</text>
</a>
</g>
</g>
<!-- Node3&#45;&gt;Node12 -->
<g id="edge11" class="edge"><title>Node3&#45;&gt;Node12</title>
<path fill="none" stroke="midnightblue" d="M199.41,-205.06C205.068,-178.226 219.004,-130.88 250,-105 254.622,-101.141 259.915,-98.047 265.512,-95.5694"/>
<polygon fill="midnightblue" stroke="midnightblue" points="195.915,-204.702 197.466,-215.183 202.789,-206.022 195.915,-204.702"/>
</g>
<!-- Node15 -->
<g id="node15" class="node"><title>Node15</title>
<g id="a_node15"><a xlink:href="control__node_8cpp.html#a98733d6ad140ddb4f5a57388e89684ea" target="_top" xlink:title="stateUpdate">
<polygon fill="none" stroke="black" points="292.5,-38.5 292.5,-57.5 362.5,-57.5 362.5,-38.5 292.5,-38.5"/>
<text text-anchor="middle" x="327.5" y="-45.5" font-family="Helvetica,sans-Serif" font-size="10.00">stateUpdate</text>
</a>
</g>
</g>
<!-- Node3&#45;&gt;Node15 -->
<g id="edge14" class="edge"><title>Node3&#45;&gt;Node15</title>
<path fill="none" stroke="midnightblue" d="M196.951,-204.717C199.66,-171.032 210.068,-103.642 250,-67 261.394,-56.545 277.634,-51.6178 292.223,-49.3755"/>
<polygon fill="midnightblue" stroke="midnightblue" points="193.431,-204.916 196.278,-215.121 200.416,-205.367 193.431,-204.916"/>
</g>
<!-- Node17 -->
<g id="node17" class="node"><title>Node17</title>
<g id="a_node17"><a xlink:href="tests_2src_2control_8cpp.html#a20da634552403fe88d29dd9bfaabb42c" target="_top" xlink:title="TEST_F">
<polygon fill="none" stroke="black" points="301,-0.5 301,-19.5 354,-19.5 354,-0.5 301,-0.5"/>
<text text-anchor="middle" x="327.5" y="-7.5" font-family="Helvetica,sans-Serif" font-size="10.00">TEST_F</text>
</a>
</g>
</g>
<!-- Node3&#45;&gt;Node17 -->
<g id="edge16" class="edge"><title>Node3&#45;&gt;Node17</title>
<path fill="none" stroke="midnightblue" d="M195.342,-204.964C195.195,-165.413 200.775,-76.9898 250,-29 263.424,-15.9125 284.389,-11.3913 300.98,-10.0159"/>
<polygon fill="midnightblue" stroke="midnightblue" points="191.846,-205.223 195.516,-215.162 198.845,-205.103 191.846,-205.223"/>
</g>
<!-- Node6 -->
<g id="node6" class="node"><title>Node6</title>
<g id="a_node6"><a xlink:href="classatwork__commander_1_1task__generator_1_1jurek_1_1Generator.html#a25c39f9ca5492f944c61ed463ba0b36b" target="_top" xlink:title="atwork_commander::task\l_generator::jurek::Generator\l::check">
<polygon fill="none" stroke="black" points="441,-414.5 441,-455.5 579,-455.5 579,-414.5 441,-414.5"/>
<text text-anchor="start" x="449" y="-443.5" font-family="Helvetica,sans-Serif" font-size="10.00">atwork_commander::task</text>
<text text-anchor="start" x="449" y="-432.5" font-family="Helvetica,sans-Serif" font-size="10.00">_generator::jurek::Generator</text>
<text text-anchor="middle" x="510" y="-421.5" font-family="Helvetica,sans-Serif" font-size="10.00">::check</text>
</a>
</g>
</g>
<!-- Node5&#45;&gt;Node6 -->
<g id="edge5" class="edge"><title>Node5&#45;&gt;Node6</title>
<path fill="none" stroke="midnightblue" d="M407.029,-435C418.333,-435 429.886,-435 440.964,-435"/>
<polygon fill="midnightblue" stroke="midnightblue" points="406.739,-431.5 396.739,-435 406.739,-438.5 406.739,-431.5"/>
</g>
<!-- Node13 -->
<g id="node13" class="node"><title>Node13</title>
<g id="a_node13"><a xlink:href="structRefboxMockBase.html#a4b3ccf44781edf61e4f6382899fdbf26" target="_top" xlink:title="RefboxMockBase::connect">
<polygon fill="none" stroke="black" points="442.5,-76.5 442.5,-95.5 577.5,-95.5 577.5,-76.5 442.5,-76.5"/>
<text text-anchor="middle" x="510" y="-83.5" font-family="Helvetica,sans-Serif" font-size="10.00">RefboxMockBase::connect</text>
</a>
</g>
</g>
<!-- Node12&#45;&gt;Node13 -->
<g id="edge12" class="edge"><title>Node12&#45;&gt;Node13</title>
<path fill="none" stroke="midnightblue" d="M406.248,-86C418.287,-86 430.629,-86 442.394,-86"/>
<polygon fill="midnightblue" stroke="midnightblue" points="406.225,-82.5001 396.225,-86 406.225,-89.5001 406.225,-82.5001"/>
</g>
<!-- Node14 -->
<g id="node14" class="node"><title>Node14</title>
<g id="a_node14"><a xlink:href="structControlTests.html#a2bc96f00c7bf8ee99a12bf53094c63fd" target="_top" xlink:title="ControlTests::SetUp">
<polygon fill="none" stroke="black" points="615,-76.5 615,-95.5 722,-95.5 722,-76.5 615,-76.5"/>
<text text-anchor="middle" x="668.5" y="-83.5" font-family="Helvetica,sans-Serif" font-size="10.00">ControlTests::SetUp</text>
</a>
</g>
</g>
<!-- Node13&#45;&gt;Node14 -->
<g id="edge13" class="edge"><title>Node13&#45;&gt;Node14</title>
<path fill="none" stroke="midnightblue" d="M587.971,-86C596.99,-86 606.031,-86 614.615,-86"/>
<polygon fill="midnightblue" stroke="midnightblue" points="587.824,-82.5001 577.824,-86 587.824,-89.5001 587.824,-82.5001"/>
</g>
<!-- Node16 -->
<g id="node16" class="node"><title>Node16</title>
<g id="a_node16"><a xlink:href="control__node_8cpp.html#a3c04138a5bfe5d72780bb7e82a18e627" target="_top" xlink:title="main">
<polygon fill="none" stroke="black" points="491,-38.5 491,-57.5 529,-57.5 529,-38.5 491,-38.5"/>
<text text-anchor="middle" x="510" y="-45.5" font-family="Helvetica,sans-Serif" font-size="10.00">main</text>
</a>
</g>
</g>
<!-- Node15&#45;&gt;Node16 -->
<g id="edge15" class="edge"><title>Node15&#45;&gt;Node16</title>
<path fill="none" stroke="midnightblue" d="M373.137,-48C410.999,-48 463.393,-48 490.733,-48"/>
<polygon fill="midnightblue" stroke="midnightblue" points="372.876,-44.5001 362.876,-48 372.875,-51.5001 372.876,-44.5001"/>
</g>
</g>
</svg>
        <g id="navigator" transform="translate(0 0)" fill="#404254">
                <rect fill="#f2f5e9" fill-opacity="0.5" stroke="#606060" stroke-width=".5" x="0" y="0" width="60" height="60"/>
                <use id="zoomplus" xlink:href="#zoomPlus" x="17" y="9" onmousedown="handleZoom(evt,'in')"/>
                <use id="zoomminus" xlink:href="#zoomMin" x="42" y="9" onmousedown="handleZoom(evt,'out')"/>
                <use id="reset" xlink:href="#resetDef" x="30" y="36" onmousedown="handleReset()"/>
                <g id="arrowUp" xlink:href="#dirArrow" transform="translate(30 24)" onmousedown="handlePan(0,-1)">
                  <use xlink:href="#rim" fill="#404040">
                        <set attributeName="fill" to="#808080" begin="arrowUp.mouseover" end="arrowUp.mouseout"/>
                  </use>
                  <path fill="none" stroke="white" stroke-width="1.5" d="M0,-3.0v7 M-2.5,-0.5L0,-3.0L2.5,-0.5"/>
                </g>
                <g id="arrowRight" xlink:href="#dirArrow" transform="rotate(90) translate(36 -43)" onmousedown="handlePan(1,0)">
                  <use xlink:href="#rim" fill="#404040">
                        <set attributeName="fill" to="#808080" begin="arrowRight.mouseover" end="arrowRight.mouseout"/>
                  </use>
                  <path fill="none" stroke="white" stroke-width="1.5" d="M0,-3.0v7 M-2.5,-0.5L0,-3.0L2.5,-0.5"/>
                </g>
                <g id="arrowDown" xlink:href="#dirArrow" transform="rotate(180) translate(-30 -48)" onmousedown="handlePan(0,1)">
                  <use xlink:href="#rim" fill="#404040">
                        <set attributeName="fill" to="#808080" begin="arrowDown.mouseover" end="arrowDown.mouseout"/>
                  </use>
                  <path fill="none" stroke="white" stroke-width="1.5" d="M0,-3.0v7 M-2.5,-0.5L0,-3.0L2.5,-0.5"/>
                </g>
                <g id="arrowLeft" xlink:href="#dirArrow" transform="rotate(270) translate(-36 17)" onmousedown="handlePan(-1,0)">
                  <use xlink:href="#rim" fill="#404040">
                        <set attributeName="fill" to="#808080" begin="arrowLeft.mouseover" end="arrowLeft.mouseout"/>
                  </use>
                  <path fill="none" stroke="white" stroke-width="1.5" d="M0,-3.0v7 M-2.5,-0.5L0,-3.0L2.5,-0.5"/>
                </g>
        </g>
        <svg viewBox="0 0 15 15" width="100%" height="30px" preserveAspectRatio="xMaxYMin meet">
         <g id="arrow_out" transform="scale(0.3 0.3)">
          <a xlink:href="classatwork__commander_1_1Control_a03d7ab8dde7ac8c41b29a9480b013ed6_icgraph_org.svg" target="_base">
           <rect id="button" ry="5" rx="5" y="6" x="6" height="38" width="38"
                fill="#f2f5e9" fill-opacity="0.5" stroke="#606060" stroke-width="1.0"/>
           <path id="arrow"
             d="M 11.500037,31.436501 C 11.940474,20.09759 22.043105,11.32322 32.158766,21.979434 L 37.068811,17.246167 C 37.068811,17.246167 37.088388,32 37.088388,32 L 22.160133,31.978069 C 22.160133,31.978069 26.997745,27.140456 26.997745,27.140456 C 18.528582,18.264221 13.291696,25.230495 11.500037,31.436501 z"
             style="fill:#404040;"/>
          </a>
         </g>
        </svg>
</svg>
