<?xml version="1.0" encoding="UTF-8" standalone="no"?>
<!DOCTYPE svg PUBLIC "-//W3C//DTD SVG 1.1//EN"
 "http://www.w3.org/Graphics/SVG/1.1/DTD/svg11.dtd">
<!-- Generated by graphviz version 2.38.0 (20140413.2041)
 -->
<!-- Title: atwork_commander::task_generator::jurek::Generator::toTaskObject Pages: 1 -->
<svg width="494pt" height="230pt"
 viewBox="0.00 0.00 494.00 230.00" xmlns="http://www.w3.org/2000/svg" xmlns:xlink="http://www.w3.org/1999/xlink">
<g id="graph0" class="graph" transform="scale(1 1) rotate(0) translate(4 226)">
<title>atwork_commander::task_generator::jurek::Generator::toTaskObject</title>
<!-- Node1 -->
<g id="node1" class="node"><title>Node1</title>
<polygon fill="#bfbfbf" stroke="black" points="0,-131.5 0,-172.5 138,-172.5 138,-131.5 0,-131.5"/>
<text text-anchor="start" x="8" y="-160.5" font-family="Helvetica,sans-Serif" font-size="10.00">atwork_commander::task</text>
<text text-anchor="start" x="8" y="-149.5" font-family="Helvetica,sans-Serif" font-size="10.00">_generator::jurek::Generator</text>
<text text-anchor="middle" x="69" y="-138.5" font-family="Helvetica,sans-Serif" font-size="10.00">::toTaskObject</text>
</g>
<!-- Node2 -->
<g id="node2" class="node"><title>Node2</title>
<g id="a_node2"><a xlink:href="classatwork__commander_1_1task__generator_1_1jurek_1_1Generator.html#ac781b2fc429536d8d816b6bd857946b3" target="_top" xlink:title="atwork_commander::task\l_generator::jurek::Generator\l::toCavityType">
<polygon fill="none" stroke="black" points="348,-180.5 348,-221.5 486,-221.5 486,-180.5 348,-180.5"/>
<text text-anchor="start" x="356" y="-209.5" font-family="Helvetica,sans-Serif" font-size="10.00">atwork_commander::task</text>
<text text-anchor="start" x="356" y="-198.5" font-family="Helvetica,sans-Serif" font-size="10.00">_generator::jurek::Generator</text>
<text text-anchor="middle" x="417" y="-187.5" font-family="Helvetica,sans-Serif" font-size="10.00">::toCavityType</text>
</a>
</g>
</g>
<!-- Node1&#45;&gt;Node2 -->
<g id="edge1" class="edge"><title>Node1&#45;&gt;Node2</title>
<path fill="none" stroke="midnightblue" d="M138.358,-161.681C195.7,-169.801 277.609,-181.401 337.601,-189.897"/>
<polygon fill="midnightblue" stroke="midnightblue" points="337.392,-193.402 347.784,-191.339 338.373,-186.472 337.392,-193.402"/>
</g>
<!-- Node3 -->
<g id="node3" class="node"><title>Node3</title>
<g id="a_node3"><a xlink:href="classatwork__commander_1_1task__generator_1_1jurek_1_1Generator.html#ace8b675d10370a0bfd36927406fef7ed" target="_top" xlink:title="atwork_commander::task\l_generator::jurek::Generator\l::toContainerType">
<polygon fill="none" stroke="black" points="348,-120.5 348,-161.5 486,-161.5 486,-120.5 348,-120.5"/>
<text text-anchor="start" x="356" y="-149.5" font-family="Helvetica,sans-Serif" font-size="10.00">atwork_commander::task</text>
<text text-anchor="start" x="356" y="-138.5" font-family="Helvetica,sans-Serif" font-size="10.00">_generator::jurek::Generator</text>
<text text-anchor="middle" x="417" y="-127.5" font-family="Helvetica,sans-Serif" font-size="10.00">::toContainerType</text>
</a>
</g>
</g>
<!-- Node1&#45;&gt;Node3 -->
<g id="edge2" class="edge"><title>Node1&#45;&gt;Node3</title>
<path fill="none" stroke="midnightblue" d="M138.358,-149.827C195.7,-148.004 277.609,-145.4 337.601,-143.492"/>
<polygon fill="midnightblue" stroke="midnightblue" points="337.9,-146.985 347.784,-143.169 337.677,-139.988 337.9,-146.985"/>
</g>
<!-- Node4 -->
<g id="node4" class="node"><title>Node4</title>
<g id="a_node4"><a xlink:href="classatwork__commander_1_1task__generator_1_1jurek_1_1Generator.html#ad315f8b6419a2eb9d41d046283031036" target="_top" xlink:title="atwork_commander::task\l_generator::jurek::Generator\l::toTaskObject">
<polygon fill="none" stroke="black" points="174,-82.5 174,-123.5 312,-123.5 312,-82.5 174,-82.5"/>
<text text-anchor="start" x="182" y="-111.5" font-family="Helvetica,sans-Serif" font-size="10.00">atwork_commander::task</text>
<text text-anchor="start" x="182" y="-100.5" font-family="Helvetica,sans-Serif" font-size="10.00">_generator::jurek::Generator</text>
<text text-anchor="middle" x="243" y="-89.5" font-family="Helvetica,sans-Serif" font-size="10.00">::toTaskObject</text>
</a>
</g>
</g>
<!-- Node1&#45;&gt;Node4 -->
<g id="edge3" class="edge"><title>Node1&#45;&gt;Node4</title>
<path fill="none" stroke="midnightblue" d="M138.473,-132.493C146.823,-130.114 155.402,-127.67 163.879,-125.255"/>
<polygon fill="midnightblue" stroke="midnightblue" points="165.104,-128.546 173.762,-122.44 163.186,-121.814 165.104,-128.546"/>
</g>
<!-- Node4&#45;&gt;Node2 -->
<g id="edge4" class="edge"><title>Node4&#45;&gt;Node2</title>
<path fill="none" stroke="midnightblue" d="M272.799,-123.664C293.25,-137.877 321.646,-156.696 348,-171 351.099,-172.682 354.312,-174.347 357.578,-175.979"/>
<polygon fill="midnightblue" stroke="midnightblue" points="356.349,-179.273 366.875,-180.479 359.399,-172.972 356.349,-179.273"/>
</g>
<!-- Node4&#45;&gt;Node3 -->
<g id="edge6" class="edge"><title>Node4&#45;&gt;Node3</title>
<path fill="none" stroke="midnightblue" d="M312.473,-118.128C320.823,-119.972 329.402,-121.868 337.879,-123.741"/>
<polygon fill="midnightblue" stroke="midnightblue" points="337.243,-127.184 347.762,-125.924 338.753,-120.349 337.243,-127.184"/>
</g>
<!-- Node5 -->
<g id="node5" class="node"><title>Node5</title>
<g id="a_node5"><a xlink:href="classatwork__commander_1_1task__generator_1_1jurek_1_1Generator.html#ad72dba3d08229cbca8521ae1c9153f0b" target="_top" xlink:title="atwork_commander::task\l_generator::jurek::Generator\l::toColoredObjectType">
<polygon fill="none" stroke="black" points="348,-60.5 348,-101.5 486,-101.5 486,-60.5 348,-60.5"/>
<text text-anchor="start" x="356" y="-89.5" font-family="Helvetica,sans-Serif" font-size="10.00">atwork_commander::task</text>
<text text-anchor="start" x="356" y="-78.5" font-family="Helvetica,sans-Serif" font-size="10.00">_generator::jurek::Generator</text>
<text text-anchor="middle" x="417" y="-67.5" font-family="Helvetica,sans-Serif" font-size="10.00">::toColoredObjectType</text>
</a>
</g>
</g>
<!-- Node4&#45;&gt;Node5 -->
<g id="edge5" class="edge"><title>Node4&#45;&gt;Node5</title>
<path fill="none" stroke="midnightblue" d="M312.473,-94.2418C320.732,-93.1855 329.216,-92.1003 337.602,-91.0276"/>
<polygon fill="midnightblue" stroke="midnightblue" points="338.287,-94.4686 347.762,-89.7281 337.399,-87.5252 338.287,-94.4686"/>
</g>
<!-- Node6 -->
<g id="node6" class="node"><title>Node6</title>
<g id="a_node6"><a xlink:href="classatwork__commander_1_1task__generator_1_1jurek_1_1Generator.html#a2c8f2d001e2254efcae1018dd1f36cdd" target="_top" xlink:title="atwork_commander::task\l_generator::jurek::Generator\l::toObjectType">
<polygon fill="none" stroke="black" points="348,-0.5 348,-41.5 486,-41.5 486,-0.5 348,-0.5"/>
<text text-anchor="start" x="356" y="-29.5" font-family="Helvetica,sans-Serif" font-size="10.00">atwork_commander::task</text>
<text text-anchor="start" x="356" y="-18.5" font-family="Helvetica,sans-Serif" font-size="10.00">_generator::jurek::Generator</text>
<text text-anchor="middle" x="417" y="-7.5" font-family="Helvetica,sans-Serif" font-size="10.00">::toObjectType</text>
</a>
</g>
</g>
<!-- Node4&#45;&gt;Node6 -->
<g id="edge7" class="edge"><title>Node4&#45;&gt;Node6</title>
<path fill="none" stroke="midnightblue" d="M284.279,-82.2952C303.469,-72.5759 326.81,-60.9649 348,-51 351.744,-49.2394 355.617,-47.4493 359.527,-45.6646"/>
<polygon fill="midnightblue" stroke="midnightblue" points="361.008,-48.8361 368.678,-41.5266 358.124,-42.458 361.008,-48.8361"/>
</g>
</g>
</svg>
