<?xml version="1.0" encoding="UTF-8" standalone="no"?>
<!DOCTYPE svg PUBLIC "-//W3C//DTD SVG 1.1//EN"
 "http://www.w3.org/Graphics/SVG/1.1/DTD/svg11.dtd">
<!-- Generated by graphviz version 2.38.0 (20140413.2041)
 -->
<!-- Title: atwork_commander::StateTracker::stateUpdate Pages: 1 -->
<svg width="572pt" height="284pt"
 viewBox="0.00 0.00 572.00 284.00" xmlns="http://www.w3.org/2000/svg" xmlns:xlink="http://www.w3.org/1999/xlink">
<g id="graph0" class="graph" transform="scale(1 1) rotate(0) translate(4 280)">
<title>atwork_commander::StateTracker::stateUpdate</title>
<!-- Node1 -->
<g id="node1" class="node"><title>Node1</title>
<polygon fill="#bfbfbf" stroke="black" points="0,-98.5 0,-128.5 164,-128.5 164,-98.5 0,-98.5"/>
<text text-anchor="start" x="8" y="-116.5" font-family="Helvetica,sans-Serif" font-size="10.00">atwork_commander::StateTracker</text>
<text text-anchor="middle" x="82" y="-105.5" font-family="Helvetica,sans-Serif" font-size="10.00">::stateUpdate</text>
</g>
<!-- Node2 -->
<g id="node2" class="node"><title>Node2</title>
<g id="a_node2"><a xlink:href="classatwork__commander_1_1StateTracker.html#afcd4c5067b7726a76377fc5301a0453b" target="_top" xlink:title="atwork_commander::StateTracker\l::externalStateUpdate">
<polygon fill="none" stroke="black" points="200,-245.5 200,-275.5 364,-275.5 364,-245.5 200,-245.5"/>
<text text-anchor="start" x="208" y="-263.5" font-family="Helvetica,sans-Serif" font-size="10.00">atwork_commander::StateTracker</text>
<text text-anchor="middle" x="282" y="-252.5" font-family="Helvetica,sans-Serif" font-size="10.00">::externalStateUpdate</text>
</a>
</g>
</g>
<!-- Node1&#45;&gt;Node2 -->
<g id="edge1" class="edge"><title>Node1&#45;&gt;Node2</title>
<path fill="none" stroke="midnightblue" d="M99.4021,-137.138C119.853,-164.88 157.357,-210.401 200,-236.5 205.629,-239.945 211.783,-242.921 218.101,-245.486"/>
<polygon fill="midnightblue" stroke="midnightblue" points="102.072,-134.856 93.3766,-128.803 96.3986,-138.957 102.072,-134.856"/>
</g>
<!-- Node4 -->
<g id="node4" class="node"><title>Node4</title>
<g id="a_node4"><a xlink:href="classatwork__commander_1_1StateTracker.html#a7ebcaac71f40542c6c14a92f421667be" target="_top" xlink:title="atwork_commander::StateTracker\l::generateTask">
<polygon fill="none" stroke="black" points="200,-196.5 200,-226.5 364,-226.5 364,-196.5 200,-196.5"/>
<text text-anchor="start" x="208" y="-214.5" font-family="Helvetica,sans-Serif" font-size="10.00">atwork_commander::StateTracker</text>
<text text-anchor="middle" x="282" y="-203.5" font-family="Helvetica,sans-Serif" font-size="10.00">::generateTask</text>
</a>
</g>
</g>
<!-- Node1&#45;&gt;Node4 -->
<g id="edge3" class="edge"><title>Node1&#45;&gt;Node4</title>
<path fill="none" stroke="midnightblue" d="M111.397,-134.612C134.343,-150.876 167.979,-172.969 200,-187.5 207.212,-190.773 214.986,-193.733 222.763,-196.366"/>
<polygon fill="midnightblue" stroke="midnightblue" points="113.316,-131.681 103.152,-128.692 109.234,-137.367 113.316,-131.681"/>
</g>
<!-- Node5 -->
<g id="node5" class="node"><title>Node5</title>
<g id="a_node5"><a xlink:href="classatwork__commander_1_1StateTracker.html#a2973d1f1892346cb3f1cd4679ab16e2d" target="_top" xlink:title="atwork_commander::StateTracker\l::loadTask">
<polygon fill="none" stroke="black" points="200,-147.5 200,-177.5 364,-177.5 364,-147.5 200,-147.5"/>
<text text-anchor="start" x="208" y="-165.5" font-family="Helvetica,sans-Serif" font-size="10.00">atwork_commander::StateTracker</text>
<text text-anchor="middle" x="282" y="-154.5" font-family="Helvetica,sans-Serif" font-size="10.00">::loadTask</text>
</a>
</g>
</g>
<!-- Node1&#45;&gt;Node5 -->
<g id="edge5" class="edge"><title>Node1&#45;&gt;Node5</title>
<path fill="none" stroke="midnightblue" d="M153.621,-130.977C175.444,-136.377 199.277,-142.276 220.363,-147.494"/>
<polygon fill="midnightblue" stroke="midnightblue" points="154.3,-127.539 143.752,-128.535 152.618,-134.334 154.3,-127.539"/>
</g>
<!-- Node6 -->
<g id="node6" class="node"><title>Node6</title>
<g id="a_node6"><a xlink:href="classatwork__commander_1_1StateTracker.html#aece66cd098363aa9c95d5904ce04d3ed" target="_top" xlink:title="atwork_commander::StateTracker\l::receiveRobotStateClb">
<polygon fill="none" stroke="black" points="200,-98.5 200,-128.5 364,-128.5 364,-98.5 200,-98.5"/>
<text text-anchor="start" x="208" y="-116.5" font-family="Helvetica,sans-Serif" font-size="10.00">atwork_commander::StateTracker</text>
<text text-anchor="middle" x="282" y="-105.5" font-family="Helvetica,sans-Serif" font-size="10.00">::receiveRobotStateClb</text>
</a>
</g>
</g>
<!-- Node1&#45;&gt;Node6 -->
<g id="edge7" class="edge"><title>Node1&#45;&gt;Node6</title>
<path fill="none" stroke="midnightblue" d="M174.363,-113.5C182.817,-113.5 191.346,-113.5 199.7,-113.5"/>
<polygon fill="midnightblue" stroke="midnightblue" points="174.106,-110 164.105,-113.5 174.105,-117 174.106,-110"/>
</g>
<!-- Node7 -->
<g id="node7" class="node"><title>Node7</title>
<g id="a_node7"><a xlink:href="classatwork__commander_1_1StateTracker.html#a79ed664ccbff9446abb3f711872634c7" target="_top" xlink:title="atwork_commander::StateTracker\l::startTask">
<polygon fill="none" stroke="black" points="200,-49.5 200,-79.5 364,-79.5 364,-49.5 200,-49.5"/>
<text text-anchor="start" x="208" y="-67.5" font-family="Helvetica,sans-Serif" font-size="10.00">atwork_commander::StateTracker</text>
<text text-anchor="middle" x="282" y="-56.5" font-family="Helvetica,sans-Serif" font-size="10.00">::startTask</text>
</a>
</g>
</g>
<!-- Node1&#45;&gt;Node7 -->
<g id="edge9" class="edge"><title>Node1&#45;&gt;Node7</title>
<path fill="none" stroke="midnightblue" d="M153.621,-96.0232C175.444,-90.6225 199.277,-84.7245 220.363,-79.5062"/>
<polygon fill="midnightblue" stroke="midnightblue" points="152.618,-92.6655 143.752,-98.4654 154.3,-99.4605 152.618,-92.6655"/>
</g>
<!-- Node8 -->
<g id="node8" class="node"><title>Node8</title>
<g id="a_node8"><a xlink:href="classatwork__commander_1_1StateTracker.html#a6297f7a9ac4f365b4b186eee4144b670" target="_top" xlink:title="atwork_commander::StateTracker\l::taskUpdate">
<polygon fill="none" stroke="black" points="200,-0.5 200,-30.5 364,-30.5 364,-0.5 200,-0.5"/>
<text text-anchor="start" x="208" y="-18.5" font-family="Helvetica,sans-Serif" font-size="10.00">atwork_commander::StateTracker</text>
<text text-anchor="middle" x="282" y="-7.5" font-family="Helvetica,sans-Serif" font-size="10.00">::taskUpdate</text>
</a>
</g>
</g>
<!-- Node1&#45;&gt;Node8 -->
<g id="edge11" class="edge"><title>Node1&#45;&gt;Node8</title>
<path fill="none" stroke="midnightblue" d="M103.616,-91.6957C126.294,-73.2013 164.277,-47.8226 200,-31.5 200.669,-31.1942 201.343,-30.8908 202.022,-30.5899"/>
<polygon fill="midnightblue" stroke="midnightblue" points="101.064,-89.271 95.7104,-98.4136 105.597,-94.6053 101.064,-89.271"/>
</g>
<!-- Node3 -->
<g id="node3" class="node"><title>Node3</title>
<g id="a_node3"><a xlink:href="classatwork__commander_1_1StateTracker.html#a37b9d873242eff25d4c09213626dd3ae" target="_top" xlink:title="atwork_commander::StateTracker\l::StateTracker">
<polygon fill="none" stroke="black" points="400,-147.5 400,-177.5 564,-177.5 564,-147.5 400,-147.5"/>
<text text-anchor="start" x="408" y="-165.5" font-family="Helvetica,sans-Serif" font-size="10.00">atwork_commander::StateTracker</text>
<text text-anchor="middle" x="482" y="-154.5" font-family="Helvetica,sans-Serif" font-size="10.00">::StateTracker</text>
</a>
</g>
</g>
<!-- Node2&#45;&gt;Node3 -->
<g id="edge2" class="edge"><title>Node2&#45;&gt;Node3</title>
<path fill="none" stroke="midnightblue" d="M350.676,-241.996C355.238,-240.276 359.718,-238.443 364,-236.5 400.112,-220.112 438.278,-194.108 460.848,-177.692"/>
<polygon fill="midnightblue" stroke="midnightblue" points="349.478,-238.708 341.237,-245.366 351.832,-245.3 349.478,-238.708"/>
</g>
<!-- Node4&#45;&gt;Node3 -->
<g id="edge4" class="edge"><title>Node4&#45;&gt;Node3</title>
<path fill="none" stroke="midnightblue" d="M353.621,-194.023C375.444,-188.623 399.277,-182.724 420.363,-177.506"/>
<polygon fill="midnightblue" stroke="midnightblue" points="352.618,-190.666 343.752,-196.465 354.3,-197.461 352.618,-190.666"/>
</g>
<!-- Node5&#45;&gt;Node3 -->
<g id="edge6" class="edge"><title>Node5&#45;&gt;Node3</title>
<path fill="none" stroke="midnightblue" d="M374.363,-162.5C382.817,-162.5 391.346,-162.5 399.7,-162.5"/>
<polygon fill="midnightblue" stroke="midnightblue" points="374.106,-159 364.105,-162.5 374.105,-166 374.106,-159"/>
</g>
<!-- Node6&#45;&gt;Node3 -->
<g id="edge8" class="edge"><title>Node6&#45;&gt;Node3</title>
<path fill="none" stroke="midnightblue" d="M353.621,-130.977C375.444,-136.377 399.277,-142.276 420.363,-147.494"/>
<polygon fill="midnightblue" stroke="midnightblue" points="354.3,-127.539 343.752,-128.535 352.618,-134.334 354.3,-127.539"/>
</g>
<!-- Node7&#45;&gt;Node3 -->
<g id="edge10" class="edge"><title>Node7&#45;&gt;Node3</title>
<path fill="none" stroke="midnightblue" d="M348.325,-83.0352C353.693,-85.0483 358.98,-87.2064 364,-89.5 399.713,-105.818 437.686,-131.188 460.366,-147.315"/>
<polygon fill="midnightblue" stroke="midnightblue" points="349.208,-79.6344 338.613,-79.5703 346.856,-86.2273 349.208,-79.6344"/>
</g>
<!-- Node8&#45;&gt;Node1 -->
<g id="edge12" class="edge"><title>Node8&#45;&gt;Node1</title>
<path fill="none" stroke="midnightblue" d="M242.245,-33.7158C228.607,-38.2535 213.357,-43.397 200,-49.5 169.513,-63.4303 137.38,-83.9566 114.519,-98.2264"/>
<polygon fill="midnightblue" stroke="midnightblue" points="243.463,-36.9992 251.841,-30.5137 241.248,-30.3591 243.463,-36.9992"/>
</g>
</g>
</svg>
