<?xml version="1.0" encoding="UTF-8" standalone="no"?>
<!DOCTYPE svg PUBLIC "-//W3C//DTD SVG 1.1//EN"
 "http://www.w3.org/Graphics/SVG/1.1/DTD/svg11.dtd">
<!-- Generated by graphviz version 2.38.0 (20140413.2041)
 -->
<!-- Title: atwork_commander::task_generator::simple::Generator::onInit Pages: 1 -->
<svg width="347pt" height="99pt"
 viewBox="0.00 0.00 347.00 98.50" xmlns="http://www.w3.org/2000/svg" xmlns:xlink="http://www.w3.org/1999/xlink">
<g id="graph0" class="graph" transform="scale(1 1) rotate(0) translate(4 94.5)">
<title>atwork_commander::task_generator::simple::Generator::onInit</title>
<!-- Node1 -->
<g id="node1" class="node"><title>Node1</title>
<polygon fill="#bfbfbf" stroke="black" points="0,-22 0,-63 146,-63 146,-22 0,-22"/>
<text text-anchor="start" x="8" y="-51" font-family="Helvetica,sans-Serif" font-size="10.00">atwork_commander::task</text>
<text text-anchor="start" x="8" y="-40" font-family="Helvetica,sans-Serif" font-size="10.00">_generator::simple::Generator</text>
<text text-anchor="middle" x="73" y="-29" font-family="Helvetica,sans-Serif" font-size="10.00">::onInit</text>
</g>
<!-- Node2 -->
<g id="node2" class="node"><title>Node2</title>
<g id="a_node2"><a xlink:href="classatwork__commander_1_1task__generator_1_1DefaultConfigParser.html#a71ede20472bea4b2008ac5ff269bd803" target="_top" xlink:title="atwork_commander::task\l_generator::DefaultConfigParser\l::arena">
<polygon fill="none" stroke="black" points="182,-49 182,-90 339,-90 339,-49 182,-49"/>
<text text-anchor="start" x="190" y="-78" font-family="Helvetica,sans-Serif" font-size="10.00">atwork_commander::task</text>
<text text-anchor="start" x="190" y="-67" font-family="Helvetica,sans-Serif" font-size="10.00">_generator::DefaultConfigParser</text>
<text text-anchor="middle" x="260.5" y="-56" font-family="Helvetica,sans-Serif" font-size="10.00">::arena</text>
</a>
</g>
</g>
<!-- Node1&#45;&gt;Node2 -->
<g id="edge1" class="edge"><title>Node1&#45;&gt;Node2</title>
<path fill="none" stroke="midnightblue" d="M146.25,-53.0162C154.659,-54.2401 163.304,-55.4984 171.89,-56.7482"/>
<polygon fill="midnightblue" stroke="midnightblue" points="171.525,-60.2318 181.925,-58.2088 172.533,-53.3048 171.525,-60.2318"/>
</g>
<!-- Node3 -->
<g id="node3" class="node"><title>Node3</title>
<g id="a_node3"><a xlink:href="classatwork__commander_1_1ConfigParserInterface.html#a4e87712c6a4bb07aba934e5600619565" target="_top" xlink:title="atwork_commander::Config\lParserInterface::reload">
<polygon fill="none" stroke="black" points="192,-0.5 192,-30.5 329,-30.5 329,-0.5 192,-0.5"/>
<text text-anchor="start" x="200" y="-18.5" font-family="Helvetica,sans-Serif" font-size="10.00">atwork_commander::Config</text>
<text text-anchor="middle" x="260.5" y="-7.5" font-family="Helvetica,sans-Serif" font-size="10.00">ParserInterface::reload</text>
</a>
</g>
</g>
<!-- Node1&#45;&gt;Node3 -->
<g id="edge2" class="edge"><title>Node1&#45;&gt;Node3</title>
<path fill="none" stroke="midnightblue" d="M146.25,-31.9838C157.895,-30.2889 169.994,-28.5279 181.761,-26.8151"/>
<polygon fill="midnightblue" stroke="midnightblue" points="182.606,-30.2291 191.997,-25.3252 181.597,-23.3021 182.606,-30.2291"/>
</g>
</g>
</svg>
