<?xml version="1.0" encoding="UTF-8" standalone="no"?>
<!DOCTYPE svg PUBLIC "-//W3C//DTD SVG 1.1//EN"
 "http://www.w3.org/Graphics/SVG/1.1/DTD/svg11.dtd">
<!-- Generated by graphviz version 2.38.0 (20140413.2041)
 -->
<!-- Title: atwork_commander::task_generator::DefaultConfigParser Pages: 1 -->
<svg width="1241pt" height="324pt"
 viewBox="0.00 0.00 1241.00 324.00" xmlns="http://www.w3.org/2000/svg" xmlns:xlink="http://www.w3.org/1999/xlink">
<g id="graph0" class="graph" transform="scale(1 1) rotate(0) translate(4 320)">
<title>atwork_commander::task_generator::DefaultConfigParser</title>
<!-- Node1 -->
<g id="node1" class="node"><title>Node1</title>
<polygon fill="#bfbfbf" stroke="black" points="1076,-220 1076,-250 1233,-250 1233,-220 1076,-220"/>
<text text-anchor="start" x="1084" y="-238" font-family="Helvetica,sans-Serif" font-size="10.00">atwork_commander::task</text>
<text text-anchor="middle" x="1154.5" y="-227" font-family="Helvetica,sans-Serif" font-size="10.00">_generator::DefaultConfigParser</text>
</g>
<!-- Node2 -->
<g id="node2" class="node"><title>Node2</title>
<g id="a_node2"><a xlink:href="classatwork__commander_1_1ConfigParserInterface.html" target="_top" xlink:title="atwork_commander::Config\lParserInterface">
<polygon fill="none" stroke="black" points="437,-276 437,-306 574,-306 574,-276 437,-276"/>
<text text-anchor="start" x="445" y="-294" font-family="Helvetica,sans-Serif" font-size="10.00">atwork_commander::Config</text>
<text text-anchor="middle" x="505.5" y="-283" font-family="Helvetica,sans-Serif" font-size="10.00">ParserInterface</text>
</a>
</g>
</g>
<!-- Node2&#45;&gt;Node1 -->
<g id="edge1" class="edge"><title>Node2&#45;&gt;Node1</title>
<path fill="none" stroke="midnightblue" d="M584.333,-288.166C681.912,-284.107 854.206,-275.266 1001,-259 1025.37,-256.299 1051.81,-252.463 1075.71,-248.648"/>
<polygon fill="midnightblue" stroke="midnightblue" points="584.107,-284.672 574.259,-288.579 584.394,-291.666 584.107,-284.672"/>
</g>
<!-- Node3 -->
<g id="node3" class="node"><title>Node3</title>
<g id="a_node3"><a xlink:title="STL class. ">
<polygon fill="none" stroke="#bfbfbf" points="132,-181.5 132,-200.5 192,-200.5 192,-181.5 132,-181.5"/>
<text text-anchor="middle" x="162" y="-188.5" font-family="Helvetica,sans-Serif" font-size="10.00">std::string</text>
</a>
</g>
</g>
<!-- Node3&#45;&gt;Node2 -->
<g id="edge2" class="edge"><title>Node3&#45;&gt;Node2</title>
<path fill="none" stroke="#9a32cd" stroke-dasharray="5,2" d="M169.199,-210.263C176.09,-228.257 189.093,-254.207 210,-267 278.588,-308.969 373.595,-308.541 436.954,-301.9"/>
<polygon fill="#9a32cd" stroke="#9a32cd" points="172.467,-209.008 165.834,-200.748 165.868,-211.342 172.467,-209.008"/>
<text text-anchor="middle" x="243" y="-308" font-family="Helvetica,sans-Serif" font-size="10.00"> mArenaConfig</text>
<text text-anchor="middle" x="243" y="-297" font-family="Helvetica,sans-Serif" font-size="10.00">mTaskConfig</text>
</g>
<!-- Node5 -->
<g id="node5" class="node"><title>Node5</title>
<polygon fill="none" stroke="#bfbfbf" points="854,-220 854,-250 1001,-250 1001,-220 854,-220"/>
<text text-anchor="start" x="862" y="-238" font-family="Helvetica,sans-Serif" font-size="10.00">std::unordered_map</text>
<text text-anchor="middle" x="927.5" y="-227" font-family="Helvetica,sans-Serif" font-size="10.00">&lt; std::string, TaskDefinition &gt;</text>
</g>
<!-- Node3&#45;&gt;Node5 -->
<g id="edge10" class="edge"><title>Node3&#45;&gt;Node5</title>
<path fill="none" stroke="#9a32cd" stroke-dasharray="5,2" d="M199.434,-203.418C202.98,-204.387 206.543,-205.271 210,-206 246.739,-213.747 256.649,-211.171 294,-215 357.526,-221.513 373.267,-224.99 437,-229 594.972,-238.94 634.731,-236.778 793,-239 812.109,-239.268 816.894,-239.422 836,-239 841.818,-238.871 847.844,-238.697 853.897,-238.491"/>
<polygon fill="#9a32cd" stroke="#9a32cd" points="200.174,-199.987 189.592,-200.516 198.194,-206.701 200.174,-199.987"/>
<text text-anchor="middle" x="505.5" y="-239" font-family="Helvetica,sans-Serif" font-size="10.00"> keys</text>
</g>
<!-- Node7 -->
<g id="node7" class="node"><title>Node7</title>
<polygon fill="none" stroke="#bfbfbf" points="305,-176 305,-206 408,-206 408,-176 305,-176"/>
<text text-anchor="start" x="313" y="-194" font-family="Helvetica,sans-Serif" font-size="10.00">std::unordered_map</text>
<text text-anchor="middle" x="356.5" y="-183" font-family="Helvetica,sans-Serif" font-size="10.00">&lt; std::string, int &gt;</text>
</g>
<!-- Node3&#45;&gt;Node7 -->
<g id="edge7" class="edge"><title>Node3&#45;&gt;Node7</title>
<path fill="none" stroke="#9a32cd" stroke-dasharray="5,2" d="M202.615,-191C232.249,-191 273,-191 304.978,-191"/>
<polygon fill="#9a32cd" stroke="#9a32cd" points="202.237,-187.5 192.237,-191 202.237,-194.5 202.237,-187.5"/>
<text text-anchor="middle" x="243" y="-194" font-family="Helvetica,sans-Serif" font-size="10.00"> keys</text>
</g>
<!-- Node8 -->
<g id="node8" class="node"><title>Node8</title>
<polygon fill="none" stroke="#bfbfbf" points="294,-75.5 294,-94.5 419,-94.5 419,-75.5 294,-75.5"/>
<text text-anchor="middle" x="356.5" y="-82.5" font-family="Helvetica,sans-Serif" font-size="10.00">std::vector&lt; std::string &gt;</text>
</g>
<!-- Node3&#45;&gt;Node8 -->
<g id="edge9" class="edge"><title>Node3&#45;&gt;Node8</title>
<path fill="none" stroke="#9a32cd" stroke-dasharray="5,2" d="M189.313,-176.511C229.238,-154.526 304.054,-113.329 337.978,-94.6484"/>
<polygon fill="#9a32cd" stroke="#9a32cd" points="187.494,-173.517 180.423,-181.406 190.871,-179.649 187.494,-173.517"/>
<text text-anchor="middle" x="243" y="-166" font-family="Helvetica,sans-Serif" font-size="10.00"> elements</text>
</g>
<!-- Node10 -->
<g id="node10" class="node"><title>Node10</title>
<polygon fill="none" stroke="#bfbfbf" points="305,-0.5 305,-41.5 408,-41.5 408,-0.5 305,-0.5"/>
<text text-anchor="start" x="313" y="-29.5" font-family="Helvetica,sans-Serif" font-size="10.00">std::unordered_map</text>
<text text-anchor="start" x="313" y="-18.5" font-family="Helvetica,sans-Serif" font-size="10.00">&lt; std::string, std::</text>
<text text-anchor="middle" x="356.5" y="-7.5" font-family="Helvetica,sans-Serif" font-size="10.00">string &gt;</text>
</g>
<!-- Node3&#45;&gt;Node10 -->
<g id="edge14" class="edge"><title>Node3&#45;&gt;Node10</title>
<path fill="none" stroke="#9a32cd" stroke-dasharray="5,2" d="M170.1,-171.805C177.719,-153.23 191.298,-125.149 210,-106 237.288,-78.0595 275.684,-56.1446 306.181,-41.5692"/>
<polygon fill="#9a32cd" stroke="#9a32cd" points="166.782,-170.678 166.397,-181.266 173.301,-173.229 166.782,-170.678"/>
<text text-anchor="middle" x="243" y="-120" font-family="Helvetica,sans-Serif" font-size="10.00"> keys</text>
<text text-anchor="middle" x="243" y="-109" font-family="Helvetica,sans-Serif" font-size="10.00">elements</text>
</g>
<!-- Node4 -->
<g id="node4" class="node"><title>Node4</title>
<g id="a_node4"><a xlink:title="STL class. ">
<polygon fill="none" stroke="#bfbfbf" points="0,-176 0,-206 95,-206 95,-176 0,-176"/>
<text text-anchor="start" x="8" y="-194" font-family="Helvetica,sans-Serif" font-size="10.00">std::basic_string&lt;</text>
<text text-anchor="middle" x="47.5" y="-183" font-family="Helvetica,sans-Serif" font-size="10.00"> char &gt;</text>
</a>
</g>
</g>
<!-- Node4&#45;&gt;Node3 -->
<g id="edge3" class="edge"><title>Node4&#45;&gt;Node3</title>
<path fill="none" stroke="midnightblue" d="M105.526,-191C114.678,-191 123.803,-191 131.931,-191"/>
<polygon fill="midnightblue" stroke="midnightblue" points="105.233,-187.5 95.2328,-191 105.233,-194.5 105.233,-187.5"/>
</g>
<!-- Node5&#45;&gt;Node1 -->
<g id="edge4" class="edge"><title>Node5&#45;&gt;Node1</title>
<path fill="none" stroke="#9a32cd" stroke-dasharray="5,2" d="M1011.46,-235C1032.56,-235 1055.15,-235 1075.97,-235"/>
<polygon fill="#9a32cd" stroke="#9a32cd" points="1011.24,-231.5 1001.24,-235 1011.24,-238.5 1011.24,-231.5"/>
<text text-anchor="middle" x="1038.5" y="-238" font-family="Helvetica,sans-Serif" font-size="10.00"> mTasks</text>
</g>
<!-- Node6 -->
<g id="node6" class="node"><title>Node6</title>
<g id="a_node6"><a xlink:href="structatwork__commander_1_1TaskDefinition.html" target="_top" xlink:title="Configuration Information for TaskGenerator representing specific task type. ">
<polygon fill="none" stroke="black" points="598,-198.5 598,-217.5 769,-217.5 769,-198.5 598,-198.5"/>
<text text-anchor="middle" x="683.5" y="-205.5" font-family="Helvetica,sans-Serif" font-size="10.00">atwork_commander::TaskDefinition</text>
</a>
</g>
</g>
<!-- Node6&#45;&gt;Node5 -->
<g id="edge5" class="edge"><title>Node6&#45;&gt;Node5</title>
<path fill="none" stroke="#9a32cd" stroke-dasharray="5,2" d="M779.303,-218.577C804.132,-221.347 830.507,-224.29 853.969,-226.908"/>
<polygon fill="#9a32cd" stroke="#9a32cd" points="779.466,-215.074 769.14,-217.443 778.69,-222.031 779.466,-215.074"/>
<text text-anchor="middle" x="814.5" y="-228" font-family="Helvetica,sans-Serif" font-size="10.00"> elements</text>
</g>
<!-- Node7&#45;&gt;Node6 -->
<g id="edge6" class="edge"><title>Node7&#45;&gt;Node6</title>
<path fill="none" stroke="#9a32cd" stroke-dasharray="5,2" d="M418.423,-194.187C469.067,-196.836 541.686,-200.634 597.958,-203.578"/>
<polygon fill="#9a32cd" stroke="#9a32cd" points="418.45,-190.683 408.281,-193.656 418.085,-197.674 418.45,-190.683"/>
<text text-anchor="middle" x="505.5" y="-217" font-family="Helvetica,sans-Serif" font-size="10.00"> objects</text>
<text text-anchor="middle" x="505.5" y="-206" font-family="Helvetica,sans-Serif" font-size="10.00">parameters</text>
</g>
<!-- Node9 -->
<g id="node9" class="node"><title>Node9</title>
<g id="a_node9"><a xlink:href="structatwork__commander_1_1ArenaDescription.html" target="_top" xlink:title="Configuration Information for TaskGenerator representing Arena. ">
<polygon fill="none" stroke="black" points="592,-100.5 592,-119.5 775,-119.5 775,-100.5 592,-100.5"/>
<text text-anchor="middle" x="683.5" y="-107.5" font-family="Helvetica,sans-Serif" font-size="10.00">atwork_commander::ArenaDescription</text>
</a>
</g>
</g>
<!-- Node7&#45;&gt;Node9 -->
<g id="edge12" class="edge"><title>Node7&#45;&gt;Node9</title>
<path fill="none" stroke="#9a32cd" stroke-dasharray="5,2" d="M418.347,-183.214C462.127,-176.846 522.32,-166.513 574,-152 605.114,-143.262 639.719,-129.04 661.296,-119.603"/>
<polygon fill="#9a32cd" stroke="#9a32cd" points="417.832,-179.752 408.427,-184.63 418.822,-186.682 417.832,-179.752"/>
<text text-anchor="middle" x="505.5" y="-183" font-family="Helvetica,sans-Serif" font-size="10.00"> objects</text>
</g>
<!-- Node8&#45;&gt;Node6 -->
<g id="edge8" class="edge"><title>Node8&#45;&gt;Node6</title>
<path fill="none" stroke="#9a32cd" stroke-dasharray="5,2" d="M429.417,-75.3185C483.207,-69.6565 551.233,-66.3394 574,-82 592.43,-94.6767 579.196,-110.659 592,-129 613.011,-159.098 647.907,-185.151 667.666,-198.495"/>
<polygon fill="#9a32cd" stroke="#9a32cd" points="428.769,-71.8684 419.21,-76.4379 429.532,-78.8267 428.769,-71.8684"/>
<text text-anchor="middle" x="505.5" y="-140" font-family="Helvetica,sans-Serif" font-size="10.00"> shTypes</text>
<text text-anchor="middle" x="505.5" y="-129" font-family="Helvetica,sans-Serif" font-size="10.00">cavities</text>
<text text-anchor="middle" x="505.5" y="-118" font-family="Helvetica,sans-Serif" font-size="10.00">normalTableTypes</text>
<text text-anchor="middle" x="505.5" y="-107" font-family="Helvetica,sans-Serif" font-size="10.00">ppTypes</text>
<text text-anchor="middle" x="505.5" y="-96" font-family="Helvetica,sans-Serif" font-size="10.00">ttTypes</text>
<text text-anchor="middle" x="505.5" y="-85" font-family="Helvetica,sans-Serif" font-size="10.00">allowedTables</text>
</g>
<!-- Node8&#45;&gt;Node9 -->
<g id="edge15" class="edge"><title>Node8&#45;&gt;Node9</title>
<path fill="none" stroke="#9a32cd" stroke-dasharray="5,2" d="M384.073,-70.8758C399.139,-63.6692 418.606,-55.666 437,-52 496.714,-40.0987 514.936,-37.204 574,-52 611.502,-61.3944 650.212,-86.4984 669.675,-100.401"/>
<polygon fill="#9a32cd" stroke="#9a32cd" points="382.267,-67.8645 374.863,-75.4429 385.377,-74.1358 382.267,-67.8645"/>
<text text-anchor="middle" x="505.5" y="-55" font-family="Helvetica,sans-Serif" font-size="10.00"> cavities</text>
</g>
<!-- Node9&#45;&gt;Node1 -->
<g id="edge11" class="edge"><title>Node9&#45;&gt;Node1</title>
<path fill="none" stroke="#9a32cd" stroke-dasharray="5,2" d="M730.294,-122.205C816.629,-145.216 1003.2,-194.942 1097.1,-219.968"/>
<polygon fill="#9a32cd" stroke="#9a32cd" points="731.087,-118.794 720.523,-119.601 729.284,-125.558 731.087,-118.794"/>
<text text-anchor="middle" x="927.5" y="-196" font-family="Helvetica,sans-Serif" font-size="10.00"> mArena</text>
</g>
<!-- Node10&#45;&gt;Node9 -->
<g id="edge13" class="edge"><title>Node10&#45;&gt;Node9</title>
<path fill="none" stroke="#9a32cd" stroke-dasharray="5,2" d="M418.356,-7.80228C462.885,-0.920985 523.998,2.6475 574,-16 620.237,-33.2432 659.856,-80.0446 675.436,-100.366"/>
<polygon fill="#9a32cd" stroke="#9a32cd" points="417.564,-4.38533 408.265,-9.4617 418.7,-11.2926 417.564,-4.38533"/>
<text text-anchor="middle" x="505.5" y="-30" font-family="Helvetica,sans-Serif" font-size="10.00"> workstations</text>
<text text-anchor="middle" x="505.5" y="-19" font-family="Helvetica,sans-Serif" font-size="10.00">waypoints</text>
</g>
</g>
</svg>
