<?xml version="1.0" encoding="UTF-8" standalone="no"?>
<!DOCTYPE svg PUBLIC "-//W3C//DTD SVG 1.1//EN"
 "http://www.w3.org/Graphics/SVG/1.1/DTD/svg11.dtd">
<!-- Generated by graphviz version 2.38.0 (20140413.2041)
 -->
<!-- Title: atwork_commander::task_generator::jurek::Generator Pages: 1 -->
<svg width="1731pt" height="747pt"
 viewBox="0.00 0.00 1731.00 746.50" xmlns="http://www.w3.org/2000/svg" xmlns:xlink="http://www.w3.org/1999/xlink">
<g id="graph0" class="graph" transform="scale(1 1) rotate(0) translate(4 742.5)">
<title>atwork_commander::task_generator::jurek::Generator</title>
<!-- Node1 -->
<g id="node1" class="node"><title>Node1</title>
<polygon fill="#bfbfbf" stroke="black" points="1585,-403 1585,-433 1723,-433 1723,-403 1585,-403"/>
<text text-anchor="start" x="1593" y="-421" font-family="Helvetica,sans-Serif" font-size="10.00">atwork_commander::task</text>
<text text-anchor="middle" x="1654" y="-410" font-family="Helvetica,sans-Serif" font-size="10.00">_generator::jurek::Generator</text>
</g>
<!-- Node2 -->
<g id="node2" class="node"><title>Node2</title>
<g id="a_node2"><a xlink:href="classatwork__commander_1_1task__generator_1_1GeneratorPluginInterface.html" target="_top" xlink:title="atwork_commander::task\l_generator::GeneratorPluginInterface">
<polygon fill="none" stroke="black" points="1249,-708 1249,-738 1425,-738 1425,-708 1249,-708"/>
<text text-anchor="start" x="1257" y="-726" font-family="Helvetica,sans-Serif" font-size="10.00">atwork_commander::task</text>
<text text-anchor="middle" x="1337" y="-715" font-family="Helvetica,sans-Serif" font-size="10.00">_generator::GeneratorPluginInterface</text>
</a>
</g>
</g>
<!-- Node2&#45;&gt;Node1 -->
<g id="edge1" class="edge"><title>Node2&#45;&gt;Node1</title>
<path fill="none" stroke="midnightblue" d="M1435.19,-734.761C1479.91,-734.905 1530.92,-726.922 1567,-697 1650.1,-628.077 1654.45,-480.701 1653.57,-433.137"/>
<polygon fill="midnightblue" stroke="midnightblue" points="1435.22,-731.261 1425.16,-734.595 1435.1,-738.26 1435.22,-731.261"/>
</g>
<!-- Node3 -->
<g id="node3" class="node"><title>Node3</title>
<polygon fill="none" stroke="#bfbfbf" points="1280.5,-659 1280.5,-689 1393.5,-689 1393.5,-659 1280.5,-659"/>
<text text-anchor="start" x="1288.5" y="-677" font-family="Helvetica,sans-Serif" font-size="10.00">std::vector&lt; std::array</text>
<text text-anchor="middle" x="1337" y="-666" font-family="Helvetica,sans-Serif" font-size="10.00">&lt; size_t, 3 &gt; &gt;</text>
</g>
<!-- Node3&#45;&gt;Node1 -->
<g id="edge2" class="edge"><title>Node3&#45;&gt;Node1</title>
<path fill="none" stroke="#9a32cd" stroke-dasharray="5,2" d="M1403.6,-682.275C1453.53,-684.915 1521.23,-680.165 1567,-644 1635.51,-589.863 1649.47,-474.503 1652.29,-433.147"/>
<polygon fill="#9a32cd" stroke="#9a32cd" points="1403.75,-678.778 1393.55,-681.632 1403.31,-685.764 1403.75,-678.778"/>
<text text-anchor="middle" x="1505" y="-685" font-family="Helvetica,sans-Serif" font-size="10.00"> container_ids</text>
</g>
<!-- Node4 -->
<g id="node4" class="node"><title>Node4</title>
<polygon fill="none" stroke="#bfbfbf" points="937.5,-681.5 937.5,-700.5 1050.5,-700.5 1050.5,-681.5 937.5,-681.5"/>
<text text-anchor="middle" x="994" y="-688.5" font-family="Helvetica,sans-Serif" font-size="10.00">std::array&lt; size_t, 3 &gt;</text>
</g>
<!-- Node4&#45;&gt;Node3 -->
<g id="edge3" class="edge"><title>Node4&#45;&gt;Node3</title>
<path fill="none" stroke="#9a32cd" stroke-dasharray="5,2" d="M1060.9,-687.715C1124.72,-684.533 1220.42,-679.762 1280.48,-676.768"/>
<polygon fill="#9a32cd" stroke="#9a32cd" points="1060.36,-684.237 1050.55,-688.231 1060.71,-691.228 1060.36,-684.237"/>
<text text-anchor="middle" x="1159.5" y="-688" font-family="Helvetica,sans-Serif" font-size="10.00"> elements</text>
</g>
<!-- Node5 -->
<g id="node5" class="node"><title>Node5</title>
<polygon fill="none" stroke="#bfbfbf" points="452.5,-615 452.5,-645 562.5,-645 562.5,-615 452.5,-615"/>
<text text-anchor="start" x="460.5" y="-633" font-family="Helvetica,sans-Serif" font-size="10.00">std::map&lt; std::string,</text>
<text text-anchor="middle" x="507.5" y="-622" font-family="Helvetica,sans-Serif" font-size="10.00"> int &gt;</text>
</g>
<!-- Node5&#45;&gt;Node1 -->
<g id="edge4" class="edge"><title>Node5&#45;&gt;Node1</title>
<path fill="none" stroke="#9a32cd" stroke-dasharray="5,2" d="M572.778,-630C640.775,-630 751.195,-630 846.5,-630 846.5,-630 846.5,-630 1338,-630 1443.21,-630 1485.49,-636.532 1567,-570 1612.8,-532.613 1638.73,-463.99 1648.48,-433.41"/>
<polygon fill="#9a32cd" stroke="#9a32cd" points="572.649,-626.5 562.649,-630 572.649,-633.5 572.649,-626.5"/>
<text text-anchor="middle" x="994" y="-655" font-family="Helvetica,sans-Serif" font-size="10.00"> paramFinal</text>
<text text-anchor="middle" x="994" y="-644" font-family="Helvetica,sans-Serif" font-size="10.00">paramBTT3</text>
<text text-anchor="middle" x="994" y="-633" font-family="Helvetica,sans-Serif" font-size="10.00">paramBNT</text>
</g>
<!-- Node6 -->
<g id="node6" class="node"><title>Node6</title>
<g id="a_node6"><a xlink:title="STL class. ">
<polygon fill="none" stroke="#bfbfbf" points="132,-411.5 132,-430.5 192,-430.5 192,-411.5 132,-411.5"/>
<text text-anchor="middle" x="162" y="-418.5" font-family="Helvetica,sans-Serif" font-size="10.00">std::string</text>
</a>
</g>
</g>
<!-- Node6&#45;&gt;Node5 -->
<g id="edge5" class="edge"><title>Node6&#45;&gt;Node5</title>
<path fill="none" stroke="#9a32cd" stroke-dasharray="5,2" d="M165.077,-440.76C170.089,-484.318 184.367,-586.44 210,-608 277.548,-664.816 387.149,-655.545 452.484,-643.125"/>
<polygon fill="#9a32cd" stroke="#9a32cd" points="168.53,-440.141 163.954,-430.585 161.572,-440.909 168.53,-440.141"/>
<text text-anchor="middle" x="243" y="-644" font-family="Helvetica,sans-Serif" font-size="10.00"> keys</text>
</g>
<!-- Node11 -->
<g id="node11" class="node"><title>Node11</title>
<g id="a_node11"><a xlink:href="structatwork__commander_1_1task__generator_1_1ObjectBase.html" target="_top" xlink:title="atwork_commander::task\l_generator::ObjectBase">
<polygon fill="none" stroke="black" points="294,-571 294,-601 421,-601 421,-571 294,-571"/>
<text text-anchor="start" x="302" y="-589" font-family="Helvetica,sans-Serif" font-size="10.00">atwork_commander::task</text>
<text text-anchor="middle" x="357.5" y="-578" font-family="Helvetica,sans-Serif" font-size="10.00">_generator::ObjectBase</text>
</a>
</g>
</g>
<!-- Node6&#45;&gt;Node11 -->
<g id="edge11" class="edge"><title>Node6&#45;&gt;Node11</title>
<path fill="none" stroke="#9a32cd" stroke-dasharray="5,2" d="M164.069,-440.76C166.775,-470.234 176.323,-525.403 210,-555 232.75,-574.993 265.133,-583.209 293.671,-586.227"/>
<polygon fill="#9a32cd" stroke="#9a32cd" points="167.538,-440.217 163.313,-430.502 160.557,-440.732 167.538,-440.217"/>
<text text-anchor="middle" x="243" y="-597" font-family="Helvetica,sans-Serif" font-size="10.00"> form</text>
<text text-anchor="middle" x="243" y="-586" font-family="Helvetica,sans-Serif" font-size="10.00">color</text>
</g>
<!-- Node12 -->
<g id="node12" class="node"><title>Node12</title>
<polygon fill="none" stroke="#bfbfbf" points="615,-472.5 615,-513.5 756,-513.5 756,-472.5 615,-472.5"/>
<text text-anchor="start" x="623" y="-501.5" font-family="Helvetica,sans-Serif" font-size="10.00">std::unordered_multimap</text>
<text text-anchor="start" x="623" y="-490.5" font-family="Helvetica,sans-Serif" font-size="10.00">&lt; string, atwork_commander</text>
<text text-anchor="middle" x="685.5" y="-479.5" font-family="Helvetica,sans-Serif" font-size="10.00">::task_generator::Table &gt;</text>
</g>
<!-- Node6&#45;&gt;Node12 -->
<g id="edge15" class="edge"><title>Node6&#45;&gt;Node12</title>
<path fill="none" stroke="#9a32cd" stroke-dasharray="5,2" d="M168.086,-440.369C174.392,-460.193 187.205,-490.137 210,-505 274.713,-547.196 499.173,-521.144 614.661,-504.181"/>
<polygon fill="#9a32cd" stroke="#9a32cd" points="171.385,-439.18 165.23,-430.557 164.664,-441.137 171.385,-439.18"/>
<text text-anchor="middle" x="357.5" y="-531" font-family="Helvetica,sans-Serif" font-size="10.00"> keys</text>
</g>
<!-- Node13 -->
<g id="node13" class="node"><title>Node13</title>
<g id="a_node13"><a xlink:href="structatwork__commander_1_1task__generator_1_1Table.html" target="_top" xlink:title="atwork_commander::task\l_generator::Table">
<polygon fill="none" stroke="black" points="294,-474 294,-504 421,-504 421,-474 294,-474"/>
<text text-anchor="start" x="302" y="-492" font-family="Helvetica,sans-Serif" font-size="10.00">atwork_commander::task</text>
<text text-anchor="middle" x="357.5" y="-481" font-family="Helvetica,sans-Serif" font-size="10.00">_generator::Table</text>
</a>
</g>
</g>
<!-- Node6&#45;&gt;Node13 -->
<g id="edge14" class="edge"><title>Node6&#45;&gt;Node13</title>
<path fill="none" stroke="#9a32cd" stroke-dasharray="5,2" d="M180.115,-437.607C188.508,-444.888 199.136,-452.916 210,-458 236.136,-470.232 267.15,-477.684 293.898,-482.203"/>
<polygon fill="#9a32cd" stroke="#9a32cd" points="182.291,-434.855 172.54,-430.712 177.579,-440.032 182.291,-434.855"/>
<text text-anchor="middle" x="243" y="-493" font-family="Helvetica,sans-Serif" font-size="10.00"> type</text>
<text text-anchor="middle" x="243" y="-482" font-family="Helvetica,sans-Serif" font-size="10.00">name</text>
</g>
<!-- Node14 -->
<g id="node14" class="node"><title>Node14</title>
<polygon fill="none" stroke="#bfbfbf" points="795,-430.5 795,-449.5 900,-449.5 900,-430.5 795,-430.5"/>
<text text-anchor="middle" x="847.5" y="-437.5" font-family="Helvetica,sans-Serif" font-size="10.00">std::vector&lt; string &gt;</text>
</g>
<!-- Node6&#45;&gt;Node14 -->
<g id="edge17" class="edge"><title>Node6&#45;&gt;Node14</title>
<path fill="none" stroke="#9a32cd" stroke-dasharray="5,2" d="M202.258,-429.039C204.871,-429.413 207.469,-429.74 210,-430 426.302,-452.239 686.09,-446.201 794.756,-442.215"/>
<polygon fill="#9a32cd" stroke="#9a32cd" points="202.65,-425.557 192.218,-427.407 201.527,-432.466 202.65,-425.557"/>
<text text-anchor="middle" x="357.5" y="-447" font-family="Helvetica,sans-Serif" font-size="10.00"> elements</text>
</g>
<!-- Node17 -->
<g id="node17" class="node"><title>Node17</title>
<g id="a_node17"><a xlink:href="classatwork__commander_1_1ConfigParserInterface.html" target="_top" xlink:title="atwork_commander::Config\lParserInterface">
<polygon fill="none" stroke="black" points="439,-383 439,-413 576,-413 576,-383 439,-383"/>
<text text-anchor="start" x="447" y="-401" font-family="Helvetica,sans-Serif" font-size="10.00">atwork_commander::Config</text>
<text text-anchor="middle" x="507.5" y="-390" font-family="Helvetica,sans-Serif" font-size="10.00">ParserInterface</text>
</a>
</g>
</g>
<!-- Node6&#45;&gt;Node17 -->
<g id="edge21" class="edge"><title>Node6&#45;&gt;Node17</title>
<path fill="none" stroke="#9a32cd" stroke-dasharray="5,2" d="M201.902,-409.484C204.627,-408.911 207.346,-408.406 210,-408 287.897,-396.085 378.59,-394.84 438.96,-395.767"/>
<polygon fill="#9a32cd" stroke="#9a32cd" points="201.027,-406.094 192.102,-411.803 202.639,-412.906 201.027,-406.094"/>
<text text-anchor="middle" x="243" y="-422" font-family="Helvetica,sans-Serif" font-size="10.00"> mArenaConfig</text>
<text text-anchor="middle" x="243" y="-411" font-family="Helvetica,sans-Serif" font-size="10.00">mTaskConfig</text>
</g>
<!-- Node18 -->
<g id="node18" class="node"><title>Node18</title>
<polygon fill="none" stroke="#bfbfbf" points="920.5,-339 920.5,-369 1067.5,-369 1067.5,-339 920.5,-339"/>
<text text-anchor="start" x="928.5" y="-357" font-family="Helvetica,sans-Serif" font-size="10.00">std::unordered_map</text>
<text text-anchor="middle" x="994" y="-346" font-family="Helvetica,sans-Serif" font-size="10.00">&lt; std::string, TaskDefinition &gt;</text>
</g>
<!-- Node6&#45;&gt;Node18 -->
<g id="edge28" class="edge"><title>Node6&#45;&gt;Node18</title>
<path fill="none" stroke="#9a32cd" stroke-dasharray="5,2" d="M187.564,-406.54C194.609,-402.928 202.436,-399.403 210,-397 308.002,-365.864 336.505,-372.277 439,-364 611.112,-350.1 814.233,-350.776 920.261,-352.422"/>
<polygon fill="#9a32cd" stroke="#9a32cd" points="185.669,-403.586 178.539,-411.423 189,-409.743 185.669,-403.586"/>
<text text-anchor="middle" x="507.5" y="-367" font-family="Helvetica,sans-Serif" font-size="10.00"> keys</text>
</g>
<!-- Node20 -->
<g id="node20" class="node"><title>Node20</title>
<polygon fill="none" stroke="#bfbfbf" points="306,-301 306,-331 409,-331 409,-301 306,-301"/>
<text text-anchor="start" x="314" y="-319" font-family="Helvetica,sans-Serif" font-size="10.00">std::unordered_map</text>
<text text-anchor="middle" x="357.5" y="-308" font-family="Helvetica,sans-Serif" font-size="10.00">&lt; std::string, int &gt;</text>
</g>
<!-- Node6&#45;&gt;Node20 -->
<g id="edge25" class="edge"><title>Node6&#45;&gt;Node20</title>
<path fill="none" stroke="#9a32cd" stroke-dasharray="5,2" d="M167.969,-401.617C174.219,-381.464 187.023,-350.713 210,-335 237.733,-316.035 275.445,-311.504 305.661,-311.601"/>
<polygon fill="#9a32cd" stroke="#9a32cd" points="164.582,-400.73 165.213,-411.306 171.315,-402.645 164.582,-400.73"/>
<text text-anchor="middle" x="243" y="-338" font-family="Helvetica,sans-Serif" font-size="10.00"> keys</text>
</g>
<!-- Node21 -->
<g id="node21" class="node"><title>Node21</title>
<polygon fill="none" stroke="#bfbfbf" points="295,-170.5 295,-189.5 420,-189.5 420,-170.5 295,-170.5"/>
<text text-anchor="middle" x="357.5" y="-177.5" font-family="Helvetica,sans-Serif" font-size="10.00">std::vector&lt; std::string &gt;</text>
</g>
<!-- Node6&#45;&gt;Node21 -->
<g id="edge27" class="edge"><title>Node6&#45;&gt;Node21</title>
<path fill="none" stroke="#9a32cd" stroke-dasharray="5,2" d="M167.21,-401.399C173.385,-375.945 186.761,-330.995 210,-299 246.587,-248.626 309.563,-207.476 339.604,-189.606"/>
<polygon fill="#9a32cd" stroke="#9a32cd" points="163.761,-400.783 164.933,-411.313 170.583,-402.35 163.761,-400.783"/>
<text text-anchor="middle" x="243" y="-302" font-family="Helvetica,sans-Serif" font-size="10.00"> elements</text>
</g>
<!-- Node23 -->
<g id="node23" class="node"><title>Node23</title>
<polygon fill="none" stroke="#bfbfbf" points="306,-100.5 306,-141.5 409,-141.5 409,-100.5 306,-100.5"/>
<text text-anchor="start" x="314" y="-129.5" font-family="Helvetica,sans-Serif" font-size="10.00">std::unordered_map</text>
<text text-anchor="start" x="314" y="-118.5" font-family="Helvetica,sans-Serif" font-size="10.00">&lt; std::string, std::</text>
<text text-anchor="middle" x="357.5" y="-107.5" font-family="Helvetica,sans-Serif" font-size="10.00">string &gt;</text>
</g>
<!-- Node6&#45;&gt;Node23 -->
<g id="edge32" class="edge"><title>Node6&#45;&gt;Node23</title>
<path fill="none" stroke="#9a32cd" stroke-dasharray="5,2" d="M162.369,-401.359C162.059,-361.149 166.487,-268.178 210,-208 233.572,-175.4 273.445,-152.883 305.647,-138.938"/>
<polygon fill="#9a32cd" stroke="#9a32cd" points="158.871,-401.505 162.56,-411.437 165.869,-401.372 158.871,-401.505"/>
<text text-anchor="middle" x="243" y="-222" font-family="Helvetica,sans-Serif" font-size="10.00"> keys</text>
<text text-anchor="middle" x="243" y="-211" font-family="Helvetica,sans-Serif" font-size="10.00">elements</text>
</g>
<!-- Node7 -->
<g id="node7" class="node"><title>Node7</title>
<g id="a_node7"><a xlink:title="STL class. ">
<polygon fill="none" stroke="#bfbfbf" points="0,-406 0,-436 95,-436 95,-406 0,-406"/>
<text text-anchor="start" x="8" y="-424" font-family="Helvetica,sans-Serif" font-size="10.00">std::basic_string&lt;</text>
<text text-anchor="middle" x="47.5" y="-413" font-family="Helvetica,sans-Serif" font-size="10.00"> char &gt;</text>
</a>
</g>
</g>
<!-- Node7&#45;&gt;Node6 -->
<g id="edge6" class="edge"><title>Node7&#45;&gt;Node6</title>
<path fill="none" stroke="midnightblue" d="M105.526,-421C114.678,-421 123.803,-421 131.931,-421"/>
<polygon fill="midnightblue" stroke="midnightblue" points="105.233,-417.5 95.2328,-421 105.233,-424.5 105.233,-417.5"/>
</g>
<!-- Node8 -->
<g id="node8" class="node"><title>Node8</title>
<polygon fill="none" stroke="#bfbfbf" points="1285.5,-289 1285.5,-319 1388.5,-319 1388.5,-289 1285.5,-289"/>
<text text-anchor="start" x="1293.5" y="-307" font-family="Helvetica,sans-Serif" font-size="10.00">std::unordered_map</text>
<text text-anchor="middle" x="1337" y="-296" font-family="Helvetica,sans-Serif" font-size="10.00">&lt; size_t, size_t &gt;</text>
</g>
<!-- Node8&#45;&gt;Node1 -->
<g id="edge7" class="edge"><title>Node8&#45;&gt;Node1</title>
<path fill="none" stroke="#9a32cd" stroke-dasharray="5,2" d="M1398.86,-297.257C1446.97,-294.622 1514.52,-297.069 1567,-323 1603.1,-340.838 1631.14,-380.942 1644.48,-402.909"/>
<polygon fill="#9a32cd" stroke="#9a32cd" points="1398.36,-293.782 1388.6,-297.912 1398.8,-300.768 1398.36,-293.782"/>
<text text-anchor="middle" x="1505" y="-326" font-family="Helvetica,sans-Serif" font-size="10.00"> mTableTypes</text>
</g>
<!-- Node9 -->
<g id="node9" class="node"><title>Node9</title>
<polygon fill="none" stroke="#bfbfbf" points="1088,-559.5 1088,-600.5 1231,-600.5 1231,-559.5 1088,-559.5"/>
<text text-anchor="start" x="1096" y="-588.5" font-family="Helvetica,sans-Serif" font-size="10.00">std::vector&lt; atwork</text>
<text text-anchor="start" x="1096" y="-577.5" font-family="Helvetica,sans-Serif" font-size="10.00">_commander::task_generator</text>
<text text-anchor="middle" x="1159.5" y="-566.5" font-family="Helvetica,sans-Serif" font-size="10.00">::ObjectType &gt;</text>
</g>
<!-- Node9&#45;&gt;Node1 -->
<g id="edge8" class="edge"><title>Node9&#45;&gt;Node1</title>
<path fill="none" stroke="#9a32cd" stroke-dasharray="5,2" d="M1241.38,-589.375C1328.05,-595.412 1466.67,-593.18 1567,-534 1607.6,-510.055 1634.95,-458.72 1646.61,-433.137"/>
<polygon fill="#9a32cd" stroke="#9a32cd" points="1241.57,-585.879 1231.34,-588.622 1241.05,-592.86 1241.57,-585.879"/>
<text text-anchor="middle" x="1337" y="-605" font-family="Helvetica,sans-Serif" font-size="10.00"> mAvailableObjects</text>
<text text-anchor="middle" x="1337" y="-594" font-family="Helvetica,sans-Serif" font-size="10.00">mAvailableCavities</text>
</g>
<!-- Node10 -->
<g id="node10" class="node"><title>Node10</title>
<g id="a_node10"><a xlink:href="structatwork__commander_1_1task__generator_1_1ObjectType.html" target="_top" xlink:title="atwork_commander::task\l_generator::ObjectType">
<polygon fill="none" stroke="black" points="622,-565 622,-595 749,-595 749,-565 622,-565"/>
<text text-anchor="start" x="630" y="-583" font-family="Helvetica,sans-Serif" font-size="10.00">atwork_commander::task</text>
<text text-anchor="middle" x="685.5" y="-572" font-family="Helvetica,sans-Serif" font-size="10.00">_generator::ObjectType</text>
</a>
</g>
</g>
<!-- Node10&#45;&gt;Node9 -->
<g id="edge9" class="edge"><title>Node10&#45;&gt;Node9</title>
<path fill="none" stroke="#9a32cd" stroke-dasharray="5,2" d="M759.236,-580C848.659,-580 999.404,-580 1087.86,-580"/>
<polygon fill="#9a32cd" stroke="#9a32cd" points="759.178,-576.5 749.178,-580 759.178,-583.5 759.178,-576.5"/>
<text text-anchor="middle" x="847.5" y="-583" font-family="Helvetica,sans-Serif" font-size="10.00"> elements</text>
</g>
<!-- Node26 -->
<g id="node26" class="node"><title>Node26</title>
<polygon fill="none" stroke="#bfbfbf" points="918,-515 918,-545 1070,-545 1070,-515 918,-515"/>
<text text-anchor="start" x="926" y="-533" font-family="Helvetica,sans-Serif" font-size="10.00">std::set&lt; atwork_commander</text>
<text text-anchor="middle" x="994" y="-522" font-family="Helvetica,sans-Serif" font-size="10.00">::task_generator::ObjectType &gt;</text>
</g>
<!-- Node10&#45;&gt;Node26 -->
<g id="edge38" class="edge"><title>Node10&#45;&gt;Node26</title>
<path fill="none" stroke="#9a32cd" stroke-dasharray="5,2" d="M738.122,-561.885C755.94,-556.281 776.16,-550.632 795,-547 835.145,-539.26 880.55,-535.043 917.743,-532.746"/>
<polygon fill="#9a32cd" stroke="#9a32cd" points="736.943,-558.588 728.494,-564.981 739.085,-565.252 736.943,-558.588"/>
<text text-anchor="middle" x="847.5" y="-550" font-family="Helvetica,sans-Serif" font-size="10.00"> keys</text>
</g>
<!-- Node11&#45;&gt;Node10 -->
<g id="edge10" class="edge"><title>Node11&#45;&gt;Node10</title>
<path fill="none" stroke="midnightblue" d="M431.419,-584.658C488.634,-583.605 567.437,-582.155 621.837,-581.153"/>
<polygon fill="midnightblue" stroke="midnightblue" points="431.29,-581.16 421.356,-584.843 431.419,-588.158 431.29,-581.16"/>
</g>
<!-- Node12&#45;&gt;Node1 -->
<g id="edge12" class="edge"><title>Node12&#45;&gt;Node1</title>
<path fill="none" stroke="#9a32cd" stroke-dasharray="5,2" d="M766.639,-492.436C921.911,-490.365 1274.24,-480.883 1567,-438 1575.8,-436.711 1585.02,-434.98 1594.03,-433.073"/>
<polygon fill="#9a32cd" stroke="#9a32cd" points="766.207,-488.941 756.252,-492.568 766.295,-495.941 766.207,-488.941"/>
<text text-anchor="middle" x="1159.5" y="-485" font-family="Helvetica,sans-Serif" font-size="10.00"> mTables</text>
</g>
<!-- Node13&#45;&gt;Node12 -->
<g id="edge13" class="edge"><title>Node13&#45;&gt;Node12</title>
<path fill="none" stroke="#9a32cd" stroke-dasharray="5,2" d="M431.688,-489.898C486.449,-490.57 560.871,-491.483 614.777,-492.145"/>
<polygon fill="#9a32cd" stroke="#9a32cd" points="431.398,-486.394 421.356,-489.771 431.312,-493.394 431.398,-486.394"/>
<text text-anchor="middle" x="507.5" y="-495" font-family="Helvetica,sans-Serif" font-size="10.00"> elements</text>
</g>
<!-- Node14&#45;&gt;Node1 -->
<g id="edge16" class="edge"><title>Node14&#45;&gt;Node1</title>
<path fill="none" stroke="#9a32cd" stroke-dasharray="5,2" d="M910.456,-438.895C1034.9,-436.576 1324.12,-430.69 1567,-422 1572.83,-421.792 1578.87,-421.554 1584.94,-421.301"/>
<polygon fill="#9a32cd" stroke="#9a32cd" points="910.29,-435.397 900.356,-439.082 910.419,-442.396 910.29,-435.397"/>
<text text-anchor="middle" x="1159.5" y="-439" font-family="Helvetica,sans-Serif" font-size="10.00"> mTablesInverse</text>
</g>
<!-- Node15 -->
<g id="node15" class="node"><title>Node15</title>
<polygon fill="none" stroke="#bfbfbf" points="940.5,-186.5 940.5,-205.5 1047.5,-205.5 1047.5,-186.5 940.5,-186.5"/>
<text text-anchor="middle" x="994" y="-193.5" font-family="Helvetica,sans-Serif" font-size="10.00">std::vector&lt; size_t &gt;</text>
</g>
<!-- Node15&#45;&gt;Node1 -->
<g id="edge18" class="edge"><title>Node15&#45;&gt;Node1</title>
<path fill="none" stroke="#9a32cd" stroke-dasharray="5,2" d="M1057.62,-206.314C1067.77,-207.924 1078.17,-209.537 1088,-211 1194.82,-226.902 1478.37,-231.291 1567,-293 1607.86,-321.448 1635.26,-376.023 1646.81,-402.641"/>
<polygon fill="#9a32cd" stroke="#9a32cd" points="1058.02,-202.832 1047.59,-204.711 1056.91,-209.745 1058.02,-202.832"/>
<text text-anchor="middle" x="1337" y="-261" font-family="Helvetica,sans-Serif" font-size="10.00"> picksleft</text>
<text text-anchor="middle" x="1337" y="-250" font-family="Helvetica,sans-Serif" font-size="10.00">mAllTables</text>
</g>
<!-- Node30 -->
<g id="node30" class="node"><title>Node30</title>
<polygon fill="none" stroke="#bfbfbf" points="1277.5,-181 1277.5,-211 1396.5,-211 1396.5,-181 1277.5,-181"/>
<text text-anchor="start" x="1285.5" y="-199" font-family="Helvetica,sans-Serif" font-size="10.00">std::vector&lt; std::vector</text>
<text text-anchor="middle" x="1337" y="-188" font-family="Helvetica,sans-Serif" font-size="10.00">&lt; size_t &gt; &gt;</text>
</g>
<!-- Node15&#45;&gt;Node30 -->
<g id="edge43" class="edge"><title>Node15&#45;&gt;Node30</title>
<path fill="none" stroke="#9a32cd" stroke-dasharray="5,2" d="M1057.69,-196C1120.42,-196 1216.16,-196 1277.4,-196"/>
<polygon fill="#9a32cd" stroke="#9a32cd" points="1057.53,-192.5 1047.53,-196 1057.53,-199.5 1057.53,-192.5"/>
<text text-anchor="middle" x="1159.5" y="-199" font-family="Helvetica,sans-Serif" font-size="10.00"> elements</text>
</g>
<!-- Node16 -->
<g id="node16" class="node"><title>Node16</title>
<g id="a_node16"><a xlink:href="classatwork__commander_1_1task__generator_1_1DefaultConfigParser.html" target="_top" xlink:title="atwork_commander::task\l_generator::DefaultConfigParser">
<polygon fill="none" stroke="black" points="1258.5,-377 1258.5,-407 1415.5,-407 1415.5,-377 1258.5,-377"/>
<text text-anchor="start" x="1266.5" y="-395" font-family="Helvetica,sans-Serif" font-size="10.00">atwork_commander::task</text>
<text text-anchor="middle" x="1337" y="-384" font-family="Helvetica,sans-Serif" font-size="10.00">_generator::DefaultConfigParser</text>
</a>
</g>
</g>
<!-- Node16&#45;&gt;Node1 -->
<g id="edge19" class="edge"><title>Node16&#45;&gt;Node1</title>
<path fill="none" stroke="#9a32cd" stroke-dasharray="5,2" d="M1426.07,-399.27C1476.32,-403.417 1538.35,-408.537 1584.85,-412.375"/>
<polygon fill="#9a32cd" stroke="#9a32cd" points="1426.12,-395.762 1415.87,-398.427 1425.54,-402.738 1426.12,-395.762"/>
<text text-anchor="middle" x="1505" y="-414" font-family="Helvetica,sans-Serif" font-size="10.00"> mConfig</text>
</g>
<!-- Node17&#45;&gt;Node16 -->
<g id="edge20" class="edge"><title>Node17&#45;&gt;Node16</title>
<path fill="none" stroke="midnightblue" d="M586.328,-397.436C744.24,-396.291 1100.64,-393.707 1258.38,-392.563"/>
<polygon fill="midnightblue" stroke="midnightblue" points="586.192,-393.936 576.218,-397.509 586.243,-400.936 586.192,-393.936"/>
</g>
<!-- Node18&#45;&gt;Node16 -->
<g id="edge22" class="edge"><title>Node18&#45;&gt;Node16</title>
<path fill="none" stroke="#9a32cd" stroke-dasharray="5,2" d="M1077.84,-358.663C1123.19,-361.719 1180.32,-366.391 1231,-373 1239.91,-374.162 1249.21,-375.565 1258.44,-377.077"/>
<polygon fill="#9a32cd" stroke="#9a32cd" points="1077.97,-355.164 1067.76,-357.997 1077.51,-362.148 1077.97,-355.164"/>
<text text-anchor="middle" x="1159.5" y="-376" font-family="Helvetica,sans-Serif" font-size="10.00"> mTasks</text>
</g>
<!-- Node19 -->
<g id="node19" class="node"><title>Node19</title>
<g id="a_node19"><a xlink:href="structatwork__commander_1_1TaskDefinition.html" target="_top" xlink:title="Configuration Information for TaskGenerator representing specific task type. ">
<polygon fill="none" stroke="black" points="600,-310.5 600,-329.5 771,-329.5 771,-310.5 600,-310.5"/>
<text text-anchor="middle" x="685.5" y="-317.5" font-family="Helvetica,sans-Serif" font-size="10.00">atwork_commander::TaskDefinition</text>
</a>
</g>
</g>
<!-- Node19&#45;&gt;Node18 -->
<g id="edge23" class="edge"><title>Node19&#45;&gt;Node18</title>
<path fill="none" stroke="#9a32cd" stroke-dasharray="5,2" d="M781.484,-323.992C818.572,-326.251 861.385,-329.722 900,-335 908,-336.093 916.345,-337.464 924.61,-338.967"/>
<polygon fill="#9a32cd" stroke="#9a32cd" points="781.371,-320.48 771.183,-323.387 780.961,-327.468 781.371,-320.48"/>
<text text-anchor="middle" x="847.5" y="-338" font-family="Helvetica,sans-Serif" font-size="10.00"> elements</text>
</g>
<!-- Node20&#45;&gt;Node19 -->
<g id="edge24" class="edge"><title>Node20&#45;&gt;Node19</title>
<path fill="none" stroke="#9a32cd" stroke-dasharray="5,2" d="M419.26,-316.746C470.114,-317.369 543.234,-318.267 599.828,-318.961"/>
<polygon fill="#9a32cd" stroke="#9a32cd" points="419.122,-313.244 409.08,-316.621 419.036,-320.243 419.122,-313.244"/>
<text text-anchor="middle" x="507.5" y="-333" font-family="Helvetica,sans-Serif" font-size="10.00"> objects</text>
<text text-anchor="middle" x="507.5" y="-322" font-family="Helvetica,sans-Serif" font-size="10.00">parameters</text>
</g>
<!-- Node22 -->
<g id="node22" class="node"><title>Node22</title>
<g id="a_node22"><a xlink:href="structatwork__commander_1_1ArenaDescription.html" target="_top" xlink:title="Configuration Information for TaskGenerator representing Arena. ">
<polygon fill="none" stroke="black" points="594,-270.5 594,-289.5 777,-289.5 777,-270.5 594,-270.5"/>
<text text-anchor="middle" x="685.5" y="-277.5" font-family="Helvetica,sans-Serif" font-size="10.00">atwork_commander::ArenaDescription</text>
</a>
</g>
</g>
<!-- Node20&#45;&gt;Node22 -->
<g id="edge30" class="edge"><title>Node20&#45;&gt;Node22</title>
<path fill="none" stroke="#9a32cd" stroke-dasharray="5,2" d="M419.41,-305.724C426.013,-304.741 432.641,-303.81 439,-303 490.17,-296.479 547.562,-291.001 593.98,-287.029"/>
<polygon fill="#9a32cd" stroke="#9a32cd" points="418.453,-302.329 409.097,-307.301 419.511,-309.249 418.453,-302.329"/>
<text text-anchor="middle" x="507.5" y="-306" font-family="Helvetica,sans-Serif" font-size="10.00"> objects</text>
</g>
<!-- Node21&#45;&gt;Node1 -->
<g id="edge35" class="edge"><title>Node21&#45;&gt;Node1</title>
<path fill="none" stroke="#9a32cd" stroke-dasharray="5,2" d="M387.386,-166.377C402.414,-160.032 421.3,-153.191 439,-150 498.923,-139.197 515.59,-142.376 576,-150 725.085,-168.815 1091.4,-262.39 1231,-318 1239.5,-321.387 1240.44,-324.76 1249,-328 1253.23,-329.601 1562.59,-397.002 1567,-398 1574.03,-399.59 1581.37,-401.271 1588.68,-402.955"/>
<polygon fill="#9a32cd" stroke="#9a32cd" points="385.878,-163.216 378.119,-170.431 388.683,-169.629 385.878,-163.216"/>
<text text-anchor="middle" x="994" y="-268" font-family="Helvetica,sans-Serif" font-size="10.00"> mTableMapping</text>
</g>
<!-- Node21&#45;&gt;Node19 -->
<g id="edge26" class="edge"><title>Node21&#45;&gt;Node19</title>
<path fill="none" stroke="#9a32cd" stroke-dasharray="5,2" d="M430.192,-184.413C485.302,-189.304 555.388,-199.273 576,-219 602.329,-244.198 568.316,-273.144 594,-299 598.66,-303.692 604.149,-307.419 610.082,-310.371"/>
<polygon fill="#9a32cd" stroke="#9a32cd" points="430.351,-180.914 420.092,-183.558 429.761,-187.889 430.351,-180.914"/>
<text text-anchor="middle" x="507.5" y="-277" font-family="Helvetica,sans-Serif" font-size="10.00"> shTypes</text>
<text text-anchor="middle" x="507.5" y="-266" font-family="Helvetica,sans-Serif" font-size="10.00">cavities</text>
<text text-anchor="middle" x="507.5" y="-255" font-family="Helvetica,sans-Serif" font-size="10.00">normalTableTypes</text>
<text text-anchor="middle" x="507.5" y="-244" font-family="Helvetica,sans-Serif" font-size="10.00">ppTypes</text>
<text text-anchor="middle" x="507.5" y="-233" font-family="Helvetica,sans-Serif" font-size="10.00">ttTypes</text>
<text text-anchor="middle" x="507.5" y="-222" font-family="Helvetica,sans-Serif" font-size="10.00">allowedTables</text>
</g>
<!-- Node21&#45;&gt;Node22 -->
<g id="edge33" class="edge"><title>Node21&#45;&gt;Node22</title>
<path fill="none" stroke="#9a32cd" stroke-dasharray="5,2" d="M410.112,-168.305C466.326,-156.906 551.514,-143.971 576,-164 607.237,-189.552 566.782,-223.204 594,-253 601.188,-260.869 610.56,-266.482 620.544,-270.479"/>
<polygon fill="#9a32cd" stroke="#9a32cd" points="409.055,-164.95 399.974,-170.408 410.477,-171.804 409.055,-164.95"/>
<text text-anchor="middle" x="507.5" y="-167" font-family="Helvetica,sans-Serif" font-size="10.00"> cavities</text>
</g>
<!-- Node22&#45;&gt;Node16 -->
<g id="edge29" class="edge"><title>Node22&#45;&gt;Node16</title>
<path fill="none" stroke="#9a32cd" stroke-dasharray="5,2" d="M787.475,-286.322C865.091,-292.069 974.789,-302.119 1070,-318 1142.52,-330.096 1160.36,-335.608 1231,-356 1234.23,-356.932 1265.12,-367.538 1292.56,-376.998"/>
<polygon fill="#9a32cd" stroke="#9a32cd" points="787.447,-282.81 777.219,-285.573 786.938,-289.792 787.447,-282.81"/>
<text text-anchor="middle" x="994" y="-321" font-family="Helvetica,sans-Serif" font-size="10.00"> mArena</text>
</g>
<!-- Node23&#45;&gt;Node22 -->
<g id="edge31" class="edge"><title>Node23&#45;&gt;Node22</title>
<path fill="none" stroke="#9a32cd" stroke-dasharray="5,2" d="M419.328,-109.116C465.126,-103.32 528.003,-102.306 576,-128 636.026,-160.134 670.583,-241.831 681.064,-270.153"/>
<polygon fill="#9a32cd" stroke="#9a32cd" points="418.673,-105.673 409.243,-110.503 419.627,-112.607 418.673,-105.673"/>
<text text-anchor="middle" x="507.5" y="-142" font-family="Helvetica,sans-Serif" font-size="10.00"> workstations</text>
<text text-anchor="middle" x="507.5" y="-131" font-family="Helvetica,sans-Serif" font-size="10.00">waypoints</text>
</g>
<!-- Node24 -->
<g id="node24" class="node"><title>Node24</title>
<polygon fill="none" stroke="#bfbfbf" points="1281.5,-63 1281.5,-93 1392.5,-93 1392.5,-63 1281.5,-63"/>
<text text-anchor="start" x="1289.5" y="-81" font-family="Helvetica,sans-Serif" font-size="10.00">std::vector&lt; unsigned</text>
<text text-anchor="middle" x="1337" y="-70" font-family="Helvetica,sans-Serif" font-size="10.00"> int &gt;</text>
</g>
<!-- Node24&#45;&gt;Node1 -->
<g id="edge34" class="edge"><title>Node24&#45;&gt;Node1</title>
<path fill="none" stroke="#9a32cd" stroke-dasharray="5,2" d="M1402.52,-69.7827C1461.2,-63.7925 1542.31,-59.705 1567,-79 1619.75,-120.221 1645.43,-341.932 1651.54,-402.629"/>
<polygon fill="#9a32cd" stroke="#9a32cd" points="1402.15,-66.3022 1392.57,-70.8372 1402.88,-73.2632 1402.15,-66.3022"/>
<text text-anchor="middle" x="1505" y="-192" font-family="Helvetica,sans-Serif" font-size="10.00"> mTables0</text>
<text text-anchor="middle" x="1505" y="-181" font-family="Helvetica,sans-Serif" font-size="10.00">mTables15</text>
<text text-anchor="middle" x="1505" y="-170" font-family="Helvetica,sans-Serif" font-size="10.00">mPpts</text>
<text text-anchor="middle" x="1505" y="-159" font-family="Helvetica,sans-Serif" font-size="10.00">mTables5</text>
<text text-anchor="middle" x="1505" y="-148" font-family="Helvetica,sans-Serif" font-size="10.00">mConveyors</text>
<text text-anchor="middle" x="1505" y="-137" font-family="Helvetica,sans-Serif" font-size="10.00">mWaypoints</text>
<text text-anchor="middle" x="1505" y="-126" font-family="Helvetica,sans-Serif" font-size="10.00">mShelfs</text>
<text text-anchor="middle" x="1505" y="-115" font-family="Helvetica,sans-Serif" font-size="10.00">mObjects</text>
<text text-anchor="middle" x="1505" y="-104" font-family="Helvetica,sans-Serif" font-size="10.00">mPptObjects</text>
<text text-anchor="middle" x="1505" y="-93" font-family="Helvetica,sans-Serif" font-size="10.00">mTables10</text>
<text text-anchor="middle" x="1505" y="-82" font-family="Helvetica,sans-Serif" font-size="10.00">...</text>
</g>
<!-- Node25 -->
<g id="node25" class="node"><title>Node25</title>
<polygon fill="none" stroke="#bfbfbf" points="1265.5,-502.5 1265.5,-543.5 1408.5,-543.5 1408.5,-502.5 1265.5,-502.5"/>
<text text-anchor="start" x="1273.5" y="-531.5" font-family="Helvetica,sans-Serif" font-size="10.00">std::vector&lt; set&lt; atwork</text>
<text text-anchor="start" x="1273.5" y="-520.5" font-family="Helvetica,sans-Serif" font-size="10.00">_commander::task_generator</text>
<text text-anchor="middle" x="1337" y="-509.5" font-family="Helvetica,sans-Serif" font-size="10.00">::ObjectType &gt; &gt;</text>
</g>
<!-- Node25&#45;&gt;Node1 -->
<g id="edge36" class="edge"><title>Node25&#45;&gt;Node1</title>
<path fill="none" stroke="#9a32cd" stroke-dasharray="5,2" d="M1418.63,-521.041C1463.88,-517.437 1520.43,-508.654 1567,-488 1596.21,-475.044 1623.7,-449.458 1639.42,-433.068"/>
<polygon fill="#9a32cd" stroke="#9a32cd" points="1418.28,-517.557 1408.56,-521.773 1418.79,-524.538 1418.28,-517.557"/>
<text text-anchor="middle" x="1505" y="-522" font-family="Helvetica,sans-Serif" font-size="10.00"> mAvailableObjectsPerTable</text>
</g>
<!-- Node26&#45;&gt;Node25 -->
<g id="edge37" class="edge"><title>Node26&#45;&gt;Node25</title>
<path fill="none" stroke="#9a32cd" stroke-dasharray="5,2" d="M1080.34,-528.248C1137.39,-527.077 1211.56,-525.555 1265.3,-524.451"/>
<polygon fill="#9a32cd" stroke="#9a32cd" points="1080.18,-524.751 1070.26,-528.455 1080.33,-531.749 1080.18,-524.751"/>
<text text-anchor="middle" x="1159.5" y="-531" font-family="Helvetica,sans-Serif" font-size="10.00"> elements</text>
</g>
<!-- Node27 -->
<g id="node27" class="node"><title>Node27</title>
<g id="a_node27"><a xlink:title="STL class. ">
<polygon fill="none" stroke="#bfbfbf" points="1285.5,-14 1285.5,-44 1388.5,-44 1388.5,-14 1285.5,-14"/>
<text text-anchor="start" x="1293.5" y="-32" font-family="Helvetica,sans-Serif" font-size="10.00">std::unordered_map</text>
<text text-anchor="middle" x="1337" y="-21" font-family="Helvetica,sans-Serif" font-size="10.00">&lt; K, T &gt;</text>
</a>
</g>
</g>
<!-- Node27&#45;&gt;Node1 -->
<g id="edge39" class="edge"><title>Node27&#45;&gt;Node1</title>
<path fill="none" stroke="#9a32cd" stroke-dasharray="5,2" d="M1398.61,-16.7753C1449.64,-10.2213 1521.41,-10.309 1567,-50 1621.93,-97.8203 1646.26,-339.443 1651.76,-402.781"/>
<polygon fill="#9a32cd" stroke="#9a32cd" points="1398.11,-13.3109 1388.7,-18.1649 1399.09,-20.2431 1398.11,-13.3109"/>
<text text-anchor="middle" x="1505" y="-53" font-family="Helvetica,sans-Serif" font-size="10.00"> mTasks</text>
</g>
<!-- Node28 -->
<g id="node28" class="node"><title>Node28</title>
<polygon fill="none" stroke="#bfbfbf" points="979.5,-38.5 979.5,-57.5 1008.5,-57.5 1008.5,-38.5 979.5,-38.5"/>
<text text-anchor="middle" x="994" y="-45.5" font-family="Helvetica,sans-Serif" font-size="10.00">K</text>
</g>
<!-- Node28&#45;&gt;Node27 -->
<g id="edge40" class="edge"><title>Node28&#45;&gt;Node27</title>
<path fill="none" stroke="#9a32cd" stroke-dasharray="5,2" d="M1018.97,-46.6643C1074.09,-43.5935 1210.79,-35.9765 1285.42,-31.8185"/>
<polygon fill="#9a32cd" stroke="#9a32cd" points="1018.58,-43.1807 1008.79,-47.2316 1018.97,-50.1698 1018.58,-43.1807"/>
<text text-anchor="middle" x="1159.5" y="-46" font-family="Helvetica,sans-Serif" font-size="10.00"> keys</text>
</g>
<!-- Node29 -->
<g id="node29" class="node"><title>Node29</title>
<polygon fill="none" stroke="#bfbfbf" points="979.5,-0.5 979.5,-19.5 1008.5,-19.5 1008.5,-0.5 979.5,-0.5"/>
<text text-anchor="middle" x="994" y="-7.5" font-family="Helvetica,sans-Serif" font-size="10.00">T</text>
</g>
<!-- Node29&#45;&gt;Node27 -->
<g id="edge41" class="edge"><title>Node29&#45;&gt;Node27</title>
<path fill="none" stroke="#9a32cd" stroke-dasharray="5,2" d="M1018.76,-10.8755C1061.32,-12.496 1153.39,-16.236 1231,-21 1248.7,-22.0866 1268.06,-23.4983 1285.28,-24.8327"/>
<polygon fill="#9a32cd" stroke="#9a32cd" points="1018.7,-7.37108 1008.58,-10.4927 1018.44,-14.3661 1018.7,-7.37108"/>
<text text-anchor="middle" x="1159.5" y="-24" font-family="Helvetica,sans-Serif" font-size="10.00"> elements</text>
</g>
<!-- Node30&#45;&gt;Node1 -->
<g id="edge42" class="edge"><title>Node30&#45;&gt;Node1</title>
<path fill="none" stroke="#9a32cd" stroke-dasharray="5,2" d="M1406.88,-200.67C1469.57,-205.476 1554.25,-213.577 1567,-223 1627.85,-267.968 1646.36,-365.527 1651.35,-402.96"/>
<polygon fill="#9a32cd" stroke="#9a32cd" points="1406.87,-197.159 1396.63,-199.898 1406.34,-204.139 1406.87,-197.159"/>
<text text-anchor="middle" x="1505" y="-226" font-family="Helvetica,sans-Serif" font-size="10.00"> validpicks</text>
</g>
</g>
</svg>
