<?xml version="1.0" encoding="UTF-8" standalone="no"?>
<!DOCTYPE svg PUBLIC "-//W3C//DTD SVG 1.1//EN"
 "http://www.w3.org/Graphics/SVG/1.1/DTD/svg11.dtd">
<!-- Generated by graphviz version 2.38.0 (20140413.2041)
 -->
<!-- Title: atwork_commander::task_generator::DefaultConfigParser::update Pages: 1 -->
<!--zoomable 161 -->
<svg id="main" version="1.1" xmlns="http://www.w3.org/2000/svg" xmlns:xlink="http://www.w3.org/1999/xlink" xml:space="preserve" onload="init(evt)">
<style type="text/css"><![CDATA[
.edge:hover path { stroke: red; }
.edge:hover polygon { stroke: red; fill: red; }
]]></style>
<script type="text/javascript"><![CDATA[
var edges = document.getElementsByTagName('g');
if (edges && edges.length) {
  for (var i=0;i<edges.length;i++) {
    if (edges[i].id.substr(0,4)=='edge') {
      edges[i].setAttribute('class','edge');
    }
  }
}
]]></script>
        <defs>
                <circle id="rim" cx="0" cy="0" r="7"/>
                <circle id="rim2" cx="0" cy="0" r="3.5"/>
                <g id="zoomPlus">
                        <use xlink:href="#rim" fill="#404040">
                                <set attributeName="fill" to="#808080" begin="zoomplus.mouseover" end="zoomplus.mouseout"/>
                        </use>
                        <path d="M-4,0h8M0,-4v8" fill="none" stroke="white" stroke-width="1.5" pointer-events="none"/>
                </g>
                <g id="zoomMin">
                        <use xlink:href="#rim" fill="#404040">
                                <set attributeName="fill" to="#808080" begin="zoomminus.mouseover" end="zoomminus.mouseout"/>
                        </use>
                        <path d="M-4,0h8" fill="none" stroke="white" stroke-width="1.5" pointer-events="none"/>
                </g>
                <g id="dirArrow">
                        <path fill="none" stroke="white" stroke-width="1.5" d="M0,-3.0v7 M-2.5,-0.5L0,-3.0L2.5,-0.5"/>
                </g>
               <g id="resetDef">
                       <use xlink:href="#rim2" fill="#404040">
                               <set attributeName="fill" to="#808080" begin="reset.mouseover" end="reset.mouseout"/>
                       </use>
               </g>
        </defs>

<script type="text/javascript">
var viewWidth = 681;
var viewHeight = 161;
var sectionId = 'dynsection-3';
</script>
<script xlink:href="svgpan.js"/>
<svg id="graph" class="graph">
<g id="viewport">
<title>atwork_commander::task_generator::DefaultConfigParser::update</title>
<!-- Node1 -->
<g id="node1" class="node"><title>Node1</title>
<polygon fill="#bfbfbf" stroke="black" points="0,-68 0,-109 157,-109 157,-68 0,-68"/>
<text text-anchor="start" x="8" y="-97" font-family="Helvetica,sans-Serif" font-size="10.00">atwork_commander::task</text>
<text text-anchor="start" x="8" y="-86" font-family="Helvetica,sans-Serif" font-size="10.00">_generator::DefaultConfigParser</text>
<text text-anchor="middle" x="78.5" y="-75" font-family="Helvetica,sans-Serif" font-size="10.00">::update</text>
</g>
<!-- Node2 -->
<g id="node2" class="node"><title>Node2</title>
<g id="a_node2"><a xlink:href="namespaceatwork__commander_1_1task__generator.html#a2835774adb8545ded8e6f915ff3c8abb" target="_top" xlink:title="atwork_commander::task\l_generator::filterObjects">
<polygon fill="none" stroke="black" points="206.5,-122.5 206.5,-152.5 333.5,-152.5 333.5,-122.5 206.5,-122.5"/>
<text text-anchor="start" x="214.5" y="-140.5" font-family="Helvetica,sans-Serif" font-size="10.00">atwork_commander::task</text>
<text text-anchor="middle" x="270" y="-129.5" font-family="Helvetica,sans-Serif" font-size="10.00">_generator::filterObjects</text>
</a>
</g>
</g>
<!-- Node1&#45;&gt;Node2 -->
<g id="edge1" class="edge"><title>Node1&#45;&gt;Node2</title>
<path fill="none" stroke="midnightblue" d="M157.124,-108.572C171.74,-112.351 186.919,-116.276 201.206,-119.97"/>
<polygon fill="midnightblue" stroke="midnightblue" points="200.379,-123.371 210.937,-122.486 202.131,-116.594 200.379,-123.371"/>
</g>
<!-- Node3 -->
<g id="node3" class="node"><title>Node3</title>
<g id="a_node3"><a xlink:href="namespaceatwork__commander_1_1task__generator.html#a22e43f83b934de0f2c2145471712d45c" target="_top" xlink:title="atwork_commander::task\l_generator::readArenaDefinition">
<polygon fill="none" stroke="black" points="193,-73.5 193,-103.5 347,-103.5 347,-73.5 193,-73.5"/>
<text text-anchor="start" x="201" y="-91.5" font-family="Helvetica,sans-Serif" font-size="10.00">atwork_commander::task</text>
<text text-anchor="middle" x="270" y="-80.5" font-family="Helvetica,sans-Serif" font-size="10.00">_generator::readArenaDefinition</text>
</a>
</g>
</g>
<!-- Node1&#45;&gt;Node3 -->
<g id="edge2" class="edge"><title>Node1&#45;&gt;Node3</title>
<path fill="none" stroke="midnightblue" d="M157.124,-88.5C165.48,-88.5 174.021,-88.5 182.474,-88.5"/>
<polygon fill="midnightblue" stroke="midnightblue" points="182.722,-92.0001 192.722,-88.5 182.722,-85.0001 182.722,-92.0001"/>
</g>
<!-- Node4 -->
<g id="node4" class="node"><title>Node4</title>
<g id="a_node4"><a xlink:href="namespaceatwork__commander_1_1task__generator.html#a25e6bca21814abcc09ddefb3d4a806c5" target="_top" xlink:title="atwork_commander::task\l_generator::readTaskList">
<polygon fill="none" stroke="black" points="206.5,-24.5 206.5,-54.5 333.5,-54.5 333.5,-24.5 206.5,-24.5"/>
<text text-anchor="start" x="214.5" y="-42.5" font-family="Helvetica,sans-Serif" font-size="10.00">atwork_commander::task</text>
<text text-anchor="middle" x="270" y="-31.5" font-family="Helvetica,sans-Serif" font-size="10.00">_generator::readTaskList</text>
</a>
</g>
</g>
<!-- Node1&#45;&gt;Node4 -->
<g id="edge3" class="edge"><title>Node1&#45;&gt;Node4</title>
<path fill="none" stroke="midnightblue" d="M157.124,-68.4284C171.74,-64.649 186.919,-60.7241 201.206,-57.0298"/>
<polygon fill="midnightblue" stroke="midnightblue" points="202.131,-60.4058 210.937,-54.5137 200.379,-53.6287 202.131,-60.4058"/>
</g>
<!-- Node5 -->
<g id="node5" class="node"><title>Node5</title>
<g id="a_node5"><a xlink:href="namespaceatwork__commander_1_1task__generator.html#a30deb628d3b15a5ce90a74f7422c39cd" target="_top" xlink:title="atwork_commander::task\l_generator::readTask">
<polygon fill="none" stroke="black" points="383,-24.5 383,-54.5 510,-54.5 510,-24.5 383,-24.5"/>
<text text-anchor="start" x="391" y="-42.5" font-family="Helvetica,sans-Serif" font-size="10.00">atwork_commander::task</text>
<text text-anchor="middle" x="446.5" y="-31.5" font-family="Helvetica,sans-Serif" font-size="10.00">_generator::readTask</text>
</a>
</g>
</g>
<!-- Node4&#45;&gt;Node5 -->
<g id="edge4" class="edge"><title>Node4&#45;&gt;Node5</title>
<path fill="none" stroke="midnightblue" d="M333.506,-39.5C346.161,-39.5 359.573,-39.5 372.552,-39.5"/>
<polygon fill="midnightblue" stroke="midnightblue" points="372.844,-43.0001 382.844,-39.5 372.844,-36.0001 372.844,-43.0001"/>
</g>
<!-- Node6 -->
<g id="node6" class="node"><title>Node6</title>
<g id="a_node6"><a xlink:href="namespaceatwork__commander_1_1task__generator.html#aa4e366e1bb47698d7351c1b233272b63" target="_top" xlink:title="atwork_commander::task\l_generator::readStrings">
<polygon fill="none" stroke="black" points="546,-49.5 546,-79.5 673,-79.5 673,-49.5 546,-49.5"/>
<text text-anchor="start" x="554" y="-67.5" font-family="Helvetica,sans-Serif" font-size="10.00">atwork_commander::task</text>
<text text-anchor="middle" x="609.5" y="-56.5" font-family="Helvetica,sans-Serif" font-size="10.00">_generator::readStrings</text>
</a>
</g>
</g>
<!-- Node5&#45;&gt;Node6 -->
<g id="edge5" class="edge"><title>Node5&#45;&gt;Node6</title>
<path fill="none" stroke="midnightblue" d="M510.208,-49.2372C518.648,-50.5478 527.363,-51.9011 535.956,-53.2354"/>
<polygon fill="midnightblue" stroke="midnightblue" points="535.545,-56.7134 545.963,-54.7893 536.619,-49.7963 535.545,-56.7134"/>
</g>
<!-- Node7 -->
<g id="node7" class="node"><title>Node7</title>
<g id="a_node7"><a xlink:href="namespaceatwork__commander_1_1task__generator.html#a64e3d08d8d47388b9abd2a9cf45fb5f6" target="_top" xlink:title="atwork_commander::task\l_generator::readStruct">
<polygon fill="none" stroke="black" points="546,-0.5 546,-30.5 673,-30.5 673,-0.5 546,-0.5"/>
<text text-anchor="start" x="554" y="-18.5" font-family="Helvetica,sans-Serif" font-size="10.00">atwork_commander::task</text>
<text text-anchor="middle" x="609.5" y="-7.5" font-family="Helvetica,sans-Serif" font-size="10.00">_generator::readStruct</text>
</a>
</g>
</g>
<!-- Node5&#45;&gt;Node7 -->
<g id="edge6" class="edge"><title>Node5&#45;&gt;Node7</title>
<path fill="none" stroke="midnightblue" d="M510.208,-30.1523C518.648,-28.8941 527.363,-27.5949 535.956,-26.314"/>
<polygon fill="midnightblue" stroke="midnightblue" points="536.589,-29.7585 545.963,-24.8222 535.557,-22.835 536.589,-29.7585"/>
</g>
</g>
</svg>
        <g id="navigator" transform="translate(0 0)" fill="#404254">
                <rect fill="#f2f5e9" fill-opacity="0.5" stroke="#606060" stroke-width=".5" x="0" y="0" width="60" height="60"/>
                <use id="zoomplus" xlink:href="#zoomPlus" x="17" y="9" onmousedown="handleZoom(evt,'in')"/>
                <use id="zoomminus" xlink:href="#zoomMin" x="42" y="9" onmousedown="handleZoom(evt,'out')"/>
                <use id="reset" xlink:href="#resetDef" x="30" y="36" onmousedown="handleReset()"/>
                <g id="arrowUp" xlink:href="#dirArrow" transform="translate(30 24)" onmousedown="handlePan(0,-1)">
                  <use xlink:href="#rim" fill="#404040">
                        <set attributeName="fill" to="#808080" begin="arrowUp.mouseover" end="arrowUp.mouseout"/>
                  </use>
                  <path fill="none" stroke="white" stroke-width="1.5" d="M0,-3.0v7 M-2.5,-0.5L0,-3.0L2.5,-0.5"/>
                </g>
                <g id="arrowRight" xlink:href="#dirArrow" transform="rotate(90) translate(36 -43)" onmousedown="handlePan(1,0)">
                  <use xlink:href="#rim" fill="#404040">
                        <set attributeName="fill" to="#808080" begin="arrowRight.mouseover" end="arrowRight.mouseout"/>
                  </use>
                  <path fill="none" stroke="white" stroke-width="1.5" d="M0,-3.0v7 M-2.5,-0.5L0,-3.0L2.5,-0.5"/>
                </g>
                <g id="arrowDown" xlink:href="#dirArrow" transform="rotate(180) translate(-30 -48)" onmousedown="handlePan(0,1)">
                  <use xlink:href="#rim" fill="#404040">
                        <set attributeName="fill" to="#808080" begin="arrowDown.mouseover" end="arrowDown.mouseout"/>
                  </use>
                  <path fill="none" stroke="white" stroke-width="1.5" d="M0,-3.0v7 M-2.5,-0.5L0,-3.0L2.5,-0.5"/>
                </g>
                <g id="arrowLeft" xlink:href="#dirArrow" transform="rotate(270) translate(-36 17)" onmousedown="handlePan(-1,0)">
                  <use xlink:href="#rim" fill="#404040">
                        <set attributeName="fill" to="#808080" begin="arrowLeft.mouseover" end="arrowLeft.mouseout"/>
                  </use>
                  <path fill="none" stroke="white" stroke-width="1.5" d="M0,-3.0v7 M-2.5,-0.5L0,-3.0L2.5,-0.5"/>
                </g>
        </g>
        <svg viewBox="0 0 15 15" width="100%" height="30px" preserveAspectRatio="xMaxYMin meet">
         <g id="arrow_out" transform="scale(0.3 0.3)">
          <a xlink:href="classatwork__commander_1_1task__generator_1_1DefaultConfigParser_a81fa833314d5e8a56ee33f5803a977cf_cgraph_org.svg" target="_base">
           <rect id="button" ry="5" rx="5" y="6" x="6" height="38" width="38"
                fill="#f2f5e9" fill-opacity="0.5" stroke="#606060" stroke-width="1.0"/>
           <path id="arrow"
             d="M 11.500037,31.436501 C 11.940474,20.09759 22.043105,11.32322 32.158766,21.979434 L 37.068811,17.246167 C 37.068811,17.246167 37.088388,32 37.088388,32 L 22.160133,31.978069 C 22.160133,31.978069 26.997745,27.140456 26.997745,27.140456 C 18.528582,18.264221 13.291696,25.230495 11.500037,31.436501 z"
             style="fill:#404040;"/>
          </a>
         </g>
        </svg>
</svg>
