<?xml version="1.0" encoding="UTF-8" standalone="no"?>
<!DOCTYPE svg PUBLIC "-//W3C//DTD SVG 1.1//EN"
 "http://www.w3.org/Graphics/SVG/1.1/DTD/svg11.dtd">
<!-- Generated by graphviz version 2.38.0 (20140413.2041)
 -->
<!-- Title: atwork_commander::task_generator::jurek::Generator::generate Pages: 1 -->
<!--zoomable 1237 -->
<svg id="main" version="1.1" xmlns="http://www.w3.org/2000/svg" xmlns:xlink="http://www.w3.org/1999/xlink" xml:space="preserve" onload="init(evt)">
<style type="text/css"><![CDATA[
.edge:hover path { stroke: red; }
.edge:hover polygon { stroke: red; fill: red; }
]]></style>
<script type="text/javascript"><![CDATA[
var edges = document.getElementsByTagName('g');
if (edges && edges.length) {
  for (var i=0;i<edges.length;i++) {
    if (edges[i].id.substr(0,4)=='edge') {
      edges[i].setAttribute('class','edge');
    }
  }
}
]]></script>
        <defs>
                <circle id="rim" cx="0" cy="0" r="7"/>
                <circle id="rim2" cx="0" cy="0" r="3.5"/>
                <g id="zoomPlus">
                        <use xlink:href="#rim" fill="#404040">
                                <set attributeName="fill" to="#808080" begin="zoomplus.mouseover" end="zoomplus.mouseout"/>
                        </use>
                        <path d="M-4,0h8M0,-4v8" fill="none" stroke="white" stroke-width="1.5" pointer-events="none"/>
                </g>
                <g id="zoomMin">
                        <use xlink:href="#rim" fill="#404040">
                                <set attributeName="fill" to="#808080" begin="zoomminus.mouseover" end="zoomminus.mouseout"/>
                        </use>
                        <path d="M-4,0h8" fill="none" stroke="white" stroke-width="1.5" pointer-events="none"/>
                </g>
                <g id="dirArrow">
                        <path fill="none" stroke="white" stroke-width="1.5" d="M0,-3.0v7 M-2.5,-0.5L0,-3.0L2.5,-0.5"/>
                </g>
               <g id="resetDef">
                       <use xlink:href="#rim2" fill="#404040">
                               <set attributeName="fill" to="#808080" begin="reset.mouseover" end="reset.mouseout"/>
                       </use>
               </g>
        </defs>

<script type="text/javascript">
var viewWidth = 842;
var viewHeight = 1237;
var sectionId = 'dynsection-16';
</script>
<script xlink:href="svgpan.js"/>
<svg id="graph" class="graph">
<g id="viewport">
<title>atwork_commander::task_generator::jurek::Generator::generate</title>
<!-- Node1 -->
<g id="node1" class="node"><title>Node1</title>
<polygon fill="#bfbfbf" stroke="black" points="0,-578.5 0,-619.5 138,-619.5 138,-578.5 0,-578.5"/>
<text text-anchor="start" x="8" y="-607.5" font-family="Helvetica,sans-Serif" font-size="10.00">atwork_commander::task</text>
<text text-anchor="start" x="8" y="-596.5" font-family="Helvetica,sans-Serif" font-size="10.00">_generator::jurek::Generator</text>
<text text-anchor="middle" x="69" y="-585.5" font-family="Helvetica,sans-Serif" font-size="10.00">::generate</text>
</g>
<!-- Node2 -->
<g id="node2" class="node"><title>Node2</title>
<g id="a_node2"><a xlink:href="classatwork__commander_1_1task__generator_1_1jurek_1_1Generator.html#a20d254a95d96bb7cb48b740ab79676c3" target="_top" xlink:title="atwork_commander::task\l_generator::jurek::Generator\l::generateImpl">
<polygon fill="none" stroke="black" points="174,-578.5 174,-619.5 312,-619.5 312,-578.5 174,-578.5"/>
<text text-anchor="start" x="182" y="-607.5" font-family="Helvetica,sans-Serif" font-size="10.00">atwork_commander::task</text>
<text text-anchor="start" x="182" y="-596.5" font-family="Helvetica,sans-Serif" font-size="10.00">_generator::jurek::Generator</text>
<text text-anchor="middle" x="243" y="-585.5" font-family="Helvetica,sans-Serif" font-size="10.00">::generateImpl</text>
</a>
</g>
</g>
<!-- Node1&#45;&gt;Node2 -->
<g id="edge1" class="edge"><title>Node1&#45;&gt;Node2</title>
<path fill="none" stroke="midnightblue" d="M138.473,-599C146.732,-599 155.216,-599 163.602,-599"/>
<polygon fill="midnightblue" stroke="midnightblue" points="163.762,-602.5 173.762,-599 163.762,-595.5 163.762,-602.5"/>
</g>
<!-- Node3 -->
<g id="node3" class="node"><title>Node3</title>
<g id="a_node3"><a xlink:href="classatwork__commander_1_1task__generator_1_1jurek_1_1Generator.html#a598368025bb6d251d96bad44da2a7d94" target="_top" xlink:title="atwork_commander::task\l_generator::jurek::Generator\l::readParameters">
<polygon fill="none" stroke="black" points="348,-1118.5 348,-1159.5 486,-1159.5 486,-1118.5 348,-1118.5"/>
<text text-anchor="start" x="356" y="-1147.5" font-family="Helvetica,sans-Serif" font-size="10.00">atwork_commander::task</text>
<text text-anchor="start" x="356" y="-1136.5" font-family="Helvetica,sans-Serif" font-size="10.00">_generator::jurek::Generator</text>
<text text-anchor="middle" x="417" y="-1125.5" font-family="Helvetica,sans-Serif" font-size="10.00">::readParameters</text>
</a>
</g>
</g>
<!-- Node2&#45;&gt;Node3 -->
<g id="edge2" class="edge"><title>Node2&#45;&gt;Node3</title>
<path fill="none" stroke="midnightblue" d="M245.711,-619.754C253.146,-705.46 285.138,-1030.98 348,-1109 348.708,-1109.88 349.448,-1110.73 350.215,-1111.56"/>
<polygon fill="midnightblue" stroke="midnightblue" points="348.027,-1114.3 357.801,-1118.39 352.71,-1109.1 348.027,-1114.3"/>
</g>
<!-- Node8 -->
<g id="node8" class="node"><title>Node8</title>
<g id="a_node8"><a xlink:href="classatwork__commander_1_1task__generator_1_1jurek_1_1Generator.html#a2c8f2d001e2254efcae1018dd1f36cdd" target="_top" xlink:title="atwork_commander::task\l_generator::jurek::Generator\l::toObjectType">
<polygon fill="none" stroke="black" points="696,-1167.5 696,-1208.5 834,-1208.5 834,-1167.5 696,-1167.5"/>
<text text-anchor="start" x="704" y="-1196.5" font-family="Helvetica,sans-Serif" font-size="10.00">atwork_commander::task</text>
<text text-anchor="start" x="704" y="-1185.5" font-family="Helvetica,sans-Serif" font-size="10.00">_generator::jurek::Generator</text>
<text text-anchor="middle" x="765" y="-1174.5" font-family="Helvetica,sans-Serif" font-size="10.00">::toObjectType</text>
</a>
</g>
</g>
<!-- Node2&#45;&gt;Node8 -->
<g id="edge8" class="edge"><title>Node2&#45;&gt;Node8</title>
<path fill="none" stroke="midnightblue" d="M244.482,-619.704C247.127,-713.214 263.055,-1094.8 348,-1169 440.594,-1249.88 593.736,-1231.69 686.127,-1210.36"/>
<polygon fill="midnightblue" stroke="midnightblue" points="687.058,-1213.74 695.979,-1208.02 685.441,-1206.93 687.058,-1213.74"/>
</g>
<!-- Node9 -->
<g id="node9" class="node"><title>Node9</title>
<g id="a_node9"><a xlink:href="classatwork__commander_1_1task__generator_1_1jurek_1_1Generator.html#afc0bdb82a4951d56e106f4d896dbdaa6" target="_top" xlink:title="atwork_commander::task\l_generator::jurek::Generator\l::order">
<polygon fill="none" stroke="black" points="348,-1058.5 348,-1099.5 486,-1099.5 486,-1058.5 348,-1058.5"/>
<text text-anchor="start" x="356" y="-1087.5" font-family="Helvetica,sans-Serif" font-size="10.00">atwork_commander::task</text>
<text text-anchor="start" x="356" y="-1076.5" font-family="Helvetica,sans-Serif" font-size="10.00">_generator::jurek::Generator</text>
<text text-anchor="middle" x="417" y="-1065.5" font-family="Helvetica,sans-Serif" font-size="10.00">::order</text>
</a>
</g>
</g>
<!-- Node2&#45;&gt;Node9 -->
<g id="edge9" class="edge"><title>Node2&#45;&gt;Node9</title>
<path fill="none" stroke="midnightblue" d="M246.318,-619.7C255.545,-698.838 291.901,-981.197 348,-1049 348.72,-1049.87 349.47,-1050.72 350.247,-1051.54"/>
<polygon fill="midnightblue" stroke="midnightblue" points="348.093,-1054.3 357.902,-1058.31 352.731,-1049.06 348.093,-1054.3"/>
</g>
<!-- Node10 -->
<g id="node10" class="node"><title>Node10</title>
<g id="a_node10"><a xlink:href="classatwork__commander_1_1task__generator_1_1jurek_1_1Generator.html#ac937dc6de058bbca34905a11be7424e4" target="_top" xlink:title="atwork_commander::task\l_generator::jurek::Generator\l::variation">
<polygon fill="none" stroke="black" points="348,-998.5 348,-1039.5 486,-1039.5 486,-998.5 348,-998.5"/>
<text text-anchor="start" x="356" y="-1027.5" font-family="Helvetica,sans-Serif" font-size="10.00">atwork_commander::task</text>
<text text-anchor="start" x="356" y="-1016.5" font-family="Helvetica,sans-Serif" font-size="10.00">_generator::jurek::Generator</text>
<text text-anchor="middle" x="417" y="-1005.5" font-family="Helvetica,sans-Serif" font-size="10.00">::variation</text>
</a>
</g>
</g>
<!-- Node2&#45;&gt;Node10 -->
<g id="edge10" class="edge"><title>Node2&#45;&gt;Node10</title>
<path fill="none" stroke="midnightblue" d="M243.599,-619.601C243.47,-682.746 251.396,-876.142 348,-989 348.85,-989.993 349.738,-990.953 350.662,-991.884"/>
<polygon fill="midnightblue" stroke="midnightblue" points="348.466,-994.611 358.349,-998.432 353.006,-989.283 348.466,-994.611"/>
</g>
<!-- Node11 -->
<g id="node11" class="node"><title>Node11</title>
<g id="a_node11"><a xlink:href="classatwork__commander_1_1task__generator_1_1jurek_1_1Generator.html#a866dab16a5118384225fcdaef9d1357f" target="_top" xlink:title="atwork_commander::task\l_generator::jurek::Generator\l::get_container_id">
<polygon fill="none" stroke="black" points="348,-938.5 348,-979.5 486,-979.5 486,-938.5 348,-938.5"/>
<text text-anchor="start" x="356" y="-967.5" font-family="Helvetica,sans-Serif" font-size="10.00">atwork_commander::task</text>
<text text-anchor="start" x="356" y="-956.5" font-family="Helvetica,sans-Serif" font-size="10.00">_generator::jurek::Generator</text>
<text text-anchor="middle" x="417" y="-945.5" font-family="Helvetica,sans-Serif" font-size="10.00">::get_container_id</text>
</a>
</g>
</g>
<!-- Node2&#45;&gt;Node11 -->
<g id="edge11" class="edge"><title>Node2&#45;&gt;Node11</title>
<path fill="none" stroke="midnightblue" d="M244.807,-619.637C248.088,-676.243 264.65,-835.92 348,-929 348.872,-929.973 349.781,-930.917 350.723,-931.831"/>
<polygon fill="midnightblue" stroke="midnightblue" points="348.585,-934.604 358.522,-938.28 353.046,-929.21 348.585,-934.604"/>
</g>
<!-- Node12 -->
<g id="node12" class="node"><title>Node12</title>
<g id="a_node12"><a xlink:href="classatwork__commander_1_1task__generator_1_1jurek_1_1Generator.html#aa27d0abd693195ad1367ea3662faf27f" target="_top" xlink:title="atwork_commander::task\l_generator::jurek::Generator\l::initialize_mAllTables">
<polygon fill="none" stroke="black" points="348,-878.5 348,-919.5 486,-919.5 486,-878.5 348,-878.5"/>
<text text-anchor="start" x="356" y="-907.5" font-family="Helvetica,sans-Serif" font-size="10.00">atwork_commander::task</text>
<text text-anchor="start" x="356" y="-896.5" font-family="Helvetica,sans-Serif" font-size="10.00">_generator::jurek::Generator</text>
<text text-anchor="middle" x="417" y="-885.5" font-family="Helvetica,sans-Serif" font-size="10.00">::initialize_mAllTables</text>
</a>
</g>
</g>
<!-- Node2&#45;&gt;Node12 -->
<g id="edge12" class="edge"><title>Node2&#45;&gt;Node12</title>
<path fill="none" stroke="midnightblue" d="M246.532,-619.801C253.591,-669.286 277.813,-795.374 348,-869 348.927,-869.972 349.89,-870.914 350.886,-871.828"/>
<polygon fill="midnightblue" stroke="midnightblue" points="349.062,-874.847 359.083,-878.286 353.394,-869.348 349.062,-874.847"/>
</g>
<!-- Node13 -->
<g id="node13" class="node"><title>Node13</title>
<g id="a_node13"><a xlink:href="classatwork__commander_1_1task__generator_1_1jurek_1_1Generator.html#ab5d603114e701a814b4a5ab06ebe4a54" target="_top" xlink:title="atwork_commander::task\l_generator::jurek::Generator\l::initialize_picksleft">
<polygon fill="none" stroke="black" points="348,-818.5 348,-859.5 486,-859.5 486,-818.5 348,-818.5"/>
<text text-anchor="start" x="356" y="-847.5" font-family="Helvetica,sans-Serif" font-size="10.00">atwork_commander::task</text>
<text text-anchor="start" x="356" y="-836.5" font-family="Helvetica,sans-Serif" font-size="10.00">_generator::jurek::Generator</text>
<text text-anchor="middle" x="417" y="-825.5" font-family="Helvetica,sans-Serif" font-size="10.00">::initialize_picksleft</text>
</a>
</g>
</g>
<!-- Node2&#45;&gt;Node13 -->
<g id="edge13" class="edge"><title>Node2&#45;&gt;Node13</title>
<path fill="none" stroke="midnightblue" d="M249.136,-619.747C260.337,-661.02 290.672,-754.159 348,-809 349.25,-810.196 350.556,-811.349 351.907,-812.46"/>
<polygon fill="midnightblue" stroke="midnightblue" points="349.937,-815.354 360.092,-818.375 354.038,-809.681 349.937,-815.354"/>
</g>
<!-- Node14 -->
<g id="node14" class="node"><title>Node14</title>
<g id="a_node14"><a xlink:href="classatwork__commander_1_1task__generator_1_1jurek_1_1Generator.html#ab64fd15facebb8d3aa4cd7c95945a531" target="_top" xlink:title="atwork_commander::task\l_generator::jurek::Generator\l::initialize_mTableTypes">
<polygon fill="none" stroke="black" points="348,-758.5 348,-799.5 486,-799.5 486,-758.5 348,-758.5"/>
<text text-anchor="start" x="356" y="-787.5" font-family="Helvetica,sans-Serif" font-size="10.00">atwork_commander::task</text>
<text text-anchor="start" x="356" y="-776.5" font-family="Helvetica,sans-Serif" font-size="10.00">_generator::jurek::Generator</text>
<text text-anchor="middle" x="417" y="-765.5" font-family="Helvetica,sans-Serif" font-size="10.00">::initialize_mTableTypes</text>
</a>
</g>
</g>
<!-- Node2&#45;&gt;Node14 -->
<g id="edge14" class="edge"><title>Node2&#45;&gt;Node14</title>
<path fill="none" stroke="midnightblue" d="M253.637,-619.63C269.349,-651.297 303.276,-712.086 348,-749 349.567,-750.294 351.199,-751.542 352.882,-752.745"/>
<polygon fill="midnightblue" stroke="midnightblue" points="351.349,-755.921 361.652,-758.39 355.138,-750.034 351.349,-755.921"/>
</g>
<!-- Node15 -->
<g id="node15" class="node"><title>Node15</title>
<g id="a_node15"><a xlink:href="classatwork__commander_1_1task__generator_1_1jurek_1_1Generator.html#a7135974851d33c56529cb879dd935258" target="_top" xlink:title="atwork_commander::task\l_generator::jurek::Generator\l::initialize_validpicks">
<polygon fill="none" stroke="black" points="348,-698.5 348,-739.5 486,-739.5 486,-698.5 348,-698.5"/>
<text text-anchor="start" x="356" y="-727.5" font-family="Helvetica,sans-Serif" font-size="10.00">atwork_commander::task</text>
<text text-anchor="start" x="356" y="-716.5" font-family="Helvetica,sans-Serif" font-size="10.00">_generator::jurek::Generator</text>
<text text-anchor="middle" x="417" y="-705.5" font-family="Helvetica,sans-Serif" font-size="10.00">::initialize_validpicks</text>
</a>
</g>
</g>
<!-- Node2&#45;&gt;Node15 -->
<g id="edge15" class="edge"><title>Node2&#45;&gt;Node15</title>
<path fill="none" stroke="midnightblue" d="M264.04,-619.597C283.98,-639.266 316.125,-668.819 348,-689 350.453,-690.553 353,-692.065 355.606,-693.531"/>
<polygon fill="midnightblue" stroke="midnightblue" points="354.166,-696.729 364.639,-698.33 357.45,-690.547 354.166,-696.729"/>
</g>
<!-- Node16 -->
<g id="node16" class="node"><title>Node16</title>
<g id="a_node16"><a xlink:href="classatwork__commander_1_1task__generator_1_1jurek_1_1Generator.html#a1fa75db61b8221e01e3c86a5b0c29a23" target="_top" xlink:title="atwork_commander::task\l_generator::jurek::Generator\l::sum_vector">
<polygon fill="none" stroke="black" points="348,-638.5 348,-679.5 486,-679.5 486,-638.5 348,-638.5"/>
<text text-anchor="start" x="356" y="-667.5" font-family="Helvetica,sans-Serif" font-size="10.00">atwork_commander::task</text>
<text text-anchor="start" x="356" y="-656.5" font-family="Helvetica,sans-Serif" font-size="10.00">_generator::jurek::Generator</text>
<text text-anchor="middle" x="417" y="-645.5" font-family="Helvetica,sans-Serif" font-size="10.00">::sum_vector</text>
</a>
</g>
</g>
<!-- Node2&#45;&gt;Node16 -->
<g id="edge16" class="edge"><title>Node2&#45;&gt;Node16</title>
<path fill="none" stroke="midnightblue" d="M303.193,-619.649C317.461,-624.626 332.824,-629.985 347.48,-635.098"/>
<polygon fill="midnightblue" stroke="midnightblue" points="346.395,-638.426 356.99,-638.415 348.701,-631.817 346.395,-638.426"/>
</g>
<!-- Node17 -->
<g id="node17" class="node"><title>Node17</title>
<g id="a_node17"><a xlink:href="classatwork__commander_1_1task__generator_1_1jurek_1_1Generator.html#aed3e3410d35ccb8b412e65be1f02c917" target="_top" xlink:title="atwork_commander::task\l_generator::jurek::Generator\l::shortest_list">
<polygon fill="none" stroke="black" points="348,-578.5 348,-619.5 486,-619.5 486,-578.5 348,-578.5"/>
<text text-anchor="start" x="356" y="-607.5" font-family="Helvetica,sans-Serif" font-size="10.00">atwork_commander::task</text>
<text text-anchor="start" x="356" y="-596.5" font-family="Helvetica,sans-Serif" font-size="10.00">_generator::jurek::Generator</text>
<text text-anchor="middle" x="417" y="-585.5" font-family="Helvetica,sans-Serif" font-size="10.00">::shortest_list</text>
</a>
</g>
</g>
<!-- Node2&#45;&gt;Node17 -->
<g id="edge17" class="edge"><title>Node2&#45;&gt;Node17</title>
<path fill="none" stroke="midnightblue" d="M312.473,-599C320.732,-599 329.216,-599 337.602,-599"/>
<polygon fill="midnightblue" stroke="midnightblue" points="337.762,-602.5 347.762,-599 337.762,-595.5 337.762,-602.5"/>
</g>
<!-- Node18 -->
<g id="node18" class="node"><title>Node18</title>
<g id="a_node18"><a xlink:href="classatwork__commander_1_1task__generator_1_1jurek_1_1Generator.html#a6ccb532bc6995528bda0e9200a2999ae" target="_top" xlink:title="atwork_commander::task\l_generator::jurek::Generator\l::update_validpicks">
<polygon fill="none" stroke="black" points="348,-518.5 348,-559.5 486,-559.5 486,-518.5 348,-518.5"/>
<text text-anchor="start" x="356" y="-547.5" font-family="Helvetica,sans-Serif" font-size="10.00">atwork_commander::task</text>
<text text-anchor="start" x="356" y="-536.5" font-family="Helvetica,sans-Serif" font-size="10.00">_generator::jurek::Generator</text>
<text text-anchor="middle" x="417" y="-525.5" font-family="Helvetica,sans-Serif" font-size="10.00">::update_validpicks</text>
</a>
</g>
</g>
<!-- Node2&#45;&gt;Node18 -->
<g id="edge18" class="edge"><title>Node2&#45;&gt;Node18</title>
<path fill="none" stroke="midnightblue" d="M303.193,-578.351C317.461,-573.374 332.824,-568.015 347.48,-562.902"/>
<polygon fill="midnightblue" stroke="midnightblue" points="348.701,-566.183 356.99,-559.585 346.395,-559.574 348.701,-566.183"/>
</g>
<!-- Node19 -->
<g id="node19" class="node"><title>Node19</title>
<g id="a_node19"><a xlink:href="classatwork__commander_1_1task__generator_1_1jurek_1_1Generator.html#a8e4768730cfb7f3c27dc6225e629e2bb" target="_top" xlink:title="atwork_commander::task\l_generator::jurek::Generator\l::generate_objects">
<polygon fill="none" stroke="black" points="348,-458.5 348,-499.5 486,-499.5 486,-458.5 348,-458.5"/>
<text text-anchor="start" x="356" y="-487.5" font-family="Helvetica,sans-Serif" font-size="10.00">atwork_commander::task</text>
<text text-anchor="start" x="356" y="-476.5" font-family="Helvetica,sans-Serif" font-size="10.00">_generator::jurek::Generator</text>
<text text-anchor="middle" x="417" y="-465.5" font-family="Helvetica,sans-Serif" font-size="10.00">::generate_objects</text>
</a>
</g>
</g>
<!-- Node2&#45;&gt;Node19 -->
<g id="edge19" class="edge"><title>Node2&#45;&gt;Node19</title>
<path fill="none" stroke="midnightblue" d="M264.04,-578.403C283.98,-558.734 316.125,-529.181 348,-509 350.453,-507.447 353,-505.935 355.606,-504.469"/>
<polygon fill="midnightblue" stroke="midnightblue" points="357.45,-507.453 364.639,-499.67 354.166,-501.271 357.45,-507.453"/>
</g>
<!-- Node20 -->
<g id="node20" class="node"><title>Node20</title>
<g id="a_node20"><a xlink:href="classatwork__commander_1_1task__generator_1_1jurek_1_1Generator.html#a53f1c68d9325691496b0bd11dac63dbb" target="_top" xlink:title="atwork_commander::task\l_generator::jurek::Generator\l::debugAll">
<polygon fill="none" stroke="black" points="348,-398.5 348,-439.5 486,-439.5 486,-398.5 348,-398.5"/>
<text text-anchor="start" x="356" y="-427.5" font-family="Helvetica,sans-Serif" font-size="10.00">atwork_commander::task</text>
<text text-anchor="start" x="356" y="-416.5" font-family="Helvetica,sans-Serif" font-size="10.00">_generator::jurek::Generator</text>
<text text-anchor="middle" x="417" y="-405.5" font-family="Helvetica,sans-Serif" font-size="10.00">::debugAll</text>
</a>
</g>
</g>
<!-- Node2&#45;&gt;Node20 -->
<g id="edge21" class="edge"><title>Node2&#45;&gt;Node20</title>
<path fill="none" stroke="midnightblue" d="M253.637,-578.37C269.349,-546.703 303.276,-485.914 348,-449 349.567,-447.706 351.199,-446.458 352.882,-445.255"/>
<polygon fill="midnightblue" stroke="midnightblue" points="355.138,-447.966 361.652,-439.61 351.349,-442.079 355.138,-447.966"/>
</g>
<!-- Node21 -->
<g id="node21" class="node"><title>Node21</title>
<g id="a_node21"><a xlink:href="classatwork__commander_1_1task__generator_1_1jurek_1_1Generator.html#ae79fd6729dc4e4f114726eb1c55900f9" target="_top" xlink:title="atwork_commander::task\l_generator::jurek::Generator\l::checkPickNeqPlace">
<polygon fill="none" stroke="black" points="348,-338.5 348,-379.5 486,-379.5 486,-338.5 348,-338.5"/>
<text text-anchor="start" x="356" y="-367.5" font-family="Helvetica,sans-Serif" font-size="10.00">atwork_commander::task</text>
<text text-anchor="start" x="356" y="-356.5" font-family="Helvetica,sans-Serif" font-size="10.00">_generator::jurek::Generator</text>
<text text-anchor="middle" x="417" y="-345.5" font-family="Helvetica,sans-Serif" font-size="10.00">::checkPickNeqPlace</text>
</a>
</g>
</g>
<!-- Node2&#45;&gt;Node21 -->
<g id="edge22" class="edge"><title>Node2&#45;&gt;Node21</title>
<path fill="none" stroke="midnightblue" d="M249.136,-578.253C260.337,-536.98 290.672,-443.841 348,-389 349.25,-387.804 350.556,-386.651 351.907,-385.54"/>
<polygon fill="midnightblue" stroke="midnightblue" points="354.038,-388.319 360.092,-379.625 349.937,-382.646 354.038,-388.319"/>
</g>
<!-- Node22 -->
<g id="node22" class="node"><title>Node22</title>
<g id="a_node22"><a xlink:href="classatwork__commander_1_1task__generator_1_1jurek_1_1Generator.html#a40cfc37218574107ab9fc4285e654b2a" target="_top" xlink:title="atwork_commander::task\l_generator::jurek::Generator\l::checkPickCounts">
<polygon fill="none" stroke="black" points="348,-278.5 348,-319.5 486,-319.5 486,-278.5 348,-278.5"/>
<text text-anchor="start" x="356" y="-307.5" font-family="Helvetica,sans-Serif" font-size="10.00">atwork_commander::task</text>
<text text-anchor="start" x="356" y="-296.5" font-family="Helvetica,sans-Serif" font-size="10.00">_generator::jurek::Generator</text>
<text text-anchor="middle" x="417" y="-285.5" font-family="Helvetica,sans-Serif" font-size="10.00">::checkPickCounts</text>
</a>
</g>
</g>
<!-- Node2&#45;&gt;Node22 -->
<g id="edge23" class="edge"><title>Node2&#45;&gt;Node22</title>
<path fill="none" stroke="midnightblue" d="M246.532,-578.199C253.591,-528.714 277.813,-402.626 348,-329 348.927,-328.028 349.89,-327.086 350.886,-326.172"/>
<polygon fill="midnightblue" stroke="midnightblue" points="353.394,-328.652 359.083,-319.714 349.062,-323.153 353.394,-328.652"/>
</g>
<!-- Node23 -->
<g id="node23" class="node"><title>Node23</title>
<g id="a_node23"><a xlink:href="classatwork__commander_1_1task__generator_1_1jurek_1_1Generator.html#aca4a5c5ba1da7dba33dfb0f8843c350d" target="_top" xlink:title="atwork_commander::task\l_generator::jurek::Generator\l::checkPlaceCounts">
<polygon fill="none" stroke="black" points="348,-218.5 348,-259.5 486,-259.5 486,-218.5 348,-218.5"/>
<text text-anchor="start" x="356" y="-247.5" font-family="Helvetica,sans-Serif" font-size="10.00">atwork_commander::task</text>
<text text-anchor="start" x="356" y="-236.5" font-family="Helvetica,sans-Serif" font-size="10.00">_generator::jurek::Generator</text>
<text text-anchor="middle" x="417" y="-225.5" font-family="Helvetica,sans-Serif" font-size="10.00">::checkPlaceCounts</text>
</a>
</g>
</g>
<!-- Node2&#45;&gt;Node23 -->
<g id="edge24" class="edge"><title>Node2&#45;&gt;Node23</title>
<path fill="none" stroke="midnightblue" d="M244.807,-578.363C248.088,-521.757 264.65,-362.08 348,-269 348.872,-268.027 349.781,-267.083 350.723,-266.169"/>
<polygon fill="midnightblue" stroke="midnightblue" points="353.046,-268.79 358.522,-259.72 348.585,-263.396 353.046,-268.79"/>
</g>
<!-- Node24 -->
<g id="node24" class="node"><title>Node24</title>
<g id="a_node24"><a xlink:href="classatwork__commander_1_1task__generator_1_1jurek_1_1Generator.html#aeba4d8c653c195ba0ed6ee5895f83982" target="_top" xlink:title="atwork_commander::task\l_generator::jurek::Generator\l::checkContainers">
<polygon fill="none" stroke="black" points="348,-158.5 348,-199.5 486,-199.5 486,-158.5 348,-158.5"/>
<text text-anchor="start" x="356" y="-187.5" font-family="Helvetica,sans-Serif" font-size="10.00">atwork_commander::task</text>
<text text-anchor="start" x="356" y="-176.5" font-family="Helvetica,sans-Serif" font-size="10.00">_generator::jurek::Generator</text>
<text text-anchor="middle" x="417" y="-165.5" font-family="Helvetica,sans-Serif" font-size="10.00">::checkContainers</text>
</a>
</g>
</g>
<!-- Node2&#45;&gt;Node24 -->
<g id="edge25" class="edge"><title>Node2&#45;&gt;Node24</title>
<path fill="none" stroke="midnightblue" d="M243.599,-578.399C243.47,-515.254 251.396,-321.858 348,-209 348.85,-208.007 349.738,-207.047 350.662,-206.116"/>
<polygon fill="midnightblue" stroke="midnightblue" points="353.006,-208.717 358.349,-199.568 348.466,-203.389 353.006,-208.717"/>
</g>
<!-- Node25 -->
<g id="node25" class="node"><title>Node25</title>
<g id="a_node25"><a xlink:href="classatwork__commander_1_1task__generator_1_1jurek_1_1Generator.html#a24fa62686eb30e4641d99c009f3323fd" target="_top" xlink:title="atwork_commander::task\l_generator::jurek::Generator\l::toTask">
<polygon fill="none" stroke="black" points="348,-98.5 348,-139.5 486,-139.5 486,-98.5 348,-98.5"/>
<text text-anchor="start" x="356" y="-127.5" font-family="Helvetica,sans-Serif" font-size="10.00">atwork_commander::task</text>
<text text-anchor="start" x="356" y="-116.5" font-family="Helvetica,sans-Serif" font-size="10.00">_generator::jurek::Generator</text>
<text text-anchor="middle" x="417" y="-105.5" font-family="Helvetica,sans-Serif" font-size="10.00">::toTask</text>
</a>
</g>
</g>
<!-- Node2&#45;&gt;Node25 -->
<g id="edge26" class="edge"><title>Node2&#45;&gt;Node25</title>
<path fill="none" stroke="midnightblue" d="M246.318,-578.3C255.545,-499.162 291.901,-216.803 348,-149 348.72,-148.13 349.47,-147.285 350.247,-146.463"/>
<polygon fill="midnightblue" stroke="midnightblue" points="352.731,-148.939 357.902,-139.691 348.093,-143.695 352.731,-148.939"/>
</g>
<!-- Node26 -->
<g id="node26" class="node"><title>Node26</title>
<g id="a_node26"><a xlink:href="classatwork__commander_1_1task__generator_1_1jurek_1_1Generator.html#a6a3cbca1e1886e5ce3ad930f261440f7" target="_top" xlink:title="atwork_commander::task\l_generator::jurek::Generator\l::toCavity">
<polygon fill="none" stroke="black" points="522,-74.5 522,-115.5 660,-115.5 660,-74.5 522,-74.5"/>
<text text-anchor="start" x="530" y="-103.5" font-family="Helvetica,sans-Serif" font-size="10.00">atwork_commander::task</text>
<text text-anchor="start" x="530" y="-92.5" font-family="Helvetica,sans-Serif" font-size="10.00">_generator::jurek::Generator</text>
<text text-anchor="middle" x="591" y="-81.5" font-family="Helvetica,sans-Serif" font-size="10.00">::toCavity</text>
</a>
</g>
</g>
<!-- Node2&#45;&gt;Node26 -->
<g id="edge28" class="edge"><title>Node2&#45;&gt;Node26</title>
<path fill="none" stroke="midnightblue" d="M244.877,-578.352C249.059,-490.899 270.136,-152.588 348,-89 396.341,-49.5221 470.034,-57.8659 523.398,-71.8335"/>
<polygon fill="midnightblue" stroke="midnightblue" points="522.546,-75.2288 533.115,-74.4967 524.396,-68.4778 522.546,-75.2288"/>
</g>
<!-- Node27 -->
<g id="node27" class="node"><title>Node27</title>
<g id="a_node27"><a xlink:href="classatwork__commander_1_1task__generator_1_1jurek_1_1Generator.html#aa491e80f0fcf0e849676c39a982b34a4" target="_top" xlink:title="atwork_commander::task\l_generator::jurek::Generator\l::printError">
<polygon fill="none" stroke="black" points="348,-0.5 348,-41.5 486,-41.5 486,-0.5 348,-0.5"/>
<text text-anchor="start" x="356" y="-29.5" font-family="Helvetica,sans-Serif" font-size="10.00">atwork_commander::task</text>
<text text-anchor="start" x="356" y="-18.5" font-family="Helvetica,sans-Serif" font-size="10.00">_generator::jurek::Generator</text>
<text text-anchor="middle" x="417" y="-7.5" font-family="Helvetica,sans-Serif" font-size="10.00">::printError</text>
</a>
</g>
</g>
<!-- Node2&#45;&gt;Node27 -->
<g id="edge29" class="edge"><title>Node2&#45;&gt;Node27</title>
<path fill="none" stroke="midnightblue" d="M245.566,-578.231C252.625,-489.342 283.957,-141.596 348,-56 350.068,-53.2359 352.418,-50.6722 354.97,-48.2967"/>
<polygon fill="midnightblue" stroke="midnightblue" points="357.551,-50.7131 363.157,-41.7229 353.168,-45.2549 357.551,-50.7131"/>
</g>
<!-- Node4 -->
<g id="node4" class="node"><title>Node4</title>
<g id="a_node4"><a xlink:href="classatwork__commander_1_1task__generator_1_1jurek_1_1Generator.html#ad315f8b6419a2eb9d41d046283031036" target="_top" xlink:title="atwork_commander::task\l_generator::jurek::Generator\l::toTaskObject">
<polygon fill="none" stroke="black" points="522,-1077.5 522,-1118.5 660,-1118.5 660,-1077.5 522,-1077.5"/>
<text text-anchor="start" x="530" y="-1106.5" font-family="Helvetica,sans-Serif" font-size="10.00">atwork_commander::task</text>
<text text-anchor="start" x="530" y="-1095.5" font-family="Helvetica,sans-Serif" font-size="10.00">_generator::jurek::Generator</text>
<text text-anchor="middle" x="591" y="-1084.5" font-family="Helvetica,sans-Serif" font-size="10.00">::toTaskObject</text>
</a>
</g>
</g>
<!-- Node3&#45;&gt;Node4 -->
<g id="edge3" class="edge"><title>Node3&#45;&gt;Node4</title>
<path fill="none" stroke="midnightblue" d="M486.473,-1122.68C494.823,-1120.69 503.402,-1118.64 511.879,-1116.62"/>
<polygon fill="midnightblue" stroke="midnightblue" points="512.847,-1119.99 521.762,-1114.27 511.223,-1113.18 512.847,-1119.99"/>
</g>
<!-- Node5 -->
<g id="node5" class="node"><title>Node5</title>
<g id="a_node5"><a xlink:href="classatwork__commander_1_1task__generator_1_1jurek_1_1Generator.html#ace8b675d10370a0bfd36927406fef7ed" target="_top" xlink:title="atwork_commander::task\l_generator::jurek::Generator\l::toContainerType">
<polygon fill="none" stroke="black" points="696,-1107.5 696,-1148.5 834,-1148.5 834,-1107.5 696,-1107.5"/>
<text text-anchor="start" x="704" y="-1136.5" font-family="Helvetica,sans-Serif" font-size="10.00">atwork_commander::task</text>
<text text-anchor="start" x="704" y="-1125.5" font-family="Helvetica,sans-Serif" font-size="10.00">_generator::jurek::Generator</text>
<text text-anchor="middle" x="765" y="-1114.5" font-family="Helvetica,sans-Serif" font-size="10.00">::toContainerType</text>
</a>
</g>
</g>
<!-- Node4&#45;&gt;Node5 -->
<g id="edge4" class="edge"><title>Node4&#45;&gt;Node5</title>
<path fill="none" stroke="midnightblue" d="M660.473,-1109.94C668.823,-1111.4 677.402,-1112.9 685.879,-1114.37"/>
<polygon fill="midnightblue" stroke="midnightblue" points="685.31,-1117.83 695.762,-1116.1 686.513,-1110.93 685.31,-1117.83"/>
</g>
<!-- Node6 -->
<g id="node6" class="node"><title>Node6</title>
<g id="a_node6"><a xlink:href="classatwork__commander_1_1task__generator_1_1jurek_1_1Generator.html#ac781b2fc429536d8d816b6bd857946b3" target="_top" xlink:title="atwork_commander::task\l_generator::jurek::Generator\l::toCavityType">
<polygon fill="none" stroke="black" points="696,-1047.5 696,-1088.5 834,-1088.5 834,-1047.5 696,-1047.5"/>
<text text-anchor="start" x="704" y="-1076.5" font-family="Helvetica,sans-Serif" font-size="10.00">atwork_commander::task</text>
<text text-anchor="start" x="704" y="-1065.5" font-family="Helvetica,sans-Serif" font-size="10.00">_generator::jurek::Generator</text>
<text text-anchor="middle" x="765" y="-1054.5" font-family="Helvetica,sans-Serif" font-size="10.00">::toCavityType</text>
</a>
</g>
</g>
<!-- Node4&#45;&gt;Node6 -->
<g id="edge5" class="edge"><title>Node4&#45;&gt;Node6</title>
<path fill="none" stroke="midnightblue" d="M660.473,-1086.06C668.823,-1084.6 677.402,-1083.1 685.879,-1081.63"/>
<polygon fill="midnightblue" stroke="midnightblue" points="686.513,-1085.07 695.762,-1079.9 685.31,-1078.17 686.513,-1085.07"/>
</g>
<!-- Node7 -->
<g id="node7" class="node"><title>Node7</title>
<g id="a_node7"><a xlink:href="classatwork__commander_1_1task__generator_1_1jurek_1_1Generator.html#ad72dba3d08229cbca8521ae1c9153f0b" target="_top" xlink:title="atwork_commander::task\l_generator::jurek::Generator\l::toColoredObjectType">
<polygon fill="none" stroke="black" points="696,-987.5 696,-1028.5 834,-1028.5 834,-987.5 696,-987.5"/>
<text text-anchor="start" x="704" y="-1016.5" font-family="Helvetica,sans-Serif" font-size="10.00">atwork_commander::task</text>
<text text-anchor="start" x="704" y="-1005.5" font-family="Helvetica,sans-Serif" font-size="10.00">_generator::jurek::Generator</text>
<text text-anchor="middle" x="765" y="-994.5" font-family="Helvetica,sans-Serif" font-size="10.00">::toColoredObjectType</text>
</a>
</g>
</g>
<!-- Node4&#45;&gt;Node7 -->
<g id="edge6" class="edge"><title>Node4&#45;&gt;Node7</title>
<path fill="none" stroke="midnightblue" d="M625.684,-1077.33C645.798,-1065.3 672.018,-1050.16 696,-1038 699.461,-1036.24 703.048,-1034.49 706.683,-1032.75"/>
<polygon fill="midnightblue" stroke="midnightblue" points="708.196,-1035.91 715.773,-1028.5 705.232,-1029.57 708.196,-1035.91"/>
</g>
<!-- Node4&#45;&gt;Node8 -->
<g id="edge7" class="edge"><title>Node4&#45;&gt;Node8</title>
<path fill="none" stroke="midnightblue" d="M625.684,-1118.67C645.798,-1130.7 672.018,-1145.84 696,-1158 699.461,-1159.76 703.048,-1161.51 706.683,-1163.25"/>
<polygon fill="midnightblue" stroke="midnightblue" points="705.232,-1166.43 715.773,-1167.5 708.196,-1160.09 705.232,-1166.43"/>
</g>
<!-- Node19&#45;&gt;Node4 -->
<g id="edge20" class="edge"><title>Node19&#45;&gt;Node4</title>
<path fill="none" stroke="midnightblue" d="M476.304,-499.526C479.917,-502.303 483.213,-505.446 486,-509 555.462,-597.575 581.862,-958.569 588.318,-1067.03"/>
<polygon fill="midnightblue" stroke="midnightblue" points="584.839,-1067.51 588.913,-1077.3 591.828,-1067.11 584.839,-1067.51"/>
</g>
<!-- Node25&#45;&gt;Node26 -->
<g id="edge27" class="edge"><title>Node25&#45;&gt;Node26</title>
<path fill="none" stroke="midnightblue" d="M486.473,-109.446C494.732,-108.293 503.216,-107.109 511.602,-105.939"/>
<polygon fill="midnightblue" stroke="midnightblue" points="512.342,-109.37 521.762,-104.522 511.375,-102.437 512.342,-109.37"/>
</g>
</g>
</svg>
        <g id="navigator" transform="translate(0 0)" fill="#404254">
                <rect fill="#f2f5e9" fill-opacity="0.5" stroke="#606060" stroke-width=".5" x="0" y="0" width="60" height="60"/>
                <use id="zoomplus" xlink:href="#zoomPlus" x="17" y="9" onmousedown="handleZoom(evt,'in')"/>
                <use id="zoomminus" xlink:href="#zoomMin" x="42" y="9" onmousedown="handleZoom(evt,'out')"/>
                <use id="reset" xlink:href="#resetDef" x="30" y="36" onmousedown="handleReset()"/>
                <g id="arrowUp" xlink:href="#dirArrow" transform="translate(30 24)" onmousedown="handlePan(0,-1)">
                  <use xlink:href="#rim" fill="#404040">
                        <set attributeName="fill" to="#808080" begin="arrowUp.mouseover" end="arrowUp.mouseout"/>
                  </use>
                  <path fill="none" stroke="white" stroke-width="1.5" d="M0,-3.0v7 M-2.5,-0.5L0,-3.0L2.5,-0.5"/>
                </g>
                <g id="arrowRight" xlink:href="#dirArrow" transform="rotate(90) translate(36 -43)" onmousedown="handlePan(1,0)">
                  <use xlink:href="#rim" fill="#404040">
                        <set attributeName="fill" to="#808080" begin="arrowRight.mouseover" end="arrowRight.mouseout"/>
                  </use>
                  <path fill="none" stroke="white" stroke-width="1.5" d="M0,-3.0v7 M-2.5,-0.5L0,-3.0L2.5,-0.5"/>
                </g>
                <g id="arrowDown" xlink:href="#dirArrow" transform="rotate(180) translate(-30 -48)" onmousedown="handlePan(0,1)">
                  <use xlink:href="#rim" fill="#404040">
                        <set attributeName="fill" to="#808080" begin="arrowDown.mouseover" end="arrowDown.mouseout"/>
                  </use>
                  <path fill="none" stroke="white" stroke-width="1.5" d="M0,-3.0v7 M-2.5,-0.5L0,-3.0L2.5,-0.5"/>
                </g>
                <g id="arrowLeft" xlink:href="#dirArrow" transform="rotate(270) translate(-36 17)" onmousedown="handlePan(-1,0)">
                  <use xlink:href="#rim" fill="#404040">
                        <set attributeName="fill" to="#808080" begin="arrowLeft.mouseover" end="arrowLeft.mouseout"/>
                  </use>
                  <path fill="none" stroke="white" stroke-width="1.5" d="M0,-3.0v7 M-2.5,-0.5L0,-3.0L2.5,-0.5"/>
                </g>
        </g>
        <svg viewBox="0 0 15 15" width="100%" height="30px" preserveAspectRatio="xMaxYMin meet">
         <g id="arrow_out" transform="scale(0.3 0.3)">
          <a xlink:href="classatwork__commander_1_1task__generator_1_1jurek_1_1Generator_a85a2c2f9b418a91faf01964ce75f0562_cgraph_org.svg" target="_base">
           <rect id="button" ry="5" rx="5" y="6" x="6" height="38" width="38"
                fill="#f2f5e9" fill-opacity="0.5" stroke="#606060" stroke-width="1.0"/>
           <path id="arrow"
             d="M 11.500037,31.436501 C 11.940474,20.09759 22.043105,11.32322 32.158766,21.979434 L 37.068811,17.246167 C 37.068811,17.246167 37.088388,32 37.088388,32 L 22.160133,31.978069 C 22.160133,31.978069 26.997745,27.140456 26.997745,27.140456 C 18.528582,18.264221 13.291696,25.230495 11.500037,31.436501 z"
             style="fill:#404040;"/>
          </a>
         </g>
        </svg>
</svg>
