<?xml version="1.0" encoding="UTF-8" standalone="no"?>
<!DOCTYPE svg PUBLIC "-//W3C//DTD SVG 1.1//EN"
 "http://www.w3.org/Graphics/SVG/1.1/DTD/svg11.dtd">
<!-- Generated by graphviz version 2.38.0 (20140413.2041)
 -->
<!-- Title: atwork_commander::Control::refbox Pages: 1 -->
<svg width="464pt" height="78pt"
 viewBox="0.00 0.00 464.00 77.50" xmlns="http://www.w3.org/2000/svg" xmlns:xlink="http://www.w3.org/1999/xlink">
<g id="graph0" class="graph" transform="scale(1 1) rotate(0) translate(4 73.5)">
<title>atwork_commander::Control::refbox</title>
<!-- Node1 -->
<g id="node1" class="node"><title>Node1</title>
<polygon fill="#bfbfbf" stroke="black" points="0,-22.5 0,-52.5 140,-52.5 140,-22.5 0,-22.5"/>
<text text-anchor="start" x="8" y="-40.5" font-family="Helvetica,sans-Serif" font-size="10.00">atwork_commander::Control</text>
<text text-anchor="middle" x="70" y="-29.5" font-family="Helvetica,sans-Serif" font-size="10.00">::refbox</text>
</g>
<!-- Node2 -->
<g id="node2" class="node"><title>Node2</title>
<g id="a_node2"><a xlink:href="control__node_8cpp.html#a3c04138a5bfe5d72780bb7e82a18e627" target="_top" xlink:title="main">
<polygon fill="none" stroke="black" points="225.5,-50 225.5,-69 263.5,-69 263.5,-50 225.5,-50"/>
<text text-anchor="middle" x="244.5" y="-57" font-family="Helvetica,sans-Serif" font-size="10.00">main</text>
</a>
</g>
</g>
<!-- Node1&#45;&gt;Node2 -->
<g id="edge1" class="edge"><title>Node1&#45;&gt;Node2</title>
<path fill="none" stroke="midnightblue" d="M150.405,-47.6271C178.37,-51.1936 207.3,-54.8832 225.338,-57.1836"/>
<polygon fill="midnightblue" stroke="midnightblue" points="150.531,-44.1148 140.168,-46.3215 149.645,-51.0586 150.531,-44.1148"/>
</g>
<!-- Node3 -->
<g id="node3" class="node"><title>Node3</title>
<g id="a_node3"><a xlink:href="structatwork__commander_1_1testing_1_1BasicControlTest.html#a7c61bf7ebe16ebad769123295ffae3f0" target="_top" xlink:title="atwork_commander::testing\l::BasicControlTest::SetUp">
<polygon fill="none" stroke="black" points="176,-0.5 176,-30.5 313,-30.5 313,-0.5 176,-0.5"/>
<text text-anchor="start" x="184" y="-18.5" font-family="Helvetica,sans-Serif" font-size="10.00">atwork_commander::testing</text>
<text text-anchor="middle" x="244.5" y="-7.5" font-family="Helvetica,sans-Serif" font-size="10.00">::BasicControlTest::SetUp</text>
</a>
</g>
</g>
<!-- Node1&#45;&gt;Node3 -->
<g id="edge2" class="edge"><title>Node1&#45;&gt;Node3</title>
<path fill="none" stroke="midnightblue" d="M150.138,-27.4071C158.684,-26.3171 167.325,-25.2151 175.72,-24.1444"/>
<polygon fill="midnightblue" stroke="midnightblue" points="149.645,-23.9414 140.168,-28.6785 150.531,-30.8852 149.645,-23.9414"/>
</g>
<!-- Node4 -->
<g id="node4" class="node"><title>Node4</title>
<g id="a_node4"><a xlink:href="structControlTests.html#a2bc96f00c7bf8ee99a12bf53094c63fd" target="_top" xlink:title="ControlTests::SetUp">
<polygon fill="none" stroke="black" points="349,-6 349,-25 456,-25 456,-6 349,-6"/>
<text text-anchor="middle" x="402.5" y="-13" font-family="Helvetica,sans-Serif" font-size="10.00">ControlTests::SetUp</text>
</a>
</g>
</g>
<!-- Node3&#45;&gt;Node4 -->
<g id="edge3" class="edge"><title>Node3&#45;&gt;Node4</title>
<path fill="none" stroke="midnightblue" d="M323.215,-15.5C331.926,-15.5 340.642,-15.5 348.928,-15.5"/>
<polygon fill="midnightblue" stroke="midnightblue" points="323.017,-12.0001 313.017,-15.5 323.017,-19.0001 323.017,-12.0001"/>
</g>
</g>
</svg>
