<?xml version="1.0" encoding="UTF-8" standalone="no"?>
<!DOCTYPE svg PUBLIC "-//W3C//DTD SVG 1.1//EN"
 "http://www.w3.org/Graphics/SVG/1.1/DTD/svg11.dtd">
<!-- Generated by graphviz version 2.38.0 (20140413.2041)
 -->
<!-- Title: atwork_commander::task_generator::jurek::Generator::fromTask Pages: 1 -->
<!--zoomable 419 -->
<svg id="main" version="1.1" xmlns="http://www.w3.org/2000/svg" xmlns:xlink="http://www.w3.org/1999/xlink" xml:space="preserve" onload="init(evt)">
<style type="text/css"><![CDATA[
.edge:hover path { stroke: red; }
.edge:hover polygon { stroke: red; fill: red; }
]]></style>
<script type="text/javascript"><![CDATA[
var edges = document.getElementsByTagName('g');
if (edges && edges.length) {
  for (var i=0;i<edges.length;i++) {
    if (edges[i].id.substr(0,4)=='edge') {
      edges[i].setAttribute('class','edge');
    }
  }
}
]]></script>
        <defs>
                <circle id="rim" cx="0" cy="0" r="7"/>
                <circle id="rim2" cx="0" cy="0" r="3.5"/>
                <g id="zoomPlus">
                        <use xlink:href="#rim" fill="#404040">
                                <set attributeName="fill" to="#808080" begin="zoomplus.mouseover" end="zoomplus.mouseout"/>
                        </use>
                        <path d="M-4,0h8M0,-4v8" fill="none" stroke="white" stroke-width="1.5" pointer-events="none"/>
                </g>
                <g id="zoomMin">
                        <use xlink:href="#rim" fill="#404040">
                                <set attributeName="fill" to="#808080" begin="zoomminus.mouseover" end="zoomminus.mouseout"/>
                        </use>
                        <path d="M-4,0h8" fill="none" stroke="white" stroke-width="1.5" pointer-events="none"/>
                </g>
                <g id="dirArrow">
                        <path fill="none" stroke="white" stroke-width="1.5" d="M0,-3.0v7 M-2.5,-0.5L0,-3.0L2.5,-0.5"/>
                </g>
               <g id="resetDef">
                       <use xlink:href="#rim2" fill="#404040">
                               <set attributeName="fill" to="#808080" begin="reset.mouseover" end="reset.mouseout"/>
                       </use>
               </g>
        </defs>

<script type="text/javascript">
var viewWidth = 868;
var viewHeight = 419;
var sectionId = 'dynsection-14';
</script>
<script xlink:href="svgpan.js"/>
<svg id="graph" class="graph">
<g id="viewport">
<title>atwork_commander::task_generator::jurek::Generator::fromTask</title>
<!-- Node1 -->
<g id="node1" class="node"><title>Node1</title>
<polygon fill="#bfbfbf" stroke="black" points="0,-201 0,-242 138,-242 138,-201 0,-201"/>
<text text-anchor="start" x="8" y="-230" font-family="Helvetica,sans-Serif" font-size="10.00">atwork_commander::task</text>
<text text-anchor="start" x="8" y="-219" font-family="Helvetica,sans-Serif" font-size="10.00">_generator::jurek::Generator</text>
<text text-anchor="middle" x="69" y="-208" font-family="Helvetica,sans-Serif" font-size="10.00">::fromTask</text>
</g>
<!-- Node2 -->
<g id="node2" class="node"><title>Node2</title>
<g id="a_node2"><a xlink:href="structatwork__commander_1_1task__generator_1_1jurek_1_1Converter.html#a87b35041c69840e35aae594139916459" target="_top" xlink:title="atwork_commander::task\l_generator::jurek::Converter::diff">
<polygon fill="none" stroke="black" points="174,-380.5 174,-410.5 332,-410.5 332,-380.5 174,-380.5"/>
<text text-anchor="start" x="182" y="-398.5" font-family="Helvetica,sans-Serif" font-size="10.00">atwork_commander::task</text>
<text text-anchor="middle" x="253" y="-387.5" font-family="Helvetica,sans-Serif" font-size="10.00">_generator::jurek::Converter::diff</text>
</a>
</g>
</g>
<!-- Node1&#45;&gt;Node2 -->
<g id="edge1" class="edge"><title>Node1&#45;&gt;Node2</title>
<path fill="none" stroke="midnightblue" d="M78.8844,-242.253C93.8015,-274.647 126.939,-337.077 174,-371.5 176.051,-373 178.198,-374.408 180.417,-375.729"/>
<polygon fill="midnightblue" stroke="midnightblue" points="178.804,-378.836 189.282,-380.406 182.071,-372.645 178.804,-378.836"/>
</g>
<!-- Node3 -->
<g id="node3" class="node"><title>Node3</title>
<g id="a_node3"><a xlink:href="structatwork__commander_1_1task__generator_1_1jurek_1_1Converter.html#afe1e5a4e25981b1fc92be8bfb49305ac" target="_top" xlink:title="atwork_commander::task\l_generator::jurek::Converter\l::findContainer">
<polygon fill="none" stroke="black" points="184,-321 184,-362 322,-362 322,-321 184,-321"/>
<text text-anchor="start" x="192" y="-350" font-family="Helvetica,sans-Serif" font-size="10.00">atwork_commander::task</text>
<text text-anchor="start" x="192" y="-339" font-family="Helvetica,sans-Serif" font-size="10.00">_generator::jurek::Converter</text>
<text text-anchor="middle" x="253" y="-328" font-family="Helvetica,sans-Serif" font-size="10.00">::findContainer</text>
</a>
</g>
</g>
<!-- Node1&#45;&gt;Node3 -->
<g id="edge2" class="edge"><title>Node1&#45;&gt;Node3</title>
<path fill="none" stroke="midnightblue" d="M89.4556,-242.061C109.208,-261.983 141.442,-291.972 174,-311.5 176.951,-313.27 180.025,-314.97 183.174,-316.597"/>
<polygon fill="midnightblue" stroke="midnightblue" points="181.681,-319.763 192.204,-320.988 184.742,-313.467 181.681,-319.763"/>
</g>
<!-- Node4 -->
<g id="node4" class="node"><title>Node4</title>
<g id="a_node4"><a xlink:href="structatwork__commander_1_1task__generator_1_1jurek_1_1Converter.html#abb4856ef8459fcb507f2fb06e7efcfbe" target="_top" xlink:title="atwork_commander::task\l_generator::jurek::Converter\l::findObject">
<polygon fill="none" stroke="black" points="184,-261 184,-302 322,-302 322,-261 184,-261"/>
<text text-anchor="start" x="192" y="-290" font-family="Helvetica,sans-Serif" font-size="10.00">atwork_commander::task</text>
<text text-anchor="start" x="192" y="-279" font-family="Helvetica,sans-Serif" font-size="10.00">_generator::jurek::Converter</text>
<text text-anchor="middle" x="253" y="-268" font-family="Helvetica,sans-Serif" font-size="10.00">::findObject</text>
</a>
</g>
</g>
<!-- Node1&#45;&gt;Node4 -->
<g id="edge3" class="edge"><title>Node1&#45;&gt;Node4</title>
<path fill="none" stroke="midnightblue" d="M132.379,-242.065C147.718,-247.121 164.265,-252.576 180.016,-257.769"/>
<polygon fill="midnightblue" stroke="midnightblue" points="179.109,-261.155 189.702,-260.962 181.301,-254.507 179.109,-261.155"/>
</g>
<!-- Node5 -->
<g id="node5" class="node"><title>Node5</title>
<g id="a_node5"><a xlink:href="structatwork__commander_1_1task__generator_1_1jurek_1_1Converter.html#a818939f2af05e4ef73adebf64e4eae09" target="_top" xlink:title="atwork_commander::task\l_generator::jurek::Converter\l::intersect">
<polygon fill="none" stroke="black" points="184,-201 184,-242 322,-242 322,-201 184,-201"/>
<text text-anchor="start" x="192" y="-230" font-family="Helvetica,sans-Serif" font-size="10.00">atwork_commander::task</text>
<text text-anchor="start" x="192" y="-219" font-family="Helvetica,sans-Serif" font-size="10.00">_generator::jurek::Converter</text>
<text text-anchor="middle" x="253" y="-208" font-family="Helvetica,sans-Serif" font-size="10.00">::intersect</text>
</a>
</g>
</g>
<!-- Node1&#45;&gt;Node5 -->
<g id="edge4" class="edge"><title>Node1&#45;&gt;Node5</title>
<path fill="none" stroke="midnightblue" d="M138.029,-221.5C149.586,-221.5 161.673,-221.5 173.474,-221.5"/>
<polygon fill="midnightblue" stroke="midnightblue" points="173.751,-225 183.751,-221.5 173.751,-218 173.751,-225"/>
</g>
<!-- Node6 -->
<g id="node6" class="node"><title>Node6</title>
<g id="a_node6"><a xlink:href="classatwork__commander_1_1task__generator_1_1jurek_1_1Generator.html#a598368025bb6d251d96bad44da2a7d94" target="_top" xlink:title="atwork_commander::task\l_generator::jurek::Generator\l::readParameters">
<polygon fill="none" stroke="black" points="184,-141 184,-182 322,-182 322,-141 184,-141"/>
<text text-anchor="start" x="192" y="-170" font-family="Helvetica,sans-Serif" font-size="10.00">atwork_commander::task</text>
<text text-anchor="start" x="192" y="-159" font-family="Helvetica,sans-Serif" font-size="10.00">_generator::jurek::Generator</text>
<text text-anchor="middle" x="253" y="-148" font-family="Helvetica,sans-Serif" font-size="10.00">::readParameters</text>
</a>
</g>
</g>
<!-- Node1&#45;&gt;Node6 -->
<g id="edge5" class="edge"><title>Node1&#45;&gt;Node6</title>
<path fill="none" stroke="midnightblue" d="M132.379,-200.935C147.718,-195.879 164.265,-190.424 180.016,-185.231"/>
<polygon fill="midnightblue" stroke="midnightblue" points="181.301,-188.493 189.702,-182.038 179.109,-181.845 181.301,-188.493"/>
</g>
<!-- Node12 -->
<g id="node12" class="node"><title>Node12</title>
<g id="a_node12"><a xlink:href="control__node_8cpp.html#a92904aa73140a9bcbc31b3f01cbc1b91" target="_top" xlink:title="start">
<polygon fill="none" stroke="black" points="235,-103 235,-122 271,-122 271,-103 235,-103"/>
<text text-anchor="middle" x="253" y="-110" font-family="Helvetica,sans-Serif" font-size="10.00">start</text>
</a>
</g>
</g>
<!-- Node1&#45;&gt;Node12 -->
<g id="edge11" class="edge"><title>Node1&#45;&gt;Node12</title>
<path fill="none" stroke="midnightblue" d="M88.2207,-200.796C107.507,-180.175 139.833,-149.121 174,-131.5 189.802,-123.351 209.223,-118.605 224.732,-115.895"/>
<polygon fill="midnightblue" stroke="midnightblue" points="225.414,-119.331 234.753,-114.327 224.332,-112.415 225.414,-119.331"/>
</g>
<!-- Node18 -->
<g id="node18" class="node"><title>Node18</title>
<g id="a_node18"><a xlink:href="structatwork__commander_1_1task__generator_1_1jurek_1_1Converter.html#a72570b82981fcc7c3825847318d9c110" target="_top" xlink:title="atwork_commander::task\l_generator::jurek::Converter\l::toMap">
<polygon fill="none" stroke="black" points="184,-43 184,-84 322,-84 322,-43 184,-43"/>
<text text-anchor="start" x="192" y="-72" font-family="Helvetica,sans-Serif" font-size="10.00">atwork_commander::task</text>
<text text-anchor="start" x="192" y="-61" font-family="Helvetica,sans-Serif" font-size="10.00">_generator::jurek::Converter</text>
<text text-anchor="middle" x="253" y="-50" font-family="Helvetica,sans-Serif" font-size="10.00">::toMap</text>
</a>
</g>
</g>
<!-- Node1&#45;&gt;Node18 -->
<g id="edge17" class="edge"><title>Node1&#45;&gt;Node18</title>
<path fill="none" stroke="midnightblue" d="M81.8815,-200.959C98.9693,-173.062 132.985,-123.269 174,-93.5 176.106,-91.9713 178.3,-90.5096 180.559,-89.1129"/>
<polygon fill="midnightblue" stroke="midnightblue" points="182.557,-92.0048 189.548,-84.0444 179.118,-85.9074 182.557,-92.0048"/>
</g>
<!-- Node7 -->
<g id="node7" class="node"><title>Node7</title>
<g id="a_node7"><a xlink:href="classatwork__commander_1_1task__generator_1_1jurek_1_1Generator.html#ad315f8b6419a2eb9d41d046283031036" target="_top" xlink:title="atwork_commander::task\l_generator::jurek::Generator\l::toTaskObject">
<polygon fill="none" stroke="black" points="369,-158 369,-199 507,-199 507,-158 369,-158"/>
<text text-anchor="start" x="377" y="-187" font-family="Helvetica,sans-Serif" font-size="10.00">atwork_commander::task</text>
<text text-anchor="start" x="377" y="-176" font-family="Helvetica,sans-Serif" font-size="10.00">_generator::jurek::Generator</text>
<text text-anchor="middle" x="438" y="-165" font-family="Helvetica,sans-Serif" font-size="10.00">::toTaskObject</text>
</a>
</g>
</g>
<!-- Node6&#45;&gt;Node7 -->
<g id="edge6" class="edge"><title>Node6&#45;&gt;Node7</title>
<path fill="none" stroke="midnightblue" d="M322.142,-167.83C334.051,-168.936 346.525,-170.095 358.683,-171.225"/>
<polygon fill="midnightblue" stroke="midnightblue" points="358.52,-174.724 368.801,-172.165 359.167,-167.754 358.52,-174.724"/>
</g>
<!-- Node8 -->
<g id="node8" class="node"><title>Node8</title>
<g id="a_node8"><a xlink:href="classatwork__commander_1_1task__generator_1_1jurek_1_1Generator.html#ace8b675d10370a0bfd36927406fef7ed" target="_top" xlink:title="atwork_commander::task\l_generator::jurek::Generator\l::toContainerType">
<polygon fill="none" stroke="black" points="545,-278 545,-319 683,-319 683,-278 545,-278"/>
<text text-anchor="start" x="553" y="-307" font-family="Helvetica,sans-Serif" font-size="10.00">atwork_commander::task</text>
<text text-anchor="start" x="553" y="-296" font-family="Helvetica,sans-Serif" font-size="10.00">_generator::jurek::Generator</text>
<text text-anchor="middle" x="614" y="-285" font-family="Helvetica,sans-Serif" font-size="10.00">::toContainerType</text>
</a>
</g>
</g>
<!-- Node7&#45;&gt;Node8 -->
<g id="edge7" class="edge"><title>Node7&#45;&gt;Node8</title>
<path fill="none" stroke="midnightblue" d="M459.245,-199.119C479.386,-218.805 511.847,-248.37 544,-268.5 546.574,-270.112 549.25,-271.678 551.987,-273.194"/>
<polygon fill="midnightblue" stroke="midnightblue" points="550.41,-276.319 560.893,-277.858 553.658,-270.118 550.41,-276.319"/>
</g>
<!-- Node9 -->
<g id="node9" class="node"><title>Node9</title>
<g id="a_node9"><a xlink:href="classatwork__commander_1_1task__generator_1_1jurek_1_1Generator.html#ac781b2fc429536d8d816b6bd857946b3" target="_top" xlink:title="atwork_commander::task\l_generator::jurek::Generator\l::toCavityType">
<polygon fill="none" stroke="black" points="545,-218 545,-259 683,-259 683,-218 545,-218"/>
<text text-anchor="start" x="553" y="-247" font-family="Helvetica,sans-Serif" font-size="10.00">atwork_commander::task</text>
<text text-anchor="start" x="553" y="-236" font-family="Helvetica,sans-Serif" font-size="10.00">_generator::jurek::Generator</text>
<text text-anchor="middle" x="614" y="-225" font-family="Helvetica,sans-Serif" font-size="10.00">::toCavityType</text>
</a>
</g>
</g>
<!-- Node7&#45;&gt;Node9 -->
<g id="edge8" class="edge"><title>Node7&#45;&gt;Node9</title>
<path fill="none" stroke="midnightblue" d="M498.881,-199.149C513.316,-204.126 528.857,-209.485 543.683,-214.598"/>
<polygon fill="midnightblue" stroke="midnightblue" points="542.709,-217.964 553.304,-217.915 544.991,-211.346 542.709,-217.964"/>
</g>
<!-- Node10 -->
<g id="node10" class="node"><title>Node10</title>
<g id="a_node10"><a xlink:href="classatwork__commander_1_1task__generator_1_1jurek_1_1Generator.html#ad72dba3d08229cbca8521ae1c9153f0b" target="_top" xlink:title="atwork_commander::task\l_generator::jurek::Generator\l::toColoredObjectType">
<polygon fill="none" stroke="black" points="545,-158 545,-199 683,-199 683,-158 545,-158"/>
<text text-anchor="start" x="553" y="-187" font-family="Helvetica,sans-Serif" font-size="10.00">atwork_commander::task</text>
<text text-anchor="start" x="553" y="-176" font-family="Helvetica,sans-Serif" font-size="10.00">_generator::jurek::Generator</text>
<text text-anchor="middle" x="614" y="-165" font-family="Helvetica,sans-Serif" font-size="10.00">::toColoredObjectType</text>
</a>
</g>
</g>
<!-- Node7&#45;&gt;Node10 -->
<g id="edge9" class="edge"><title>Node7&#45;&gt;Node10</title>
<path fill="none" stroke="midnightblue" d="M507.27,-178.5C516.263,-178.5 525.536,-178.5 534.68,-178.5"/>
<polygon fill="midnightblue" stroke="midnightblue" points="534.927,-182 544.927,-178.5 534.927,-175 534.927,-182"/>
</g>
<!-- Node11 -->
<g id="node11" class="node"><title>Node11</title>
<g id="a_node11"><a xlink:href="classatwork__commander_1_1task__generator_1_1jurek_1_1Generator.html#a2c8f2d001e2254efcae1018dd1f36cdd" target="_top" xlink:title="atwork_commander::task\l_generator::jurek::Generator\l::toObjectType">
<polygon fill="none" stroke="black" points="545,-98 545,-139 683,-139 683,-98 545,-98"/>
<text text-anchor="start" x="553" y="-127" font-family="Helvetica,sans-Serif" font-size="10.00">atwork_commander::task</text>
<text text-anchor="start" x="553" y="-116" font-family="Helvetica,sans-Serif" font-size="10.00">_generator::jurek::Generator</text>
<text text-anchor="middle" x="614" y="-105" font-family="Helvetica,sans-Serif" font-size="10.00">::toObjectType</text>
</a>
</g>
</g>
<!-- Node7&#45;&gt;Node11 -->
<g id="edge10" class="edge"><title>Node7&#45;&gt;Node11</title>
<path fill="none" stroke="midnightblue" d="M498.881,-157.851C513.316,-152.874 528.857,-147.515 543.683,-142.402"/>
<polygon fill="midnightblue" stroke="midnightblue" points="544.991,-145.654 553.304,-139.085 542.709,-139.036 544.991,-145.654"/>
</g>
<!-- Node13 -->
<g id="node13" class="node"><title>Node13</title>
<g id="a_node13"><a xlink:href="classatwork__commander_1_1Control.html#a03d7ab8dde7ac8c41b29a9480b013ed6" target="_top" xlink:title="Command to start the current Task of the RefBox. ">
<polygon fill="none" stroke="black" points="368,-65.5 368,-95.5 508,-95.5 508,-65.5 368,-65.5"/>
<text text-anchor="start" x="376" y="-83.5" font-family="Helvetica,sans-Serif" font-size="10.00">atwork_commander::Control</text>
<text text-anchor="middle" x="438" y="-72.5" font-family="Helvetica,sans-Serif" font-size="10.00">::start</text>
</a>
</g>
</g>
<!-- Node12&#45;&gt;Node13 -->
<g id="edge12" class="edge"><title>Node12&#45;&gt;Node13</title>
<path fill="none" stroke="midnightblue" d="M271.216,-109.49C291.213,-105.993 325.599,-99.9799 357.888,-94.3337"/>
<polygon fill="midnightblue" stroke="midnightblue" points="358.576,-97.7667 367.824,-92.5964 357.37,-90.8713 358.576,-97.7667"/>
</g>
<!-- Node14 -->
<g id="node14" class="node"><title>Node14</title>
<g id="a_node14"><a xlink:href="classatwork__commander_1_1ControlImpl.html#a61e7adc72e3d1ae5f8ba7099e7ea1a58" target="_top" xlink:title="atwork_commander::Control\lImpl::start">
<polygon fill="none" stroke="black" points="544,-49.5 544,-79.5 684,-79.5 684,-49.5 544,-49.5"/>
<text text-anchor="start" x="552" y="-67.5" font-family="Helvetica,sans-Serif" font-size="10.00">atwork_commander::Control</text>
<text text-anchor="middle" x="614" y="-56.5" font-family="Helvetica,sans-Serif" font-size="10.00">Impl::start</text>
</a>
</g>
</g>
<!-- Node13&#45;&gt;Node14 -->
<g id="edge13" class="edge"><title>Node13&#45;&gt;Node14</title>
<path fill="none" stroke="midnightblue" d="M508.019,-74.1534C516.476,-73.3758 525.169,-72.5764 533.761,-71.7864"/>
<polygon fill="midnightblue" stroke="midnightblue" points="534.142,-75.2662 543.779,-70.8651 533.501,-68.2956 534.142,-75.2662"/>
</g>
<!-- Node15 -->
<g id="node15" class="node"><title>Node15</title>
<g id="a_node15"><a xlink:href="namespaceatwork__commander.html#a144d24cd0805258cbfd6f8cb8795feca" target="_top" xlink:title="atwork_commander::call">
<polygon fill="none" stroke="black" points="728.5,-99 728.5,-118 851.5,-118 851.5,-99 728.5,-99"/>
<text text-anchor="middle" x="790" y="-106" font-family="Helvetica,sans-Serif" font-size="10.00">atwork_commander::call</text>
</a>
</g>
</g>
<!-- Node14&#45;&gt;Node15 -->
<g id="edge14" class="edge"><title>Node14&#45;&gt;Node15</title>
<path fill="none" stroke="midnightblue" d="M674.394,-79.5192C696.307,-85.0604 720.827,-91.2607 741.545,-96.4999"/>
<polygon fill="midnightblue" stroke="midnightblue" points="740.83,-99.9291 751.383,-98.9876 742.546,-93.1427 740.83,-99.9291"/>
</g>
<!-- Node16 -->
<g id="node16" class="node"><title>Node16</title>
<g id="a_node16"><a xlink:href="classatwork__commander_1_1ControlError.html#aa8e0a508d07409af6b9ccc3f2b04862c" target="_top" xlink:title="Constructor taking the error description. ">
<polygon fill="none" stroke="black" points="720,-49.5 720,-79.5 860,-79.5 860,-49.5 720,-49.5"/>
<text text-anchor="start" x="728" y="-67.5" font-family="Helvetica,sans-Serif" font-size="10.00">atwork_commander::Control</text>
<text text-anchor="middle" x="790" y="-56.5" font-family="Helvetica,sans-Serif" font-size="10.00">Error::ControlError</text>
</a>
</g>
</g>
<!-- Node14&#45;&gt;Node16 -->
<g id="edge15" class="edge"><title>Node14&#45;&gt;Node16</title>
<path fill="none" stroke="midnightblue" d="M684.019,-64.5C692.476,-64.5 701.169,-64.5 709.761,-64.5"/>
<polygon fill="midnightblue" stroke="midnightblue" points="709.78,-68.0001 719.779,-64.5 709.779,-61.0001 709.78,-68.0001"/>
</g>
<!-- Node17 -->
<g id="node17" class="node"><title>Node17</title>
<g id="a_node17"><a xlink:href="namespaceatwork__commander__msgs.html#a9ecf5e83b56ed832452324374f4ec311" target="_top" xlink:title="atwork_commander_msgs\l::stateName">
<polygon fill="none" stroke="black" points="724.5,-0.5 724.5,-30.5 855.5,-30.5 855.5,-0.5 724.5,-0.5"/>
<text text-anchor="start" x="732.5" y="-18.5" font-family="Helvetica,sans-Serif" font-size="10.00">atwork_commander_msgs</text>
<text text-anchor="middle" x="790" y="-7.5" font-family="Helvetica,sans-Serif" font-size="10.00">::stateName</text>
</a>
</g>
</g>
<!-- Node14&#45;&gt;Node17 -->
<g id="edge16" class="edge"><title>Node14&#45;&gt;Node17</title>
<path fill="none" stroke="midnightblue" d="M668.626,-49.3986C686.737,-44.2981 707.124,-38.5571 725.9,-33.2695"/>
<polygon fill="midnightblue" stroke="midnightblue" points="726.875,-36.6313 735.552,-30.5516 724.977,-29.8933 726.875,-36.6313"/>
</g>
</g>
</svg>
        <g id="navigator" transform="translate(0 0)" fill="#404254">
                <rect fill="#f2f5e9" fill-opacity="0.5" stroke="#606060" stroke-width=".5" x="0" y="0" width="60" height="60"/>
                <use id="zoomplus" xlink:href="#zoomPlus" x="17" y="9" onmousedown="handleZoom(evt,'in')"/>
                <use id="zoomminus" xlink:href="#zoomMin" x="42" y="9" onmousedown="handleZoom(evt,'out')"/>
                <use id="reset" xlink:href="#resetDef" x="30" y="36" onmousedown="handleReset()"/>
                <g id="arrowUp" xlink:href="#dirArrow" transform="translate(30 24)" onmousedown="handlePan(0,-1)">
                  <use xlink:href="#rim" fill="#404040">
                        <set attributeName="fill" to="#808080" begin="arrowUp.mouseover" end="arrowUp.mouseout"/>
                  </use>
                  <path fill="none" stroke="white" stroke-width="1.5" d="M0,-3.0v7 M-2.5,-0.5L0,-3.0L2.5,-0.5"/>
                </g>
                <g id="arrowRight" xlink:href="#dirArrow" transform="rotate(90) translate(36 -43)" onmousedown="handlePan(1,0)">
                  <use xlink:href="#rim" fill="#404040">
                        <set attributeName="fill" to="#808080" begin="arrowRight.mouseover" end="arrowRight.mouseout"/>
                  </use>
                  <path fill="none" stroke="white" stroke-width="1.5" d="M0,-3.0v7 M-2.5,-0.5L0,-3.0L2.5,-0.5"/>
                </g>
                <g id="arrowDown" xlink:href="#dirArrow" transform="rotate(180) translate(-30 -48)" onmousedown="handlePan(0,1)">
                  <use xlink:href="#rim" fill="#404040">
                        <set attributeName="fill" to="#808080" begin="arrowDown.mouseover" end="arrowDown.mouseout"/>
                  </use>
                  <path fill="none" stroke="white" stroke-width="1.5" d="M0,-3.0v7 M-2.5,-0.5L0,-3.0L2.5,-0.5"/>
                </g>
                <g id="arrowLeft" xlink:href="#dirArrow" transform="rotate(270) translate(-36 17)" onmousedown="handlePan(-1,0)">
                  <use xlink:href="#rim" fill="#404040">
                        <set attributeName="fill" to="#808080" begin="arrowLeft.mouseover" end="arrowLeft.mouseout"/>
                  </use>
                  <path fill="none" stroke="white" stroke-width="1.5" d="M0,-3.0v7 M-2.5,-0.5L0,-3.0L2.5,-0.5"/>
                </g>
        </g>
        <svg viewBox="0 0 15 15" width="100%" height="30px" preserveAspectRatio="xMaxYMin meet">
         <g id="arrow_out" transform="scale(0.3 0.3)">
          <a xlink:href="classatwork__commander_1_1task__generator_1_1jurek_1_1Generator_a70cc89ff444ae7b05324a744e852fd92_cgraph_org.svg" target="_base">
           <rect id="button" ry="5" rx="5" y="6" x="6" height="38" width="38"
                fill="#f2f5e9" fill-opacity="0.5" stroke="#606060" stroke-width="1.0"/>
           <path id="arrow"
             d="M 11.500037,31.436501 C 11.940474,20.09759 22.043105,11.32322 32.158766,21.979434 L 37.068811,17.246167 C 37.068811,17.246167 37.088388,32 37.088388,32 L 22.160133,31.978069 C 22.160133,31.978069 26.997745,27.140456 26.997745,27.140456 C 18.528582,18.264221 13.291696,25.230495 11.500037,31.436501 z"
             style="fill:#404040;"/>
          </a>
         </g>
        </svg>
</svg>
