<?xml version="1.0" encoding="UTF-8" standalone="no"?>
<!DOCTYPE svg PUBLIC "-//W3C//DTD SVG 1.1//EN"
 "http://www.w3.org/Graphics/SVG/1.1/DTD/svg11.dtd">
<!-- Generated by graphviz version 2.38.0 (20140413.2041)
 -->
<!-- Title: main Pages: 1 -->
<svg width="180pt" height="66pt"
 viewBox="0.00 0.00 180.00 66.00" xmlns="http://www.w3.org/2000/svg" xmlns:xlink="http://www.w3.org/1999/xlink">
<g id="graph0" class="graph" transform="scale(1 1) rotate(0) translate(4 62)">
<title>main</title>
<!-- Node1 -->
<g id="node1" class="node"><title>Node1</title>
<polygon fill="#bfbfbf" stroke="black" points="0,-19.5 0,-38.5 38,-38.5 38,-19.5 0,-19.5"/>
<text text-anchor="middle" x="19" y="-26.5" font-family="Helvetica,sans-Serif" font-size="10.00">main</text>
</g>
<!-- Node2 -->
<g id="node2" class="node"><title>Node2</title>
<g id="a_node2"><a xlink:href="communication__node_8cpp.html#a54504f1e94d68ed04c6a92115eae9a86" target="_top" xlink:title="receiveRobotState">
<polygon fill="none" stroke="black" points="74,-38.5 74,-57.5 172,-57.5 172,-38.5 74,-38.5"/>
<text text-anchor="middle" x="123" y="-45.5" font-family="Helvetica,sans-Serif" font-size="10.00">receiveRobotState</text>
</a>
</g>
</g>
<!-- Node1&#45;&gt;Node2 -->
<g id="edge1" class="edge"><title>Node1&#45;&gt;Node2</title>
<path fill="none" stroke="midnightblue" d="M38.2356,-32.3968C45.5577,-33.7608 54.4425,-35.4158 63.6538,-37.1316"/>
<polygon fill="midnightblue" stroke="midnightblue" points="63.2468,-40.6159 73.7187,-39.0064 64.5287,-33.7343 63.2468,-40.6159"/>
</g>
<!-- Node3 -->
<g id="node3" class="node"><title>Node3</title>
<g id="a_node3"><a xlink:href="communication__node_8cpp.html#a043a9119e36ac016b79aeba231446ddd" target="_top" xlink:title="sendTaskClb">
<polygon fill="none" stroke="black" points="86,-0.5 86,-19.5 160,-19.5 160,-0.5 86,-0.5"/>
<text text-anchor="middle" x="123" y="-7.5" font-family="Helvetica,sans-Serif" font-size="10.00">sendTaskClb</text>
</a>
</g>
</g>
<!-- Node1&#45;&gt;Node3 -->
<g id="edge2" class="edge"><title>Node1&#45;&gt;Node3</title>
<path fill="none" stroke="midnightblue" d="M38.2356,-25.6032C48.738,-23.6468 62.4552,-21.0917 75.7397,-18.6171"/>
<polygon fill="midnightblue" stroke="midnightblue" points="76.5637,-22.0239 85.7537,-16.7518 75.2818,-15.1423 76.5637,-22.0239"/>
</g>
</g>
</svg>
