<?xml version="1.0" encoding="UTF-8" standalone="no"?>
<!DOCTYPE svg PUBLIC "-//W3C//DTD SVG 1.1//EN"
 "http://www.w3.org/Graphics/SVG/1.1/DTD/svg11.dtd">
<!-- Generated by graphviz version 2.38.0 (20140413.2041)
 -->
<!-- Title: /home/travis/build/steup/atwork&#45;commander/atwork_commander_com/src/communication_node.cpp Pages: 1 -->
<svg width="409pt" height="195pt"
 viewBox="0.00 0.00 409.00 195.00" xmlns="http://www.w3.org/2000/svg" xmlns:xlink="http://www.w3.org/1999/xlink">
<g id="graph0" class="graph" transform="scale(1 1) rotate(0) translate(4 191)">
<title>/home/travis/build/steup/atwork&#45;commander/atwork_commander_com/src/communication_node.cpp</title>
<!-- Node1 -->
<g id="node1" class="node"><title>Node1</title>
<polygon fill="#bfbfbf" stroke="black" points="205.5,-134.5 205.5,-186.5 351.5,-186.5 351.5,-134.5 205.5,-134.5"/>
<text text-anchor="start" x="213.5" y="-174.5" font-family="Helvetica,sans-Serif" font-size="10.00">/home/travis/build</text>
<text text-anchor="start" x="213.5" y="-163.5" font-family="Helvetica,sans-Serif" font-size="10.00">/steup/atwork&#45;commander</text>
<text text-anchor="start" x="213.5" y="-152.5" font-family="Helvetica,sans-Serif" font-size="10.00">/atwork_commander_com/src</text>
<text text-anchor="middle" x="278.5" y="-141.5" font-family="Helvetica,sans-Serif" font-size="10.00">/communication_node.cpp</text>
</g>
<!-- Node2 -->
<g id="node2" class="node"><title>Node2</title>
<g id="a_node2"><a xlink:href="plugin__interface_8h.html" target="_top" xlink:title="atwork_commander_com\l/plugin_interface.h">
<polygon fill="none" stroke="black" points="75.5,-67.5 75.5,-97.5 201.5,-97.5 201.5,-67.5 75.5,-67.5"/>
<text text-anchor="start" x="83.5" y="-85.5" font-family="Helvetica,sans-Serif" font-size="10.00">atwork_commander_com</text>
<text text-anchor="middle" x="138.5" y="-74.5" font-family="Helvetica,sans-Serif" font-size="10.00">/plugin_interface.h</text>
</a>
</g>
</g>
<!-- Node1&#45;&gt;Node2 -->
<g id="edge1" class="edge"><title>Node1&#45;&gt;Node2</title>
<path fill="none" stroke="midnightblue" d="M232.271,-134.404C213.144,-124.021 191.331,-112.18 173.56,-102.532"/>
<polygon fill="midnightblue" stroke="midnightblue" points="175.128,-99.4015 164.67,-97.7066 171.789,-105.554 175.128,-99.4015"/>
</g>
<!-- Node6 -->
<g id="node6" class="node"><title>Node6</title>
<polygon fill="none" stroke="#bfbfbf" points="219.5,-73 219.5,-92 337.5,-92 337.5,-73 219.5,-73"/>
<text text-anchor="middle" x="278.5" y="-80" font-family="Helvetica,sans-Serif" font-size="10.00">pluginlib/class_loader.h</text>
</g>
<!-- Node1&#45;&gt;Node6 -->
<g id="edge5" class="edge"><title>Node1&#45;&gt;Node6</title>
<path fill="none" stroke="midnightblue" d="M278.5,-134.193C278.5,-123.765 278.5,-111.896 278.5,-102.266"/>
<polygon fill="midnightblue" stroke="midnightblue" points="282,-102.209 278.5,-92.2089 275,-102.209 282,-102.209"/>
</g>
<!-- Node7 -->
<g id="node7" class="node"><title>Node7</title>
<polygon fill="none" stroke="#bfbfbf" points="356,-73 356,-92 401,-92 401,-73 356,-73"/>
<text text-anchor="middle" x="378.5" y="-80" font-family="Helvetica,sans-Serif" font-size="10.00">iosfwd</text>
</g>
<!-- Node1&#45;&gt;Node7 -->
<g id="edge6" class="edge"><title>Node1&#45;&gt;Node7</title>
<path fill="none" stroke="midnightblue" d="M311.521,-134.404C327.201,-122.487 345.41,-108.649 358.88,-98.4111"/>
<polygon fill="midnightblue" stroke="midnightblue" points="361.13,-101.097 366.974,-92.2599 356.894,-95.5242 361.13,-101.097"/>
</g>
<!-- Node3 -->
<g id="node3" class="node"><title>Node3</title>
<polygon fill="none" stroke="#bfbfbf" points="0,-6 0,-25 55,-25 55,-6 0,-6"/>
<text text-anchor="middle" x="27.5" y="-13" font-family="Helvetica,sans-Serif" font-size="10.00">ros/ros.h</text>
</g>
<!-- Node2&#45;&gt;Node3 -->
<g id="edge2" class="edge"><title>Node2&#45;&gt;Node3</title>
<path fill="none" stroke="midnightblue" d="M114.415,-67.396C95.5417,-56.3442 69.4422,-41.0607 50.7792,-30.1319"/>
<polygon fill="midnightblue" stroke="midnightblue" points="52.4253,-27.04 42.0273,-25.007 48.888,-33.0805 52.4253,-27.04"/>
</g>
<!-- Node4 -->
<g id="node4" class="node"><title>Node4</title>
<polygon fill="none" stroke="#bfbfbf" points="73,-0.5 73,-30.5 204,-30.5 204,-0.5 73,-0.5"/>
<text text-anchor="start" x="81" y="-18.5" font-family="Helvetica,sans-Serif" font-size="10.00">atwork_commander_msgs</text>
<text text-anchor="middle" x="138.5" y="-7.5" font-family="Helvetica,sans-Serif" font-size="10.00">/Task.h</text>
</g>
<!-- Node2&#45;&gt;Node4 -->
<g id="edge3" class="edge"><title>Node2&#45;&gt;Node4</title>
<path fill="none" stroke="midnightblue" d="M138.5,-67.396C138.5,-59.6448 138.5,-49.8122 138.5,-40.8601"/>
<polygon fill="midnightblue" stroke="midnightblue" points="142,-40.5765 138.5,-30.5765 135,-40.5765 142,-40.5765"/>
</g>
<!-- Node5 -->
<g id="node5" class="node"><title>Node5</title>
<polygon fill="none" stroke="#bfbfbf" points="222,-0.5 222,-30.5 353,-30.5 353,-0.5 222,-0.5"/>
<text text-anchor="start" x="230" y="-18.5" font-family="Helvetica,sans-Serif" font-size="10.00">atwork_commander_msgs</text>
<text text-anchor="middle" x="287.5" y="-7.5" font-family="Helvetica,sans-Serif" font-size="10.00">/RobotState.h</text>
</g>
<!-- Node2&#45;&gt;Node5 -->
<g id="edge4" class="edge"><title>Node2&#45;&gt;Node5</title>
<path fill="none" stroke="midnightblue" d="M170.831,-67.396C192.797,-57.8135 222.055,-45.0498 245.776,-34.7016"/>
<polygon fill="midnightblue" stroke="midnightblue" points="247.466,-37.7831 255.232,-30.5765 244.667,-31.367 247.466,-37.7831"/>
</g>
</g>
</svg>
