<?xml version="1.0" encoding="UTF-8" standalone="no"?>
<!DOCTYPE svg PUBLIC "-//W3C//DTD SVG 1.1//EN"
 "http://www.w3.org/Graphics/SVG/1.1/DTD/svg11.dtd">
<!-- Generated by graphviz version 2.38.0 (20140413.2041)
 -->
<!-- Title: /home/travis/build/steup/atwork&#45;commander/atwork_commander_gen/include/atwork_commander_gen/ConfigParserInterface.h Pages: 1 -->
<svg width="329pt" height="117pt"
 viewBox="0.00 0.00 328.50 117.00" xmlns="http://www.w3.org/2000/svg" xmlns:xlink="http://www.w3.org/1999/xlink">
<g id="graph0" class="graph" transform="scale(1 1) rotate(0) translate(4 113)">
<title>/home/travis/build/steup/atwork&#45;commander/atwork_commander_gen/include/atwork_commander_gen/ConfigParserInterface.h</title>
<!-- Node1 -->
<g id="node1" class="node"><title>Node1</title>
<polygon fill="#bfbfbf" stroke="black" points="58,-56.5 58,-108.5 291,-108.5 291,-56.5 58,-56.5"/>
<text text-anchor="start" x="66" y="-96.5" font-family="Helvetica,sans-Serif" font-size="10.00">/home/travis/build</text>
<text text-anchor="start" x="66" y="-85.5" font-family="Helvetica,sans-Serif" font-size="10.00">/steup/atwork&#45;commander</text>
<text text-anchor="start" x="66" y="-74.5" font-family="Helvetica,sans-Serif" font-size="10.00">/atwork_commander_gen/include</text>
<text text-anchor="middle" x="174.5" y="-63.5" font-family="Helvetica,sans-Serif" font-size="10.00">/atwork_commander_gen/ConfigParserInterface.h</text>
</g>
<!-- Node2 -->
<g id="node2" class="node"><title>Node2</title>
<polygon fill="none" stroke="#bfbfbf" points="0,-0.5 0,-19.5 83,-19.5 83,-0.5 0,-0.5"/>
<text text-anchor="middle" x="41.5" y="-7.5" font-family="Helvetica,sans-Serif" font-size="10.00">unordered_map</text>
</g>
<!-- Node1&#45;&gt;Node2 -->
<g id="edge1" class="edge"><title>Node1&#45;&gt;Node2</title>
<path fill="none" stroke="midnightblue" d="M127.235,-56.4458C106.888,-45.6603 83.9118,-33.4814 66.8699,-24.448"/>
<polygon fill="midnightblue" stroke="midnightblue" points="68.061,-21.1181 57.5863,-19.527 64.7826,-27.3029 68.061,-21.1181"/>
</g>
<!-- Node3 -->
<g id="node3" class="node"><title>Node3</title>
<polygon fill="none" stroke="#bfbfbf" points="101,-0.5 101,-19.5 136,-19.5 136,-0.5 101,-0.5"/>
<text text-anchor="middle" x="118.5" y="-7.5" font-family="Helvetica,sans-Serif" font-size="10.00">map</text>
</g>
<!-- Node1&#45;&gt;Node3 -->
<g id="edge2" class="edge"><title>Node1&#45;&gt;Node3</title>
<path fill="none" stroke="midnightblue" d="M154.599,-56.4458C147.039,-46.9287 138.618,-36.3266 131.811,-27.758"/>
<polygon fill="midnightblue" stroke="midnightblue" points="134.368,-25.3489 125.407,-19.6955 128.886,-29.7028 134.368,-25.3489"/>
</g>
<!-- Node4 -->
<g id="node4" class="node"><title>Node4</title>
<polygon fill="none" stroke="#bfbfbf" points="154,-0.5 154,-19.5 195,-19.5 195,-0.5 154,-0.5"/>
<text text-anchor="middle" x="174.5" y="-7.5" font-family="Helvetica,sans-Serif" font-size="10.00">string</text>
</g>
<!-- Node1&#45;&gt;Node4 -->
<g id="edge3" class="edge"><title>Node1&#45;&gt;Node4</title>
<path fill="none" stroke="midnightblue" d="M174.5,-56.4458C174.5,-47.7301 174.5,-38.1045 174.5,-29.9641"/>
<polygon fill="midnightblue" stroke="midnightblue" points="178,-29.6954 174.5,-19.6955 171,-29.6955 178,-29.6954"/>
</g>
<!-- Node5 -->
<g id="node5" class="node"><title>Node5</title>
<polygon fill="none" stroke="#bfbfbf" points="213,-0.5 213,-19.5 258,-19.5 258,-0.5 213,-0.5"/>
<text text-anchor="middle" x="235.5" y="-7.5" font-family="Helvetica,sans-Serif" font-size="10.00">iosfwd</text>
</g>
<!-- Node1&#45;&gt;Node5 -->
<g id="edge4" class="edge"><title>Node1&#45;&gt;Node5</title>
<path fill="none" stroke="midnightblue" d="M196.178,-56.4458C204.499,-46.8285 213.779,-36.1032 221.234,-27.4881"/>
<polygon fill="midnightblue" stroke="midnightblue" points="224.08,-29.5478 227.976,-19.6955 218.786,-24.9676 224.08,-29.5478"/>
</g>
<!-- Node6 -->
<g id="node6" class="node"><title>Node6</title>
<polygon fill="none" stroke="#bfbfbf" points="276.5,-0.5 276.5,-19.5 320.5,-19.5 320.5,-0.5 276.5,-0.5"/>
<text text-anchor="middle" x="298.5" y="-7.5" font-family="Helvetica,sans-Serif" font-size="10.00">vector</text>
</g>
<!-- Node1&#45;&gt;Node6 -->
<g id="edge5" class="edge"><title>Node1&#45;&gt;Node6</title>
<path fill="none" stroke="midnightblue" d="M218.567,-56.4458C237.36,-45.7611 258.558,-33.709 274.4,-24.7021"/>
<polygon fill="midnightblue" stroke="midnightblue" points="276.539,-27.5121 283.502,-19.527 273.079,-21.4269 276.539,-27.5121"/>
</g>
</g>
</svg>
