<?xml version="1.0" encoding="UTF-8" standalone="no"?>
<!DOCTYPE svg PUBLIC "-//W3C//DTD SVG 1.1//EN"
 "http://www.w3.org/Graphics/SVG/1.1/DTD/svg11.dtd">
<!-- Generated by graphviz version 2.38.0 (20140413.2041)
 -->
<!-- Title: /home/travis/build/steup/atwork&#45;commander/atwork_commander_gen/include/atwork_commander_gen/ConfigParserInterface.h Pages: 1 -->
<svg width="974pt" height="250pt"
 viewBox="0.00 0.00 974.00 250.00" xmlns="http://www.w3.org/2000/svg" xmlns:xlink="http://www.w3.org/1999/xlink">
<g id="graph0" class="graph" transform="scale(1 1) rotate(0) translate(4 246)">
<title>/home/travis/build/steup/atwork&#45;commander/atwork_commander_gen/include/atwork_commander_gen/ConfigParserInterface.h</title>
<!-- Node1 -->
<g id="node1" class="node"><title>Node1</title>
<polygon fill="#bfbfbf" stroke="black" points="498,-189.5 498,-241.5 731,-241.5 731,-189.5 498,-189.5"/>
<text text-anchor="start" x="506" y="-229.5" font-family="Helvetica,sans-Serif" font-size="10.00">/home/travis/build</text>
<text text-anchor="start" x="506" y="-218.5" font-family="Helvetica,sans-Serif" font-size="10.00">/steup/atwork&#45;commander</text>
<text text-anchor="start" x="506" y="-207.5" font-family="Helvetica,sans-Serif" font-size="10.00">/atwork_commander_gen/include</text>
<text text-anchor="middle" x="614.5" y="-196.5" font-family="Helvetica,sans-Serif" font-size="10.00">/atwork_commander_gen/ConfigParserInterface.h</text>
</g>
<!-- Node2 -->
<g id="node2" class="node"><title>Node2</title>
<g id="a_node2"><a xlink:href="DefaultConfigParser_8h.html" target="_top" xlink:title="/home/travis/build\l/steup/atwork&#45;commander\l/atwork_commander_gen/include\l/atwork_commander_gen/DefaultConfig\lParser.h">
<polygon fill="none" stroke="black" points="248,-89.5 248,-152.5 437,-152.5 437,-89.5 248,-89.5"/>
<text text-anchor="start" x="256" y="-140.5" font-family="Helvetica,sans-Serif" font-size="10.00">/home/travis/build</text>
<text text-anchor="start" x="256" y="-129.5" font-family="Helvetica,sans-Serif" font-size="10.00">/steup/atwork&#45;commander</text>
<text text-anchor="start" x="256" y="-118.5" font-family="Helvetica,sans-Serif" font-size="10.00">/atwork_commander_gen/include</text>
<text text-anchor="start" x="256" y="-107.5" font-family="Helvetica,sans-Serif" font-size="10.00">/atwork_commander_gen/DefaultConfig</text>
<text text-anchor="middle" x="342.5" y="-96.5" font-family="Helvetica,sans-Serif" font-size="10.00">Parser.h</text>
</a>
</g>
</g>
<!-- Node1&#45;&gt;Node2 -->
<g id="edge1" class="edge"><title>Node1&#45;&gt;Node2</title>
<path fill="none" stroke="midnightblue" d="M531.352,-186.224C500.127,-175.605 464.499,-163.488 432.665,-152.663"/>
<polygon fill="midnightblue" stroke="midnightblue" points="530.298,-189.562 540.893,-189.468 532.552,-182.935 530.298,-189.562"/>
</g>
<!-- Node6 -->
<g id="node6" class="node"><title>Node6</title>
<g id="a_node6"><a xlink:href="TaskGenerator_8h.html" target="_top" xlink:title="/home/travis/build\l/steup/atwork&#45;commander\l/atwork_commander_gen/include\l/atwork_commander_gen/TaskGenerator.h">
<polygon fill="none" stroke="black" points="513.5,-95 513.5,-147 715.5,-147 715.5,-95 513.5,-95"/>
<text text-anchor="start" x="521.5" y="-135" font-family="Helvetica,sans-Serif" font-size="10.00">/home/travis/build</text>
<text text-anchor="start" x="521.5" y="-124" font-family="Helvetica,sans-Serif" font-size="10.00">/steup/atwork&#45;commander</text>
<text text-anchor="start" x="521.5" y="-113" font-family="Helvetica,sans-Serif" font-size="10.00">/atwork_commander_gen/include</text>
<text text-anchor="middle" x="614.5" y="-102" font-family="Helvetica,sans-Serif" font-size="10.00">/atwork_commander_gen/TaskGenerator.h</text>
</a>
</g>
</g>
<!-- Node1&#45;&gt;Node6 -->
<g id="edge5" class="edge"><title>Node1&#45;&gt;Node6</title>
<path fill="none" stroke="midnightblue" d="M614.5,-178.993C614.5,-168.409 614.5,-157.031 614.5,-147.245"/>
<polygon fill="midnightblue" stroke="midnightblue" points="611,-179.224 614.5,-189.224 618,-179.224 611,-179.224"/>
</g>
<!-- Node10 -->
<g id="node10" class="node"><title>Node10</title>
<g id="a_node10"><a xlink:href="Definitions_8cpp.html" target="_top" xlink:title="/home/travis/build\l/steup/atwork&#45;commander\l/atwork_commander_gen/src\l/Definitions.cpp">
<polygon fill="none" stroke="black" points="734,-95 734,-147 877,-147 877,-95 734,-95"/>
<text text-anchor="start" x="742" y="-135" font-family="Helvetica,sans-Serif" font-size="10.00">/home/travis/build</text>
<text text-anchor="start" x="742" y="-124" font-family="Helvetica,sans-Serif" font-size="10.00">/steup/atwork&#45;commander</text>
<text text-anchor="start" x="742" y="-113" font-family="Helvetica,sans-Serif" font-size="10.00">/atwork_commander_gen/src</text>
<text text-anchor="middle" x="805.5" y="-102" font-family="Helvetica,sans-Serif" font-size="10.00">/Definitions.cpp</text>
</a>
</g>
</g>
<!-- Node1&#45;&gt;Node10 -->
<g id="edge9" class="edge"><title>Node1&#45;&gt;Node10</title>
<path fill="none" stroke="midnightblue" d="M675.306,-185.052C700.56,-172.822 729.561,-158.777 753.771,-147.052"/>
<polygon fill="midnightblue" stroke="midnightblue" points="673.662,-181.959 666.187,-189.468 676.713,-188.259 673.662,-181.959"/>
</g>
<!-- Node3 -->
<g id="node3" class="node"><title>Node3</title>
<g id="a_node3"><a xlink:href="DefaultConfigParser_8cpp.html" target="_top" xlink:title="/home/travis/build\l/steup/atwork&#45;commander\l/atwork_commander_gen/src\l/DefaultConfigParser.cpp">
<polygon fill="none" stroke="black" points="0,-0.5 0,-52.5 143,-52.5 143,-0.5 0,-0.5"/>
<text text-anchor="start" x="8" y="-40.5" font-family="Helvetica,sans-Serif" font-size="10.00">/home/travis/build</text>
<text text-anchor="start" x="8" y="-29.5" font-family="Helvetica,sans-Serif" font-size="10.00">/steup/atwork&#45;commander</text>
<text text-anchor="start" x="8" y="-18.5" font-family="Helvetica,sans-Serif" font-size="10.00">/atwork_commander_gen/src</text>
<text text-anchor="middle" x="71.5" y="-7.5" font-family="Helvetica,sans-Serif" font-size="10.00">/DefaultConfigParser.cpp</text>
</a>
</g>
</g>
<!-- Node2&#45;&gt;Node3 -->
<g id="edge2" class="edge"><title>Node2&#45;&gt;Node3</title>
<path fill="none" stroke="midnightblue" d="M243.306,-86.1424C210.19,-74.8389 173.951,-62.4693 143.327,-52.0166"/>
<polygon fill="midnightblue" stroke="midnightblue" points="242.419,-89.5377 253.013,-89.4557 244.68,-82.913 242.419,-89.5377"/>
</g>
<!-- Node4 -->
<g id="node4" class="node"><title>Node4</title>
<g id="a_node4"><a xlink:href="jurek_2Generator_8cpp.html" target="_top" xlink:title="/home/travis/build\l/steup/atwork&#45;commander\l/atwork_commander_gen/src\l/jurek/Generator.cpp">
<polygon fill="none" stroke="black" points="161,-0.5 161,-52.5 304,-52.5 304,-0.5 161,-0.5"/>
<text text-anchor="start" x="169" y="-40.5" font-family="Helvetica,sans-Serif" font-size="10.00">/home/travis/build</text>
<text text-anchor="start" x="169" y="-29.5" font-family="Helvetica,sans-Serif" font-size="10.00">/steup/atwork&#45;commander</text>
<text text-anchor="start" x="169" y="-18.5" font-family="Helvetica,sans-Serif" font-size="10.00">/atwork_commander_gen/src</text>
<text text-anchor="middle" x="232.5" y="-7.5" font-family="Helvetica,sans-Serif" font-size="10.00">/jurek/Generator.cpp</text>
</a>
</g>
</g>
<!-- Node2&#45;&gt;Node4 -->
<g id="edge3" class="edge"><title>Node2&#45;&gt;Node4</title>
<path fill="none" stroke="midnightblue" d="M298.398,-82.9139C286.362,-72.7926 273.6,-62.0614 262.545,-52.7655"/>
<polygon fill="midnightblue" stroke="midnightblue" points="296.271,-85.6984 306.177,-89.4557 300.776,-80.3409 296.271,-85.6984"/>
</g>
<!-- Node5 -->
<g id="node5" class="node"><title>Node5</title>
<g id="a_node5"><a xlink:href="simple_2Generator_8cpp.html" target="_top" xlink:title="/home/travis/build\l/steup/atwork&#45;commander\l/atwork_commander_gen/src\l/simple/Generator.cpp">
<polygon fill="none" stroke="black" points="322,-0.5 322,-52.5 465,-52.5 465,-0.5 322,-0.5"/>
<text text-anchor="start" x="330" y="-40.5" font-family="Helvetica,sans-Serif" font-size="10.00">/home/travis/build</text>
<text text-anchor="start" x="330" y="-29.5" font-family="Helvetica,sans-Serif" font-size="10.00">/steup/atwork&#45;commander</text>
<text text-anchor="start" x="330" y="-18.5" font-family="Helvetica,sans-Serif" font-size="10.00">/atwork_commander_gen/src</text>
<text text-anchor="middle" x="393.5" y="-7.5" font-family="Helvetica,sans-Serif" font-size="10.00">/simple/Generator.cpp</text>
</a>
</g>
</g>
<!-- Node2&#45;&gt;Node5 -->
<g id="edge4" class="edge"><title>Node2&#45;&gt;Node5</title>
<path fill="none" stroke="midnightblue" d="M364.228,-80.5907C369.425,-71.1657 374.835,-61.3532 379.57,-52.7655"/>
<polygon fill="midnightblue" stroke="midnightblue" points="361.104,-79.0086 359.341,-89.4557 367.234,-82.3884 361.104,-79.0086"/>
</g>
<!-- Node7 -->
<g id="node7" class="node"><title>Node7</title>
<g id="a_node7"><a xlink:href="atwork__refbox__ros__node_8cpp.html" target="_top" xlink:title="/home/travis/build\l/steup/atwork&#45;commander\l/atwork_commander_core\l/src/atwork_refbox_ros_node.cpp">
<polygon fill="none" stroke="black" points="483,-0.5 483,-52.5 644,-52.5 644,-0.5 483,-0.5"/>
<text text-anchor="start" x="491" y="-40.5" font-family="Helvetica,sans-Serif" font-size="10.00">/home/travis/build</text>
<text text-anchor="start" x="491" y="-29.5" font-family="Helvetica,sans-Serif" font-size="10.00">/steup/atwork&#45;commander</text>
<text text-anchor="start" x="491" y="-18.5" font-family="Helvetica,sans-Serif" font-size="10.00">/atwork_commander_core</text>
<text text-anchor="middle" x="563.5" y="-7.5" font-family="Helvetica,sans-Serif" font-size="10.00">/src/atwork_refbox_ros_node.cpp</text>
</a>
</g>
</g>
<!-- Node6&#45;&gt;Node7 -->
<g id="edge6" class="edge"><title>Node6&#45;&gt;Node7</title>
<path fill="none" stroke="midnightblue" d="M595.65,-85.812C589.612,-74.8605 583.039,-62.9388 577.419,-52.7455"/>
<polygon fill="midnightblue" stroke="midnightblue" points="592.671,-87.6567 600.564,-94.724 598.801,-84.2769 592.671,-87.6567"/>
</g>
<!-- Node8 -->
<g id="node8" class="node"><title>Node8</title>
<g id="a_node8"><a xlink:href="ExampleNode_8cpp.html" target="_top" xlink:title="/home/travis/build\l/steup/atwork&#45;commander\l/atwork_commander_gen/src\l/ExampleNode.cpp">
<polygon fill="none" stroke="black" points="662,-0.5 662,-52.5 805,-52.5 805,-0.5 662,-0.5"/>
<text text-anchor="start" x="670" y="-40.5" font-family="Helvetica,sans-Serif" font-size="10.00">/home/travis/build</text>
<text text-anchor="start" x="670" y="-29.5" font-family="Helvetica,sans-Serif" font-size="10.00">/steup/atwork&#45;commander</text>
<text text-anchor="start" x="670" y="-18.5" font-family="Helvetica,sans-Serif" font-size="10.00">/atwork_commander_gen/src</text>
<text text-anchor="middle" x="733.5" y="-7.5" font-family="Helvetica,sans-Serif" font-size="10.00">/ExampleNode.cpp</text>
</a>
</g>
</g>
<!-- Node6&#45;&gt;Node8 -->
<g id="edge7" class="edge"><title>Node6&#45;&gt;Node8</title>
<path fill="none" stroke="midnightblue" d="M654.887,-88.6064C670.012,-76.8496 686.981,-63.6599 701.271,-52.5518"/>
<polygon fill="midnightblue" stroke="midnightblue" points="652.45,-86.0677 646.703,-94.9682 656.746,-91.5944 652.45,-86.0677"/>
</g>
<!-- Node9 -->
<g id="node9" class="node"><title>Node9</title>
<g id="a_node9"><a xlink:href="TaskGenerator_8cpp.html" target="_top" xlink:title="/home/travis/build\l/steup/atwork&#45;commander\l/atwork_commander_gen/src\l/TaskGenerator.cpp">
<polygon fill="none" stroke="black" points="823,-0.5 823,-52.5 966,-52.5 966,-0.5 823,-0.5"/>
<text text-anchor="start" x="831" y="-40.5" font-family="Helvetica,sans-Serif" font-size="10.00">/home/travis/build</text>
<text text-anchor="start" x="831" y="-29.5" font-family="Helvetica,sans-Serif" font-size="10.00">/steup/atwork&#45;commander</text>
<text text-anchor="start" x="831" y="-18.5" font-family="Helvetica,sans-Serif" font-size="10.00">/atwork_commander_gen/src</text>
<text text-anchor="middle" x="894.5" y="-7.5" font-family="Helvetica,sans-Serif" font-size="10.00">/TaskGenerator.cpp</text>
</a>
</g>
</g>
<!-- Node6&#45;&gt;Node9 -->
<g id="edge8" class="edge"><title>Node6&#45;&gt;Node9</title>
<path fill="none" stroke="midnightblue" d="M700.077,-91.7289C739.252,-78.7873 785.16,-63.6212 822.527,-51.2769"/>
<polygon fill="midnightblue" stroke="midnightblue" points="698.669,-88.5079 690.272,-94.9682 700.865,-95.1546 698.669,-88.5079"/>
</g>
</g>
</svg>
