<?xml version="1.0" encoding="UTF-8" standalone="no"?>
<!DOCTYPE svg PUBLIC "-//W3C//DTD SVG 1.1//EN"
 "http://www.w3.org/Graphics/SVG/1.1/DTD/svg11.dtd">
<!-- Generated by graphviz version 2.38.0 (20140413.2041)
 -->
<!-- Title: start Pages: 1 -->
<!--zoomable 127 -->
<svg id="main" version="1.1" xmlns="http://www.w3.org/2000/svg" xmlns:xlink="http://www.w3.org/1999/xlink" xml:space="preserve" onload="init(evt)">
<style type="text/css"><![CDATA[
.edge:hover path { stroke: red; }
.edge:hover polygon { stroke: red; fill: red; }
]]></style>
<script type="text/javascript"><![CDATA[
var edges = document.getElementsByTagName('g');
if (edges && edges.length) {
  for (var i=0;i<edges.length;i++) {
    if (edges[i].id.substr(0,4)=='edge') {
      edges[i].setAttribute('class','edge');
    }
  }
}
]]></script>
        <defs>
                <circle id="rim" cx="0" cy="0" r="7"/>
                <circle id="rim2" cx="0" cy="0" r="3.5"/>
                <g id="zoomPlus">
                        <use xlink:href="#rim" fill="#404040">
                                <set attributeName="fill" to="#808080" begin="zoomplus.mouseover" end="zoomplus.mouseout"/>
                        </use>
                        <path d="M-4,0h8M0,-4v8" fill="none" stroke="white" stroke-width="1.5" pointer-events="none"/>
                </g>
                <g id="zoomMin">
                        <use xlink:href="#rim" fill="#404040">
                                <set attributeName="fill" to="#808080" begin="zoomminus.mouseover" end="zoomminus.mouseout"/>
                        </use>
                        <path d="M-4,0h8" fill="none" stroke="white" stroke-width="1.5" pointer-events="none"/>
                </g>
                <g id="dirArrow">
                        <path fill="none" stroke="white" stroke-width="1.5" d="M0,-3.0v7 M-2.5,-0.5L0,-3.0L2.5,-0.5"/>
                </g>
               <g id="resetDef">
                       <use xlink:href="#rim2" fill="#404040">
                               <set attributeName="fill" to="#808080" begin="reset.mouseover" end="reset.mouseout"/>
                       </use>
               </g>
        </defs>

<script type="text/javascript">
var viewWidth = 572;
var viewHeight = 127;
var sectionId = 'dynsection-10';
</script>
<script xlink:href="svgpan.js"/>
<svg id="graph" class="graph">
<g id="viewport">
<title>start</title>
<!-- Node1 -->
<g id="node1" class="node"><title>Node1</title>
<polygon fill="#bfbfbf" stroke="black" points="0,-44.5 0,-63.5 36,-63.5 36,-44.5 0,-44.5"/>
<text text-anchor="middle" x="18" y="-51.5" font-family="Helvetica,sans-Serif" font-size="10.00">start</text>
</g>
<!-- Node2 -->
<g id="node2" class="node"><title>Node2</title>
<g id="a_node2"><a xlink:href="classatwork__commander_1_1Control.html#a03d7ab8dde7ac8c41b29a9480b013ed6" target="_top" xlink:title="Command to start the current Task of the RefBox. ">
<polygon fill="none" stroke="black" points="72,-39 72,-69 212,-69 212,-39 72,-39"/>
<text text-anchor="start" x="80" y="-57" font-family="Helvetica,sans-Serif" font-size="10.00">atwork_commander::Control</text>
<text text-anchor="middle" x="142" y="-46" font-family="Helvetica,sans-Serif" font-size="10.00">::start</text>
</a>
</g>
</g>
<!-- Node1&#45;&gt;Node2 -->
<g id="edge1" class="edge"><title>Node1&#45;&gt;Node2</title>
<path fill="none" stroke="midnightblue" d="M36.2209,-54C43.3869,-54 52.2567,-54 61.7786,-54"/>
<polygon fill="midnightblue" stroke="midnightblue" points="61.8936,-57.5001 71.8935,-54 61.8935,-50.5001 61.8936,-57.5001"/>
</g>
<!-- Node3 -->
<g id="node3" class="node"><title>Node3</title>
<g id="a_node3"><a xlink:href="classatwork__commander_1_1ControlImpl.html#a61e7adc72e3d1ae5f8ba7099e7ea1a58" target="_top" xlink:title="atwork_commander::Control\lImpl::start">
<polygon fill="none" stroke="black" points="248,-39 248,-69 388,-69 388,-39 248,-39"/>
<text text-anchor="start" x="256" y="-57" font-family="Helvetica,sans-Serif" font-size="10.00">atwork_commander::Control</text>
<text text-anchor="middle" x="318" y="-46" font-family="Helvetica,sans-Serif" font-size="10.00">Impl::start</text>
</a>
</g>
</g>
<!-- Node2&#45;&gt;Node3 -->
<g id="edge2" class="edge"><title>Node2&#45;&gt;Node3</title>
<path fill="none" stroke="midnightblue" d="M212.019,-54C220.476,-54 229.169,-54 237.761,-54"/>
<polygon fill="midnightblue" stroke="midnightblue" points="237.78,-57.5001 247.779,-54 237.779,-50.5001 237.78,-57.5001"/>
</g>
<!-- Node4 -->
<g id="node4" class="node"><title>Node4</title>
<g id="a_node4"><a xlink:href="classatwork__commander_1_1ControlError.html#aa8e0a508d07409af6b9ccc3f2b04862c" target="_top" xlink:title="Constructor taking the error description. ">
<polygon fill="none" stroke="black" points="424,-88 424,-118 564,-118 564,-88 424,-88"/>
<text text-anchor="start" x="432" y="-106" font-family="Helvetica,sans-Serif" font-size="10.00">atwork_commander::Control</text>
<text text-anchor="middle" x="494" y="-95" font-family="Helvetica,sans-Serif" font-size="10.00">Error::ControlError</text>
</a>
</g>
</g>
<!-- Node3&#45;&gt;Node4 -->
<g id="edge3" class="edge"><title>Node3&#45;&gt;Node4</title>
<path fill="none" stroke="midnightblue" d="M372.626,-69.1014C390.737,-74.2019 411.124,-79.9429 429.9,-85.2305"/>
<polygon fill="midnightblue" stroke="midnightblue" points="428.977,-88.6067 439.552,-87.9484 430.875,-81.8687 428.977,-88.6067"/>
</g>
<!-- Node5 -->
<g id="node5" class="node"><title>Node5</title>
<g id="a_node5"><a xlink:href="namespaceatwork__commander__msgs.html#a9ecf5e83b56ed832452324374f4ec311" target="_top" xlink:title="atwork_commander_msgs\l::stateName">
<polygon fill="none" stroke="black" points="428.5,-39 428.5,-69 559.5,-69 559.5,-39 428.5,-39"/>
<text text-anchor="start" x="436.5" y="-57" font-family="Helvetica,sans-Serif" font-size="10.00">atwork_commander_msgs</text>
<text text-anchor="middle" x="494" y="-46" font-family="Helvetica,sans-Serif" font-size="10.00">::stateName</text>
</a>
</g>
</g>
<!-- Node3&#45;&gt;Node5 -->
<g id="edge4" class="edge"><title>Node3&#45;&gt;Node5</title>
<path fill="none" stroke="midnightblue" d="M388.019,-54C397.878,-54 408.059,-54 418.025,-54"/>
<polygon fill="midnightblue" stroke="midnightblue" points="418.311,-57.5001 428.311,-54 418.311,-50.5001 418.311,-57.5001"/>
</g>
<!-- Node6 -->
<g id="node6" class="node"><title>Node6</title>
<g id="a_node6"><a xlink:href="namespaceatwork__commander.html#a144d24cd0805258cbfd6f8cb8795feca" target="_top" xlink:title="atwork_commander::call">
<polygon fill="none" stroke="black" points="432.5,-0.5 432.5,-19.5 555.5,-19.5 555.5,-0.5 432.5,-0.5"/>
<text text-anchor="middle" x="494" y="-7.5" font-family="Helvetica,sans-Serif" font-size="10.00">atwork_commander::call</text>
</a>
</g>
</g>
<!-- Node3&#45;&gt;Node6 -->
<g id="edge5" class="edge"><title>Node3&#45;&gt;Node6</title>
<path fill="none" stroke="midnightblue" d="M378.394,-38.9808C400.307,-33.4396 424.827,-27.2393 445.545,-22.0001"/>
<polygon fill="midnightblue" stroke="midnightblue" points="446.546,-25.3573 455.383,-19.5124 444.83,-18.5709 446.546,-25.3573"/>
</g>
</g>
</svg>
        <g id="navigator" transform="translate(0 0)" fill="#404254">
                <rect fill="#f2f5e9" fill-opacity="0.5" stroke="#606060" stroke-width=".5" x="0" y="0" width="60" height="60"/>
                <use id="zoomplus" xlink:href="#zoomPlus" x="17" y="9" onmousedown="handleZoom(evt,'in')"/>
                <use id="zoomminus" xlink:href="#zoomMin" x="42" y="9" onmousedown="handleZoom(evt,'out')"/>
                <use id="reset" xlink:href="#resetDef" x="30" y="36" onmousedown="handleReset()"/>
                <g id="arrowUp" xlink:href="#dirArrow" transform="translate(30 24)" onmousedown="handlePan(0,-1)">
                  <use xlink:href="#rim" fill="#404040">
                        <set attributeName="fill" to="#808080" begin="arrowUp.mouseover" end="arrowUp.mouseout"/>
                  </use>
                  <path fill="none" stroke="white" stroke-width="1.5" d="M0,-3.0v7 M-2.5,-0.5L0,-3.0L2.5,-0.5"/>
                </g>
                <g id="arrowRight" xlink:href="#dirArrow" transform="rotate(90) translate(36 -43)" onmousedown="handlePan(1,0)">
                  <use xlink:href="#rim" fill="#404040">
                        <set attributeName="fill" to="#808080" begin="arrowRight.mouseover" end="arrowRight.mouseout"/>
                  </use>
                  <path fill="none" stroke="white" stroke-width="1.5" d="M0,-3.0v7 M-2.5,-0.5L0,-3.0L2.5,-0.5"/>
                </g>
                <g id="arrowDown" xlink:href="#dirArrow" transform="rotate(180) translate(-30 -48)" onmousedown="handlePan(0,1)">
                  <use xlink:href="#rim" fill="#404040">
                        <set attributeName="fill" to="#808080" begin="arrowDown.mouseover" end="arrowDown.mouseout"/>
                  </use>
                  <path fill="none" stroke="white" stroke-width="1.5" d="M0,-3.0v7 M-2.5,-0.5L0,-3.0L2.5,-0.5"/>
                </g>
                <g id="arrowLeft" xlink:href="#dirArrow" transform="rotate(270) translate(-36 17)" onmousedown="handlePan(-1,0)">
                  <use xlink:href="#rim" fill="#404040">
                        <set attributeName="fill" to="#808080" begin="arrowLeft.mouseover" end="arrowLeft.mouseout"/>
                  </use>
                  <path fill="none" stroke="white" stroke-width="1.5" d="M0,-3.0v7 M-2.5,-0.5L0,-3.0L2.5,-0.5"/>
                </g>
        </g>
        <svg viewBox="0 0 15 15" width="100%" height="30px" preserveAspectRatio="xMaxYMin meet">
         <g id="arrow_out" transform="scale(0.3 0.3)">
          <a xlink:href="control__node_8cpp_a92904aa73140a9bcbc31b3f01cbc1b91_cgraph_org.svg" target="_base">
           <rect id="button" ry="5" rx="5" y="6" x="6" height="38" width="38"
                fill="#f2f5e9" fill-opacity="0.5" stroke="#606060" stroke-width="1.0"/>
           <path id="arrow"
             d="M 11.500037,31.436501 C 11.940474,20.09759 22.043105,11.32322 32.158766,21.979434 L 37.068811,17.246167 C 37.068811,17.246167 37.088388,32 37.088388,32 L 22.160133,31.978069 C 22.160133,31.978069 26.997745,27.140456 26.997745,27.140456 C 18.528582,18.264221 13.291696,25.230495 11.500037,31.436501 z"
             style="fill:#404040;"/>
          </a>
         </g>
        </svg>
</svg>
