<?xml version="1.0" encoding="UTF-8" standalone="no"?>
<!DOCTYPE svg PUBLIC "-//W3C//DTD SVG 1.1//EN"
 "http://www.w3.org/Graphics/SVG/1.1/DTD/svg11.dtd">
<!-- Generated by graphviz version 2.38.0 (20140413.2041)
 -->
<!-- Title: forward Pages: 1 -->
<svg width="585pt" height="127pt"
 viewBox="0.00 0.00 585.00 126.50" xmlns="http://www.w3.org/2000/svg" xmlns:xlink="http://www.w3.org/1999/xlink">
<g id="graph0" class="graph" transform="scale(1 1) rotate(0) translate(4 122.5)">
<title>forward</title>
<!-- Node1 -->
<g id="node1" class="node"><title>Node1</title>
<polygon fill="#bfbfbf" stroke="black" points="0,-44.5 0,-63.5 49,-63.5 49,-44.5 0,-44.5"/>
<text text-anchor="middle" x="24.5" y="-51.5" font-family="Helvetica,sans-Serif" font-size="10.00">forward</text>
</g>
<!-- Node2 -->
<g id="node2" class="node"><title>Node2</title>
<g id="a_node2"><a xlink:href="classatwork__commander_1_1Control.html#a1c41197baa292fac512b2d5f9971adf5" target="_top" xlink:title="Command to forward the current state of the RefBox manually. ">
<polygon fill="none" stroke="black" points="85,-39 85,-69 225,-69 225,-39 85,-39"/>
<text text-anchor="start" x="93" y="-57" font-family="Helvetica,sans-Serif" font-size="10.00">atwork_commander::Control</text>
<text text-anchor="middle" x="155" y="-46" font-family="Helvetica,sans-Serif" font-size="10.00">::forward</text>
</a>
</g>
</g>
<!-- Node1&#45;&gt;Node2 -->
<g id="edge1" class="edge"><title>Node1&#45;&gt;Node2</title>
<path fill="none" stroke="midnightblue" d="M49.0689,-54C56.6246,-54 65.4553,-54 74.7283,-54"/>
<polygon fill="midnightblue" stroke="midnightblue" points="74.9247,-57.5001 84.9247,-54 74.9247,-50.5001 74.9247,-57.5001"/>
</g>
<!-- Node3 -->
<g id="node3" class="node"><title>Node3</title>
<g id="a_node3"><a xlink:href="classatwork__commander_1_1ControlImpl.html#a5628bbe3067a289d3d1dda5f59e9cece" target="_top" xlink:title="atwork_commander::Control\lImpl::forward">
<polygon fill="none" stroke="black" points="261,-39 261,-69 401,-69 401,-39 261,-39"/>
<text text-anchor="start" x="269" y="-57" font-family="Helvetica,sans-Serif" font-size="10.00">atwork_commander::Control</text>
<text text-anchor="middle" x="331" y="-46" font-family="Helvetica,sans-Serif" font-size="10.00">Impl::forward</text>
</a>
</g>
</g>
<!-- Node2&#45;&gt;Node3 -->
<g id="edge2" class="edge"><title>Node2&#45;&gt;Node3</title>
<path fill="none" stroke="midnightblue" d="M225.019,-54C233.476,-54 242.169,-54 250.761,-54"/>
<polygon fill="midnightblue" stroke="midnightblue" points="250.78,-57.5001 260.779,-54 250.779,-50.5001 250.78,-57.5001"/>
</g>
<!-- Node4 -->
<g id="node4" class="node"><title>Node4</title>
<g id="a_node4"><a xlink:href="classatwork__commander_1_1ControlError.html#aa8e0a508d07409af6b9ccc3f2b04862c" target="_top" xlink:title="Constructor taking the error description. ">
<polygon fill="none" stroke="black" points="437,-88 437,-118 577,-118 577,-88 437,-88"/>
<text text-anchor="start" x="445" y="-106" font-family="Helvetica,sans-Serif" font-size="10.00">atwork_commander::Control</text>
<text text-anchor="middle" x="507" y="-95" font-family="Helvetica,sans-Serif" font-size="10.00">Error::ControlError</text>
</a>
</g>
</g>
<!-- Node3&#45;&gt;Node4 -->
<g id="edge3" class="edge"><title>Node3&#45;&gt;Node4</title>
<path fill="none" stroke="midnightblue" d="M385.626,-69.1014C403.737,-74.2019 424.124,-79.9429 442.9,-85.2305"/>
<polygon fill="midnightblue" stroke="midnightblue" points="441.977,-88.6067 452.552,-87.9484 443.875,-81.8687 441.977,-88.6067"/>
</g>
<!-- Node5 -->
<g id="node5" class="node"><title>Node5</title>
<g id="a_node5"><a xlink:href="namespaceatwork__commander__msgs.html#a9ecf5e83b56ed832452324374f4ec311" target="_top" xlink:title="atwork_commander_msgs\l::stateName">
<polygon fill="none" stroke="black" points="441.5,-39 441.5,-69 572.5,-69 572.5,-39 441.5,-39"/>
<text text-anchor="start" x="449.5" y="-57" font-family="Helvetica,sans-Serif" font-size="10.00">atwork_commander_msgs</text>
<text text-anchor="middle" x="507" y="-46" font-family="Helvetica,sans-Serif" font-size="10.00">::stateName</text>
</a>
</g>
</g>
<!-- Node3&#45;&gt;Node5 -->
<g id="edge4" class="edge"><title>Node3&#45;&gt;Node5</title>
<path fill="none" stroke="midnightblue" d="M401.019,-54C410.878,-54 421.059,-54 431.025,-54"/>
<polygon fill="midnightblue" stroke="midnightblue" points="431.311,-57.5001 441.311,-54 431.311,-50.5001 431.311,-57.5001"/>
</g>
<!-- Node6 -->
<g id="node6" class="node"><title>Node6</title>
<g id="a_node6"><a xlink:href="namespaceatwork__commander.html#a144d24cd0805258cbfd6f8cb8795feca" target="_top" xlink:title="atwork_commander::call">
<polygon fill="none" stroke="black" points="445.5,-0.5 445.5,-19.5 568.5,-19.5 568.5,-0.5 445.5,-0.5"/>
<text text-anchor="middle" x="507" y="-7.5" font-family="Helvetica,sans-Serif" font-size="10.00">atwork_commander::call</text>
</a>
</g>
</g>
<!-- Node3&#45;&gt;Node6 -->
<g id="edge5" class="edge"><title>Node3&#45;&gt;Node6</title>
<path fill="none" stroke="midnightblue" d="M391.394,-38.9808C413.307,-33.4396 437.827,-27.2393 458.545,-22.0001"/>
<polygon fill="midnightblue" stroke="midnightblue" points="459.546,-25.3573 468.383,-19.5124 457.83,-18.5709 459.546,-25.3573"/>
</g>
</g>
</svg>
