<?xml version="1.0" encoding="UTF-8" standalone="no"?>
<!DOCTYPE svg PUBLIC "-//W3C//DTD SVG 1.1//EN"
 "http://www.w3.org/Graphics/SVG/1.1/DTD/svg11.dtd">
<!-- Generated by graphviz version 2.38.0 (20140413.2041)
 -->
<!-- Title: /home/travis/build/steup/atwork&#45;commander/atwork_commander_core/include/atwork_commander/Control.hpp Pages: 1 -->
<!--zoomable 250 -->
<svg id="main" version="1.1" xmlns="http://www.w3.org/2000/svg" xmlns:xlink="http://www.w3.org/1999/xlink" xml:space="preserve" onload="init(evt)">
<style type="text/css"><![CDATA[
.edge:hover path { stroke: red; }
.edge:hover polygon { stroke: red; fill: red; }
]]></style>
<script type="text/javascript"><![CDATA[
var edges = document.getElementsByTagName('g');
if (edges && edges.length) {
  for (var i=0;i<edges.length;i++) {
    if (edges[i].id.substr(0,4)=='edge') {
      edges[i].setAttribute('class','edge');
    }
  }
}
]]></script>
        <defs>
                <circle id="rim" cx="0" cy="0" r="7"/>
                <circle id="rim2" cx="0" cy="0" r="3.5"/>
                <g id="zoomPlus">
                        <use xlink:href="#rim" fill="#404040">
                                <set attributeName="fill" to="#808080" begin="zoomplus.mouseover" end="zoomplus.mouseout"/>
                        </use>
                        <path d="M-4,0h8M0,-4v8" fill="none" stroke="white" stroke-width="1.5" pointer-events="none"/>
                </g>
                <g id="zoomMin">
                        <use xlink:href="#rim" fill="#404040">
                                <set attributeName="fill" to="#808080" begin="zoomminus.mouseover" end="zoomminus.mouseout"/>
                        </use>
                        <path d="M-4,0h8" fill="none" stroke="white" stroke-width="1.5" pointer-events="none"/>
                </g>
                <g id="dirArrow">
                        <path fill="none" stroke="white" stroke-width="1.5" d="M0,-3.0v7 M-2.5,-0.5L0,-3.0L2.5,-0.5"/>
                </g>
               <g id="resetDef">
                       <use xlink:href="#rim2" fill="#404040">
                               <set attributeName="fill" to="#808080" begin="reset.mouseover" end="reset.mouseout"/>
                       </use>
               </g>
        </defs>

<script type="text/javascript">
var viewWidth = 766;
var viewHeight = 250;
var sectionId = 'dynsection-1';
</script>
<script xlink:href="svgpan.js"/>
<svg id="graph" class="graph">
<g id="viewport">
<title>/home/travis/build/steup/atwork&#45;commander/atwork_commander_core/include/atwork_commander/Control.hpp</title>
<!-- Node1 -->
<g id="node1" class="node"><title>Node1</title>
<polygon fill="#bfbfbf" stroke="black" points="291.5,-178.5 291.5,-241.5 430.5,-241.5 430.5,-178.5 291.5,-178.5"/>
<text text-anchor="start" x="299.5" y="-229.5" font-family="Helvetica,sans-Serif" font-size="10.00">/home/travis/build</text>
<text text-anchor="start" x="299.5" y="-218.5" font-family="Helvetica,sans-Serif" font-size="10.00">/steup/atwork&#45;commander</text>
<text text-anchor="start" x="299.5" y="-207.5" font-family="Helvetica,sans-Serif" font-size="10.00">/atwork_commander_core</text>
<text text-anchor="start" x="299.5" y="-196.5" font-family="Helvetica,sans-Serif" font-size="10.00">/include/atwork_commander</text>
<text text-anchor="middle" x="361" y="-185.5" font-family="Helvetica,sans-Serif" font-size="10.00">/Control.hpp</text>
</g>
<!-- Node2 -->
<g id="node2" class="node"><title>Node2</title>
<g id="a_node2"><a xlink:href="basic__setup_8cpp.html" target="_top" xlink:title="/home/travis/build\l/steup/atwork&#45;commander\l/atwork_commander/tests\l/src/basic_setup.cpp">
<polygon fill="none" stroke="black" points="0,-89.5 0,-141.5 130,-141.5 130,-89.5 0,-89.5"/>
<text text-anchor="start" x="8" y="-129.5" font-family="Helvetica,sans-Serif" font-size="10.00">/home/travis/build</text>
<text text-anchor="start" x="8" y="-118.5" font-family="Helvetica,sans-Serif" font-size="10.00">/steup/atwork&#45;commander</text>
<text text-anchor="start" x="8" y="-107.5" font-family="Helvetica,sans-Serif" font-size="10.00">/atwork_commander/tests</text>
<text text-anchor="middle" x="65" y="-96.5" font-family="Helvetica,sans-Serif" font-size="10.00">/src/basic_setup.cpp</text>
</a>
</g>
</g>
<!-- Node1&#45;&gt;Node2 -->
<g id="edge1" class="edge"><title>Node1&#45;&gt;Node2</title>
<path fill="none" stroke="midnightblue" d="M281.577,-185.842C239.145,-173.265 186.091,-157.214 139,-142 136.155,-141.081 133.253,-140.132 130.324,-139.164"/>
<polygon fill="midnightblue" stroke="midnightblue" points="280.709,-189.235 291.291,-188.715 282.695,-182.522 280.709,-189.235"/>
</g>
<!-- Node3 -->
<g id="node3" class="node"><title>Node3</title>
<g id="a_node3"><a xlink:href="src_2control_8cpp.html" target="_top" xlink:title="/home/travis/build\l/steup/atwork&#45;commander\l/atwork_commander_core\l/src/control.cpp">
<polygon fill="none" stroke="black" points="148,-89.5 148,-141.5 278,-141.5 278,-89.5 148,-89.5"/>
<text text-anchor="start" x="156" y="-129.5" font-family="Helvetica,sans-Serif" font-size="10.00">/home/travis/build</text>
<text text-anchor="start" x="156" y="-118.5" font-family="Helvetica,sans-Serif" font-size="10.00">/steup/atwork&#45;commander</text>
<text text-anchor="start" x="156" y="-107.5" font-family="Helvetica,sans-Serif" font-size="10.00">/atwork_commander_core</text>
<text text-anchor="middle" x="213" y="-96.5" font-family="Helvetica,sans-Serif" font-size="10.00">/src/control.cpp</text>
</a>
</g>
</g>
<!-- Node1&#45;&gt;Node3 -->
<g id="edge2" class="edge"><title>Node1&#45;&gt;Node3</title>
<path fill="none" stroke="midnightblue" d="M303.509,-173.068C286.78,-162.612 268.865,-151.416 253.425,-141.766"/>
<polygon fill="midnightblue" stroke="midnightblue" points="301.794,-176.124 312.129,-178.456 305.504,-170.188 301.794,-176.124"/>
</g>
<!-- Node4 -->
<g id="node4" class="node"><title>Node4</title>
<g id="a_node4"><a xlink:href="control__node_8cpp.html" target="_top" xlink:title="/home/travis/build\l/steup/atwork&#45;commander\l/atwork_commander_core\l/src/control_node.cpp">
<polygon fill="none" stroke="black" points="296,-89.5 296,-141.5 426,-141.5 426,-89.5 296,-89.5"/>
<text text-anchor="start" x="304" y="-129.5" font-family="Helvetica,sans-Serif" font-size="10.00">/home/travis/build</text>
<text text-anchor="start" x="304" y="-118.5" font-family="Helvetica,sans-Serif" font-size="10.00">/steup/atwork&#45;commander</text>
<text text-anchor="start" x="304" y="-107.5" font-family="Helvetica,sans-Serif" font-size="10.00">/atwork_commander_core</text>
<text text-anchor="middle" x="361" y="-96.5" font-family="Helvetica,sans-Serif" font-size="10.00">/src/control_node.cpp</text>
</a>
</g>
</g>
<!-- Node1&#45;&gt;Node4 -->
<g id="edge3" class="edge"><title>Node1&#45;&gt;Node4</title>
<path fill="none" stroke="midnightblue" d="M361,-168.423C361,-159.359 361,-149.999 361,-141.766"/>
<polygon fill="midnightblue" stroke="midnightblue" points="357.5,-168.456 361,-178.456 364.5,-168.456 357.5,-168.456"/>
</g>
<!-- Node5 -->
<g id="node5" class="node"><title>Node5</title>
<g id="a_node5"><a xlink:href="BasicControlTest_8hpp.html" target="_top" xlink:title="/home/travis/build\l/steup/atwork&#45;commander\l/atwork_commander_core\l/tests/src/BasicControlTest.hpp">
<polygon fill="none" stroke="black" points="444.5,-89.5 444.5,-141.5 599.5,-141.5 599.5,-89.5 444.5,-89.5"/>
<text text-anchor="start" x="452.5" y="-129.5" font-family="Helvetica,sans-Serif" font-size="10.00">/home/travis/build</text>
<text text-anchor="start" x="452.5" y="-118.5" font-family="Helvetica,sans-Serif" font-size="10.00">/steup/atwork&#45;commander</text>
<text text-anchor="start" x="452.5" y="-107.5" font-family="Helvetica,sans-Serif" font-size="10.00">/atwork_commander_core</text>
<text text-anchor="middle" x="522" y="-96.5" font-family="Helvetica,sans-Serif" font-size="10.00">/tests/src/BasicControlTest.hpp</text>
</a>
</g>
</g>
<!-- Node1&#45;&gt;Node5 -->
<g id="edge4" class="edge"><title>Node1&#45;&gt;Node5</title>
<path fill="none" stroke="midnightblue" d="M423.081,-173.333C441.505,-162.747 461.289,-151.381 478.286,-141.615"/>
<polygon fill="midnightblue" stroke="midnightblue" points="421.091,-170.439 414.164,-178.456 424.578,-176.509 421.091,-170.439"/>
</g>
<!-- Node8 -->
<g id="node8" class="node"><title>Node8</title>
<g id="a_node8"><a xlink:href="rviz__plugin_8h.html" target="_top" xlink:title="/home/travis/build\l/steup/atwork&#45;commander\l/atwork_commander_gui/src\l/rviz_plugin.h">
<polygon fill="none" stroke="black" points="618,-89.5 618,-141.5 758,-141.5 758,-89.5 618,-89.5"/>
<text text-anchor="start" x="626" y="-129.5" font-family="Helvetica,sans-Serif" font-size="10.00">/home/travis/build</text>
<text text-anchor="start" x="626" y="-118.5" font-family="Helvetica,sans-Serif" font-size="10.00">/steup/atwork&#45;commander</text>
<text text-anchor="start" x="626" y="-107.5" font-family="Helvetica,sans-Serif" font-size="10.00">/atwork_commander_gui/src</text>
<text text-anchor="middle" x="688" y="-96.5" font-family="Helvetica,sans-Serif" font-size="10.00">/rviz_plugin.h</text>
</a>
</g>
</g>
<!-- Node1&#45;&gt;Node8 -->
<g id="edge7" class="edge"><title>Node1&#45;&gt;Node8</title>
<path fill="none" stroke="midnightblue" d="M440.601,-188.542C489.378,-175.746 552.992,-158.594 609,-142 611.902,-141.14 614.859,-140.25 617.843,-139.34"/>
<polygon fill="midnightblue" stroke="midnightblue" points="439.526,-185.205 430.738,-191.123 441.298,-191.977 439.526,-185.205"/>
</g>
<!-- Node6 -->
<g id="node6" class="node"><title>Node6</title>
<g id="a_node6"><a xlink:href="tests_2src_2control_8cpp.html" target="_top" xlink:title="/home/travis/build\l/steup/atwork&#45;commander\l/atwork_commander_core\l/tests/src/control.cpp">
<polygon fill="none" stroke="black" points="315,-0.5 315,-52.5 445,-52.5 445,-0.5 315,-0.5"/>
<text text-anchor="start" x="323" y="-40.5" font-family="Helvetica,sans-Serif" font-size="10.00">/home/travis/build</text>
<text text-anchor="start" x="323" y="-29.5" font-family="Helvetica,sans-Serif" font-size="10.00">/steup/atwork&#45;commander</text>
<text text-anchor="start" x="323" y="-18.5" font-family="Helvetica,sans-Serif" font-size="10.00">/atwork_commander_core</text>
<text text-anchor="middle" x="380" y="-7.5" font-family="Helvetica,sans-Serif" font-size="10.00">/tests/src/control.cpp</text>
</a>
</g>
</g>
<!-- Node5&#45;&gt;Node6 -->
<g id="edge5" class="edge"><title>Node5&#45;&gt;Node6</title>
<path fill="none" stroke="midnightblue" d="M472.333,-84.0705C455.55,-73.7877 437.013,-62.4307 420.98,-52.6075"/>
<polygon fill="midnightblue" stroke="midnightblue" points="470.572,-87.0961 480.928,-89.336 474.229,-81.1273 470.572,-87.0961"/>
</g>
<!-- Node7 -->
<g id="node7" class="node"><title>Node7</title>
<g id="a_node7"><a xlink:href="external_8cpp.html" target="_top" xlink:title="/home/travis/build\l/steup/atwork&#45;commander\l/atwork_commander_core\l/tests/src/external.cpp">
<polygon fill="none" stroke="black" points="463,-0.5 463,-52.5 593,-52.5 593,-0.5 463,-0.5"/>
<text text-anchor="start" x="471" y="-40.5" font-family="Helvetica,sans-Serif" font-size="10.00">/home/travis/build</text>
<text text-anchor="start" x="471" y="-29.5" font-family="Helvetica,sans-Serif" font-size="10.00">/steup/atwork&#45;commander</text>
<text text-anchor="start" x="471" y="-18.5" font-family="Helvetica,sans-Serif" font-size="10.00">/atwork_commander_core</text>
<text text-anchor="middle" x="528" y="-7.5" font-family="Helvetica,sans-Serif" font-size="10.00">/tests/src/external.cpp</text>
</a>
</g>
</g>
<!-- Node5&#45;&gt;Node7 -->
<g id="edge6" class="edge"><title>Node5&#45;&gt;Node7</title>
<path fill="none" stroke="midnightblue" d="M524.435,-79.1908C525.049,-70.2824 525.697,-60.8986 526.268,-52.6075"/>
<polygon fill="midnightblue" stroke="midnightblue" points="520.932,-79.1189 523.735,-89.336 527.915,-79.6005 520.932,-79.1189"/>
</g>
<!-- Node9 -->
<g id="node9" class="node"><title>Node9</title>
<g id="a_node9"><a xlink:href="rviz__plugin_8cpp.html" target="_top" xlink:title="/home/travis/build\l/steup/atwork&#45;commander\l/atwork_commander_gui/src\l/rviz_plugin.cpp">
<polygon fill="none" stroke="black" points="618,-0.5 618,-52.5 758,-52.5 758,-0.5 618,-0.5"/>
<text text-anchor="start" x="626" y="-40.5" font-family="Helvetica,sans-Serif" font-size="10.00">/home/travis/build</text>
<text text-anchor="start" x="626" y="-29.5" font-family="Helvetica,sans-Serif" font-size="10.00">/steup/atwork&#45;commander</text>
<text text-anchor="start" x="626" y="-18.5" font-family="Helvetica,sans-Serif" font-size="10.00">/atwork_commander_gui/src</text>
<text text-anchor="middle" x="688" y="-7.5" font-family="Helvetica,sans-Serif" font-size="10.00">/rviz_plugin.cpp</text>
</a>
</g>
</g>
<!-- Node8&#45;&gt;Node9 -->
<g id="edge8" class="edge"><title>Node8&#45;&gt;Node9</title>
<path fill="none" stroke="midnightblue" d="M688,-79.1908C688,-70.2824 688,-60.8986 688,-52.6075"/>
<polygon fill="midnightblue" stroke="midnightblue" points="684.5,-79.336 688,-89.336 691.5,-79.336 684.5,-79.336"/>
</g>
</g>
</svg>
        <g id="navigator" transform="translate(0 0)" fill="#404254">
                <rect fill="#f2f5e9" fill-opacity="0.5" stroke="#606060" stroke-width=".5" x="0" y="0" width="60" height="60"/>
                <use id="zoomplus" xlink:href="#zoomPlus" x="17" y="9" onmousedown="handleZoom(evt,'in')"/>
                <use id="zoomminus" xlink:href="#zoomMin" x="42" y="9" onmousedown="handleZoom(evt,'out')"/>
                <use id="reset" xlink:href="#resetDef" x="30" y="36" onmousedown="handleReset()"/>
                <g id="arrowUp" xlink:href="#dirArrow" transform="translate(30 24)" onmousedown="handlePan(0,-1)">
                  <use xlink:href="#rim" fill="#404040">
                        <set attributeName="fill" to="#808080" begin="arrowUp.mouseover" end="arrowUp.mouseout"/>
                  </use>
                  <path fill="none" stroke="white" stroke-width="1.5" d="M0,-3.0v7 M-2.5,-0.5L0,-3.0L2.5,-0.5"/>
                </g>
                <g id="arrowRight" xlink:href="#dirArrow" transform="rotate(90) translate(36 -43)" onmousedown="handlePan(1,0)">
                  <use xlink:href="#rim" fill="#404040">
                        <set attributeName="fill" to="#808080" begin="arrowRight.mouseover" end="arrowRight.mouseout"/>
                  </use>
                  <path fill="none" stroke="white" stroke-width="1.5" d="M0,-3.0v7 M-2.5,-0.5L0,-3.0L2.5,-0.5"/>
                </g>
                <g id="arrowDown" xlink:href="#dirArrow" transform="rotate(180) translate(-30 -48)" onmousedown="handlePan(0,1)">
                  <use xlink:href="#rim" fill="#404040">
                        <set attributeName="fill" to="#808080" begin="arrowDown.mouseover" end="arrowDown.mouseout"/>
                  </use>
                  <path fill="none" stroke="white" stroke-width="1.5" d="M0,-3.0v7 M-2.5,-0.5L0,-3.0L2.5,-0.5"/>
                </g>
                <g id="arrowLeft" xlink:href="#dirArrow" transform="rotate(270) translate(-36 17)" onmousedown="handlePan(-1,0)">
                  <use xlink:href="#rim" fill="#404040">
                        <set attributeName="fill" to="#808080" begin="arrowLeft.mouseover" end="arrowLeft.mouseout"/>
                  </use>
                  <path fill="none" stroke="white" stroke-width="1.5" d="M0,-3.0v7 M-2.5,-0.5L0,-3.0L2.5,-0.5"/>
                </g>
        </g>
        <svg viewBox="0 0 15 15" width="100%" height="30px" preserveAspectRatio="xMaxYMin meet">
         <g id="arrow_out" transform="scale(0.3 0.3)">
          <a xlink:href="Control_8hpp__dep__incl_org.svg" target="_base">
           <rect id="button" ry="5" rx="5" y="6" x="6" height="38" width="38"
                fill="#f2f5e9" fill-opacity="0.5" stroke="#606060" stroke-width="1.0"/>
           <path id="arrow"
             d="M 11.500037,31.436501 C 11.940474,20.09759 22.043105,11.32322 32.158766,21.979434 L 37.068811,17.246167 C 37.068811,17.246167 37.088388,32 37.088388,32 L 22.160133,31.978069 C 22.160133,31.978069 26.997745,27.140456 26.997745,27.140456 C 18.528582,18.264221 13.291696,25.230495 11.500037,31.436501 z"
             style="fill:#404040;"/>
          </a>
         </g>
        </svg>
</svg>
