<?xml version="1.0" encoding="UTF-8" standalone="no"?>
<!DOCTYPE svg PUBLIC "-//W3C//DTD SVG 1.1//EN"
 "http://www.w3.org/Graphics/SVG/1.1/DTD/svg11.dtd">
<!-- Generated by graphviz version 2.38.0 (20140413.2041)
 -->
<!-- Title: start Pages: 1 -->
<svg width="572pt" height="127pt"
 viewBox="0.00 0.00 572.00 126.50" xmlns="http://www.w3.org/2000/svg" xmlns:xlink="http://www.w3.org/1999/xlink">
<g id="graph0" class="graph" transform="scale(1 1) rotate(0) translate(4 122.5)">
<title>start</title>
<!-- Node1 -->
<g id="node1" class="node"><title>Node1</title>
<polygon fill="#bfbfbf" stroke="black" points="0,-44.5 0,-63.5 36,-63.5 36,-44.5 0,-44.5"/>
<text text-anchor="middle" x="18" y="-51.5" font-family="Helvetica,sans-Serif" font-size="10.00">start</text>
</g>
<!-- Node2 -->
<g id="node2" class="node"><title>Node2</title>
<g id="a_node2"><a xlink:href="classatwork__commander_1_1Control.html#a03d7ab8dde7ac8c41b29a9480b013ed6" target="_top" xlink:title="Command to start the current Task of the RefBox. ">
<polygon fill="none" stroke="black" points="72,-39 72,-69 212,-69 212,-39 72,-39"/>
<text text-anchor="start" x="80" y="-57" font-family="Helvetica,sans-Serif" font-size="10.00">atwork_commander::Control</text>
<text text-anchor="middle" x="142" y="-46" font-family="Helvetica,sans-Serif" font-size="10.00">::start</text>
</a>
</g>
</g>
<!-- Node1&#45;&gt;Node2 -->
<g id="edge1" class="edge"><title>Node1&#45;&gt;Node2</title>
<path fill="none" stroke="midnightblue" d="M36.2209,-54C43.3869,-54 52.2567,-54 61.7786,-54"/>
<polygon fill="midnightblue" stroke="midnightblue" points="61.8936,-57.5001 71.8935,-54 61.8935,-50.5001 61.8936,-57.5001"/>
</g>
<!-- Node3 -->
<g id="node3" class="node"><title>Node3</title>
<g id="a_node3"><a xlink:href="classatwork__commander_1_1ControlImpl.html#a61e7adc72e3d1ae5f8ba7099e7ea1a58" target="_top" xlink:title="atwork_commander::Control\lImpl::start">
<polygon fill="none" stroke="black" points="248,-39 248,-69 388,-69 388,-39 248,-39"/>
<text text-anchor="start" x="256" y="-57" font-family="Helvetica,sans-Serif" font-size="10.00">atwork_commander::Control</text>
<text text-anchor="middle" x="318" y="-46" font-family="Helvetica,sans-Serif" font-size="10.00">Impl::start</text>
</a>
</g>
</g>
<!-- Node2&#45;&gt;Node3 -->
<g id="edge2" class="edge"><title>Node2&#45;&gt;Node3</title>
<path fill="none" stroke="midnightblue" d="M212.019,-54C220.476,-54 229.169,-54 237.761,-54"/>
<polygon fill="midnightblue" stroke="midnightblue" points="237.78,-57.5001 247.779,-54 237.779,-50.5001 237.78,-57.5001"/>
</g>
<!-- Node4 -->
<g id="node4" class="node"><title>Node4</title>
<g id="a_node4"><a xlink:href="classatwork__commander_1_1ControlError.html#aa8e0a508d07409af6b9ccc3f2b04862c" target="_top" xlink:title="Constructor taking the error description. ">
<polygon fill="none" stroke="black" points="424,-88 424,-118 564,-118 564,-88 424,-88"/>
<text text-anchor="start" x="432" y="-106" font-family="Helvetica,sans-Serif" font-size="10.00">atwork_commander::Control</text>
<text text-anchor="middle" x="494" y="-95" font-family="Helvetica,sans-Serif" font-size="10.00">Error::ControlError</text>
</a>
</g>
</g>
<!-- Node3&#45;&gt;Node4 -->
<g id="edge3" class="edge"><title>Node3&#45;&gt;Node4</title>
<path fill="none" stroke="midnightblue" d="M372.626,-69.1014C390.737,-74.2019 411.124,-79.9429 429.9,-85.2305"/>
<polygon fill="midnightblue" stroke="midnightblue" points="428.977,-88.6067 439.552,-87.9484 430.875,-81.8687 428.977,-88.6067"/>
</g>
<!-- Node5 -->
<g id="node5" class="node"><title>Node5</title>
<g id="a_node5"><a xlink:href="namespaceatwork__commander__msgs.html#a9ecf5e83b56ed832452324374f4ec311" target="_top" xlink:title="atwork_commander_msgs\l::stateName">
<polygon fill="none" stroke="black" points="428.5,-39 428.5,-69 559.5,-69 559.5,-39 428.5,-39"/>
<text text-anchor="start" x="436.5" y="-57" font-family="Helvetica,sans-Serif" font-size="10.00">atwork_commander_msgs</text>
<text text-anchor="middle" x="494" y="-46" font-family="Helvetica,sans-Serif" font-size="10.00">::stateName</text>
</a>
</g>
</g>
<!-- Node3&#45;&gt;Node5 -->
<g id="edge4" class="edge"><title>Node3&#45;&gt;Node5</title>
<path fill="none" stroke="midnightblue" d="M388.019,-54C397.878,-54 408.059,-54 418.025,-54"/>
<polygon fill="midnightblue" stroke="midnightblue" points="418.311,-57.5001 428.311,-54 418.311,-50.5001 418.311,-57.5001"/>
</g>
<!-- Node6 -->
<g id="node6" class="node"><title>Node6</title>
<g id="a_node6"><a xlink:href="namespaceatwork__commander.html#a144d24cd0805258cbfd6f8cb8795feca" target="_top" xlink:title="atwork_commander::call">
<polygon fill="none" stroke="black" points="432.5,-0.5 432.5,-19.5 555.5,-19.5 555.5,-0.5 432.5,-0.5"/>
<text text-anchor="middle" x="494" y="-7.5" font-family="Helvetica,sans-Serif" font-size="10.00">atwork_commander::call</text>
</a>
</g>
</g>
<!-- Node3&#45;&gt;Node6 -->
<g id="edge5" class="edge"><title>Node3&#45;&gt;Node6</title>
<path fill="none" stroke="midnightblue" d="M378.394,-38.9808C400.307,-33.4396 424.827,-27.2393 445.545,-22.0001"/>
<polygon fill="midnightblue" stroke="midnightblue" points="446.546,-25.3573 455.383,-19.5124 444.83,-18.5709 446.546,-25.3573"/>
</g>
</g>
</svg>
