<?xml version="1.0" encoding="UTF-8" standalone="no"?>
<!DOCTYPE svg PUBLIC "-//W3C//DTD SVG 1.1//EN"
 "http://www.w3.org/Graphics/SVG/1.1/DTD/svg11.dtd">
<!-- Generated by graphviz version 2.38.0 (20140413.2041)
 -->
<!-- Title: store Pages: 1 -->
<svg width="226pt" height="66pt"
 viewBox="0.00 0.00 226.00 66.00" xmlns="http://www.w3.org/2000/svg" xmlns:xlink="http://www.w3.org/1999/xlink">
<g id="graph0" class="graph" transform="scale(1 1) rotate(0) translate(4 62)">
<title>store</title>
<!-- Node1 -->
<g id="node1" class="node"><title>Node1</title>
<polygon fill="#bfbfbf" stroke="black" points="0,-19.5 0,-38.5 38,-38.5 38,-19.5 0,-19.5"/>
<text text-anchor="middle" x="19" y="-26.5" font-family="Helvetica,sans-Serif" font-size="10.00">store</text>
</g>
<!-- Node2 -->
<g id="node2" class="node"><title>Node2</title>
<g id="a_node2"><a xlink:href="control__node_8cpp.html#aa9dc8d22b59934c7172c6c350ab384f4" target="_top" xlink:title="parseArgs">
<polygon fill="none" stroke="black" points="78.5,-38.5 78.5,-57.5 139.5,-57.5 139.5,-38.5 78.5,-38.5"/>
<text text-anchor="middle" x="109" y="-45.5" font-family="Helvetica,sans-Serif" font-size="10.00">parseArgs</text>
</a>
</g>
</g>
<!-- Node1&#45;&gt;Node2 -->
<g id="edge1" class="edge"><title>Node1&#45;&gt;Node2</title>
<path fill="none" stroke="midnightblue" d="M48.133,-35.0742C57.7781,-37.1566 68.5978,-39.4927 78.3586,-41.6002"/>
<polygon fill="midnightblue" stroke="midnightblue" points="48.7471,-31.6262 38.2337,-32.9368 47.2697,-38.4685 48.7471,-31.6262"/>
</g>
<!-- Node4 -->
<g id="node4" class="node"><title>Node4</title>
<g id="a_node4"><a xlink:href="control__node_8cpp.html#a98733d6ad140ddb4f5a57388e89684ea" target="_top" xlink:title="stateUpdate">
<polygon fill="none" stroke="black" points="74,-0.5 74,-19.5 144,-19.5 144,-0.5 74,-0.5"/>
<text text-anchor="middle" x="109" y="-7.5" font-family="Helvetica,sans-Serif" font-size="10.00">stateUpdate</text>
</a>
</g>
</g>
<!-- Node1&#45;&gt;Node4 -->
<g id="edge3" class="edge"><title>Node1&#45;&gt;Node4</title>
<path fill="none" stroke="midnightblue" d="M48.042,-22.9455C56.2265,-21.1784 65.2631,-19.2273 73.784,-17.3875"/>
<polygon fill="midnightblue" stroke="midnightblue" points="47.2697,-19.5315 38.2337,-25.0632 48.7471,-26.3738 47.2697,-19.5315"/>
</g>
<!-- Node3 -->
<g id="node3" class="node"><title>Node3</title>
<g id="a_node3"><a xlink:href="control__node_8cpp.html#a3c04138a5bfe5d72780bb7e82a18e627" target="_top" xlink:title="main">
<polygon fill="none" stroke="black" points="180,-19.5 180,-38.5 218,-38.5 218,-19.5 180,-19.5"/>
<text text-anchor="middle" x="199" y="-26.5" font-family="Helvetica,sans-Serif" font-size="10.00">main</text>
</a>
</g>
</g>
<!-- Node2&#45;&gt;Node3 -->
<g id="edge2" class="edge"><title>Node2&#45;&gt;Node3</title>
<path fill="none" stroke="midnightblue" d="M149.69,-39.4307C160.201,-37.1612 171.043,-34.8202 179.786,-32.9325"/>
<polygon fill="midnightblue" stroke="midnightblue" points="148.829,-36.0358 139.793,-41.5675 150.306,-42.8781 148.829,-36.0358"/>
</g>
<!-- Node4&#45;&gt;Node3 -->
<g id="edge4" class="edge"><title>Node4&#45;&gt;Node3</title>
<path fill="none" stroke="midnightblue" d="M153.888,-19.4759C163.052,-21.4544 172.222,-23.4342 179.808,-25.0722"/>
<polygon fill="midnightblue" stroke="midnightblue" points="154.537,-16.0353 144.023,-17.3459 153.059,-22.8776 154.537,-16.0353"/>
</g>
</g>
</svg>
