<?xml version="1.0" encoding="UTF-8" standalone="no"?>
<!DOCTYPE svg PUBLIC "-//W3C//DTD SVG 1.1//EN"
 "http://www.w3.org/Graphics/SVG/1.1/DTD/svg11.dtd">
<!-- Generated by graphviz version 2.38.0 (20140413.2041)
 -->
<!-- Title: generate Pages: 1 -->
<svg width="567pt" height="66pt"
 viewBox="0.00 0.00 567.00 66.00" xmlns="http://www.w3.org/2000/svg" xmlns:xlink="http://www.w3.org/1999/xlink">
<g id="graph0" class="graph" transform="scale(1 1) rotate(0) translate(4 62)">
<title>generate</title>
<!-- Node1 -->
<g id="node1" class="node"><title>Node1</title>
<polygon fill="#bfbfbf" stroke="black" points="0,-19.5 0,-38.5 54,-38.5 54,-19.5 0,-19.5"/>
<text text-anchor="middle" x="27" y="-26.5" font-family="Helvetica,sans-Serif" font-size="10.00">generate</text>
</g>
<!-- Node2 -->
<g id="node2" class="node"><title>Node2</title>
<g id="a_node2"><a xlink:href="structRefboxMockBase.html#a853adab4d4ebd43316656b9228d85b6d" target="_top" xlink:title="RefboxMockBase::generateCall">
<polygon fill="none" stroke="black" points="90,-38.5 90,-57.5 245,-57.5 245,-38.5 90,-38.5"/>
<text text-anchor="middle" x="167.5" y="-45.5" font-family="Helvetica,sans-Serif" font-size="10.00">RefboxMockBase::generateCall</text>
</a>
</g>
</g>
<!-- Node1&#45;&gt;Node2 -->
<g id="edge1" class="edge"><title>Node1&#45;&gt;Node2</title>
<path fill="none" stroke="midnightblue" d="M64.1182,-33.9548C74.2592,-35.346 85.6405,-36.9074 97.0297,-38.4698"/>
<polygon fill="midnightblue" stroke="midnightblue" points="64.4337,-30.4654 54.0508,-32.5738 63.4823,-37.4005 64.4337,-30.4654"/>
</g>
<!-- Node5 -->
<g id="node5" class="node"><title>Node5</title>
<g id="a_node5"><a xlink:href="control__node_8cpp.html#a98733d6ad140ddb4f5a57388e89684ea" target="_top" xlink:title="stateUpdate">
<polygon fill="none" stroke="black" points="132.5,-0.5 132.5,-19.5 202.5,-19.5 202.5,-0.5 132.5,-0.5"/>
<text text-anchor="middle" x="167.5" y="-7.5" font-family="Helvetica,sans-Serif" font-size="10.00">stateUpdate</text>
</a>
</g>
</g>
<!-- Node1&#45;&gt;Node5 -->
<g id="edge4" class="edge"><title>Node1&#45;&gt;Node5</title>
<path fill="none" stroke="midnightblue" d="M64.2294,-24.0299C85.318,-21.1369 111.741,-17.5121 132.446,-14.6717"/>
<polygon fill="midnightblue" stroke="midnightblue" points="63.4823,-20.5995 54.0508,-25.4262 64.4337,-27.5346 63.4823,-20.5995"/>
</g>
<!-- Node3 -->
<g id="node3" class="node"><title>Node3</title>
<g id="a_node3"><a xlink:href="structRefboxMockBase.html#a4b3ccf44781edf61e4f6382899fdbf26" target="_top" xlink:title="RefboxMockBase::connect">
<polygon fill="none" stroke="black" points="281,-38.5 281,-57.5 416,-57.5 416,-38.5 281,-38.5"/>
<text text-anchor="middle" x="348.5" y="-45.5" font-family="Helvetica,sans-Serif" font-size="10.00">RefboxMockBase::connect</text>
</a>
</g>
</g>
<!-- Node2&#45;&gt;Node3 -->
<g id="edge2" class="edge"><title>Node2&#45;&gt;Node3</title>
<path fill="none" stroke="midnightblue" d="M255.253,-48C263.853,-48 272.487,-48 280.838,-48"/>
<polygon fill="midnightblue" stroke="midnightblue" points="255.191,-44.5001 245.191,-48 255.191,-51.5001 255.191,-44.5001"/>
</g>
<!-- Node4 -->
<g id="node4" class="node"><title>Node4</title>
<g id="a_node4"><a xlink:href="structControlTests.html#a2bc96f00c7bf8ee99a12bf53094c63fd" target="_top" xlink:title="ControlTests::SetUp">
<polygon fill="none" stroke="black" points="452,-38.5 452,-57.5 559,-57.5 559,-38.5 452,-38.5"/>
<text text-anchor="middle" x="505.5" y="-45.5" font-family="Helvetica,sans-Serif" font-size="10.00">ControlTests::SetUp</text>
</a>
</g>
</g>
<!-- Node3&#45;&gt;Node4 -->
<g id="edge3" class="edge"><title>Node3&#45;&gt;Node4</title>
<path fill="none" stroke="midnightblue" d="M426.299,-48C434.985,-48 443.683,-48 451.957,-48"/>
<polygon fill="midnightblue" stroke="midnightblue" points="426.134,-44.5001 416.133,-48 426.133,-51.5001 426.134,-44.5001"/>
</g>
<!-- Node6 -->
<g id="node6" class="node"><title>Node6</title>
<g id="a_node6"><a xlink:href="control__node_8cpp.html#a3c04138a5bfe5d72780bb7e82a18e627" target="_top" xlink:title="main">
<polygon fill="none" stroke="black" points="329.5,-0.5 329.5,-19.5 367.5,-19.5 367.5,-0.5 329.5,-0.5"/>
<text text-anchor="middle" x="348.5" y="-7.5" font-family="Helvetica,sans-Serif" font-size="10.00">main</text>
</a>
</g>
</g>
<!-- Node5&#45;&gt;Node6 -->
<g id="edge5" class="edge"><title>Node5&#45;&gt;Node6</title>
<path fill="none" stroke="midnightblue" d="M212.766,-10C250.314,-10 302.272,-10 329.385,-10"/>
<polygon fill="midnightblue" stroke="midnightblue" points="212.59,-6.5001 202.59,-10 212.59,-13.5001 212.59,-6.5001"/>
</g>
</g>
</svg>
