<?xml version="1.0" encoding="UTF-8" standalone="no"?>
<!DOCTYPE svg PUBLIC "-//W3C//DTD SVG 1.1//EN"
 "http://www.w3.org/Graphics/SVG/1.1/DTD/svg11.dtd">
<!-- Generated by graphviz version 2.38.0 (20140413.2041)
 -->
<!-- Title: load Pages: 1 -->
<svg width="571pt" height="78pt"
 viewBox="0.00 0.00 571.00 77.50" xmlns="http://www.w3.org/2000/svg" xmlns:xlink="http://www.w3.org/1999/xlink">
<g id="graph0" class="graph" transform="scale(1 1) rotate(0) translate(4 73.5)">
<title>load</title>
<!-- Node1 -->
<g id="node1" class="node"><title>Node1</title>
<polygon fill="#bfbfbf" stroke="black" points="0,-22.5 0,-41.5 35,-41.5 35,-22.5 0,-22.5"/>
<text text-anchor="middle" x="17.5" y="-29.5" font-family="Helvetica,sans-Serif" font-size="10.00">load</text>
</g>
<!-- Node2 -->
<g id="node2" class="node"><title>Node2</title>
<g id="a_node2"><a xlink:href="classatwork__commander_1_1Control.html#a37613a7516afdbb671a79cfbe5de22fc" target="_top" xlink:title="Command to load a locally stored task in the RefBox. ">
<polygon fill="none" stroke="black" points="71,-17 71,-47 211,-47 211,-17 71,-17"/>
<text text-anchor="start" x="79" y="-35" font-family="Helvetica,sans-Serif" font-size="10.00">atwork_commander::Control</text>
<text text-anchor="middle" x="141" y="-24" font-family="Helvetica,sans-Serif" font-size="10.00">::load</text>
</a>
</g>
</g>
<!-- Node1&#45;&gt;Node2 -->
<g id="edge1" class="edge"><title>Node1&#45;&gt;Node2</title>
<path fill="none" stroke="midnightblue" d="M35.1393,-32C42.2782,-32 51.1804,-32 60.7607,-32"/>
<polygon fill="midnightblue" stroke="midnightblue" points="60.9444,-35.5001 70.9444,-32 60.9443,-28.5001 60.9444,-35.5001"/>
</g>
<!-- Node3 -->
<g id="node3" class="node"><title>Node3</title>
<g id="a_node3"><a xlink:href="classatwork__commander_1_1ControlImpl.html#ab5b74ad5c6560c7d7e6111a6e85cbbfe" target="_top" xlink:title="atwork_commander::Control\lImpl::load">
<polygon fill="none" stroke="black" points="247,-17 247,-47 387,-47 387,-17 247,-17"/>
<text text-anchor="start" x="255" y="-35" font-family="Helvetica,sans-Serif" font-size="10.00">atwork_commander::Control</text>
<text text-anchor="middle" x="317" y="-24" font-family="Helvetica,sans-Serif" font-size="10.00">Impl::load</text>
</a>
</g>
</g>
<!-- Node2&#45;&gt;Node3 -->
<g id="edge2" class="edge"><title>Node2&#45;&gt;Node3</title>
<path fill="none" stroke="midnightblue" d="M211.019,-32C219.476,-32 228.169,-32 236.761,-32"/>
<polygon fill="midnightblue" stroke="midnightblue" points="236.78,-35.5001 246.779,-32 236.779,-28.5001 236.78,-35.5001"/>
</g>
<!-- Node4 -->
<g id="node4" class="node"><title>Node4</title>
<g id="a_node4"><a xlink:href="classatwork__commander_1_1ControlError.html#aa8e0a508d07409af6b9ccc3f2b04862c" target="_top" xlink:title="Constructor taking the error description. ">
<polygon fill="none" stroke="black" points="423,-39 423,-69 563,-69 563,-39 423,-39"/>
<text text-anchor="start" x="431" y="-57" font-family="Helvetica,sans-Serif" font-size="10.00">atwork_commander::Control</text>
<text text-anchor="middle" x="493" y="-46" font-family="Helvetica,sans-Serif" font-size="10.00">Error::ControlError</text>
</a>
</g>
</g>
<!-- Node3&#45;&gt;Node4 -->
<g id="edge3" class="edge"><title>Node3&#45;&gt;Node4</title>
<path fill="none" stroke="midnightblue" d="M387.019,-40.7266C395.476,-41.7958 404.169,-42.8949 412.761,-43.9812"/>
<polygon fill="midnightblue" stroke="midnightblue" points="412.419,-47.4659 422.779,-45.248 413.298,-40.5212 412.419,-47.4659"/>
</g>
<!-- Node5 -->
<g id="node5" class="node"><title>Node5</title>
<g id="a_node5"><a xlink:href="namespaceatwork__commander.html#a144d24cd0805258cbfd6f8cb8795feca" target="_top" xlink:title="atwork_commander::call">
<polygon fill="none" stroke="black" points="431.5,-0.5 431.5,-19.5 554.5,-19.5 554.5,-0.5 431.5,-0.5"/>
<text text-anchor="middle" x="493" y="-7.5" font-family="Helvetica,sans-Serif" font-size="10.00">atwork_commander::call</text>
</a>
</g>
</g>
<!-- Node3&#45;&gt;Node5 -->
<g id="edge4" class="edge"><title>Node3&#45;&gt;Node5</title>
<path fill="none" stroke="midnightblue" d="M387.019,-23.2734C398.207,-21.8589 409.809,-20.392 421.041,-18.9718"/>
<polygon fill="midnightblue" stroke="midnightblue" points="421.748,-22.4104 431.23,-17.6836 420.87,-15.4657 421.748,-22.4104"/>
</g>
</g>
</svg>
