<?xml version="1.0" encoding="UTF-8" standalone="no"?>
<!DOCTYPE svg PUBLIC "-//W3C//DTD SVG 1.1//EN"
 "http://www.w3.org/Graphics/SVG/1.1/DTD/svg11.dtd">
<!-- Generated by graphviz version 2.38.0 (20140413.2041)
 -->
<!-- Title: /home/travis/build/steup/atwork&#45;commander/atwork_commander_core/include/atwork_commander/Control.hpp Pages: 1 -->
<svg width="557pt" height="139pt"
 viewBox="0.00 0.00 556.50 139.00" xmlns="http://www.w3.org/2000/svg" xmlns:xlink="http://www.w3.org/1999/xlink">
<g id="graph0" class="graph" transform="scale(1 1) rotate(0) translate(4 135)">
<title>/home/travis/build/steup/atwork&#45;commander/atwork_commander_core/include/atwork_commander/Control.hpp</title>
<!-- Node1 -->
<g id="node1" class="node"><title>Node1</title>
<polygon fill="#bfbfbf" stroke="black" points="293,-67.5 293,-130.5 432,-130.5 432,-67.5 293,-67.5"/>
<text text-anchor="start" x="301" y="-118.5" font-family="Helvetica,sans-Serif" font-size="10.00">/home/travis/build</text>
<text text-anchor="start" x="301" y="-107.5" font-family="Helvetica,sans-Serif" font-size="10.00">/steup/atwork&#45;commander</text>
<text text-anchor="start" x="301" y="-96.5" font-family="Helvetica,sans-Serif" font-size="10.00">/atwork_commander_core</text>
<text text-anchor="start" x="301" y="-85.5" font-family="Helvetica,sans-Serif" font-size="10.00">/include/atwork_commander</text>
<text text-anchor="middle" x="362.5" y="-74.5" font-family="Helvetica,sans-Serif" font-size="10.00">/Control.hpp</text>
</g>
<!-- Node2 -->
<g id="node2" class="node"><title>Node2</title>
<polygon fill="none" stroke="#bfbfbf" points="0,-0.5 0,-30.5 131,-30.5 131,-0.5 0,-0.5"/>
<text text-anchor="start" x="8" y="-18.5" font-family="Helvetica,sans-Serif" font-size="10.00">atwork_commander_msgs</text>
<text text-anchor="middle" x="65.5" y="-7.5" font-family="Helvetica,sans-Serif" font-size="10.00">/RefboxState.h</text>
</g>
<!-- Node1&#45;&gt;Node2 -->
<g id="edge1" class="edge"><title>Node1&#45;&gt;Node2</title>
<path fill="none" stroke="midnightblue" d="M292.867,-78.8919C242.34,-65.0267 174.652,-46.4526 126.298,-33.1837"/>
<polygon fill="midnightblue" stroke="midnightblue" points="127.161,-29.7913 116.592,-30.5201 125.309,-36.5417 127.161,-29.7913"/>
</g>
<!-- Node3 -->
<g id="node3" class="node"><title>Node3</title>
<polygon fill="none" stroke="#bfbfbf" points="149,-0.5 149,-30.5 280,-30.5 280,-0.5 149,-0.5"/>
<text text-anchor="start" x="157" y="-18.5" font-family="Helvetica,sans-Serif" font-size="10.00">atwork_commander_msgs</text>
<text text-anchor="middle" x="214.5" y="-7.5" font-family="Helvetica,sans-Serif" font-size="10.00">/Task.h</text>
</g>
<!-- Node1&#45;&gt;Node3 -->
<g id="edge2" class="edge"><title>Node1&#45;&gt;Node3</title>
<path fill="none" stroke="midnightblue" d="M306.969,-67.4205C287.591,-56.7496 266.408,-45.0847 249.212,-35.6151"/>
<polygon fill="midnightblue" stroke="midnightblue" points="250.553,-32.3582 240.105,-30.6003 247.177,-38.4899 250.553,-32.3582"/>
</g>
<!-- Node4 -->
<g id="node4" class="node"><title>Node4</title>
<polygon fill="none" stroke="#bfbfbf" points="298,-6 298,-25 427,-25 427,-6 298,-6"/>
<text text-anchor="middle" x="362.5" y="-13" font-family="Helvetica,sans-Serif" font-size="10.00">boost/filesystem/path.hpp</text>
</g>
<!-- Node1&#45;&gt;Node4 -->
<g id="edge3" class="edge"><title>Node1&#45;&gt;Node4</title>
<path fill="none" stroke="midnightblue" d="M362.5,-67.1883C362.5,-56.5488 362.5,-44.9466 362.5,-35.5304"/>
<polygon fill="midnightblue" stroke="midnightblue" points="366,-35.3406 362.5,-25.3406 359,-35.3406 366,-35.3406"/>
</g>
<!-- Node5 -->
<g id="node5" class="node"><title>Node5</title>
<polygon fill="none" stroke="#bfbfbf" points="445,-6 445,-25 486,-25 486,-6 445,-6"/>
<text text-anchor="middle" x="465.5" y="-13" font-family="Helvetica,sans-Serif" font-size="10.00">string</text>
</g>
<!-- Node1&#45;&gt;Node5 -->
<g id="edge4" class="edge"><title>Node1&#45;&gt;Node5</title>
<path fill="none" stroke="midnightblue" d="M401.146,-67.4205C416.73,-55.0897 433.991,-41.4316 446.711,-31.3673"/>
<polygon fill="midnightblue" stroke="midnightblue" points="449.044,-33.9842 454.714,-25.0343 444.7,-28.4947 449.044,-33.9842"/>
</g>
<!-- Node6 -->
<g id="node6" class="node"><title>Node6</title>
<polygon fill="none" stroke="#bfbfbf" points="504.5,-6 504.5,-25 548.5,-25 548.5,-6 504.5,-6"/>
<text text-anchor="middle" x="526.5" y="-13" font-family="Helvetica,sans-Serif" font-size="10.00">vector</text>
</g>
<!-- Node1&#45;&gt;Node6 -->
<g id="edge5" class="edge"><title>Node1&#45;&gt;Node6</title>
<path fill="none" stroke="midnightblue" d="M424.034,-67.4205C450.398,-54.319 479.777,-39.7191 500.293,-29.5235"/>
<polygon fill="midnightblue" stroke="midnightblue" points="501.929,-32.619 509.327,-25.0343 498.814,-26.3504 501.929,-32.619"/>
</g>
</g>
</svg>
