<?xml version="1.0" encoding="UTF-8" standalone="no"?>
<!DOCTYPE svg PUBLIC "-//W3C//DTD SVG 1.1//EN"
 "http://www.w3.org/Graphics/SVG/1.1/DTD/svg11.dtd">
<!-- Generated by graphviz version 2.38.0 (20140413.2041)
 -->
<!-- Title: main Pages: 1 -->
<!--zoomable 284 -->
<svg id="main" version="1.1" xmlns="http://www.w3.org/2000/svg" xmlns:xlink="http://www.w3.org/1999/xlink" xml:space="preserve" onload="init(evt)">
<style type="text/css"><![CDATA[
.edge:hover path { stroke: red; }
.edge:hover polygon { stroke: red; fill: red; }
]]></style>
<script type="text/javascript"><![CDATA[
var edges = document.getElementsByTagName('g');
if (edges && edges.length) {
  for (var i=0;i<edges.length;i++) {
    if (edges[i].id.substr(0,4)=='edge') {
      edges[i].setAttribute('class','edge');
    }
  }
}
]]></script>
        <defs>
                <circle id="rim" cx="0" cy="0" r="7"/>
                <circle id="rim2" cx="0" cy="0" r="3.5"/>
                <g id="zoomPlus">
                        <use xlink:href="#rim" fill="#404040">
                                <set attributeName="fill" to="#808080" begin="zoomplus.mouseover" end="zoomplus.mouseout"/>
                        </use>
                        <path d="M-4,0h8M0,-4v8" fill="none" stroke="white" stroke-width="1.5" pointer-events="none"/>
                </g>
                <g id="zoomMin">
                        <use xlink:href="#rim" fill="#404040">
                                <set attributeName="fill" to="#808080" begin="zoomminus.mouseover" end="zoomminus.mouseout"/>
                        </use>
                        <path d="M-4,0h8" fill="none" stroke="white" stroke-width="1.5" pointer-events="none"/>
                </g>
                <g id="dirArrow">
                        <path fill="none" stroke="white" stroke-width="1.5" d="M0,-3.0v7 M-2.5,-0.5L0,-3.0L2.5,-0.5"/>
                </g>
               <g id="resetDef">
                       <use xlink:href="#rim2" fill="#404040">
                               <set attributeName="fill" to="#808080" begin="reset.mouseover" end="reset.mouseout"/>
                       </use>
               </g>
        </defs>

<script type="text/javascript">
var viewWidth = 840;
var viewHeight = 284;
var sectionId = 'dynsection-7';
</script>
<script xlink:href="svgpan.js"/>
<svg id="graph" class="graph">
<g id="viewport">
<title>main</title>
<!-- Node1 -->
<g id="node1" class="node"><title>Node1</title>
<polygon fill="#bfbfbf" stroke="black" points="0,-128 0,-147 38,-147 38,-128 0,-128"/>
<text text-anchor="middle" x="19" y="-135" font-family="Helvetica,sans-Serif" font-size="10.00">main</text>
</g>
<!-- Node2 -->
<g id="node2" class="node"><title>Node2</title>
<g id="a_node2"><a xlink:href="control__node_8cpp.html#aa9dc8d22b59934c7172c6c350ab384f4" target="_top" xlink:title="parseArgs">
<polygon fill="none" stroke="black" points="113.5,-207 113.5,-226 174.5,-226 174.5,-207 113.5,-207"/>
<text text-anchor="middle" x="144" y="-214" font-family="Helvetica,sans-Serif" font-size="10.00">parseArgs</text>
</a>
</g>
</g>
<!-- Node1&#45;&gt;Node2 -->
<g id="edge1" class="edge"><title>Node1&#45;&gt;Node2</title>
<path fill="none" stroke="midnightblue" d="M31.6482,-147.135C42.3473,-155.79 58.8014,-168.62 74,-178.5 86.9746,-186.934 101.96,-195.336 114.644,-202.087"/>
<polygon fill="midnightblue" stroke="midnightblue" points="113.342,-205.357 123.824,-206.901 116.593,-199.157 113.342,-205.357"/>
</g>
<!-- Node7 -->
<g id="node7" class="node"><title>Node7</title>
<g id="a_node7"><a xlink:href="classatwork__commander_1_1Control.html#a75e872177ff5b6b401103ee4c791a77e" target="_top" xlink:title="Setter of RefBox namespace. ">
<polygon fill="none" stroke="black" points="74,-100.5 74,-130.5 214,-130.5 214,-100.5 74,-100.5"/>
<text text-anchor="start" x="82" y="-118.5" font-family="Helvetica,sans-Serif" font-size="10.00">atwork_commander::Control</text>
<text text-anchor="middle" x="144" y="-107.5" font-family="Helvetica,sans-Serif" font-size="10.00">::refbox</text>
</a>
</g>
</g>
<!-- Node1&#45;&gt;Node7 -->
<g id="edge6" class="edge"><title>Node1&#45;&gt;Node7</title>
<path fill="none" stroke="midnightblue" d="M38.1491,-134.254C45.3902,-132.959 54.2627,-131.372 63.7518,-129.674"/>
<polygon fill="midnightblue" stroke="midnightblue" points="64.5935,-133.08 73.821,-127.873 63.3609,-126.189 64.5935,-133.08"/>
</g>
<!-- Node8 -->
<g id="node8" class="node"><title>Node8</title>
<g id="a_node8"><a xlink:href="control__node_8cpp.html#a98733d6ad140ddb4f5a57388e89684ea" target="_top" xlink:title="stateUpdate">
<polygon fill="none" stroke="black" points="109,-150 109,-169 179,-169 179,-150 109,-150"/>
<text text-anchor="middle" x="144" y="-157" font-family="Helvetica,sans-Serif" font-size="10.00">stateUpdate</text>
</a>
</g>
</g>
<!-- Node1&#45;&gt;Node8 -->
<g id="edge7" class="edge"><title>Node1&#45;&gt;Node8</title>
<path fill="none" stroke="midnightblue" d="M38.1491,-140.746C54.114,-143.602 78.0091,-147.876 98.9576,-151.622"/>
<polygon fill="midnightblue" stroke="midnightblue" points="98.497,-155.096 108.957,-153.411 99.7296,-148.205 98.497,-155.096"/>
</g>
<!-- Node26 -->
<g id="node26" class="node"><title>Node26</title>
<g id="a_node26"><a xlink:href="classatwork__commander_1_1Control.html#abd8059e33e162265ba59553273f0441f" target="_top" xlink:title="Setter of state update callback. ">
<polygon fill="none" stroke="black" points="74,-51.5 74,-81.5 214,-81.5 214,-51.5 74,-51.5"/>
<text text-anchor="start" x="82" y="-69.5" font-family="Helvetica,sans-Serif" font-size="10.00">atwork_commander::Control</text>
<text text-anchor="middle" x="144" y="-58.5" font-family="Helvetica,sans-Serif" font-size="10.00">::stateUpdateCallback</text>
</a>
</g>
</g>
<!-- Node1&#45;&gt;Node26 -->
<g id="edge36" class="edge"><title>Node1&#45;&gt;Node26</title>
<path fill="none" stroke="midnightblue" d="M28.7119,-127.995C38.7451,-117.539 56.1519,-100.849 74,-90.5 76.8527,-88.8459 79.8377,-87.2801 82.8987,-85.802"/>
<polygon fill="midnightblue" stroke="midnightblue" points="84.5465,-88.8994 92.2533,-81.6292 81.6948,-82.5066 84.5465,-88.8994"/>
</g>
<!-- Node3 -->
<g id="node3" class="node"><title>Node3</title>
<g id="a_node3"><a xlink:href="control__node_8cpp.html#ae03f3fcb1ae2050f4a7eae357059132d" target="_top" xlink:title="store">
<polygon fill="none" stroke="black" points="258,-226 258,-245 296,-245 296,-226 258,-226"/>
<text text-anchor="middle" x="277" y="-233" font-family="Helvetica,sans-Serif" font-size="10.00">store</text>
</a>
</g>
</g>
<!-- Node2&#45;&gt;Node3 -->
<g id="edge2" class="edge"><title>Node2&#45;&gt;Node3</title>
<path fill="none" stroke="midnightblue" d="M174.726,-220.811C196.554,-223.977 226.027,-228.252 247.549,-231.373"/>
<polygon fill="midnightblue" stroke="midnightblue" points="247.302,-234.874 257.701,-232.846 248.307,-227.947 247.302,-234.874"/>
</g>
<!-- Node4 -->
<g id="node4" class="node"><title>Node4</title>
<g id="a_node4"><a xlink:href="classatwork__commander_1_1Control.html#a624a50e21757ca512ccbc55cc4a63159" target="_top" xlink:title="Command to store the current task of the RefBox locally. ">
<polygon fill="none" stroke="black" points="340,-245.5 340,-275.5 480,-275.5 480,-245.5 340,-245.5"/>
<text text-anchor="start" x="348" y="-263.5" font-family="Helvetica,sans-Serif" font-size="10.00">atwork_commander::Control</text>
<text text-anchor="middle" x="410" y="-252.5" font-family="Helvetica,sans-Serif" font-size="10.00">::store</text>
</a>
</g>
</g>
<!-- Node3&#45;&gt;Node4 -->
<g id="edge3" class="edge"><title>Node3&#45;&gt;Node4</title>
<path fill="none" stroke="midnightblue" d="M296.215,-238.976C305.368,-240.723 317.159,-242.973 329.655,-245.358"/>
<polygon fill="midnightblue" stroke="midnightblue" points="329.311,-248.855 339.79,-247.292 330.623,-241.979 329.311,-248.855"/>
</g>
<!-- Node5 -->
<g id="node5" class="node"><title>Node5</title>
<g id="a_node5"><a xlink:href="classatwork__commander_1_1ControlImpl.html#a5c41d7d76657ed6b278d239fb14893f4" target="_top" xlink:title="atwork_commander::Control\lImpl::store">
<polygon fill="none" stroke="black" points="516,-245.5 516,-275.5 656,-275.5 656,-245.5 516,-245.5"/>
<text text-anchor="start" x="524" y="-263.5" font-family="Helvetica,sans-Serif" font-size="10.00">atwork_commander::Control</text>
<text text-anchor="middle" x="586" y="-252.5" font-family="Helvetica,sans-Serif" font-size="10.00">Impl::store</text>
</a>
</g>
</g>
<!-- Node4&#45;&gt;Node5 -->
<g id="edge4" class="edge"><title>Node4&#45;&gt;Node5</title>
<path fill="none" stroke="midnightblue" d="M480.019,-260.5C488.476,-260.5 497.169,-260.5 505.761,-260.5"/>
<polygon fill="midnightblue" stroke="midnightblue" points="505.78,-264 515.779,-260.5 505.779,-257 505.78,-264"/>
</g>
<!-- Node6 -->
<g id="node6" class="node"><title>Node6</title>
<g id="a_node6"><a xlink:href="classatwork__commander_1_1ControlError.html#aa8e0a508d07409af6b9ccc3f2b04862c" target="_top" xlink:title="Constructor taking the error description. ">
<polygon fill="none" stroke="black" points="692,-193.5 692,-223.5 832,-223.5 832,-193.5 692,-193.5"/>
<text text-anchor="start" x="700" y="-211.5" font-family="Helvetica,sans-Serif" font-size="10.00">atwork_commander::Control</text>
<text text-anchor="middle" x="762" y="-200.5" font-family="Helvetica,sans-Serif" font-size="10.00">Error::ControlError</text>
</a>
</g>
</g>
<!-- Node5&#45;&gt;Node6 -->
<g id="edge5" class="edge"><title>Node5&#45;&gt;Node6</title>
<path fill="none" stroke="midnightblue" d="M637.328,-245.459C657.257,-239.504 680.328,-232.609 701.107,-226.399"/>
<polygon fill="midnightblue" stroke="midnightblue" points="702.206,-229.724 710.785,-223.507 700.202,-223.017 702.206,-229.724"/>
</g>
<!-- Node8&#45;&gt;Node3 -->
<g id="edge30" class="edge"><title>Node8&#45;&gt;Node3</title>
<path fill="none" stroke="midnightblue" d="M162.999,-169.116C176.998,-176.666 196.857,-187.533 214,-197.5 226.746,-204.91 240.765,-213.467 252.243,-220.583"/>
<polygon fill="midnightblue" stroke="midnightblue" points="250.492,-223.616 260.831,-225.931 254.193,-217.674 250.492,-223.616"/>
</g>
<!-- Node9 -->
<g id="node9" class="node"><title>Node9</title>
<g id="a_node9"><a xlink:href="control__node_8cpp.html#af9d4be400cd482065e05d3fe6809d499" target="_top" xlink:title="forward">
<polygon fill="none" stroke="black" points="252.5,-188 252.5,-207 301.5,-207 301.5,-188 252.5,-188"/>
<text text-anchor="middle" x="277" y="-195" font-family="Helvetica,sans-Serif" font-size="10.00">forward</text>
</a>
</g>
</g>
<!-- Node8&#45;&gt;Node9 -->
<g id="edge8" class="edge"><title>Node8&#45;&gt;Node9</title>
<path fill="none" stroke="midnightblue" d="M178.057,-169.089C197.808,-174.818 222.824,-182.075 242.63,-187.82"/>
<polygon fill="midnightblue" stroke="midnightblue" points="241.878,-191.246 252.457,-190.671 243.828,-184.523 241.878,-191.246"/>
</g>
<!-- Node14 -->
<g id="node14" class="node"><title>Node14</title>
<g id="a_node14"><a xlink:href="control__node_8cpp.html#aef1bb144bc6c180c58ad077faa817079" target="_top" xlink:title="stop">
<polygon fill="none" stroke="black" points="259.5,-150 259.5,-169 294.5,-169 294.5,-150 259.5,-150"/>
<text text-anchor="middle" x="277" y="-157" font-family="Helvetica,sans-Serif" font-size="10.00">stop</text>
</a>
</g>
</g>
<!-- Node8&#45;&gt;Node14 -->
<g id="edge14" class="edge"><title>Node8&#45;&gt;Node14</title>
<path fill="none" stroke="midnightblue" d="M179.077,-159.5C200.925,-159.5 228.887,-159.5 249.158,-159.5"/>
<polygon fill="midnightblue" stroke="midnightblue" points="249.261,-163 259.261,-159.5 249.261,-156 249.261,-163"/>
</g>
<!-- Node17 -->
<g id="node17" class="node"><title>Node17</title>
<g id="a_node17"><a xlink:href="control__node_8cpp.html#a92904aa73140a9bcbc31b3f01cbc1b91" target="_top" xlink:title="start">
<polygon fill="none" stroke="black" points="259,-107 259,-126 295,-126 295,-107 259,-107"/>
<text text-anchor="middle" x="277" y="-114" font-family="Helvetica,sans-Serif" font-size="10.00">start</text>
</a>
</g>
</g>
<!-- Node8&#45;&gt;Node17 -->
<g id="edge20" class="edge"><title>Node8&#45;&gt;Node17</title>
<path fill="none" stroke="midnightblue" d="M179.195,-150.123C190.345,-146.924 202.748,-143.212 214,-139.5 225.686,-135.644 238.456,-130.985 249.352,-126.872"/>
<polygon fill="midnightblue" stroke="midnightblue" points="250.654,-130.121 258.749,-123.286 248.158,-123.581 250.654,-130.121"/>
</g>
<!-- Node20 -->
<g id="node20" class="node"><title>Node20</title>
<g id="a_node20"><a xlink:href="control__node_8cpp.html#ae7f1525a6480d4cc745dc300c883f55e" target="_top" xlink:title="generate">
<polygon fill="none" stroke="black" points="250,-19 250,-38 304,-38 304,-19 250,-19"/>
<text text-anchor="middle" x="277" y="-26" font-family="Helvetica,sans-Serif" font-size="10.00">generate</text>
</a>
</g>
</g>
<!-- Node8&#45;&gt;Node20 -->
<g id="edge26" class="edge"><title>Node8&#45;&gt;Node20</title>
<path fill="none" stroke="midnightblue" d="M179.224,-155.791C191.391,-152.981 204.43,-148.07 214,-139.5 245.175,-111.585 226.067,-86.8266 250,-52.5 251.746,-49.9962 253.793,-47.5602 255.96,-45.26"/>
<polygon fill="midnightblue" stroke="midnightblue" points="258.69,-47.493 263.517,-38.0618 253.862,-42.4242 258.69,-47.493"/>
</g>
<!-- Node23 -->
<g id="node23" class="node"><title>Node23</title>
<g id="a_node23"><a xlink:href="control__node_8cpp.html#a7ab31acf3df582231c4eb6741df30232" target="_top" xlink:title="load">
<polygon fill="none" stroke="black" points="259.5,-62 259.5,-81 294.5,-81 294.5,-62 259.5,-62"/>
<text text-anchor="middle" x="277" y="-69" font-family="Helvetica,sans-Serif" font-size="10.00">load</text>
</a>
</g>
</g>
<!-- Node8&#45;&gt;Node23 -->
<g id="edge31" class="edge"><title>Node8&#45;&gt;Node23</title>
<path fill="none" stroke="midnightblue" d="M179.311,-153.703C190.948,-150.691 203.619,-146.185 214,-139.5 234.67,-126.188 233.295,-115.539 250,-97.5 252.673,-94.6136 255.566,-91.6102 258.417,-88.7134"/>
<polygon fill="midnightblue" stroke="midnightblue" points="261.09,-90.9912 265.691,-81.448 256.143,-86.0385 261.09,-90.9912"/>
</g>
<!-- Node10 -->
<g id="node10" class="node"><title>Node10</title>
<g id="a_node10"><a xlink:href="classatwork__commander_1_1Control.html#a1c41197baa292fac512b2d5f9971adf5" target="_top" xlink:title="Command to forward the current state of the RefBox manually. ">
<polygon fill="none" stroke="black" points="340,-196.5 340,-226.5 480,-226.5 480,-196.5 340,-196.5"/>
<text text-anchor="start" x="348" y="-214.5" font-family="Helvetica,sans-Serif" font-size="10.00">atwork_commander::Control</text>
<text text-anchor="middle" x="410" y="-203.5" font-family="Helvetica,sans-Serif" font-size="10.00">::forward</text>
</a>
</g>
</g>
<!-- Node9&#45;&gt;Node10 -->
<g id="edge9" class="edge"><title>Node9&#45;&gt;Node10</title>
<path fill="none" stroke="midnightblue" d="M301.723,-200.035C309.907,-200.91 319.585,-201.944 329.724,-203.028"/>
<polygon fill="midnightblue" stroke="midnightblue" points="329.663,-206.541 339.978,-204.124 330.407,-199.581 329.663,-206.541"/>
</g>
<!-- Node11 -->
<g id="node11" class="node"><title>Node11</title>
<g id="a_node11"><a xlink:href="classatwork__commander_1_1ControlImpl.html#a5628bbe3067a289d3d1dda5f59e9cece" target="_top" xlink:title="atwork_commander::Control\lImpl::forward">
<polygon fill="none" stroke="black" points="516,-196.5 516,-226.5 656,-226.5 656,-196.5 516,-196.5"/>
<text text-anchor="start" x="524" y="-214.5" font-family="Helvetica,sans-Serif" font-size="10.00">atwork_commander::Control</text>
<text text-anchor="middle" x="586" y="-203.5" font-family="Helvetica,sans-Serif" font-size="10.00">Impl::forward</text>
</a>
</g>
</g>
<!-- Node10&#45;&gt;Node11 -->
<g id="edge10" class="edge"><title>Node10&#45;&gt;Node11</title>
<path fill="none" stroke="midnightblue" d="M480.019,-211.5C488.476,-211.5 497.169,-211.5 505.761,-211.5"/>
<polygon fill="midnightblue" stroke="midnightblue" points="505.78,-215 515.779,-211.5 505.779,-208 505.78,-215"/>
</g>
<!-- Node11&#45;&gt;Node6 -->
<g id="edge11" class="edge"><title>Node11&#45;&gt;Node6</title>
<path fill="none" stroke="midnightblue" d="M656.019,-210.31C664.476,-210.164 673.169,-210.014 681.761,-209.866"/>
<polygon fill="midnightblue" stroke="midnightblue" points="681.841,-213.365 691.779,-209.693 681.721,-206.366 681.841,-213.365"/>
</g>
<!-- Node12 -->
<g id="node12" class="node"><title>Node12</title>
<g id="a_node12"><a xlink:href="namespaceatwork__commander__msgs.html#a9ecf5e83b56ed832452324374f4ec311" target="_top" xlink:title="atwork_commander_msgs\l::stateName">
<polygon fill="none" stroke="black" points="696.5,-144.5 696.5,-174.5 827.5,-174.5 827.5,-144.5 696.5,-144.5"/>
<text text-anchor="start" x="704.5" y="-162.5" font-family="Helvetica,sans-Serif" font-size="10.00">atwork_commander_msgs</text>
<text text-anchor="middle" x="762" y="-151.5" font-family="Helvetica,sans-Serif" font-size="10.00">::stateName</text>
</a>
</g>
</g>
<!-- Node11&#45;&gt;Node12 -->
<g id="edge12" class="edge"><title>Node11&#45;&gt;Node12</title>
<path fill="none" stroke="midnightblue" d="M637.328,-196.459C657.257,-190.504 680.328,-183.609 701.107,-177.399"/>
<polygon fill="midnightblue" stroke="midnightblue" points="702.206,-180.724 710.785,-174.507 700.202,-174.017 702.206,-180.724"/>
</g>
<!-- Node13 -->
<g id="node13" class="node"><title>Node13</title>
<g id="a_node13"><a xlink:href="namespaceatwork__commander.html#a144d24cd0805258cbfd6f8cb8795feca" target="_top" xlink:title="atwork_commander::call">
<polygon fill="none" stroke="black" points="700.5,-104 700.5,-123 823.5,-123 823.5,-104 700.5,-104"/>
<text text-anchor="middle" x="762" y="-111" font-family="Helvetica,sans-Serif" font-size="10.00">atwork_commander::call</text>
</a>
</g>
</g>
<!-- Node11&#45;&gt;Node13 -->
<g id="edge13" class="edge"><title>Node11&#45;&gt;Node13</title>
<path fill="none" stroke="midnightblue" d="M641.477,-196.372C646.628,-193.835 651.572,-190.897 656,-187.5 678.592,-170.167 669.071,-151.386 692,-134.5 695.891,-131.634 700.177,-129.155 704.651,-127.012"/>
<polygon fill="midnightblue" stroke="midnightblue" points="706.17,-130.17 714.03,-123.066 703.456,-123.717 706.17,-130.17"/>
</g>
<!-- Node15 -->
<g id="node15" class="node"><title>Node15</title>
<g id="a_node15"><a xlink:href="classatwork__commander_1_1Control.html#a7fff8db983aba8be78b76aa5d49d1747" target="_top" xlink:title="Command to stop the ongoing task of the RefBox. ">
<polygon fill="none" stroke="black" points="340,-147.5 340,-177.5 480,-177.5 480,-147.5 340,-147.5"/>
<text text-anchor="start" x="348" y="-165.5" font-family="Helvetica,sans-Serif" font-size="10.00">atwork_commander::Control</text>
<text text-anchor="middle" x="410" y="-154.5" font-family="Helvetica,sans-Serif" font-size="10.00">::stop</text>
</a>
</g>
</g>
<!-- Node14&#45;&gt;Node15 -->
<g id="edge15" class="edge"><title>Node14&#45;&gt;Node15</title>
<path fill="none" stroke="midnightblue" d="M294.591,-159.88C303.918,-160.094 316.319,-160.378 329.514,-160.68"/>
<polygon fill="midnightblue" stroke="midnightblue" points="329.643,-164.183 339.721,-160.913 329.804,-157.185 329.643,-164.183"/>
</g>
<!-- Node16 -->
<g id="node16" class="node"><title>Node16</title>
<g id="a_node16"><a xlink:href="classatwork__commander_1_1ControlImpl.html#aaf1ece7e47d04a8963468f0b169a400b" target="_top" xlink:title="atwork_commander::Control\lImpl::stop">
<polygon fill="none" stroke="black" points="516,-147.5 516,-177.5 656,-177.5 656,-147.5 516,-147.5"/>
<text text-anchor="start" x="524" y="-165.5" font-family="Helvetica,sans-Serif" font-size="10.00">atwork_commander::Control</text>
<text text-anchor="middle" x="586" y="-154.5" font-family="Helvetica,sans-Serif" font-size="10.00">Impl::stop</text>
</a>
</g>
</g>
<!-- Node15&#45;&gt;Node16 -->
<g id="edge16" class="edge"><title>Node15&#45;&gt;Node16</title>
<path fill="none" stroke="midnightblue" d="M480.019,-162.5C488.476,-162.5 497.169,-162.5 505.761,-162.5"/>
<polygon fill="midnightblue" stroke="midnightblue" points="505.78,-166 515.779,-162.5 505.779,-159 505.78,-166"/>
</g>
<!-- Node16&#45;&gt;Node6 -->
<g id="edge17" class="edge"><title>Node16&#45;&gt;Node6</title>
<path fill="none" stroke="midnightblue" d="M643.974,-177.562C660.13,-181.833 677.861,-186.521 694.526,-190.926"/>
<polygon fill="midnightblue" stroke="midnightblue" points="693.633,-194.31 704.195,-193.483 695.422,-187.543 693.633,-194.31"/>
</g>
<!-- Node16&#45;&gt;Node12 -->
<g id="edge18" class="edge"><title>Node16&#45;&gt;Node12</title>
<path fill="none" stroke="midnightblue" d="M656.019,-161.31C665.878,-161.14 676.059,-160.964 686.025,-160.793"/>
<polygon fill="midnightblue" stroke="midnightblue" points="686.373,-164.287 696.311,-160.615 686.252,-157.288 686.373,-164.287"/>
</g>
<!-- Node16&#45;&gt;Node13 -->
<g id="edge19" class="edge"><title>Node16&#45;&gt;Node13</title>
<path fill="none" stroke="midnightblue" d="M640.626,-147.399C665.242,-140.466 694.059,-132.351 717.326,-125.799"/>
<polygon fill="midnightblue" stroke="midnightblue" points="718.582,-129.082 727.258,-123.002 716.684,-122.344 718.582,-129.082"/>
</g>
<!-- Node18 -->
<g id="node18" class="node"><title>Node18</title>
<g id="a_node18"><a xlink:href="classatwork__commander_1_1Control.html#a03d7ab8dde7ac8c41b29a9480b013ed6" target="_top" xlink:title="Command to start the current Task of the RefBox. ">
<polygon fill="none" stroke="black" points="340,-98.5 340,-128.5 480,-128.5 480,-98.5 340,-98.5"/>
<text text-anchor="start" x="348" y="-116.5" font-family="Helvetica,sans-Serif" font-size="10.00">atwork_commander::Control</text>
<text text-anchor="middle" x="410" y="-105.5" font-family="Helvetica,sans-Serif" font-size="10.00">::start</text>
</a>
</g>
</g>
<!-- Node17&#45;&gt;Node18 -->
<g id="edge21" class="edge"><title>Node17&#45;&gt;Node18</title>
<path fill="none" stroke="midnightblue" d="M295.126,-116.108C304.466,-115.894 316.771,-115.612 329.835,-115.313"/>
<polygon fill="midnightblue" stroke="midnightblue" points="330.019,-118.81 339.937,-115.082 329.859,-111.812 330.019,-118.81"/>
</g>
<!-- Node19 -->
<g id="node19" class="node"><title>Node19</title>
<g id="a_node19"><a xlink:href="classatwork__commander_1_1ControlImpl.html#a61e7adc72e3d1ae5f8ba7099e7ea1a58" target="_top" xlink:title="atwork_commander::Control\lImpl::start">
<polygon fill="none" stroke="black" points="516,-98.5 516,-128.5 656,-128.5 656,-98.5 516,-98.5"/>
<text text-anchor="start" x="524" y="-116.5" font-family="Helvetica,sans-Serif" font-size="10.00">atwork_commander::Control</text>
<text text-anchor="middle" x="586" y="-105.5" font-family="Helvetica,sans-Serif" font-size="10.00">Impl::start</text>
</a>
</g>
</g>
<!-- Node18&#45;&gt;Node19 -->
<g id="edge22" class="edge"><title>Node18&#45;&gt;Node19</title>
<path fill="none" stroke="midnightblue" d="M480.019,-113.5C488.476,-113.5 497.169,-113.5 505.761,-113.5"/>
<polygon fill="midnightblue" stroke="midnightblue" points="505.78,-117 515.779,-113.5 505.779,-110 505.78,-117"/>
</g>
<!-- Node19&#45;&gt;Node6 -->
<g id="edge23" class="edge"><title>Node19&#45;&gt;Node6</title>
<path fill="none" stroke="midnightblue" d="M640.572,-128.554C646.015,-131.117 651.272,-134.082 656,-137.5 677.324,-152.916 670.676,-169.084 692,-184.5 694.069,-185.995 696.238,-187.404 698.481,-188.73"/>
<polygon fill="midnightblue" stroke="midnightblue" points="696.949,-191.88 707.428,-193.446 700.214,-185.687 696.949,-191.88"/>
</g>
<!-- Node19&#45;&gt;Node12 -->
<g id="edge24" class="edge"><title>Node19&#45;&gt;Node12</title>
<path fill="none" stroke="midnightblue" d="M643.974,-128.562C660.13,-132.833 677.861,-137.521 694.526,-141.926"/>
<polygon fill="midnightblue" stroke="midnightblue" points="693.633,-145.31 704.195,-144.483 695.422,-138.543 693.633,-145.31"/>
</g>
<!-- Node19&#45;&gt;Node13 -->
<g id="edge25" class="edge"><title>Node19&#45;&gt;Node13</title>
<path fill="none" stroke="midnightblue" d="M656.019,-113.5C667.207,-113.5 678.809,-113.5 690.041,-113.5"/>
<polygon fill="midnightblue" stroke="midnightblue" points="690.23,-117 700.23,-113.5 690.23,-110 690.23,-117"/>
</g>
<!-- Node21 -->
<g id="node21" class="node"><title>Node21</title>
<g id="a_node21"><a xlink:href="classatwork__commander_1_1Control.html#a0be93e60d9410ceaad5af2bc7a62c771" target="_top" xlink:title="Command to generate a new Task on the RefBox. ">
<polygon fill="none" stroke="black" points="340,-0.5 340,-30.5 480,-30.5 480,-0.5 340,-0.5"/>
<text text-anchor="start" x="348" y="-18.5" font-family="Helvetica,sans-Serif" font-size="10.00">atwork_commander::Control</text>
<text text-anchor="middle" x="410" y="-7.5" font-family="Helvetica,sans-Serif" font-size="10.00">::generate</text>
</a>
</g>
</g>
<!-- Node20&#45;&gt;Node21 -->
<g id="edge27" class="edge"><title>Node20&#45;&gt;Node21</title>
<path fill="none" stroke="midnightblue" d="M304.195,-25.9005C311.872,-25.1387 320.691,-24.2635 329.885,-23.3511"/>
<polygon fill="midnightblue" stroke="midnightblue" points="330.367,-26.8206 339.972,-22.3501 329.676,-19.8548 330.367,-26.8206"/>
</g>
<!-- Node22 -->
<g id="node22" class="node"><title>Node22</title>
<g id="a_node22"><a xlink:href="classatwork__commander_1_1ControlImpl.html#aa442ba265143eca7295803670ef72f3d" target="_top" xlink:title="atwork_commander::Control\lImpl::generate">
<polygon fill="none" stroke="black" points="516,-0.5 516,-30.5 656,-30.5 656,-0.5 516,-0.5"/>
<text text-anchor="start" x="524" y="-18.5" font-family="Helvetica,sans-Serif" font-size="10.00">atwork_commander::Control</text>
<text text-anchor="middle" x="586" y="-7.5" font-family="Helvetica,sans-Serif" font-size="10.00">Impl::generate</text>
</a>
</g>
</g>
<!-- Node21&#45;&gt;Node22 -->
<g id="edge28" class="edge"><title>Node21&#45;&gt;Node22</title>
<path fill="none" stroke="midnightblue" d="M480.019,-15.5C488.476,-15.5 497.169,-15.5 505.761,-15.5"/>
<polygon fill="midnightblue" stroke="midnightblue" points="505.78,-19.0001 515.779,-15.5 505.779,-12.0001 505.78,-19.0001"/>
</g>
<!-- Node22&#45;&gt;Node13 -->
<g id="edge29" class="edge"><title>Node22&#45;&gt;Node13</title>
<path fill="none" stroke="midnightblue" d="M635.97,-30.6172C642.826,-33.2828 649.682,-36.256 656,-39.5 688.115,-55.9885 721.598,-81.2125 741.879,-97.5321"/>
<polygon fill="midnightblue" stroke="midnightblue" points="739.759,-100.32 749.72,-103.93 744.184,-94.8958 739.759,-100.32"/>
</g>
<!-- Node24 -->
<g id="node24" class="node"><title>Node24</title>
<g id="a_node24"><a xlink:href="classatwork__commander_1_1Control.html#a37613a7516afdbb671a79cfbe5de22fc" target="_top" xlink:title="Command to load a locally stored task in the RefBox. ">
<polygon fill="none" stroke="black" points="340,-49.5 340,-79.5 480,-79.5 480,-49.5 340,-49.5"/>
<text text-anchor="start" x="348" y="-67.5" font-family="Helvetica,sans-Serif" font-size="10.00">atwork_commander::Control</text>
<text text-anchor="middle" x="410" y="-56.5" font-family="Helvetica,sans-Serif" font-size="10.00">::load</text>
</a>
</g>
</g>
<!-- Node23&#45;&gt;Node24 -->
<g id="edge32" class="edge"><title>Node23&#45;&gt;Node24</title>
<path fill="none" stroke="midnightblue" d="M294.591,-70.6134C303.918,-70.1151 316.319,-69.4524 329.514,-68.7474"/>
<polygon fill="midnightblue" stroke="midnightblue" points="329.922,-72.2306 339.721,-68.2019 329.548,-65.2406 329.922,-72.2306"/>
</g>
<!-- Node25 -->
<g id="node25" class="node"><title>Node25</title>
<g id="a_node25"><a xlink:href="classatwork__commander_1_1ControlImpl.html#ab5b74ad5c6560c7d7e6111a6e85cbbfe" target="_top" xlink:title="atwork_commander::Control\lImpl::load">
<polygon fill="none" stroke="black" points="516,-49.5 516,-79.5 656,-79.5 656,-49.5 516,-49.5"/>
<text text-anchor="start" x="524" y="-67.5" font-family="Helvetica,sans-Serif" font-size="10.00">atwork_commander::Control</text>
<text text-anchor="middle" x="586" y="-56.5" font-family="Helvetica,sans-Serif" font-size="10.00">Impl::load</text>
</a>
</g>
</g>
<!-- Node24&#45;&gt;Node25 -->
<g id="edge33" class="edge"><title>Node24&#45;&gt;Node25</title>
<path fill="none" stroke="midnightblue" d="M480.019,-64.5C488.476,-64.5 497.169,-64.5 505.761,-64.5"/>
<polygon fill="midnightblue" stroke="midnightblue" points="505.78,-68.0001 515.779,-64.5 505.779,-61.0001 505.78,-68.0001"/>
</g>
<!-- Node25&#45;&gt;Node6 -->
<g id="edge34" class="edge"><title>Node25&#45;&gt;Node6</title>
<path fill="none" stroke="midnightblue" d="M644.054,-79.5504C648.398,-82.0851 652.461,-85.0446 656,-88.5 688.606,-120.332 659.394,-152.668 692,-184.5 693.106,-185.58 694.263,-186.611 695.464,-187.596"/>
<polygon fill="midnightblue" stroke="midnightblue" points="693.727,-190.65 703.946,-193.45 697.703,-184.889 693.727,-190.65"/>
</g>
<!-- Node25&#45;&gt;Node13 -->
<g id="edge35" class="edge"><title>Node25&#45;&gt;Node13</title>
<path fill="none" stroke="midnightblue" d="M640.626,-79.6014C665.242,-86.5335 694.059,-94.6488 717.326,-101.201"/>
<polygon fill="midnightblue" stroke="midnightblue" points="716.684,-104.656 727.258,-103.998 718.582,-97.9184 716.684,-104.656"/>
</g>
</g>
</svg>
        <g id="navigator" transform="translate(0 0)" fill="#404254">
                <rect fill="#f2f5e9" fill-opacity="0.5" stroke="#606060" stroke-width=".5" x="0" y="0" width="60" height="60"/>
                <use id="zoomplus" xlink:href="#zoomPlus" x="17" y="9" onmousedown="handleZoom(evt,'in')"/>
                <use id="zoomminus" xlink:href="#zoomMin" x="42" y="9" onmousedown="handleZoom(evt,'out')"/>
                <use id="reset" xlink:href="#resetDef" x="30" y="36" onmousedown="handleReset()"/>
                <g id="arrowUp" xlink:href="#dirArrow" transform="translate(30 24)" onmousedown="handlePan(0,-1)">
                  <use xlink:href="#rim" fill="#404040">
                        <set attributeName="fill" to="#808080" begin="arrowUp.mouseover" end="arrowUp.mouseout"/>
                  </use>
                  <path fill="none" stroke="white" stroke-width="1.5" d="M0,-3.0v7 M-2.5,-0.5L0,-3.0L2.5,-0.5"/>
                </g>
                <g id="arrowRight" xlink:href="#dirArrow" transform="rotate(90) translate(36 -43)" onmousedown="handlePan(1,0)">
                  <use xlink:href="#rim" fill="#404040">
                        <set attributeName="fill" to="#808080" begin="arrowRight.mouseover" end="arrowRight.mouseout"/>
                  </use>
                  <path fill="none" stroke="white" stroke-width="1.5" d="M0,-3.0v7 M-2.5,-0.5L0,-3.0L2.5,-0.5"/>
                </g>
                <g id="arrowDown" xlink:href="#dirArrow" transform="rotate(180) translate(-30 -48)" onmousedown="handlePan(0,1)">
                  <use xlink:href="#rim" fill="#404040">
                        <set attributeName="fill" to="#808080" begin="arrowDown.mouseover" end="arrowDown.mouseout"/>
                  </use>
                  <path fill="none" stroke="white" stroke-width="1.5" d="M0,-3.0v7 M-2.5,-0.5L0,-3.0L2.5,-0.5"/>
                </g>
                <g id="arrowLeft" xlink:href="#dirArrow" transform="rotate(270) translate(-36 17)" onmousedown="handlePan(-1,0)">
                  <use xlink:href="#rim" fill="#404040">
                        <set attributeName="fill" to="#808080" begin="arrowLeft.mouseover" end="arrowLeft.mouseout"/>
                  </use>
                  <path fill="none" stroke="white" stroke-width="1.5" d="M0,-3.0v7 M-2.5,-0.5L0,-3.0L2.5,-0.5"/>
                </g>
        </g>
        <svg viewBox="0 0 15 15" width="100%" height="30px" preserveAspectRatio="xMaxYMin meet">
         <g id="arrow_out" transform="scale(0.3 0.3)">
          <a xlink:href="control__node_8cpp_a3c04138a5bfe5d72780bb7e82a18e627_cgraph_org.svg" target="_base">
           <rect id="button" ry="5" rx="5" y="6" x="6" height="38" width="38"
                fill="#f2f5e9" fill-opacity="0.5" stroke="#606060" stroke-width="1.0"/>
           <path id="arrow"
             d="M 11.500037,31.436501 C 11.940474,20.09759 22.043105,11.32322 32.158766,21.979434 L 37.068811,17.246167 C 37.068811,17.246167 37.088388,32 37.088388,32 L 22.160133,31.978069 C 22.160133,31.978069 26.997745,27.140456 26.997745,27.140456 C 18.528582,18.264221 13.291696,25.230495 11.500037,31.436501 z"
             style="fill:#404040;"/>
          </a>
         </g>
        </svg>
</svg>
