<?xml version="1.0" encoding="UTF-8" standalone="no"?>
<!DOCTYPE svg PUBLIC "-//W3C//DTD SVG 1.1//EN"
 "http://www.w3.org/Graphics/SVG/1.1/DTD/svg11.dtd">
<!-- Generated by graphviz version 2.38.0 (20140413.2041)
 -->
<!-- Title: /home/travis/build/steup/atwork&#45;commander/atwork_commander_core/src/control_node.cpp Pages: 1 -->
<!--zoomable 184 -->
<svg id="main" version="1.1" xmlns="http://www.w3.org/2000/svg" xmlns:xlink="http://www.w3.org/1999/xlink" xml:space="preserve" onload="init(evt)">
<style type="text/css"><![CDATA[
.edge:hover path { stroke: red; }
.edge:hover polygon { stroke: red; fill: red; }
]]></style>
<script type="text/javascript"><![CDATA[
var edges = document.getElementsByTagName('g');
if (edges && edges.length) {
  for (var i=0;i<edges.length;i++) {
    if (edges[i].id.substr(0,4)=='edge') {
      edges[i].setAttribute('class','edge');
    }
  }
}
]]></script>
        <defs>
                <circle id="rim" cx="0" cy="0" r="7"/>
                <circle id="rim2" cx="0" cy="0" r="3.5"/>
                <g id="zoomPlus">
                        <use xlink:href="#rim" fill="#404040">
                                <set attributeName="fill" to="#808080" begin="zoomplus.mouseover" end="zoomplus.mouseout"/>
                        </use>
                        <path d="M-4,0h8M0,-4v8" fill="none" stroke="white" stroke-width="1.5" pointer-events="none"/>
                </g>
                <g id="zoomMin">
                        <use xlink:href="#rim" fill="#404040">
                                <set attributeName="fill" to="#808080" begin="zoomminus.mouseover" end="zoomminus.mouseout"/>
                        </use>
                        <path d="M-4,0h8" fill="none" stroke="white" stroke-width="1.5" pointer-events="none"/>
                </g>
                <g id="dirArrow">
                        <path fill="none" stroke="white" stroke-width="1.5" d="M0,-3.0v7 M-2.5,-0.5L0,-3.0L2.5,-0.5"/>
                </g>
               <g id="resetDef">
                       <use xlink:href="#rim2" fill="#404040">
                               <set attributeName="fill" to="#808080" begin="reset.mouseover" end="reset.mouseout"/>
                       </use>
               </g>
        </defs>

<script type="text/javascript">
var viewWidth = 1075;
var viewHeight = 184;
var sectionId = 'dynsection-0';
</script>
<script xlink:href="svgpan.js"/>
<svg id="graph" class="graph">
<g id="viewport">
<title>/home/travis/build/steup/atwork&#45;commander/atwork_commander_core/src/control_node.cpp</title>
<!-- Node1 -->
<g id="node1" class="node"><title>Node1</title>
<polygon fill="#bfbfbf" stroke="black" points="663.5,-123.5 663.5,-175.5 793.5,-175.5 793.5,-123.5 663.5,-123.5"/>
<text text-anchor="start" x="671.5" y="-163.5" font-family="Helvetica,sans-Serif" font-size="10.00">/home/travis/build</text>
<text text-anchor="start" x="671.5" y="-152.5" font-family="Helvetica,sans-Serif" font-size="10.00">/steup/atwork&#45;commander</text>
<text text-anchor="start" x="671.5" y="-141.5" font-family="Helvetica,sans-Serif" font-size="10.00">/atwork_commander_core</text>
<text text-anchor="middle" x="728.5" y="-130.5" font-family="Helvetica,sans-Serif" font-size="10.00">/src/control_node.cpp</text>
</g>
<!-- Node2 -->
<g id="node2" class="node"><title>Node2</title>
<g id="a_node2"><a xlink:href="Control_8hpp.html" target="_top" xlink:title="atwork_commander/Control.hpp">
<polygon fill="none" stroke="black" points="285,-67.5 285,-86.5 440,-86.5 440,-67.5 285,-67.5"/>
<text text-anchor="middle" x="362.5" y="-74.5" font-family="Helvetica,sans-Serif" font-size="10.00">atwork_commander/Control.hpp</text>
</a>
</g>
</g>
<!-- Node1&#45;&gt;Node2 -->
<g id="edge1" class="edge"><title>Node1&#45;&gt;Node2</title>
<path fill="none" stroke="midnightblue" d="M663.488,-135.977C593.293,-122.456 482.722,-101.158 416.939,-88.4863"/>
<polygon fill="midnightblue" stroke="midnightblue" points="417.261,-84.9839 406.779,-86.5292 415.937,-91.8575 417.261,-84.9839"/>
</g>
<!-- Node6 -->
<g id="node6" class="node"><title>Node6</title>
<polygon fill="none" stroke="#bfbfbf" points="445,-6 445,-25 486,-25 486,-6 445,-6"/>
<text text-anchor="middle" x="465.5" y="-13" font-family="Helvetica,sans-Serif" font-size="10.00">string</text>
</g>
<!-- Node1&#45;&gt;Node6 -->
<g id="edge9" class="edge"><title>Node1&#45;&gt;Node6</title>
<path fill="none" stroke="midnightblue" d="M663.117,-141.394C617.945,-133.844 558.338,-118.404 514.5,-87 495.813,-73.6133 481.858,-50.7704 473.716,-34.7227"/>
<polygon fill="midnightblue" stroke="midnightblue" points="476.691,-32.8316 469.213,-25.3259 470.378,-35.8565 476.691,-32.8316"/>
</g>
<!-- Node7 -->
<g id="node7" class="node"><title>Node7</title>
<polygon fill="none" stroke="#bfbfbf" points="504.5,-6 504.5,-25 548.5,-25 548.5,-6 504.5,-6"/>
<text text-anchor="middle" x="526.5" y="-13" font-family="Helvetica,sans-Serif" font-size="10.00">vector</text>
</g>
<!-- Node1&#45;&gt;Node7 -->
<g id="edge10" class="edge"><title>Node1&#45;&gt;Node7</title>
<path fill="none" stroke="midnightblue" d="M663.265,-137.277C610.741,-126.755 543.031,-109.313 526.5,-87 515.595,-72.2803 517.441,-50.6741 520.856,-35.2653"/>
<polygon fill="midnightblue" stroke="midnightblue" points="524.311,-35.8883 523.46,-25.3277 517.54,-34.1139 524.311,-35.8883"/>
</g>
<!-- Node8 -->
<g id="node8" class="node"><title>Node8</title>
<polygon fill="none" stroke="#bfbfbf" points="535,-67.5 535,-86.5 590,-86.5 590,-67.5 535,-67.5"/>
<text text-anchor="middle" x="562.5" y="-74.5" font-family="Helvetica,sans-Serif" font-size="10.00">ros/ros.h</text>
</g>
<!-- Node1&#45;&gt;Node8 -->
<g id="edge7" class="edge"><title>Node1&#45;&gt;Node8</title>
<path fill="none" stroke="midnightblue" d="M669.507,-123.446C643.162,-112.257 613.286,-99.5689 591.811,-90.4483"/>
<polygon fill="midnightblue" stroke="midnightblue" points="593.15,-87.2146 582.578,-86.527 590.414,-93.6576 593.15,-87.2146"/>
</g>
<!-- Node9 -->
<g id="node9" class="node"><title>Node9</title>
<polygon fill="none" stroke="#bfbfbf" points="608.5,-67.5 608.5,-86.5 742.5,-86.5 742.5,-67.5 608.5,-67.5"/>
<text text-anchor="middle" x="675.5" y="-74.5" font-family="Helvetica,sans-Serif" font-size="10.00">boost/program_options.hpp</text>
</g>
<!-- Node1&#45;&gt;Node9 -->
<g id="edge8" class="edge"><title>Node1&#45;&gt;Node9</title>
<path fill="none" stroke="midnightblue" d="M709.665,-123.446C702.51,-113.929 694.54,-103.327 688.098,-94.758"/>
<polygon fill="midnightblue" stroke="midnightblue" points="690.844,-92.5855 682.037,-86.6955 685.249,-96.7919 690.844,-92.5855"/>
</g>
<!-- Node10 -->
<g id="node10" class="node"><title>Node10</title>
<polygon fill="none" stroke="#bfbfbf" points="761,-67.5 761,-86.5 802,-86.5 802,-67.5 761,-67.5"/>
<text text-anchor="middle" x="781.5" y="-74.5" font-family="Helvetica,sans-Serif" font-size="10.00">regex</text>
</g>
<!-- Node1&#45;&gt;Node10 -->
<g id="edge11" class="edge"><title>Node1&#45;&gt;Node10</title>
<path fill="none" stroke="midnightblue" d="M747.335,-123.446C754.49,-113.929 762.46,-103.327 768.902,-94.758"/>
<polygon fill="midnightblue" stroke="midnightblue" points="771.751,-96.7919 774.963,-86.6955 766.156,-92.5855 771.751,-96.7919"/>
</g>
<!-- Node11 -->
<g id="node11" class="node"><title>Node11</title>
<polygon fill="none" stroke="#bfbfbf" points="820.5,-67.5 820.5,-86.5 870.5,-86.5 870.5,-67.5 820.5,-67.5"/>
<text text-anchor="middle" x="845.5" y="-74.5" font-family="Helvetica,sans-Serif" font-size="10.00">fstream</text>
</g>
<!-- Node1&#45;&gt;Node11 -->
<g id="edge12" class="edge"><title>Node1&#45;&gt;Node11</title>
<path fill="none" stroke="midnightblue" d="M770.079,-123.446C787.811,-112.761 807.813,-100.709 822.76,-91.7021"/>
<polygon fill="midnightblue" stroke="midnightblue" points="824.59,-94.686 831.349,-86.527 820.977,-88.6903 824.59,-94.686"/>
</g>
<!-- Node12 -->
<g id="node12" class="node"><title>Node12</title>
<polygon fill="none" stroke="#bfbfbf" points="888.5,-67.5 888.5,-86.5 934.5,-86.5 934.5,-67.5 888.5,-67.5"/>
<text text-anchor="middle" x="911.5" y="-74.5" font-family="Helvetica,sans-Serif" font-size="10.00">chrono</text>
</g>
<!-- Node1&#45;&gt;Node12 -->
<g id="edge13" class="edge"><title>Node1&#45;&gt;Node12</title>
<path fill="none" stroke="midnightblue" d="M793.534,-123.446C822.839,-112.156 856.106,-99.3402 879.825,-90.2027"/>
<polygon fill="midnightblue" stroke="midnightblue" points="881.293,-93.388 889.366,-86.527 878.776,-86.8559 881.293,-93.388"/>
</g>
<!-- Node13 -->
<g id="node13" class="node"><title>Node13</title>
<polygon fill="none" stroke="#bfbfbf" points="952.5,-67.5 952.5,-86.5 996.5,-86.5 996.5,-67.5 952.5,-67.5"/>
<text text-anchor="middle" x="974.5" y="-74.5" font-family="Helvetica,sans-Serif" font-size="10.00">thread</text>
</g>
<!-- Node1&#45;&gt;Node13 -->
<g id="edge14" class="edge"><title>Node1&#45;&gt;Node13</title>
<path fill="none" stroke="midnightblue" d="M793.912,-129.862C834.194,-118.367 887.154,-103.224 942.804,-87.1929"/>
<polygon fill="midnightblue" stroke="midnightblue" points="943.848,-90.5347 952.488,-84.4023 941.909,-83.8084 943.848,-90.5347"/>
</g>
<!-- Node14 -->
<g id="node14" class="node"><title>Node14</title>
<polygon fill="none" stroke="#bfbfbf" points="1014.5,-67.5 1014.5,-86.5 1066.5,-86.5 1066.5,-67.5 1014.5,-67.5"/>
<text text-anchor="middle" x="1040.5" y="-74.5" font-family="Helvetica,sans-Serif" font-size="10.00">memory</text>
</g>
<!-- Node1&#45;&gt;Node14 -->
<g id="edge15" class="edge"><title>Node1&#45;&gt;Node14</title>
<path fill="none" stroke="midnightblue" d="M793.564,-134.693C847.481,-123.105 926.368,-105.815 1004.17,-87.2627"/>
<polygon fill="midnightblue" stroke="midnightblue" points="1005.24,-90.6068 1014.15,-84.8756 1003.61,-83.799 1005.24,-90.6068"/>
</g>
<!-- Node3 -->
<g id="node3" class="node"><title>Node3</title>
<polygon fill="none" stroke="#bfbfbf" points="0,-0.5 0,-30.5 131,-30.5 131,-0.5 0,-0.5"/>
<text text-anchor="start" x="8" y="-18.5" font-family="Helvetica,sans-Serif" font-size="10.00">atwork_commander_msgs</text>
<text text-anchor="middle" x="65.5" y="-7.5" font-family="Helvetica,sans-Serif" font-size="10.00">/RefboxState.h</text>
</g>
<!-- Node2&#45;&gt;Node3 -->
<g id="edge2" class="edge"><title>Node2&#45;&gt;Node3</title>
<path fill="none" stroke="midnightblue" d="M319.947,-67.4751C273.419,-58.1538 197.936,-43.0318 141.244,-31.6742"/>
<polygon fill="midnightblue" stroke="midnightblue" points="141.738,-28.2038 131.246,-29.6712 140.363,-35.0675 141.738,-28.2038"/>
</g>
<!-- Node4 -->
<g id="node4" class="node"><title>Node4</title>
<polygon fill="none" stroke="#bfbfbf" points="149,-0.5 149,-30.5 280,-30.5 280,-0.5 149,-0.5"/>
<text text-anchor="start" x="157" y="-18.5" font-family="Helvetica,sans-Serif" font-size="10.00">atwork_commander_msgs</text>
<text text-anchor="middle" x="214.5" y="-7.5" font-family="Helvetica,sans-Serif" font-size="10.00">/Task.h</text>
</g>
<!-- Node2&#45;&gt;Node4 -->
<g id="edge3" class="edge"><title>Node2&#45;&gt;Node4</title>
<path fill="none" stroke="midnightblue" d="M341.295,-67.4751C319.846,-58.8518 286.048,-45.2641 258.739,-34.2852"/>
<polygon fill="midnightblue" stroke="midnightblue" points="259.965,-31.0058 249.381,-30.523 257.353,-37.5005 259.965,-31.0058"/>
</g>
<!-- Node5 -->
<g id="node5" class="node"><title>Node5</title>
<polygon fill="none" stroke="#bfbfbf" points="298,-6 298,-25 427,-25 427,-6 298,-6"/>
<text text-anchor="middle" x="362.5" y="-13" font-family="Helvetica,sans-Serif" font-size="10.00">boost/filesystem/path.hpp</text>
</g>
<!-- Node2&#45;&gt;Node5 -->
<g id="edge4" class="edge"><title>Node2&#45;&gt;Node5</title>
<path fill="none" stroke="midnightblue" d="M362.5,-67.4751C362.5,-59.0803 362.5,-45.9806 362.5,-35.1631"/>
<polygon fill="midnightblue" stroke="midnightblue" points="366,-35.0091 362.5,-25.0091 359,-35.0091 366,-35.0091"/>
</g>
<!-- Node2&#45;&gt;Node6 -->
<g id="edge5" class="edge"><title>Node2&#45;&gt;Node6</title>
<path fill="none" stroke="midnightblue" d="M377.257,-67.4751C394.161,-57.7106 422.083,-41.5807 441.99,-30.0808"/>
<polygon fill="midnightblue" stroke="midnightblue" points="443.862,-33.0419 450.77,-25.0091 440.36,-26.9805 443.862,-33.0419"/>
</g>
<!-- Node2&#45;&gt;Node7 -->
<g id="edge6" class="edge"><title>Node2&#45;&gt;Node7</title>
<path fill="none" stroke="midnightblue" d="M390.085,-67.4566C416.987,-58.9236 458.932,-45.0828 494.5,-31 495.918,-30.4387 497.364,-29.8487 498.819,-29.241"/>
<polygon fill="midnightblue" stroke="midnightblue" points="500.583,-32.2904 508.355,-25.0899 497.789,-25.8722 500.583,-32.2904"/>
</g>
</g>
</svg>
        <g id="navigator" transform="translate(0 0)" fill="#404254">
                <rect fill="#f2f5e9" fill-opacity="0.5" stroke="#606060" stroke-width=".5" x="0" y="0" width="60" height="60"/>
                <use id="zoomplus" xlink:href="#zoomPlus" x="17" y="9" onmousedown="handleZoom(evt,'in')"/>
                <use id="zoomminus" xlink:href="#zoomMin" x="42" y="9" onmousedown="handleZoom(evt,'out')"/>
                <use id="reset" xlink:href="#resetDef" x="30" y="36" onmousedown="handleReset()"/>
                <g id="arrowUp" xlink:href="#dirArrow" transform="translate(30 24)" onmousedown="handlePan(0,-1)">
                  <use xlink:href="#rim" fill="#404040">
                        <set attributeName="fill" to="#808080" begin="arrowUp.mouseover" end="arrowUp.mouseout"/>
                  </use>
                  <path fill="none" stroke="white" stroke-width="1.5" d="M0,-3.0v7 M-2.5,-0.5L0,-3.0L2.5,-0.5"/>
                </g>
                <g id="arrowRight" xlink:href="#dirArrow" transform="rotate(90) translate(36 -43)" onmousedown="handlePan(1,0)">
                  <use xlink:href="#rim" fill="#404040">
                        <set attributeName="fill" to="#808080" begin="arrowRight.mouseover" end="arrowRight.mouseout"/>
                  </use>
                  <path fill="none" stroke="white" stroke-width="1.5" d="M0,-3.0v7 M-2.5,-0.5L0,-3.0L2.5,-0.5"/>
                </g>
                <g id="arrowDown" xlink:href="#dirArrow" transform="rotate(180) translate(-30 -48)" onmousedown="handlePan(0,1)">
                  <use xlink:href="#rim" fill="#404040">
                        <set attributeName="fill" to="#808080" begin="arrowDown.mouseover" end="arrowDown.mouseout"/>
                  </use>
                  <path fill="none" stroke="white" stroke-width="1.5" d="M0,-3.0v7 M-2.5,-0.5L0,-3.0L2.5,-0.5"/>
                </g>
                <g id="arrowLeft" xlink:href="#dirArrow" transform="rotate(270) translate(-36 17)" onmousedown="handlePan(-1,0)">
                  <use xlink:href="#rim" fill="#404040">
                        <set attributeName="fill" to="#808080" begin="arrowLeft.mouseover" end="arrowLeft.mouseout"/>
                  </use>
                  <path fill="none" stroke="white" stroke-width="1.5" d="M0,-3.0v7 M-2.5,-0.5L0,-3.0L2.5,-0.5"/>
                </g>
        </g>
        <svg viewBox="0 0 15 15" width="100%" height="30px" preserveAspectRatio="xMaxYMin meet">
         <g id="arrow_out" transform="scale(0.3 0.3)">
          <a xlink:href="control__node_8cpp__incl_org.svg" target="_base">
           <rect id="button" ry="5" rx="5" y="6" x="6" height="38" width="38"
                fill="#f2f5e9" fill-opacity="0.5" stroke="#606060" stroke-width="1.0"/>
           <path id="arrow"
             d="M 11.500037,31.436501 C 11.940474,20.09759 22.043105,11.32322 32.158766,21.979434 L 37.068811,17.246167 C 37.068811,17.246167 37.088388,32 37.088388,32 L 22.160133,31.978069 C 22.160133,31.978069 26.997745,27.140456 26.997745,27.140456 C 18.528582,18.264221 13.291696,25.230495 11.500037,31.436501 z"
             style="fill:#404040;"/>
          </a>
         </g>
        </svg>
</svg>
