<?xml version="1.0" encoding="UTF-8" standalone="no"?>
<!DOCTYPE svg PUBLIC "-//W3C//DTD SVG 1.1//EN"
 "http://www.w3.org/Graphics/SVG/1.1/DTD/svg11.dtd">
<!-- Generated by graphviz version 2.38.0 (20140413.2041)
 -->
<!-- Title: stateUpdate Pages: 1 -->
<!--zoomable 284 -->
<svg id="main" version="1.1" xmlns="http://www.w3.org/2000/svg" xmlns:xlink="http://www.w3.org/1999/xlink" xml:space="preserve" onload="init(evt)">
<style type="text/css"><![CDATA[
.edge:hover path { stroke: red; }
.edge:hover polygon { stroke: red; fill: red; }
]]></style>
<script type="text/javascript"><![CDATA[
var edges = document.getElementsByTagName('g');
if (edges && edges.length) {
  for (var i=0;i<edges.length;i++) {
    if (edges[i].id.substr(0,4)=='edge') {
      edges[i].setAttribute('class','edge');
    }
  }
}
]]></script>
        <defs>
                <circle id="rim" cx="0" cy="0" r="7"/>
                <circle id="rim2" cx="0" cy="0" r="3.5"/>
                <g id="zoomPlus">
                        <use xlink:href="#rim" fill="#404040">
                                <set attributeName="fill" to="#808080" begin="zoomplus.mouseover" end="zoomplus.mouseout"/>
                        </use>
                        <path d="M-4,0h8M0,-4v8" fill="none" stroke="white" stroke-width="1.5" pointer-events="none"/>
                </g>
                <g id="zoomMin">
                        <use xlink:href="#rim" fill="#404040">
                                <set attributeName="fill" to="#808080" begin="zoomminus.mouseover" end="zoomminus.mouseout"/>
                        </use>
                        <path d="M-4,0h8" fill="none" stroke="white" stroke-width="1.5" pointer-events="none"/>
                </g>
                <g id="dirArrow">
                        <path fill="none" stroke="white" stroke-width="1.5" d="M0,-3.0v7 M-2.5,-0.5L0,-3.0L2.5,-0.5"/>
                </g>
               <g id="resetDef">
                       <use xlink:href="#rim2" fill="#404040">
                               <set attributeName="fill" to="#808080" begin="reset.mouseover" end="reset.mouseout"/>
                       </use>
               </g>
        </defs>

<script type="text/javascript">
var viewWidth = 696;
var viewHeight = 284;
var sectionId = 'dynsection-12';
</script>
<script xlink:href="svgpan.js"/>
<svg id="graph" class="graph">
<g id="viewport">
<title>stateUpdate</title>
<!-- Node1 -->
<g id="node1" class="node"><title>Node1</title>
<polygon fill="#bfbfbf" stroke="black" points="0,-127 0,-146 70,-146 70,-127 0,-127"/>
<text text-anchor="middle" x="35" y="-134" font-family="Helvetica,sans-Serif" font-size="10.00">stateUpdate</text>
</g>
<!-- Node2 -->
<g id="node2" class="node"><title>Node2</title>
<g id="a_node2"><a xlink:href="control__node_8cpp.html#af9d4be400cd482065e05d3fe6809d499" target="_top" xlink:title="forward">
<polygon fill="none" stroke="black" points="108.5,-60 108.5,-79 157.5,-79 157.5,-60 108.5,-60"/>
<text text-anchor="middle" x="133" y="-67" font-family="Helvetica,sans-Serif" font-size="10.00">forward</text>
</a>
</g>
</g>
<!-- Node1&#45;&gt;Node2 -->
<g id="edge1" class="edge"><title>Node1&#45;&gt;Node2</title>
<path fill="none" stroke="midnightblue" d="M49.7545,-126.901C65.4377,-115.955 91.2983,-97.9064 109.836,-84.9688"/>
<polygon fill="midnightblue" stroke="midnightblue" points="112.074,-87.675 118.271,-79.0817 108.068,-81.9347 112.074,-87.675"/>
</g>
<!-- Node8 -->
<g id="node8" class="node"><title>Node8</title>
<g id="a_node8"><a xlink:href="control__node_8cpp.html#ae7f1525a6480d4cc745dc300c883f55e" target="_top" xlink:title="generate">
<polygon fill="none" stroke="black" points="106,-11 106,-30 160,-30 160,-11 106,-11"/>
<text text-anchor="middle" x="133" y="-18" font-family="Helvetica,sans-Serif" font-size="10.00">generate</text>
</a>
</g>
</g>
<!-- Node1&#45;&gt;Node8 -->
<g id="edge7" class="edge"><title>Node1&#45;&gt;Node8</title>
<path fill="none" stroke="midnightblue" d="M43.6732,-126.876C56.4527,-110.893 82.9695,-77.9183 106,-50.5 109.422,-46.4265 113.144,-42.0821 116.674,-38.0005"/>
<polygon fill="midnightblue" stroke="midnightblue" points="119.57,-40.0043 123.493,-30.1625 114.288,-35.4097 119.57,-40.0043"/>
</g>
<!-- Node11 -->
<g id="node11" class="node"><title>Node11</title>
<g id="a_node11"><a xlink:href="control__node_8cpp.html#a7ab31acf3df582231c4eb6741df30232" target="_top" xlink:title="load">
<polygon fill="none" stroke="black" points="115.5,-106 115.5,-125 150.5,-125 150.5,-106 115.5,-106"/>
<text text-anchor="middle" x="133" y="-113" font-family="Helvetica,sans-Serif" font-size="10.00">load</text>
</a>
</g>
</g>
<!-- Node1&#45;&gt;Node11 -->
<g id="edge11" class="edge"><title>Node1&#45;&gt;Node11</title>
<path fill="none" stroke="midnightblue" d="M70.1163,-129.037C81.7968,-126.482 94.6773,-123.664 105.649,-121.264"/>
<polygon fill="midnightblue" stroke="midnightblue" points="106.461,-124.67 115.482,-119.113 104.965,-117.831 106.461,-124.67"/>
</g>
<!-- Node14 -->
<g id="node14" class="node"><title>Node14</title>
<g id="a_node14"><a xlink:href="control__node_8cpp.html#a92904aa73140a9bcbc31b3f01cbc1b91" target="_top" xlink:title="start">
<polygon fill="none" stroke="black" points="115,-194 115,-213 151,-213 151,-194 115,-194"/>
<text text-anchor="middle" x="133" y="-201" font-family="Helvetica,sans-Serif" font-size="10.00">start</text>
</a>
</g>
</g>
<!-- Node1&#45;&gt;Node14 -->
<g id="edge16" class="edge"><title>Node1&#45;&gt;Node14</title>
<path fill="none" stroke="midnightblue" d="M49.7545,-146.099C65.4377,-157.045 91.2983,-175.094 109.836,-188.031"/>
<polygon fill="midnightblue" stroke="midnightblue" points="108.068,-191.065 118.271,-193.918 112.074,-185.325 108.068,-191.065"/>
</g>
<!-- Node17 -->
<g id="node17" class="node"><title>Node17</title>
<g id="a_node17"><a xlink:href="control__node_8cpp.html#aef1bb144bc6c180c58ad077faa817079" target="_top" xlink:title="stop">
<polygon fill="none" stroke="black" points="115.5,-148 115.5,-167 150.5,-167 150.5,-148 115.5,-148"/>
<text text-anchor="middle" x="133" y="-155" font-family="Helvetica,sans-Serif" font-size="10.00">stop</text>
</a>
</g>
</g>
<!-- Node1&#45;&gt;Node17 -->
<g id="edge22" class="edge"><title>Node1&#45;&gt;Node17</title>
<path fill="none" stroke="midnightblue" d="M70.1163,-143.963C81.7968,-146.518 94.6773,-149.336 105.649,-151.736"/>
<polygon fill="midnightblue" stroke="midnightblue" points="104.965,-155.169 115.482,-153.887 106.461,-148.33 104.965,-155.169"/>
</g>
<!-- Node20 -->
<g id="node20" class="node"><title>Node20</title>
<g id="a_node20"><a xlink:href="control__node_8cpp.html#ae03f3fcb1ae2050f4a7eae357059132d" target="_top" xlink:title="store">
<polygon fill="none" stroke="black" points="114,-248 114,-267 152,-267 152,-248 114,-248"/>
<text text-anchor="middle" x="133" y="-255" font-family="Helvetica,sans-Serif" font-size="10.00">store</text>
</a>
</g>
</g>
<!-- Node1&#45;&gt;Node20 -->
<g id="edge28" class="edge"><title>Node1&#45;&gt;Node20</title>
<path fill="none" stroke="midnightblue" d="M43.8561,-146.402C60.11,-166.889 97.617,-214.163 118.075,-239.948"/>
<polygon fill="midnightblue" stroke="midnightblue" points="115.346,-242.141 124.304,-247.799 120.83,-237.79 115.346,-242.141"/>
</g>
<!-- Node3 -->
<g id="node3" class="node"><title>Node3</title>
<g id="a_node3"><a xlink:href="classatwork__commander_1_1Control.html#a1c41197baa292fac512b2d5f9971adf5" target="_top" xlink:title="Command to forward the current state of the RefBox manually. ">
<polygon fill="none" stroke="black" points="196,-49.5 196,-79.5 336,-79.5 336,-49.5 196,-49.5"/>
<text text-anchor="start" x="204" y="-67.5" font-family="Helvetica,sans-Serif" font-size="10.00">atwork_commander::Control</text>
<text text-anchor="middle" x="266" y="-56.5" font-family="Helvetica,sans-Serif" font-size="10.00">::forward</text>
</a>
</g>
</g>
<!-- Node2&#45;&gt;Node3 -->
<g id="edge2" class="edge"><title>Node2&#45;&gt;Node3</title>
<path fill="none" stroke="midnightblue" d="M157.723,-68.5945C165.907,-68.2822 175.585,-67.9128 185.724,-67.5258"/>
<polygon fill="midnightblue" stroke="midnightblue" points="186.119,-71.0134 195.978,-67.1344 185.852,-64.0185 186.119,-71.0134"/>
</g>
<!-- Node4 -->
<g id="node4" class="node"><title>Node4</title>
<g id="a_node4"><a xlink:href="classatwork__commander_1_1ControlImpl.html#a5628bbe3067a289d3d1dda5f59e9cece" target="_top" xlink:title="atwork_commander::Control\lImpl::forward">
<polygon fill="none" stroke="black" points="372,-49.5 372,-79.5 512,-79.5 512,-49.5 372,-49.5"/>
<text text-anchor="start" x="380" y="-67.5" font-family="Helvetica,sans-Serif" font-size="10.00">atwork_commander::Control</text>
<text text-anchor="middle" x="442" y="-56.5" font-family="Helvetica,sans-Serif" font-size="10.00">Impl::forward</text>
</a>
</g>
</g>
<!-- Node3&#45;&gt;Node4 -->
<g id="edge3" class="edge"><title>Node3&#45;&gt;Node4</title>
<path fill="none" stroke="midnightblue" d="M336.019,-64.5C344.476,-64.5 353.169,-64.5 361.761,-64.5"/>
<polygon fill="midnightblue" stroke="midnightblue" points="361.78,-68.0001 371.779,-64.5 361.779,-61.0001 361.78,-68.0001"/>
</g>
<!-- Node5 -->
<g id="node5" class="node"><title>Node5</title>
<g id="a_node5"><a xlink:href="classatwork__commander_1_1ControlError.html#aa8e0a508d07409af6b9ccc3f2b04862c" target="_top" xlink:title="Constructor taking the error description. ">
<polygon fill="none" stroke="black" points="548,-193.5 548,-223.5 688,-223.5 688,-193.5 548,-193.5"/>
<text text-anchor="start" x="556" y="-211.5" font-family="Helvetica,sans-Serif" font-size="10.00">atwork_commander::Control</text>
<text text-anchor="middle" x="618" y="-200.5" font-family="Helvetica,sans-Serif" font-size="10.00">Error::ControlError</text>
</a>
</g>
</g>
<!-- Node4&#45;&gt;Node5 -->
<g id="edge4" class="edge"><title>Node4&#45;&gt;Node5</title>
<path fill="none" stroke="midnightblue" d="M500.041,-79.5636C504.388,-82.0955 508.455,-85.0508 512,-88.5 544.363,-119.986 515.84,-151.807 548,-183.5 549.463,-184.942 551.016,-186.302 552.641,-187.584"/>
<polygon fill="midnightblue" stroke="midnightblue" points="551.032,-190.718 561.291,-193.366 554.922,-184.898 551.032,-190.718"/>
</g>
<!-- Node6 -->
<g id="node6" class="node"><title>Node6</title>
<g id="a_node6"><a xlink:href="namespaceatwork__commander__msgs.html#a9ecf5e83b56ed832452324374f4ec311" target="_top" xlink:title="atwork_commander_msgs\l::stateName">
<polygon fill="none" stroke="black" points="552.5,-144.5 552.5,-174.5 683.5,-174.5 683.5,-144.5 552.5,-144.5"/>
<text text-anchor="start" x="560.5" y="-162.5" font-family="Helvetica,sans-Serif" font-size="10.00">atwork_commander_msgs</text>
<text text-anchor="middle" x="618" y="-151.5" font-family="Helvetica,sans-Serif" font-size="10.00">::stateName</text>
</a>
</g>
</g>
<!-- Node4&#45;&gt;Node6 -->
<g id="edge5" class="edge"><title>Node4&#45;&gt;Node6</title>
<path fill="none" stroke="midnightblue" d="M496.106,-79.5428C501.696,-82.1159 507.114,-85.0856 512,-88.5 532.711,-102.973 527.569,-117.634 548,-132.5 551.668,-135.169 555.635,-137.615 559.749,-139.849"/>
<polygon fill="midnightblue" stroke="midnightblue" points="558.417,-143.095 568.93,-144.405 561.528,-136.825 558.417,-143.095"/>
</g>
<!-- Node7 -->
<g id="node7" class="node"><title>Node7</title>
<g id="a_node7"><a xlink:href="namespaceatwork__commander.html#a144d24cd0805258cbfd6f8cb8795feca" target="_top" xlink:title="atwork_commander::call">
<polygon fill="none" stroke="black" points="556.5,-104 556.5,-123 679.5,-123 679.5,-104 556.5,-104"/>
<text text-anchor="middle" x="618" y="-111" font-family="Helvetica,sans-Serif" font-size="10.00">atwork_commander::call</text>
</a>
</g>
</g>
<!-- Node4&#45;&gt;Node7 -->
<g id="edge6" class="edge"><title>Node4&#45;&gt;Node7</title>
<path fill="none" stroke="midnightblue" d="M496.626,-79.6014C521.242,-86.5335 550.059,-94.6488 573.326,-101.201"/>
<polygon fill="midnightblue" stroke="midnightblue" points="572.684,-104.656 583.258,-103.998 574.582,-97.9184 572.684,-104.656"/>
</g>
<!-- Node9 -->
<g id="node9" class="node"><title>Node9</title>
<g id="a_node9"><a xlink:href="classatwork__commander_1_1Control.html#a0be93e60d9410ceaad5af2bc7a62c771" target="_top" xlink:title="Command to generate a new Task on the RefBox. ">
<polygon fill="none" stroke="black" points="196,-0.5 196,-30.5 336,-30.5 336,-0.5 196,-0.5"/>
<text text-anchor="start" x="204" y="-18.5" font-family="Helvetica,sans-Serif" font-size="10.00">atwork_commander::Control</text>
<text text-anchor="middle" x="266" y="-7.5" font-family="Helvetica,sans-Serif" font-size="10.00">::generate</text>
</a>
</g>
</g>
<!-- Node8&#45;&gt;Node9 -->
<g id="edge8" class="edge"><title>Node8&#45;&gt;Node9</title>
<path fill="none" stroke="midnightblue" d="M160.195,-19.5002C167.872,-19.2072 176.691,-18.8706 185.885,-18.5196"/>
<polygon fill="midnightblue" stroke="midnightblue" points="186.113,-22.0136 195.972,-18.1346 185.846,-15.0187 186.113,-22.0136"/>
</g>
<!-- Node10 -->
<g id="node10" class="node"><title>Node10</title>
<g id="a_node10"><a xlink:href="classatwork__commander_1_1ControlImpl.html#aa442ba265143eca7295803670ef72f3d" target="_top" xlink:title="atwork_commander::Control\lImpl::generate">
<polygon fill="none" stroke="black" points="372,-0.5 372,-30.5 512,-30.5 512,-0.5 372,-0.5"/>
<text text-anchor="start" x="380" y="-18.5" font-family="Helvetica,sans-Serif" font-size="10.00">atwork_commander::Control</text>
<text text-anchor="middle" x="442" y="-7.5" font-family="Helvetica,sans-Serif" font-size="10.00">Impl::generate</text>
</a>
</g>
</g>
<!-- Node9&#45;&gt;Node10 -->
<g id="edge9" class="edge"><title>Node9&#45;&gt;Node10</title>
<path fill="none" stroke="midnightblue" d="M336.019,-15.5C344.476,-15.5 353.169,-15.5 361.761,-15.5"/>
<polygon fill="midnightblue" stroke="midnightblue" points="361.78,-19.0001 371.779,-15.5 361.779,-12.0001 361.78,-19.0001"/>
</g>
<!-- Node10&#45;&gt;Node7 -->
<g id="edge10" class="edge"><title>Node10&#45;&gt;Node7</title>
<path fill="none" stroke="midnightblue" d="M491.97,-30.6172C498.826,-33.2828 505.682,-36.256 512,-39.5 544.115,-55.9885 577.598,-81.2125 597.879,-97.5321"/>
<polygon fill="midnightblue" stroke="midnightblue" points="595.759,-100.32 605.72,-103.93 600.184,-94.8958 595.759,-100.32"/>
</g>
<!-- Node12 -->
<g id="node12" class="node"><title>Node12</title>
<g id="a_node12"><a xlink:href="classatwork__commander_1_1Control.html#a37613a7516afdbb671a79cfbe5de22fc" target="_top" xlink:title="Command to load a locally stored task in the RefBox. ">
<polygon fill="none" stroke="black" points="196,-98.5 196,-128.5 336,-128.5 336,-98.5 196,-98.5"/>
<text text-anchor="start" x="204" y="-116.5" font-family="Helvetica,sans-Serif" font-size="10.00">atwork_commander::Control</text>
<text text-anchor="middle" x="266" y="-105.5" font-family="Helvetica,sans-Serif" font-size="10.00">::load</text>
</a>
</g>
</g>
<!-- Node11&#45;&gt;Node12 -->
<g id="edge12" class="edge"><title>Node11&#45;&gt;Node12</title>
<path fill="none" stroke="midnightblue" d="M150.591,-115.247C159.918,-115.104 172.319,-114.915 185.514,-114.714"/>
<polygon fill="midnightblue" stroke="midnightblue" points="185.776,-118.21 195.721,-114.558 185.669,-111.211 185.776,-118.21"/>
</g>
<!-- Node13 -->
<g id="node13" class="node"><title>Node13</title>
<g id="a_node13"><a xlink:href="classatwork__commander_1_1ControlImpl.html#ab5b74ad5c6560c7d7e6111a6e85cbbfe" target="_top" xlink:title="atwork_commander::Control\lImpl::load">
<polygon fill="none" stroke="black" points="372,-98.5 372,-128.5 512,-128.5 512,-98.5 372,-98.5"/>
<text text-anchor="start" x="380" y="-116.5" font-family="Helvetica,sans-Serif" font-size="10.00">atwork_commander::Control</text>
<text text-anchor="middle" x="442" y="-105.5" font-family="Helvetica,sans-Serif" font-size="10.00">Impl::load</text>
</a>
</g>
</g>
<!-- Node12&#45;&gt;Node13 -->
<g id="edge13" class="edge"><title>Node12&#45;&gt;Node13</title>
<path fill="none" stroke="midnightblue" d="M336.019,-113.5C344.476,-113.5 353.169,-113.5 361.761,-113.5"/>
<polygon fill="midnightblue" stroke="midnightblue" points="361.78,-117 371.779,-113.5 361.779,-110 361.78,-117"/>
</g>
<!-- Node13&#45;&gt;Node5 -->
<g id="edge14" class="edge"><title>Node13&#45;&gt;Node5</title>
<path fill="none" stroke="midnightblue" d="M496.536,-128.603C501.986,-131.158 507.254,-134.107 512,-137.5 533.118,-152.6 526.98,-168.264 548,-183.5 550.631,-185.407 553.422,-187.182 556.316,-188.832"/>
<polygon fill="midnightblue" stroke="midnightblue" points="554.751,-191.963 565.246,-193.417 557.949,-185.736 554.751,-191.963"/>
</g>
<!-- Node13&#45;&gt;Node7 -->
<g id="edge15" class="edge"><title>Node13&#45;&gt;Node7</title>
<path fill="none" stroke="midnightblue" d="M512.019,-113.5C523.207,-113.5 534.809,-113.5 546.041,-113.5"/>
<polygon fill="midnightblue" stroke="midnightblue" points="546.23,-117 556.23,-113.5 546.23,-110 546.23,-117"/>
</g>
<!-- Node15 -->
<g id="node15" class="node"><title>Node15</title>
<g id="a_node15"><a xlink:href="classatwork__commander_1_1Control.html#a03d7ab8dde7ac8c41b29a9480b013ed6" target="_top" xlink:title="Command to start the current Task of the RefBox. ">
<polygon fill="none" stroke="black" points="196,-196.5 196,-226.5 336,-226.5 336,-196.5 196,-196.5"/>
<text text-anchor="start" x="204" y="-214.5" font-family="Helvetica,sans-Serif" font-size="10.00">atwork_commander::Control</text>
<text text-anchor="middle" x="266" y="-203.5" font-family="Helvetica,sans-Serif" font-size="10.00">::start</text>
</a>
</g>
</g>
<!-- Node14&#45;&gt;Node15 -->
<g id="edge17" class="edge"><title>Node14&#45;&gt;Node15</title>
<path fill="none" stroke="midnightblue" d="M151.126,-204.546C160.466,-205.116 172.771,-205.868 185.835,-206.665"/>
<polygon fill="midnightblue" stroke="midnightblue" points="185.742,-210.166 195.937,-207.282 186.168,-203.179 185.742,-210.166"/>
</g>
<!-- Node16 -->
<g id="node16" class="node"><title>Node16</title>
<g id="a_node16"><a xlink:href="classatwork__commander_1_1ControlImpl.html#a61e7adc72e3d1ae5f8ba7099e7ea1a58" target="_top" xlink:title="atwork_commander::Control\lImpl::start">
<polygon fill="none" stroke="black" points="372,-196.5 372,-226.5 512,-226.5 512,-196.5 372,-196.5"/>
<text text-anchor="start" x="380" y="-214.5" font-family="Helvetica,sans-Serif" font-size="10.00">atwork_commander::Control</text>
<text text-anchor="middle" x="442" y="-203.5" font-family="Helvetica,sans-Serif" font-size="10.00">Impl::start</text>
</a>
</g>
</g>
<!-- Node15&#45;&gt;Node16 -->
<g id="edge18" class="edge"><title>Node15&#45;&gt;Node16</title>
<path fill="none" stroke="midnightblue" d="M336.019,-211.5C344.476,-211.5 353.169,-211.5 361.761,-211.5"/>
<polygon fill="midnightblue" stroke="midnightblue" points="361.78,-215 371.779,-211.5 361.779,-208 361.78,-215"/>
</g>
<!-- Node16&#45;&gt;Node5 -->
<g id="edge19" class="edge"><title>Node16&#45;&gt;Node5</title>
<path fill="none" stroke="midnightblue" d="M512.019,-210.31C520.476,-210.164 529.169,-210.014 537.761,-209.866"/>
<polygon fill="midnightblue" stroke="midnightblue" points="537.841,-213.365 547.779,-209.693 537.721,-206.366 537.841,-213.365"/>
</g>
<!-- Node16&#45;&gt;Node6 -->
<g id="edge20" class="edge"><title>Node16&#45;&gt;Node6</title>
<path fill="none" stroke="midnightblue" d="M493.328,-196.459C513.257,-190.504 536.328,-183.609 557.107,-177.399"/>
<polygon fill="midnightblue" stroke="midnightblue" points="558.206,-180.724 566.785,-174.507 556.202,-174.017 558.206,-180.724"/>
</g>
<!-- Node16&#45;&gt;Node7 -->
<g id="edge21" class="edge"><title>Node16&#45;&gt;Node7</title>
<path fill="none" stroke="midnightblue" d="M495.683,-196.371C501.474,-193.578 507.054,-190.31 512,-186.5 534.267,-169.345 525.293,-151.068 548,-134.5 551.904,-131.652 556.199,-129.185 560.678,-127.049"/>
<polygon fill="midnightblue" stroke="midnightblue" points="562.196,-130.208 570.066,-123.115 559.49,-123.752 562.196,-130.208"/>
</g>
<!-- Node18 -->
<g id="node18" class="node"><title>Node18</title>
<g id="a_node18"><a xlink:href="classatwork__commander_1_1Control.html#a7fff8db983aba8be78b76aa5d49d1747" target="_top" xlink:title="Command to stop the ongoing task of the RefBox. ">
<polygon fill="none" stroke="black" points="196,-147.5 196,-177.5 336,-177.5 336,-147.5 196,-147.5"/>
<text text-anchor="start" x="204" y="-165.5" font-family="Helvetica,sans-Serif" font-size="10.00">atwork_commander::Control</text>
<text text-anchor="middle" x="266" y="-154.5" font-family="Helvetica,sans-Serif" font-size="10.00">::stop</text>
</a>
</g>
</g>
<!-- Node17&#45;&gt;Node18 -->
<g id="edge23" class="edge"><title>Node17&#45;&gt;Node18</title>
<path fill="none" stroke="midnightblue" d="M150.591,-158.133C159.918,-158.489 172.319,-158.963 185.514,-159.466"/>
<polygon fill="midnightblue" stroke="midnightblue" points="185.595,-162.972 195.721,-159.856 185.862,-155.977 185.595,-162.972"/>
</g>
<!-- Node19 -->
<g id="node19" class="node"><title>Node19</title>
<g id="a_node19"><a xlink:href="classatwork__commander_1_1ControlImpl.html#aaf1ece7e47d04a8963468f0b169a400b" target="_top" xlink:title="atwork_commander::Control\lImpl::stop">
<polygon fill="none" stroke="black" points="372,-147.5 372,-177.5 512,-177.5 512,-147.5 372,-147.5"/>
<text text-anchor="start" x="380" y="-165.5" font-family="Helvetica,sans-Serif" font-size="10.00">atwork_commander::Control</text>
<text text-anchor="middle" x="442" y="-154.5" font-family="Helvetica,sans-Serif" font-size="10.00">Impl::stop</text>
</a>
</g>
</g>
<!-- Node18&#45;&gt;Node19 -->
<g id="edge24" class="edge"><title>Node18&#45;&gt;Node19</title>
<path fill="none" stroke="midnightblue" d="M336.019,-162.5C344.476,-162.5 353.169,-162.5 361.761,-162.5"/>
<polygon fill="midnightblue" stroke="midnightblue" points="361.78,-166 371.779,-162.5 361.779,-159 361.78,-166"/>
</g>
<!-- Node19&#45;&gt;Node5 -->
<g id="edge25" class="edge"><title>Node19&#45;&gt;Node5</title>
<path fill="none" stroke="midnightblue" d="M499.974,-177.562C516.13,-181.833 533.861,-186.521 550.526,-190.926"/>
<polygon fill="midnightblue" stroke="midnightblue" points="549.633,-194.31 560.195,-193.483 551.422,-187.543 549.633,-194.31"/>
</g>
<!-- Node19&#45;&gt;Node6 -->
<g id="edge26" class="edge"><title>Node19&#45;&gt;Node6</title>
<path fill="none" stroke="midnightblue" d="M512.019,-161.31C521.878,-161.14 532.059,-160.964 542.025,-160.793"/>
<polygon fill="midnightblue" stroke="midnightblue" points="542.373,-164.287 552.311,-160.615 542.252,-157.288 542.373,-164.287"/>
</g>
<!-- Node19&#45;&gt;Node7 -->
<g id="edge27" class="edge"><title>Node19&#45;&gt;Node7</title>
<path fill="none" stroke="midnightblue" d="M496.626,-147.399C521.242,-140.466 550.059,-132.351 573.326,-125.799"/>
<polygon fill="midnightblue" stroke="midnightblue" points="574.582,-129.082 583.258,-123.002 572.684,-122.344 574.582,-129.082"/>
</g>
<!-- Node21 -->
<g id="node21" class="node"><title>Node21</title>
<g id="a_node21"><a xlink:href="classatwork__commander_1_1Control.html#a624a50e21757ca512ccbc55cc4a63159" target="_top" xlink:title="Command to store the current task of the RefBox locally. ">
<polygon fill="none" stroke="black" points="196,-245.5 196,-275.5 336,-275.5 336,-245.5 196,-245.5"/>
<text text-anchor="start" x="204" y="-263.5" font-family="Helvetica,sans-Serif" font-size="10.00">atwork_commander::Control</text>
<text text-anchor="middle" x="266" y="-252.5" font-family="Helvetica,sans-Serif" font-size="10.00">::store</text>
</a>
</g>
</g>
<!-- Node20&#45;&gt;Node21 -->
<g id="edge29" class="edge"><title>Node20&#45;&gt;Node21</title>
<path fill="none" stroke="midnightblue" d="M152.215,-257.917C161.368,-258.127 173.159,-258.397 185.655,-258.683"/>
<polygon fill="midnightblue" stroke="midnightblue" points="185.712,-262.185 195.79,-258.915 185.873,-255.187 185.712,-262.185"/>
</g>
<!-- Node22 -->
<g id="node22" class="node"><title>Node22</title>
<g id="a_node22"><a xlink:href="classatwork__commander_1_1ControlImpl.html#a5c41d7d76657ed6b278d239fb14893f4" target="_top" xlink:title="atwork_commander::Control\lImpl::store">
<polygon fill="none" stroke="black" points="372,-245.5 372,-275.5 512,-275.5 512,-245.5 372,-245.5"/>
<text text-anchor="start" x="380" y="-263.5" font-family="Helvetica,sans-Serif" font-size="10.00">atwork_commander::Control</text>
<text text-anchor="middle" x="442" y="-252.5" font-family="Helvetica,sans-Serif" font-size="10.00">Impl::store</text>
</a>
</g>
</g>
<!-- Node21&#45;&gt;Node22 -->
<g id="edge30" class="edge"><title>Node21&#45;&gt;Node22</title>
<path fill="none" stroke="midnightblue" d="M336.019,-260.5C344.476,-260.5 353.169,-260.5 361.761,-260.5"/>
<polygon fill="midnightblue" stroke="midnightblue" points="361.78,-264 371.779,-260.5 361.779,-257 361.78,-264"/>
</g>
<!-- Node22&#45;&gt;Node5 -->
<g id="edge31" class="edge"><title>Node22&#45;&gt;Node5</title>
<path fill="none" stroke="midnightblue" d="M493.328,-245.459C513.257,-239.504 536.328,-232.609 557.107,-226.399"/>
<polygon fill="midnightblue" stroke="midnightblue" points="558.206,-229.724 566.785,-223.507 556.202,-223.017 558.206,-229.724"/>
</g>
</g>
</svg>
        <g id="navigator" transform="translate(0 0)" fill="#404254">
                <rect fill="#f2f5e9" fill-opacity="0.5" stroke="#606060" stroke-width=".5" x="0" y="0" width="60" height="60"/>
                <use id="zoomplus" xlink:href="#zoomPlus" x="17" y="9" onmousedown="handleZoom(evt,'in')"/>
                <use id="zoomminus" xlink:href="#zoomMin" x="42" y="9" onmousedown="handleZoom(evt,'out')"/>
                <use id="reset" xlink:href="#resetDef" x="30" y="36" onmousedown="handleReset()"/>
                <g id="arrowUp" xlink:href="#dirArrow" transform="translate(30 24)" onmousedown="handlePan(0,-1)">
                  <use xlink:href="#rim" fill="#404040">
                        <set attributeName="fill" to="#808080" begin="arrowUp.mouseover" end="arrowUp.mouseout"/>
                  </use>
                  <path fill="none" stroke="white" stroke-width="1.5" d="M0,-3.0v7 M-2.5,-0.5L0,-3.0L2.5,-0.5"/>
                </g>
                <g id="arrowRight" xlink:href="#dirArrow" transform="rotate(90) translate(36 -43)" onmousedown="handlePan(1,0)">
                  <use xlink:href="#rim" fill="#404040">
                        <set attributeName="fill" to="#808080" begin="arrowRight.mouseover" end="arrowRight.mouseout"/>
                  </use>
                  <path fill="none" stroke="white" stroke-width="1.5" d="M0,-3.0v7 M-2.5,-0.5L0,-3.0L2.5,-0.5"/>
                </g>
                <g id="arrowDown" xlink:href="#dirArrow" transform="rotate(180) translate(-30 -48)" onmousedown="handlePan(0,1)">
                  <use xlink:href="#rim" fill="#404040">
                        <set attributeName="fill" to="#808080" begin="arrowDown.mouseover" end="arrowDown.mouseout"/>
                  </use>
                  <path fill="none" stroke="white" stroke-width="1.5" d="M0,-3.0v7 M-2.5,-0.5L0,-3.0L2.5,-0.5"/>
                </g>
                <g id="arrowLeft" xlink:href="#dirArrow" transform="rotate(270) translate(-36 17)" onmousedown="handlePan(-1,0)">
                  <use xlink:href="#rim" fill="#404040">
                        <set attributeName="fill" to="#808080" begin="arrowLeft.mouseover" end="arrowLeft.mouseout"/>
                  </use>
                  <path fill="none" stroke="white" stroke-width="1.5" d="M0,-3.0v7 M-2.5,-0.5L0,-3.0L2.5,-0.5"/>
                </g>
        </g>
        <svg viewBox="0 0 15 15" width="100%" height="30px" preserveAspectRatio="xMaxYMin meet">
         <g id="arrow_out" transform="scale(0.3 0.3)">
          <a xlink:href="control__node_8cpp_a98733d6ad140ddb4f5a57388e89684ea_cgraph_org.svg" target="_base">
           <rect id="button" ry="5" rx="5" y="6" x="6" height="38" width="38"
                fill="#f2f5e9" fill-opacity="0.5" stroke="#606060" stroke-width="1.0"/>
           <path id="arrow"
             d="M 11.500037,31.436501 C 11.940474,20.09759 22.043105,11.32322 32.158766,21.979434 L 37.068811,17.246167 C 37.068811,17.246167 37.088388,32 37.088388,32 L 22.160133,31.978069 C 22.160133,31.978069 26.997745,27.140456 26.997745,27.140456 C 18.528582,18.264221 13.291696,25.230495 11.500037,31.436501 z"
             style="fill:#404040;"/>
          </a>
         </g>
        </svg>
</svg>
