<?xml version="1.0" encoding="UTF-8" standalone="no"?>
<!DOCTYPE svg PUBLIC "-//W3C//DTD SVG 1.1//EN"
 "http://www.w3.org/Graphics/SVG/1.1/DTD/svg11.dtd">
<!-- Generated by graphviz version 2.38.0 (20140413.2041)
 -->
<!-- Title: stop Pages: 1 -->
<svg width="571pt" height="127pt"
 viewBox="0.00 0.00 571.00 126.50" xmlns="http://www.w3.org/2000/svg" xmlns:xlink="http://www.w3.org/1999/xlink">
<g id="graph0" class="graph" transform="scale(1 1) rotate(0) translate(4 122.5)">
<title>stop</title>
<!-- Node1 -->
<g id="node1" class="node"><title>Node1</title>
<polygon fill="#bfbfbf" stroke="black" points="0,-44.5 0,-63.5 35,-63.5 35,-44.5 0,-44.5"/>
<text text-anchor="middle" x="17.5" y="-51.5" font-family="Helvetica,sans-Serif" font-size="10.00">stop</text>
</g>
<!-- Node2 -->
<g id="node2" class="node"><title>Node2</title>
<g id="a_node2"><a xlink:href="classatwork__commander_1_1Control.html#a7fff8db983aba8be78b76aa5d49d1747" target="_top" xlink:title="Command to stop the ongoing task of the RefBox. ">
<polygon fill="none" stroke="black" points="71,-39 71,-69 211,-69 211,-39 71,-39"/>
<text text-anchor="start" x="79" y="-57" font-family="Helvetica,sans-Serif" font-size="10.00">atwork_commander::Control</text>
<text text-anchor="middle" x="141" y="-46" font-family="Helvetica,sans-Serif" font-size="10.00">::stop</text>
</a>
</g>
</g>
<!-- Node1&#45;&gt;Node2 -->
<g id="edge1" class="edge"><title>Node1&#45;&gt;Node2</title>
<path fill="none" stroke="midnightblue" d="M35.1393,-54C42.2782,-54 51.1804,-54 60.7607,-54"/>
<polygon fill="midnightblue" stroke="midnightblue" points="60.9444,-57.5001 70.9444,-54 60.9443,-50.5001 60.9444,-57.5001"/>
</g>
<!-- Node3 -->
<g id="node3" class="node"><title>Node3</title>
<g id="a_node3"><a xlink:href="classatwork__commander_1_1ControlImpl.html#aaf1ece7e47d04a8963468f0b169a400b" target="_top" xlink:title="atwork_commander::Control\lImpl::stop">
<polygon fill="none" stroke="black" points="247,-39 247,-69 387,-69 387,-39 247,-39"/>
<text text-anchor="start" x="255" y="-57" font-family="Helvetica,sans-Serif" font-size="10.00">atwork_commander::Control</text>
<text text-anchor="middle" x="317" y="-46" font-family="Helvetica,sans-Serif" font-size="10.00">Impl::stop</text>
</a>
</g>
</g>
<!-- Node2&#45;&gt;Node3 -->
<g id="edge2" class="edge"><title>Node2&#45;&gt;Node3</title>
<path fill="none" stroke="midnightblue" d="M211.019,-54C219.476,-54 228.169,-54 236.761,-54"/>
<polygon fill="midnightblue" stroke="midnightblue" points="236.78,-57.5001 246.779,-54 236.779,-50.5001 236.78,-57.5001"/>
</g>
<!-- Node4 -->
<g id="node4" class="node"><title>Node4</title>
<g id="a_node4"><a xlink:href="classatwork__commander_1_1ControlError.html#aa8e0a508d07409af6b9ccc3f2b04862c" target="_top" xlink:title="Constructor taking the error description. ">
<polygon fill="none" stroke="black" points="423,-88 423,-118 563,-118 563,-88 423,-88"/>
<text text-anchor="start" x="431" y="-106" font-family="Helvetica,sans-Serif" font-size="10.00">atwork_commander::Control</text>
<text text-anchor="middle" x="493" y="-95" font-family="Helvetica,sans-Serif" font-size="10.00">Error::ControlError</text>
</a>
</g>
</g>
<!-- Node3&#45;&gt;Node4 -->
<g id="edge3" class="edge"><title>Node3&#45;&gt;Node4</title>
<path fill="none" stroke="midnightblue" d="M371.626,-69.1014C389.737,-74.2019 410.124,-79.9429 428.9,-85.2305"/>
<polygon fill="midnightblue" stroke="midnightblue" points="427.977,-88.6067 438.552,-87.9484 429.875,-81.8687 427.977,-88.6067"/>
</g>
<!-- Node5 -->
<g id="node5" class="node"><title>Node5</title>
<g id="a_node5"><a xlink:href="namespaceatwork__commander__msgs.html#a9ecf5e83b56ed832452324374f4ec311" target="_top" xlink:title="atwork_commander_msgs\l::stateName">
<polygon fill="none" stroke="black" points="427.5,-39 427.5,-69 558.5,-69 558.5,-39 427.5,-39"/>
<text text-anchor="start" x="435.5" y="-57" font-family="Helvetica,sans-Serif" font-size="10.00">atwork_commander_msgs</text>
<text text-anchor="middle" x="493" y="-46" font-family="Helvetica,sans-Serif" font-size="10.00">::stateName</text>
</a>
</g>
</g>
<!-- Node3&#45;&gt;Node5 -->
<g id="edge4" class="edge"><title>Node3&#45;&gt;Node5</title>
<path fill="none" stroke="midnightblue" d="M387.019,-54C396.878,-54 407.059,-54 417.025,-54"/>
<polygon fill="midnightblue" stroke="midnightblue" points="417.311,-57.5001 427.311,-54 417.311,-50.5001 417.311,-57.5001"/>
</g>
<!-- Node6 -->
<g id="node6" class="node"><title>Node6</title>
<g id="a_node6"><a xlink:href="namespaceatwork__commander.html#a144d24cd0805258cbfd6f8cb8795feca" target="_top" xlink:title="atwork_commander::call">
<polygon fill="none" stroke="black" points="431.5,-0.5 431.5,-19.5 554.5,-19.5 554.5,-0.5 431.5,-0.5"/>
<text text-anchor="middle" x="493" y="-7.5" font-family="Helvetica,sans-Serif" font-size="10.00">atwork_commander::call</text>
</a>
</g>
</g>
<!-- Node3&#45;&gt;Node6 -->
<g id="edge5" class="edge"><title>Node3&#45;&gt;Node6</title>
<path fill="none" stroke="midnightblue" d="M377.394,-38.9808C399.307,-33.4396 423.827,-27.2393 444.545,-22.0001"/>
<polygon fill="midnightblue" stroke="midnightblue" points="445.546,-25.3573 454.383,-19.5124 443.83,-18.5709 445.546,-25.3573"/>
</g>
</g>
</svg>
