<?xml version="1.0" encoding="UTF-8" standalone="no"?>
<!DOCTYPE svg PUBLIC "-//W3C//DTD SVG 1.1//EN"
 "http://www.w3.org/Graphics/SVG/1.1/DTD/svg11.dtd">
<!-- Generated by graphviz version 2.38.0 (20140413.2041)
 -->
<!-- Title: /home/travis/build/steup/atwork&#45;commander/atwork_commander_gui Pages: 1 -->
<svg width="297pt" height="204pt"
 viewBox="0.00 0.00 297.00 204.00" xmlns="http://www.w3.org/2000/svg" xmlns:xlink="http://www.w3.org/1999/xlink">
<g id="graph0" class="graph" transform="scale(1 1) rotate(0) translate(4 200)">
<title>/home/travis/build/steup/atwork&#45;commander/atwork_commander_gui</title>
<g id="clust1" class="cluster"><title>clusterdir_139667706a77e9f46229fdf4554fbd39</title>
<g id="a_clust1"><a xlink:href="dir_139667706a77e9f46229fdf4554fbd39.html" target="_top">
<polygon fill="#eeeeff" stroke="black" points="73,-136 73,-188 281,-188 281,-136 73,-136"/>
</a>
</g>
</g>
<!-- dir_139667706a77e9f46229fdf4554fbd39 -->
<g id="node1" class="node"><title>dir_139667706a77e9f46229fdf4554fbd39</title>
<text text-anchor="middle" x="213" y="-159.5" font-family="Helvetica,sans-Serif" font-size="10.00">atwork_commander_gui</text>
</g>
<!-- dir_a9df0a092c13fcf9b9a91a0e7e6faf54 -->
<g id="node2" class="node"><title>dir_a9df0a092c13fcf9b9a91a0e7e6faf54</title>
<g id="a_node2"><a xlink:href="dir_a9df0a092c13fcf9b9a91a0e7e6faf54.html" target="_top" xlink:title="src">
<polygon fill="white" stroke="black" points="135,-180 81,-180 81,-144 135,-144 135,-180"/>
<text text-anchor="middle" x="108" y="-159.5" font-family="Helvetica,sans-Serif" font-size="10.00">src</text>
</a>
</g>
</g>
<!-- dir_bc43f9d513f8cb0a1b1f088fcb10e3f7 -->
<g id="node3" class="node"><title>dir_bc43f9d513f8cb0a1b1f088fcb10e3f7</title>
<g id="a_node3"><a xlink:href="dir_bc43f9d513f8cb0a1b1f088fcb10e3f7.html" target="_top" xlink:title="atwork_commander_core">
<polygon fill="none" stroke="red" points="126,-108 0,-108 0,-72 126,-72 126,-108"/>
<text text-anchor="middle" x="63" y="-87.5" font-family="Helvetica,sans-Serif" font-size="10.00">atwork_commander_core</text>
</a>
</g>
</g>
<!-- dir_a9df0a092c13fcf9b9a91a0e7e6faf54&#45;&gt;dir_bc43f9d513f8cb0a1b1f088fcb10e3f7 -->
<g id="edge2" class="edge"><title>dir_a9df0a092c13fcf9b9a91a0e7e6faf54&#45;&gt;dir_bc43f9d513f8cb0a1b1f088fcb10e3f7</title>
<path fill="none" stroke="black" d="M96.8764,-143.697C91.645,-135.559 85.3001,-125.689 79.5222,-116.701"/>
<polygon fill="black" stroke="black" points="82.3474,-114.623 73.9956,-108.104 76.4591,-118.409 82.3474,-114.623"/>
<g id="a_edge2&#45;headlabel"><a xlink:href="dir_000020_000007.html" target="_top" xlink:title="1">
<text text-anchor="middle" x="86.6795" y="-113.612" font-family="Helvetica,sans-Serif" font-size="10.00">1</text>
</a>
</g>
</g>
<!-- dir_198486929cb6a5385e9245450280f0cb -->
<g id="node4" class="node"><title>dir_198486929cb6a5385e9245450280f0cb</title>
<g id="a_node4"><a xlink:href="dir_198486929cb6a5385e9245450280f0cb.html" target="_top" xlink:title="atwork_commander_msgs">
<polygon fill="none" stroke="red" points="173.5,-36 42.5,-36 42.5,-0 173.5,-0 173.5,-36"/>
<text text-anchor="middle" x="108" y="-15.5" font-family="Helvetica,sans-Serif" font-size="10.00">atwork_commander_msgs</text>
</a>
</g>
</g>
<!-- dir_a9df0a092c13fcf9b9a91a0e7e6faf54&#45;&gt;dir_198486929cb6a5385e9245450280f0cb -->
<g id="edge3" class="edge"><title>dir_a9df0a092c13fcf9b9a91a0e7e6faf54&#45;&gt;dir_198486929cb6a5385e9245450280f0cb</title>
<path fill="none" stroke="black" d="M119.467,-143.667C125.375,-133.689 131.963,-120.652 135,-108 138.735,-92.4419 138.735,-87.5581 135,-72 132.793,-62.8075 128.712,-53.4118 124.379,-45.1339"/>
<polygon fill="black" stroke="black" points="127.397,-43.3591 119.467,-36.3331 121.285,-46.7709 127.397,-43.3591"/>
<g id="a_edge3&#45;headlabel"><a xlink:href="dir_000020_000021.html" target="_top" xlink:title="1">
<text text-anchor="middle" x="131.628" y="-42.614" font-family="Helvetica,sans-Serif" font-size="10.00">1</text>
</a>
</g>
</g>
<!-- dir_bc43f9d513f8cb0a1b1f088fcb10e3f7&#45;&gt;dir_198486929cb6a5385e9245450280f0cb -->
<g id="edge1" class="edge"><title>dir_bc43f9d513f8cb0a1b1f088fcb10e3f7&#45;&gt;dir_198486929cb6a5385e9245450280f0cb</title>
<path fill="none" stroke="black" d="M74.1236,-71.6966C79.355,-63.5589 85.6999,-53.689 91.4778,-44.7013"/>
<polygon fill="black" stroke="black" points="94.5409,-46.4088 97.0044,-36.1043 88.6526,-42.6235 94.5409,-46.4088"/>
<g id="a_edge1&#45;headlabel"><a xlink:href="dir_000007_000021.html" target="_top" xlink:title="1">
<text text-anchor="middle" x="94.9854" y="-48.4678" font-family="Helvetica,sans-Serif" font-size="10.00">1</text>
</a>
</g>
</g>
</g>
</svg>
