<?xml version="1.0" encoding="UTF-8" standalone="no"?>
<!DOCTYPE svg PUBLIC "-//W3C//DTD SVG 1.1//EN"
 "http://www.w3.org/Graphics/SVG/1.1/DTD/svg11.dtd">
<!-- Generated by graphviz version 2.38.0 (20140413.2041)
 -->
<!-- Title: /home/travis/build/steup/atwork&#45;commander/atwork_commander_core Pages: 1 -->
<svg width="583pt" height="148pt"
 viewBox="0.00 0.00 582.50 148.00" xmlns="http://www.w3.org/2000/svg" xmlns:xlink="http://www.w3.org/1999/xlink">
<g id="graph0" class="graph" transform="scale(1 1) rotate(0) translate(4 144)">
<title>/home/travis/build/steup/atwork&#45;commander/atwork_commander_core</title>
<g id="clust1" class="cluster"><title>clusterdir_bc43f9d513f8cb0a1b1f088fcb10e3f7</title>
<g id="a_clust1"><a xlink:href="dir_bc43f9d513f8cb0a1b1f088fcb10e3f7.html" target="_top">
<polygon fill="#eeeeff" stroke="black" points="8,-8 8,-132 294,-132 294,-8 8,-8"/>
</a>
</g>
</g>
<!-- dir_bc43f9d513f8cb0a1b1f088fcb10e3f7 -->
<g id="node1" class="node"><title>dir_bc43f9d513f8cb0a1b1f088fcb10e3f7</title>
<text text-anchor="middle" x="223" y="-103.5" font-family="Helvetica,sans-Serif" font-size="10.00">atwork_commander_core</text>
</g>
<!-- dir_7ae68d85c5797806d03b3fdbc5425e94 -->
<g id="node2" class="node"><title>dir_7ae68d85c5797806d03b3fdbc5425e94</title>
<g id="a_node2"><a xlink:href="dir_7ae68d85c5797806d03b3fdbc5425e94.html" target="_top" xlink:title="include">
<polygon fill="white" stroke="red" points="106,-52 52,-52 52,-16 106,-16 106,-52"/>
<text text-anchor="middle" x="79" y="-31.5" font-family="Helvetica,sans-Serif" font-size="10.00">include</text>
</a>
</g>
</g>
<!-- dir_5eaaa9103736d66235c708e14746e08d -->
<g id="node3" class="node"><title>dir_5eaaa9103736d66235c708e14746e08d</title>
<g id="a_node3"><a xlink:href="dir_5eaaa9103736d66235c708e14746e08d.html" target="_top" xlink:title="src">
<polygon fill="white" stroke="black" points="142,-124 88,-124 88,-88 142,-88 142,-124"/>
<text text-anchor="middle" x="115" y="-103.5" font-family="Helvetica,sans-Serif" font-size="10.00">src</text>
</a>
</g>
</g>
<!-- dir_5eaaa9103736d66235c708e14746e08d&#45;&gt;dir_7ae68d85c5797806d03b3fdbc5425e94 -->
<g id="edge2" class="edge"><title>dir_5eaaa9103736d66235c708e14746e08d&#45;&gt;dir_7ae68d85c5797806d03b3fdbc5425e94</title>
<path fill="none" stroke="black" d="M106.101,-87.6966C102.003,-79.7284 97.0512,-70.0995 92.5073,-61.2641"/>
<polygon fill="black" stroke="black" points="95.4826,-59.3965 87.7965,-52.1043 89.2575,-62.598 95.4826,-59.3965"/>
<g id="a_edge2&#45;headlabel"><a xlink:href="dir_000010_000008.html" target="_top" xlink:title="2">
<text text-anchor="middle" x="99.6514" y="-58.7946" font-family="Helvetica,sans-Serif" font-size="10.00">2</text>
</a>
</g>
</g>
<!-- dir_de5f21d718f9125cec0aa6e5d3fc232a -->
<g id="node5" class="node"><title>dir_de5f21d718f9125cec0aa6e5d3fc232a</title>
<g id="a_node5"><a xlink:href="dir_de5f21d718f9125cec0aa6e5d3fc232a.html" target="_top" xlink:title="atwork_commander_gen">
<polygon fill="none" stroke="red" points="425.5,-52 302.5,-52 302.5,-16 425.5,-16 425.5,-52"/>
<text text-anchor="middle" x="364" y="-31.5" font-family="Helvetica,sans-Serif" font-size="10.00">atwork_commander_gen</text>
</a>
</g>
</g>
<!-- dir_5eaaa9103736d66235c708e14746e08d&#45;&gt;dir_de5f21d718f9125cec0aa6e5d3fc232a -->
<g id="edge1" class="edge"><title>dir_5eaaa9103736d66235c708e14746e08d&#45;&gt;dir_de5f21d718f9125cec0aa6e5d3fc232a</title>
<path fill="none" stroke="black" d="M142.278,-91.4245C145.189,-90.1852 148.134,-89.0161 151,-88 211.303,-66.6229 230.862,-68.17 292.361,-53.3634"/>
<polygon fill="black" stroke="black" points="293.3,-56.7367 302.174,-50.9486 291.628,-49.9395 293.3,-56.7367"/>
<g id="a_edge1&#45;headlabel"><a xlink:href="dir_000010_000013.html" target="_top" xlink:title="1">
<text text-anchor="middle" x="290.488" y="-57.8526" font-family="Helvetica,sans-Serif" font-size="10.00">1</text>
</a>
</g>
</g>
<!-- dir_198486929cb6a5385e9245450280f0cb -->
<g id="node6" class="node"><title>dir_198486929cb6a5385e9245450280f0cb</title>
<g id="a_node6"><a xlink:href="dir_198486929cb6a5385e9245450280f0cb.html" target="_top" xlink:title="atwork_commander_msgs">
<polygon fill="none" stroke="red" points="574.5,-52 443.5,-52 443.5,-16 574.5,-16 574.5,-52"/>
<text text-anchor="middle" x="509" y="-31.5" font-family="Helvetica,sans-Serif" font-size="10.00">atwork_commander_msgs</text>
</a>
</g>
</g>
<!-- dir_5eaaa9103736d66235c708e14746e08d&#45;&gt;dir_198486929cb6a5385e9245450280f0cb -->
<g id="edge3" class="edge"><title>dir_5eaaa9103736d66235c708e14746e08d&#45;&gt;dir_198486929cb6a5385e9245450280f0cb</title>
<path fill="none" stroke="black" d="M142.168,-91.0849C145.101,-89.9118 148.08,-88.8511 151,-88 270.047,-53.2986 307.819,-73.1973 433.312,-52.1784"/>
<polygon fill="black" stroke="black" points="434.045,-55.6038 443.302,-50.4506 432.852,-48.7062 434.045,-55.6038"/>
<g id="a_edge3&#45;headlabel"><a xlink:href="dir_000010_000021.html" target="_top" xlink:title="1">
<text text-anchor="middle" x="430.987" y="-56.514" font-family="Helvetica,sans-Serif" font-size="10.00">1</text>
</a>
</g>
</g>
<!-- dir_952f3bcfb113f09772f43762ea10d9e5 -->
<g id="node4" class="node"><title>dir_952f3bcfb113f09772f43762ea10d9e5</title>
<g id="a_node4"><a xlink:href="dir_952f3bcfb113f09772f43762ea10d9e5.html" target="_top" xlink:title="tests">
<polygon fill="white" stroke="red" points="70,-124 16,-124 16,-88 70,-88 70,-124"/>
<text text-anchor="middle" x="43" y="-103.5" font-family="Helvetica,sans-Serif" font-size="10.00">tests</text>
</a>
</g>
</g>
<!-- dir_952f3bcfb113f09772f43762ea10d9e5&#45;&gt;dir_7ae68d85c5797806d03b3fdbc5425e94 -->
<g id="edge4" class="edge"><title>dir_952f3bcfb113f09772f43762ea10d9e5&#45;&gt;dir_7ae68d85c5797806d03b3fdbc5425e94</title>
<path fill="none" stroke="black" d="M51.8989,-87.6966C55.9968,-79.7284 60.9488,-70.0995 65.4927,-61.2641"/>
<polygon fill="black" stroke="black" points="68.7425,-62.598 70.2035,-52.1043 62.5174,-59.3965 68.7425,-62.598"/>
<g id="a_edge4&#45;headlabel"><a xlink:href="dir_000011_000008.html" target="_top" xlink:title="1">
<text text-anchor="middle" x="69.6235" y="-64.5931" font-family="Helvetica,sans-Serif" font-size="10.00">1</text>
</a>
</g>
</g>
</g>
</svg>
