<?xml version="1.0" encoding="UTF-8" standalone="no"?>
<!DOCTYPE svg PUBLIC "-//W3C//DTD SVG 1.1//EN"
 "http://www.w3.org/Graphics/SVG/1.1/DTD/svg11.dtd">
<!-- Generated by graphviz version 2.38.0 (20140413.2041)
 -->
<!-- Title: forward Pages: 1 -->
<svg width="330pt" height="44pt"
 viewBox="0.00 0.00 329.59 44.00" xmlns="http://www.w3.org/2000/svg" xmlns:xlink="http://www.w3.org/1999/xlink">
<g id="graph0" class="graph" transform="scale(1 1) rotate(0) translate(4 40)">
<title>forward</title>
<polygon fill="white" stroke="none" points="-4,4 -4,-40 325.593,-40 325.593,4 -4,4"/>
<!-- PREPARATION -->
<g id="node1" class="node"><title>PREPARATION</title>
<ellipse fill="none" stroke="black" cx="50.625" cy="-18" rx="50.7503" ry="18"/>
<text text-anchor="middle" x="50.625" y="-15.5" font-family="Times,serif" font-size="10.00">PREPARATION</text>
</g>
<!-- EXECUTION -->
<g id="node2" class="node"><title>EXECUTION</title>
<ellipse fill="none" stroke="black" cx="180.811" cy="-18" rx="43.6222" ry="18"/>
<text text-anchor="middle" x="180.811" y="-15.5" font-family="Times,serif" font-size="10.00">EXECUTION</text>
</g>
<!-- PREPARATION&#45;&gt;EXECUTION -->
<g id="edge1" class="edge"><title>PREPARATION&#45;&gt;EXECUTION</title>
<path fill="none" stroke="black" d="M101.552,-18C109.848,-18 118.478,-18 126.846,-18"/>
<polygon fill="black" stroke="black" points="126.885,-21.5001 136.885,-18 126.885,-14.5001 126.885,-21.5001"/>
</g>
<!-- READY -->
<g id="node3" class="node"><title>READY</title>
<ellipse fill="none" stroke="black" cx="290.983" cy="-18" rx="30.7213" ry="18"/>
<text text-anchor="middle" x="290.983" y="-15.5" font-family="Times,serif" font-size="10.00">READY</text>
</g>
<!-- EXECUTION&#45;&gt;READY -->
<g id="edge2" class="edge"><title>EXECUTION&#45;&gt;READY</title>
<path fill="none" stroke="black" d="M224.563,-18C232.951,-18 241.719,-18 250.012,-18"/>
<polygon fill="black" stroke="black" points="250.196,-21.5001 260.196,-18 250.196,-14.5001 250.196,-21.5001"/>
</g>
</g>
</svg>
