<?xml version="1.0" encoding="UTF-8" standalone="no"?>
<!DOCTYPE svg PUBLIC "-//W3C//DTD SVG 1.1//EN"
 "http://www.w3.org/Graphics/SVG/1.1/DTD/svg11.dtd">
<!-- Generated by graphviz version 2.38.0 (20140413.2041)
 -->
<!-- Title: forward Pages: 1 -->
<svg width="206pt" height="170pt"
 viewBox="0.00 0.00 206.47 170.00" xmlns="http://www.w3.org/2000/svg" xmlns:xlink="http://www.w3.org/1999/xlink">
<g id="graph0" class="graph" transform="scale(1 1) rotate(0) translate(4 166)">
<title>forward</title>
<polygon fill="white" stroke="none" points="-4,4 -4,-166 202.471,-166 202.471,4 -4,4"/>
<!-- IDLE -->
<g id="node1" class="node"><title>IDLE</title>
<ellipse fill="none" stroke="black" cx="50.625" cy="-18" rx="27" ry="18"/>
<text text-anchor="middle" x="50.625" y="-15.5" font-family="Times,serif" font-size="10.00">IDLE</text>
</g>
<!-- IDLE&#45;&gt;IDLE -->
<g id="edge1" class="edge"><title>IDLE&#45;&gt;IDLE</title>
<path fill="none" stroke="black" d="M32.1938,-31.2925C24.3172,-42.397 30.461,-54 50.625,-54 64.8029,-54 72.0493,-48.2636 72.3643,-40.9976"/>
<polygon fill="black" stroke="black" points="75.5954,-39.6285 69.0562,-31.2925 68.9698,-41.887 75.5954,-39.6285"/>
</g>
<!-- READY -->
<g id="node2" class="node"><title>READY</title>
<ellipse fill="none" stroke="black" cx="167.86" cy="-117" rx="30.7213" ry="18"/>
<text text-anchor="middle" x="167.86" y="-114.5" font-family="Times,serif" font-size="10.00">READY</text>
</g>
<!-- READY&#45;&gt;READY -->
<g id="edge2" class="edge"><title>READY&#45;&gt;READY</title>
<path fill="none" stroke="black" d="M148.681,-131.417C141.983,-142.166 148.376,-153 167.86,-153 181.256,-153 188.464,-147.879 189.484,-141.186"/>
<polygon fill="black" stroke="black" points="192.863,-140.268 187.04,-131.417 186.072,-141.967 192.863,-140.268"/>
</g>
<!-- PREPARATION -->
<g id="node3" class="node"><title>PREPARATION</title>
<ellipse fill="none" stroke="black" cx="50.625" cy="-144" rx="50.7503" ry="18"/>
<text text-anchor="middle" x="50.625" y="-141.5" font-family="Times,serif" font-size="10.00">PREPARATION</text>
</g>
<!-- PREPARATION&#45;&gt;READY -->
<g id="edge3" class="edge"><title>PREPARATION&#45;&gt;READY</title>
<path fill="none" stroke="black" d="M93.2277,-134.252C104.995,-131.495 117.731,-128.511 129.249,-125.813"/>
<polygon fill="black" stroke="black" points="130.064,-129.216 139.002,-123.527 128.467,-122.401 130.064,-129.216"/>
</g>
<!-- EXECUTION -->
<g id="node4" class="node"><title>EXECUTION</title>
<ellipse fill="none" stroke="black" cx="50.625" cy="-90" rx="43.6222" ry="18"/>
<text text-anchor="middle" x="50.625" y="-87.5" font-family="Times,serif" font-size="10.00">EXECUTION</text>
</g>
<!-- EXECUTION&#45;&gt;READY -->
<g id="edge4" class="edge"><title>EXECUTION&#45;&gt;READY</title>
<path fill="none" stroke="black" d="M89.0387,-98.7661C101.899,-101.779 116.297,-105.153 129.179,-108.171"/>
<polygon fill="black" stroke="black" points="128.591,-111.628 139.126,-110.502 130.188,-104.813 128.591,-111.628"/>
</g>
</g>
</svg>
