<?xml version="1.0" encoding="UTF-8" standalone="no"?>
<!DOCTYPE svg PUBLIC "-//W3C//DTD SVG 1.1//EN"
 "http://www.w3.org/Graphics/SVG/1.1/DTD/svg11.dtd">
<!-- Generated by graphviz version 2.38.0 (20140413.2041)
 -->
<!-- Title: errorPass Pages: 1 -->
<svg width="162pt" height="66pt"
 viewBox="0.00 0.00 162.00 66.00" xmlns="http://www.w3.org/2000/svg" xmlns:xlink="http://www.w3.org/1999/xlink">
<g id="graph0" class="graph" transform="scale(1 1) rotate(0) translate(4 62)">
<title>errorPass</title>
<!-- Node1 -->
<g id="node1" class="node"><title>Node1</title>
<polygon fill="#bfbfbf" stroke="black" points="0,-19.5 0,-38.5 59,-38.5 59,-19.5 0,-19.5"/>
<text text-anchor="middle" x="29.5" y="-26.5" font-family="Helvetica,sans-Serif" font-size="10.00">errorPass</text>
</g>
<!-- Node2 -->
<g id="node2" class="node"><title>Node2</title>
<g id="a_node2"><a xlink:href="Error_8h.html#a95ca3be7799b543b94c354b570250484" target="_top" xlink:title="errorImpl">
<polygon fill="none" stroke="black" points="97,-38.5 97,-57.5 152,-57.5 152,-38.5 97,-38.5"/>
<text text-anchor="middle" x="124.5" y="-45.5" font-family="Helvetica,sans-Serif" font-size="10.00">errorImpl</text>
</a>
</g>
</g>
<!-- Node1&#45;&gt;Node2 -->
<g id="edge1" class="edge"><title>Node1&#45;&gt;Node2</title>
<path fill="none" stroke="midnightblue" d="M69.0978,-36.8856C78.4839,-38.8032 88.3124,-40.8111 96.9929,-42.5846"/>
<polygon fill="midnightblue" stroke="midnightblue" points="69.6601,-33.4282 59.1619,-34.8557 68.2589,-40.2866 69.6601,-33.4282"/>
</g>
<!-- Node3 -->
<g id="node3" class="node"><title>Node3</title>
<g id="a_node3"><a xlink:href="Error_8h.html#a7c1a66055eeaf059b31887ab6e5a5680" target="_top" xlink:title="errorPass">
<polygon fill="none" stroke="black" points="95,-0.5 95,-19.5 154,-19.5 154,-0.5 95,-0.5"/>
<text text-anchor="middle" x="124.5" y="-7.5" font-family="Helvetica,sans-Serif" font-size="10.00">errorPass</text>
</a>
</g>
</g>
<!-- Node1&#45;&gt;Node3 -->
<g id="edge2" class="edge"><title>Node1&#45;&gt;Node3</title>
<path fill="none" stroke="midnightblue" d="M69.0289,-21.1285C77.6442,-19.3684 86.6357,-17.5314 94.7726,-15.869"/>
<polygon fill="midnightblue" stroke="midnightblue" points="68.2589,-17.7134 59.1619,-23.1443 69.6601,-24.5718 68.2589,-17.7134"/>
</g>
</g>
</svg>
