<?xml version="1.0" encoding="UTF-8" standalone="no"?>
<!DOCTYPE svg PUBLIC "-//W3C//DTD SVG 1.1//EN"
 "http://www.w3.org/Graphics/SVG/1.1/DTD/svg11.dtd">
<!-- Generated by graphviz version 2.38.0 (20140413.2041)
 -->
<!-- Title: errorOut Pages: 1 -->
<svg width="250pt" height="66pt"
 viewBox="0.00 0.00 250.00 66.00" xmlns="http://www.w3.org/2000/svg" xmlns:xlink="http://www.w3.org/1999/xlink">
<g id="graph0" class="graph" transform="scale(1 1) rotate(0) translate(4 62)">
<title>errorOut</title>
<!-- Node1 -->
<g id="node1" class="node"><title>Node1</title>
<polygon fill="#bfbfbf" stroke="black" points="0,-19.5 0,-38.5 52,-38.5 52,-19.5 0,-19.5"/>
<text text-anchor="middle" x="26" y="-26.5" font-family="Helvetica,sans-Serif" font-size="10.00">errorOut</text>
</g>
<!-- Node2 -->
<g id="node2" class="node"><title>Node2</title>
<g id="a_node2"><a xlink:href="Error_8h.html#a1254811d0303ae8a950ecd203ac3f3b0" target="_top" xlink:title="errorPass">
<polygon fill="none" stroke="black" points="88,-19.5 88,-38.5 147,-38.5 147,-19.5 88,-19.5"/>
<text text-anchor="middle" x="117.5" y="-26.5" font-family="Helvetica,sans-Serif" font-size="10.00">errorPass</text>
</a>
</g>
</g>
<!-- Node1&#45;&gt;Node2 -->
<g id="edge1" class="edge"><title>Node1&#45;&gt;Node2</title>
<path fill="none" stroke="midnightblue" d="M62.6804,-29C71.0506,-29 79.8626,-29 87.8778,-29"/>
<polygon fill="midnightblue" stroke="midnightblue" points="62.4077,-25.5001 52.4077,-29 62.4077,-32.5001 62.4077,-25.5001"/>
</g>
<!-- Node3 -->
<g id="node3" class="node"><title>Node3</title>
<g id="a_node3"><a xlink:href="Error_8h.html#a7c1a66055eeaf059b31887ab6e5a5680" target="_top" xlink:title="errorPass">
<polygon fill="none" stroke="black" points="183,-38.5 183,-57.5 242,-57.5 242,-38.5 183,-38.5"/>
<text text-anchor="middle" x="212.5" y="-45.5" font-family="Helvetica,sans-Serif" font-size="10.00">errorPass</text>
</a>
</g>
</g>
<!-- Node2&#45;&gt;Node3 -->
<g id="edge2" class="edge"><title>Node2&#45;&gt;Node3</title>
<path fill="none" stroke="midnightblue" d="M157.029,-36.8715C165.644,-38.6316 174.636,-40.4686 182.773,-42.131"/>
<polygon fill="midnightblue" stroke="midnightblue" points="157.66,-33.4282 147.162,-34.8557 156.259,-40.2866 157.66,-33.4282"/>
</g>
<!-- Node4 -->
<g id="node4" class="node"><title>Node4</title>
<g id="a_node4"><a xlink:href="Error_8h.html#a95ca3be7799b543b94c354b570250484" target="_top" xlink:title="errorImpl">
<polygon fill="none" stroke="black" points="185,-0.5 185,-19.5 240,-19.5 240,-0.5 185,-0.5"/>
<text text-anchor="middle" x="212.5" y="-7.5" font-family="Helvetica,sans-Serif" font-size="10.00">errorImpl</text>
</a>
</g>
</g>
<!-- Node2&#45;&gt;Node4 -->
<g id="edge3" class="edge"><title>Node2&#45;&gt;Node4</title>
<path fill="none" stroke="midnightblue" d="M157.098,-21.1144C166.484,-19.1968 176.312,-17.1889 184.993,-15.4154"/>
<polygon fill="midnightblue" stroke="midnightblue" points="156.259,-17.7134 147.162,-23.1443 157.66,-24.5718 156.259,-17.7134"/>
</g>
</g>
</svg>
