<?xml version="1.0" encoding="UTF-8" standalone="no"?>
<!DOCTYPE svg PUBLIC "-//W3C//DTD SVG 1.1//EN"
 "http://www.w3.org/Graphics/SVG/1.1/DTD/svg11.dtd">
<!-- Generated by graphviz version 2.38.0 (20140413.2041)
 -->
<!-- Title: errorPass Pages: 1 -->
<svg width="250pt" height="47pt"
 viewBox="0.00 0.00 250.00 47.00" xmlns="http://www.w3.org/2000/svg" xmlns:xlink="http://www.w3.org/1999/xlink">
<g id="graph0" class="graph" transform="scale(1 1) rotate(0) translate(4 43)">
<title>errorPass</title>
<!-- Node1 -->
<g id="node1" class="node"><title>Node1</title>
<polygon fill="#bfbfbf" stroke="black" points="0,-19.5 0,-38.5 59,-38.5 59,-19.5 0,-19.5"/>
<text text-anchor="middle" x="29.5" y="-26.5" font-family="Helvetica,sans-Serif" font-size="10.00">errorPass</text>
</g>
<!-- Node2 -->
<g id="node2" class="node"><title>Node2</title>
<g id="a_node2"><a xlink:href="Error_8h.html#a7d2e4ada57b644a050bfa5b30d202a85" target="_top" xlink:title="errorOut">
<polygon fill="none" stroke="black" points="190,-19.5 190,-38.5 242,-38.5 242,-19.5 190,-19.5"/>
<text text-anchor="middle" x="216" y="-26.5" font-family="Helvetica,sans-Serif" font-size="10.00">errorOut</text>
</a>
</g>
</g>
<!-- Node1&#45;&gt;Node2 -->
<g id="edge1" class="edge"><title>Node1&#45;&gt;Node2</title>
<path fill="none" stroke="midnightblue" d="M59.3281,-29C91.8421,-29 144.729,-29 179.693,-29"/>
<polygon fill="midnightblue" stroke="midnightblue" points="179.926,-32.5001 189.925,-29 179.925,-25.5001 179.926,-32.5001"/>
</g>
<!-- Node3 -->
<g id="node3" class="node"><title>Node3</title>
<g id="a_node3"><a xlink:href="Error_8h.html#a1254811d0303ae8a950ecd203ac3f3b0" target="_top" xlink:title="errorPass">
<polygon fill="none" stroke="black" points="95,-0.5 95,-19.5 154,-19.5 154,-0.5 95,-0.5"/>
<text text-anchor="middle" x="124.5" y="-7.5" font-family="Helvetica,sans-Serif" font-size="10.00">errorPass</text>
</a>
</g>
</g>
<!-- Node1&#45;&gt;Node3 -->
<g id="edge2" class="edge"><title>Node1&#45;&gt;Node3</title>
<path fill="none" stroke="midnightblue" d="M59.1619,-23.1443C67.2942,-21.4829 76.2845,-19.6462 84.9018,-17.8857"/>
<polygon fill="midnightblue" stroke="midnightblue" points="85.6756,-21.2999 94.7726,-15.869 84.2744,-14.4416 85.6756,-21.2999"/>
</g>
<!-- Node3&#45;&gt;Node2 -->
<g id="edge3" class="edge"><title>Node3&#45;&gt;Node2</title>
<path fill="none" stroke="midnightblue" d="M154.311,-16.1163C162.449,-17.8439 171.396,-19.7432 179.861,-21.5403"/>
<polygon fill="midnightblue" stroke="midnightblue" points="179.352,-25.0102 189.861,-23.6632 180.806,-18.1628 179.352,-25.0102"/>
</g>
</g>
</svg>
