<?xml version="1.0" encoding="UTF-8" standalone="no"?>
<!DOCTYPE svg PUBLIC "-//W3C//DTD SVG 1.1//EN"
 "http://www.w3.org/Graphics/SVG/1.1/DTD/svg11.dtd">
<!-- Generated by graphviz version 2.38.0 (20140413.2041)
 -->
<!-- Title: main Pages: 1 -->
<svg width="255pt" height="225pt"
 viewBox="0.00 0.00 255.00 224.50" xmlns="http://www.w3.org/2000/svg" xmlns:xlink="http://www.w3.org/1999/xlink">
<g id="graph0" class="graph" transform="scale(1 1) rotate(0) translate(4 220.5)">
<title>main</title>
<!-- Node1 -->
<g id="node1" class="node"><title>Node1</title>
<polygon fill="#bfbfbf" stroke="black" points="0,-104 0,-123 38,-123 38,-104 0,-104"/>
<text text-anchor="middle" x="19" y="-111" font-family="Helvetica,sans-Serif" font-size="10.00">main</text>
</g>
<!-- Node2 -->
<g id="node2" class="node"><title>Node2</title>
<g id="a_node2"><a xlink:href="ExampleNode_8cpp.html#a15de0078748e87c8e7bd6dd23267ab16" target="_top" xlink:title="activateDebug">
<polygon fill="none" stroke="black" points="120.5,-197 120.5,-216 200.5,-216 200.5,-197 120.5,-197"/>
<text text-anchor="middle" x="160.5" y="-204" font-family="Helvetica,sans-Serif" font-size="10.00">activateDebug</text>
</a>
</g>
</g>
<!-- Node1&#45;&gt;Node2 -->
<g id="edge1" class="edge"><title>Node1&#45;&gt;Node2</title>
<path fill="none" stroke="midnightblue" d="M24.2307,-123.18C31.7721,-139.235 49.1154,-171.213 74,-187.5 84.742,-194.531 97.6984,-198.99 110.24,-201.81"/>
<polygon fill="midnightblue" stroke="midnightblue" points="109.675,-205.266 120.159,-203.738 111.011,-198.395 109.675,-205.266"/>
</g>
<!-- Node3 -->
<g id="node3" class="node"><title>Node3</title>
<g id="a_node3"><a xlink:href="classatwork__commander_1_1ConfigParserInterface.html#a0fee875a33bb01ee9b3a8927893d3ea7" target="_top" xlink:title="atwork_commander::Config\lParserInterface::arena">
<polygon fill="none" stroke="black" points="92,-147.5 92,-177.5 229,-177.5 229,-147.5 92,-147.5"/>
<text text-anchor="start" x="100" y="-165.5" font-family="Helvetica,sans-Serif" font-size="10.00">atwork_commander::Config</text>
<text text-anchor="middle" x="160.5" y="-154.5" font-family="Helvetica,sans-Serif" font-size="10.00">ParserInterface::arena</text>
</a>
</g>
</g>
<!-- Node1&#45;&gt;Node3 -->
<g id="edge2" class="edge"><title>Node1&#45;&gt;Node3</title>
<path fill="none" stroke="midnightblue" d="M38.1856,-122.806C48.5162,-127.866 61.7884,-133.992 74,-138.5 79.5594,-140.552 85.3769,-142.529 91.2496,-144.407"/>
<polygon fill="midnightblue" stroke="midnightblue" points="90.5615,-147.858 101.149,-147.47 92.6307,-141.171 90.5615,-147.858"/>
</g>
<!-- Node4 -->
<g id="node4" class="node"><title>Node4</title>
<g id="a_node4"><a xlink:href="classatwork__commander_1_1TaskGenerator.html#a4ee8fd6c263901f11e3ac8f111cdb251" target="_top" xlink:title="Check task for basic soundness. ">
<polygon fill="none" stroke="black" points="74,-98.5 74,-128.5 247,-128.5 247,-98.5 74,-98.5"/>
<text text-anchor="start" x="82" y="-116.5" font-family="Helvetica,sans-Serif" font-size="10.00">atwork_commander::TaskGenerator</text>
<text text-anchor="middle" x="160.5" y="-105.5" font-family="Helvetica,sans-Serif" font-size="10.00">::check</text>
</a>
</g>
</g>
<!-- Node1&#45;&gt;Node4 -->
<g id="edge3" class="edge"><title>Node1&#45;&gt;Node4</title>
<path fill="none" stroke="midnightblue" d="M38.2372,-113.5C45.3629,-113.5 54.1093,-113.5 63.6125,-113.5"/>
<polygon fill="midnightblue" stroke="midnightblue" points="63.7535,-117 73.7535,-113.5 63.7535,-110 63.7535,-117"/>
</g>
<!-- Node5 -->
<g id="node5" class="node"><title>Node5</title>
<g id="a_node5"><a xlink:href="classatwork__commander_1_1TaskGenerator.html#ada500a02be7c716eebe693e349296888" target="_top" xlink:title="atwork_commander::TaskGenerator\l::config">
<polygon fill="none" stroke="black" points="74,-49.5 74,-79.5 247,-79.5 247,-49.5 74,-49.5"/>
<text text-anchor="start" x="82" y="-67.5" font-family="Helvetica,sans-Serif" font-size="10.00">atwork_commander::TaskGenerator</text>
<text text-anchor="middle" x="160.5" y="-56.5" font-family="Helvetica,sans-Serif" font-size="10.00">::config</text>
</a>
</g>
</g>
<!-- Node1&#45;&gt;Node5 -->
<g id="edge4" class="edge"><title>Node1&#45;&gt;Node5</title>
<path fill="none" stroke="midnightblue" d="M38.2434,-104.66C48.592,-99.8323 61.8631,-93.9489 74,-89.5 80.4389,-87.1398 87.2126,-84.8471 94.0118,-82.6694"/>
<polygon fill="midnightblue" stroke="midnightblue" points="95.4521,-85.8865 103.956,-79.5666 93.367,-79.2042 95.4521,-85.8865"/>
</g>
<!-- Node6 -->
<g id="node6" class="node"><title>Node6</title>
<g id="a_node6"><a xlink:href="classatwork__commander_1_1ConfigParserInterface.html#ab3569dab380bb54ae93f0db7409cb0a3" target="_top" xlink:title="atwork_commander::Config\lParserInterface::tasks">
<polygon fill="none" stroke="black" points="92,-0.5 92,-30.5 229,-30.5 229,-0.5 92,-0.5"/>
<text text-anchor="start" x="100" y="-18.5" font-family="Helvetica,sans-Serif" font-size="10.00">atwork_commander::Config</text>
<text text-anchor="middle" x="160.5" y="-7.5" font-family="Helvetica,sans-Serif" font-size="10.00">ParserInterface::tasks</text>
</a>
</g>
</g>
<!-- Node1&#45;&gt;Node6 -->
<g id="edge5" class="edge"><title>Node1&#45;&gt;Node6</title>
<path fill="none" stroke="midnightblue" d="M24.5106,-103.874C32.3431,-88.2115 49.953,-57.2777 74,-40.5 76.8775,-38.4923 79.9165,-36.6442 83.0658,-34.943"/>
<polygon fill="midnightblue" stroke="midnightblue" points="84.7136,-38.034 92.1905,-30.5276 81.6645,-31.7329 84.7136,-38.034"/>
</g>
</g>
</svg>
