<?xml version="1.0" encoding="UTF-8" standalone="no"?>
<!DOCTYPE svg PUBLIC "-//W3C//DTD SVG 1.1//EN"
 "http://www.w3.org/Graphics/SVG/1.1/DTD/svg11.dtd">
<!-- Generated by graphviz version 2.38.0 (20140413.2041)
 -->
<!-- Title: /home/travis/build/steup/atwork&#45;commander/atwork_commander_gen/src/ExampleNode.cpp Pages: 1 -->
<svg width="778pt" height="251pt"
 viewBox="0.00 0.00 777.50 251.00" xmlns="http://www.w3.org/2000/svg" xmlns:xlink="http://www.w3.org/1999/xlink">
<g id="graph0" class="graph" transform="scale(1 1) rotate(0) translate(4 247)">
<title>/home/travis/build/steup/atwork&#45;commander/atwork_commander_gen/src/ExampleNode.cpp</title>
<!-- Node1 -->
<g id="node1" class="node"><title>Node1</title>
<polygon fill="#bfbfbf" stroke="black" points="499,-190.5 499,-242.5 642,-242.5 642,-190.5 499,-190.5"/>
<text text-anchor="start" x="507" y="-230.5" font-family="Helvetica,sans-Serif" font-size="10.00">/home/travis/build</text>
<text text-anchor="start" x="507" y="-219.5" font-family="Helvetica,sans-Serif" font-size="10.00">/steup/atwork&#45;commander</text>
<text text-anchor="start" x="507" y="-208.5" font-family="Helvetica,sans-Serif" font-size="10.00">/atwork_commander_gen/src</text>
<text text-anchor="middle" x="570.5" y="-197.5" font-family="Helvetica,sans-Serif" font-size="10.00">/ExampleNode.cpp</text>
</g>
<!-- Node2 -->
<g id="node2" class="node"><title>Node2</title>
<g id="a_node2"><a xlink:href="TaskGenerator_8h.html" target="_top" xlink:title="atwork_commander_gen\l/TaskGenerator.h">
<polygon fill="none" stroke="black" points="277,-123.5 277,-153.5 400,-153.5 400,-123.5 277,-123.5"/>
<text text-anchor="start" x="285" y="-141.5" font-family="Helvetica,sans-Serif" font-size="10.00">atwork_commander_gen</text>
<text text-anchor="middle" x="338.5" y="-130.5" font-family="Helvetica,sans-Serif" font-size="10.00">/TaskGenerator.h</text>
</a>
</g>
</g>
<!-- Node1&#45;&gt;Node2 -->
<g id="edge1" class="edge"><title>Node1&#45;&gt;Node2</title>
<path fill="none" stroke="midnightblue" d="M498.999,-192.077C464.129,-180.654 422.936,-167.16 391.013,-156.703"/>
<polygon fill="midnightblue" stroke="midnightblue" points="392.014,-153.347 381.421,-153.56 389.835,-160 392.014,-153.347"/>
</g>
<!-- Node11 -->
<g id="node11" class="node"><title>Node11</title>
<polygon fill="none" stroke="#bfbfbf" points="418,-129 418,-148 473,-148 473,-129 418,-129"/>
<text text-anchor="middle" x="445.5" y="-136" font-family="Helvetica,sans-Serif" font-size="10.00">ros/ros.h</text>
</g>
<!-- Node1&#45;&gt;Node11 -->
<g id="edge11" class="edge"><title>Node1&#45;&gt;Node11</title>
<path fill="none" stroke="midnightblue" d="M529.224,-190.404C508.943,-178.074 485.28,-163.686 468.294,-153.359"/>
<polygon fill="midnightblue" stroke="midnightblue" points="469.971,-150.282 459.608,-148.078 466.335,-156.264 469.971,-150.282"/>
</g>
<!-- Node12 -->
<g id="node12" class="node"><title>Node12</title>
<polygon fill="none" stroke="#bfbfbf" points="491,-129 491,-148 566,-148 566,-129 491,-129"/>
<text text-anchor="middle" x="528.5" y="-136" font-family="Helvetica,sans-Serif" font-size="10.00">ros/console.h</text>
</g>
<!-- Node1&#45;&gt;Node12 -->
<g id="edge12" class="edge"><title>Node1&#45;&gt;Node12</title>
<path fill="none" stroke="midnightblue" d="M556.515,-190.193C550.501,-179.312 543.621,-166.861 538.183,-157.022"/>
<polygon fill="midnightblue" stroke="midnightblue" points="541.213,-155.268 533.313,-148.209 535.086,-158.654 541.213,-155.268"/>
</g>
<!-- Node13 -->
<g id="node13" class="node"><title>Node13</title>
<polygon fill="none" stroke="#bfbfbf" points="584,-129 584,-148 643,-148 643,-129 584,-129"/>
<text text-anchor="middle" x="613.5" y="-136" font-family="Helvetica,sans-Serif" font-size="10.00">exception</text>
</g>
<!-- Node1&#45;&gt;Node13 -->
<g id="edge13" class="edge"><title>Node1&#45;&gt;Node13</title>
<path fill="none" stroke="midnightblue" d="M584.818,-190.193C590.975,-179.312 598.019,-166.861 603.586,-157.022"/>
<polygon fill="midnightblue" stroke="midnightblue" points="606.694,-158.636 608.573,-148.209 600.602,-155.189 606.694,-158.636"/>
</g>
<!-- Node14 -->
<g id="node14" class="node"><title>Node14</title>
<polygon fill="none" stroke="#bfbfbf" points="661.5,-129 661.5,-148 705.5,-148 705.5,-129 661.5,-129"/>
<text text-anchor="middle" x="683.5" y="-136" font-family="Helvetica,sans-Serif" font-size="10.00">thread</text>
</g>
<!-- Node1&#45;&gt;Node14 -->
<g id="edge14" class="edge"><title>Node1&#45;&gt;Node14</title>
<path fill="none" stroke="midnightblue" d="M607.814,-190.404C625.808,-178.302 646.748,-164.218 662.035,-153.937"/>
<polygon fill="midnightblue" stroke="midnightblue" points="664.401,-156.563 670.746,-148.078 660.495,-150.755 664.401,-156.563"/>
</g>
<!-- Node15 -->
<g id="node15" class="node"><title>Node15</title>
<polygon fill="none" stroke="#bfbfbf" points="723.5,-129 723.5,-148 769.5,-148 769.5,-129 723.5,-129"/>
<text text-anchor="middle" x="746.5" y="-136" font-family="Helvetica,sans-Serif" font-size="10.00">chrono</text>
</g>
<!-- Node1&#45;&gt;Node15 -->
<g id="edge15" class="edge"><title>Node1&#45;&gt;Node15</title>
<path fill="none" stroke="midnightblue" d="M630.177,-190.357C656.14,-179.33 686.881,-166.154 714.5,-154 715.861,-153.401 717.253,-152.785 718.657,-152.16"/>
<polygon fill="midnightblue" stroke="midnightblue" points="720.228,-155.291 727.918,-148.003 717.361,-148.905 720.228,-155.291"/>
</g>
<!-- Node3 -->
<g id="node3" class="node"><title>Node3</title>
<g id="a_node3"><a xlink:href="ConfigParserInterface_8h.html" target="_top" xlink:title="atwork_commander_gen\l/ConfigParserInterface.h">
<polygon fill="none" stroke="black" points="123,-56.5 123,-86.5 246,-86.5 246,-56.5 123,-56.5"/>
<text text-anchor="start" x="131" y="-74.5" font-family="Helvetica,sans-Serif" font-size="10.00">atwork_commander_gen</text>
<text text-anchor="middle" x="184.5" y="-63.5" font-family="Helvetica,sans-Serif" font-size="10.00">/ConfigParserInterface.h</text>
</a>
</g>
</g>
<!-- Node2&#45;&gt;Node3 -->
<g id="edge2" class="edge"><title>Node2&#45;&gt;Node3</title>
<path fill="none" stroke="midnightblue" d="M305.084,-123.396C282.28,-113.771 251.872,-100.936 227.297,-90.5637"/>
<polygon fill="midnightblue" stroke="midnightblue" points="228.425,-87.2406 217.85,-86.5765 225.702,-93.6897 228.425,-87.2406"/>
</g>
<!-- Node6 -->
<g id="node6" class="node"><title>Node6</title>
<polygon fill="none" stroke="#bfbfbf" points="280,-0.5 280,-19.5 321,-19.5 321,-0.5 280,-0.5"/>
<text text-anchor="middle" x="300.5" y="-7.5" font-family="Helvetica,sans-Serif" font-size="10.00">string</text>
</g>
<!-- Node2&#45;&gt;Node6 -->
<g id="edge9" class="edge"><title>Node2&#45;&gt;Node6</title>
<path fill="none" stroke="midnightblue" d="M329.045,-123.082C323.076,-113.295 315.719,-99.8456 311.5,-87 305.334,-68.2264 302.62,-45.7153 301.429,-30.0879"/>
<polygon fill="midnightblue" stroke="midnightblue" points="304.894,-29.4195 300.782,-19.6552 297.907,-29.8526 304.894,-29.4195"/>
</g>
<!-- Node9 -->
<g id="node9" class="node"><title>Node9</title>
<polygon fill="none" stroke="#bfbfbf" points="320,-56.5 320,-86.5 451,-86.5 451,-56.5 320,-56.5"/>
<text text-anchor="start" x="328" y="-74.5" font-family="Helvetica,sans-Serif" font-size="10.00">atwork_commander_msgs</text>
<text text-anchor="middle" x="385.5" y="-63.5" font-family="Helvetica,sans-Serif" font-size="10.00">/Task.h</text>
</g>
<!-- Node2&#45;&gt;Node9 -->
<g id="edge8" class="edge"><title>Node2&#45;&gt;Node9</title>
<path fill="none" stroke="midnightblue" d="M348.698,-123.396C354.734,-115.049 362.515,-104.287 369.367,-94.8113"/>
<polygon fill="midnightblue" stroke="midnightblue" points="372.298,-96.7309 375.322,-86.5765 366.626,-92.6292 372.298,-96.7309"/>
</g>
<!-- Node10 -->
<g id="node10" class="node"><title>Node10</title>
<polygon fill="none" stroke="#bfbfbf" points="469.5,-62 469.5,-81 521.5,-81 521.5,-62 469.5,-62"/>
<text text-anchor="middle" x="495.5" y="-69" font-family="Helvetica,sans-Serif" font-size="10.00">memory</text>
</g>
<!-- Node2&#45;&gt;Node10 -->
<g id="edge10" class="edge"><title>Node2&#45;&gt;Node10</title>
<path fill="none" stroke="midnightblue" d="M372.567,-123.396C400.236,-111.941 438.887,-95.9385 465.423,-84.9521"/>
<polygon fill="midnightblue" stroke="midnightblue" points="467.052,-88.0661 474.952,-81.007 464.374,-81.5985 467.052,-88.0661"/>
</g>
<!-- Node4 -->
<g id="node4" class="node"><title>Node4</title>
<polygon fill="none" stroke="#bfbfbf" points="0,-0.5 0,-19.5 83,-19.5 83,-0.5 0,-0.5"/>
<text text-anchor="middle" x="41.5" y="-7.5" font-family="Helvetica,sans-Serif" font-size="10.00">unordered_map</text>
</g>
<!-- Node3&#45;&gt;Node4 -->
<g id="edge3" class="edge"><title>Node3&#45;&gt;Node4</title>
<path fill="none" stroke="midnightblue" d="M150.611,-56.3993C126.618,-46.4163 94.7261,-33.1465 71.6226,-23.5335"/>
<polygon fill="midnightblue" stroke="midnightblue" points="72.885,-20.268 62.3078,-19.6578 70.1959,-26.7308 72.885,-20.268"/>
</g>
<!-- Node5 -->
<g id="node5" class="node"><title>Node5</title>
<polygon fill="none" stroke="#bfbfbf" points="101,-0.5 101,-19.5 136,-19.5 136,-0.5 101,-0.5"/>
<text text-anchor="middle" x="118.5" y="-7.5" font-family="Helvetica,sans-Serif" font-size="10.00">map</text>
</g>
<!-- Node3&#45;&gt;Node5 -->
<g id="edge4" class="edge"><title>Node3&#45;&gt;Node5</title>
<path fill="none" stroke="midnightblue" d="M168.859,-56.3993C158.873,-47.3967 145.922,-35.7214 135.655,-26.4652"/>
<polygon fill="midnightblue" stroke="midnightblue" points="137.875,-23.7541 128.104,-19.6578 133.187,-28.9533 137.875,-23.7541"/>
</g>
<!-- Node3&#45;&gt;Node6 -->
<g id="edge5" class="edge"><title>Node3&#45;&gt;Node6</title>
<path fill="none" stroke="midnightblue" d="M211.99,-56.3993C230.932,-46.6837 255.942,-33.8551 274.544,-24.3137"/>
<polygon fill="midnightblue" stroke="midnightblue" points="276.321,-27.336 283.621,-19.6578 273.126,-21.1076 276.321,-27.336"/>
</g>
<!-- Node7 -->
<g id="node7" class="node"><title>Node7</title>
<polygon fill="none" stroke="#bfbfbf" points="154,-0.5 154,-19.5 199,-19.5 199,-0.5 154,-0.5"/>
<text text-anchor="middle" x="176.5" y="-7.5" font-family="Helvetica,sans-Serif" font-size="10.00">iosfwd</text>
</g>
<!-- Node3&#45;&gt;Node7 -->
<g id="edge6" class="edge"><title>Node3&#45;&gt;Node7</title>
<path fill="none" stroke="midnightblue" d="M182.604,-56.3993C181.526,-48.3772 180.162,-38.2328 178.997,-29.569"/>
<polygon fill="midnightblue" stroke="midnightblue" points="182.465,-29.1022 177.664,-19.6578 175.528,-30.035 182.465,-29.1022"/>
</g>
<!-- Node8 -->
<g id="node8" class="node"><title>Node8</title>
<polygon fill="none" stroke="#bfbfbf" points="217.5,-0.5 217.5,-19.5 261.5,-19.5 261.5,-0.5 217.5,-0.5"/>
<text text-anchor="middle" x="239.5" y="-7.5" font-family="Helvetica,sans-Serif" font-size="10.00">vector</text>
</g>
<!-- Node3&#45;&gt;Node8 -->
<g id="edge7" class="edge"><title>Node3&#45;&gt;Node8</title>
<path fill="none" stroke="midnightblue" d="M197.534,-56.3993C205.691,-47.575 216.222,-36.1827 224.694,-27.0178"/>
<polygon fill="midnightblue" stroke="midnightblue" points="227.279,-29.3769 231.497,-19.6578 222.139,-24.6253 227.279,-29.3769"/>
</g>
</g>
</svg>
