<?xml version="1.0" encoding="UTF-8" standalone="no"?>
<!DOCTYPE svg PUBLIC "-//W3C//DTD SVG 1.1//EN"
 "http://www.w3.org/Graphics/SVG/1.1/DTD/svg11.dtd">
<!-- Generated by graphviz version 2.38.0 (20140413.2041)
 -->
<!-- Title: /home/travis/build/steup/atwork&#45;commander/atwork_commander_core/tests/src/external.cpp Pages: 1 -->
<svg width="683pt" height="240pt"
 viewBox="0.00 0.00 683.00 240.00" xmlns="http://www.w3.org/2000/svg" xmlns:xlink="http://www.w3.org/1999/xlink">
<g id="graph0" class="graph" transform="scale(1 1) rotate(0) translate(4 236)">
<title>/home/travis/build/steup/atwork&#45;commander/atwork_commander_core/tests/src/external.cpp</title>
<!-- Node1 -->
<g id="node1" class="node"><title>Node1</title>
<polygon fill="#bfbfbf" stroke="black" points="433.5,-179.5 433.5,-231.5 563.5,-231.5 563.5,-179.5 433.5,-179.5"/>
<text text-anchor="start" x="441.5" y="-219.5" font-family="Helvetica,sans-Serif" font-size="10.00">/home/travis/build</text>
<text text-anchor="start" x="441.5" y="-208.5" font-family="Helvetica,sans-Serif" font-size="10.00">/steup/atwork&#45;commander</text>
<text text-anchor="start" x="441.5" y="-197.5" font-family="Helvetica,sans-Serif" font-size="10.00">/atwork_commander_core</text>
<text text-anchor="middle" x="498.5" y="-186.5" font-family="Helvetica,sans-Serif" font-size="10.00">/tests/src/external.cpp</text>
</g>
<!-- Node2 -->
<g id="node2" class="node"><title>Node2</title>
<g id="a_node2"><a xlink:href="BasicControlTest_8hpp.html" target="_top" xlink:title="BasicControlTest.hpp">
<polygon fill="none" stroke="black" points="443,-123.5 443,-142.5 554,-142.5 554,-123.5 443,-123.5"/>
<text text-anchor="middle" x="498.5" y="-130.5" font-family="Helvetica,sans-Serif" font-size="10.00">BasicControlTest.hpp</text>
</a>
</g>
</g>
<!-- Node1&#45;&gt;Node2 -->
<g id="edge1" class="edge"><title>Node1&#45;&gt;Node2</title>
<path fill="none" stroke="midnightblue" d="M498.5,-179.446C498.5,-170.73 498.5,-161.104 498.5,-152.964"/>
<polygon fill="midnightblue" stroke="midnightblue" points="502,-152.695 498.5,-142.695 495,-152.696 502,-152.695"/>
</g>
<!-- Node3 -->
<g id="node3" class="node"><title>Node3</title>
<polygon fill="none" stroke="#bfbfbf" points="242,-67.5 242,-86.5 297,-86.5 297,-67.5 242,-67.5"/>
<text text-anchor="middle" x="269.5" y="-74.5" font-family="Helvetica,sans-Serif" font-size="10.00">ros/ros.h</text>
</g>
<!-- Node2&#45;&gt;Node3 -->
<g id="edge2" class="edge"><title>Node2&#45;&gt;Node3</title>
<path fill="none" stroke="midnightblue" d="M461.098,-123.465C424.239,-115.012 366.056,-101.561 306.893,-87.3109"/>
<polygon fill="midnightblue" stroke="midnightblue" points="307.548,-83.8687 297.006,-84.9244 305.906,-90.6733 307.548,-83.8687"/>
</g>
<!-- Node4 -->
<g id="node4" class="node"><title>Node4</title>
<g id="a_node4"><a xlink:href="Control_8hpp.html" target="_top" xlink:title="atwork_commander/Control.hpp">
<polygon fill="none" stroke="black" points="315,-67.5 315,-86.5 470,-86.5 470,-67.5 315,-67.5"/>
<text text-anchor="middle" x="392.5" y="-74.5" font-family="Helvetica,sans-Serif" font-size="10.00">atwork_commander/Control.hpp</text>
</a>
</g>
</g>
<!-- Node2&#45;&gt;Node4 -->
<g id="edge3" class="edge"><title>Node2&#45;&gt;Node4</title>
<path fill="none" stroke="midnightblue" d="M481.469,-123.324C464.47,-114.664 438.124,-101.242 418.507,-91.249"/>
<polygon fill="midnightblue" stroke="midnightblue" points="419.988,-88.0752 409.488,-86.6545 416.81,-94.3125 419.988,-88.0752"/>
</g>
<!-- Node8 -->
<g id="node8" class="node"><title>Node8</title>
<polygon fill="none" stroke="#bfbfbf" points="508,-6 508,-25 549,-25 549,-6 508,-6"/>
<text text-anchor="middle" x="528.5" y="-13" font-family="Helvetica,sans-Serif" font-size="10.00">string</text>
</g>
<!-- Node2&#45;&gt;Node8 -->
<g id="edge10" class="edge"><title>Node2&#45;&gt;Node8</title>
<path fill="none" stroke="midnightblue" d="M500.755,-123.319C505.598,-104.673 517.086,-60.443 523.661,-35.1317"/>
<polygon fill="midnightblue" stroke="midnightblue" points="527.092,-35.8408 526.219,-25.282 520.317,-34.0809 527.092,-35.8408"/>
</g>
<!-- Node10 -->
<g id="node10" class="node"><title>Node10</title>
<polygon fill="none" stroke="#bfbfbf" points="527,-67.5 527,-86.5 598,-86.5 598,-67.5 527,-67.5"/>
<text text-anchor="middle" x="562.5" y="-74.5" font-family="Helvetica,sans-Serif" font-size="10.00">gtest/gtest.h</text>
</g>
<!-- Node2&#45;&gt;Node10 -->
<g id="edge9" class="edge"><title>Node2&#45;&gt;Node10</title>
<path fill="none" stroke="midnightblue" d="M508.783,-123.324C518.336,-115.263 532.78,-103.077 544.284,-93.3695"/>
<polygon fill="midnightblue" stroke="midnightblue" points="546.644,-95.9577 552.03,-86.8339 542.13,-90.6076 546.644,-95.9577"/>
</g>
<!-- Node11 -->
<g id="node11" class="node"><title>Node11</title>
<polygon fill="none" stroke="#bfbfbf" points="616,-67.5 616,-86.5 675,-86.5 675,-67.5 616,-67.5"/>
<text text-anchor="middle" x="645.5" y="-74.5" font-family="Helvetica,sans-Serif" font-size="10.00">functional</text>
</g>
<!-- Node2&#45;&gt;Node11 -->
<g id="edge11" class="edge"><title>Node2&#45;&gt;Node11</title>
<path fill="none" stroke="midnightblue" d="M521.793,-123.444C546.307,-114.438 585.096,-100.189 612.7,-90.049"/>
<polygon fill="midnightblue" stroke="midnightblue" points="614.137,-93.25 622.316,-86.5164 611.723,-86.6793 614.137,-93.25"/>
</g>
<!-- Node5 -->
<g id="node5" class="node"><title>Node5</title>
<polygon fill="none" stroke="#bfbfbf" points="0,-0.5 0,-30.5 131,-30.5 131,-0.5 0,-0.5"/>
<text text-anchor="start" x="8" y="-18.5" font-family="Helvetica,sans-Serif" font-size="10.00">atwork_commander_msgs</text>
<text text-anchor="middle" x="65.5" y="-7.5" font-family="Helvetica,sans-Serif" font-size="10.00">/RefboxState.h</text>
</g>
<!-- Node4&#45;&gt;Node5 -->
<g id="edge4" class="edge"><title>Node4&#45;&gt;Node5</title>
<path fill="none" stroke="midnightblue" d="M343.005,-67.4598C294.162,-58.973 217.083,-45.4223 141.434,-31.3454"/>
<polygon fill="midnightblue" stroke="midnightblue" points="141.728,-27.8399 131.256,-29.4465 140.445,-34.7212 141.728,-27.8399"/>
</g>
<!-- Node6 -->
<g id="node6" class="node"><title>Node6</title>
<polygon fill="none" stroke="#bfbfbf" points="149,-0.5 149,-30.5 280,-30.5 280,-0.5 149,-0.5"/>
<text text-anchor="start" x="157" y="-18.5" font-family="Helvetica,sans-Serif" font-size="10.00">atwork_commander_msgs</text>
<text text-anchor="middle" x="214.5" y="-7.5" font-family="Helvetica,sans-Serif" font-size="10.00">/Task.h</text>
</g>
<!-- Node4&#45;&gt;Node6 -->
<g id="edge5" class="edge"><title>Node4&#45;&gt;Node6</title>
<path fill="none" stroke="midnightblue" d="M366.997,-67.4751C340.749,-58.7012 299.126,-44.788 265.992,-33.7123"/>
<polygon fill="midnightblue" stroke="midnightblue" points="267.045,-30.3738 256.451,-30.523 264.826,-37.0128 267.045,-30.3738"/>
</g>
<!-- Node7 -->
<g id="node7" class="node"><title>Node7</title>
<polygon fill="none" stroke="#bfbfbf" points="298,-6 298,-25 427,-25 427,-6 298,-6"/>
<text text-anchor="middle" x="362.5" y="-13" font-family="Helvetica,sans-Serif" font-size="10.00">boost/filesystem/path.hpp</text>
</g>
<!-- Node4&#45;&gt;Node7 -->
<g id="edge6" class="edge"><title>Node4&#45;&gt;Node7</title>
<path fill="none" stroke="midnightblue" d="M388.202,-67.4751C383.835,-58.8152 376.945,-45.1486 371.397,-34.1453"/>
<polygon fill="midnightblue" stroke="midnightblue" points="374.418,-32.3625 366.79,-25.0091 368.167,-35.5141 374.418,-32.3625"/>
</g>
<!-- Node4&#45;&gt;Node8 -->
<g id="edge7" class="edge"><title>Node4&#45;&gt;Node8</title>
<path fill="none" stroke="midnightblue" d="M413.749,-67.3364C435.245,-58.4886 469.369,-44.214 498.5,-31 499.656,-30.4758 500.834,-29.9349 502.021,-29.3841"/>
<polygon fill="midnightblue" stroke="midnightblue" points="503.577,-32.5204 511.118,-25.0786 500.582,-26.1933 503.577,-32.5204"/>
</g>
<!-- Node9 -->
<g id="node9" class="node"><title>Node9</title>
<polygon fill="none" stroke="#bfbfbf" points="445.5,-6 445.5,-25 489.5,-25 489.5,-6 445.5,-6"/>
<text text-anchor="middle" x="467.5" y="-13" font-family="Helvetica,sans-Serif" font-size="10.00">vector</text>
</g>
<!-- Node4&#45;&gt;Node9 -->
<g id="edge8" class="edge"><title>Node4&#45;&gt;Node9</title>
<path fill="none" stroke="midnightblue" d="M403.246,-67.4751C415.053,-58.1082 434.243,-42.8839 448.582,-31.5081"/>
<polygon fill="midnightblue" stroke="midnightblue" points="451.115,-33.9661 456.774,-25.0091 446.765,-28.4822 451.115,-33.9661"/>
</g>
</g>
</svg>
