<?xml version="1.0" encoding="UTF-8" standalone="no"?>
<!DOCTYPE svg PUBLIC "-//W3C//DTD SVG 1.1//EN"
 "http://www.w3.org/Graphics/SVG/1.1/DTD/svg11.dtd">
<!-- Generated by graphviz version 2.38.0 (20140413.2041)
 -->
<!-- Title: /home/travis/build/steup/atwork&#45;commander/atwork_commander_gen/src/Generator.h Pages: 1 -->
<svg width="426pt" height="195pt"
 viewBox="0.00 0.00 426.00 195.00" xmlns="http://www.w3.org/2000/svg" xmlns:xlink="http://www.w3.org/1999/xlink">
<g id="graph0" class="graph" transform="scale(1 1) rotate(0) translate(4 191)">
<title>/home/travis/build/steup/atwork&#45;commander/atwork_commander_gen/src/Generator.h</title>
<!-- Node1 -->
<g id="node1" class="node"><title>Node1</title>
<polygon fill="#bfbfbf" stroke="black" points="202,-134.5 202,-186.5 345,-186.5 345,-134.5 202,-134.5"/>
<text text-anchor="start" x="210" y="-174.5" font-family="Helvetica,sans-Serif" font-size="10.00">/home/travis/build</text>
<text text-anchor="start" x="210" y="-163.5" font-family="Helvetica,sans-Serif" font-size="10.00">/steup/atwork&#45;commander</text>
<text text-anchor="start" x="210" y="-152.5" font-family="Helvetica,sans-Serif" font-size="10.00">/atwork_commander_gen/src</text>
<text text-anchor="middle" x="273.5" y="-141.5" font-family="Helvetica,sans-Serif" font-size="10.00">/Generator.h</text>
</g>
<!-- Node2 -->
<g id="node2" class="node"><title>Node2</title>
<g id="a_node2"><a xlink:href="GeneratorPluginInterface_8h.html" target="_top" xlink:title="atwork_commander_gen\l/GeneratorPluginInterface.h">
<polygon fill="none" stroke="black" points="49.5,-67.5 49.5,-97.5 185.5,-97.5 185.5,-67.5 49.5,-67.5"/>
<text text-anchor="start" x="57.5" y="-85.5" font-family="Helvetica,sans-Serif" font-size="10.00">atwork_commander_gen</text>
<text text-anchor="middle" x="117.5" y="-74.5" font-family="Helvetica,sans-Serif" font-size="10.00">/GeneratorPluginInterface.h</text>
</a>
</g>
</g>
<!-- Node1&#45;&gt;Node2 -->
<g id="edge1" class="edge"><title>Node1&#45;&gt;Node2</title>
<path fill="none" stroke="midnightblue" d="M221.987,-134.404C200.382,-123.878 175.7,-111.854 155.751,-102.135"/>
<polygon fill="midnightblue" stroke="midnightblue" points="157.184,-98.9398 146.661,-97.7066 154.118,-105.233 157.184,-98.9398"/>
</g>
<!-- Node5 -->
<g id="node5" class="node"><title>Node5</title>
<polygon fill="none" stroke="#bfbfbf" points="203.5,-73 203.5,-92 257.5,-92 257.5,-73 203.5,-73"/>
<text text-anchor="middle" x="230.5" y="-80" font-family="Helvetica,sans-Serif" font-size="10.00">iostream</text>
</g>
<!-- Node1&#45;&gt;Node5 -->
<g id="edge4" class="edge"><title>Node1&#45;&gt;Node5</title>
<path fill="none" stroke="midnightblue" d="M259.182,-134.193C253.025,-123.312 245.981,-110.861 240.414,-101.022"/>
<polygon fill="midnightblue" stroke="midnightblue" points="243.398,-99.1889 235.427,-92.2089 237.306,-102.636 243.398,-99.1889"/>
</g>
<!-- Node6 -->
<g id="node6" class="node"><title>Node6</title>
<polygon fill="none" stroke="#bfbfbf" points="276,-73 276,-92 359,-92 359,-73 276,-73"/>
<text text-anchor="middle" x="317.5" y="-80" font-family="Helvetica,sans-Serif" font-size="10.00">unordered_map</text>
</g>
<!-- Node1&#45;&gt;Node6 -->
<g id="edge5" class="edge"><title>Node1&#45;&gt;Node6</title>
<path fill="none" stroke="midnightblue" d="M288.151,-134.193C294.451,-123.312 301.659,-110.861 307.355,-101.022"/>
<polygon fill="midnightblue" stroke="midnightblue" points="310.477,-102.617 312.458,-92.2089 304.419,-99.1095 310.477,-102.617"/>
</g>
<!-- Node7 -->
<g id="node7" class="node"><title>Node7</title>
<polygon fill="none" stroke="#bfbfbf" points="377,-73 377,-92 418,-92 418,-73 377,-73"/>
<text text-anchor="middle" x="397.5" y="-80" font-family="Helvetica,sans-Serif" font-size="10.00">regex</text>
</g>
<!-- Node1&#45;&gt;Node7 -->
<g id="edge6" class="edge"><title>Node1&#45;&gt;Node7</title>
<path fill="none" stroke="midnightblue" d="M314.446,-134.404C334.564,-122.074 358.038,-107.686 374.888,-97.3588"/>
<polygon fill="midnightblue" stroke="midnightblue" points="376.807,-100.288 383.504,-92.0779 373.149,-94.3195 376.807,-100.288"/>
</g>
<!-- Node3 -->
<g id="node3" class="node"><title>Node3</title>
<polygon fill="none" stroke="#bfbfbf" points="0,-0.5 0,-30.5 131,-30.5 131,-0.5 0,-0.5"/>
<text text-anchor="start" x="8" y="-18.5" font-family="Helvetica,sans-Serif" font-size="10.00">atwork_commander_msgs</text>
<text text-anchor="middle" x="65.5" y="-7.5" font-family="Helvetica,sans-Serif" font-size="10.00">/Task.h</text>
</g>
<!-- Node2&#45;&gt;Node3 -->
<g id="edge2" class="edge"><title>Node2&#45;&gt;Node3</title>
<path fill="none" stroke="midnightblue" d="M106.217,-67.396C99.4707,-58.9634 90.7538,-48.0673 83.1173,-38.5216"/>
<polygon fill="midnightblue" stroke="midnightblue" points="85.7412,-36.1988 76.7612,-30.5765 80.2751,-40.5717 85.7412,-36.1988"/>
</g>
<!-- Node4 -->
<g id="node4" class="node"><title>Node4</title>
<polygon fill="none" stroke="#bfbfbf" points="149,-6 149,-25 190,-25 190,-6 149,-6"/>
<text text-anchor="middle" x="169.5" y="-13" font-family="Helvetica,sans-Serif" font-size="10.00">string</text>
</g>
<!-- Node2&#45;&gt;Node4 -->
<g id="edge3" class="edge"><title>Node2&#45;&gt;Node4</title>
<path fill="none" stroke="midnightblue" d="M128.783,-67.396C136.811,-57.3614 147.629,-43.8382 156.097,-33.2535"/>
<polygon fill="midnightblue" stroke="midnightblue" points="159.03,-35.1897 162.544,-25.1945 153.564,-30.8168 159.03,-35.1897"/>
</g>
</g>
</svg>
