<?xml version="1.0" encoding="UTF-8" standalone="no"?>
<!DOCTYPE svg PUBLIC "-//W3C//DTD SVG 1.1//EN"
 "http://www.w3.org/Graphics/SVG/1.1/DTD/svg11.dtd">
<!-- Generated by graphviz version 2.38.0 (20140413.2041)
 -->
<!-- Title: /home/travis/build/steup/atwork&#45;commander/atwork_commander_gen/include/atwork_commander_gen/GeneratorPluginInterface.h Pages: 1 -->
<svg width="225pt" height="139pt"
 viewBox="0.00 0.00 225.00 139.00" xmlns="http://www.w3.org/2000/svg" xmlns:xlink="http://www.w3.org/1999/xlink">
<g id="graph0" class="graph" transform="scale(1 1) rotate(0) translate(4 135)">
<title>/home/travis/build/steup/atwork&#45;commander/atwork_commander_gen/include/atwork_commander_gen/GeneratorPluginInterface.h</title>
<!-- Node1 -->
<g id="node1" class="node"><title>Node1</title>
<polygon fill="#bfbfbf" stroke="black" points="18,-67.5 18,-130.5 217,-130.5 217,-67.5 18,-67.5"/>
<text text-anchor="start" x="26" y="-118.5" font-family="Helvetica,sans-Serif" font-size="10.00">/home/travis/build</text>
<text text-anchor="start" x="26" y="-107.5" font-family="Helvetica,sans-Serif" font-size="10.00">/steup/atwork&#45;commander</text>
<text text-anchor="start" x="26" y="-96.5" font-family="Helvetica,sans-Serif" font-size="10.00">/atwork_commander_gen/include</text>
<text text-anchor="start" x="26" y="-85.5" font-family="Helvetica,sans-Serif" font-size="10.00">/atwork_commander_gen/GeneratorPlugin</text>
<text text-anchor="middle" x="117.5" y="-74.5" font-family="Helvetica,sans-Serif" font-size="10.00">Interface.h</text>
</g>
<!-- Node2 -->
<g id="node2" class="node"><title>Node2</title>
<polygon fill="none" stroke="#bfbfbf" points="0,-0.5 0,-30.5 131,-30.5 131,-0.5 0,-0.5"/>
<text text-anchor="start" x="8" y="-18.5" font-family="Helvetica,sans-Serif" font-size="10.00">atwork_commander_msgs</text>
<text text-anchor="middle" x="65.5" y="-7.5" font-family="Helvetica,sans-Serif" font-size="10.00">/Task.h</text>
</g>
<!-- Node1&#45;&gt;Node2 -->
<g id="edge1" class="edge"><title>Node1&#45;&gt;Node2</title>
<path fill="none" stroke="midnightblue" d="M97.841,-67.1883C91.8642,-57.8208 85.4112,-47.707 79.8533,-38.996"/>
<polygon fill="midnightblue" stroke="midnightblue" points="82.7722,-37.0638 74.4428,-30.5161 76.8711,-40.829 82.7722,-37.0638"/>
</g>
<!-- Node3 -->
<g id="node3" class="node"><title>Node3</title>
<polygon fill="none" stroke="#bfbfbf" points="149,-6 149,-25 190,-25 190,-6 149,-6"/>
<text text-anchor="middle" x="169.5" y="-13" font-family="Helvetica,sans-Serif" font-size="10.00">string</text>
</g>
<!-- Node1&#45;&gt;Node3 -->
<g id="edge2" class="edge"><title>Node1&#45;&gt;Node3</title>
<path fill="none" stroke="midnightblue" d="M137.159,-67.1883C144.32,-55.9642 152.165,-43.6687 158.335,-33.9986"/>
<polygon fill="midnightblue" stroke="midnightblue" points="161.431,-35.6534 163.859,-25.3406 155.53,-31.8883 161.431,-35.6534"/>
</g>
</g>
</svg>
