<?xml version="1.0" encoding="UTF-8" standalone="no"?>
<!DOCTYPE svg PUBLIC "-//W3C//DTD SVG 1.1//EN"
 "http://www.w3.org/Graphics/SVG/1.1/DTD/svg11.dtd">
<!-- Generated by graphviz version 2.38.0 (20140413.2041)
 -->
<!-- Title: Graphical Class Hierarchy Pages: 1 -->
<svg width="326pt" height="39pt"
 viewBox="0.00 0.00 326.00 39.00" xmlns="http://www.w3.org/2000/svg" xmlns:xlink="http://www.w3.org/1999/xlink">
<g id="graph0" class="graph" transform="scale(1 1) rotate(0) translate(4 35)">
<title>Graphical Class Hierarchy</title>
<!-- Node1 -->
<g id="node1" class="node"><title>Node1</title>
<polygon fill="none" stroke="#bfbfbf" points="0,-6 0,-25 36,-25 36,-6 0,-6"/>
<text text-anchor="middle" x="18" y="-13" font-family="Helvetica,sans-Serif" font-size="10.00">Test</text>
</g>
<!-- Node2 -->
<g id="node2" class="node"><title>Node2</title>
<g id="a_node2"><a xlink:href="structatwork__commander_1_1testing_1_1BasicControlTest.html" target="_top" xlink:title="atwork_commander::testing\l::BasicControlTest">
<polygon fill="none" stroke="black" points="72,-0.5 72,-30.5 209,-30.5 209,-0.5 72,-0.5"/>
<text text-anchor="start" x="80" y="-18.5" font-family="Helvetica,sans-Serif" font-size="10.00">atwork_commander::testing</text>
<text text-anchor="middle" x="140.5" y="-7.5" font-family="Helvetica,sans-Serif" font-size="10.00">::BasicControlTest</text>
</a>
</g>
</g>
<!-- Node1&#45;&gt;Node2 -->
<g id="edge1" class="edge"><title>Node1&#45;&gt;Node2</title>
<path fill="none" stroke="midnightblue" d="M46.177,-15.5C53.9292,-15.5 62.7399,-15.5 71.7784,-15.5"/>
<polygon fill="midnightblue" stroke="midnightblue" points="46.0092,-12.0001 36.0091,-15.5 46.0091,-19.0001 46.0092,-12.0001"/>
</g>
<!-- Node3 -->
<g id="node3" class="node"><title>Node3</title>
<g id="a_node3"><a xlink:href="structControlTests.html" target="_top" xlink:title="ControlTests">
<polygon fill="none" stroke="black" points="245,-6 245,-25 318,-25 318,-6 245,-6"/>
<text text-anchor="middle" x="281.5" y="-13" font-family="Helvetica,sans-Serif" font-size="10.00">ControlTests</text>
</a>
</g>
</g>
<!-- Node2&#45;&gt;Node3 -->
<g id="edge2" class="edge"><title>Node2&#45;&gt;Node3</title>
<path fill="none" stroke="midnightblue" d="M219.418,-15.5C228.274,-15.5 236.946,-15.5 244.845,-15.5"/>
<polygon fill="midnightblue" stroke="midnightblue" points="219.371,-12.0001 209.371,-15.5 219.371,-19.0001 219.371,-12.0001"/>
</g>
</g>
</svg>
