<?xml version="1.0" encoding="UTF-8" standalone="no"?>
<!DOCTYPE svg PUBLIC "-//W3C//DTD SVG 1.1//EN"
 "http://www.w3.org/Graphics/SVG/1.1/DTD/svg11.dtd">
<!-- Generated by graphviz version 2.38.0 (20140413.2041)
 -->
<!-- Title: Graphical Class Hierarchy Pages: 1 -->
<svg width="361pt" height="66pt"
 viewBox="0.00 0.00 361.00 66.00" xmlns="http://www.w3.org/2000/svg" xmlns:xlink="http://www.w3.org/1999/xlink">
<g id="graph0" class="graph" transform="scale(1 1) rotate(0) translate(4 62)">
<title>Graphical Class Hierarchy</title>
<!-- Node1 -->
<g id="node1" class="node"><title>Node1</title>
<g id="a_node1"><a xlink:href="structatwork__commander_1_1ObjectBase.html" target="_top" xlink:title="atwork_commander::ObjectBase">
<polygon fill="none" stroke="black" points="0,-19.5 0,-38.5 159,-38.5 159,-19.5 0,-19.5"/>
<text text-anchor="middle" x="79.5" y="-26.5" font-family="Helvetica,sans-Serif" font-size="10.00">atwork_commander::ObjectBase</text>
</a>
</g>
</g>
<!-- Node2 -->
<g id="node2" class="node"><title>Node2</title>
<g id="a_node2"><a xlink:href="structatwork__commander_1_1Object.html" target="_top" xlink:title="atwork_commander::Object">
<polygon fill="none" stroke="black" points="205.5,-38.5 205.5,-57.5 342.5,-57.5 342.5,-38.5 205.5,-38.5"/>
<text text-anchor="middle" x="274" y="-45.5" font-family="Helvetica,sans-Serif" font-size="10.00">atwork_commander::Object</text>
</a>
</g>
</g>
<!-- Node1&#45;&gt;Node2 -->
<g id="edge1" class="edge"><title>Node1&#45;&gt;Node2</title>
<path fill="none" stroke="midnightblue" d="M169.244,-37.7592C181.417,-38.9606 193.75,-40.1779 205.459,-41.3337"/>
<polygon fill="midnightblue" stroke="midnightblue" points="169.37,-34.2547 159.075,-36.7554 168.683,-41.2208 169.37,-34.2547"/>
</g>
<!-- Node3 -->
<g id="node3" class="node"><title>Node3</title>
<g id="a_node3"><a xlink:href="structatwork__commander_1_1ObjectType.html" target="_top" xlink:title="atwork_commander::ObjectType">
<polygon fill="none" stroke="black" points="195,-0.5 195,-19.5 353,-19.5 353,-0.5 195,-0.5"/>
<text text-anchor="middle" x="274" y="-7.5" font-family="Helvetica,sans-Serif" font-size="10.00">atwork_commander::ObjectType</text>
</a>
</g>
</g>
<!-- Node1&#45;&gt;Node3 -->
<g id="edge2" class="edge"><title>Node1&#45;&gt;Node3</title>
<path fill="none" stroke="midnightblue" d="M169.146,-20.2506C177.771,-19.3992 186.478,-18.5398 194.988,-17.6999"/>
<polygon fill="midnightblue" stroke="midnightblue" points="168.683,-16.7792 159.075,-21.2446 169.37,-23.7453 168.683,-16.7792"/>
</g>
</g>
</svg>
