<?xml version="1.0" encoding="UTF-8" standalone="no"?>
<!DOCTYPE svg PUBLIC "-//W3C//DTD SVG 1.1//EN"
 "http://www.w3.org/Graphics/SVG/1.1/DTD/svg11.dtd">
<!-- Generated by graphviz version 2.38.0 (20140413.2041)
 -->
<!-- Title: Graphical Class Hierarchy Pages: 1 -->
<svg width="326pt" height="88pt"
 viewBox="0.00 0.00 326.00 88.00" xmlns="http://www.w3.org/2000/svg" xmlns:xlink="http://www.w3.org/1999/xlink">
<g id="graph0" class="graph" transform="scale(1 1) rotate(0) translate(4 84)">
<title>Graphical Class Hierarchy</title>
<!-- Node1 -->
<g id="node1" class="node"><title>Node1</title>
<g id="a_node1"><a xlink:href="classatwork__commander_1_1com__plugin_1_1Base.html" target="_top" xlink:title="atwork_commander::com\l_plugin::Base">
<polygon fill="none" stroke="black" points="0,-24.5 0,-54.5 127,-54.5 127,-24.5 0,-24.5"/>
<text text-anchor="start" x="8" y="-42.5" font-family="Helvetica,sans-Serif" font-size="10.00">atwork_commander::com</text>
<text text-anchor="middle" x="63.5" y="-31.5" font-family="Helvetica,sans-Serif" font-size="10.00">_plugin::Base</text>
</a>
</g>
</g>
<!-- Node2 -->
<g id="node2" class="node"><title>Node2</title>
<g id="a_node2"><a xlink:href="classatwork__commander_1_1com__plugin_1_1ros_1_1TaskArenaCentric.html" target="_top" xlink:title="atwork_commander::com\l_plugin::ros::TaskArenaCentric">
<polygon fill="none" stroke="black" points="164.5,-49.5 164.5,-79.5 316.5,-79.5 316.5,-49.5 164.5,-49.5"/>
<text text-anchor="start" x="172.5" y="-67.5" font-family="Helvetica,sans-Serif" font-size="10.00">atwork_commander::com</text>
<text text-anchor="middle" x="240.5" y="-56.5" font-family="Helvetica,sans-Serif" font-size="10.00">_plugin::ros::TaskArenaCentric</text>
</a>
</g>
</g>
<!-- Node1&#45;&gt;Node2 -->
<g id="edge1" class="edge"><title>Node1&#45;&gt;Node2</title>
<path fill="none" stroke="midnightblue" d="M137.213,-49.8876C146.195,-51.1707 155.39,-52.4843 164.407,-53.7724"/>
<polygon fill="midnightblue" stroke="midnightblue" points="137.579,-46.4044 127.185,-48.455 136.589,-53.3341 137.579,-46.4044"/>
</g>
<!-- Node3 -->
<g id="node3" class="node"><title>Node3</title>
<g id="a_node3"><a xlink:href="classatwork__commander_1_1com__plugin_1_1ros_1_1TaskObjectCentric.html" target="_top" xlink:title="atwork_commander::com\l_plugin::ros::TaskObjectCentric">
<polygon fill="none" stroke="black" points="163,-0.5 163,-30.5 318,-30.5 318,-0.5 163,-0.5"/>
<text text-anchor="start" x="171" y="-18.5" font-family="Helvetica,sans-Serif" font-size="10.00">atwork_commander::com</text>
<text text-anchor="middle" x="240.5" y="-7.5" font-family="Helvetica,sans-Serif" font-size="10.00">_plugin::ros::TaskObjectCentric</text>
</a>
</g>
</g>
<!-- Node1&#45;&gt;Node3 -->
<g id="edge2" class="edge"><title>Node1&#45;&gt;Node3</title>
<path fill="none" stroke="midnightblue" d="M137.357,-29.5082C145.79,-28.3516 154.41,-27.1695 162.892,-26.0063"/>
<polygon fill="midnightblue" stroke="midnightblue" points="136.616,-26.0769 127.185,-30.9032 137.568,-33.012 136.616,-26.0769"/>
</g>
</g>
</svg>
