<?xml version="1.0" encoding="UTF-8" standalone="no"?>
<!DOCTYPE svg PUBLIC "-//W3C//DTD SVG 1.1//EN"
 "http://www.w3.org/Graphics/SVG/1.1/DTD/svg11.dtd">
<!-- Generated by graphviz version 2.38.0 (20140413.2041)
 -->
<!-- Title: Graphical Class Hierarchy Pages: 1 -->
<svg width="366pt" height="88pt"
 viewBox="0.00 0.00 366.00 88.00" xmlns="http://www.w3.org/2000/svg" xmlns:xlink="http://www.w3.org/1999/xlink">
<g id="graph0" class="graph" transform="scale(1 1) rotate(0) translate(4 84)">
<title>Graphical Class Hierarchy</title>
<!-- Node1 -->
<g id="node1" class="node"><title>Node1</title>
<g id="a_node1"><a xlink:href="classatwork__commander_1_1task__generator_1_1GeneratorPluginInterface.html" target="_top" xlink:title="atwork_commander::task\l_generator::GeneratorPluginInterface">
<polygon fill="none" stroke="black" points="0,-24.5 0,-54.5 176,-54.5 176,-24.5 0,-24.5"/>
<text text-anchor="start" x="8" y="-42.5" font-family="Helvetica,sans-Serif" font-size="10.00">atwork_commander::task</text>
<text text-anchor="middle" x="88" y="-31.5" font-family="Helvetica,sans-Serif" font-size="10.00">_generator::GeneratorPluginInterface</text>
</a>
</g>
</g>
<!-- Node2 -->
<g id="node2" class="node"><title>Node2</title>
<g id="a_node2"><a xlink:href="classatwork__commander_1_1task__generator_1_1jurek_1_1Generator.html" target="_top" xlink:title="Task Generation Implementation. ">
<polygon fill="none" stroke="black" points="216,-49.5 216,-79.5 354,-79.5 354,-49.5 216,-49.5"/>
<text text-anchor="start" x="224" y="-67.5" font-family="Helvetica,sans-Serif" font-size="10.00">atwork_commander::task</text>
<text text-anchor="middle" x="285" y="-56.5" font-family="Helvetica,sans-Serif" font-size="10.00">_generator::jurek::Generator</text>
</a>
</g>
</g>
<!-- Node1&#45;&gt;Node2 -->
<g id="edge1" class="edge"><title>Node1&#45;&gt;Node2</title>
<path fill="none" stroke="midnightblue" d="M186.229,-51.9653C196.242,-53.249 206.258,-54.5331 215.856,-55.7636"/>
<polygon fill="midnightblue" stroke="midnightblue" points="186.598,-48.484 176.234,-50.6838 185.707,-55.4271 186.598,-48.484"/>
</g>
<!-- Node3 -->
<g id="node3" class="node"><title>Node3</title>
<g id="a_node3"><a xlink:href="classatwork__commander_1_1task__generator_1_1simple_1_1Generator.html" target="_top" xlink:title="Task Generation Implementation. ">
<polygon fill="none" stroke="black" points="212,-0.5 212,-30.5 358,-30.5 358,-0.5 212,-0.5"/>
<text text-anchor="start" x="220" y="-18.5" font-family="Helvetica,sans-Serif" font-size="10.00">atwork_commander::task</text>
<text text-anchor="middle" x="285" y="-7.5" font-family="Helvetica,sans-Serif" font-size="10.00">_generator::simple::Generator</text>
</a>
</g>
</g>
<!-- Node1&#45;&gt;Node3 -->
<g id="edge2" class="edge"><title>Node1&#45;&gt;Node3</title>
<path fill="none" stroke="midnightblue" d="M186.277,-27.5274C194.847,-26.4727 203.419,-25.4176 211.729,-24.3949"/>
<polygon fill="midnightblue" stroke="midnightblue" points="185.731,-24.0681 176.234,-28.7635 186.586,-31.0157 185.731,-24.0681"/>
</g>
</g>
</svg>
