<?xml version="1.0" encoding="UTF-8" standalone="no"?>
<!DOCTYPE svg PUBLIC "-//W3C//DTD SVG 1.1//EN"
 "http://www.w3.org/Graphics/SVG/1.1/DTD/svg11.dtd">
<!-- Generated by graphviz version 2.38.0 (20140413.2041)
 -->
<!-- Title: Graphical Class Hierarchy Pages: 1 -->
<svg width="391pt" height="39pt"
 viewBox="0.00 0.00 391.00 39.00" xmlns="http://www.w3.org/2000/svg" xmlns:xlink="http://www.w3.org/1999/xlink">
<g id="graph0" class="graph" transform="scale(1 1) rotate(0) translate(4 35)">
<title>Graphical Class Hierarchy</title>
<!-- Node1 -->
<g id="node1" class="node"><title>Node1</title>
<g id="a_node1"><a xlink:title="STL class. ">
<polygon fill="none" stroke="#bfbfbf" points="0,-6 0,-25 78,-25 78,-6 0,-6"/>
<text text-anchor="middle" x="39" y="-13" font-family="Helvetica,sans-Serif" font-size="10.00">std::exception</text>
</a>
</g>
</g>
<!-- Node2 -->
<g id="node2" class="node"><title>Node2</title>
<g id="a_node2"><a xlink:title="STL class. ">
<polygon fill="none" stroke="#bfbfbf" points="114,-6 114,-25 207,-25 207,-6 114,-6"/>
<text text-anchor="middle" x="160.5" y="-13" font-family="Helvetica,sans-Serif" font-size="10.00">std::runtime_error</text>
</a>
</g>
</g>
<!-- Node1&#45;&gt;Node2 -->
<g id="edge1" class="edge"><title>Node1&#45;&gt;Node2</title>
<path fill="none" stroke="midnightblue" d="M88.2251,-15.5C96.6625,-15.5 105.418,-15.5 113.785,-15.5"/>
<polygon fill="midnightblue" stroke="midnightblue" points="88.1391,-12.0001 78.1391,-15.5 88.1391,-19.0001 88.1391,-12.0001"/>
</g>
<!-- Node3 -->
<g id="node3" class="node"><title>Node3</title>
<g id="a_node3"><a xlink:href="classatwork__commander_1_1ControlError.html" target="_top" xlink:title="Exceptions thrown by the Control interface of the refbox. ">
<polygon fill="none" stroke="black" points="243,-0.5 243,-30.5 383,-30.5 383,-0.5 243,-0.5"/>
<text text-anchor="start" x="251" y="-18.5" font-family="Helvetica,sans-Serif" font-size="10.00">atwork_commander::Control</text>
<text text-anchor="middle" x="313" y="-7.5" font-family="Helvetica,sans-Serif" font-size="10.00">Error</text>
</a>
</g>
</g>
<!-- Node2&#45;&gt;Node3 -->
<g id="edge2" class="edge"><title>Node2&#45;&gt;Node3</title>
<path fill="none" stroke="midnightblue" d="M217.129,-15.5C225.549,-15.5 234.322,-15.5 242.985,-15.5"/>
<polygon fill="midnightblue" stroke="midnightblue" points="217.063,-12.0001 207.063,-15.5 217.063,-19.0001 217.063,-12.0001"/>
</g>
</g>
</svg>
