<?xml version="1.0" encoding="UTF-8" standalone="no"?>
<!DOCTYPE svg PUBLIC "-//W3C//DTD SVG 1.1//EN"
 "http://www.w3.org/Graphics/SVG/1.1/DTD/svg11.dtd">
<!-- Generated by graphviz version 2.38.0 (20140413.2041)
 -->
<!-- Title: /home/travis/build/steup/atwork&#45;commander/atwork_commander_gen/src/jurek/Generator.cpp Pages: 1 -->
<svg width="1389pt" height="262pt"
 viewBox="0.00 0.00 1389.00 262.00" xmlns="http://www.w3.org/2000/svg" xmlns:xlink="http://www.w3.org/1999/xlink">
<g id="graph0" class="graph" transform="scale(1 1) rotate(0) translate(4 258)">
<title>/home/travis/build/steup/atwork&#45;commander/atwork_commander_gen/src/jurek/Generator.cpp</title>
<!-- Node1 -->
<g id="node1" class="node"><title>Node1</title>
<polygon fill="#bfbfbf" stroke="black" points="941,-201.5 941,-253.5 1084,-253.5 1084,-201.5 941,-201.5"/>
<text text-anchor="start" x="949" y="-241.5" font-family="Helvetica,sans-Serif" font-size="10.00">/home/travis/build</text>
<text text-anchor="start" x="949" y="-230.5" font-family="Helvetica,sans-Serif" font-size="10.00">/steup/atwork&#45;commander</text>
<text text-anchor="start" x="949" y="-219.5" font-family="Helvetica,sans-Serif" font-size="10.00">/atwork_commander_gen/src</text>
<text text-anchor="middle" x="1012.5" y="-208.5" font-family="Helvetica,sans-Serif" font-size="10.00">/jurek/Generator.cpp</text>
</g>
<!-- Node2 -->
<g id="node2" class="node"><title>Node2</title>
<g id="a_node2"><a xlink:href="Generator_8h.html" target="_top" xlink:title="../Generator.h">
<polygon fill="none" stroke="black" points="564,-140 564,-159 641,-159 641,-140 564,-140"/>
<text text-anchor="middle" x="602.5" y="-147" font-family="Helvetica,sans-Serif" font-size="10.00">../Generator.h</text>
</a>
</g>
</g>
<!-- Node1&#45;&gt;Node2 -->
<g id="edge1" class="edge"><title>Node1&#45;&gt;Node2</title>
<path fill="none" stroke="midnightblue" d="M940.995,-217.217C867.38,-207 749.616,-188.815 649.5,-165 645.684,-164.092 641.724,-163.043 637.794,-161.933"/>
<polygon fill="midnightblue" stroke="midnightblue" points="638.772,-158.572 628.19,-159.093 636.787,-165.285 638.772,-158.572"/>
</g>
<!-- Node9 -->
<g id="node9" class="node"><title>Node9</title>
<g id="a_node9"><a xlink:href="TaskConverter_8h.html" target="_top" xlink:title="TaskConverter.h">
<polygon fill="none" stroke="black" points="281,-73 281,-92 370,-92 370,-73 281,-73"/>
<text text-anchor="middle" x="325.5" y="-80" font-family="Helvetica,sans-Serif" font-size="10.00">TaskConverter.h</text>
</a>
</g>
</g>
<!-- Node1&#45;&gt;Node9 -->
<g id="edge8" class="edge"><title>Node1&#45;&gt;Node9</title>
<path fill="none" stroke="midnightblue" d="M940.641,-221.508C849.726,-214.133 688.806,-197.54 554.5,-165 480.494,-147.07 397.042,-113.925 354.229,-95.9217"/>
<polygon fill="midnightblue" stroke="midnightblue" points="355.56,-92.6847 344.987,-92.0046 352.828,-99.1297 355.56,-92.6847"/>
</g>
<!-- Node13 -->
<g id="node13" class="node"><title>Node13</title>
<g id="a_node13"><a xlink:href="DefaultConfigParser_8h.html" target="_top" xlink:title="atwork_commander_gen\l/DefaultConfigParser.h">
<polygon fill="none" stroke="black" points="659,-134.5 659,-164.5 782,-164.5 782,-134.5 659,-134.5"/>
<text text-anchor="start" x="667" y="-152.5" font-family="Helvetica,sans-Serif" font-size="10.00">atwork_commander_gen</text>
<text text-anchor="middle" x="720.5" y="-141.5" font-family="Helvetica,sans-Serif" font-size="10.00">/DefaultConfigParser.h</text>
</a>
</g>
</g>
<!-- Node1&#45;&gt;Node13 -->
<g id="edge14" class="edge"><title>Node1&#45;&gt;Node13</title>
<path fill="none" stroke="midnightblue" d="M940.695,-207.811C892.869,-195.363 830.577,-179.15 784.458,-167.146"/>
<polygon fill="midnightblue" stroke="midnightblue" points="785.138,-163.707 774.579,-164.575 783.375,-170.481 785.138,-163.707"/>
</g>
<!-- Node18 -->
<g id="node18" class="node"><title>Node18</title>
<polygon fill="none" stroke="#bfbfbf" points="800.5,-134.5 800.5,-164.5 896.5,-164.5 896.5,-134.5 800.5,-134.5"/>
<text text-anchor="start" x="808.5" y="-152.5" font-family="Helvetica,sans-Serif" font-size="10.00">pluginlib/class_list</text>
<text text-anchor="middle" x="848.5" y="-141.5" font-family="Helvetica,sans-Serif" font-size="10.00">_macros.h</text>
</g>
<!-- Node1&#45;&gt;Node18 -->
<g id="edge21" class="edge"><title>Node1&#45;&gt;Node18</title>
<path fill="none" stroke="midnightblue" d="M958.346,-201.404C935.53,-190.831 909.45,-178.745 888.429,-169.004"/>
<polygon fill="midnightblue" stroke="midnightblue" points="889.701,-165.736 879.156,-164.707 886.758,-172.087 889.701,-165.736"/>
</g>
<!-- Node19 -->
<g id="node19" class="node"><title>Node19</title>
<polygon fill="none" stroke="#bfbfbf" points="915,-140 915,-159 970,-159 970,-140 915,-140"/>
<text text-anchor="middle" x="942.5" y="-147" font-family="Helvetica,sans-Serif" font-size="10.00">ros/ros.h</text>
</g>
<!-- Node1&#45;&gt;Node19 -->
<g id="edge22" class="edge"><title>Node1&#45;&gt;Node19</title>
<path fill="none" stroke="midnightblue" d="M989.191,-201.193C978.751,-189.858 966.743,-176.821 957.519,-166.806"/>
<polygon fill="midnightblue" stroke="midnightblue" points="959.871,-164.193 950.521,-159.209 954.722,-168.936 959.871,-164.193"/>
</g>
<!-- Node20 -->
<g id="node20" class="node"><title>Node20</title>
<polygon fill="none" stroke="#bfbfbf" points="988,-140 988,-159 1037,-159 1037,-140 988,-140"/>
<text text-anchor="middle" x="1012.5" y="-147" font-family="Helvetica,sans-Serif" font-size="10.00">random</text>
</g>
<!-- Node1&#45;&gt;Node20 -->
<g id="edge23" class="edge"><title>Node1&#45;&gt;Node20</title>
<path fill="none" stroke="midnightblue" d="M1012.5,-201.193C1012.5,-190.765 1012.5,-178.896 1012.5,-169.266"/>
<polygon fill="midnightblue" stroke="midnightblue" points="1016,-169.209 1012.5,-159.209 1009,-169.209 1016,-169.209"/>
</g>
<!-- Node21 -->
<g id="node21" class="node"><title>Node21</title>
<polygon fill="none" stroke="#bfbfbf" points="1055.5,-140 1055.5,-159 1107.5,-159 1107.5,-140 1055.5,-140"/>
<text text-anchor="middle" x="1081.5" y="-147" font-family="Helvetica,sans-Serif" font-size="10.00">sstream</text>
</g>
<!-- Node1&#45;&gt;Node21 -->
<g id="edge24" class="edge"><title>Node1&#45;&gt;Node21</title>
<path fill="none" stroke="midnightblue" d="M1035.48,-201.193C1045.77,-189.858 1057.6,-176.821 1066.7,-166.806"/>
<polygon fill="midnightblue" stroke="midnightblue" points="1069.46,-168.965 1073.59,-159.209 1064.28,-164.26 1069.46,-168.965"/>
</g>
<!-- Node22 -->
<g id="node22" class="node"><title>Node22</title>
<polygon fill="none" stroke="#bfbfbf" points="1125.5,-140 1125.5,-159 1171.5,-159 1171.5,-140 1125.5,-140"/>
<text text-anchor="middle" x="1148.5" y="-147" font-family="Helvetica,sans-Serif" font-size="10.00">chrono</text>
</g>
<!-- Node1&#45;&gt;Node22 -->
<g id="edge25" class="edge"><title>Node1&#45;&gt;Node22</title>
<path fill="none" stroke="midnightblue" d="M1057.41,-201.404C1079.68,-188.959 1105.7,-174.419 1124.21,-164.073"/>
<polygon fill="midnightblue" stroke="midnightblue" points="1126.13,-167.011 1133.15,-159.078 1122.71,-160.901 1126.13,-167.011"/>
</g>
<!-- Node23 -->
<g id="node23" class="node"><title>Node23</title>
<polygon fill="none" stroke="#bfbfbf" points="1190,-140 1190,-159 1241,-159 1241,-140 1190,-140"/>
<text text-anchor="middle" x="1215.5" y="-147" font-family="Helvetica,sans-Serif" font-size="10.00">numeric</text>
</g>
<!-- Node1&#45;&gt;Node23 -->
<g id="edge26" class="edge"><title>Node1&#45;&gt;Node23</title>
<path fill="none" stroke="midnightblue" d="M1083.04,-201.419C1113.18,-190.514 1148.67,-177.413 1180.5,-165 1182.14,-164.359 1183.83,-163.694 1185.52,-163.015"/>
<polygon fill="midnightblue" stroke="midnightblue" points="1187.26,-166.089 1195.2,-159.079 1184.62,-159.605 1187.26,-166.089"/>
</g>
<!-- Node24 -->
<g id="node24" class="node"><title>Node24</title>
<polygon fill="none" stroke="#bfbfbf" points="1259.5,-140 1259.5,-159 1315.5,-159 1315.5,-140 1259.5,-140"/>
<text text-anchor="middle" x="1287.5" y="-147" font-family="Helvetica,sans-Serif" font-size="10.00">algorithm</text>
</g>
<!-- Node1&#45;&gt;Node24 -->
<g id="edge27" class="edge"><title>Node1&#45;&gt;Node24</title>
<path fill="none" stroke="midnightblue" d="M1084.22,-210.354C1131.8,-199.061 1195.38,-182.849 1250.5,-165 1252.77,-164.265 1255.1,-163.463 1257.44,-162.627"/>
<polygon fill="midnightblue" stroke="midnightblue" points="1258.78,-165.862 1266.92,-159.074 1256.32,-159.308 1258.78,-165.862"/>
</g>
<!-- Node25 -->
<g id="node25" class="node"><title>Node25</title>
<polygon fill="none" stroke="#bfbfbf" points="1334,-140 1334,-159 1381,-159 1381,-140 1334,-140"/>
<text text-anchor="middle" x="1357.5" y="-147" font-family="Helvetica,sans-Serif" font-size="10.00">iterator</text>
</g>
<!-- Node1&#45;&gt;Node25 -->
<g id="edge28" class="edge"><title>Node1&#45;&gt;Node25</title>
<path fill="none" stroke="midnightblue" d="M1084.24,-216.936C1148.21,-207.334 1243.91,-190.31 1324.5,-165 1326.43,-164.395 1328.39,-163.713 1330.35,-162.982"/>
<polygon fill="midnightblue" stroke="midnightblue" points="1332.03,-166.078 1339.96,-159.057 1329.38,-159.597 1332.03,-166.078"/>
</g>
<!-- Node3 -->
<g id="node3" class="node"><title>Node3</title>
<g id="a_node3"><a xlink:href="GeneratorPluginInterface_8h.html" target="_top" xlink:title="atwork_commander_gen\l/GeneratorPluginInterface.h">
<polygon fill="none" stroke="black" points="388.5,-67.5 388.5,-97.5 524.5,-97.5 524.5,-67.5 388.5,-67.5"/>
<text text-anchor="start" x="396.5" y="-85.5" font-family="Helvetica,sans-Serif" font-size="10.00">atwork_commander_gen</text>
<text text-anchor="middle" x="456.5" y="-74.5" font-family="Helvetica,sans-Serif" font-size="10.00">/GeneratorPluginInterface.h</text>
</a>
</g>
</g>
<!-- Node2&#45;&gt;Node3 -->
<g id="edge2" class="edge"><title>Node2&#45;&gt;Node3</title>
<path fill="none" stroke="midnightblue" d="M583.112,-139.869C561.299,-130.157 525.253,-114.109 497.189,-101.615"/>
<polygon fill="midnightblue" stroke="midnightblue" points="498.568,-98.3979 488.009,-97.5281 495.721,-104.793 498.568,-98.3979"/>
</g>
<!-- Node6 -->
<g id="node6" class="node"><title>Node6</title>
<polygon fill="none" stroke="#bfbfbf" points="542.5,-73 542.5,-92 596.5,-92 596.5,-73 542.5,-73"/>
<text text-anchor="middle" x="569.5" y="-80" font-family="Helvetica,sans-Serif" font-size="10.00">iostream</text>
</g>
<!-- Node2&#45;&gt;Node6 -->
<g id="edge5" class="edge"><title>Node2&#45;&gt;Node6</title>
<path fill="none" stroke="midnightblue" d="M598.049,-139.734C593.052,-129.89 584.812,-113.66 578.466,-101.159"/>
<polygon fill="midnightblue" stroke="midnightblue" points="581.528,-99.4595 573.88,-92.1273 575.286,-102.628 581.528,-99.4595"/>
</g>
<!-- Node7 -->
<g id="node7" class="node"><title>Node7</title>
<polygon fill="none" stroke="#bfbfbf" points="568,-6 568,-25 651,-25 651,-6 568,-6"/>
<text text-anchor="middle" x="609.5" y="-13" font-family="Helvetica,sans-Serif" font-size="10.00">unordered_map</text>
</g>
<!-- Node2&#45;&gt;Node7 -->
<g id="edge6" class="edge"><title>Node2&#45;&gt;Node7</title>
<path fill="none" stroke="midnightblue" d="M620.106,-139.87C635.018,-131.476 655.383,-117.184 664.5,-98 670.414,-85.5559 670.043,-79.6137 664.5,-67 657.954,-52.1021 644.603,-39.672 632.695,-30.8718"/>
<polygon fill="midnightblue" stroke="midnightblue" points="634.61,-27.9406 624.396,-25.122 630.623,-33.6943 634.61,-27.9406"/>
</g>
<!-- Node8 -->
<g id="node8" class="node"><title>Node8</title>
<polygon fill="none" stroke="#bfbfbf" points="615,-73 615,-92 656,-92 656,-73 615,-73"/>
<text text-anchor="middle" x="635.5" y="-80" font-family="Helvetica,sans-Serif" font-size="10.00">regex</text>
</g>
<!-- Node2&#45;&gt;Node8 -->
<g id="edge7" class="edge"><title>Node2&#45;&gt;Node8</title>
<path fill="none" stroke="midnightblue" d="M606.951,-139.734C611.948,-129.89 620.188,-113.66 626.534,-101.159"/>
<polygon fill="midnightblue" stroke="midnightblue" points="629.714,-102.628 631.12,-92.1273 623.472,-99.4595 629.714,-102.628"/>
</g>
<!-- Node4 -->
<g id="node4" class="node"><title>Node4</title>
<polygon fill="none" stroke="#bfbfbf" points="391,-0.5 391,-30.5 522,-30.5 522,-0.5 391,-0.5"/>
<text text-anchor="start" x="399" y="-18.5" font-family="Helvetica,sans-Serif" font-size="10.00">atwork_commander_msgs</text>
<text text-anchor="middle" x="456.5" y="-7.5" font-family="Helvetica,sans-Serif" font-size="10.00">/Task.h</text>
</g>
<!-- Node3&#45;&gt;Node4 -->
<g id="edge3" class="edge"><title>Node3&#45;&gt;Node4</title>
<path fill="none" stroke="midnightblue" d="M456.5,-67.396C456.5,-59.6448 456.5,-49.8122 456.5,-40.8601"/>
<polygon fill="midnightblue" stroke="midnightblue" points="460,-40.5765 456.5,-30.5765 453,-40.5765 460,-40.5765"/>
</g>
<!-- Node5 -->
<g id="node5" class="node"><title>Node5</title>
<polygon fill="none" stroke="#bfbfbf" points="669,-6 669,-25 710,-25 710,-6 669,-6"/>
<text text-anchor="middle" x="689.5" y="-13" font-family="Helvetica,sans-Serif" font-size="10.00">string</text>
</g>
<!-- Node3&#45;&gt;Node5 -->
<g id="edge4" class="edge"><title>Node3&#45;&gt;Node5</title>
<path fill="none" stroke="midnightblue" d="M524.748,-68.2088C564.638,-59.5334 615.614,-46.8716 659.5,-31 660.928,-30.4836 662.379,-29.9206 663.832,-29.326"/>
<polygon fill="midnightblue" stroke="midnightblue" points="665.563,-32.3856 673.259,-25.103 662.702,-25.9973 665.563,-32.3856"/>
</g>
<!-- Node9&#45;&gt;Node4 -->
<g id="edge9" class="edge"><title>Node9&#45;&gt;Node4</title>
<path fill="none" stroke="midnightblue" d="M342.896,-72.8685C362.151,-63.3145 393.766,-47.6274 418.763,-35.2246"/>
<polygon fill="midnightblue" stroke="midnightblue" points="420.577,-38.2317 427.979,-30.6516 417.465,-31.9612 420.577,-38.2317"/>
</g>
<!-- Node9&#45;&gt;Node7 -->
<g id="edge13" class="edge"><title>Node9&#45;&gt;Node7</title>
<path fill="none" stroke="midnightblue" d="M356.278,-72.9723C363.853,-70.9462 371.955,-68.8401 379.5,-67 440.554,-52.1087 511.216,-36.8924 557.933,-27.1107"/>
<polygon fill="midnightblue" stroke="midnightblue" points="558.743,-30.5172 567.817,-25.0476 557.312,-23.6649 558.743,-30.5172"/>
</g>
<!-- Node10 -->
<g id="node10" class="node"><title>Node10</title>
<polygon fill="none" stroke="#bfbfbf" points="0,-0.5 0,-30.5 131,-30.5 131,-0.5 0,-0.5"/>
<text text-anchor="start" x="8" y="-18.5" font-family="Helvetica,sans-Serif" font-size="10.00">atwork_commander_msgs</text>
<text text-anchor="middle" x="65.5" y="-7.5" font-family="Helvetica,sans-Serif" font-size="10.00">/Object.h</text>
</g>
<!-- Node9&#45;&gt;Node10 -->
<g id="edge10" class="edge"><title>Node9&#45;&gt;Node10</title>
<path fill="none" stroke="midnightblue" d="M291.242,-72.9355C250.779,-62.8198 182.548,-45.7619 131.668,-33.042"/>
<polygon fill="midnightblue" stroke="midnightblue" points="132.287,-29.5891 121.737,-30.5592 130.589,-36.3801 132.287,-29.5891"/>
</g>
<!-- Node11 -->
<g id="node11" class="node"><title>Node11</title>
<polygon fill="none" stroke="#bfbfbf" points="149,-0.5 149,-30.5 280,-30.5 280,-0.5 149,-0.5"/>
<text text-anchor="start" x="157" y="-18.5" font-family="Helvetica,sans-Serif" font-size="10.00">atwork_commander_msgs</text>
<text text-anchor="middle" x="214.5" y="-7.5" font-family="Helvetica,sans-Serif" font-size="10.00">/Workstation.h</text>
</g>
<!-- Node9&#45;&gt;Node11 -->
<g id="edge11" class="edge"><title>Node9&#45;&gt;Node11</title>
<path fill="none" stroke="midnightblue" d="M310.53,-72.7338C294.447,-63.3158 268.38,-48.0513 247.46,-35.8008"/>
<polygon fill="midnightblue" stroke="midnightblue" points="248.958,-32.622 238.56,-30.589 245.42,-38.6625 248.958,-32.622"/>
</g>
<!-- Node12 -->
<g id="node12" class="node"><title>Node12</title>
<polygon fill="none" stroke="#bfbfbf" points="298,-6 298,-25 373,-25 373,-6 298,-6"/>
<text text-anchor="middle" x="335.5" y="-13" font-family="Helvetica,sans-Serif" font-size="10.00">ros/console.h</text>
</g>
<!-- Node9&#45;&gt;Node12 -->
<g id="edge12" class="edge"><title>Node9&#45;&gt;Node12</title>
<path fill="none" stroke="midnightblue" d="M326.849,-72.7338C328.318,-63.1826 330.713,-47.6183 332.61,-35.2829"/>
<polygon fill="midnightblue" stroke="midnightblue" points="336.111,-35.5432 334.173,-25.1273 329.193,-34.4788 336.111,-35.5432"/>
</g>
<!-- Node14 -->
<g id="node14" class="node"><title>Node14</title>
<g id="a_node14"><a xlink:href="ConfigParserInterface_8h.html" target="_top" xlink:title="atwork_commander_gen\l/ConfigParserInterface.h">
<polygon fill="none" stroke="black" points="713,-67.5 713,-97.5 836,-97.5 836,-67.5 713,-67.5"/>
<text text-anchor="start" x="721" y="-85.5" font-family="Helvetica,sans-Serif" font-size="10.00">atwork_commander_gen</text>
<text text-anchor="middle" x="774.5" y="-74.5" font-family="Helvetica,sans-Serif" font-size="10.00">/ConfigParserInterface.h</text>
</a>
</g>
</g>
<!-- Node13&#45;&gt;Node14 -->
<g id="edge15" class="edge"><title>Node13&#45;&gt;Node14</title>
<path fill="none" stroke="midnightblue" d="M732.217,-134.396C739.223,-125.963 748.275,-115.067 756.205,-105.522"/>
<polygon fill="midnightblue" stroke="midnightblue" points="759.108,-107.505 762.806,-97.5765 753.723,-103.032 759.108,-107.505"/>
</g>
<!-- Node14&#45;&gt;Node5 -->
<g id="edge18" class="edge"><title>Node14&#45;&gt;Node5</title>
<path fill="none" stroke="midnightblue" d="M756.056,-67.396C742.147,-56.7593 723.111,-42.2028 708.96,-31.3813"/>
<polygon fill="midnightblue" stroke="midnightblue" points="710.939,-28.4888 700.87,-25.1945 706.687,-34.0493 710.939,-28.4888"/>
</g>
<!-- Node14&#45;&gt;Node7 -->
<g id="edge16" class="edge"><title>Node14&#45;&gt;Node7</title>
<path fill="none" stroke="midnightblue" d="M738.697,-67.396C709.49,-55.8901 668.64,-39.7974 640.741,-28.8072"/>
<polygon fill="midnightblue" stroke="midnightblue" points="641.682,-25.4159 631.095,-25.007 639.116,-31.9287 641.682,-25.4159"/>
</g>
<!-- Node15 -->
<g id="node15" class="node"><title>Node15</title>
<polygon fill="none" stroke="#bfbfbf" points="728,-6 728,-25 763,-25 763,-6 728,-6"/>
<text text-anchor="middle" x="745.5" y="-13" font-family="Helvetica,sans-Serif" font-size="10.00">map</text>
</g>
<!-- Node14&#45;&gt;Node15 -->
<g id="edge17" class="edge"><title>Node14&#45;&gt;Node15</title>
<path fill="none" stroke="midnightblue" d="M768.207,-67.396C763.91,-57.7628 758.177,-44.9145 753.547,-34.5373"/>
<polygon fill="midnightblue" stroke="midnightblue" points="756.65,-32.9008 749.379,-25.1945 750.257,-35.7529 756.65,-32.9008"/>
</g>
<!-- Node16 -->
<g id="node16" class="node"><title>Node16</title>
<polygon fill="none" stroke="#bfbfbf" points="781,-6 781,-25 826,-25 826,-6 781,-6"/>
<text text-anchor="middle" x="803.5" y="-13" font-family="Helvetica,sans-Serif" font-size="10.00">iosfwd</text>
</g>
<!-- Node14&#45;&gt;Node16 -->
<g id="edge19" class="edge"><title>Node14&#45;&gt;Node16</title>
<path fill="none" stroke="midnightblue" d="M780.793,-67.396C785.09,-57.7628 790.823,-44.9145 795.453,-34.5373"/>
<polygon fill="midnightblue" stroke="midnightblue" points="798.743,-35.7529 799.621,-25.1945 792.35,-32.9008 798.743,-35.7529"/>
</g>
<!-- Node17 -->
<g id="node17" class="node"><title>Node17</title>
<polygon fill="none" stroke="#bfbfbf" points="844.5,-6 844.5,-25 888.5,-25 888.5,-6 844.5,-6"/>
<text text-anchor="middle" x="866.5" y="-13" font-family="Helvetica,sans-Serif" font-size="10.00">vector</text>
</g>
<!-- Node14&#45;&gt;Node17 -->
<g id="edge20" class="edge"><title>Node14&#45;&gt;Node17</title>
<path fill="none" stroke="midnightblue" d="M794.463,-67.396C809.748,-56.5966 830.752,-41.7564 846.137,-30.8872"/>
<polygon fill="midnightblue" stroke="midnightblue" points="848.312,-33.6359 854.459,-25.007 844.272,-27.9188 848.312,-33.6359"/>
</g>
</g>
</svg>
