<?xml version="1.0" encoding="UTF-8" standalone="no"?>
<!DOCTYPE svg PUBLIC "-//W3C//DTD SVG 1.1//EN"
 "http://www.w3.org/Graphics/SVG/1.1/DTD/svg11.dtd">
<!-- Generated by graphviz version 2.38.0 (20140413.2041)
 -->
<!-- Title: PLUGINLIB_EXPORT_CLASS Pages: 1 -->
<svg width="541pt" height="230pt"
 viewBox="0.00 0.00 541.00 230.00" xmlns="http://www.w3.org/2000/svg" xmlns:xlink="http://www.w3.org/1999/xlink">
<g id="graph0" class="graph" transform="scale(1 1) rotate(0) translate(4 226)">
<title>PLUGINLIB_EXPORT_CLASS</title>
<!-- Node1 -->
<g id="node1" class="node"><title>Node1</title>
<polygon fill="#bfbfbf" stroke="black" points="0,-101.5 0,-120.5 154,-120.5 154,-101.5 0,-101.5"/>
<text text-anchor="middle" x="77" y="-108.5" font-family="Helvetica,sans-Serif" font-size="10.00">PLUGINLIB_EXPORT_CLASS</text>
</g>
<!-- Node2 -->
<g id="node2" class="node"><title>Node2</title>
<g id="a_node2"><a xlink:href="classatwork__commander_1_1task__generator_1_1simple_1_1Generator.html#a20749fb6fd4dd44fbce933fdc5c5dc05" target="_top" xlink:title="atwork_commander::task\l_generator::simple::Generator\l::config">
<polygon fill="none" stroke="black" points="194.5,-180.5 194.5,-221.5 340.5,-221.5 340.5,-180.5 194.5,-180.5"/>
<text text-anchor="start" x="202.5" y="-209.5" font-family="Helvetica,sans-Serif" font-size="10.00">atwork_commander::task</text>
<text text-anchor="start" x="202.5" y="-198.5" font-family="Helvetica,sans-Serif" font-size="10.00">_generator::simple::Generator</text>
<text text-anchor="middle" x="267.5" y="-187.5" font-family="Helvetica,sans-Serif" font-size="10.00">::config</text>
</a>
</g>
</g>
<!-- Node1&#45;&gt;Node2 -->
<g id="edge1" class="edge"><title>Node1&#45;&gt;Node2</title>
<path fill="none" stroke="midnightblue" d="M103.253,-125.636C125.673,-138.362 159.512,-156.915 190,-171 196.993,-174.231 204.44,-177.433 211.838,-180.476"/>
<polygon fill="midnightblue" stroke="midnightblue" points="104.806,-122.492 94.3871,-120.57 101.333,-128.57 104.806,-122.492"/>
</g>
<!-- Node3 -->
<g id="node3" class="node"><title>Node3</title>
<g id="a_node3"><a xlink:href="classatwork__commander_1_1task__generator_1_1jurek_1_1Generator.html#a913df9f90b0e7298954024f65912e5c2" target="_top" xlink:title="atwork_commander::task\l_generator::jurek::Generator\l::config">
<polygon fill="none" stroke="black" points="198.5,-120.5 198.5,-161.5 336.5,-161.5 336.5,-120.5 198.5,-120.5"/>
<text text-anchor="start" x="206.5" y="-149.5" font-family="Helvetica,sans-Serif" font-size="10.00">atwork_commander::task</text>
<text text-anchor="start" x="206.5" y="-138.5" font-family="Helvetica,sans-Serif" font-size="10.00">_generator::jurek::Generator</text>
<text text-anchor="middle" x="267.5" y="-127.5" font-family="Helvetica,sans-Serif" font-size="10.00">::config</text>
</a>
</g>
</g>
<!-- Node1&#45;&gt;Node3 -->
<g id="edge2" class="edge"><title>Node1&#45;&gt;Node3</title>
<path fill="none" stroke="midnightblue" d="M147.971,-122.136C164.395,-124.75 181.873,-127.532 198.221,-130.133"/>
<polygon fill="midnightblue" stroke="midnightblue" points="148.327,-118.649 137.902,-120.533 147.227,-125.562 148.327,-118.649"/>
</g>
<!-- Node4 -->
<g id="node4" class="node"><title>Node4</title>
<g id="a_node4"><a xlink:href="classatwork__commander_1_1com__plugin_1_1ros_1_1TaskArenaCentric.html#a557f44d9b6eb23e10c4f8a7118f8e115" target="_top" xlink:title="atwork_commander::com\l_plugin::ros::TaskArenaCentric\l::receiveRobotStateClb">
<polygon fill="none" stroke="black" points="191.5,-60.5 191.5,-101.5 343.5,-101.5 343.5,-60.5 191.5,-60.5"/>
<text text-anchor="start" x="199.5" y="-89.5" font-family="Helvetica,sans-Serif" font-size="10.00">atwork_commander::com</text>
<text text-anchor="start" x="199.5" y="-78.5" font-family="Helvetica,sans-Serif" font-size="10.00">_plugin::ros::TaskArenaCentric</text>
<text text-anchor="middle" x="267.5" y="-67.5" font-family="Helvetica,sans-Serif" font-size="10.00">::receiveRobotStateClb</text>
</a>
</g>
</g>
<!-- Node1&#45;&gt;Node4 -->
<g id="edge3" class="edge"><title>Node1&#45;&gt;Node4</title>
<path fill="none" stroke="midnightblue" d="M147.995,-99.8602C162.071,-97.6199 176.923,-95.2564 191.172,-92.9886"/>
<polygon fill="midnightblue" stroke="midnightblue" points="147.227,-96.4383 137.902,-101.467 148.327,-103.351 147.227,-96.4383"/>
</g>
<!-- Node6 -->
<g id="node6" class="node"><title>Node6</title>
<g id="a_node6"><a xlink:href="classatwork__commander_1_1com__plugin_1_1ros_1_1TaskObjectCentric.html#ac8ec59f6692c28f119a4a01f47c7d3aa" target="_top" xlink:title="atwork_commander::com\l_plugin::ros::TaskObjectCentric\l::receiveRobotStateClb">
<polygon fill="none" stroke="black" points="190,-0.5 190,-41.5 345,-41.5 345,-0.5 190,-0.5"/>
<text text-anchor="start" x="198" y="-29.5" font-family="Helvetica,sans-Serif" font-size="10.00">atwork_commander::com</text>
<text text-anchor="start" x="198" y="-18.5" font-family="Helvetica,sans-Serif" font-size="10.00">_plugin::ros::TaskObjectCentric</text>
<text text-anchor="middle" x="267.5" y="-7.5" font-family="Helvetica,sans-Serif" font-size="10.00">::receiveRobotStateClb</text>
</a>
</g>
</g>
<!-- Node1&#45;&gt;Node6 -->
<g id="edge5" class="edge"><title>Node1&#45;&gt;Node6</title>
<path fill="none" stroke="midnightblue" d="M103.253,-96.3636C125.673,-83.6384 159.512,-65.0849 190,-51 196.993,-47.7692 204.44,-44.5666 211.838,-41.524"/>
<polygon fill="midnightblue" stroke="midnightblue" points="101.333,-93.4299 94.3871,-101.43 104.806,-99.5075 101.333,-93.4299"/>
</g>
<!-- Node5 -->
<g id="node5" class="node"><title>Node5</title>
<g id="a_node5"><a xlink:href="classatwork__commander_1_1com__plugin_1_1ros_1_1TaskArenaCentric.html#ade373c0cd97e78a34a7b4b797313c3bb" target="_top" xlink:title="atwork_commander::com\l_plugin::ros::TaskArenaCentric\l::onInit">
<polygon fill="none" stroke="black" points="381,-60.5 381,-101.5 533,-101.5 533,-60.5 381,-60.5"/>
<text text-anchor="start" x="389" y="-89.5" font-family="Helvetica,sans-Serif" font-size="10.00">atwork_commander::com</text>
<text text-anchor="start" x="389" y="-78.5" font-family="Helvetica,sans-Serif" font-size="10.00">_plugin::ros::TaskArenaCentric</text>
<text text-anchor="middle" x="457" y="-67.5" font-family="Helvetica,sans-Serif" font-size="10.00">::onInit</text>
</a>
</g>
</g>
<!-- Node4&#45;&gt;Node5 -->
<g id="edge4" class="edge"><title>Node4&#45;&gt;Node5</title>
<path fill="none" stroke="midnightblue" d="M353.793,-81C362.802,-81 371.917,-81 380.8,-81"/>
<polygon fill="midnightblue" stroke="midnightblue" points="353.683,-77.5001 343.683,-81 353.683,-84.5001 353.683,-77.5001"/>
</g>
</g>
</svg>
