<?xml version="1.0" encoding="UTF-8" standalone="no"?>
<!DOCTYPE svg PUBLIC "-//W3C//DTD SVG 1.1//EN"
 "http://www.w3.org/Graphics/SVG/1.1/DTD/svg11.dtd">
<!-- Generated by graphviz version 2.38.0 (20140413.2041)
 -->
<!-- Title: atwork_commander::task_generator::readTaskList Pages: 1 -->
<svg width="461pt" height="88pt"
 viewBox="0.00 0.00 461.00 88.00" xmlns="http://www.w3.org/2000/svg" xmlns:xlink="http://www.w3.org/1999/xlink">
<g id="graph0" class="graph" transform="scale(1 1) rotate(0) translate(4 84)">
<title>atwork_commander::task_generator::readTaskList</title>
<!-- Node1 -->
<g id="node1" class="node"><title>Node1</title>
<polygon fill="#bfbfbf" stroke="black" points="0,-24.5 0,-54.5 127,-54.5 127,-24.5 0,-24.5"/>
<text text-anchor="start" x="8" y="-42.5" font-family="Helvetica,sans-Serif" font-size="10.00">atwork_commander::task</text>
<text text-anchor="middle" x="63.5" y="-31.5" font-family="Helvetica,sans-Serif" font-size="10.00">_generator::readTaskList</text>
</g>
<!-- Node2 -->
<g id="node2" class="node"><title>Node2</title>
<g id="a_node2"><a xlink:href="namespaceatwork__commander_1_1task__generator.html#a30deb628d3b15a5ce90a74f7422c39cd" target="_top" xlink:title="atwork_commander::task\l_generator::readTask">
<polygon fill="none" stroke="black" points="163,-24.5 163,-54.5 290,-54.5 290,-24.5 163,-24.5"/>
<text text-anchor="start" x="171" y="-42.5" font-family="Helvetica,sans-Serif" font-size="10.00">atwork_commander::task</text>
<text text-anchor="middle" x="226.5" y="-31.5" font-family="Helvetica,sans-Serif" font-size="10.00">_generator::readTask</text>
</a>
</g>
</g>
<!-- Node1&#45;&gt;Node2 -->
<g id="edge1" class="edge"><title>Node1&#45;&gt;Node2</title>
<path fill="none" stroke="midnightblue" d="M127.208,-39.5C135.648,-39.5 144.363,-39.5 152.956,-39.5"/>
<polygon fill="midnightblue" stroke="midnightblue" points="152.963,-43.0001 162.963,-39.5 152.963,-36.0001 152.963,-43.0001"/>
</g>
<!-- Node3 -->
<g id="node3" class="node"><title>Node3</title>
<g id="a_node3"><a xlink:href="namespaceatwork__commander_1_1task__generator.html#aa4e366e1bb47698d7351c1b233272b63" target="_top" xlink:title="atwork_commander::task\l_generator::readStrings">
<polygon fill="none" stroke="black" points="326,-49.5 326,-79.5 453,-79.5 453,-49.5 326,-49.5"/>
<text text-anchor="start" x="334" y="-67.5" font-family="Helvetica,sans-Serif" font-size="10.00">atwork_commander::task</text>
<text text-anchor="middle" x="389.5" y="-56.5" font-family="Helvetica,sans-Serif" font-size="10.00">_generator::readStrings</text>
</a>
</g>
</g>
<!-- Node2&#45;&gt;Node3 -->
<g id="edge2" class="edge"><title>Node2&#45;&gt;Node3</title>
<path fill="none" stroke="midnightblue" d="M290.208,-49.2372C298.648,-50.5478 307.363,-51.9011 315.956,-53.2354"/>
<polygon fill="midnightblue" stroke="midnightblue" points="315.545,-56.7134 325.963,-54.7893 316.619,-49.7963 315.545,-56.7134"/>
</g>
<!-- Node4 -->
<g id="node4" class="node"><title>Node4</title>
<g id="a_node4"><a xlink:href="namespaceatwork__commander_1_1task__generator.html#a64e3d08d8d47388b9abd2a9cf45fb5f6" target="_top" xlink:title="atwork_commander::task\l_generator::readStruct">
<polygon fill="none" stroke="black" points="326,-0.5 326,-30.5 453,-30.5 453,-0.5 326,-0.5"/>
<text text-anchor="start" x="334" y="-18.5" font-family="Helvetica,sans-Serif" font-size="10.00">atwork_commander::task</text>
<text text-anchor="middle" x="389.5" y="-7.5" font-family="Helvetica,sans-Serif" font-size="10.00">_generator::readStruct</text>
</a>
</g>
</g>
<!-- Node2&#45;&gt;Node4 -->
<g id="edge3" class="edge"><title>Node2&#45;&gt;Node4</title>
<path fill="none" stroke="midnightblue" d="M290.208,-30.1523C298.648,-28.8941 307.363,-27.5949 315.956,-26.314"/>
<polygon fill="midnightblue" stroke="midnightblue" points="316.589,-29.7585 325.963,-24.8222 315.557,-22.835 316.589,-29.7585"/>
</g>
</g>
</svg>
