<?xml version="1.0" encoding="UTF-8" standalone="no"?>
<!DOCTYPE svg PUBLIC "-//W3C//DTD SVG 1.1//EN"
 "http://www.w3.org/Graphics/SVG/1.1/DTD/svg11.dtd">
<!-- Generated by graphviz version 2.38.0 (20140413.2041)
 -->
<!-- Title: atwork_commander_msgs::stateName Pages: 1 -->
<!--zoomable 524 -->
<svg id="main" version="1.1" xmlns="http://www.w3.org/2000/svg" xmlns:xlink="http://www.w3.org/1999/xlink" xml:space="preserve" onload="init(evt)">
<style type="text/css"><![CDATA[
.edge:hover path { stroke: red; }
.edge:hover polygon { stroke: red; fill: red; }
]]></style>
<script type="text/javascript"><![CDATA[
var edges = document.getElementsByTagName('g');
if (edges && edges.length) {
  for (var i=0;i<edges.length;i++) {
    if (edges[i].id.substr(0,4)=='edge') {
      edges[i].setAttribute('class','edge');
    }
  }
}
]]></script>
        <defs>
                <circle id="rim" cx="0" cy="0" r="7"/>
                <circle id="rim2" cx="0" cy="0" r="3.5"/>
                <g id="zoomPlus">
                        <use xlink:href="#rim" fill="#404040">
                                <set attributeName="fill" to="#808080" begin="zoomplus.mouseover" end="zoomplus.mouseout"/>
                        </use>
                        <path d="M-4,0h8M0,-4v8" fill="none" stroke="white" stroke-width="1.5" pointer-events="none"/>
                </g>
                <g id="zoomMin">
                        <use xlink:href="#rim" fill="#404040">
                                <set attributeName="fill" to="#808080" begin="zoomminus.mouseover" end="zoomminus.mouseout"/>
                        </use>
                        <path d="M-4,0h8" fill="none" stroke="white" stroke-width="1.5" pointer-events="none"/>
                </g>
                <g id="dirArrow">
                        <path fill="none" stroke="white" stroke-width="1.5" d="M0,-3.0v7 M-2.5,-0.5L0,-3.0L2.5,-0.5"/>
                </g>
               <g id="resetDef">
                       <use xlink:href="#rim2" fill="#404040">
                               <set attributeName="fill" to="#808080" begin="reset.mouseover" end="reset.mouseout"/>
                       </use>
               </g>
        </defs>

<script type="text/javascript">
var viewWidth = 1084;
var viewHeight = 524;
var sectionId = 'dynsection-1';
</script>
<script xlink:href="svgpan.js"/>
<svg id="graph" class="graph">
<g id="viewport">
<title>atwork_commander_msgs::stateName</title>
<!-- Node1 -->
<g id="node1" class="node"><title>Node1</title>
<polygon fill="#bfbfbf" stroke="black" points="0,-415 0,-445 131,-445 131,-415 0,-415"/>
<text text-anchor="start" x="8" y="-433" font-family="Helvetica,sans-Serif" font-size="10.00">atwork_commander_msgs</text>
<text text-anchor="middle" x="65.5" y="-422" font-family="Helvetica,sans-Serif" font-size="10.00">::stateName</text>
</g>
<!-- Node2 -->
<g id="node2" class="node"><title>Node2</title>
<g id="a_node2"><a xlink:href="classatwork__commander_1_1ControlImpl.html#a5628bbe3067a289d3d1dda5f59e9cece" target="_top" xlink:title="atwork_commander::Control\lImpl::forward">
<polygon fill="none" stroke="black" points="167,-464 167,-494 307,-494 307,-464 167,-464"/>
<text text-anchor="start" x="175" y="-482" font-family="Helvetica,sans-Serif" font-size="10.00">atwork_commander::Control</text>
<text text-anchor="middle" x="237" y="-471" font-family="Helvetica,sans-Serif" font-size="10.00">Impl::forward</text>
</a>
</g>
</g>
<!-- Node1&#45;&gt;Node2 -->
<g id="edge1" class="edge"><title>Node1&#45;&gt;Node2</title>
<path fill="none" stroke="midnightblue" d="M128.399,-447.894C146.63,-453.164 166.386,-458.876 183.934,-463.948"/>
<polygon fill="midnightblue" stroke="midnightblue" points="129.317,-444.516 118.739,-445.101 127.373,-451.241 129.317,-444.516"/>
</g>
<!-- Node8 -->
<g id="node8" class="node"><title>Node8</title>
<g id="a_node8"><a xlink:href="classatwork__commander_1_1ControlImpl.html#a61e7adc72e3d1ae5f8ba7099e7ea1a58" target="_top" xlink:title="atwork_commander::Control\lImpl::start">
<polygon fill="none" stroke="black" points="167,-366 167,-396 307,-396 307,-366 167,-366"/>
<text text-anchor="start" x="175" y="-384" font-family="Helvetica,sans-Serif" font-size="10.00">atwork_commander::Control</text>
<text text-anchor="middle" x="237" y="-373" font-family="Helvetica,sans-Serif" font-size="10.00">Impl::start</text>
</a>
</g>
</g>
<!-- Node1&#45;&gt;Node8 -->
<g id="edge7" class="edge"><title>Node1&#45;&gt;Node8</title>
<path fill="none" stroke="midnightblue" d="M128.399,-412.106C146.63,-406.836 166.386,-401.124 183.934,-396.052"/>
<polygon fill="midnightblue" stroke="midnightblue" points="127.373,-408.759 118.739,-414.899 129.317,-415.484 127.373,-408.759"/>
</g>
<!-- Node23 -->
<g id="node23" class="node"><title>Node23</title>
<g id="a_node23"><a xlink:href="classatwork__commander_1_1ControlImpl.html#aaf1ece7e47d04a8963468f0b169a400b" target="_top" xlink:title="atwork_commander::Control\lImpl::stop">
<polygon fill="none" stroke="black" points="167,-415 167,-445 307,-445 307,-415 167,-415"/>
<text text-anchor="start" x="175" y="-433" font-family="Helvetica,sans-Serif" font-size="10.00">atwork_commander::Control</text>
<text text-anchor="middle" x="237" y="-422" font-family="Helvetica,sans-Serif" font-size="10.00">Impl::stop</text>
</a>
</g>
</g>
<!-- Node1&#45;&gt;Node23 -->
<g id="edge24" class="edge"><title>Node1&#45;&gt;Node23</title>
<path fill="none" stroke="midnightblue" d="M141.319,-430C149.799,-430 158.415,-430 166.818,-430"/>
<polygon fill="midnightblue" stroke="midnightblue" points="141.064,-426.5 131.064,-430 141.064,-433.5 141.064,-426.5"/>
</g>
<!-- Node3 -->
<g id="node3" class="node"><title>Node3</title>
<g id="a_node3"><a xlink:href="classatwork__commander_1_1Control.html#a1c41197baa292fac512b2d5f9971adf5" target="_top" xlink:title="Command to forward the current state of the RefBox manually. ">
<polygon fill="none" stroke="black" points="343,-464 343,-494 483,-494 483,-464 343,-464"/>
<text text-anchor="start" x="351" y="-482" font-family="Helvetica,sans-Serif" font-size="10.00">atwork_commander::Control</text>
<text text-anchor="middle" x="413" y="-471" font-family="Helvetica,sans-Serif" font-size="10.00">::forward</text>
</a>
</g>
</g>
<!-- Node2&#45;&gt;Node3 -->
<g id="edge2" class="edge"><title>Node2&#45;&gt;Node3</title>
<path fill="none" stroke="midnightblue" d="M317.035,-479C325.625,-479 334.319,-479 342.779,-479"/>
<polygon fill="midnightblue" stroke="midnightblue" points="317.019,-475.5 307.019,-479 317.019,-482.5 317.019,-475.5"/>
</g>
<!-- Node4 -->
<g id="node4" class="node"><title>Node4</title>
<g id="a_node4"><a xlink:href="control__node_8cpp.html#af9d4be400cd482065e05d3fe6809d499" target="_top" xlink:title="forward">
<polygon fill="none" stroke="black" points="519,-496.5 519,-515.5 568,-515.5 568,-496.5 519,-496.5"/>
<text text-anchor="middle" x="543.5" y="-503.5" font-family="Helvetica,sans-Serif" font-size="10.00">forward</text>
</a>
</g>
</g>
<!-- Node3&#45;&gt;Node4 -->
<g id="edge3" class="edge"><title>Node3&#45;&gt;Node4</title>
<path fill="none" stroke="midnightblue" d="M492.977,-495.594C502.298,-497.553 511.182,-499.42 518.786,-501.017"/>
<polygon fill="midnightblue" stroke="midnightblue" points="493.646,-492.159 483.14,-493.527 492.206,-499.009 493.646,-492.159"/>
</g>
<!-- Node7 -->
<g id="node7" class="node"><title>Node7</title>
<g id="a_node7"><a xlink:href="basic__setup_8cpp.html#a3c04138a5bfe5d72780bb7e82a18e627" target="_top" xlink:title="main">
<polygon fill="none" stroke="black" points="524.5,-458.5 524.5,-477.5 562.5,-477.5 562.5,-458.5 524.5,-458.5"/>
<text text-anchor="middle" x="543.5" y="-465.5" font-family="Helvetica,sans-Serif" font-size="10.00">main</text>
</a>
</g>
</g>
<!-- Node3&#45;&gt;Node7 -->
<g id="edge6" class="edge"><title>Node3&#45;&gt;Node7</title>
<path fill="none" stroke="midnightblue" d="M493.107,-472.228C504.822,-471.225 515.84,-470.282 524.484,-469.542"/>
<polygon fill="midnightblue" stroke="midnightblue" points="492.805,-468.741 483.14,-473.081 493.402,-475.716 492.805,-468.741"/>
</g>
<!-- Node5 -->
<g id="node5" class="node"><title>Node5</title>
<g id="a_node5"><a xlink:href="control__node_8cpp.html#a98733d6ad140ddb4f5a57388e89684ea" target="_top" xlink:title="stateUpdate">
<polygon fill="none" stroke="black" points="646.5,-496.5 646.5,-515.5 716.5,-515.5 716.5,-496.5 646.5,-496.5"/>
<text text-anchor="middle" x="681.5" y="-503.5" font-family="Helvetica,sans-Serif" font-size="10.00">stateUpdate</text>
</a>
</g>
</g>
<!-- Node4&#45;&gt;Node5 -->
<g id="edge4" class="edge"><title>Node4&#45;&gt;Node5</title>
<path fill="none" stroke="midnightblue" d="M578.453,-506C599.188,-506 625.614,-506 646.379,-506"/>
<polygon fill="midnightblue" stroke="midnightblue" points="578.189,-502.5 568.189,-506 578.189,-509.5 578.189,-502.5"/>
</g>
<!-- Node6 -->
<g id="node6" class="node"><title>Node6</title>
<g id="a_node6"><a xlink:href="control__node_8cpp.html#a3c04138a5bfe5d72780bb7e82a18e627" target="_top" xlink:title="main">
<polygon fill="none" stroke="black" points="845,-496.5 845,-515.5 883,-515.5 883,-496.5 845,-496.5"/>
<text text-anchor="middle" x="864" y="-503.5" font-family="Helvetica,sans-Serif" font-size="10.00">main</text>
</a>
</g>
</g>
<!-- Node5&#45;&gt;Node6 -->
<g id="edge5" class="edge"><title>Node5&#45;&gt;Node6</title>
<path fill="none" stroke="midnightblue" d="M727.137,-506C764.999,-506 817.393,-506 844.733,-506"/>
<polygon fill="midnightblue" stroke="midnightblue" points="726.876,-502.5 716.876,-506 726.875,-509.5 726.876,-502.5"/>
</g>
<!-- Node9 -->
<g id="node9" class="node"><title>Node9</title>
<g id="a_node9"><a xlink:href="classatwork__commander_1_1Control.html#a03d7ab8dde7ac8c41b29a9480b013ed6" target="_top" xlink:title="Command to start the current Task of the RefBox. ">
<polygon fill="none" stroke="black" points="343,-366 343,-396 483,-396 483,-366 343,-366"/>
<text text-anchor="start" x="351" y="-384" font-family="Helvetica,sans-Serif" font-size="10.00">atwork_commander::Control</text>
<text text-anchor="middle" x="413" y="-373" font-family="Helvetica,sans-Serif" font-size="10.00">::start</text>
</a>
</g>
</g>
<!-- Node8&#45;&gt;Node9 -->
<g id="edge8" class="edge"><title>Node8&#45;&gt;Node9</title>
<path fill="none" stroke="midnightblue" d="M317.035,-381C325.625,-381 334.319,-381 342.779,-381"/>
<polygon fill="midnightblue" stroke="midnightblue" points="317.019,-377.5 307.019,-381 317.019,-384.5 317.019,-377.5"/>
</g>
<!-- Node9&#45;&gt;Node7 -->
<g id="edge9" class="edge"><title>Node9&#45;&gt;Node7</title>
<path fill="none" stroke="midnightblue" d="M474.437,-400.679C477.412,-402.329 480.286,-404.1 483,-406 503.42,-420.293 501.226,-431.527 519,-449 522.292,-452.237 526.098,-455.493 529.675,-458.374"/>
<polygon fill="midnightblue" stroke="midnightblue" points="475.784,-397.439 465.275,-396.087 472.647,-403.697 475.784,-397.439"/>
</g>
<!-- Node10 -->
<g id="node10" class="node"><title>Node10</title>
<g id="a_node10"><a xlink:href="control__node_8cpp.html#a92904aa73140a9bcbc31b3f01cbc1b91" target="_top" xlink:title="start">
<polygon fill="none" stroke="black" points="525.5,-289.5 525.5,-308.5 561.5,-308.5 561.5,-289.5 525.5,-289.5"/>
<text text-anchor="middle" x="543.5" y="-296.5" font-family="Helvetica,sans-Serif" font-size="10.00">start</text>
</a>
</g>
</g>
<!-- Node9&#45;&gt;Node10 -->
<g id="edge10" class="edge"><title>Node9&#45;&gt;Node10</title>
<path fill="none" stroke="midnightblue" d="M445.999,-360.58C472.045,-343.959 507.638,-321.246 527.512,-308.564"/>
<polygon fill="midnightblue" stroke="midnightblue" points="444.116,-357.63 437.569,-365.96 447.882,-363.531 444.116,-357.63"/>
</g>
<!-- Node10&#45;&gt;Node5 -->
<g id="edge22" class="edge"><title>Node10&#45;&gt;Node5</title>
<path fill="none" stroke="midnightblue" d="M548.144,-318.337C556.644,-361.45 578.973,-463.504 604,-487 615.374,-497.678 631.788,-502.614 646.498,-504.804"/>
<polygon fill="midnightblue" stroke="midnightblue" points="551.578,-317.664 546.246,-308.509 544.705,-318.991 551.578,-317.664"/>
</g>
<!-- Node11 -->
<g id="node11" class="node"><title>Node11</title>
<g id="a_node11"><a xlink:href="classatwork__commander_1_1task__generator_1_1simple_1_1Generator.html#a0515fa959863c880c68a7b02f0354af1" target="_top" xlink:title="atwork_commander::task\l_generator::simple::Generator\l::extractTablesByTypes">
<polygon fill="none" stroke="black" points="608.5,-398.5 608.5,-439.5 754.5,-439.5 754.5,-398.5 608.5,-398.5"/>
<text text-anchor="start" x="616.5" y="-427.5" font-family="Helvetica,sans-Serif" font-size="10.00">atwork_commander::task</text>
<text text-anchor="start" x="616.5" y="-416.5" font-family="Helvetica,sans-Serif" font-size="10.00">_generator::simple::Generator</text>
<text text-anchor="middle" x="681.5" y="-405.5" font-family="Helvetica,sans-Serif" font-size="10.00">::extractTablesByTypes</text>
</a>
</g>
</g>
<!-- Node10&#45;&gt;Node11 -->
<g id="edge11" class="edge"><title>Node10&#45;&gt;Node11</title>
<path fill="none" stroke="midnightblue" d="M552.715,-317.901C562.34,-338.042 580.066,-369.638 604,-389 608.326,-392.499 613.109,-395.629 618.109,-398.419"/>
<polygon fill="midnightblue" stroke="midnightblue" points="555.774,-316.175 548.43,-308.538 549.409,-319.088 555.774,-316.175"/>
</g>
<!-- Node12 -->
<g id="node12" class="node"><title>Node12</title>
<g id="a_node12"><a xlink:href="classatwork__commander_1_1task__generator_1_1jurek_1_1Generator.html#a70cc89ff444ae7b05324a744e852fd92" target="_top" xlink:title="atwork_commander::task\l_generator::jurek::Generator\l::fromTask">
<polygon fill="none" stroke="black" points="612.5,-338.5 612.5,-379.5 750.5,-379.5 750.5,-338.5 612.5,-338.5"/>
<text text-anchor="start" x="620.5" y="-367.5" font-family="Helvetica,sans-Serif" font-size="10.00">atwork_commander::task</text>
<text text-anchor="start" x="620.5" y="-356.5" font-family="Helvetica,sans-Serif" font-size="10.00">_generator::jurek::Generator</text>
<text text-anchor="middle" x="681.5" y="-345.5" font-family="Helvetica,sans-Serif" font-size="10.00">::fromTask</text>
</a>
</g>
</g>
<!-- Node10&#45;&gt;Node12 -->
<g id="edge12" class="edge"><title>Node10&#45;&gt;Node12</title>
<path fill="none" stroke="midnightblue" d="M570.64,-312.842C580.933,-318.118 592.922,-324.048 604,-329 611.163,-332.202 618.78,-335.413 626.324,-338.481"/>
<polygon fill="midnightblue" stroke="midnightblue" points="572.227,-309.722 561.738,-308.228 569.006,-315.937 572.227,-309.722"/>
</g>
<!-- Node14 -->
<g id="node14" class="node"><title>Node14</title>
<g id="a_node14"><a xlink:href="classatwork__commander_1_1task__generator_1_1simple_1_1Generator.html#ae43f7548b2a38f70517904984353d741" target="_top" xlink:title="atwork_commander::task\l_generator::simple::Generator\l::generateCavities">
<polygon fill="none" stroke="black" points="608.5,-278.5 608.5,-319.5 754.5,-319.5 754.5,-278.5 608.5,-278.5"/>
<text text-anchor="start" x="616.5" y="-307.5" font-family="Helvetica,sans-Serif" font-size="10.00">atwork_commander::task</text>
<text text-anchor="start" x="616.5" y="-296.5" font-family="Helvetica,sans-Serif" font-size="10.00">_generator::simple::Generator</text>
<text text-anchor="middle" x="681.5" y="-285.5" font-family="Helvetica,sans-Serif" font-size="10.00">::generateCavities</text>
</a>
</g>
</g>
<!-- Node10&#45;&gt;Node14 -->
<g id="edge14" class="edge"><title>Node10&#45;&gt;Node14</title>
<path fill="none" stroke="midnightblue" d="M571.979,-299C582.618,-299 595.34,-299 608.267,-299"/>
<polygon fill="midnightblue" stroke="midnightblue" points="571.725,-295.5 561.724,-299 571.724,-302.5 571.725,-295.5"/>
</g>
<!-- Node15 -->
<g id="node15" class="node"><title>Node15</title>
<g id="a_node15"><a xlink:href="classatwork__commander_1_1task__generator_1_1simple_1_1Generator.html#aeed622f5caca536e6081abc394f4ab6f" target="_top" xlink:title="atwork_commander::task\l_generator::simple::Generator\l::generateContainers">
<polygon fill="none" stroke="black" points="608.5,-218.5 608.5,-259.5 754.5,-259.5 754.5,-218.5 608.5,-218.5"/>
<text text-anchor="start" x="616.5" y="-247.5" font-family="Helvetica,sans-Serif" font-size="10.00">atwork_commander::task</text>
<text text-anchor="start" x="616.5" y="-236.5" font-family="Helvetica,sans-Serif" font-size="10.00">_generator::simple::Generator</text>
<text text-anchor="middle" x="681.5" y="-225.5" font-family="Helvetica,sans-Serif" font-size="10.00">::generateContainers</text>
</a>
</g>
</g>
<!-- Node10&#45;&gt;Node15 -->
<g id="edge15" class="edge"><title>Node10&#45;&gt;Node15</title>
<path fill="none" stroke="midnightblue" d="M570.64,-285.158C580.933,-279.882 592.922,-273.952 604,-269 611.163,-265.798 618.78,-262.587 626.324,-259.519"/>
<polygon fill="midnightblue" stroke="midnightblue" points="569.006,-282.063 561.738,-289.772 572.227,-288.278 569.006,-282.063"/>
</g>
<!-- Node16 -->
<g id="node16" class="node"><title>Node16</title>
<g id="a_node16"><a xlink:href="classatwork__commander_1_1task__generator_1_1simple_1_1Generator.html#aa392cc94f4e6c7b515066c94637864a3" target="_top" xlink:title="atwork_commander::task\l_generator::simple::Generator\l::generateImpl">
<polygon fill="none" stroke="black" points="608.5,-158.5 608.5,-199.5 754.5,-199.5 754.5,-158.5 608.5,-158.5"/>
<text text-anchor="start" x="616.5" y="-187.5" font-family="Helvetica,sans-Serif" font-size="10.00">atwork_commander::task</text>
<text text-anchor="start" x="616.5" y="-176.5" font-family="Helvetica,sans-Serif" font-size="10.00">_generator::simple::Generator</text>
<text text-anchor="middle" x="681.5" y="-165.5" font-family="Helvetica,sans-Serif" font-size="10.00">::generateImpl</text>
</a>
</g>
</g>
<!-- Node10&#45;&gt;Node16 -->
<g id="edge16" class="edge"><title>Node10&#45;&gt;Node16</title>
<path fill="none" stroke="midnightblue" d="M552.715,-280.099C562.34,-259.958 580.066,-228.362 604,-209 608.326,-205.501 613.109,-202.371 618.109,-199.581"/>
<polygon fill="midnightblue" stroke="midnightblue" points="549.409,-278.912 548.43,-289.462 555.774,-281.825 549.409,-278.912"/>
</g>
<!-- Node17 -->
<g id="node17" class="node"><title>Node17</title>
<g id="a_node17"><a xlink:href="classatwork__commander_1_1task__generator_1_1simple_1_1Generator.html#a061ffb97af3746a1667192d58ac0d1e9" target="_top" xlink:title="atwork_commander::task\l_generator::simple::Generator\l::generateObjects">
<polygon fill="none" stroke="black" points="608.5,-98.5 608.5,-139.5 754.5,-139.5 754.5,-98.5 608.5,-98.5"/>
<text text-anchor="start" x="616.5" y="-127.5" font-family="Helvetica,sans-Serif" font-size="10.00">atwork_commander::task</text>
<text text-anchor="start" x="616.5" y="-116.5" font-family="Helvetica,sans-Serif" font-size="10.00">_generator::simple::Generator</text>
<text text-anchor="middle" x="681.5" y="-105.5" font-family="Helvetica,sans-Serif" font-size="10.00">::generateObjects</text>
</a>
</g>
</g>
<!-- Node10&#45;&gt;Node17 -->
<g id="edge17" class="edge"><title>Node10&#45;&gt;Node17</title>
<path fill="none" stroke="midnightblue" d="M547.196,-279.355C552.519,-247.791 567.23,-185.626 604,-149 607.538,-145.476 611.538,-142.355 615.808,-139.593"/>
<polygon fill="midnightblue" stroke="midnightblue" points="543.698,-279.079 545.637,-289.495 550.616,-280.143 543.698,-279.079"/>
</g>
<!-- Node18 -->
<g id="node18" class="node"><title>Node18</title>
<g id="a_node18"><a xlink:href="classatwork__commander_1_1com__plugin_1_1ros_1_1TaskObjectCentric.html#a3ebc7c27450a6b6775f1aeda32610d9c" target="_top" xlink:title="atwork_commander::com\l_plugin::ros::TaskObjectCentric\l::sendTask">
<polygon fill="none" stroke="black" points="604,-38.5 604,-79.5 759,-79.5 759,-38.5 604,-38.5"/>
<text text-anchor="start" x="612" y="-67.5" font-family="Helvetica,sans-Serif" font-size="10.00">atwork_commander::com</text>
<text text-anchor="start" x="612" y="-56.5" font-family="Helvetica,sans-Serif" font-size="10.00">_plugin::ros::TaskObjectCentric</text>
<text text-anchor="middle" x="681.5" y="-45.5" font-family="Helvetica,sans-Serif" font-size="10.00">::sendTask</text>
</a>
</g>
</g>
<!-- Node10&#45;&gt;Node18 -->
<g id="edge18" class="edge"><title>Node10&#45;&gt;Node18</title>
<path fill="none" stroke="midnightblue" d="M544.542,-279.194C545.691,-238.389 553.974,-144.165 604,-89 607.162,-85.5126 610.781,-82.4258 614.685,-79.6943"/>
<polygon fill="midnightblue" stroke="midnightblue" points="541.042,-279.154 544.378,-289.21 548.041,-279.268 541.042,-279.154"/>
</g>
<!-- Node19 -->
<g id="node19" class="node"><title>Node19</title>
<g id="a_node19"><a xlink:href="structRefboxMockBase.html#a7e9673745c84952c97ebff920f58693b" target="_top" xlink:title="RefboxMockBase::startCall">
<polygon fill="none" stroke="black" points="613,-0.5 613,-19.5 750,-19.5 750,-0.5 613,-0.5"/>
<text text-anchor="middle" x="681.5" y="-7.5" font-family="Helvetica,sans-Serif" font-size="10.00">RefboxMockBase::startCall</text>
</a>
</g>
</g>
<!-- Node10&#45;&gt;Node19 -->
<g id="edge19" class="edge"><title>Node10&#45;&gt;Node19</title>
<path fill="none" stroke="midnightblue" d="M546.165,-279.502C551.32,-223.708 568.833,-65.1129 604,-29 607.723,-25.1764 612.088,-22.0768 616.812,-19.5694"/>
<polygon fill="midnightblue" stroke="midnightblue" points="542.676,-279.224 545.273,-289.495 549.648,-279.846 542.676,-279.224"/>
</g>
<!-- Node22 -->
<g id="node22" class="node"><title>Node22</title>
<g id="a_node22"><a xlink:href="tests_2src_2control_8cpp.html#a20da634552403fe88d29dd9bfaabb42c" target="_top" xlink:title="TEST_F">
<polygon fill="none" stroke="black" points="655,-458.5 655,-477.5 708,-477.5 708,-458.5 655,-458.5"/>
<text text-anchor="middle" x="681.5" y="-465.5" font-family="Helvetica,sans-Serif" font-size="10.00">TEST_F</text>
</a>
</g>
</g>
<!-- Node10&#45;&gt;Node22 -->
<g id="edge23" class="edge"><title>Node10&#45;&gt;Node22</title>
<path fill="none" stroke="midnightblue" d="M546.608,-318.788C551.125,-351.019 564.753,-414.695 604,-449 617.91,-461.158 638.423,-465.777 654.707,-467.427"/>
<polygon fill="midnightblue" stroke="midnightblue" points="550.073,-318.289 545.364,-308.798 543.127,-319.154 550.073,-318.289"/>
</g>
<!-- Node13 -->
<g id="node13" class="node"><title>Node13</title>
<g id="a_node13"><a xlink:href="classatwork__commander_1_1task__generator_1_1jurek_1_1Generator.html#a25c39f9ca5492f944c61ed463ba0b36b" target="_top" xlink:title="atwork_commander::task\l_generator::jurek::Generator\l::check">
<polygon fill="none" stroke="black" points="795,-338.5 795,-379.5 933,-379.5 933,-338.5 795,-338.5"/>
<text text-anchor="start" x="803" y="-367.5" font-family="Helvetica,sans-Serif" font-size="10.00">atwork_commander::task</text>
<text text-anchor="start" x="803" y="-356.5" font-family="Helvetica,sans-Serif" font-size="10.00">_generator::jurek::Generator</text>
<text text-anchor="middle" x="864" y="-345.5" font-family="Helvetica,sans-Serif" font-size="10.00">::check</text>
</a>
</g>
</g>
<!-- Node12&#45;&gt;Node13 -->
<g id="edge13" class="edge"><title>Node12&#45;&gt;Node13</title>
<path fill="none" stroke="midnightblue" d="M761.029,-359C772.333,-359 783.886,-359 794.964,-359"/>
<polygon fill="midnightblue" stroke="midnightblue" points="760.739,-355.5 750.739,-359 760.739,-362.5 760.739,-355.5"/>
</g>
<!-- Node20 -->
<g id="node20" class="node"><title>Node20</title>
<g id="a_node20"><a xlink:href="structRefboxMockBase.html#a4b3ccf44781edf61e4f6382899fdbf26" target="_top" xlink:title="RefboxMockBase::connect">
<polygon fill="none" stroke="black" points="796.5,-0.5 796.5,-19.5 931.5,-19.5 931.5,-0.5 796.5,-0.5"/>
<text text-anchor="middle" x="864" y="-7.5" font-family="Helvetica,sans-Serif" font-size="10.00">RefboxMockBase::connect</text>
</a>
</g>
</g>
<!-- Node19&#45;&gt;Node20 -->
<g id="edge20" class="edge"><title>Node19&#45;&gt;Node20</title>
<path fill="none" stroke="midnightblue" d="M760.248,-10C772.287,-10 784.629,-10 796.394,-10"/>
<polygon fill="midnightblue" stroke="midnightblue" points="760.225,-6.5001 750.225,-10 760.225,-13.5001 760.225,-6.5001"/>
</g>
<!-- Node21 -->
<g id="node21" class="node"><title>Node21</title>
<g id="a_node21"><a xlink:href="structControlTests.html#a2bc96f00c7bf8ee99a12bf53094c63fd" target="_top" xlink:title="ControlTests::SetUp">
<polygon fill="none" stroke="black" points="969,-0.5 969,-19.5 1076,-19.5 1076,-0.5 969,-0.5"/>
<text text-anchor="middle" x="1022.5" y="-7.5" font-family="Helvetica,sans-Serif" font-size="10.00">ControlTests::SetUp</text>
</a>
</g>
</g>
<!-- Node20&#45;&gt;Node21 -->
<g id="edge21" class="edge"><title>Node20&#45;&gt;Node21</title>
<path fill="none" stroke="midnightblue" d="M941.971,-10C950.99,-10 960.031,-10 968.615,-10"/>
<polygon fill="midnightblue" stroke="midnightblue" points="941.824,-6.5001 931.824,-10 941.824,-13.5001 941.824,-6.5001"/>
</g>
<!-- Node24 -->
<g id="node24" class="node"><title>Node24</title>
<g id="a_node24"><a xlink:href="classatwork__commander_1_1Control.html#a7fff8db983aba8be78b76aa5d49d1747" target="_top" xlink:title="Command to stop the ongoing task of the RefBox. ">
<polygon fill="none" stroke="black" points="343,-415 343,-445 483,-445 483,-415 343,-415"/>
<text text-anchor="start" x="351" y="-433" font-family="Helvetica,sans-Serif" font-size="10.00">atwork_commander::Control</text>
<text text-anchor="middle" x="413" y="-422" font-family="Helvetica,sans-Serif" font-size="10.00">::stop</text>
</a>
</g>
</g>
<!-- Node23&#45;&gt;Node24 -->
<g id="edge25" class="edge"><title>Node23&#45;&gt;Node24</title>
<path fill="none" stroke="midnightblue" d="M317.035,-430C325.625,-430 334.319,-430 342.779,-430"/>
<polygon fill="midnightblue" stroke="midnightblue" points="317.019,-426.5 307.019,-430 317.019,-433.5 317.019,-426.5"/>
</g>
<!-- Node25 -->
<g id="node25" class="node"><title>Node25</title>
<g id="a_node25"><a xlink:href="control__node_8cpp.html#aef1bb144bc6c180c58ad077faa817079" target="_top" xlink:title="stop">
<polygon fill="none" stroke="black" points="526,-420.5 526,-439.5 561,-439.5 561,-420.5 526,-420.5"/>
<text text-anchor="middle" x="543.5" y="-427.5" font-family="Helvetica,sans-Serif" font-size="10.00">stop</text>
</a>
</g>
</g>
<!-- Node24&#45;&gt;Node25 -->
<g id="edge26" class="edge"><title>Node24&#45;&gt;Node25</title>
<path fill="none" stroke="midnightblue" d="M493.489,-430C505.641,-430 517.022,-430 525.752,-430"/>
<polygon fill="midnightblue" stroke="midnightblue" points="493.14,-426.5 483.14,-430 493.14,-433.5 493.14,-426.5"/>
</g>
<!-- Node25&#45;&gt;Node5 -->
<g id="edge27" class="edge"><title>Node25&#45;&gt;Node5</title>
<path fill="none" stroke="midnightblue" d="M565.049,-446.344C566.058,-447.23 567.047,-448.119 568,-449 585.083,-464.793 583.903,-475.281 604,-487 616.767,-494.445 632.378,-498.99 646.16,-501.757"/>
<polygon fill="midnightblue" stroke="midnightblue" points="567.109,-443.504 557.198,-439.759 562.611,-448.867 567.109,-443.504"/>
</g>
</g>
</svg>
        <g id="navigator" transform="translate(0 0)" fill="#404254">
                <rect fill="#f2f5e9" fill-opacity="0.5" stroke="#606060" stroke-width=".5" x="0" y="0" width="60" height="60"/>
                <use id="zoomplus" xlink:href="#zoomPlus" x="17" y="9" onmousedown="handleZoom(evt,'in')"/>
                <use id="zoomminus" xlink:href="#zoomMin" x="42" y="9" onmousedown="handleZoom(evt,'out')"/>
                <use id="reset" xlink:href="#resetDef" x="30" y="36" onmousedown="handleReset()"/>
                <g id="arrowUp" xlink:href="#dirArrow" transform="translate(30 24)" onmousedown="handlePan(0,-1)">
                  <use xlink:href="#rim" fill="#404040">
                        <set attributeName="fill" to="#808080" begin="arrowUp.mouseover" end="arrowUp.mouseout"/>
                  </use>
                  <path fill="none" stroke="white" stroke-width="1.5" d="M0,-3.0v7 M-2.5,-0.5L0,-3.0L2.5,-0.5"/>
                </g>
                <g id="arrowRight" xlink:href="#dirArrow" transform="rotate(90) translate(36 -43)" onmousedown="handlePan(1,0)">
                  <use xlink:href="#rim" fill="#404040">
                        <set attributeName="fill" to="#808080" begin="arrowRight.mouseover" end="arrowRight.mouseout"/>
                  </use>
                  <path fill="none" stroke="white" stroke-width="1.5" d="M0,-3.0v7 M-2.5,-0.5L0,-3.0L2.5,-0.5"/>
                </g>
                <g id="arrowDown" xlink:href="#dirArrow" transform="rotate(180) translate(-30 -48)" onmousedown="handlePan(0,1)">
                  <use xlink:href="#rim" fill="#404040">
                        <set attributeName="fill" to="#808080" begin="arrowDown.mouseover" end="arrowDown.mouseout"/>
                  </use>
                  <path fill="none" stroke="white" stroke-width="1.5" d="M0,-3.0v7 M-2.5,-0.5L0,-3.0L2.5,-0.5"/>
                </g>
                <g id="arrowLeft" xlink:href="#dirArrow" transform="rotate(270) translate(-36 17)" onmousedown="handlePan(-1,0)">
                  <use xlink:href="#rim" fill="#404040">
                        <set attributeName="fill" to="#808080" begin="arrowLeft.mouseover" end="arrowLeft.mouseout"/>
                  </use>
                  <path fill="none" stroke="white" stroke-width="1.5" d="M0,-3.0v7 M-2.5,-0.5L0,-3.0L2.5,-0.5"/>
                </g>
        </g>
        <svg viewBox="0 0 15 15" width="100%" height="30px" preserveAspectRatio="xMaxYMin meet">
         <g id="arrow_out" transform="scale(0.3 0.3)">
          <a xlink:href="namespaceatwork__commander__msgs_a9ecf5e83b56ed832452324374f4ec311_icgraph_org.svg" target="_base">
           <rect id="button" ry="5" rx="5" y="6" x="6" height="38" width="38"
                fill="#f2f5e9" fill-opacity="0.5" stroke="#606060" stroke-width="1.0"/>
           <path id="arrow"
             d="M 11.500037,31.436501 C 11.940474,20.09759 22.043105,11.32322 32.158766,21.979434 L 37.068811,17.246167 C 37.068811,17.246167 37.088388,32 37.088388,32 L 22.160133,31.978069 C 22.160133,31.978069 26.997745,27.140456 26.997745,27.140456 C 18.528582,18.264221 13.291696,25.230495 11.500037,31.436501 z"
             style="fill:#404040;"/>
          </a>
         </g>
        </svg>
</svg>
