<?xml version="1.0" encoding="UTF-8" standalone="no"?>
<!DOCTYPE svg PUBLIC "-//W3C//DTD SVG 1.1//EN"
 "http://www.w3.org/Graphics/SVG/1.1/DTD/svg11.dtd">
<!-- Generated by graphviz version 2.38.0 (20140413.2041)
 -->
<!-- Title: atwork_commander::task_generator::readTask Pages: 1 -->
<svg width="491pt" height="50pt"
 viewBox="0.00 0.00 491.00 50.00" xmlns="http://www.w3.org/2000/svg" xmlns:xlink="http://www.w3.org/1999/xlink">
<g id="graph0" class="graph" transform="scale(1 1) rotate(0) translate(4 46)">
<title>atwork_commander::task_generator::readTask</title>
<!-- Node1 -->
<g id="node1" class="node"><title>Node1</title>
<polygon fill="#bfbfbf" stroke="black" points="0,-6 0,-36 127,-36 127,-6 0,-6"/>
<text text-anchor="start" x="8" y="-24" font-family="Helvetica,sans-Serif" font-size="10.00">atwork_commander::task</text>
<text text-anchor="middle" x="63.5" y="-13" font-family="Helvetica,sans-Serif" font-size="10.00">_generator::readTask</text>
</g>
<!-- Node2 -->
<g id="node2" class="node"><title>Node2</title>
<g id="a_node2"><a xlink:href="namespaceatwork__commander_1_1task__generator.html#a25e6bca21814abcc09ddefb3d4a806c5" target="_top" xlink:title="atwork_commander::task\l_generator::readTaskList">
<polygon fill="none" stroke="black" points="163,-6 163,-36 290,-36 290,-6 163,-6"/>
<text text-anchor="start" x="171" y="-24" font-family="Helvetica,sans-Serif" font-size="10.00">atwork_commander::task</text>
<text text-anchor="middle" x="226.5" y="-13" font-family="Helvetica,sans-Serif" font-size="10.00">_generator::readTaskList</text>
</a>
</g>
</g>
<!-- Node1&#45;&gt;Node2 -->
<g id="edge1" class="edge"><title>Node1&#45;&gt;Node2</title>
<path fill="none" stroke="midnightblue" d="M137.218,-21C145.813,-21 154.527,-21 162.963,-21"/>
<polygon fill="midnightblue" stroke="midnightblue" points="137.208,-17.5001 127.208,-21 137.208,-24.5001 137.208,-17.5001"/>
</g>
<!-- Node3 -->
<g id="node3" class="node"><title>Node3</title>
<g id="a_node3"><a xlink:href="classatwork__commander_1_1task__generator_1_1DefaultConfigParser.html#a81fa833314d5e8a56ee33f5803a977cf" target="_top" xlink:title="atwork_commander::task\l_generator::DefaultConfigParser\l::update">
<polygon fill="none" stroke="black" points="326,-0.5 326,-41.5 483,-41.5 483,-0.5 326,-0.5"/>
<text text-anchor="start" x="334" y="-29.5" font-family="Helvetica,sans-Serif" font-size="10.00">atwork_commander::task</text>
<text text-anchor="start" x="334" y="-18.5" font-family="Helvetica,sans-Serif" font-size="10.00">_generator::DefaultConfigParser</text>
<text text-anchor="middle" x="404.5" y="-7.5" font-family="Helvetica,sans-Serif" font-size="10.00">::update</text>
</a>
</g>
</g>
<!-- Node2&#45;&gt;Node3 -->
<g id="edge2" class="edge"><title>Node2&#45;&gt;Node3</title>
<path fill="none" stroke="midnightblue" d="M300.21,-21C308.639,-21 317.261,-21 325.753,-21"/>
<polygon fill="midnightblue" stroke="midnightblue" points="300.047,-17.5001 290.047,-21 300.047,-24.5001 300.047,-17.5001"/>
</g>
</g>
</svg>
