<?xml version="1.0" encoding="UTF-8" standalone="no"?>
<!DOCTYPE svg PUBLIC "-//W3C//DTD SVG 1.1//EN"
 "http://www.w3.org/Graphics/SVG/1.1/DTD/svg11.dtd">
<!-- Generated by graphviz version 2.38.0 (20140413.2041)
 -->
<!-- Title: atwork_commander::call Pages: 1 -->
<svg width="1081pt" height="633pt"
 viewBox="0.00 0.00 1081.00 632.50" xmlns="http://www.w3.org/2000/svg" xmlns:xlink="http://www.w3.org/1999/xlink">
<g id="graph0" class="graph" transform="scale(1 1) rotate(0) translate(4 628.5)">
<title>atwork_commander::call</title>
<!-- Node1 -->
<g id="node1" class="node"><title>Node1</title>
<polygon fill="#bfbfbf" stroke="black" points="0,-501.5 0,-520.5 123,-520.5 123,-501.5 0,-501.5"/>
<text text-anchor="middle" x="61.5" y="-508.5" font-family="Helvetica,sans-Serif" font-size="10.00">atwork_commander::call</text>
</g>
<!-- Node2 -->
<g id="node2" class="node"><title>Node2</title>
<g id="a_node2"><a xlink:href="classatwork__commander_1_1ControlImpl.html#a5628bbe3067a289d3d1dda5f59e9cece" target="_top" xlink:title="atwork_commander::Control\lImpl::forward">
<polygon fill="none" stroke="black" points="159,-496 159,-526 299,-526 299,-496 159,-496"/>
<text text-anchor="start" x="167" y="-514" font-family="Helvetica,sans-Serif" font-size="10.00">atwork_commander::Control</text>
<text text-anchor="middle" x="229" y="-503" font-family="Helvetica,sans-Serif" font-size="10.00">Impl::forward</text>
</a>
</g>
</g>
<!-- Node1&#45;&gt;Node2 -->
<g id="edge1" class="edge"><title>Node1&#45;&gt;Node2</title>
<path fill="none" stroke="midnightblue" d="M133.399,-511C141.86,-511 150.49,-511 158.925,-511"/>
<polygon fill="midnightblue" stroke="midnightblue" points="133.186,-507.5 123.186,-511 133.186,-514.5 133.186,-507.5"/>
</g>
<!-- Node8 -->
<g id="node8" class="node"><title>Node8</title>
<g id="a_node8"><a xlink:href="classatwork__commander_1_1ControlImpl.html#aa442ba265143eca7295803670ef72f3d" target="_top" xlink:title="atwork_commander::Control\lImpl::generate">
<polygon fill="none" stroke="black" points="159,-447 159,-477 299,-477 299,-447 159,-447"/>
<text text-anchor="start" x="167" y="-465" font-family="Helvetica,sans-Serif" font-size="10.00">atwork_commander::Control</text>
<text text-anchor="middle" x="229" y="-454" font-family="Helvetica,sans-Serif" font-size="10.00">Impl::generate</text>
</a>
</g>
</g>
<!-- Node1&#45;&gt;Node8 -->
<g id="edge7" class="edge"><title>Node1&#45;&gt;Node8</title>
<path fill="none" stroke="midnightblue" d="M104.564,-498.546C126.671,-492.001 153.935,-483.929 177.212,-477.037"/>
<polygon fill="midnightblue" stroke="midnightblue" points="103.398,-495.241 94.8029,-501.436 105.385,-501.953 103.398,-495.241"/>
</g>
<!-- Node14 -->
<g id="node14" class="node"><title>Node14</title>
<g id="a_node14"><a xlink:href="classatwork__commander_1_1ControlImpl.html#ab5b74ad5c6560c7d7e6111a6e85cbbfe" target="_top" xlink:title="atwork_commander::Control\lImpl::load">
<polygon fill="none" stroke="black" points="159,-545 159,-575 299,-575 299,-545 159,-545"/>
<text text-anchor="start" x="167" y="-563" font-family="Helvetica,sans-Serif" font-size="10.00">atwork_commander::Control</text>
<text text-anchor="middle" x="229" y="-552" font-family="Helvetica,sans-Serif" font-size="10.00">Impl::load</text>
</a>
</g>
</g>
<!-- Node1&#45;&gt;Node14 -->
<g id="edge15" class="edge"><title>Node1&#45;&gt;Node14</title>
<path fill="none" stroke="midnightblue" d="M104.564,-523.454C126.671,-529.999 153.935,-538.071 177.212,-544.963"/>
<polygon fill="midnightblue" stroke="midnightblue" points="105.385,-520.047 94.8029,-520.564 103.398,-526.759 105.385,-520.047"/>
</g>
<!-- Node17 -->
<g id="node17" class="node"><title>Node17</title>
<g id="a_node17"><a xlink:href="classatwork__commander_1_1ControlImpl.html#a61e7adc72e3d1ae5f8ba7099e7ea1a58" target="_top" xlink:title="atwork_commander::Control\lImpl::start">
<polygon fill="none" stroke="black" points="159,-398 159,-428 299,-428 299,-398 159,-398"/>
<text text-anchor="start" x="167" y="-416" font-family="Helvetica,sans-Serif" font-size="10.00">atwork_commander::Control</text>
<text text-anchor="middle" x="229" y="-405" font-family="Helvetica,sans-Serif" font-size="10.00">Impl::start</text>
</a>
</g>
</g>
<!-- Node1&#45;&gt;Node17 -->
<g id="edge19" class="edge"><title>Node1&#45;&gt;Node17</title>
<path fill="none" stroke="midnightblue" d="M80.3404,-494.481C98.8419,-478.063 129.186,-453.074 159,-437 165.14,-433.69 171.827,-430.694 178.542,-428.03"/>
<polygon fill="midnightblue" stroke="midnightblue" points="77.7978,-492.061 72.7175,-501.358 82.4869,-497.258 77.7978,-492.061"/>
</g>
<!-- Node30 -->
<g id="node30" class="node"><title>Node30</title>
<g id="a_node30"><a xlink:href="classatwork__commander_1_1ControlImpl.html#aaf1ece7e47d04a8963468f0b169a400b" target="_top" xlink:title="atwork_commander::Control\lImpl::stop">
<polygon fill="none" stroke="black" points="159,-594 159,-624 299,-624 299,-594 159,-594"/>
<text text-anchor="start" x="167" y="-612" font-family="Helvetica,sans-Serif" font-size="10.00">atwork_commander::Control</text>
<text text-anchor="middle" x="229" y="-601" font-family="Helvetica,sans-Serif" font-size="10.00">Impl::stop</text>
</a>
</g>
</g>
<!-- Node1&#45;&gt;Node30 -->
<g id="edge35" class="edge"><title>Node1&#45;&gt;Node30</title>
<path fill="none" stroke="midnightblue" d="M80.7258,-527.462C99.3192,-543.585 129.546,-568 159,-584 165.718,-587.649 173.077,-590.961 180.407,-593.893"/>
<polygon fill="midnightblue" stroke="midnightblue" points="82.8635,-524.68 73.046,-520.697 78.2365,-529.933 82.8635,-524.68"/>
</g>
<!-- Node3 -->
<g id="node3" class="node"><title>Node3</title>
<g id="a_node3"><a xlink:href="classatwork__commander_1_1Control.html#a1c41197baa292fac512b2d5f9971adf5" target="_top" xlink:title="Command to forward the current state of the RefBox manually. ">
<polygon fill="none" stroke="black" points="335,-496 335,-526 475,-526 475,-496 335,-496"/>
<text text-anchor="start" x="343" y="-514" font-family="Helvetica,sans-Serif" font-size="10.00">atwork_commander::Control</text>
<text text-anchor="middle" x="405" y="-503" font-family="Helvetica,sans-Serif" font-size="10.00">::forward</text>
</a>
</g>
</g>
<!-- Node2&#45;&gt;Node3 -->
<g id="edge2" class="edge"><title>Node2&#45;&gt;Node3</title>
<path fill="none" stroke="midnightblue" d="M309.035,-511C317.625,-511 326.319,-511 334.779,-511"/>
<polygon fill="midnightblue" stroke="midnightblue" points="309.019,-507.5 299.019,-511 309.019,-514.5 309.019,-507.5"/>
</g>
<!-- Node4 -->
<g id="node4" class="node"><title>Node4</title>
<g id="a_node4"><a xlink:href="basic__setup_8cpp.html#a3c04138a5bfe5d72780bb7e82a18e627" target="_top" xlink:title="main">
<polygon fill="none" stroke="black" points="519,-439.5 519,-458.5 557,-458.5 557,-439.5 519,-439.5"/>
<text text-anchor="middle" x="538" y="-446.5" font-family="Helvetica,sans-Serif" font-size="10.00">main</text>
</a>
</g>
</g>
<!-- Node3&#45;&gt;Node4 -->
<g id="edge3" class="edge"><title>Node3&#45;&gt;Node4</title>
<path fill="none" stroke="midnightblue" d="M460.782,-492.246C465.639,-490.254 470.44,-488.162 475,-486 491.989,-477.943 510.355,-466.625 522.652,-458.634"/>
<polygon fill="midnightblue" stroke="midnightblue" points="459.433,-489.015 451.418,-495.943 462.004,-495.526 459.433,-489.015"/>
</g>
<!-- Node5 -->
<g id="node5" class="node"><title>Node5</title>
<g id="a_node5"><a xlink:href="control__node_8cpp.html#af9d4be400cd482065e05d3fe6809d499" target="_top" xlink:title="forward">
<polygon fill="none" stroke="black" points="513.5,-515.5 513.5,-534.5 562.5,-534.5 562.5,-515.5 513.5,-515.5"/>
<text text-anchor="middle" x="538" y="-522.5" font-family="Helvetica,sans-Serif" font-size="10.00">forward</text>
</a>
</g>
</g>
<!-- Node3&#45;&gt;Node5 -->
<g id="edge4" class="edge"><title>Node3&#45;&gt;Node5</title>
<path fill="none" stroke="midnightblue" d="M485.566,-519.503C495.678,-520.584 505.32,-521.614 513.466,-522.485"/>
<polygon fill="midnightblue" stroke="midnightblue" points="485.651,-515.993 475.336,-518.41 484.907,-522.953 485.651,-515.993"/>
</g>
<!-- Node6 -->
<g id="node6" class="node"><title>Node6</title>
<g id="a_node6"><a xlink:href="control__node_8cpp.html#a98733d6ad140ddb4f5a57388e89684ea" target="_top" xlink:title="stateUpdate">
<polygon fill="none" stroke="black" points="643.5,-534.5 643.5,-553.5 713.5,-553.5 713.5,-534.5 643.5,-534.5"/>
<text text-anchor="middle" x="678.5" y="-541.5" font-family="Helvetica,sans-Serif" font-size="10.00">stateUpdate</text>
</a>
</g>
</g>
<!-- Node5&#45;&gt;Node6 -->
<g id="edge5" class="edge"><title>Node5&#45;&gt;Node6</title>
<path fill="none" stroke="midnightblue" d="M572.781,-529.634C594.221,-532.575 621.875,-536.369 643.38,-539.319"/>
<polygon fill="midnightblue" stroke="midnightblue" points="573.192,-526.158 562.809,-528.266 572.24,-533.093 573.192,-526.158"/>
</g>
<!-- Node7 -->
<g id="node7" class="node"><title>Node7</title>
<g id="a_node7"><a xlink:href="control__node_8cpp.html#a3c04138a5bfe5d72780bb7e82a18e627" target="_top" xlink:title="main">
<polygon fill="none" stroke="black" points="842,-534.5 842,-553.5 880,-553.5 880,-534.5 842,-534.5"/>
<text text-anchor="middle" x="861" y="-541.5" font-family="Helvetica,sans-Serif" font-size="10.00">main</text>
</a>
</g>
</g>
<!-- Node6&#45;&gt;Node7 -->
<g id="edge6" class="edge"><title>Node6&#45;&gt;Node7</title>
<path fill="none" stroke="midnightblue" d="M724.137,-544C761.999,-544 814.393,-544 841.733,-544"/>
<polygon fill="midnightblue" stroke="midnightblue" points="723.876,-540.5 713.876,-544 723.875,-547.5 723.876,-540.5"/>
</g>
<!-- Node9 -->
<g id="node9" class="node"><title>Node9</title>
<g id="a_node9"><a xlink:href="classatwork__commander_1_1Control.html#a0be93e60d9410ceaad5af2bc7a62c771" target="_top" xlink:title="Command to generate a new Task on the RefBox. ">
<polygon fill="none" stroke="black" points="335,-447 335,-477 475,-477 475,-447 335,-447"/>
<text text-anchor="start" x="343" y="-465" font-family="Helvetica,sans-Serif" font-size="10.00">atwork_commander::Control</text>
<text text-anchor="middle" x="405" y="-454" font-family="Helvetica,sans-Serif" font-size="10.00">::generate</text>
</a>
</g>
</g>
<!-- Node8&#45;&gt;Node9 -->
<g id="edge8" class="edge"><title>Node8&#45;&gt;Node9</title>
<path fill="none" stroke="midnightblue" d="M309.035,-462C317.625,-462 326.319,-462 334.779,-462"/>
<polygon fill="midnightblue" stroke="midnightblue" points="309.019,-458.5 299.019,-462 309.019,-465.5 309.019,-458.5"/>
</g>
<!-- Node9&#45;&gt;Node4 -->
<g id="edge9" class="edge"><title>Node9&#45;&gt;Node4</title>
<path fill="none" stroke="midnightblue" d="M485.433,-454.117C497.882,-452.882 509.626,-451.717 518.753,-450.811"/>
<polygon fill="midnightblue" stroke="midnightblue" points="484.941,-450.649 475.336,-455.119 485.633,-457.615 484.941,-450.649"/>
</g>
<!-- Node10 -->
<g id="node10" class="node"><title>Node10</title>
<g id="a_node10"><a xlink:href="control__node_8cpp.html#ae7f1525a6480d4cc745dc300c883f55e" target="_top" xlink:title="generate">
<polygon fill="none" stroke="black" points="511,-477.5 511,-496.5 565,-496.5 565,-477.5 511,-477.5"/>
<text text-anchor="middle" x="538" y="-484.5" font-family="Helvetica,sans-Serif" font-size="10.00">generate</text>
</a>
</g>
</g>
<!-- Node9&#45;&gt;Node10 -->
<g id="edge10" class="edge"><title>Node9&#45;&gt;Node10</title>
<path fill="none" stroke="midnightblue" d="M485.335,-477.14C494.446,-478.879 503.184,-480.547 510.798,-482"/>
<polygon fill="midnightblue" stroke="midnightblue" points="485.815,-473.669 475.336,-475.232 484.503,-480.545 485.815,-473.669"/>
</g>
<!-- Node10&#45;&gt;Node6 -->
<g id="edge14" class="edge"><title>Node10&#45;&gt;Node6</title>
<path fill="none" stroke="midnightblue" d="M560.639,-502.536C572.164,-510.211 586.85,-519.073 601,-525 614.38,-530.604 629.795,-534.825 643.266,-537.847"/>
<polygon fill="midnightblue" stroke="midnightblue" points="562.371,-499.48 552.144,-496.713 558.414,-505.254 562.371,-499.48"/>
</g>
<!-- Node11 -->
<g id="node11" class="node"><title>Node11</title>
<g id="a_node11"><a xlink:href="structRefboxMockBase.html#a853adab4d4ebd43316656b9228d85b6d" target="_top" xlink:title="RefboxMockBase::generateCall">
<polygon fill="none" stroke="black" points="601,-496.5 601,-515.5 756,-515.5 756,-496.5 601,-496.5"/>
<text text-anchor="middle" x="678.5" y="-503.5" font-family="Helvetica,sans-Serif" font-size="10.00">RefboxMockBase::generateCall</text>
</a>
</g>
</g>
<!-- Node10&#45;&gt;Node11 -->
<g id="edge11" class="edge"><title>Node10&#45;&gt;Node11</title>
<path fill="none" stroke="midnightblue" d="M575.118,-491.955C585.259,-493.346 596.64,-494.907 608.03,-496.47"/>
<polygon fill="midnightblue" stroke="midnightblue" points="575.434,-488.465 565.051,-490.574 574.482,-495.4 575.434,-488.465"/>
</g>
<!-- Node12 -->
<g id="node12" class="node"><title>Node12</title>
<g id="a_node12"><a xlink:href="structRefboxMockBase.html#a4b3ccf44781edf61e4f6382899fdbf26" target="_top" xlink:title="RefboxMockBase::connect">
<polygon fill="none" stroke="black" points="793.5,-477.5 793.5,-496.5 928.5,-496.5 928.5,-477.5 793.5,-477.5"/>
<text text-anchor="middle" x="861" y="-484.5" font-family="Helvetica,sans-Serif" font-size="10.00">RefboxMockBase::connect</text>
</a>
</g>
</g>
<!-- Node11&#45;&gt;Node12 -->
<g id="edge12" class="edge"><title>Node11&#45;&gt;Node12</title>
<path fill="none" stroke="midnightblue" d="M766.275,-496.866C775.369,-495.909 784.51,-494.946 793.327,-494.018"/>
<polygon fill="midnightblue" stroke="midnightblue" points="765.627,-493.415 756.048,-497.942 766.36,-500.376 765.627,-493.415"/>
</g>
<!-- Node13 -->
<g id="node13" class="node"><title>Node13</title>
<g id="a_node13"><a xlink:href="structControlTests.html#a2bc96f00c7bf8ee99a12bf53094c63fd" target="_top" xlink:title="ControlTests::SetUp">
<polygon fill="none" stroke="black" points="966,-477.5 966,-496.5 1073,-496.5 1073,-477.5 966,-477.5"/>
<text text-anchor="middle" x="1019.5" y="-484.5" font-family="Helvetica,sans-Serif" font-size="10.00">ControlTests::SetUp</text>
</a>
</g>
</g>
<!-- Node12&#45;&gt;Node13 -->
<g id="edge13" class="edge"><title>Node12&#45;&gt;Node13</title>
<path fill="none" stroke="midnightblue" d="M938.971,-487C947.99,-487 957.031,-487 965.615,-487"/>
<polygon fill="midnightblue" stroke="midnightblue" points="938.824,-483.5 928.824,-487 938.824,-490.5 938.824,-483.5"/>
</g>
<!-- Node15 -->
<g id="node15" class="node"><title>Node15</title>
<g id="a_node15"><a xlink:href="classatwork__commander_1_1Control.html#a37613a7516afdbb671a79cfbe5de22fc" target="_top" xlink:title="Command to load a locally stored task in the RefBox. ">
<polygon fill="none" stroke="black" points="335,-545 335,-575 475,-575 475,-545 335,-545"/>
<text text-anchor="start" x="343" y="-563" font-family="Helvetica,sans-Serif" font-size="10.00">atwork_commander::Control</text>
<text text-anchor="middle" x="405" y="-552" font-family="Helvetica,sans-Serif" font-size="10.00">::load</text>
</a>
</g>
</g>
<!-- Node14&#45;&gt;Node15 -->
<g id="edge16" class="edge"><title>Node14&#45;&gt;Node15</title>
<path fill="none" stroke="midnightblue" d="M309.035,-560C317.625,-560 326.319,-560 334.779,-560"/>
<polygon fill="midnightblue" stroke="midnightblue" points="309.019,-556.5 299.019,-560 309.019,-563.5 309.019,-556.5"/>
</g>
<!-- Node16 -->
<g id="node16" class="node"><title>Node16</title>
<g id="a_node16"><a xlink:href="control__node_8cpp.html#a7ab31acf3df582231c4eb6741df30232" target="_top" xlink:title="load">
<polygon fill="none" stroke="black" points="520.5,-553.5 520.5,-572.5 555.5,-572.5 555.5,-553.5 520.5,-553.5"/>
<text text-anchor="middle" x="538" y="-560.5" font-family="Helvetica,sans-Serif" font-size="10.00">load</text>
</a>
</g>
</g>
<!-- Node15&#45;&gt;Node16 -->
<g id="edge17" class="edge"><title>Node15&#45;&gt;Node16</title>
<path fill="none" stroke="midnightblue" d="M485.504,-561.821C498.648,-562.122 511.003,-562.405 520.315,-562.618"/>
<polygon fill="midnightblue" stroke="midnightblue" points="485.413,-558.318 475.336,-561.588 485.253,-565.316 485.413,-558.318"/>
</g>
<!-- Node16&#45;&gt;Node6 -->
<g id="edge18" class="edge"><title>Node16&#45;&gt;Node6</title>
<path fill="none" stroke="midnightblue" d="M565.718,-559.335C587.805,-556.305 619.312,-551.982 643.25,-548.699"/>
<polygon fill="midnightblue" stroke="midnightblue" points="565.138,-555.881 555.706,-560.708 566.089,-562.816 565.138,-555.881"/>
</g>
<!-- Node18 -->
<g id="node18" class="node"><title>Node18</title>
<g id="a_node18"><a xlink:href="classatwork__commander_1_1Control.html#a03d7ab8dde7ac8c41b29a9480b013ed6" target="_top" xlink:title="Command to start the current Task of the RefBox. ">
<polygon fill="none" stroke="black" points="335,-398 335,-428 475,-428 475,-398 335,-398"/>
<text text-anchor="start" x="343" y="-416" font-family="Helvetica,sans-Serif" font-size="10.00">atwork_commander::Control</text>
<text text-anchor="middle" x="405" y="-405" font-family="Helvetica,sans-Serif" font-size="10.00">::start</text>
</a>
</g>
</g>
<!-- Node17&#45;&gt;Node18 -->
<g id="edge20" class="edge"><title>Node17&#45;&gt;Node18</title>
<path fill="none" stroke="midnightblue" d="M309.035,-413C317.625,-413 326.319,-413 334.779,-413"/>
<polygon fill="midnightblue" stroke="midnightblue" points="309.019,-409.5 299.019,-413 309.019,-416.5 309.019,-409.5"/>
</g>
<!-- Node18&#45;&gt;Node4 -->
<g id="edge21" class="edge"><title>Node18&#45;&gt;Node4</title>
<path fill="none" stroke="midnightblue" d="M470.6,-430.753C488.321,-435.623 506.13,-440.517 518.837,-444.009"/>
<polygon fill="midnightblue" stroke="midnightblue" points="471.367,-427.334 460.797,-428.059 469.512,-434.083 471.367,-427.334"/>
</g>
<!-- Node19 -->
<g id="node19" class="node"><title>Node19</title>
<g id="a_node19"><a xlink:href="control__node_8cpp.html#a92904aa73140a9bcbc31b3f01cbc1b91" target="_top" xlink:title="start">
<polygon fill="none" stroke="black" points="520,-289.5 520,-308.5 556,-308.5 556,-289.5 520,-289.5"/>
<text text-anchor="middle" x="538" y="-296.5" font-family="Helvetica,sans-Serif" font-size="10.00">start</text>
</a>
</g>
</g>
<!-- Node18&#45;&gt;Node19 -->
<g id="edge22" class="edge"><title>Node18&#45;&gt;Node19</title>
<path fill="none" stroke="midnightblue" d="M430.986,-391.256C459.62,-366.338 505.264,-326.618 526.048,-308.53"/>
<polygon fill="midnightblue" stroke="midnightblue" points="428.642,-388.657 423.396,-397.862 433.237,-393.937 428.642,-388.657"/>
</g>
<!-- Node19&#45;&gt;Node6 -->
<g id="edge33" class="edge"><title>Node19&#45;&gt;Node6</title>
<path fill="none" stroke="midnightblue" d="M543.165,-318.481C554.466,-370.592 585.877,-510.24 601,-525 612.165,-535.896 628.556,-540.856 643.305,-543.005"/>
<polygon fill="midnightblue" stroke="midnightblue" points="546.544,-317.547 541.016,-308.508 539.701,-319.021 546.544,-317.547"/>
</g>
<!-- Node20 -->
<g id="node20" class="node"><title>Node20</title>
<g id="a_node20"><a xlink:href="classatwork__commander_1_1task__generator_1_1simple_1_1Generator.html#a0515fa959863c880c68a7b02f0354af1" target="_top" xlink:title="atwork_commander::task\l_generator::simple::Generator\l::extractTablesByTypes">
<polygon fill="none" stroke="black" points="605.5,-120.5 605.5,-161.5 751.5,-161.5 751.5,-120.5 605.5,-120.5"/>
<text text-anchor="start" x="613.5" y="-149.5" font-family="Helvetica,sans-Serif" font-size="10.00">atwork_commander::task</text>
<text text-anchor="start" x="613.5" y="-138.5" font-family="Helvetica,sans-Serif" font-size="10.00">_generator::simple::Generator</text>
<text text-anchor="middle" x="678.5" y="-127.5" font-family="Helvetica,sans-Serif" font-size="10.00">::extractTablesByTypes</text>
</a>
</g>
</g>
<!-- Node19&#45;&gt;Node20 -->
<g id="edge23" class="edge"><title>Node19&#45;&gt;Node20</title>
<path fill="none" stroke="midnightblue" d="M543.623,-279.472C551.133,-251.759 568.524,-201.057 601,-171 604.769,-167.512 608.991,-164.411 613.464,-161.658"/>
<polygon fill="midnightblue" stroke="midnightblue" points="540.224,-278.636 541.142,-289.191 547.006,-280.367 540.224,-278.636"/>
</g>
<!-- Node21 -->
<g id="node21" class="node"><title>Node21</title>
<g id="a_node21"><a xlink:href="classatwork__commander_1_1task__generator_1_1jurek_1_1Generator.html#a70cc89ff444ae7b05324a744e852fd92" target="_top" xlink:title="atwork_commander::task\l_generator::jurek::Generator\l::fromTask">
<polygon fill="none" stroke="black" points="609.5,-60.5 609.5,-101.5 747.5,-101.5 747.5,-60.5 609.5,-60.5"/>
<text text-anchor="start" x="617.5" y="-89.5" font-family="Helvetica,sans-Serif" font-size="10.00">atwork_commander::task</text>
<text text-anchor="start" x="617.5" y="-78.5" font-family="Helvetica,sans-Serif" font-size="10.00">_generator::jurek::Generator</text>
<text text-anchor="middle" x="678.5" y="-67.5" font-family="Helvetica,sans-Serif" font-size="10.00">::fromTask</text>
</a>
</g>
</g>
<!-- Node19&#45;&gt;Node21 -->
<g id="edge24" class="edge"><title>Node19&#45;&gt;Node21</title>
<path fill="none" stroke="midnightblue" d="M540.132,-279.218C543.318,-241.594 555.402,-159.186 601,-111 604.334,-107.477 608.132,-104.36 612.211,-101.605"/>
<polygon fill="midnightblue" stroke="midnightblue" points="536.628,-279.144 539.401,-289.37 543.61,-279.647 536.628,-279.144"/>
</g>
<!-- Node23 -->
<g id="node23" class="node"><title>Node23</title>
<g id="a_node23"><a xlink:href="classatwork__commander_1_1task__generator_1_1simple_1_1Generator.html#ae43f7548b2a38f70517904984353d741" target="_top" xlink:title="atwork_commander::task\l_generator::simple::Generator\l::generateCavities">
<polygon fill="none" stroke="black" points="605.5,-0.5 605.5,-41.5 751.5,-41.5 751.5,-0.5 605.5,-0.5"/>
<text text-anchor="start" x="613.5" y="-29.5" font-family="Helvetica,sans-Serif" font-size="10.00">atwork_commander::task</text>
<text text-anchor="start" x="613.5" y="-18.5" font-family="Helvetica,sans-Serif" font-size="10.00">_generator::simple::Generator</text>
<text text-anchor="middle" x="678.5" y="-7.5" font-family="Helvetica,sans-Serif" font-size="10.00">::generateCavities</text>
</a>
</g>
</g>
<!-- Node19&#45;&gt;Node23 -->
<g id="edge26" class="edge"><title>Node19&#45;&gt;Node23</title>
<path fill="none" stroke="midnightblue" d="M538.201,-278.834C537.476,-232.64 542.12,-117.994 601,-51 604.108,-47.4638 607.686,-44.3409 611.561,-41.5833"/>
<polygon fill="midnightblue" stroke="midnightblue" points="534.707,-279.129 538.471,-289.033 541.705,-278.944 534.707,-279.129"/>
</g>
<!-- Node24 -->
<g id="node24" class="node"><title>Node24</title>
<g id="a_node24"><a xlink:href="classatwork__commander_1_1task__generator_1_1simple_1_1Generator.html#aeed622f5caca536e6081abc394f4ab6f" target="_top" xlink:title="atwork_commander::task\l_generator::simple::Generator\l::generateContainers">
<polygon fill="none" stroke="black" points="605.5,-398.5 605.5,-439.5 751.5,-439.5 751.5,-398.5 605.5,-398.5"/>
<text text-anchor="start" x="613.5" y="-427.5" font-family="Helvetica,sans-Serif" font-size="10.00">atwork_commander::task</text>
<text text-anchor="start" x="613.5" y="-416.5" font-family="Helvetica,sans-Serif" font-size="10.00">_generator::simple::Generator</text>
<text text-anchor="middle" x="678.5" y="-405.5" font-family="Helvetica,sans-Serif" font-size="10.00">::generateContainers</text>
</a>
</g>
</g>
<!-- Node19&#45;&gt;Node24 -->
<g id="edge27" class="edge"><title>Node19&#45;&gt;Node24</title>
<path fill="none" stroke="midnightblue" d="M547.616,-317.618C557.783,-337.739 576.458,-369.531 601,-389 605.359,-392.458 610.165,-395.558 615.181,-398.33"/>
<polygon fill="midnightblue" stroke="midnightblue" points="550.722,-316 543.204,-308.534 544.425,-319.058 550.722,-316"/>
</g>
<!-- Node25 -->
<g id="node25" class="node"><title>Node25</title>
<g id="a_node25"><a xlink:href="classatwork__commander_1_1task__generator_1_1simple_1_1Generator.html#aa392cc94f4e6c7b515066c94637864a3" target="_top" xlink:title="atwork_commander::task\l_generator::simple::Generator\l::generateImpl">
<polygon fill="none" stroke="black" points="605.5,-338.5 605.5,-379.5 751.5,-379.5 751.5,-338.5 605.5,-338.5"/>
<text text-anchor="start" x="613.5" y="-367.5" font-family="Helvetica,sans-Serif" font-size="10.00">atwork_commander::task</text>
<text text-anchor="start" x="613.5" y="-356.5" font-family="Helvetica,sans-Serif" font-size="10.00">_generator::simple::Generator</text>
<text text-anchor="middle" x="678.5" y="-345.5" font-family="Helvetica,sans-Serif" font-size="10.00">::generateImpl</text>
</a>
</g>
</g>
<!-- Node19&#45;&gt;Node25 -->
<g id="edge28" class="edge"><title>Node19&#45;&gt;Node25</title>
<path fill="none" stroke="midnightblue" d="M565.257,-312.257C576.217,-317.646 589.136,-323.813 601,-329 608.189,-332.143 615.82,-335.321 623.372,-338.373"/>
<polygon fill="midnightblue" stroke="midnightblue" points="566.719,-309.076 556.205,-307.766 563.607,-315.346 566.719,-309.076"/>
</g>
<!-- Node26 -->
<g id="node26" class="node"><title>Node26</title>
<g id="a_node26"><a xlink:href="classatwork__commander_1_1task__generator_1_1simple_1_1Generator.html#a061ffb97af3746a1667192d58ac0d1e9" target="_top" xlink:title="atwork_commander::task\l_generator::simple::Generator\l::generateObjects">
<polygon fill="none" stroke="black" points="605.5,-278.5 605.5,-319.5 751.5,-319.5 751.5,-278.5 605.5,-278.5"/>
<text text-anchor="start" x="613.5" y="-307.5" font-family="Helvetica,sans-Serif" font-size="10.00">atwork_commander::task</text>
<text text-anchor="start" x="613.5" y="-296.5" font-family="Helvetica,sans-Serif" font-size="10.00">_generator::simple::Generator</text>
<text text-anchor="middle" x="678.5" y="-285.5" font-family="Helvetica,sans-Serif" font-size="10.00">::generateObjects</text>
</a>
</g>
</g>
<!-- Node19&#45;&gt;Node26 -->
<g id="edge29" class="edge"><title>Node19&#45;&gt;Node26</title>
<path fill="none" stroke="midnightblue" d="M566.31,-299C577.635,-299 591.361,-299 605.247,-299"/>
<polygon fill="midnightblue" stroke="midnightblue" points="566.261,-295.5 556.261,-299 566.261,-302.5 566.261,-295.5"/>
</g>
<!-- Node27 -->
<g id="node27" class="node"><title>Node27</title>
<g id="a_node27"><a xlink:href="classatwork__commander_1_1com__plugin_1_1ros_1_1TaskObjectCentric.html#a3ebc7c27450a6b6775f1aeda32610d9c" target="_top" xlink:title="atwork_commander::com\l_plugin::ros::TaskObjectCentric\l::sendTask">
<polygon fill="none" stroke="black" points="601,-218.5 601,-259.5 756,-259.5 756,-218.5 601,-218.5"/>
<text text-anchor="start" x="609" y="-247.5" font-family="Helvetica,sans-Serif" font-size="10.00">atwork_commander::com</text>
<text text-anchor="start" x="609" y="-236.5" font-family="Helvetica,sans-Serif" font-size="10.00">_plugin::ros::TaskObjectCentric</text>
<text text-anchor="middle" x="678.5" y="-225.5" font-family="Helvetica,sans-Serif" font-size="10.00">::sendTask</text>
</a>
</g>
</g>
<!-- Node19&#45;&gt;Node27 -->
<g id="edge30" class="edge"><title>Node19&#45;&gt;Node27</title>
<path fill="none" stroke="midnightblue" d="M565.257,-285.743C576.217,-280.354 589.136,-274.187 601,-269 608.189,-265.857 615.82,-262.679 623.372,-259.627"/>
<polygon fill="midnightblue" stroke="midnightblue" points="563.607,-282.654 556.205,-290.234 566.719,-288.924 563.607,-282.654"/>
</g>
<!-- Node28 -->
<g id="node28" class="node"><title>Node28</title>
<g id="a_node28"><a xlink:href="structRefboxMockBase.html#a7e9673745c84952c97ebff920f58693b" target="_top" xlink:title="RefboxMockBase::startCall">
<polygon fill="none" stroke="black" points="610,-458.5 610,-477.5 747,-477.5 747,-458.5 610,-458.5"/>
<text text-anchor="middle" x="678.5" y="-465.5" font-family="Helvetica,sans-Serif" font-size="10.00">RefboxMockBase::startCall</text>
</a>
</g>
</g>
<!-- Node19&#45;&gt;Node28 -->
<g id="edge31" class="edge"><title>Node19&#45;&gt;Node28</title>
<path fill="none" stroke="midnightblue" d="M541.46,-318.806C546.545,-351.065 561.278,-414.779 601,-449 605.458,-452.841 610.577,-455.927 616.009,-458.405"/>
<polygon fill="midnightblue" stroke="midnightblue" points="544.911,-318.216 540.038,-308.808 537.981,-319.201 544.911,-318.216"/>
</g>
<!-- Node29 -->
<g id="node29" class="node"><title>Node29</title>
<g id="a_node29"><a xlink:href="tests_2src_2control_8cpp.html#a20da634552403fe88d29dd9bfaabb42c" target="_top" xlink:title="TEST_F">
<polygon fill="none" stroke="black" points="652,-180.5 652,-199.5 705,-199.5 705,-180.5 652,-180.5"/>
<text text-anchor="middle" x="678.5" y="-187.5" font-family="Helvetica,sans-Serif" font-size="10.00">TEST_F</text>
</a>
</g>
</g>
<!-- Node19&#45;&gt;Node29 -->
<g id="edge34" class="edge"><title>Node19&#45;&gt;Node29</title>
<path fill="none" stroke="midnightblue" d="M547.005,-280.083C556.731,-259.432 575.109,-226.923 601,-209 615.965,-198.641 636.029,-193.917 651.854,-191.769"/>
<polygon fill="midnightblue" stroke="midnightblue" points="543.722,-278.85 542.823,-289.407 550.109,-281.715 543.722,-278.85"/>
</g>
<!-- Node22 -->
<g id="node22" class="node"><title>Node22</title>
<g id="a_node22"><a xlink:href="classatwork__commander_1_1task__generator_1_1jurek_1_1Generator.html#a25c39f9ca5492f944c61ed463ba0b36b" target="_top" xlink:title="atwork_commander::task\l_generator::jurek::Generator\l::check">
<polygon fill="none" stroke="black" points="792,-60.5 792,-101.5 930,-101.5 930,-60.5 792,-60.5"/>
<text text-anchor="start" x="800" y="-89.5" font-family="Helvetica,sans-Serif" font-size="10.00">atwork_commander::task</text>
<text text-anchor="start" x="800" y="-78.5" font-family="Helvetica,sans-Serif" font-size="10.00">_generator::jurek::Generator</text>
<text text-anchor="middle" x="861" y="-67.5" font-family="Helvetica,sans-Serif" font-size="10.00">::check</text>
</a>
</g>
</g>
<!-- Node21&#45;&gt;Node22 -->
<g id="edge25" class="edge"><title>Node21&#45;&gt;Node22</title>
<path fill="none" stroke="midnightblue" d="M758.029,-81C769.333,-81 780.886,-81 791.964,-81"/>
<polygon fill="midnightblue" stroke="midnightblue" points="757.739,-77.5001 747.739,-81 757.739,-84.5001 757.739,-77.5001"/>
</g>
<!-- Node28&#45;&gt;Node12 -->
<g id="edge32" class="edge"><title>Node28&#45;&gt;Node12</title>
<path fill="none" stroke="midnightblue" d="M757.248,-476.184C769.287,-477.451 781.629,-478.75 793.394,-479.989"/>
<polygon fill="midnightblue" stroke="midnightblue" points="757.537,-472.695 747.225,-475.129 756.804,-479.657 757.537,-472.695"/>
</g>
<!-- Node31 -->
<g id="node31" class="node"><title>Node31</title>
<g id="a_node31"><a xlink:href="classatwork__commander_1_1Control.html#a7fff8db983aba8be78b76aa5d49d1747" target="_top" xlink:title="Command to stop the ongoing task of the RefBox. ">
<polygon fill="none" stroke="black" points="335,-594 335,-624 475,-624 475,-594 335,-594"/>
<text text-anchor="start" x="343" y="-612" font-family="Helvetica,sans-Serif" font-size="10.00">atwork_commander::Control</text>
<text text-anchor="middle" x="405" y="-601" font-family="Helvetica,sans-Serif" font-size="10.00">::stop</text>
</a>
</g>
</g>
<!-- Node30&#45;&gt;Node31 -->
<g id="edge36" class="edge"><title>Node30&#45;&gt;Node31</title>
<path fill="none" stroke="midnightblue" d="M309.035,-609C317.625,-609 326.319,-609 334.779,-609"/>
<polygon fill="midnightblue" stroke="midnightblue" points="309.019,-605.5 299.019,-609 309.019,-612.5 309.019,-605.5"/>
</g>
<!-- Node32 -->
<g id="node32" class="node"><title>Node32</title>
<g id="a_node32"><a xlink:href="control__node_8cpp.html#aef1bb144bc6c180c58ad077faa817079" target="_top" xlink:title="stop">
<polygon fill="none" stroke="black" points="520.5,-594.5 520.5,-613.5 555.5,-613.5 555.5,-594.5 520.5,-594.5"/>
<text text-anchor="middle" x="538" y="-601.5" font-family="Helvetica,sans-Serif" font-size="10.00">stop</text>
</a>
</g>
</g>
<!-- Node31&#45;&gt;Node32 -->
<g id="edge37" class="edge"><title>Node31&#45;&gt;Node32</title>
<path fill="none" stroke="midnightblue" d="M485.504,-605.965C498.648,-605.464 511.003,-604.992 520.315,-604.637"/>
<polygon fill="midnightblue" stroke="midnightblue" points="485.195,-602.475 475.336,-606.354 485.462,-609.47 485.195,-602.475"/>
</g>
<!-- Node32&#45;&gt;Node6 -->
<g id="edge38" class="edge"><title>Node32&#45;&gt;Node6</title>
<path fill="none" stroke="midnightblue" d="M564.953,-592.757C590.974,-581.484 630.615,-564.311 655.244,-553.642"/>
<polygon fill="midnightblue" stroke="midnightblue" points="563.491,-589.576 555.706,-596.763 566.274,-595.999 563.491,-589.576"/>
</g>
</g>
</svg>
