<?xml version="1.0" encoding="UTF-8" standalone="no"?>
<!DOCTYPE svg PUBLIC "-//W3C//DTD SVG 1.1//EN"
 "http://www.w3.org/Graphics/SVG/1.1/DTD/svg11.dtd">
<!-- Generated by graphviz version 2.38.0 (20140413.2041)
 -->
<!-- Title: atwork_commander_msgs::objectName Pages: 1 -->
<svg width="323pt" height="127pt"
 viewBox="0.00 0.00 323.00 127.00" xmlns="http://www.w3.org/2000/svg" xmlns:xlink="http://www.w3.org/1999/xlink">
<g id="graph0" class="graph" transform="scale(1 1) rotate(0) translate(4 123)">
<title>atwork_commander_msgs::objectName</title>
<!-- Node1 -->
<g id="node1" class="node"><title>Node1</title>
<polygon fill="#bfbfbf" stroke="black" points="0,-44.5 0,-74.5 131,-74.5 131,-44.5 0,-44.5"/>
<text text-anchor="start" x="8" y="-62.5" font-family="Helvetica,sans-Serif" font-size="10.00">atwork_commander_msgs</text>
<text text-anchor="middle" x="65.5" y="-51.5" font-family="Helvetica,sans-Serif" font-size="10.00">::objectName</text>
</g>
<!-- Node2 -->
<g id="node2" class="node"><title>Node2</title>
<g id="a_node2"><a xlink:href="classatwork__commander_1_1TaskGenVisGroup.html#af031c28eda39621ff358b324522ed360" target="_top" xlink:title="generate on push ">
<polygon fill="none" stroke="black" points="167,-88.5 167,-118.5 315,-118.5 315,-88.5 167,-88.5"/>
<text text-anchor="start" x="175" y="-106.5" font-family="Helvetica,sans-Serif" font-size="10.00">atwork_commander::TaskGen</text>
<text text-anchor="middle" x="241" y="-95.5" font-family="Helvetica,sans-Serif" font-size="10.00">VisGroup::generateTask</text>
</a>
</g>
</g>
<!-- Node1&#45;&gt;Node2 -->
<g id="edge1" class="edge"><title>Node1&#45;&gt;Node2</title>
<path fill="none" stroke="midnightblue" d="M135.448,-76.9855C150.44,-80.7873 166.172,-84.777 180.749,-88.4738"/>
<polygon fill="midnightblue" stroke="midnightblue" points="136.277,-73.5849 125.724,-74.5192 134.556,-80.3701 136.277,-73.5849"/>
</g>
<!-- Node3 -->
<g id="node3" class="node"><title>Node3</title>
<g id="a_node3"><a xlink:href="ros__com__object__centric_8cpp.html#a2f6e8a5bf712b2dc9514d3fffe95d89d" target="_top" xlink:title="operator\&lt;\&lt;">
<polygon fill="none" stroke="black" points="209,-50 209,-69 273,-69 273,-50 209,-50"/>
<text text-anchor="middle" x="241" y="-57" font-family="Helvetica,sans-Serif" font-size="10.00">operator&lt;&lt;</text>
</a>
</g>
</g>
<!-- Node1&#45;&gt;Node3 -->
<g id="edge2" class="edge"><title>Node1&#45;&gt;Node3</title>
<path fill="none" stroke="midnightblue" d="M141.195,-59.5C164.963,-59.5 189.963,-59.5 208.869,-59.5"/>
<polygon fill="midnightblue" stroke="midnightblue" points="141.105,-56.0001 131.105,-59.5 141.105,-63.0001 141.105,-56.0001"/>
</g>
<!-- Node4 -->
<g id="node4" class="node"><title>Node4</title>
<g id="a_node4"><a xlink:href="classatwork__commander_1_1TaskGenVisGroup.html#ad80f0a0163cf06a0d9d050740260f0c6" target="_top" xlink:title="atwork_commander::TaskGen\lVisGroup::printArenaStateList">
<polygon fill="none" stroke="black" points="167,-0.5 167,-30.5 315,-30.5 315,-0.5 167,-0.5"/>
<text text-anchor="start" x="175" y="-18.5" font-family="Helvetica,sans-Serif" font-size="10.00">atwork_commander::TaskGen</text>
<text text-anchor="middle" x="241" y="-7.5" font-family="Helvetica,sans-Serif" font-size="10.00">VisGroup::printArenaStateList</text>
</a>
</g>
</g>
<!-- Node1&#45;&gt;Node4 -->
<g id="edge3" class="edge"><title>Node1&#45;&gt;Node4</title>
<path fill="none" stroke="midnightblue" d="M135.448,-42.0145C150.44,-38.2127 166.172,-34.223 180.749,-30.5262"/>
<polygon fill="midnightblue" stroke="midnightblue" points="134.556,-38.6299 125.724,-44.4808 136.277,-45.4151 134.556,-38.6299"/>
</g>
</g>
</svg>
