<?xml version="1.0" encoding="UTF-8" standalone="no"?>
<!DOCTYPE svg PUBLIC "-//W3C//DTD SVG 1.1//EN"
 "http://www.w3.org/Graphics/SVG/1.1/DTD/svg11.dtd">
<!-- Generated by graphviz version 2.38.0 (20140413.2041)
 -->
<!-- Title: atwork_commander::errorImpl Pages: 1 -->
<svg width="519pt" height="28pt"
 viewBox="0.00 0.00 519.00 28.00" xmlns="http://www.w3.org/2000/svg" xmlns:xlink="http://www.w3.org/1999/xlink">
<g id="graph0" class="graph" transform="scale(1 1) rotate(0) translate(4 24)">
<title>atwork_commander::errorImpl</title>
<!-- Node1 -->
<g id="node1" class="node"><title>Node1</title>
<polygon fill="#bfbfbf" stroke="black" points="0,-0.5 0,-19.5 146,-19.5 146,-0.5 0,-0.5"/>
<text text-anchor="middle" x="73" y="-7.5" font-family="Helvetica,sans-Serif" font-size="10.00">atwork_commander::errorImpl</text>
</g>
<!-- Node2 -->
<g id="node2" class="node"><title>Node2</title>
<g id="a_node2"><a xlink:href="namespaceatwork__commander.html#a77b85c1a81425387414cf9aa9f4cb12e" target="_top" xlink:title="atwork_commander::errorPass">
<polygon fill="none" stroke="black" points="182,-0.5 182,-19.5 332,-19.5 332,-0.5 182,-0.5"/>
<text text-anchor="middle" x="257" y="-7.5" font-family="Helvetica,sans-Serif" font-size="10.00">atwork_commander::errorPass</text>
</a>
</g>
</g>
<!-- Node1&#45;&gt;Node2 -->
<g id="edge1" class="edge"><title>Node1&#45;&gt;Node2</title>
<path fill="none" stroke="midnightblue" d="M146.193,-10C154.518,-10 163.064,-10 171.533,-10"/>
<polygon fill="midnightblue" stroke="midnightblue" points="171.807,-13.5001 181.807,-10 171.806,-6.5001 171.807,-13.5001"/>
</g>
<!-- Node3 -->
<g id="node3" class="node"><title>Node3</title>
<g id="a_node3"><a xlink:href="namespaceatwork__commander.html#a0995f88fb6fdfc2955c52f3d59f585c9" target="_top" xlink:title="atwork_commander::errorOut">
<polygon fill="none" stroke="black" points="368,-0.5 368,-19.5 511,-19.5 511,-0.5 368,-0.5"/>
<text text-anchor="middle" x="439.5" y="-7.5" font-family="Helvetica,sans-Serif" font-size="10.00">atwork_commander::errorOut</text>
</a>
</g>
</g>
<!-- Node2&#45;&gt;Node3 -->
<g id="edge2" class="edge"><title>Node2&#45;&gt;Node3</title>
<path fill="none" stroke="midnightblue" d="M332.198,-10C340.562,-10 349.117,-10 357.561,-10"/>
<polygon fill="midnightblue" stroke="midnightblue" points="357.787,-13.5001 367.787,-10 357.787,-6.5001 357.787,-13.5001"/>
</g>
</g>
</svg>
