<?xml version="1.0" encoding="UTF-8" standalone="no"?>
<!DOCTYPE svg PUBLIC "-//W3C//DTD SVG 1.1//EN"
 "http://www.w3.org/Graphics/SVG/1.1/DTD/svg11.dtd">
<!-- Generated by graphviz version 2.38.0 (20140413.2041)
 -->
<!-- Title: /home/travis/build/steup/atwork&#45;commander/atwork_commander_msgs/include/atwork_commander_msgs/ObjectName.h Pages: 1 -->
<svg width="312pt" height="250pt"
 viewBox="0.00 0.00 312.00 250.00" xmlns="http://www.w3.org/2000/svg" xmlns:xlink="http://www.w3.org/1999/xlink">
<g id="graph0" class="graph" transform="scale(1 1) rotate(0) translate(4 246)">
<title>/home/travis/build/steup/atwork&#45;commander/atwork_commander_msgs/include/atwork_commander_msgs/ObjectName.h</title>
<!-- Node1 -->
<g id="node1" class="node"><title>Node1</title>
<polygon fill="#bfbfbf" stroke="black" points="83.5,-178.5 83.5,-241.5 222.5,-241.5 222.5,-178.5 83.5,-178.5"/>
<text text-anchor="start" x="91.5" y="-229.5" font-family="Helvetica,sans-Serif" font-size="10.00">/home/travis/build</text>
<text text-anchor="start" x="91.5" y="-218.5" font-family="Helvetica,sans-Serif" font-size="10.00">/steup/atwork&#45;commander</text>
<text text-anchor="start" x="91.5" y="-207.5" font-family="Helvetica,sans-Serif" font-size="10.00">/atwork_commander_msgs</text>
<text text-anchor="start" x="91.5" y="-196.5" font-family="Helvetica,sans-Serif" font-size="10.00">/include/atwork_commander</text>
<text text-anchor="middle" x="153" y="-185.5" font-family="Helvetica,sans-Serif" font-size="10.00">_msgs/ObjectName.h</text>
</g>
<!-- Node2 -->
<g id="node2" class="node"><title>Node2</title>
<g id="a_node2"><a xlink:href="ros__com__object__centric_8cpp.html" target="_top" xlink:title="/home/travis/build\l/steup/atwork&#45;commander\l/atwork_commander_com/src\l/ros_com_object_centric.cpp">
<polygon fill="none" stroke="black" points="0,-89.5 0,-141.5 146,-141.5 146,-89.5 0,-89.5"/>
<text text-anchor="start" x="8" y="-129.5" font-family="Helvetica,sans-Serif" font-size="10.00">/home/travis/build</text>
<text text-anchor="start" x="8" y="-118.5" font-family="Helvetica,sans-Serif" font-size="10.00">/steup/atwork&#45;commander</text>
<text text-anchor="start" x="8" y="-107.5" font-family="Helvetica,sans-Serif" font-size="10.00">/atwork_commander_com/src</text>
<text text-anchor="middle" x="73" y="-96.5" font-family="Helvetica,sans-Serif" font-size="10.00">/ros_com_object_centric.cpp</text>
</a>
</g>
</g>
<!-- Node1&#45;&gt;Node2 -->
<g id="edge1" class="edge"><title>Node1&#45;&gt;Node2</title>
<path fill="none" stroke="midnightblue" d="M119.923,-170.755C111.467,-160.977 102.585,-150.707 94.8513,-141.766"/>
<polygon fill="midnightblue" stroke="midnightblue" points="117.394,-173.182 126.583,-178.456 122.689,-168.602 117.394,-173.182"/>
</g>
<!-- Node3 -->
<g id="node3" class="node"><title>Node3</title>
<g id="a_node3"><a xlink:href="rviz__plugin_8h.html" target="_top" xlink:title="/home/travis/build\l/steup/atwork&#45;commander\l/atwork_commander_gui/src\l/rviz_plugin.h">
<polygon fill="none" stroke="black" points="164,-89.5 164,-141.5 304,-141.5 304,-89.5 164,-89.5"/>
<text text-anchor="start" x="172" y="-129.5" font-family="Helvetica,sans-Serif" font-size="10.00">/home/travis/build</text>
<text text-anchor="start" x="172" y="-118.5" font-family="Helvetica,sans-Serif" font-size="10.00">/steup/atwork&#45;commander</text>
<text text-anchor="start" x="172" y="-107.5" font-family="Helvetica,sans-Serif" font-size="10.00">/atwork_commander_gui/src</text>
<text text-anchor="middle" x="234" y="-96.5" font-family="Helvetica,sans-Serif" font-size="10.00">/rviz_plugin.h</text>
</a>
</g>
</g>
<!-- Node1&#45;&gt;Node3 -->
<g id="edge2" class="edge"><title>Node1&#45;&gt;Node3</title>
<path fill="none" stroke="midnightblue" d="M186.491,-170.755C195.052,-160.977 204.045,-150.707 211.876,-141.766"/>
<polygon fill="midnightblue" stroke="midnightblue" points="183.702,-168.627 179.747,-178.456 188.968,-173.238 183.702,-168.627"/>
</g>
<!-- Node4 -->
<g id="node4" class="node"><title>Node4</title>
<g id="a_node4"><a xlink:href="rviz__plugin_8cpp.html" target="_top" xlink:title="/home/travis/build\l/steup/atwork&#45;commander\l/atwork_commander_gui/src\l/rviz_plugin.cpp">
<polygon fill="none" stroke="black" points="164,-0.5 164,-52.5 304,-52.5 304,-0.5 164,-0.5"/>
<text text-anchor="start" x="172" y="-40.5" font-family="Helvetica,sans-Serif" font-size="10.00">/home/travis/build</text>
<text text-anchor="start" x="172" y="-29.5" font-family="Helvetica,sans-Serif" font-size="10.00">/steup/atwork&#45;commander</text>
<text text-anchor="start" x="172" y="-18.5" font-family="Helvetica,sans-Serif" font-size="10.00">/atwork_commander_gui/src</text>
<text text-anchor="middle" x="234" y="-7.5" font-family="Helvetica,sans-Serif" font-size="10.00">/rviz_plugin.cpp</text>
</a>
</g>
</g>
<!-- Node3&#45;&gt;Node4 -->
<g id="edge3" class="edge"><title>Node3&#45;&gt;Node4</title>
<path fill="none" stroke="midnightblue" d="M234,-79.1908C234,-70.2824 234,-60.8986 234,-52.6075"/>
<polygon fill="midnightblue" stroke="midnightblue" points="230.5,-79.336 234,-89.336 237.5,-79.336 230.5,-79.336"/>
</g>
</g>
</svg>
