<?xml version="1.0" encoding="UTF-8" standalone="no"?>
<!DOCTYPE svg PUBLIC "-//W3C//DTD SVG 1.1//EN"
 "http://www.w3.org/Graphics/SVG/1.1/DTD/svg11.dtd">
<!-- Generated by graphviz version 2.38.0 (20140413.2041)
 -->
<!-- Title: /home/travis/build/steup/atwork&#45;commander/atwork_commander_com/src/robot_example_arena_centric.cpp Pages: 1 -->
<svg width="420pt" height="128pt"
 viewBox="0.00 0.00 420.00 128.00" xmlns="http://www.w3.org/2000/svg" xmlns:xlink="http://www.w3.org/1999/xlink">
<g id="graph0" class="graph" transform="scale(1 1) rotate(0) translate(4 124)">
<title>/home/travis/build/steup/atwork&#45;commander/atwork_commander_com/src/robot_example_arena_centric.cpp</title>
<!-- Node1 -->
<g id="node1" class="node"><title>Node1</title>
<polygon fill="#bfbfbf" stroke="black" points="129.5,-67.5 129.5,-119.5 295.5,-119.5 295.5,-67.5 129.5,-67.5"/>
<text text-anchor="start" x="137.5" y="-107.5" font-family="Helvetica,sans-Serif" font-size="10.00">/home/travis/build</text>
<text text-anchor="start" x="137.5" y="-96.5" font-family="Helvetica,sans-Serif" font-size="10.00">/steup/atwork&#45;commander</text>
<text text-anchor="start" x="137.5" y="-85.5" font-family="Helvetica,sans-Serif" font-size="10.00">/atwork_commander_com/src</text>
<text text-anchor="middle" x="212.5" y="-74.5" font-family="Helvetica,sans-Serif" font-size="10.00">/robot_example_arena_centric.cpp</text>
</g>
<!-- Node2 -->
<g id="node2" class="node"><title>Node2</title>
<polygon fill="none" stroke="#bfbfbf" points="0,-6 0,-25 55,-25 55,-6 0,-6"/>
<text text-anchor="middle" x="27.5" y="-13" font-family="Helvetica,sans-Serif" font-size="10.00">ros/ros.h</text>
</g>
<!-- Node1&#45;&gt;Node2 -->
<g id="edge1" class="edge"><title>Node1&#45;&gt;Node2</title>
<path fill="none" stroke="midnightblue" d="M151.411,-67.4041C120.007,-54.5027 83.1206,-39.3495 57.8087,-28.9511"/>
<polygon fill="midnightblue" stroke="midnightblue" points="58.9603,-25.6405 48.3804,-25.0779 56.3003,-32.1154 58.9603,-25.6405"/>
</g>
<!-- Node3 -->
<g id="node3" class="node"><title>Node3</title>
<polygon fill="none" stroke="#bfbfbf" points="73,-0.5 73,-30.5 204,-30.5 204,-0.5 73,-0.5"/>
<text text-anchor="start" x="81" y="-18.5" font-family="Helvetica,sans-Serif" font-size="10.00">atwork_commander_msgs</text>
<text text-anchor="middle" x="138.5" y="-7.5" font-family="Helvetica,sans-Serif" font-size="10.00">/RobotState.h</text>
</g>
<!-- Node1&#45;&gt;Node3 -->
<g id="edge2" class="edge"><title>Node1&#45;&gt;Node3</title>
<path fill="none" stroke="midnightblue" d="M187.859,-67.1931C178.662,-57.7474 168.314,-47.1194 159.477,-38.0437"/>
<polygon fill="midnightblue" stroke="midnightblue" points="161.952,-35.5683 152.468,-30.8453 156.936,-40.4517 161.952,-35.5683"/>
</g>
<!-- Node4 -->
<g id="node4" class="node"><title>Node4</title>
<polygon fill="none" stroke="#bfbfbf" points="222,-0.5 222,-30.5 353,-30.5 353,-0.5 222,-0.5"/>
<text text-anchor="start" x="230" y="-18.5" font-family="Helvetica,sans-Serif" font-size="10.00">atwork_commander_msgs</text>
<text text-anchor="middle" x="287.5" y="-7.5" font-family="Helvetica,sans-Serif" font-size="10.00">/Task.h</text>
</g>
<!-- Node1&#45;&gt;Node4 -->
<g id="edge3" class="edge"><title>Node1&#45;&gt;Node4</title>
<path fill="none" stroke="midnightblue" d="M237.474,-67.1931C246.795,-57.7474 257.283,-47.1194 266.24,-38.0437"/>
<polygon fill="midnightblue" stroke="midnightblue" points="268.811,-40.4215 273.344,-30.8453 263.828,-35.5046 268.811,-40.4215"/>
</g>
<!-- Node5 -->
<g id="node5" class="node"><title>Node5</title>
<polygon fill="none" stroke="#bfbfbf" points="371,-6 371,-25 412,-25 412,-6 371,-6"/>
<text text-anchor="middle" x="391.5" y="-13" font-family="Helvetica,sans-Serif" font-size="10.00">string</text>
</g>
<!-- Node1&#45;&gt;Node5 -->
<g id="edge4" class="edge"><title>Node1&#45;&gt;Node5</title>
<path fill="none" stroke="midnightblue" d="M276.816,-67.3556C303.516,-56.6009 334.696,-43.6296 362.5,-31 363.499,-30.546 364.515,-30.0771 365.538,-29.5981"/>
<polygon fill="midnightblue" stroke="midnightblue" points="367.257,-32.6546 374.734,-25.1483 364.208,-26.3535 367.257,-32.6546"/>
</g>
</g>
</svg>
