<?xml version="1.0" encoding="UTF-8" standalone="no"?>
<!DOCTYPE svg PUBLIC "-//W3C//DTD SVG 1.1//EN"
 "http://www.w3.org/Graphics/SVG/1.1/DTD/svg11.dtd">
<!-- Generated by graphviz version 2.38.0 (20140413.2041)
 -->
<!-- Title: /home/travis/build/steup/atwork&#45;commander/atwork_commander_com/src/ros_com_object_centric.cpp Pages: 1 -->
<svg width="932pt" height="195pt"
 viewBox="0.00 0.00 931.50 195.00" xmlns="http://www.w3.org/2000/svg" xmlns:xlink="http://www.w3.org/1999/xlink">
<g id="graph0" class="graph" transform="scale(1 1) rotate(0) translate(4 191)">
<title>/home/travis/build/steup/atwork&#45;commander/atwork_commander_com/src/ros_com_object_centric.cpp</title>
<!-- Node1 -->
<g id="node1" class="node"><title>Node1</title>
<polygon fill="#bfbfbf" stroke="black" points="546.5,-134.5 546.5,-186.5 692.5,-186.5 692.5,-134.5 546.5,-134.5"/>
<text text-anchor="start" x="554.5" y="-174.5" font-family="Helvetica,sans-Serif" font-size="10.00">/home/travis/build</text>
<text text-anchor="start" x="554.5" y="-163.5" font-family="Helvetica,sans-Serif" font-size="10.00">/steup/atwork&#45;commander</text>
<text text-anchor="start" x="554.5" y="-152.5" font-family="Helvetica,sans-Serif" font-size="10.00">/atwork_commander_com/src</text>
<text text-anchor="middle" x="619.5" y="-141.5" font-family="Helvetica,sans-Serif" font-size="10.00">/ros_com_object_centric.cpp</text>
</g>
<!-- Node2 -->
<g id="node2" class="node"><title>Node2</title>
<g id="a_node2"><a xlink:href="plugin__interface_8h.html" target="_top" xlink:title="atwork_commander_com\l/plugin_interface.h">
<polygon fill="none" stroke="black" points="75.5,-67.5 75.5,-97.5 201.5,-97.5 201.5,-67.5 75.5,-67.5"/>
<text text-anchor="start" x="83.5" y="-85.5" font-family="Helvetica,sans-Serif" font-size="10.00">atwork_commander_com</text>
<text text-anchor="middle" x="138.5" y="-74.5" font-family="Helvetica,sans-Serif" font-size="10.00">/plugin_interface.h</text>
</a>
</g>
</g>
<!-- Node1&#45;&gt;Node2 -->
<g id="edge1" class="edge"><title>Node1&#45;&gt;Node2</title>
<path fill="none" stroke="midnightblue" d="M546.369,-149.521C466.749,-138.42 335.437,-119.424 211.801,-98.0008"/>
<polygon fill="midnightblue" stroke="midnightblue" points="212.227,-94.5224 201.774,-96.2551 211.026,-101.419 212.227,-94.5224"/>
</g>
<!-- Node6 -->
<g id="node6" class="node"><title>Node6</title>
<polygon fill="none" stroke="#bfbfbf" points="221,-67.5 221,-97.5 352,-97.5 352,-67.5 221,-67.5"/>
<text text-anchor="start" x="229" y="-85.5" font-family="Helvetica,sans-Serif" font-size="10.00">atwork_commander_msgs</text>
<text text-anchor="middle" x="286.5" y="-74.5" font-family="Helvetica,sans-Serif" font-size="10.00">/ObjectTask.h</text>
</g>
<!-- Node1&#45;&gt;Node6 -->
<g id="edge5" class="edge"><title>Node1&#45;&gt;Node6</title>
<path fill="none" stroke="midnightblue" d="M546.422,-142.821C490.343,-130.023 413.358,-112.453 357.742,-99.7595"/>
<polygon fill="midnightblue" stroke="midnightblue" points="358.493,-96.3409 347.965,-97.528 356.935,-103.165 358.493,-96.3409"/>
</g>
<!-- Node7 -->
<g id="node7" class="node"><title>Node7</title>
<g id="a_node7"><a xlink:href="ObjectName_8h.html" target="_top" xlink:title="atwork_commander_msgs\l/ObjectName.h">
<polygon fill="none" stroke="black" points="370,-67.5 370,-97.5 501,-97.5 501,-67.5 370,-67.5"/>
<text text-anchor="start" x="378" y="-85.5" font-family="Helvetica,sans-Serif" font-size="10.00">atwork_commander_msgs</text>
<text text-anchor="middle" x="435.5" y="-74.5" font-family="Helvetica,sans-Serif" font-size="10.00">/ObjectName.h</text>
</a>
</g>
</g>
<!-- Node1&#45;&gt;Node7 -->
<g id="edge6" class="edge"><title>Node1&#45;&gt;Node7</title>
<path fill="none" stroke="midnightblue" d="M558.742,-134.404C532.705,-123.65 502.88,-111.331 479.093,-101.506"/>
<polygon fill="midnightblue" stroke="midnightblue" points="480.209,-98.1799 469.63,-97.5971 477.536,-104.65 480.209,-98.1799"/>
</g>
<!-- Node9 -->
<g id="node9" class="node"><title>Node9</title>
<polygon fill="none" stroke="#bfbfbf" points="519.5,-67.5 519.5,-97.5 615.5,-97.5 615.5,-67.5 519.5,-67.5"/>
<text text-anchor="start" x="527.5" y="-85.5" font-family="Helvetica,sans-Serif" font-size="10.00">pluginlib/class_list</text>
<text text-anchor="middle" x="567.5" y="-74.5" font-family="Helvetica,sans-Serif" font-size="10.00">_macros.h</text>
</g>
<!-- Node1&#45;&gt;Node9 -->
<g id="edge8" class="edge"><title>Node1&#45;&gt;Node9</title>
<path fill="none" stroke="midnightblue" d="M602.185,-134.193C595.98,-125.125 589.031,-114.968 582.991,-106.14"/>
<polygon fill="midnightblue" stroke="midnightblue" points="585.851,-104.122 577.315,-97.8453 580.073,-108.075 585.851,-104.122"/>
</g>
<!-- Node10 -->
<g id="node10" class="node"><title>Node10</title>
<polygon fill="none" stroke="#bfbfbf" points="633.5,-73 633.5,-92 711.5,-92 711.5,-73 633.5,-73"/>
<text text-anchor="middle" x="672.5" y="-80" font-family="Helvetica,sans-Serif" font-size="10.00">unordered_set</text>
</g>
<!-- Node1&#45;&gt;Node10 -->
<g id="edge9" class="edge"><title>Node1&#45;&gt;Node10</title>
<path fill="none" stroke="midnightblue" d="M637.148,-134.193C644.816,-123.198 653.6,-110.602 660.494,-100.716"/>
<polygon fill="midnightblue" stroke="midnightblue" points="663.577,-102.413 666.427,-92.2089 657.836,-98.4093 663.577,-102.413"/>
</g>
<!-- Node11 -->
<g id="node11" class="node"><title>Node11</title>
<polygon fill="none" stroke="#bfbfbf" points="730,-73 730,-92 813,-92 813,-73 730,-73"/>
<text text-anchor="middle" x="771.5" y="-80" font-family="Helvetica,sans-Serif" font-size="10.00">unordered_map</text>
</g>
<!-- Node1&#45;&gt;Node11 -->
<g id="edge10" class="edge"><title>Node1&#45;&gt;Node11</title>
<path fill="none" stroke="midnightblue" d="M669.692,-134.404C694.924,-121.788 724.462,-107.019 745.204,-96.6482"/>
<polygon fill="midnightblue" stroke="midnightblue" points="746.965,-99.6806 754.344,-92.0779 743.835,-93.4196 746.965,-99.6806"/>
</g>
<!-- Node12 -->
<g id="node12" class="node"><title>Node12</title>
<polygon fill="none" stroke="#bfbfbf" points="831.5,-73 831.5,-92 861.5,-92 861.5,-73 831.5,-73"/>
<text text-anchor="middle" x="846.5" y="-80" font-family="Helvetica,sans-Serif" font-size="10.00">set</text>
</g>
<!-- Node1&#45;&gt;Node12 -->
<g id="edge11" class="edge"><title>Node1&#45;&gt;Node12</title>
<path fill="none" stroke="midnightblue" d="M692.96,-141.993C732.247,-131.459 780.952,-116.496 822.5,-98 823.2,-97.6882 823.906,-97.3599 824.612,-97.0182"/>
<polygon fill="midnightblue" stroke="midnightblue" points="826.525,-99.9613 833.615,-92.0889 823.163,-93.8213 826.525,-99.9613"/>
</g>
<!-- Node13 -->
<g id="node13" class="node"><title>Node13</title>
<polygon fill="none" stroke="#bfbfbf" points="879.5,-73 879.5,-92 923.5,-92 923.5,-73 879.5,-73"/>
<text text-anchor="middle" x="901.5" y="-80" font-family="Helvetica,sans-Serif" font-size="10.00">vector</text>
</g>
<!-- Node1&#45;&gt;Node13 -->
<g id="edge12" class="edge"><title>Node1&#45;&gt;Node13</title>
<path fill="none" stroke="midnightblue" d="M692.554,-145.581C743.236,-134.964 811.896,-118.658 870.5,-98 872.118,-97.4296 873.765,-96.8035 875.415,-96.1413"/>
<polygon fill="midnightblue" stroke="midnightblue" points="876.93,-99.2993 884.697,-92.094 874.132,-92.8827 876.93,-99.2993"/>
</g>
<!-- Node3 -->
<g id="node3" class="node"><title>Node3</title>
<polygon fill="none" stroke="#bfbfbf" points="0,-6 0,-25 55,-25 55,-6 0,-6"/>
<text text-anchor="middle" x="27.5" y="-13" font-family="Helvetica,sans-Serif" font-size="10.00">ros/ros.h</text>
</g>
<!-- Node2&#45;&gt;Node3 -->
<g id="edge2" class="edge"><title>Node2&#45;&gt;Node3</title>
<path fill="none" stroke="midnightblue" d="M114.415,-67.396C95.5417,-56.3442 69.4422,-41.0607 50.7792,-30.1319"/>
<polygon fill="midnightblue" stroke="midnightblue" points="52.4253,-27.04 42.0273,-25.007 48.888,-33.0805 52.4253,-27.04"/>
</g>
<!-- Node4 -->
<g id="node4" class="node"><title>Node4</title>
<polygon fill="none" stroke="#bfbfbf" points="73,-0.5 73,-30.5 204,-30.5 204,-0.5 73,-0.5"/>
<text text-anchor="start" x="81" y="-18.5" font-family="Helvetica,sans-Serif" font-size="10.00">atwork_commander_msgs</text>
<text text-anchor="middle" x="138.5" y="-7.5" font-family="Helvetica,sans-Serif" font-size="10.00">/Task.h</text>
</g>
<!-- Node2&#45;&gt;Node4 -->
<g id="edge3" class="edge"><title>Node2&#45;&gt;Node4</title>
<path fill="none" stroke="midnightblue" d="M138.5,-67.396C138.5,-59.6448 138.5,-49.8122 138.5,-40.8601"/>
<polygon fill="midnightblue" stroke="midnightblue" points="142,-40.5765 138.5,-30.5765 135,-40.5765 142,-40.5765"/>
</g>
<!-- Node5 -->
<g id="node5" class="node"><title>Node5</title>
<polygon fill="none" stroke="#bfbfbf" points="222,-0.5 222,-30.5 353,-30.5 353,-0.5 222,-0.5"/>
<text text-anchor="start" x="230" y="-18.5" font-family="Helvetica,sans-Serif" font-size="10.00">atwork_commander_msgs</text>
<text text-anchor="middle" x="287.5" y="-7.5" font-family="Helvetica,sans-Serif" font-size="10.00">/RobotState.h</text>
</g>
<!-- Node2&#45;&gt;Node5 -->
<g id="edge4" class="edge"><title>Node2&#45;&gt;Node5</title>
<path fill="none" stroke="midnightblue" d="M170.831,-67.396C192.797,-57.8135 222.055,-45.0498 245.776,-34.7016"/>
<polygon fill="midnightblue" stroke="midnightblue" points="247.466,-37.7831 255.232,-30.5765 244.667,-31.367 247.466,-37.7831"/>
</g>
<!-- Node8 -->
<g id="node8" class="node"><title>Node8</title>
<polygon fill="none" stroke="#bfbfbf" points="371,-0.5 371,-30.5 502,-30.5 502,-0.5 371,-0.5"/>
<text text-anchor="start" x="379" y="-18.5" font-family="Helvetica,sans-Serif" font-size="10.00">atwork_commander_msgs</text>
<text text-anchor="middle" x="436.5" y="-7.5" font-family="Helvetica,sans-Serif" font-size="10.00">/Object.h</text>
</g>
<!-- Node7&#45;&gt;Node8 -->
<g id="edge7" class="edge"><title>Node7&#45;&gt;Node8</title>
<path fill="none" stroke="midnightblue" d="M435.717,-67.396C435.836,-59.6448 435.988,-49.8122 436.125,-40.8601"/>
<polygon fill="midnightblue" stroke="midnightblue" points="439.629,-40.6292 436.283,-30.5765 432.63,-40.5215 439.629,-40.6292"/>
</g>
</g>
</svg>
