<?xml version="1.0" encoding="UTF-8" standalone="no"?>
<!DOCTYPE svg PUBLIC "-//W3C//DTD SVG 1.1//EN"
 "http://www.w3.org/Graphics/SVG/1.1/DTD/svg11.dtd">
<!-- Generated by graphviz version 2.38.0 (20140413.2041)
 -->
<!-- Title: /home/travis/build/steup/atwork&#45;commander/atwork_commander_gui/src/rviz_plugin.cpp Pages: 1 -->
<!--zoomable 262 -->
<svg id="main" version="1.1" xmlns="http://www.w3.org/2000/svg" xmlns:xlink="http://www.w3.org/1999/xlink" xml:space="preserve" onload="init(evt)">
<style type="text/css"><![CDATA[
.edge:hover path { stroke: red; }
.edge:hover polygon { stroke: red; fill: red; }
]]></style>
<script type="text/javascript"><![CDATA[
var edges = document.getElementsByTagName('g');
if (edges && edges.length) {
  for (var i=0;i<edges.length;i++) {
    if (edges[i].id.substr(0,4)=='edge') {
      edges[i].setAttribute('class','edge');
    }
  }
}
]]></script>
        <defs>
                <circle id="rim" cx="0" cy="0" r="7"/>
                <circle id="rim2" cx="0" cy="0" r="3.5"/>
                <g id="zoomPlus">
                        <use xlink:href="#rim" fill="#404040">
                                <set attributeName="fill" to="#808080" begin="zoomplus.mouseover" end="zoomplus.mouseout"/>
                        </use>
                        <path d="M-4,0h8M0,-4v8" fill="none" stroke="white" stroke-width="1.5" pointer-events="none"/>
                </g>
                <g id="zoomMin">
                        <use xlink:href="#rim" fill="#404040">
                                <set attributeName="fill" to="#808080" begin="zoomminus.mouseover" end="zoomminus.mouseout"/>
                        </use>
                        <path d="M-4,0h8" fill="none" stroke="white" stroke-width="1.5" pointer-events="none"/>
                </g>
                <g id="dirArrow">
                        <path fill="none" stroke="white" stroke-width="1.5" d="M0,-3.0v7 M-2.5,-0.5L0,-3.0L2.5,-0.5"/>
                </g>
               <g id="resetDef">
                       <use xlink:href="#rim2" fill="#404040">
                               <set attributeName="fill" to="#808080" begin="reset.mouseover" end="reset.mouseout"/>
                       </use>
               </g>
        </defs>

<script type="text/javascript">
var viewWidth = 2582;
var viewHeight = 262;
var sectionId = 'dynsection-0';
</script>
<script xlink:href="svgpan.js"/>
<svg id="graph" class="graph">
<g id="viewport">
<title>/home/travis/build/steup/atwork&#45;commander/atwork_commander_gui/src/rviz_plugin.cpp</title>
<!-- Node1 -->
<g id="node1" class="node"><title>Node1</title>
<polygon fill="#bfbfbf" stroke="black" points="1041.5,-201.5 1041.5,-253.5 1181.5,-253.5 1181.5,-201.5 1041.5,-201.5"/>
<text text-anchor="start" x="1049.5" y="-241.5" font-family="Helvetica,sans-Serif" font-size="10.00">/home/travis/build</text>
<text text-anchor="start" x="1049.5" y="-230.5" font-family="Helvetica,sans-Serif" font-size="10.00">/steup/atwork&#45;commander</text>
<text text-anchor="start" x="1049.5" y="-219.5" font-family="Helvetica,sans-Serif" font-size="10.00">/atwork_commander_gui/src</text>
<text text-anchor="middle" x="1111.5" y="-208.5" font-family="Helvetica,sans-Serif" font-size="10.00">/rviz_plugin.cpp</text>
</g>
<!-- Node2 -->
<g id="node2" class="node"><title>Node2</title>
<g id="a_node2"><a xlink:href="rviz__plugin_8h.html" target="_top" xlink:title="rviz_plugin.h">
<polygon fill="none" stroke="black" points="1025,-140 1025,-159 1096,-159 1096,-140 1025,-140"/>
<text text-anchor="middle" x="1060.5" y="-147" font-family="Helvetica,sans-Serif" font-size="10.00">rviz_plugin.h</text>
</a>
</g>
</g>
<!-- Node1&#45;&gt;Node2 -->
<g id="edge1" class="edge"><title>Node1&#45;&gt;Node2</title>
<path fill="none" stroke="midnightblue" d="M1094.52,-201.193C1087.14,-190.198 1078.69,-177.602 1072.05,-167.716"/>
<polygon fill="midnightblue" stroke="midnightblue" points="1074.82,-165.562 1066.34,-159.209 1069.01,-169.463 1074.82,-165.562"/>
</g>
<!-- Node33 -->
<g id="node33" class="node"><title>Node33</title>
<polygon fill="none" stroke="#bfbfbf" points="1114.5,-134.5 1114.5,-164.5 1210.5,-164.5 1210.5,-134.5 1114.5,-134.5"/>
<text text-anchor="start" x="1122.5" y="-152.5" font-family="Helvetica,sans-Serif" font-size="10.00">pluginlib/class_list</text>
<text text-anchor="middle" x="1162.5" y="-141.5" font-family="Helvetica,sans-Serif" font-size="10.00">_macros.h</text>
</g>
<!-- Node1&#45;&gt;Node33 -->
<g id="edge32" class="edge"><title>Node1&#45;&gt;Node33</title>
<path fill="none" stroke="midnightblue" d="M1128.48,-201.193C1134.5,-192.22 1141.24,-182.179 1147.12,-173.416"/>
<polygon fill="midnightblue" stroke="midnightblue" points="1150.21,-175.099 1152.87,-164.845 1144.4,-171.199 1150.21,-175.099"/>
</g>
<!-- Node3 -->
<g id="node3" class="node"><title>Node3</title>
<polygon fill="none" stroke="#bfbfbf" points="0,-73 0,-92 73,-92 73,-73 0,-73"/>
<text text-anchor="middle" x="36.5" y="-80" font-family="Helvetica,sans-Serif" font-size="10.00">QComboBox</text>
</g>
<!-- Node2&#45;&gt;Node3 -->
<g id="edge2" class="edge"><title>Node2&#45;&gt;Node3</title>
<path fill="none" stroke="midnightblue" d="M1024.98,-147.872C872.031,-144.981 268.954,-131.635 82.5,-98 78.2356,-97.2307 73.8155,-96.1799 69.4769,-94.9929"/>
<polygon fill="midnightblue" stroke="midnightblue" points="70.1968,-91.5551 59.6133,-92.0441 68.1918,-98.2618 70.1968,-91.5551"/>
</g>
<!-- Node4 -->
<g id="node4" class="node"><title>Node4</title>
<polygon fill="none" stroke="#bfbfbf" points="91.5,-73 91.5,-92 183.5,-92 183.5,-73 91.5,-73"/>
<text text-anchor="middle" x="137.5" y="-80" font-family="Helvetica,sans-Serif" font-size="10.00">QDoubleSpinBox</text>
</g>
<!-- Node2&#45;&gt;Node4 -->
<g id="edge3" class="edge"><title>Node2&#45;&gt;Node4</title>
<path fill="none" stroke="midnightblue" d="M1024.67,-148.964C905.56,-149.966 512.256,-148.927 192.5,-98 186.954,-97.1166 181.157,-95.9101 175.495,-94.5675"/>
<polygon fill="midnightblue" stroke="midnightblue" points="176.085,-91.1066 165.532,-92.0445 174.367,-97.8924 176.085,-91.1066"/>
</g>
<!-- Node5 -->
<g id="node5" class="node"><title>Node5</title>
<polygon fill="none" stroke="#bfbfbf" points="201.5,-73 201.5,-92 277.5,-92 277.5,-73 201.5,-73"/>
<text text-anchor="middle" x="239.5" y="-80" font-family="Helvetica,sans-Serif" font-size="10.00">QFormLayout</text>
</g>
<!-- Node2&#45;&gt;Node5 -->
<g id="edge4" class="edge"><title>Node2&#45;&gt;Node5</title>
<path fill="none" stroke="midnightblue" d="M1024.65,-149.122C913.812,-150.414 567.255,-149.727 286.5,-98 282.249,-97.2167 277.841,-96.1762 273.504,-95.0108"/>
<polygon fill="midnightblue" stroke="midnightblue" points="274.204,-91.5689 263.624,-92.1271 272.243,-98.2886 274.204,-91.5689"/>
</g>
<!-- Node6 -->
<g id="node6" class="node"><title>Node6</title>
<polygon fill="none" stroke="#bfbfbf" points="295.5,-73 295.5,-92 373.5,-92 373.5,-73 295.5,-73"/>
<text text-anchor="middle" x="334.5" y="-80" font-family="Helvetica,sans-Serif" font-size="10.00">QHBoxLayout</text>
</g>
<!-- Node2&#45;&gt;Node6 -->
<g id="edge5" class="edge"><title>Node2&#45;&gt;Node6</title>
<path fill="none" stroke="midnightblue" d="M1024.92,-148.504C923.704,-147.949 625.802,-142.363 383.5,-98 378.959,-97.1687 374.24,-96.0763 369.603,-94.8633"/>
<polygon fill="midnightblue" stroke="midnightblue" points="370.257,-91.4114 359.683,-92.0698 368.36,-98.1494 370.257,-91.4114"/>
</g>
<!-- Node7 -->
<g id="node7" class="node"><title>Node7</title>
<polygon fill="none" stroke="#bfbfbf" points="392,-73 392,-92 439,-92 439,-73 392,-73"/>
<text text-anchor="middle" x="415.5" y="-80" font-family="Helvetica,sans-Serif" font-size="10.00">QLabel</text>
</g>
<!-- Node2&#45;&gt;Node7 -->
<g id="edge6" class="edge"><title>Node2&#45;&gt;Node7</title>
<path fill="none" stroke="midnightblue" d="M1024.62,-147.098C910.794,-142.406 558.821,-125.954 448.5,-98 446.197,-97.4164 443.851,-96.6869 441.526,-95.8677"/>
<polygon fill="midnightblue" stroke="midnightblue" points="442.829,-92.6196 432.245,-92.1387 440.219,-99.1148 442.829,-92.6196"/>
</g>
<!-- Node8 -->
<g id="node8" class="node"><title>Node8</title>
<polygon fill="none" stroke="#bfbfbf" points="457,-73 457,-92 516,-92 516,-73 457,-73"/>
<text text-anchor="middle" x="486.5" y="-80" font-family="Helvetica,sans-Serif" font-size="10.00">QLineEdit</text>
</g>
<!-- Node2&#45;&gt;Node8 -->
<g id="edge7" class="edge"><title>Node2&#45;&gt;Node8</title>
<path fill="none" stroke="midnightblue" d="M1024.94,-148.337C938.349,-147.253 710.113,-140.26 525.5,-98 522.43,-97.2973 519.275,-96.4135 516.153,-95.4306"/>
<polygon fill="midnightblue" stroke="midnightblue" points="517.029,-92.0299 506.434,-92.0537 514.732,-98.6421 517.029,-92.0299"/>
</g>
<!-- Node9 -->
<g id="node9" class="node"><title>Node9</title>
<polygon fill="none" stroke="#bfbfbf" points="534.5,-73 534.5,-92 596.5,-92 596.5,-73 534.5,-73"/>
<text text-anchor="middle" x="565.5" y="-80" font-family="Helvetica,sans-Serif" font-size="10.00">QListView</text>
</g>
<!-- Node2&#45;&gt;Node9 -->
<g id="edge8" class="edge"><title>Node2&#45;&gt;Node9</title>
<path fill="none" stroke="midnightblue" d="M1024.72,-147.301C947.438,-144.108 759.555,-133.087 606.5,-98 603.262,-97.2577 599.926,-96.3422 596.621,-95.335"/>
<polygon fill="midnightblue" stroke="midnightblue" points="597.523,-91.9467 586.93,-92.1197 595.319,-98.5906 597.523,-91.9467"/>
</g>
<!-- Node10 -->
<g id="node10" class="node"><title>Node10</title>
<polygon fill="none" stroke="#bfbfbf" points="615,-73 615,-92 696,-92 696,-73 615,-73"/>
<text text-anchor="middle" x="655.5" y="-80" font-family="Helvetica,sans-Serif" font-size="10.00">QMessageBox</text>
</g>
<!-- Node2&#45;&gt;Node10 -->
<g id="edge9" class="edge"><title>Node2&#45;&gt;Node10</title>
<path fill="none" stroke="midnightblue" d="M1024.94,-145.119C960.674,-138.637 821.137,-122.863 705.5,-98 701.107,-97.0554 696.534,-95.9308 692.017,-94.7317"/>
<polygon fill="midnightblue" stroke="midnightblue" points="692.882,-91.3395 682.31,-92.0288 691.004,-98.083 692.882,-91.3395"/>
</g>
<!-- Node11 -->
<g id="node11" class="node"><title>Node11</title>
<polygon fill="none" stroke="#bfbfbf" points="714,-73 714,-92 789,-92 789,-73 714,-73"/>
<text text-anchor="middle" x="751.5" y="-80" font-family="Helvetica,sans-Serif" font-size="10.00">QPushButton</text>
</g>
<!-- Node2&#45;&gt;Node11 -->
<g id="edge10" class="edge"><title>Node2&#45;&gt;Node11</title>
<path fill="none" stroke="midnightblue" d="M1024.63,-142.859C973.914,-134.594 878.497,-117.986 798.5,-98 794.891,-97.0983 791.149,-96.0837 787.425,-95.0206"/>
<polygon fill="midnightblue" stroke="midnightblue" points="788.29,-91.6266 777.708,-92.1377 786.299,-98.3375 788.29,-91.6266"/>
</g>
<!-- Node12 -->
<g id="node12" class="node"><title>Node12</title>
<polygon fill="none" stroke="#bfbfbf" points="807,-73 807,-92 876,-92 876,-73 807,-73"/>
<text text-anchor="middle" x="841.5" y="-80" font-family="Helvetica,sans-Serif" font-size="10.00">QScrollArea</text>
</g>
<!-- Node2&#45;&gt;Node12 -->
<g id="edge11" class="edge"><title>Node2&#45;&gt;Node12</title>
<path fill="none" stroke="midnightblue" d="M1029.73,-139.997C994.7,-130.228 935.804,-113.541 885.5,-98 882.597,-97.103 879.592,-96.155 876.579,-95.1905"/>
<polygon fill="midnightblue" stroke="midnightblue" points="877.633,-91.8531 867.041,-92.0962 875.473,-98.5114 877.633,-91.8531"/>
</g>
<!-- Node13 -->
<g id="node13" class="node"><title>Node13</title>
<polygon fill="none" stroke="#bfbfbf" points="894,-73 894,-92 965,-92 965,-73 894,-73"/>
<text text-anchor="middle" x="929.5" y="-80" font-family="Helvetica,sans-Serif" font-size="10.00">QSizePolicy</text>
</g>
<!-- Node2&#45;&gt;Node13 -->
<g id="edge12" class="edge"><title>Node2&#45;&gt;Node13</title>
<path fill="none" stroke="midnightblue" d="M1043.1,-139.869C1020.89,-128.845 982.213,-109.655 956.24,-96.7678"/>
<polygon fill="midnightblue" stroke="midnightblue" points="957.481,-93.4767 946.968,-92.1672 954.37,-99.7473 957.481,-93.4767"/>
</g>
<!-- Node14 -->
<g id="node14" class="node"><title>Node14</title>
<polygon fill="none" stroke="#bfbfbf" points="983,-73 983,-92 1044,-92 1044,-73 983,-73"/>
<text text-anchor="middle" x="1013.5" y="-80" font-family="Helvetica,sans-Serif" font-size="10.00">QSpinBox</text>
</g>
<!-- Node2&#45;&gt;Node14 -->
<g id="edge13" class="edge"><title>Node2&#45;&gt;Node14</title>
<path fill="none" stroke="midnightblue" d="M1054.16,-139.734C1046.9,-129.695 1034.84,-113.014 1025.74,-100.421"/>
<polygon fill="midnightblue" stroke="midnightblue" points="1028.43,-98.18 1019.74,-92.1273 1022.76,-102.282 1028.43,-98.18"/>
</g>
<!-- Node15 -->
<g id="node15" class="node"><title>Node15</title>
<polygon fill="none" stroke="#bfbfbf" points="1062,-73 1062,-92 1153,-92 1153,-73 1062,-73"/>
<text text-anchor="middle" x="1107.5" y="-80" font-family="Helvetica,sans-Serif" font-size="10.00">QStackedWidget</text>
</g>
<!-- Node2&#45;&gt;Node15 -->
<g id="edge14" class="edge"><title>Node2&#45;&gt;Node15</title>
<path fill="none" stroke="midnightblue" d="M1066.84,-139.734C1074.1,-129.695 1086.16,-113.014 1095.26,-100.421"/>
<polygon fill="midnightblue" stroke="midnightblue" points="1098.24,-102.282 1101.26,-92.1273 1092.57,-98.18 1098.24,-102.282"/>
</g>
<!-- Node16 -->
<g id="node16" class="node"><title>Node16</title>
<polygon fill="none" stroke="#bfbfbf" points="1171.5,-73 1171.5,-92 1221.5,-92 1221.5,-73 1171.5,-73"/>
<text text-anchor="middle" x="1196.5" y="-80" font-family="Helvetica,sans-Serif" font-size="10.00">QString</text>
</g>
<!-- Node2&#45;&gt;Node16 -->
<g id="edge15" class="edge"><title>Node2&#45;&gt;Node16</title>
<path fill="none" stroke="midnightblue" d="M1078.56,-139.869C1101.73,-128.796 1142.13,-109.486 1169.1,-96.5978"/>
<polygon fill="midnightblue" stroke="midnightblue" points="1170.85,-99.6373 1178.37,-92.1672 1167.83,-93.3216 1170.85,-99.6373"/>
</g>
<!-- Node17 -->
<g id="node17" class="node"><title>Node17</title>
<polygon fill="none" stroke="#bfbfbf" points="1240,-73 1240,-92 1305,-92 1305,-73 1240,-73"/>
<text text-anchor="middle" x="1272.5" y="-80" font-family="Helvetica,sans-Serif" font-size="10.00">QStringList</text>
</g>
<!-- Node2&#45;&gt;Node17 -->
<g id="edge16" class="edge"><title>Node2&#45;&gt;Node17</title>
<path fill="none" stroke="midnightblue" d="M1086.63,-139.927C1092.81,-137.944 1099.38,-135.868 1105.5,-134 1160.8,-117.132 1175.38,-115.439 1230.5,-98 1233.1,-97.1776 1235.78,-96.3059 1238.47,-95.4142"/>
<polygon fill="midnightblue" stroke="midnightblue" points="1239.79,-98.6651 1248.14,-92.1496 1237.55,-92.0331 1239.79,-98.6651"/>
</g>
<!-- Node18 -->
<g id="node18" class="node"><title>Node18</title>
<polygon fill="none" stroke="#bfbfbf" points="1323.5,-73 1323.5,-92 1415.5,-92 1415.5,-73 1323.5,-73"/>
<text text-anchor="middle" x="1369.5" y="-80" font-family="Helvetica,sans-Serif" font-size="10.00">QStringListModel</text>
</g>
<!-- Node2&#45;&gt;Node18 -->
<g id="edge17" class="edge"><title>Node2&#45;&gt;Node18</title>
<path fill="none" stroke="midnightblue" d="M1085.08,-139.889C1091.66,-137.774 1098.8,-135.647 1105.5,-134 1197.03,-111.49 1222.4,-118.033 1314.5,-98 1319.26,-96.9657 1324.22,-95.7922 1329.13,-94.5716"/>
<polygon fill="midnightblue" stroke="midnightblue" points="1330.25,-97.8989 1339.07,-92.0291 1328.51,-91.1174 1330.25,-97.8989"/>
</g>
<!-- Node19 -->
<g id="node19" class="node"><title>Node19</title>
<polygon fill="none" stroke="#bfbfbf" points="1434,-73 1434,-92 1495,-92 1495,-73 1434,-73"/>
<text text-anchor="middle" x="1464.5" y="-80" font-family="Helvetica,sans-Serif" font-size="10.00">QTextEdit</text>
</g>
<!-- Node2&#45;&gt;Node19 -->
<g id="edge18" class="edge"><title>Node2&#45;&gt;Node19</title>
<path fill="none" stroke="midnightblue" d="M1084.08,-139.926C1090.91,-137.709 1098.44,-135.52 1105.5,-134 1244.98,-103.972 1285.58,-130.537 1424.5,-98 1427.57,-97.282 1430.72,-96.4011 1433.85,-95.4314"/>
<polygon fill="midnightblue" stroke="midnightblue" points="1435.26,-98.6479 1443.61,-92.1226 1433.01,-92.0185 1435.26,-98.6479"/>
</g>
<!-- Node20 -->
<g id="node20" class="node"><title>Node20</title>
<polygon fill="none" stroke="#bfbfbf" points="1513,-73 1513,-92 1562,-92 1562,-73 1513,-73"/>
<text text-anchor="middle" x="1537.5" y="-80" font-family="Helvetica,sans-Serif" font-size="10.00">QTimer</text>
</g>
<!-- Node2&#45;&gt;Node20 -->
<g id="edge19" class="edge"><title>Node2&#45;&gt;Node20</title>
<path fill="none" stroke="midnightblue" d="M1083.59,-139.975C1090.55,-137.703 1098.26,-135.474 1105.5,-134 1279.97,-98.4779 1332.07,-142.394 1504.5,-98 1506.8,-97.4076 1509.15,-96.6719 1511.47,-95.8486"/>
<polygon fill="midnightblue" stroke="midnightblue" points="1512.78,-99.0943 1520.75,-92.1123 1510.16,-92.601 1512.78,-99.0943"/>
</g>
<!-- Node21 -->
<g id="node21" class="node"><title>Node21</title>
<polygon fill="none" stroke="#bfbfbf" points="1580,-73 1580,-92 1657,-92 1657,-73 1580,-73"/>
<text text-anchor="middle" x="1618.5" y="-80" font-family="Helvetica,sans-Serif" font-size="10.00">QVBoxLayout</text>
</g>
<!-- Node2&#45;&gt;Node21 -->
<g id="edge20" class="edge"><title>Node2&#45;&gt;Node21</title>
<path fill="none" stroke="midnightblue" d="M1083.58,-139.917C1090.54,-137.643 1098.25,-135.427 1105.5,-134 1309.32,-93.8697 1367.44,-136.859 1571.5,-98 1575.75,-97.1913 1580.15,-96.1354 1584.49,-94.9617"/>
<polygon fill="midnightblue" stroke="midnightblue" points="1585.75,-98.2384 1594.37,-92.0702 1583.79,-91.5202 1585.75,-98.2384"/>
</g>
<!-- Node22 -->
<g id="node22" class="node"><title>Node22</title>
<polygon fill="none" stroke="#bfbfbf" points="1675,-73 1675,-92 1730,-92 1730,-73 1675,-73"/>
<text text-anchor="middle" x="1702.5" y="-80" font-family="Helvetica,sans-Serif" font-size="10.00">ros/ros.h</text>
</g>
<!-- Node2&#45;&gt;Node22 -->
<g id="edge21" class="edge"><title>Node2&#45;&gt;Node22</title>
<path fill="none" stroke="midnightblue" d="M1083.57,-139.857C1090.53,-137.582 1098.24,-135.38 1105.5,-134 1350.95,-87.3296 1422.87,-153.375 1666.5,-98 1669.33,-97.356 1672.23,-96.5175 1675.1,-95.5683"/>
<polygon fill="midnightblue" stroke="midnightblue" points="1676.41,-98.8158 1684.55,-92.0364 1673.96,-92.2587 1676.41,-98.8158"/>
</g>
<!-- Node23 -->
<g id="node23" class="node"><title>Node23</title>
<polygon fill="none" stroke="#bfbfbf" points="1748,-73 1748,-92 1815,-92 1815,-73 1748,-73"/>
<text text-anchor="middle" x="1781.5" y="-80" font-family="Helvetica,sans-Serif" font-size="10.00">rviz/panel.h</text>
</g>
<!-- Node2&#45;&gt;Node23 -->
<g id="edge22" class="edge"><title>Node2&#45;&gt;Node23</title>
<path fill="none" stroke="midnightblue" d="M1083.1,-139.975C1090.18,-137.645 1098.08,-135.383 1105.5,-134 1382.96,-82.301 1462.59,-152.569 1739.5,-98 1743.2,-97.271 1747.02,-96.2919 1750.77,-95.1847"/>
<polygon fill="midnightblue" stroke="midnightblue" points="1752.02,-98.4596 1760.45,-92.0385 1749.85,-91.8027 1752.02,-98.4596"/>
</g>
<!-- Node24 -->
<g id="node24" class="node"><title>Node24</title>
<polygon fill="none" stroke="#bfbfbf" points="1833.5,-73 1833.5,-92 1929.5,-92 1929.5,-73 1833.5,-73"/>
<text text-anchor="middle" x="1881.5" y="-80" font-family="Helvetica,sans-Serif" font-size="10.00">std_msgs/String.h</text>
</g>
<!-- Node2&#45;&gt;Node24 -->
<g id="edge23" class="edge"><title>Node2&#45;&gt;Node24</title>
<path fill="none" stroke="midnightblue" d="M1083.1,-139.945C1090.17,-137.613 1098.07,-135.358 1105.5,-134 1420.24,-76.4438 1508.12,-145.676 1824.5,-98 1830.45,-97.1033 1836.68,-95.8509 1842.75,-94.4541"/>
<polygon fill="midnightblue" stroke="midnightblue" points="1843.85,-97.7876 1852.73,-92.0045 1842.18,-90.9894 1843.85,-97.7876"/>
</g>
<!-- Node25 -->
<g id="node25" class="node"><title>Node25</title>
<g id="a_node25"><a xlink:href="ObjectName_8h.html" target="_top" xlink:title="atwork_commander_msgs\l/ObjectName.h">
<polygon fill="none" stroke="black" points="1948,-67.5 1948,-97.5 2079,-97.5 2079,-67.5 1948,-67.5"/>
<text text-anchor="start" x="1956" y="-85.5" font-family="Helvetica,sans-Serif" font-size="10.00">atwork_commander_msgs</text>
<text text-anchor="middle" x="2013.5" y="-74.5" font-family="Helvetica,sans-Serif" font-size="10.00">/ObjectName.h</text>
</a>
</g>
</g>
<!-- Node2&#45;&gt;Node25 -->
<g id="edge24" class="edge"><title>Node2&#45;&gt;Node25</title>
<path fill="none" stroke="midnightblue" d="M1083.09,-139.913C1090.16,-137.581 1098.07,-135.333 1105.5,-134 1466.95,-69.1768 1568.64,-139.986 1937.58,-97.9619"/>
<polygon fill="midnightblue" stroke="midnightblue" points="1938.21,-101.413 1947.74,-96.7844 1937.4,-94.4595 1938.21,-101.413"/>
</g>
<!-- Node27 -->
<g id="node27" class="node"><title>Node27</title>
<g id="a_node27"><a xlink:href="Control_8hpp.html" target="_top" xlink:title="atwork_commander/Control.hpp">
<polygon fill="none" stroke="black" points="2239,-73 2239,-92 2394,-92 2394,-73 2239,-73"/>
<text text-anchor="middle" x="2316.5" y="-80" font-family="Helvetica,sans-Serif" font-size="10.00">atwork_commander/Control.hpp</text>
</a>
</g>
</g>
<!-- Node2&#45;&gt;Node27 -->
<g id="edge26" class="edge"><title>Node2&#45;&gt;Node27</title>
<path fill="none" stroke="midnightblue" d="M1083.09,-139.883C1090.16,-137.549 1098.06,-135.309 1105.5,-134 1320.78,-96.122 1870.18,-108.938 2088.5,-98 2134.89,-95.6757 2186.55,-92.4435 2228.95,-89.6205"/>
<polygon fill="midnightblue" stroke="midnightblue" points="2229.22,-93.1105 2238.97,-88.9501 2228.75,-86.1261 2229.22,-93.1105"/>
</g>
<!-- Node26 -->
<g id="node26" class="node"><title>Node26</title>
<polygon fill="none" stroke="#bfbfbf" points="1876,-0.5 1876,-30.5 2007,-30.5 2007,-0.5 1876,-0.5"/>
<text text-anchor="start" x="1884" y="-18.5" font-family="Helvetica,sans-Serif" font-size="10.00">atwork_commander_msgs</text>
<text text-anchor="middle" x="1941.5" y="-7.5" font-family="Helvetica,sans-Serif" font-size="10.00">/Object.h</text>
</g>
<!-- Node25&#45;&gt;Node26 -->
<g id="edge25" class="edge"><title>Node25&#45;&gt;Node26</title>
<path fill="none" stroke="midnightblue" d="M1997.88,-67.396C1988.16,-58.6227 1975.49,-47.1827 1964.62,-37.3714"/>
<polygon fill="midnightblue" stroke="midnightblue" points="1966.86,-34.6796 1957.09,-30.5765 1962.17,-39.8755 1966.86,-34.6796"/>
</g>
<!-- Node28 -->
<g id="node28" class="node"><title>Node28</title>
<polygon fill="none" stroke="#bfbfbf" points="2025,-0.5 2025,-30.5 2156,-30.5 2156,-0.5 2025,-0.5"/>
<text text-anchor="start" x="2033" y="-18.5" font-family="Helvetica,sans-Serif" font-size="10.00">atwork_commander_msgs</text>
<text text-anchor="middle" x="2090.5" y="-7.5" font-family="Helvetica,sans-Serif" font-size="10.00">/RefboxState.h</text>
</g>
<!-- Node27&#45;&gt;Node28 -->
<g id="edge27" class="edge"><title>Node27&#45;&gt;Node28</title>
<path fill="none" stroke="midnightblue" d="M2286.49,-72.8685C2251.55,-62.8195 2193.02,-45.9852 2149,-33.3243"/>
<polygon fill="midnightblue" stroke="midnightblue" points="2149.85,-29.9285 2139.27,-30.5281 2147.92,-36.6558 2149.85,-29.9285"/>
</g>
<!-- Node29 -->
<g id="node29" class="node"><title>Node29</title>
<polygon fill="none" stroke="#bfbfbf" points="2174,-0.5 2174,-30.5 2305,-30.5 2305,-0.5 2174,-0.5"/>
<text text-anchor="start" x="2182" y="-18.5" font-family="Helvetica,sans-Serif" font-size="10.00">atwork_commander_msgs</text>
<text text-anchor="middle" x="2239.5" y="-7.5" font-family="Helvetica,sans-Serif" font-size="10.00">/Task.h</text>
</g>
<!-- Node27&#45;&gt;Node29 -->
<g id="edge28" class="edge"><title>Node27&#45;&gt;Node29</title>
<path fill="none" stroke="midnightblue" d="M2306.12,-72.7338C2295.41,-63.6959 2278.32,-49.2739 2264.14,-37.2982"/>
<polygon fill="midnightblue" stroke="midnightblue" points="2266.09,-34.3651 2256.19,-30.589 2261.57,-39.7141 2266.09,-34.3651"/>
</g>
<!-- Node30 -->
<g id="node30" class="node"><title>Node30</title>
<polygon fill="none" stroke="#bfbfbf" points="2323,-6 2323,-25 2452,-25 2452,-6 2323,-6"/>
<text text-anchor="middle" x="2387.5" y="-13" font-family="Helvetica,sans-Serif" font-size="10.00">boost/filesystem/path.hpp</text>
</g>
<!-- Node27&#45;&gt;Node30 -->
<g id="edge29" class="edge"><title>Node27&#45;&gt;Node30</title>
<path fill="none" stroke="midnightblue" d="M2326.08,-72.7338C2337.47,-62.3055 2356.69,-44.7088 2370.6,-31.9732"/>
<polygon fill="midnightblue" stroke="midnightblue" points="2373.06,-34.4614 2378.08,-25.1273 2368.34,-29.2983 2373.06,-34.4614"/>
</g>
<!-- Node31 -->
<g id="node31" class="node"><title>Node31</title>
<polygon fill="none" stroke="#bfbfbf" points="2470,-6 2470,-25 2511,-25 2511,-6 2470,-6"/>
<text text-anchor="middle" x="2490.5" y="-13" font-family="Helvetica,sans-Serif" font-size="10.00">string</text>
</g>
<!-- Node27&#45;&gt;Node31 -->
<g id="edge30" class="edge"><title>Node27&#45;&gt;Node31</title>
<path fill="none" stroke="midnightblue" d="M2344.43,-72.9522C2373.92,-63.652 2421.59,-47.8442 2461.5,-31 2462.7,-30.4952 2463.91,-29.9637 2465.13,-29.4143"/>
<polygon fill="midnightblue" stroke="midnightblue" points="2466.89,-32.4573 2474.41,-25.0024 2463.88,-26.1354 2466.89,-32.4573"/>
</g>
<!-- Node32 -->
<g id="node32" class="node"><title>Node32</title>
<polygon fill="none" stroke="#bfbfbf" points="2529.5,-6 2529.5,-25 2573.5,-25 2573.5,-6 2529.5,-6"/>
<text text-anchor="middle" x="2551.5" y="-13" font-family="Helvetica,sans-Serif" font-size="10.00">vector</text>
</g>
<!-- Node27&#45;&gt;Node32 -->
<g id="edge31" class="edge"><title>Node27&#45;&gt;Node32</title>
<path fill="none" stroke="midnightblue" d="M2361.81,-72.9298C2403.65,-64.3981 2467.19,-49.8645 2520.5,-31 2522.12,-30.4277 2523.76,-29.8001 2525.41,-29.1368"/>
<polygon fill="midnightblue" stroke="midnightblue" points="2526.93,-32.2942 2534.69,-25.0864 2524.13,-25.8785 2526.93,-32.2942"/>
</g>
</g>
</svg>
        <g id="navigator" transform="translate(0 0)" fill="#404254">
                <rect fill="#f2f5e9" fill-opacity="0.5" stroke="#606060" stroke-width=".5" x="0" y="0" width="60" height="60"/>
                <use id="zoomplus" xlink:href="#zoomPlus" x="17" y="9" onmousedown="handleZoom(evt,'in')"/>
                <use id="zoomminus" xlink:href="#zoomMin" x="42" y="9" onmousedown="handleZoom(evt,'out')"/>
                <use id="reset" xlink:href="#resetDef" x="30" y="36" onmousedown="handleReset()"/>
                <g id="arrowUp" xlink:href="#dirArrow" transform="translate(30 24)" onmousedown="handlePan(0,-1)">
                  <use xlink:href="#rim" fill="#404040">
                        <set attributeName="fill" to="#808080" begin="arrowUp.mouseover" end="arrowUp.mouseout"/>
                  </use>
                  <path fill="none" stroke="white" stroke-width="1.5" d="M0,-3.0v7 M-2.5,-0.5L0,-3.0L2.5,-0.5"/>
                </g>
                <g id="arrowRight" xlink:href="#dirArrow" transform="rotate(90) translate(36 -43)" onmousedown="handlePan(1,0)">
                  <use xlink:href="#rim" fill="#404040">
                        <set attributeName="fill" to="#808080" begin="arrowRight.mouseover" end="arrowRight.mouseout"/>
                  </use>
                  <path fill="none" stroke="white" stroke-width="1.5" d="M0,-3.0v7 M-2.5,-0.5L0,-3.0L2.5,-0.5"/>
                </g>
                <g id="arrowDown" xlink:href="#dirArrow" transform="rotate(180) translate(-30 -48)" onmousedown="handlePan(0,1)">
                  <use xlink:href="#rim" fill="#404040">
                        <set attributeName="fill" to="#808080" begin="arrowDown.mouseover" end="arrowDown.mouseout"/>
                  </use>
                  <path fill="none" stroke="white" stroke-width="1.5" d="M0,-3.0v7 M-2.5,-0.5L0,-3.0L2.5,-0.5"/>
                </g>
                <g id="arrowLeft" xlink:href="#dirArrow" transform="rotate(270) translate(-36 17)" onmousedown="handlePan(-1,0)">
                  <use xlink:href="#rim" fill="#404040">
                        <set attributeName="fill" to="#808080" begin="arrowLeft.mouseover" end="arrowLeft.mouseout"/>
                  </use>
                  <path fill="none" stroke="white" stroke-width="1.5" d="M0,-3.0v7 M-2.5,-0.5L0,-3.0L2.5,-0.5"/>
                </g>
        </g>
        <svg viewBox="0 0 15 15" width="100%" height="30px" preserveAspectRatio="xMaxYMin meet">
         <g id="arrow_out" transform="scale(0.3 0.3)">
          <a xlink:href="rviz__plugin_8cpp__incl_org.svg" target="_base">
           <rect id="button" ry="5" rx="5" y="6" x="6" height="38" width="38"
                fill="#f2f5e9" fill-opacity="0.5" stroke="#606060" stroke-width="1.0"/>
           <path id="arrow"
             d="M 11.500037,31.436501 C 11.940474,20.09759 22.043105,11.32322 32.158766,21.979434 L 37.068811,17.246167 C 37.068811,17.246167 37.088388,32 37.088388,32 L 22.160133,31.978069 C 22.160133,31.978069 26.997745,27.140456 26.997745,27.140456 C 18.528582,18.264221 13.291696,25.230495 11.500037,31.436501 z"
             style="fill:#404040;"/>
          </a>
         </g>
        </svg>
</svg>
