<?xml version="1.0" encoding="UTF-8" standalone="no"?>
<!DOCTYPE svg PUBLIC "-//W3C//DTD SVG 1.1//EN"
 "http://www.w3.org/Graphics/SVG/1.1/DTD/svg11.dtd">
<!-- Generated by graphviz version 2.38.0 (20140413.2041)
 -->
<!-- Title: /home/travis/build/steup/atwork&#45;commander/atwork_commander_gui/src/rviz_plugin.h Pages: 1 -->
<svg width="2582pt" height="195pt"
 viewBox="0.00 0.00 2581.50 195.00" xmlns="http://www.w3.org/2000/svg" xmlns:xlink="http://www.w3.org/1999/xlink">
<g id="graph0" class="graph" transform="scale(1 1) rotate(0) translate(4 191)">
<title>/home/travis/build/steup/atwork&#45;commander/atwork_commander_gui/src/rviz_plugin.h</title>
<!-- Node1 -->
<g id="node1" class="node"><title>Node1</title>
<polygon fill="#bfbfbf" stroke="black" points="990.5,-134.5 990.5,-186.5 1130.5,-186.5 1130.5,-134.5 990.5,-134.5"/>
<text text-anchor="start" x="998.5" y="-174.5" font-family="Helvetica,sans-Serif" font-size="10.00">/home/travis/build</text>
<text text-anchor="start" x="998.5" y="-163.5" font-family="Helvetica,sans-Serif" font-size="10.00">/steup/atwork&#45;commander</text>
<text text-anchor="start" x="998.5" y="-152.5" font-family="Helvetica,sans-Serif" font-size="10.00">/atwork_commander_gui/src</text>
<text text-anchor="middle" x="1060.5" y="-141.5" font-family="Helvetica,sans-Serif" font-size="10.00">/rviz_plugin.h</text>
</g>
<!-- Node2 -->
<g id="node2" class="node"><title>Node2</title>
<polygon fill="none" stroke="#bfbfbf" points="0,-73 0,-92 73,-92 73,-73 0,-73"/>
<text text-anchor="middle" x="36.5" y="-80" font-family="Helvetica,sans-Serif" font-size="10.00">QComboBox</text>
</g>
<!-- Node1&#45;&gt;Node2 -->
<g id="edge1" class="edge"><title>Node1&#45;&gt;Node2</title>
<path fill="none" stroke="midnightblue" d="M990.341,-157.298C796.591,-150.867 256.966,-130.483 82.5,-98 78.3325,-97.2241 74.0145,-96.188 69.7683,-95.025"/>
<polygon fill="midnightblue" stroke="midnightblue" points="70.6788,-91.6443 60.0957,-92.1436 68.6803,-98.353 70.6788,-91.6443"/>
</g>
<!-- Node3 -->
<g id="node3" class="node"><title>Node3</title>
<polygon fill="none" stroke="#bfbfbf" points="91.5,-73 91.5,-92 183.5,-92 183.5,-73 91.5,-73"/>
<text text-anchor="middle" x="137.5" y="-80" font-family="Helvetica,sans-Serif" font-size="10.00">QDoubleSpinBox</text>
</g>
<!-- Node1&#45;&gt;Node3 -->
<g id="edge2" class="edge"><title>Node1&#45;&gt;Node3</title>
<path fill="none" stroke="midnightblue" d="M990.223,-158.96C841.845,-156.85 486.107,-146.664 192.5,-98 187.02,-97.0917 181.293,-95.8826 175.692,-94.5485"/>
<polygon fill="midnightblue" stroke="midnightblue" points="176.38,-91.1123 165.827,-92.0506 174.661,-97.8982 176.38,-91.1123"/>
</g>
<!-- Node4 -->
<g id="node4" class="node"><title>Node4</title>
<polygon fill="none" stroke="#bfbfbf" points="201.5,-73 201.5,-92 277.5,-92 277.5,-73 201.5,-73"/>
<text text-anchor="middle" x="239.5" y="-80" font-family="Helvetica,sans-Serif" font-size="10.00">QFormLayout</text>
</g>
<!-- Node1&#45;&gt;Node4 -->
<g id="edge3" class="edge"><title>Node1&#45;&gt;Node4</title>
<path fill="none" stroke="midnightblue" d="M990.432,-159.068C853.791,-157.098 542.677,-147.074 286.5,-98 282.254,-97.1867 277.85,-96.128 273.515,-94.9528"/>
<polygon fill="midnightblue" stroke="midnightblue" points="274.217,-91.5113 263.636,-92.0598 272.249,-98.2292 274.217,-91.5113"/>
</g>
<!-- Node5 -->
<g id="node5" class="node"><title>Node5</title>
<polygon fill="none" stroke="#bfbfbf" points="295.5,-73 295.5,-92 373.5,-92 373.5,-73 295.5,-73"/>
<text text-anchor="middle" x="334.5" y="-80" font-family="Helvetica,sans-Serif" font-size="10.00">QHBoxLayout</text>
</g>
<!-- Node1&#45;&gt;Node5 -->
<g id="edge4" class="edge"><title>Node1&#45;&gt;Node5</title>
<path fill="none" stroke="midnightblue" d="M990.184,-157.669C866.478,-153.438 602.287,-139.884 383.5,-98 379.017,-97.1417 374.356,-96.0427 369.771,-94.8344"/>
<polygon fill="midnightblue" stroke="midnightblue" points="370.525,-91.4107 359.95,-92.0656 368.625,-98.148 370.525,-91.4107"/>
</g>
<!-- Node6 -->
<g id="node6" class="node"><title>Node6</title>
<polygon fill="none" stroke="#bfbfbf" points="392,-73 392,-92 439,-92 439,-73 392,-73"/>
<text text-anchor="middle" x="415.5" y="-80" font-family="Helvetica,sans-Serif" font-size="10.00">QLabel</text>
</g>
<!-- Node1&#45;&gt;Node6 -->
<g id="edge5" class="edge"><title>Node1&#45;&gt;Node6</title>
<path fill="none" stroke="midnightblue" d="M990.409,-159.535C875.353,-158.031 640.077,-148.364 448.5,-98 446.202,-97.3959 443.86,-96.652 441.537,-95.8231"/>
<polygon fill="midnightblue" stroke="midnightblue" points="442.844,-92.5763 432.261,-92.0774 440.223,-99.0671 442.844,-92.5763"/>
</g>
<!-- Node7 -->
<g id="node7" class="node"><title>Node7</title>
<polygon fill="none" stroke="#bfbfbf" points="457,-73 457,-92 516,-92 516,-73 457,-73"/>
<text text-anchor="middle" x="486.5" y="-80" font-family="Helvetica,sans-Serif" font-size="10.00">QLineEdit</text>
</g>
<!-- Node1&#45;&gt;Node7 -->
<g id="edge6" class="edge"><title>Node1&#45;&gt;Node7</title>
<path fill="none" stroke="midnightblue" d="M990.311,-156.827C887.166,-151.69 689.155,-137.218 525.5,-98 522.506,-97.2824 519.427,-96.4018 516.376,-95.4324"/>
<polygon fill="midnightblue" stroke="midnightblue" points="517.451,-92.1008 506.856,-92.1238 515.153,-98.7128 517.451,-92.1008"/>
</g>
<!-- Node8 -->
<g id="node8" class="node"><title>Node8</title>
<polygon fill="none" stroke="#bfbfbf" points="534.5,-73 534.5,-92 596.5,-92 596.5,-73 534.5,-73"/>
<text text-anchor="middle" x="565.5" y="-80" font-family="Helvetica,sans-Serif" font-size="10.00">QListView</text>
</g>
<!-- Node1&#45;&gt;Node8 -->
<g id="edge7" class="edge"><title>Node1&#45;&gt;Node8</title>
<path fill="none" stroke="midnightblue" d="M990.453,-154.498C900.56,-147.06 740.247,-130.346 606.5,-98 603.271,-97.2191 599.941,-96.2783 596.64,-95.2556"/>
<polygon fill="midnightblue" stroke="midnightblue" points="597.547,-91.8686 586.953,-92.02 595.329,-98.508 597.547,-91.8686"/>
</g>
<!-- Node9 -->
<g id="node9" class="node"><title>Node9</title>
<polygon fill="none" stroke="#bfbfbf" points="615,-73 615,-92 696,-92 696,-73 615,-73"/>
<text text-anchor="middle" x="655.5" y="-80" font-family="Helvetica,sans-Serif" font-size="10.00">QMessageBox</text>
</g>
<!-- Node1&#45;&gt;Node9 -->
<g id="edge8" class="edge"><title>Node1&#45;&gt;Node9</title>
<path fill="none" stroke="midnightblue" d="M990.325,-149.688C918.38,-139.081 803.472,-120.619 705.5,-98 701.339,-97.0393 697.011,-95.9393 692.718,-94.7841"/>
<polygon fill="midnightblue" stroke="midnightblue" points="693.438,-91.3511 682.865,-92.0281 691.552,-98.0924 693.438,-91.3511"/>
</g>
<!-- Node10 -->
<g id="node10" class="node"><title>Node10</title>
<polygon fill="none" stroke="#bfbfbf" points="714,-73 714,-92 789,-92 789,-73 714,-73"/>
<text text-anchor="middle" x="751.5" y="-80" font-family="Helvetica,sans-Serif" font-size="10.00">QPushButton</text>
</g>
<!-- Node1&#45;&gt;Node10 -->
<g id="edge9" class="edge"><title>Node1&#45;&gt;Node10</title>
<path fill="none" stroke="midnightblue" d="M990.391,-144.417C937.436,-132.692 863.095,-115.523 798.5,-98 795.1,-97.0778 791.576,-96.0763 788.056,-95.045"/>
<polygon fill="midnightblue" stroke="midnightblue" points="788.834,-91.6246 778.25,-92.1008 786.821,-98.3289 788.834,-91.6246"/>
</g>
<!-- Node11 -->
<g id="node11" class="node"><title>Node11</title>
<polygon fill="none" stroke="#bfbfbf" points="807,-73 807,-92 876,-92 876,-73 807,-73"/>
<text text-anchor="middle" x="841.5" y="-80" font-family="Helvetica,sans-Serif" font-size="10.00">QScrollArea</text>
</g>
<!-- Node1&#45;&gt;Node11 -->
<g id="edge10" class="edge"><title>Node1&#45;&gt;Node11</title>
<path fill="none" stroke="midnightblue" d="M990.303,-135.14C952.086,-121.877 906.504,-106.058 875.949,-95.4547"/>
<polygon fill="midnightblue" stroke="midnightblue" points="876.79,-92.0419 866.195,-92.0699 874.495,-98.655 876.79,-92.0419"/>
</g>
<!-- Node12 -->
<g id="node12" class="node"><title>Node12</title>
<polygon fill="none" stroke="#bfbfbf" points="894,-73 894,-92 965,-92 965,-73 894,-73"/>
<text text-anchor="middle" x="929.5" y="-80" font-family="Helvetica,sans-Serif" font-size="10.00">QSizePolicy</text>
</g>
<!-- Node1&#45;&gt;Node12 -->
<g id="edge11" class="edge"><title>Node1&#45;&gt;Node12</title>
<path fill="none" stroke="midnightblue" d="M1017.24,-134.404C995.989,-122.074 971.189,-107.686 953.388,-97.3588"/>
<polygon fill="midnightblue" stroke="midnightblue" points="954.692,-94.0687 944.286,-92.0779 951.179,-100.124 954.692,-94.0687"/>
</g>
<!-- Node13 -->
<g id="node13" class="node"><title>Node13</title>
<polygon fill="none" stroke="#bfbfbf" points="983,-73 983,-92 1044,-92 1044,-73 983,-73"/>
<text text-anchor="middle" x="1013.5" y="-80" font-family="Helvetica,sans-Serif" font-size="10.00">QSpinBox</text>
</g>
<!-- Node1&#45;&gt;Node13 -->
<g id="edge12" class="edge"><title>Node1&#45;&gt;Node13</title>
<path fill="none" stroke="midnightblue" d="M1044.85,-134.193C1038.05,-123.198 1030.26,-110.602 1024.15,-100.716"/>
<polygon fill="midnightblue" stroke="midnightblue" points="1027.12,-98.873 1018.89,-92.2089 1021.17,-102.555 1027.12,-98.873"/>
</g>
<!-- Node14 -->
<g id="node14" class="node"><title>Node14</title>
<polygon fill="none" stroke="#bfbfbf" points="1062,-73 1062,-92 1153,-92 1153,-73 1062,-73"/>
<text text-anchor="middle" x="1107.5" y="-80" font-family="Helvetica,sans-Serif" font-size="10.00">QStackedWidget</text>
</g>
<!-- Node1&#45;&gt;Node14 -->
<g id="edge13" class="edge"><title>Node1&#45;&gt;Node14</title>
<path fill="none" stroke="midnightblue" d="M1076.15,-134.193C1082.95,-123.198 1090.74,-110.602 1096.85,-100.716"/>
<polygon fill="midnightblue" stroke="midnightblue" points="1099.83,-102.555 1102.11,-92.2089 1093.88,-98.873 1099.83,-102.555"/>
</g>
<!-- Node15 -->
<g id="node15" class="node"><title>Node15</title>
<polygon fill="none" stroke="#bfbfbf" points="1171.5,-73 1171.5,-92 1221.5,-92 1221.5,-73 1171.5,-73"/>
<text text-anchor="middle" x="1196.5" y="-80" font-family="Helvetica,sans-Serif" font-size="10.00">QString</text>
</g>
<!-- Node1&#45;&gt;Node15 -->
<g id="edge14" class="edge"><title>Node1&#45;&gt;Node15</title>
<path fill="none" stroke="midnightblue" d="M1105.41,-134.404C1127.68,-121.959 1153.7,-107.419 1172.21,-97.0729"/>
<polygon fill="midnightblue" stroke="midnightblue" points="1174.13,-100.011 1181.15,-92.0779 1170.71,-93.9009 1174.13,-100.011"/>
</g>
<!-- Node16 -->
<g id="node16" class="node"><title>Node16</title>
<polygon fill="none" stroke="#bfbfbf" points="1240,-73 1240,-92 1305,-92 1305,-73 1240,-73"/>
<text text-anchor="middle" x="1272.5" y="-80" font-family="Helvetica,sans-Serif" font-size="10.00">QStringList</text>
</g>
<!-- Node1&#45;&gt;Node16 -->
<g id="edge15" class="edge"><title>Node1&#45;&gt;Node16</title>
<path fill="none" stroke="midnightblue" d="M1130.5,-134.404C1166.97,-121.331 1209.89,-105.947 1238.92,-95.5396"/>
<polygon fill="midnightblue" stroke="midnightblue" points="1240.34,-98.7473 1248.57,-92.0779 1237.98,-92.1579 1240.34,-98.7473"/>
</g>
<!-- Node17 -->
<g id="node17" class="node"><title>Node17</title>
<polygon fill="none" stroke="#bfbfbf" points="1323.5,-73 1323.5,-92 1415.5,-92 1415.5,-73 1323.5,-73"/>
<text text-anchor="middle" x="1369.5" y="-80" font-family="Helvetica,sans-Serif" font-size="10.00">QStringListModel</text>
</g>
<!-- Node1&#45;&gt;Node17 -->
<g id="edge16" class="edge"><title>Node1&#45;&gt;Node17</title>
<path fill="none" stroke="midnightblue" d="M1130.67,-142.912C1181.72,-130.746 1252.48,-113.682 1314.5,-98 1318.82,-96.9084 1323.32,-95.7515 1327.81,-94.5861"/>
<polygon fill="midnightblue" stroke="midnightblue" points="1328.75,-97.9586 1337.54,-92.0434 1326.98,-91.1861 1328.75,-97.9586"/>
</g>
<!-- Node18 -->
<g id="node18" class="node"><title>Node18</title>
<polygon fill="none" stroke="#bfbfbf" points="1434,-73 1434,-92 1495,-92 1495,-73 1434,-73"/>
<text text-anchor="middle" x="1464.5" y="-80" font-family="Helvetica,sans-Serif" font-size="10.00">QTextEdit</text>
</g>
<!-- Node1&#45;&gt;Node18 -->
<g id="edge17" class="edge"><title>Node1&#45;&gt;Node18</title>
<path fill="none" stroke="midnightblue" d="M1130.74,-151.455C1204.64,-142.105 1323.94,-124.489 1424.5,-98 1427.48,-97.2162 1430.54,-96.3035 1433.59,-95.3247"/>
<polygon fill="midnightblue" stroke="midnightblue" points="1434.81,-98.6055 1443.14,-92.0495 1432.54,-91.9843 1434.81,-98.6055"/>
</g>
<!-- Node19 -->
<g id="node19" class="node"><title>Node19</title>
<polygon fill="none" stroke="#bfbfbf" points="1513,-73 1513,-92 1562,-92 1562,-73 1513,-73"/>
<text text-anchor="middle" x="1537.5" y="-80" font-family="Helvetica,sans-Serif" font-size="10.00">QTimer</text>
</g>
<!-- Node1&#45;&gt;Node19 -->
<g id="edge18" class="edge"><title>Node1&#45;&gt;Node19</title>
<path fill="none" stroke="midnightblue" d="M1130.56,-155.781C1219.1,-149.728 1375.52,-134.505 1504.5,-98 1506.65,-97.3907 1508.85,-96.6689 1511.03,-95.8777"/>
<polygon fill="midnightblue" stroke="midnightblue" points="1512.41,-99.0966 1520.36,-92.1002 1509.78,-92.608 1512.41,-99.0966"/>
</g>
<!-- Node20 -->
<g id="node20" class="node"><title>Node20</title>
<polygon fill="none" stroke="#bfbfbf" points="1580,-73 1580,-92 1657,-92 1657,-73 1580,-73"/>
<text text-anchor="middle" x="1618.5" y="-80" font-family="Helvetica,sans-Serif" font-size="10.00">QVBoxLayout</text>
</g>
<!-- Node1&#45;&gt;Node20 -->
<g id="edge19" class="edge"><title>Node1&#45;&gt;Node20</title>
<path fill="none" stroke="midnightblue" d="M1130.58,-155.064C1229.65,-147.891 1415.93,-131.08 1571.5,-98 1575.63,-97.1209 1579.93,-96.0396 1584.16,-94.8672"/>
<polygon fill="midnightblue" stroke="midnightblue" points="1585.23,-98.2002 1593.84,-92.0186 1583.26,-91.4851 1585.23,-98.2002"/>
</g>
<!-- Node21 -->
<g id="node21" class="node"><title>Node21</title>
<polygon fill="none" stroke="#bfbfbf" points="1675,-73 1675,-92 1730,-92 1730,-73 1675,-73"/>
<text text-anchor="middle" x="1702.5" y="-80" font-family="Helvetica,sans-Serif" font-size="10.00">ros/ros.h</text>
</g>
<!-- Node1&#45;&gt;Node21 -->
<g id="edge20" class="edge"><title>Node1&#45;&gt;Node21</title>
<path fill="none" stroke="midnightblue" d="M1130.66,-158.752C1244.67,-156.125 1476.57,-144.887 1666.5,-98 1669.17,-97.3415 1671.9,-96.5248 1674.61,-95.617"/>
<polygon fill="midnightblue" stroke="midnightblue" points="1676.01,-98.8306 1684.15,-92.0504 1673.55,-92.2739 1676.01,-98.8306"/>
</g>
<!-- Node22 -->
<g id="node22" class="node"><title>Node22</title>
<polygon fill="none" stroke="#bfbfbf" points="1748,-73 1748,-92 1815,-92 1815,-73 1748,-73"/>
<text text-anchor="middle" x="1781.5" y="-80" font-family="Helvetica,sans-Serif" font-size="10.00">rviz/panel.h</text>
</g>
<!-- Node1&#45;&gt;Node22 -->
<g id="edge21" class="edge"><title>Node1&#45;&gt;Node22</title>
<path fill="none" stroke="midnightblue" d="M1130.74,-158.712C1254.91,-156.089 1520.77,-144.936 1739.5,-98 1743,-97.2489 1746.61,-96.2937 1750.18,-95.233"/>
<polygon fill="midnightblue" stroke="midnightblue" points="1751.56,-98.4653 1759.99,-92.0463 1749.39,-91.808 1751.56,-98.4653"/>
</g>
<!-- Node23 -->
<g id="node23" class="node"><title>Node23</title>
<polygon fill="none" stroke="#bfbfbf" points="1833.5,-73 1833.5,-92 1929.5,-92 1929.5,-73 1833.5,-73"/>
<text text-anchor="middle" x="1881.5" y="-80" font-family="Helvetica,sans-Serif" font-size="10.00">std_msgs/String.h</text>
</g>
<!-- Node1&#45;&gt;Node23 -->
<g id="edge22" class="edge"><title>Node1&#45;&gt;Node23</title>
<path fill="none" stroke="midnightblue" d="M1130.51,-157.81C1265.57,-153.681 1571.15,-140.111 1824.5,-98 1830.1,-97.0687 1835.96,-95.8575 1841.7,-94.532"/>
<polygon fill="midnightblue" stroke="midnightblue" points="1842.94,-97.8326 1851.82,-92.0586 1841.28,-91.0328 1842.94,-97.8326"/>
</g>
<!-- Node24 -->
<g id="node24" class="node"><title>Node24</title>
<g id="a_node24"><a xlink:href="ObjectName_8h.html" target="_top" xlink:title="atwork_commander_msgs\l/ObjectName.h">
<polygon fill="none" stroke="black" points="1948,-67.5 1948,-97.5 2079,-97.5 2079,-67.5 1948,-67.5"/>
<text text-anchor="start" x="1956" y="-85.5" font-family="Helvetica,sans-Serif" font-size="10.00">atwork_commander_msgs</text>
<text text-anchor="middle" x="2013.5" y="-74.5" font-family="Helvetica,sans-Serif" font-size="10.00">/ObjectName.h</text>
</a>
</g>
</g>
<!-- Node1&#45;&gt;Node24 -->
<g id="edge23" class="edge"><title>Node1&#45;&gt;Node24</title>
<path fill="none" stroke="midnightblue" d="M1130.78,-157.465C1278.48,-152.561 1631.95,-137.536 1937.78,-97.9811"/>
<polygon fill="midnightblue" stroke="midnightblue" points="1938.26,-101.448 1947.72,-96.6838 1937.35,-94.5067 1938.26,-101.448"/>
</g>
<!-- Node26 -->
<g id="node26" class="node"><title>Node26</title>
<g id="a_node26"><a xlink:href="Control_8hpp.html" target="_top" xlink:title="atwork_commander/Control.hpp">
<polygon fill="none" stroke="black" points="2239,-73 2239,-92 2394,-92 2394,-73 2239,-73"/>
<text text-anchor="middle" x="2316.5" y="-80" font-family="Helvetica,sans-Serif" font-size="10.00">atwork_commander/Control.hpp</text>
</a>
</g>
</g>
<!-- Node1&#45;&gt;Node26 -->
<g id="edge25" class="edge"><title>Node1&#45;&gt;Node26</title>
<path fill="none" stroke="midnightblue" d="M1130.62,-155.396C1296.91,-145.644 1728.25,-120.231 2088.5,-98 2134.86,-95.139 2186.52,-91.8611 2228.93,-89.1465"/>
<polygon fill="midnightblue" stroke="midnightblue" points="2229.19,-92.6373 2238.94,-88.505 2228.74,-85.6516 2229.19,-92.6373"/>
</g>
<!-- Node25 -->
<g id="node25" class="node"><title>Node25</title>
<polygon fill="none" stroke="#bfbfbf" points="1876,-0.5 1876,-30.5 2007,-30.5 2007,-0.5 1876,-0.5"/>
<text text-anchor="start" x="1884" y="-18.5" font-family="Helvetica,sans-Serif" font-size="10.00">atwork_commander_msgs</text>
<text text-anchor="middle" x="1941.5" y="-7.5" font-family="Helvetica,sans-Serif" font-size="10.00">/Object.h</text>
</g>
<!-- Node24&#45;&gt;Node25 -->
<g id="edge24" class="edge"><title>Node24&#45;&gt;Node25</title>
<path fill="none" stroke="midnightblue" d="M1997.88,-67.396C1988.16,-58.6227 1975.49,-47.1827 1964.62,-37.3714"/>
<polygon fill="midnightblue" stroke="midnightblue" points="1966.86,-34.6796 1957.09,-30.5765 1962.17,-39.8755 1966.86,-34.6796"/>
</g>
<!-- Node27 -->
<g id="node27" class="node"><title>Node27</title>
<polygon fill="none" stroke="#bfbfbf" points="2025,-0.5 2025,-30.5 2156,-30.5 2156,-0.5 2025,-0.5"/>
<text text-anchor="start" x="2033" y="-18.5" font-family="Helvetica,sans-Serif" font-size="10.00">atwork_commander_msgs</text>
<text text-anchor="middle" x="2090.5" y="-7.5" font-family="Helvetica,sans-Serif" font-size="10.00">/RefboxState.h</text>
</g>
<!-- Node26&#45;&gt;Node27 -->
<g id="edge26" class="edge"><title>Node26&#45;&gt;Node27</title>
<path fill="none" stroke="midnightblue" d="M2286.49,-72.8685C2251.55,-62.8195 2193.02,-45.9852 2149,-33.3243"/>
<polygon fill="midnightblue" stroke="midnightblue" points="2149.85,-29.9285 2139.27,-30.5281 2147.92,-36.6558 2149.85,-29.9285"/>
</g>
<!-- Node28 -->
<g id="node28" class="node"><title>Node28</title>
<polygon fill="none" stroke="#bfbfbf" points="2174,-0.5 2174,-30.5 2305,-30.5 2305,-0.5 2174,-0.5"/>
<text text-anchor="start" x="2182" y="-18.5" font-family="Helvetica,sans-Serif" font-size="10.00">atwork_commander_msgs</text>
<text text-anchor="middle" x="2239.5" y="-7.5" font-family="Helvetica,sans-Serif" font-size="10.00">/Task.h</text>
</g>
<!-- Node26&#45;&gt;Node28 -->
<g id="edge27" class="edge"><title>Node26&#45;&gt;Node28</title>
<path fill="none" stroke="midnightblue" d="M2306.12,-72.7338C2295.41,-63.6959 2278.32,-49.2739 2264.14,-37.2982"/>
<polygon fill="midnightblue" stroke="midnightblue" points="2266.09,-34.3651 2256.19,-30.589 2261.57,-39.7141 2266.09,-34.3651"/>
</g>
<!-- Node29 -->
<g id="node29" class="node"><title>Node29</title>
<polygon fill="none" stroke="#bfbfbf" points="2323,-6 2323,-25 2452,-25 2452,-6 2323,-6"/>
<text text-anchor="middle" x="2387.5" y="-13" font-family="Helvetica,sans-Serif" font-size="10.00">boost/filesystem/path.hpp</text>
</g>
<!-- Node26&#45;&gt;Node29 -->
<g id="edge28" class="edge"><title>Node26&#45;&gt;Node29</title>
<path fill="none" stroke="midnightblue" d="M2326.08,-72.7338C2337.47,-62.3055 2356.69,-44.7088 2370.6,-31.9732"/>
<polygon fill="midnightblue" stroke="midnightblue" points="2373.06,-34.4614 2378.08,-25.1273 2368.34,-29.2983 2373.06,-34.4614"/>
</g>
<!-- Node30 -->
<g id="node30" class="node"><title>Node30</title>
<polygon fill="none" stroke="#bfbfbf" points="2470,-6 2470,-25 2511,-25 2511,-6 2470,-6"/>
<text text-anchor="middle" x="2490.5" y="-13" font-family="Helvetica,sans-Serif" font-size="10.00">string</text>
</g>
<!-- Node26&#45;&gt;Node30 -->
<g id="edge29" class="edge"><title>Node26&#45;&gt;Node30</title>
<path fill="none" stroke="midnightblue" d="M2344.43,-72.9522C2373.92,-63.652 2421.59,-47.8442 2461.5,-31 2462.7,-30.4952 2463.91,-29.9637 2465.13,-29.4143"/>
<polygon fill="midnightblue" stroke="midnightblue" points="2466.89,-32.4573 2474.41,-25.0024 2463.88,-26.1354 2466.89,-32.4573"/>
</g>
<!-- Node31 -->
<g id="node31" class="node"><title>Node31</title>
<polygon fill="none" stroke="#bfbfbf" points="2529.5,-6 2529.5,-25 2573.5,-25 2573.5,-6 2529.5,-6"/>
<text text-anchor="middle" x="2551.5" y="-13" font-family="Helvetica,sans-Serif" font-size="10.00">vector</text>
</g>
<!-- Node26&#45;&gt;Node31 -->
<g id="edge30" class="edge"><title>Node26&#45;&gt;Node31</title>
<path fill="none" stroke="midnightblue" d="M2361.81,-72.9298C2403.65,-64.3981 2467.19,-49.8645 2520.5,-31 2522.12,-30.4277 2523.76,-29.8001 2525.41,-29.1368"/>
<polygon fill="midnightblue" stroke="midnightblue" points="2526.93,-32.2942 2534.69,-25.0864 2524.13,-25.8785 2526.93,-32.2942"/>
</g>
</g>
</svg>
