<?xml version="1.0" encoding="UTF-8" standalone="no"?>
<!DOCTYPE svg PUBLIC "-//W3C//DTD SVG 1.1//EN"
 "http://www.w3.org/Graphics/SVG/1.1/DTD/svg11.dtd">
<!-- Generated by graphviz version 2.38.0 (20140413.2041)
 -->
<!-- Title: main Pages: 1 -->
<svg width="182pt" height="66pt"
 viewBox="0.00 0.00 182.00 66.00" xmlns="http://www.w3.org/2000/svg" xmlns:xlink="http://www.w3.org/1999/xlink">
<g id="graph0" class="graph" transform="scale(1 1) rotate(0) translate(4 62)">
<title>main</title>
<!-- Node1 -->
<g id="node1" class="node"><title>Node1</title>
<polygon fill="#bfbfbf" stroke="black" points="0,-19.5 0,-38.5 38,-38.5 38,-19.5 0,-19.5"/>
<text text-anchor="middle" x="19" y="-26.5" font-family="Helvetica,sans-Serif" font-size="10.00">main</text>
</g>
<!-- Node2 -->
<g id="node2" class="node"><title>Node2</title>
<g id="a_node2"><a xlink:href="server__dummy_8cpp.html#a679022c78cc03bf480673ed140a77419" target="_top" xlink:title="createDummyTask">
<polygon fill="none" stroke="black" points="74,-38.5 74,-57.5 174,-57.5 174,-38.5 74,-38.5"/>
<text text-anchor="middle" x="124" y="-45.5" font-family="Helvetica,sans-Serif" font-size="10.00">createDummyTask</text>
</a>
</g>
</g>
<!-- Node1&#45;&gt;Node2 -->
<g id="edge1" class="edge"><title>Node1&#45;&gt;Node2</title>
<path fill="none" stroke="midnightblue" d="M38.4143,-32.3968C45.7233,-33.7451 54.5741,-35.3777 63.7611,-37.0724"/>
<polygon fill="midnightblue" stroke="midnightblue" points="63.3359,-40.553 73.8049,-38.9252 64.6058,-33.6691 63.3359,-40.553"/>
</g>
<!-- Node3 -->
<g id="node3" class="node"><title>Node3</title>
<g id="a_node3"><a xlink:href="server__dummy_8cpp.html#a7891e7d7bd9c1a5ebd50e20840952c9b" target="_top" xlink:title="robotStateClb">
<polygon fill="none" stroke="black" points="85.5,-0.5 85.5,-19.5 162.5,-19.5 162.5,-0.5 85.5,-0.5"/>
<text text-anchor="middle" x="124" y="-7.5" font-family="Helvetica,sans-Serif" font-size="10.00">robotStateClb</text>
</a>
</g>
</g>
<!-- Node1&#45;&gt;Node3 -->
<g id="edge2" class="edge"><title>Node1&#45;&gt;Node3</title>
<path fill="none" stroke="midnightblue" d="M38.4143,-25.6032C48.7431,-23.6979 62.1509,-21.2246 75.2355,-18.8109"/>
<polygon fill="midnightblue" stroke="midnightblue" points="75.9228,-22.2433 85.1219,-16.9872 74.6529,-15.3594 75.9228,-22.2433"/>
</g>
</g>
</svg>
