<?xml version="1.0" encoding="UTF-8" standalone="no"?>
<!DOCTYPE svg PUBLIC "-//W3C//DTD SVG 1.1//EN"
 "http://www.w3.org/Graphics/SVG/1.1/DTD/svg11.dtd">
<!-- Generated by graphviz version 2.38.0 (20140413.2041)
 -->
<!-- Title: /home/travis/build/steup/atwork&#45;commander/atwork_commander_gen/src/simple/Generator.cpp Pages: 1 -->
<!--zoomable 251 -->
<svg id="main" version="1.1" xmlns="http://www.w3.org/2000/svg" xmlns:xlink="http://www.w3.org/1999/xlink" xml:space="preserve" onload="init(evt)">
<style type="text/css"><![CDATA[
.edge:hover path { stroke: red; }
.edge:hover polygon { stroke: red; fill: red; }
]]></style>
<script type="text/javascript"><![CDATA[
var edges = document.getElementsByTagName('g');
if (edges && edges.length) {
  for (var i=0;i<edges.length;i++) {
    if (edges[i].id.substr(0,4)=='edge') {
      edges[i].setAttribute('class','edge');
    }
  }
}
]]></script>
        <defs>
                <circle id="rim" cx="0" cy="0" r="7"/>
                <circle id="rim2" cx="0" cy="0" r="3.5"/>
                <g id="zoomPlus">
                        <use xlink:href="#rim" fill="#404040">
                                <set attributeName="fill" to="#808080" begin="zoomplus.mouseover" end="zoomplus.mouseout"/>
                        </use>
                        <path d="M-4,0h8M0,-4v8" fill="none" stroke="white" stroke-width="1.5" pointer-events="none"/>
                </g>
                <g id="zoomMin">
                        <use xlink:href="#rim" fill="#404040">
                                <set attributeName="fill" to="#808080" begin="zoomminus.mouseover" end="zoomminus.mouseout"/>
                        </use>
                        <path d="M-4,0h8" fill="none" stroke="white" stroke-width="1.5" pointer-events="none"/>
                </g>
                <g id="dirArrow">
                        <path fill="none" stroke="white" stroke-width="1.5" d="M0,-3.0v7 M-2.5,-0.5L0,-3.0L2.5,-0.5"/>
                </g>
               <g id="resetDef">
                       <use xlink:href="#rim2" fill="#404040">
                               <set attributeName="fill" to="#808080" begin="reset.mouseover" end="reset.mouseout"/>
                       </use>
               </g>
        </defs>

<script type="text/javascript">
var viewWidth = 1471;
var viewHeight = 251;
var sectionId = 'dynsection-0';
</script>
<script xlink:href="svgpan.js"/>
<svg id="graph" class="graph">
<g id="viewport">
<title>/home/travis/build/steup/atwork&#45;commander/atwork_commander_gen/src/simple/Generator.cpp</title>
<!-- Node1 -->
<g id="node1" class="node"><title>Node1</title>
<polygon fill="#bfbfbf" stroke="black" points="832,-190.5 832,-242.5 975,-242.5 975,-190.5 832,-190.5"/>
<text text-anchor="start" x="840" y="-230.5" font-family="Helvetica,sans-Serif" font-size="10.00">/home/travis/build</text>
<text text-anchor="start" x="840" y="-219.5" font-family="Helvetica,sans-Serif" font-size="10.00">/steup/atwork&#45;commander</text>
<text text-anchor="start" x="840" y="-208.5" font-family="Helvetica,sans-Serif" font-size="10.00">/atwork_commander_gen/src</text>
<text text-anchor="middle" x="903.5" y="-197.5" font-family="Helvetica,sans-Serif" font-size="10.00">/simple/Generator.cpp</text>
</g>
<!-- Node2 -->
<g id="node2" class="node"><title>Node2</title>
<g id="a_node2"><a xlink:href="GeneratorPluginInterface_8h.html" target="_top" xlink:title="atwork_commander_gen\l/GeneratorPluginInterface.h">
<polygon fill="none" stroke="black" points="84.5,-123.5 84.5,-153.5 220.5,-153.5 220.5,-123.5 84.5,-123.5"/>
<text text-anchor="start" x="92.5" y="-141.5" font-family="Helvetica,sans-Serif" font-size="10.00">atwork_commander_gen</text>
<text text-anchor="middle" x="152.5" y="-130.5" font-family="Helvetica,sans-Serif" font-size="10.00">/GeneratorPluginInterface.h</text>
</a>
</g>
</g>
<!-- Node1&#45;&gt;Node2 -->
<g id="edge1" class="edge"><title>Node1&#45;&gt;Node2</title>
<path fill="none" stroke="midnightblue" d="M831.993,-210.892C709.375,-202.551 451.25,-183.075 234.5,-154 233.39,-153.851 232.271,-153.698 231.146,-153.541"/>
<polygon fill="midnightblue" stroke="midnightblue" points="231.293,-150.025 220.89,-152.033 230.275,-156.95 231.293,-150.025"/>
</g>
<!-- Node3 -->
<g id="node3" class="node"><title>Node3</title>
<polygon fill="none" stroke="#bfbfbf" points="0,-56.5 0,-86.5 131,-86.5 131,-56.5 0,-56.5"/>
<text text-anchor="start" x="8" y="-74.5" font-family="Helvetica,sans-Serif" font-size="10.00">atwork_commander_msgs</text>
<text text-anchor="middle" x="65.5" y="-63.5" font-family="Helvetica,sans-Serif" font-size="10.00">/Task.h</text>
</g>
<!-- Node1&#45;&gt;Node3 -->
<g id="edge11" class="edge"><title>Node1&#45;&gt;Node3</title>
<path fill="none" stroke="midnightblue" d="M831.778,-215.272C640.609,-213.963 129.659,-205.623 75.5,-154 60.4046,-139.612 59.2961,-115.054 61.1183,-96.6479"/>
<polygon fill="midnightblue" stroke="midnightblue" points="64.5998,-97.0185 62.4463,-86.6449 57.6606,-96.0972 64.5998,-97.0185"/>
</g>
<!-- Node5 -->
<g id="node5" class="node"><title>Node5</title>
<g id="a_node5"><a xlink:href="DefaultConfigParser_8h.html" target="_top" xlink:title="atwork_commander_gen\l/DefaultConfigParser.h">
<polygon fill="none" stroke="black" points="277,-123.5 277,-153.5 400,-153.5 400,-123.5 277,-123.5"/>
<text text-anchor="start" x="285" y="-141.5" font-family="Helvetica,sans-Serif" font-size="10.00">atwork_commander_gen</text>
<text text-anchor="middle" x="338.5" y="-130.5" font-family="Helvetica,sans-Serif" font-size="10.00">/DefaultConfigParser.h</text>
</a>
</g>
</g>
<!-- Node1&#45;&gt;Node5 -->
<g id="edge4" class="edge"><title>Node1&#45;&gt;Node5</title>
<path fill="none" stroke="midnightblue" d="M831.667,-208.324C737.367,-198.51 566.502,-179.372 410.287,-154.045"/>
<polygon fill="midnightblue" stroke="midnightblue" points="410.453,-150.526 400.02,-152.368 409.325,-157.434 410.453,-150.526"/>
</g>
<!-- Node7 -->
<g id="node7" class="node"><title>Node7</title>
<polygon fill="none" stroke="#bfbfbf" points="207,-0.5 207,-19.5 290,-19.5 290,-0.5 207,-0.5"/>
<text text-anchor="middle" x="248.5" y="-7.5" font-family="Helvetica,sans-Serif" font-size="10.00">unordered_map</text>
</g>
<!-- Node1&#45;&gt;Node7 -->
<g id="edge19" class="edge"><title>Node1&#45;&gt;Node7</title>
<path fill="none" stroke="midnightblue" d="M831.836,-213.507C674.061,-208.426 307.464,-192.562 267.5,-154 233.94,-121.617 239.15,-60.6841 244.484,-29.8682"/>
<polygon fill="midnightblue" stroke="midnightblue" points="247.997,-30.1366 246.454,-19.6547 241.123,-28.8108 247.997,-30.1366"/>
</g>
<!-- Node11 -->
<g id="node11" class="node"><title>Node11</title>
<polygon fill="none" stroke="#bfbfbf" points="418,-123.5 418,-153.5 549,-153.5 549,-123.5 418,-123.5"/>
<text text-anchor="start" x="426" y="-141.5" font-family="Helvetica,sans-Serif" font-size="10.00">atwork_commander_msgs</text>
<text text-anchor="middle" x="483.5" y="-130.5" font-family="Helvetica,sans-Serif" font-size="10.00">/Object.h</text>
</g>
<!-- Node1&#45;&gt;Node11 -->
<g id="edge12" class="edge"><title>Node1&#45;&gt;Node11</title>
<path fill="none" stroke="midnightblue" d="M831.752,-203.024C764.181,-191.203 659.85,-172.766 559.364,-154.146"/>
<polygon fill="midnightblue" stroke="midnightblue" points="559.811,-150.669 549.34,-152.285 558.533,-157.551 559.811,-150.669"/>
</g>
<!-- Node12 -->
<g id="node12" class="node"><title>Node12</title>
<polygon fill="none" stroke="#bfbfbf" points="567,-123.5 567,-153.5 698,-153.5 698,-123.5 567,-123.5"/>
<text text-anchor="start" x="575" y="-141.5" font-family="Helvetica,sans-Serif" font-size="10.00">atwork_commander_msgs</text>
<text text-anchor="middle" x="632.5" y="-130.5" font-family="Helvetica,sans-Serif" font-size="10.00">/Workstation.h</text>
</g>
<!-- Node1&#45;&gt;Node12 -->
<g id="edge13" class="edge"><title>Node1&#45;&gt;Node12</title>
<path fill="none" stroke="midnightblue" d="M831.943,-195.432C788.39,-183.218 733.402,-167.797 692.199,-156.242"/>
<polygon fill="midnightblue" stroke="midnightblue" points="693.142,-152.872 682.568,-153.541 691.252,-159.612 693.142,-152.872"/>
</g>
<!-- Node13 -->
<g id="node13" class="node"><title>Node13</title>
<polygon fill="none" stroke="#bfbfbf" points="716,-129 716,-148 791,-148 791,-129 716,-129"/>
<text text-anchor="middle" x="753.5" y="-136" font-family="Helvetica,sans-Serif" font-size="10.00">ros/console.h</text>
</g>
<!-- Node1&#45;&gt;Node13 -->
<g id="edge14" class="edge"><title>Node1&#45;&gt;Node13</title>
<path fill="none" stroke="midnightblue" d="M853.969,-190.404C829.069,-177.788 799.919,-163.019 779.45,-152.648"/>
<polygon fill="midnightblue" stroke="midnightblue" points="780.932,-149.475 770.43,-148.078 777.769,-155.72 780.932,-149.475"/>
</g>
<!-- Node14 -->
<g id="node14" class="node"><title>Node14</title>
<polygon fill="none" stroke="#bfbfbf" points="809.5,-123.5 809.5,-153.5 905.5,-153.5 905.5,-123.5 809.5,-123.5"/>
<text text-anchor="start" x="817.5" y="-141.5" font-family="Helvetica,sans-Serif" font-size="10.00">pluginlib/class_list</text>
<text text-anchor="middle" x="857.5" y="-130.5" font-family="Helvetica,sans-Serif" font-size="10.00">_macros.h</text>
</g>
<!-- Node1&#45;&gt;Node14 -->
<g id="edge15" class="edge"><title>Node1&#45;&gt;Node14</title>
<path fill="none" stroke="midnightblue" d="M888.183,-190.193C882.751,-181.22 876.674,-171.179 871.37,-162.416"/>
<polygon fill="midnightblue" stroke="midnightblue" points="874.355,-160.588 866.183,-153.845 868.366,-164.213 874.355,-160.588"/>
</g>
<!-- Node15 -->
<g id="node15" class="node"><title>Node15</title>
<polygon fill="none" stroke="#bfbfbf" points="923.5,-129 923.5,-148 975.5,-148 975.5,-129 923.5,-129"/>
<text text-anchor="middle" x="949.5" y="-136" font-family="Helvetica,sans-Serif" font-size="10.00">sstream</text>
</g>
<!-- Node1&#45;&gt;Node15 -->
<g id="edge16" class="edge"><title>Node1&#45;&gt;Node15</title>
<path fill="none" stroke="midnightblue" d="M918.817,-190.193C925.404,-179.312 932.939,-166.861 938.894,-157.022"/>
<polygon fill="midnightblue" stroke="midnightblue" points="942.045,-158.576 944.229,-148.209 936.056,-154.952 942.045,-158.576"/>
</g>
<!-- Node16 -->
<g id="node16" class="node"><title>Node16</title>
<polygon fill="none" stroke="#bfbfbf" points="993.5,-129 993.5,-148 1047.5,-148 1047.5,-129 993.5,-129"/>
<text text-anchor="middle" x="1020.5" y="-136" font-family="Helvetica,sans-Serif" font-size="10.00">iostream</text>
</g>
<!-- Node1&#45;&gt;Node16 -->
<g id="edge17" class="edge"><title>Node1&#45;&gt;Node16</title>
<path fill="none" stroke="midnightblue" d="M942.134,-190.404C960.941,-178.188 982.856,-163.952 998.722,-153.647"/>
<polygon fill="midnightblue" stroke="midnightblue" points="1000.82,-156.46 1007.29,-148.078 997.002,-150.59 1000.82,-156.46"/>
</g>
<!-- Node17 -->
<g id="node17" class="node"><title>Node17</title>
<polygon fill="none" stroke="#bfbfbf" points="1065.5,-129 1065.5,-148 1121.5,-148 1121.5,-129 1065.5,-129"/>
<text text-anchor="middle" x="1093.5" y="-136" font-family="Helvetica,sans-Serif" font-size="10.00">algorithm</text>
</g>
<!-- Node1&#45;&gt;Node17 -->
<g id="edge18" class="edge"><title>Node1&#45;&gt;Node17</title>
<path fill="none" stroke="midnightblue" d="M966.24,-190.404C998.636,-177.446 1036.71,-162.215 1062.72,-151.813"/>
<polygon fill="midnightblue" stroke="midnightblue" points="1064.07,-155.042 1072.06,-148.078 1061.47,-148.542 1064.07,-155.042"/>
</g>
<!-- Node18 -->
<g id="node18" class="node"><title>Node18</title>
<polygon fill="none" stroke="#bfbfbf" points="1140,-129 1140,-148 1181,-148 1181,-129 1140,-129"/>
<text text-anchor="middle" x="1160.5" y="-136" font-family="Helvetica,sans-Serif" font-size="10.00">regex</text>
</g>
<!-- Node1&#45;&gt;Node18 -->
<g id="edge20" class="edge"><title>Node1&#45;&gt;Node18</title>
<path fill="none" stroke="midnightblue" d="M975.121,-199.708C1020.34,-188.855 1079.63,-172.998 1130.5,-154 1131.92,-153.469 1133.37,-152.894 1134.82,-152.29"/>
<polygon fill="midnightblue" stroke="midnightblue" points="1136.56,-155.344 1144.24,-148.039 1133.68,-148.964 1136.56,-155.344"/>
</g>
<!-- Node19 -->
<g id="node19" class="node"><title>Node19</title>
<polygon fill="none" stroke="#bfbfbf" points="1199,-129 1199,-148 1246,-148 1246,-129 1199,-129"/>
<text text-anchor="middle" x="1222.5" y="-136" font-family="Helvetica,sans-Serif" font-size="10.00">iterator</text>
</g>
<!-- Node1&#45;&gt;Node19 -->
<g id="edge21" class="edge"><title>Node1&#45;&gt;Node19</title>
<path fill="none" stroke="midnightblue" d="M975.098,-204.55C1033.85,-194.524 1118.75,-177.64 1190.5,-154 1192.37,-153.384 1194.27,-152.694 1196.18,-151.957"/>
<polygon fill="midnightblue" stroke="midnightblue" points="1197.65,-155.135 1205.5,-148.019 1194.92,-148.687 1197.65,-155.135"/>
</g>
<!-- Node20 -->
<g id="node20" class="node"><title>Node20</title>
<polygon fill="none" stroke="#bfbfbf" points="1264,-129 1264,-148 1313,-148 1313,-129 1264,-129"/>
<text text-anchor="middle" x="1288.5" y="-136" font-family="Helvetica,sans-Serif" font-size="10.00">random</text>
</g>
<!-- Node1&#45;&gt;Node20 -->
<g id="edge22" class="edge"><title>Node1&#45;&gt;Node20</title>
<path fill="none" stroke="midnightblue" d="M975.128,-208.115C1047.09,-199.507 1160.63,-182.67 1255.5,-154 1257.43,-153.416 1259.4,-152.749 1261.37,-152.03"/>
<polygon fill="midnightblue" stroke="midnightblue" points="1263.03,-155.131 1270.99,-148.131 1260.4,-148.644 1263.03,-155.131"/>
</g>
<!-- Node21 -->
<g id="node21" class="node"><title>Node21</title>
<polygon fill="none" stroke="#bfbfbf" points="1331,-129 1331,-148 1382,-148 1382,-129 1331,-129"/>
<text text-anchor="middle" x="1356.5" y="-136" font-family="Helvetica,sans-Serif" font-size="10.00">numeric</text>
</g>
<!-- Node1&#45;&gt;Node21 -->
<g id="edge23" class="edge"><title>Node1&#45;&gt;Node21</title>
<path fill="none" stroke="midnightblue" d="M975.093,-210.623C1059.46,-203.594 1203.25,-187.572 1322.5,-154 1324.79,-153.354 1327.14,-152.591 1329.47,-151.758"/>
<polygon fill="midnightblue" stroke="midnightblue" points="1330.8,-154.994 1338.81,-148.061 1328.23,-148.484 1330.8,-154.994"/>
</g>
<!-- Node22 -->
<g id="node22" class="node"><title>Node22</title>
<polygon fill="none" stroke="#bfbfbf" points="1400.5,-129 1400.5,-148 1462.5,-148 1462.5,-129 1400.5,-129"/>
<text text-anchor="middle" x="1431.5" y="-136" font-family="Helvetica,sans-Serif" font-size="10.00">type_traits</text>
</g>
<!-- Node1&#45;&gt;Node22 -->
<g id="edge24" class="edge"><title>Node1&#45;&gt;Node22</title>
<path fill="none" stroke="midnightblue" d="M975.107,-211.472C1071.03,-204.947 1246.02,-189.073 1391.5,-154 1394.56,-153.262 1397.71,-152.368 1400.84,-151.39"/>
<polygon fill="midnightblue" stroke="midnightblue" points="1402.26,-154.605 1410.59,-148.07 1400,-147.978 1402.26,-154.605"/>
</g>
<!-- Node2&#45;&gt;Node3 -->
<g id="edge2" class="edge"><title>Node2&#45;&gt;Node3</title>
<path fill="none" stroke="midnightblue" d="M133.622,-123.396C121.652,-114.452 105.972,-102.737 92.6731,-92.8018"/>
<polygon fill="midnightblue" stroke="midnightblue" points="94.4468,-89.7579 84.3409,-86.5765 90.2571,-95.3657 94.4468,-89.7579"/>
</g>
<!-- Node4 -->
<g id="node4" class="node"><title>Node4</title>
<polygon fill="none" stroke="#bfbfbf" points="144,-0.5 144,-19.5 185,-19.5 185,-0.5 144,-0.5"/>
<text text-anchor="middle" x="164.5" y="-7.5" font-family="Helvetica,sans-Serif" font-size="10.00">string</text>
</g>
<!-- Node2&#45;&gt;Node4 -->
<g id="edge3" class="edge"><title>Node2&#45;&gt;Node4</title>
<path fill="none" stroke="midnightblue" d="M153.83,-123.479C155.989,-100.719 160.259,-55.7023 162.692,-30.0582"/>
<polygon fill="midnightblue" stroke="midnightblue" points="166.206,-30.0744 163.666,-19.7885 159.237,-29.4133 166.206,-30.0744"/>
</g>
<!-- Node6 -->
<g id="node6" class="node"><title>Node6</title>
<g id="a_node6"><a xlink:href="ConfigParserInterface_8h.html" target="_top" xlink:title="atwork_commander_gen\l/ConfigParserInterface.h">
<polygon fill="none" stroke="black" points="277,-56.5 277,-86.5 400,-86.5 400,-56.5 277,-56.5"/>
<text text-anchor="start" x="285" y="-74.5" font-family="Helvetica,sans-Serif" font-size="10.00">atwork_commander_gen</text>
<text text-anchor="middle" x="338.5" y="-63.5" font-family="Helvetica,sans-Serif" font-size="10.00">/ConfigParserInterface.h</text>
</a>
</g>
</g>
<!-- Node5&#45;&gt;Node6 -->
<g id="edge5" class="edge"><title>Node5&#45;&gt;Node6</title>
<path fill="none" stroke="midnightblue" d="M338.5,-123.396C338.5,-115.645 338.5,-105.812 338.5,-96.8601"/>
<polygon fill="midnightblue" stroke="midnightblue" points="342,-96.5765 338.5,-86.5765 335,-96.5765 342,-96.5765"/>
</g>
<!-- Node6&#45;&gt;Node4 -->
<g id="edge8" class="edge"><title>Node6&#45;&gt;Node4</title>
<path fill="none" stroke="midnightblue" d="M297.264,-56.3993C265.938,-45.6871 223.544,-31.1905 195.172,-21.4883"/>
<polygon fill="midnightblue" stroke="midnightblue" points="195.994,-18.0705 185.399,-18.1466 193.729,-24.694 195.994,-18.0705"/>
</g>
<!-- Node6&#45;&gt;Node7 -->
<g id="edge6" class="edge"><title>Node6&#45;&gt;Node7</title>
<path fill="none" stroke="midnightblue" d="M317.171,-56.3993C303.015,-47.0402 284.489,-34.7924 270.247,-25.3771"/>
<polygon fill="midnightblue" stroke="midnightblue" points="271.868,-22.2531 261.596,-19.6578 268.007,-28.0923 271.868,-22.2531"/>
</g>
<!-- Node8 -->
<g id="node8" class="node"><title>Node8</title>
<polygon fill="none" stroke="#bfbfbf" points="308,-0.5 308,-19.5 343,-19.5 343,-0.5 308,-0.5"/>
<text text-anchor="middle" x="325.5" y="-7.5" font-family="Helvetica,sans-Serif" font-size="10.00">map</text>
</g>
<!-- Node6&#45;&gt;Node8 -->
<g id="edge7" class="edge"><title>Node6&#45;&gt;Node8</title>
<path fill="none" stroke="midnightblue" d="M335.419,-56.3993C333.666,-48.3772 331.45,-38.2328 329.557,-29.569"/>
<polygon fill="midnightblue" stroke="midnightblue" points="332.946,-28.6802 327.392,-19.6578 326.107,-30.1744 332.946,-28.6802"/>
</g>
<!-- Node9 -->
<g id="node9" class="node"><title>Node9</title>
<polygon fill="none" stroke="#bfbfbf" points="361,-0.5 361,-19.5 406,-19.5 406,-0.5 361,-0.5"/>
<text text-anchor="middle" x="383.5" y="-7.5" font-family="Helvetica,sans-Serif" font-size="10.00">iosfwd</text>
</g>
<!-- Node6&#45;&gt;Node9 -->
<g id="edge9" class="edge"><title>Node6&#45;&gt;Node9</title>
<path fill="none" stroke="midnightblue" d="M349.164,-56.3993C355.636,-47.8424 363.934,-36.8708 370.751,-27.857"/>
<polygon fill="midnightblue" stroke="midnightblue" points="373.711,-29.7449 376.952,-19.6578 368.128,-25.5223 373.711,-29.7449"/>
</g>
<!-- Node10 -->
<g id="node10" class="node"><title>Node10</title>
<polygon fill="none" stroke="#bfbfbf" points="424.5,-0.5 424.5,-19.5 468.5,-19.5 468.5,-0.5 424.5,-0.5"/>
<text text-anchor="middle" x="446.5" y="-7.5" font-family="Helvetica,sans-Serif" font-size="10.00">vector</text>
</g>
<!-- Node6&#45;&gt;Node10 -->
<g id="edge10" class="edge"><title>Node6&#45;&gt;Node10</title>
<path fill="none" stroke="midnightblue" d="M364.094,-56.3993C381.568,-46.7728 404.588,-34.0902 421.856,-24.5772"/>
<polygon fill="midnightblue" stroke="midnightblue" points="423.715,-27.5488 430.785,-19.6578 420.337,-21.4177 423.715,-27.5488"/>
</g>
</g>
</svg>
        <g id="navigator" transform="translate(0 0)" fill="#404254">
                <rect fill="#f2f5e9" fill-opacity="0.5" stroke="#606060" stroke-width=".5" x="0" y="0" width="60" height="60"/>
                <use id="zoomplus" xlink:href="#zoomPlus" x="17" y="9" onmousedown="handleZoom(evt,'in')"/>
                <use id="zoomminus" xlink:href="#zoomMin" x="42" y="9" onmousedown="handleZoom(evt,'out')"/>
                <use id="reset" xlink:href="#resetDef" x="30" y="36" onmousedown="handleReset()"/>
                <g id="arrowUp" xlink:href="#dirArrow" transform="translate(30 24)" onmousedown="handlePan(0,-1)">
                  <use xlink:href="#rim" fill="#404040">
                        <set attributeName="fill" to="#808080" begin="arrowUp.mouseover" end="arrowUp.mouseout"/>
                  </use>
                  <path fill="none" stroke="white" stroke-width="1.5" d="M0,-3.0v7 M-2.5,-0.5L0,-3.0L2.5,-0.5"/>
                </g>
                <g id="arrowRight" xlink:href="#dirArrow" transform="rotate(90) translate(36 -43)" onmousedown="handlePan(1,0)">
                  <use xlink:href="#rim" fill="#404040">
                        <set attributeName="fill" to="#808080" begin="arrowRight.mouseover" end="arrowRight.mouseout"/>
                  </use>
                  <path fill="none" stroke="white" stroke-width="1.5" d="M0,-3.0v7 M-2.5,-0.5L0,-3.0L2.5,-0.5"/>
                </g>
                <g id="arrowDown" xlink:href="#dirArrow" transform="rotate(180) translate(-30 -48)" onmousedown="handlePan(0,1)">
                  <use xlink:href="#rim" fill="#404040">
                        <set attributeName="fill" to="#808080" begin="arrowDown.mouseover" end="arrowDown.mouseout"/>
                  </use>
                  <path fill="none" stroke="white" stroke-width="1.5" d="M0,-3.0v7 M-2.5,-0.5L0,-3.0L2.5,-0.5"/>
                </g>
                <g id="arrowLeft" xlink:href="#dirArrow" transform="rotate(270) translate(-36 17)" onmousedown="handlePan(-1,0)">
                  <use xlink:href="#rim" fill="#404040">
                        <set attributeName="fill" to="#808080" begin="arrowLeft.mouseover" end="arrowLeft.mouseout"/>
                  </use>
                  <path fill="none" stroke="white" stroke-width="1.5" d="M0,-3.0v7 M-2.5,-0.5L0,-3.0L2.5,-0.5"/>
                </g>
        </g>
        <svg viewBox="0 0 15 15" width="100%" height="30px" preserveAspectRatio="xMaxYMin meet">
         <g id="arrow_out" transform="scale(0.3 0.3)">
          <a xlink:href="simple_2Generator_8cpp__incl_org.svg" target="_base">
           <rect id="button" ry="5" rx="5" y="6" x="6" height="38" width="38"
                fill="#f2f5e9" fill-opacity="0.5" stroke="#606060" stroke-width="1.0"/>
           <path id="arrow"
             d="M 11.500037,31.436501 C 11.940474,20.09759 22.043105,11.32322 32.158766,21.979434 L 37.068811,17.246167 C 37.068811,17.246167 37.088388,32 37.088388,32 L 22.160133,31.978069 C 22.160133,31.978069 26.997745,27.140456 26.997745,27.140456 C 18.528582,18.264221 13.291696,25.230495 11.500037,31.436501 z"
             style="fill:#404040;"/>
          </a>
         </g>
        </svg>
</svg>
