<?xml version="1.0" encoding="UTF-8" standalone="no"?>
<!DOCTYPE svg PUBLIC "-//W3C//DTD SVG 1.1//EN"
 "http://www.w3.org/Graphics/SVG/1.1/DTD/svg11.dtd">
<!-- Generated by graphviz version 2.38.0 (20140413.2041)
 -->
<!-- Title: /home/travis/build/steup/atwork&#45;commander/atwork_commander_core/src/control.cpp Pages: 1 -->
<!--zoomable 195 -->
<svg id="main" version="1.1" xmlns="http://www.w3.org/2000/svg" xmlns:xlink="http://www.w3.org/1999/xlink" xml:space="preserve" onload="init(evt)">
<style type="text/css"><![CDATA[
.edge:hover path { stroke: red; }
.edge:hover polygon { stroke: red; fill: red; }
]]></style>
<script type="text/javascript"><![CDATA[
var edges = document.getElementsByTagName('g');
if (edges && edges.length) {
  for (var i=0;i<edges.length;i++) {
    if (edges[i].id.substr(0,4)=='edge') {
      edges[i].setAttribute('class','edge');
    }
  }
}
]]></script>
        <defs>
                <circle id="rim" cx="0" cy="0" r="7"/>
                <circle id="rim2" cx="0" cy="0" r="3.5"/>
                <g id="zoomPlus">
                        <use xlink:href="#rim" fill="#404040">
                                <set attributeName="fill" to="#808080" begin="zoomplus.mouseover" end="zoomplus.mouseout"/>
                        </use>
                        <path d="M-4,0h8M0,-4v8" fill="none" stroke="white" stroke-width="1.5" pointer-events="none"/>
                </g>
                <g id="zoomMin">
                        <use xlink:href="#rim" fill="#404040">
                                <set attributeName="fill" to="#808080" begin="zoomminus.mouseover" end="zoomminus.mouseout"/>
                        </use>
                        <path d="M-4,0h8" fill="none" stroke="white" stroke-width="1.5" pointer-events="none"/>
                </g>
                <g id="dirArrow">
                        <path fill="none" stroke="white" stroke-width="1.5" d="M0,-3.0v7 M-2.5,-0.5L0,-3.0L2.5,-0.5"/>
                </g>
               <g id="resetDef">
                       <use xlink:href="#rim2" fill="#404040">
                               <set attributeName="fill" to="#808080" begin="reset.mouseover" end="reset.mouseout"/>
                       </use>
               </g>
        </defs>

<script type="text/javascript">
var viewWidth = 1805;
var viewHeight = 195;
var sectionId = 'dynsection-0';
</script>
<script xlink:href="svgpan.js"/>
<svg id="graph" class="graph">
<g id="viewport">
<title>/home/travis/build/steup/atwork&#45;commander/atwork_commander_core/src/control.cpp</title>
<!-- Node1 -->
<g id="node1" class="node"><title>Node1</title>
<polygon fill="#bfbfbf" stroke="black" points="1105.5,-134.5 1105.5,-186.5 1235.5,-186.5 1235.5,-134.5 1105.5,-134.5"/>
<text text-anchor="start" x="1113.5" y="-174.5" font-family="Helvetica,sans-Serif" font-size="10.00">/home/travis/build</text>
<text text-anchor="start" x="1113.5" y="-163.5" font-family="Helvetica,sans-Serif" font-size="10.00">/steup/atwork&#45;commander</text>
<text text-anchor="start" x="1113.5" y="-152.5" font-family="Helvetica,sans-Serif" font-size="10.00">/atwork_commander_core</text>
<text text-anchor="middle" x="1170.5" y="-141.5" font-family="Helvetica,sans-Serif" font-size="10.00">/src/control.cpp</text>
</g>
<!-- Node2 -->
<g id="node2" class="node"><title>Node2</title>
<g id="a_node2"><a xlink:href="Control_8hpp.html" target="_top" xlink:title="atwork_commander/Control.hpp">
<polygon fill="none" stroke="black" points="187,-73 187,-92 342,-92 342,-73 187,-73"/>
<text text-anchor="middle" x="264.5" y="-80" font-family="Helvetica,sans-Serif" font-size="10.00">atwork_commander/Control.hpp</text>
</a>
</g>
</g>
<!-- Node1&#45;&gt;Node2 -->
<g id="edge1" class="edge"><title>Node1&#45;&gt;Node2</title>
<path fill="none" stroke="midnightblue" d="M1105.46,-156.663C966.474,-150.151 630.393,-132.018 350.5,-98 340.692,-96.808 330.297,-95.2816 320.252,-93.6688"/>
<polygon fill="midnightblue" stroke="midnightblue" points="320.793,-90.2109 310.357,-92.0363 319.654,-97.1176 320.793,-90.2109"/>
</g>
<!-- Node8 -->
<g id="node8" class="node"><title>Node8</title>
<polygon fill="none" stroke="#bfbfbf" points="360,-67.5 360,-97.5 491,-97.5 491,-67.5 360,-67.5"/>
<text text-anchor="start" x="368" y="-85.5" font-family="Helvetica,sans-Serif" font-size="10.00">atwork_commander_msgs</text>
<text text-anchor="middle" x="425.5" y="-74.5" font-family="Helvetica,sans-Serif" font-size="10.00">/StateUpdate.h</text>
</g>
<!-- Node1&#45;&gt;Node8 -->
<g id="edge7" class="edge"><title>Node1&#45;&gt;Node8</title>
<path fill="none" stroke="midnightblue" d="M1105.47,-155.754C987.089,-148.451 728.394,-130.263 501.314,-98.1769"/>
<polygon fill="midnightblue" stroke="midnightblue" points="501.602,-94.6826 491.208,-96.7366 500.614,-101.613 501.602,-94.6826"/>
</g>
<!-- Node9 -->
<g id="node9" class="node"><title>Node9</title>
<polygon fill="none" stroke="#bfbfbf" points="509,-67.5 509,-97.5 640,-97.5 640,-67.5 509,-67.5"/>
<text text-anchor="start" x="517" y="-85.5" font-family="Helvetica,sans-Serif" font-size="10.00">atwork_commander_msgs</text>
<text text-anchor="middle" x="574.5" y="-74.5" font-family="Helvetica,sans-Serif" font-size="10.00">/StartTask.h</text>
</g>
<!-- Node1&#45;&gt;Node9 -->
<g id="edge8" class="edge"><title>Node1&#45;&gt;Node9</title>
<path fill="none" stroke="midnightblue" d="M1105.18,-153.418C1008.06,-144.019 819.668,-124.417 650.319,-98.221"/>
<polygon fill="midnightblue" stroke="midnightblue" points="650.641,-94.7291 640.222,-96.6477 649.563,-101.646 650.641,-94.7291"/>
</g>
<!-- Node10 -->
<g id="node10" class="node"><title>Node10</title>
<polygon fill="none" stroke="#bfbfbf" points="658,-67.5 658,-97.5 789,-97.5 789,-67.5 658,-67.5"/>
<text text-anchor="start" x="666" y="-85.5" font-family="Helvetica,sans-Serif" font-size="10.00">atwork_commander_msgs</text>
<text text-anchor="middle" x="723.5" y="-74.5" font-family="Helvetica,sans-Serif" font-size="10.00">/GenerateTask.h</text>
</g>
<!-- Node1&#45;&gt;Node10 -->
<g id="edge9" class="edge"><title>Node1&#45;&gt;Node10</title>
<path fill="none" stroke="midnightblue" d="M1105.22,-149.258C1032.98,-137.798 912.825,-118.374 799.244,-98.1062"/>
<polygon fill="midnightblue" stroke="midnightblue" points="799.791,-94.6486 789.331,-96.3321 798.558,-101.539 799.791,-94.6486"/>
</g>
<!-- Node11 -->
<g id="node11" class="node"><title>Node11</title>
<polygon fill="none" stroke="#bfbfbf" points="807,-67.5 807,-97.5 938,-97.5 938,-67.5 807,-67.5"/>
<text text-anchor="start" x="815" y="-85.5" font-family="Helvetica,sans-Serif" font-size="10.00">atwork_commander_msgs</text>
<text text-anchor="middle" x="872.5" y="-74.5" font-family="Helvetica,sans-Serif" font-size="10.00">/LoadTask.h</text>
</g>
<!-- Node1&#45;&gt;Node11 -->
<g id="edge10" class="edge"><title>Node1&#45;&gt;Node11</title>
<path fill="none" stroke="midnightblue" d="M1105.47,-142.915C1055.54,-130.181 986.927,-112.683 937.102,-99.9757"/>
<polygon fill="midnightblue" stroke="midnightblue" points="937.953,-96.5808 927.399,-97.501 936.223,-103.364 937.953,-96.5808"/>
</g>
<!-- Node12 -->
<g id="node12" class="node"><title>Node12</title>
<g id="a_node12"><a xlink:href="StateName_8h.html" target="_top" xlink:title="atwork_commander_msgs\l/StateName.h">
<polygon fill="none" stroke="black" points="956,-67.5 956,-97.5 1087,-97.5 1087,-67.5 956,-67.5"/>
<text text-anchor="start" x="964" y="-85.5" font-family="Helvetica,sans-Serif" font-size="10.00">atwork_commander_msgs</text>
<text text-anchor="middle" x="1021.5" y="-74.5" font-family="Helvetica,sans-Serif" font-size="10.00">/StateName.h</text>
</a>
</g>
</g>
<!-- Node1&#45;&gt;Node12 -->
<g id="edge11" class="edge"><title>Node1&#45;&gt;Node12</title>
<path fill="none" stroke="midnightblue" d="M1121.3,-134.404C1100.76,-123.926 1077.3,-111.963 1058.29,-102.267"/>
<polygon fill="midnightblue" stroke="midnightblue" points="1059.85,-99.1325 1049.35,-97.7066 1056.67,-105.368 1059.85,-99.1325"/>
</g>
<!-- Node13 -->
<g id="node13" class="node"><title>Node13</title>
<polygon fill="none" stroke="#bfbfbf" points="1105,-67.5 1105,-97.5 1236,-97.5 1236,-67.5 1105,-67.5"/>
<text text-anchor="start" x="1113" y="-85.5" font-family="Helvetica,sans-Serif" font-size="10.00">atwork_commander_msgs</text>
<text text-anchor="middle" x="1170.5" y="-74.5" font-family="Helvetica,sans-Serif" font-size="10.00">/RobotHeader.h</text>
</g>
<!-- Node1&#45;&gt;Node13 -->
<g id="edge13" class="edge"><title>Node1&#45;&gt;Node13</title>
<path fill="none" stroke="midnightblue" d="M1170.5,-134.193C1170.5,-125.786 1170.5,-116.443 1170.5,-108.091"/>
<polygon fill="midnightblue" stroke="midnightblue" points="1174,-107.845 1170.5,-97.8453 1167,-107.845 1174,-107.845"/>
</g>
<!-- Node14 -->
<g id="node14" class="node"><title>Node14</title>
<polygon fill="none" stroke="#bfbfbf" points="1254,-73 1254,-92 1309,-92 1309,-73 1254,-73"/>
<text text-anchor="middle" x="1281.5" y="-80" font-family="Helvetica,sans-Serif" font-size="10.00">ros/ros.h</text>
</g>
<!-- Node1&#45;&gt;Node14 -->
<g id="edge14" class="edge"><title>Node1&#45;&gt;Node14</title>
<path fill="none" stroke="midnightblue" d="M1207.15,-134.404C1224.83,-122.302 1245.4,-108.218 1260.41,-97.9366"/>
<polygon fill="midnightblue" stroke="midnightblue" points="1262.7,-100.615 1268.97,-92.0779 1258.74,-94.8395 1262.7,-100.615"/>
</g>
<!-- Node15 -->
<g id="node15" class="node"><title>Node15</title>
<polygon fill="none" stroke="#bfbfbf" points="1327,-73 1327,-92 1434,-92 1434,-73 1327,-73"/>
<text text-anchor="middle" x="1380.5" y="-80" font-family="Helvetica,sans-Serif" font-size="10.00">boost/filesystem.hpp</text>
</g>
<!-- Node1&#45;&gt;Node15 -->
<g id="edge15" class="edge"><title>Node1&#45;&gt;Node15</title>
<path fill="none" stroke="midnightblue" d="M1235.51,-135.974C1272.52,-122.578 1317.33,-106.362 1347.24,-95.5355"/>
<polygon fill="midnightblue" stroke="midnightblue" points="1348.57,-98.7764 1356.79,-92.0822 1346.19,-92.1942 1348.57,-98.7764"/>
</g>
<!-- Node16 -->
<g id="node16" class="node"><title>Node16</title>
<polygon fill="none" stroke="#bfbfbf" points="1452,-73 1452,-92 1595,-92 1595,-73 1452,-73"/>
<text text-anchor="middle" x="1523.5" y="-80" font-family="Helvetica,sans-Serif" font-size="10.00">boost/filesystem/fstream.hpp</text>
</g>
<!-- Node1&#45;&gt;Node16 -->
<g id="edge16" class="edge"><title>Node1&#45;&gt;Node16</title>
<path fill="none" stroke="midnightblue" d="M1235.66,-145.472C1304.54,-130.643 1411.65,-107.581 1473.95,-94.1679"/>
<polygon fill="midnightblue" stroke="midnightblue" points="1474.88,-97.547 1483.92,-92.0206 1473.41,-90.7038 1474.88,-97.547"/>
</g>
<!-- Node17 -->
<g id="node17" class="node"><title>Node17</title>
<polygon fill="none" stroke="#bfbfbf" points="1613.5,-73 1613.5,-92 1667.5,-92 1667.5,-73 1613.5,-73"/>
<text text-anchor="middle" x="1640.5" y="-80" font-family="Helvetica,sans-Serif" font-size="10.00">iostream</text>
</g>
<!-- Node1&#45;&gt;Node17 -->
<g id="edge17" class="edge"><title>Node1&#45;&gt;Node17</title>
<path fill="none" stroke="midnightblue" d="M1235.82,-155.192C1321.62,-148.415 1476.42,-132.325 1604.5,-98 1607.01,-97.3285 1609.57,-96.531 1612.12,-95.6607"/>
<polygon fill="midnightblue" stroke="midnightblue" points="1613.6,-98.844 1621.74,-92.0548 1611.14,-92.2899 1613.6,-98.844"/>
</g>
<!-- Node18 -->
<g id="node18" class="node"><title>Node18</title>
<polygon fill="none" stroke="#bfbfbf" points="1685.5,-73 1685.5,-92 1737.5,-92 1737.5,-73 1685.5,-73"/>
<text text-anchor="middle" x="1711.5" y="-80" font-family="Helvetica,sans-Serif" font-size="10.00">sstream</text>
</g>
<!-- Node1&#45;&gt;Node18 -->
<g id="edge18" class="edge"><title>Node1&#45;&gt;Node18</title>
<path fill="none" stroke="midnightblue" d="M1235.86,-157.215C1333.3,-152.547 1521.8,-138.634 1676.5,-98 1678.95,-97.3567 1681.45,-96.579 1683.94,-95.7217"/>
<polygon fill="midnightblue" stroke="midnightblue" points="1685.21,-98.9835 1693.3,-92.1381 1682.71,-92.4466 1685.21,-98.9835"/>
</g>
<!-- Node19 -->
<g id="node19" class="node"><title>Node19</title>
<polygon fill="none" stroke="#bfbfbf" points="1756,-73 1756,-92 1797,-92 1797,-73 1756,-73"/>
<text text-anchor="middle" x="1776.5" y="-80" font-family="Helvetica,sans-Serif" font-size="10.00">regex</text>
</g>
<!-- Node1&#45;&gt;Node19 -->
<g id="edge19" class="edge"><title>Node1&#45;&gt;Node19</title>
<path fill="none" stroke="midnightblue" d="M1235.8,-159.747C1344.07,-158.568 1566.64,-149.388 1746.5,-98 1748.38,-97.4636 1750.28,-96.8167 1752.17,-96.0976"/>
<polygon fill="midnightblue" stroke="midnightblue" points="1753.58,-99.3019 1761.33,-92.0795 1750.77,-92.8916 1753.58,-99.3019"/>
</g>
<!-- Node3 -->
<g id="node3" class="node"><title>Node3</title>
<polygon fill="none" stroke="#bfbfbf" points="661,-0.5 661,-30.5 792,-30.5 792,-0.5 661,-0.5"/>
<text text-anchor="start" x="669" y="-18.5" font-family="Helvetica,sans-Serif" font-size="10.00">atwork_commander_msgs</text>
<text text-anchor="middle" x="726.5" y="-7.5" font-family="Helvetica,sans-Serif" font-size="10.00">/RefboxState.h</text>
</g>
<!-- Node2&#45;&gt;Node3 -->
<g id="edge2" class="edge"><title>Node2&#45;&gt;Node3</title>
<path fill="none" stroke="midnightblue" d="M313.571,-72.9344C325.634,-70.9094 338.523,-68.8134 350.5,-67 454.424,-51.2645 574.894,-35.523 650.896,-25.8978"/>
<polygon fill="midnightblue" stroke="midnightblue" points="651.377,-29.365 660.859,-24.6389 650.499,-22.4203 651.377,-29.365"/>
</g>
<!-- Node4 -->
<g id="node4" class="node"><title>Node4</title>
<polygon fill="none" stroke="#bfbfbf" points="0,-0.5 0,-30.5 131,-30.5 131,-0.5 0,-0.5"/>
<text text-anchor="start" x="8" y="-18.5" font-family="Helvetica,sans-Serif" font-size="10.00">atwork_commander_msgs</text>
<text text-anchor="middle" x="65.5" y="-7.5" font-family="Helvetica,sans-Serif" font-size="10.00">/Task.h</text>
</g>
<!-- Node2&#45;&gt;Node4 -->
<g id="edge3" class="edge"><title>Node2&#45;&gt;Node4</title>
<path fill="none" stroke="midnightblue" d="M238.074,-72.8685C207.567,-62.9039 156.635,-46.2676 117.988,-33.6444"/>
<polygon fill="midnightblue" stroke="midnightblue" points="119.04,-30.306 108.447,-30.5281 116.867,-36.9601 119.04,-30.306"/>
</g>
<!-- Node5 -->
<g id="node5" class="node"><title>Node5</title>
<polygon fill="none" stroke="#bfbfbf" points="149,-6 149,-25 278,-25 278,-6 149,-6"/>
<text text-anchor="middle" x="213.5" y="-13" font-family="Helvetica,sans-Serif" font-size="10.00">boost/filesystem/path.hpp</text>
</g>
<!-- Node2&#45;&gt;Node5 -->
<g id="edge4" class="edge"><title>Node2&#45;&gt;Node5</title>
<path fill="none" stroke="midnightblue" d="M257.622,-72.7338C249.669,-62.5979 236.403,-45.6899 226.49,-33.0556"/>
<polygon fill="midnightblue" stroke="midnightblue" points="229.196,-30.8342 220.269,-25.1273 223.688,-35.1552 229.196,-30.8342"/>
</g>
<!-- Node6 -->
<g id="node6" class="node"><title>Node6</title>
<polygon fill="none" stroke="#bfbfbf" points="296,-6 296,-25 337,-25 337,-6 296,-6"/>
<text text-anchor="middle" x="316.5" y="-13" font-family="Helvetica,sans-Serif" font-size="10.00">string</text>
</g>
<!-- Node2&#45;&gt;Node6 -->
<g id="edge5" class="edge"><title>Node2&#45;&gt;Node6</title>
<path fill="none" stroke="midnightblue" d="M271.513,-72.7338C279.622,-62.5979 293.148,-45.6899 303.255,-33.0556"/>
<polygon fill="midnightblue" stroke="midnightblue" points="306.084,-35.1225 309.598,-25.1273 300.618,-30.7496 306.084,-35.1225"/>
</g>
<!-- Node7 -->
<g id="node7" class="node"><title>Node7</title>
<polygon fill="none" stroke="#bfbfbf" points="355.5,-6 355.5,-25 399.5,-25 399.5,-6 355.5,-6"/>
<text text-anchor="middle" x="377.5" y="-13" font-family="Helvetica,sans-Serif" font-size="10.00">vector</text>
</g>
<!-- Node2&#45;&gt;Node7 -->
<g id="edge6" class="edge"><title>Node2&#45;&gt;Node7</title>
<path fill="none" stroke="midnightblue" d="M279.74,-72.7338C298.716,-61.8182 331.346,-43.0487 353.647,-30.2209"/>
<polygon fill="midnightblue" stroke="midnightblue" points="355.579,-33.1474 362.502,-25.1273 352.088,-27.0796 355.579,-33.1474"/>
</g>
<!-- Node12&#45;&gt;Node3 -->
<g id="edge12" class="edge"><title>Node12&#45;&gt;Node3</title>
<path fill="none" stroke="midnightblue" d="M957.853,-67.476C911.503,-57.2633 848.61,-43.4057 800.099,-32.7167"/>
<polygon fill="midnightblue" stroke="midnightblue" points="800.806,-29.2887 790.287,-30.5549 799.3,-36.1247 800.806,-29.2887"/>
</g>
</g>
</svg>
        <g id="navigator" transform="translate(0 0)" fill="#404254">
                <rect fill="#f2f5e9" fill-opacity="0.5" stroke="#606060" stroke-width=".5" x="0" y="0" width="60" height="60"/>
                <use id="zoomplus" xlink:href="#zoomPlus" x="17" y="9" onmousedown="handleZoom(evt,'in')"/>
                <use id="zoomminus" xlink:href="#zoomMin" x="42" y="9" onmousedown="handleZoom(evt,'out')"/>
                <use id="reset" xlink:href="#resetDef" x="30" y="36" onmousedown="handleReset()"/>
                <g id="arrowUp" xlink:href="#dirArrow" transform="translate(30 24)" onmousedown="handlePan(0,-1)">
                  <use xlink:href="#rim" fill="#404040">
                        <set attributeName="fill" to="#808080" begin="arrowUp.mouseover" end="arrowUp.mouseout"/>
                  </use>
                  <path fill="none" stroke="white" stroke-width="1.5" d="M0,-3.0v7 M-2.5,-0.5L0,-3.0L2.5,-0.5"/>
                </g>
                <g id="arrowRight" xlink:href="#dirArrow" transform="rotate(90) translate(36 -43)" onmousedown="handlePan(1,0)">
                  <use xlink:href="#rim" fill="#404040">
                        <set attributeName="fill" to="#808080" begin="arrowRight.mouseover" end="arrowRight.mouseout"/>
                  </use>
                  <path fill="none" stroke="white" stroke-width="1.5" d="M0,-3.0v7 M-2.5,-0.5L0,-3.0L2.5,-0.5"/>
                </g>
                <g id="arrowDown" xlink:href="#dirArrow" transform="rotate(180) translate(-30 -48)" onmousedown="handlePan(0,1)">
                  <use xlink:href="#rim" fill="#404040">
                        <set attributeName="fill" to="#808080" begin="arrowDown.mouseover" end="arrowDown.mouseout"/>
                  </use>
                  <path fill="none" stroke="white" stroke-width="1.5" d="M0,-3.0v7 M-2.5,-0.5L0,-3.0L2.5,-0.5"/>
                </g>
                <g id="arrowLeft" xlink:href="#dirArrow" transform="rotate(270) translate(-36 17)" onmousedown="handlePan(-1,0)">
                  <use xlink:href="#rim" fill="#404040">
                        <set attributeName="fill" to="#808080" begin="arrowLeft.mouseover" end="arrowLeft.mouseout"/>
                  </use>
                  <path fill="none" stroke="white" stroke-width="1.5" d="M0,-3.0v7 M-2.5,-0.5L0,-3.0L2.5,-0.5"/>
                </g>
        </g>
        <svg viewBox="0 0 15 15" width="100%" height="30px" preserveAspectRatio="xMaxYMin meet">
         <g id="arrow_out" transform="scale(0.3 0.3)">
          <a xlink:href="src_2control_8cpp__incl_org.svg" target="_base">
           <rect id="button" ry="5" rx="5" y="6" x="6" height="38" width="38"
                fill="#f2f5e9" fill-opacity="0.5" stroke="#606060" stroke-width="1.0"/>
           <path id="arrow"
             d="M 11.500037,31.436501 C 11.940474,20.09759 22.043105,11.32322 32.158766,21.979434 L 37.068811,17.246167 C 37.068811,17.246167 37.088388,32 37.088388,32 L 22.160133,31.978069 C 22.160133,31.978069 26.997745,27.140456 26.997745,27.140456 C 18.528582,18.264221 13.291696,25.230495 11.500037,31.436501 z"
             style="fill:#404040;"/>
          </a>
         </g>
        </svg>
</svg>
