<?xml version="1.0" encoding="UTF-8" standalone="no"?>
<!DOCTYPE svg PUBLIC "-//W3C//DTD SVG 1.1//EN"
 "http://www.w3.org/Graphics/SVG/1.1/DTD/svg11.dtd">
<!-- Generated by graphviz version 2.38.0 (20140413.2041)
 -->
<!-- Title: atwork_commander::ObjectType Pages: 1 -->
<svg width="167pt" height="231pt"
 viewBox="0.00 0.00 167.00 231.00" xmlns="http://www.w3.org/2000/svg" xmlns:xlink="http://www.w3.org/1999/xlink">
<g id="graph0" class="graph" transform="scale(1 1) rotate(0) translate(4 227)">
<title>atwork_commander::ObjectType</title>
<!-- Node1 -->
<g id="node1" class="node"><title>Node1</title>
<polygon fill="#bfbfbf" stroke="black" points="0.5,-0.5 0.5,-19.5 158.5,-19.5 158.5,-0.5 0.5,-0.5"/>
<text text-anchor="middle" x="79.5" y="-7.5" font-family="Helvetica,sans-Serif" font-size="10.00">atwork_commander::ObjectType</text>
</g>
<!-- Node2 -->
<g id="node2" class="node"><title>Node2</title>
<g id="a_node2"><a xlink:href="structatwork__commander_1_1ObjectBase.html" target="_top" xlink:title="atwork_commander::ObjectBase">
<polygon fill="none" stroke="black" points="-1.42109e-14,-57.5 -1.42109e-14,-76.5 159,-76.5 159,-57.5 -1.42109e-14,-57.5"/>
<text text-anchor="middle" x="79.5" y="-64.5" font-family="Helvetica,sans-Serif" font-size="10.00">atwork_commander::ObjectBase</text>
</a>
</g>
</g>
<!-- Node2&#45;&gt;Node1 -->
<g id="edge1" class="edge"><title>Node2&#45;&gt;Node1</title>
<path fill="none" stroke="midnightblue" d="M79.5,-47.1166C79.5,-37.8173 79.5,-27.0557 79.5,-19.7149"/>
<polygon fill="midnightblue" stroke="midnightblue" points="76.0001,-47.4062 79.5,-57.4062 83.0001,-47.4063 76.0001,-47.4062"/>
</g>
<!-- Node3 -->
<g id="node3" class="node"><title>Node3</title>
<g id="a_node3"><a xlink:title="STL class. ">
<polygon fill="none" stroke="#bfbfbf" points="49.5,-135.5 49.5,-154.5 109.5,-154.5 109.5,-135.5 49.5,-135.5"/>
<text text-anchor="middle" x="79.5" y="-142.5" font-family="Helvetica,sans-Serif" font-size="10.00">std::string</text>
</a>
</g>
</g>
<!-- Node3&#45;&gt;Node2 -->
<g id="edge2" class="edge"><title>Node3&#45;&gt;Node2</title>
<path fill="none" stroke="#9a32cd" stroke-dasharray="5,2" d="M79.5,-125.224C79.5,-109.697 79.5,-88.3582 79.5,-76.6165"/>
<polygon fill="#9a32cd" stroke="#9a32cd" points="76.0001,-125.282 79.5,-135.282 83.0001,-125.282 76.0001,-125.282"/>
<text text-anchor="middle" x="91" y="-109" font-family="Helvetica,sans-Serif" font-size="10.00"> form</text>
<text text-anchor="middle" x="91" y="-98" font-family="Helvetica,sans-Serif" font-size="10.00">color</text>
</g>
<!-- Node4 -->
<g id="node4" class="node"><title>Node4</title>
<g id="a_node4"><a xlink:title="STL class. ">
<polygon fill="none" stroke="#bfbfbf" points="32,-192.5 32,-222.5 127,-222.5 127,-192.5 32,-192.5"/>
<text text-anchor="start" x="40" y="-210.5" font-family="Helvetica,sans-Serif" font-size="10.00">std::basic_string&lt;</text>
<text text-anchor="middle" x="79.5" y="-199.5" font-family="Helvetica,sans-Serif" font-size="10.00"> char &gt;</text>
</a>
</g>
</g>
<!-- Node4&#45;&gt;Node3 -->
<g id="edge3" class="edge"><title>Node4&#45;&gt;Node3</title>
<path fill="none" stroke="midnightblue" d="M79.5,-182.352C79.5,-172.513 79.5,-161.775 79.5,-154.54"/>
<polygon fill="midnightblue" stroke="midnightblue" points="76.0001,-182.468 79.5,-192.468 83.0001,-182.468 76.0001,-182.468"/>
</g>
</g>
</svg>
