<?xml version="1.0" encoding="UTF-8" standalone="no"?>
<!DOCTYPE svg PUBLIC "-//W3C//DTD SVG 1.1//EN"
 "http://www.w3.org/Graphics/SVG/1.1/DTD/svg11.dtd">
<!-- Generated by graphviz version 2.38.0 (20140413.2041)
 -->
<!-- Title: atwork_commander::task_generator::ObjectBase Pages: 1 -->
<svg width="135pt" height="185pt"
 viewBox="0.00 0.00 135.00 185.00" xmlns="http://www.w3.org/2000/svg" xmlns:xlink="http://www.w3.org/1999/xlink">
<g id="graph0" class="graph" transform="scale(1 1) rotate(0) translate(4 181)">
<title>atwork_commander::task_generator::ObjectBase</title>
<!-- Node1 -->
<g id="node1" class="node"><title>Node1</title>
<polygon fill="#bfbfbf" stroke="black" points="0,-0.5 0,-30.5 127,-30.5 127,-0.5 0,-0.5"/>
<text text-anchor="start" x="8" y="-18.5" font-family="Helvetica,sans-Serif" font-size="10.00">atwork_commander::task</text>
<text text-anchor="middle" x="63.5" y="-7.5" font-family="Helvetica,sans-Serif" font-size="10.00">_generator::ObjectBase</text>
</g>
<!-- Node2 -->
<g id="node2" class="node"><title>Node2</title>
<g id="a_node2"><a xlink:title="STL class. ">
<polygon fill="none" stroke="#bfbfbf" points="33.5,-89.5 33.5,-108.5 93.5,-108.5 93.5,-89.5 33.5,-89.5"/>
<text text-anchor="middle" x="63.5" y="-96.5" font-family="Helvetica,sans-Serif" font-size="10.00">std::string</text>
</a>
</g>
</g>
<!-- Node2&#45;&gt;Node1 -->
<g id="edge1" class="edge"><title>Node2&#45;&gt;Node1</title>
<path fill="none" stroke="#9a32cd" stroke-dasharray="5,2" d="M63.5,-79.229C63.5,-64.4075 63.5,-44.0505 63.5,-30.5974"/>
<polygon fill="#9a32cd" stroke="#9a32cd" points="60.0001,-79.278 63.5,-89.2781 67.0001,-79.2781 60.0001,-79.278"/>
<text text-anchor="middle" x="75" y="-63" font-family="Helvetica,sans-Serif" font-size="10.00"> form</text>
<text text-anchor="middle" x="75" y="-52" font-family="Helvetica,sans-Serif" font-size="10.00">color</text>
</g>
<!-- Node3 -->
<g id="node3" class="node"><title>Node3</title>
<g id="a_node3"><a xlink:title="STL class. ">
<polygon fill="none" stroke="#bfbfbf" points="16,-146.5 16,-176.5 111,-176.5 111,-146.5 16,-146.5"/>
<text text-anchor="start" x="24" y="-164.5" font-family="Helvetica,sans-Serif" font-size="10.00">std::basic_string&lt;</text>
<text text-anchor="middle" x="63.5" y="-153.5" font-family="Helvetica,sans-Serif" font-size="10.00"> char &gt;</text>
</a>
</g>
</g>
<!-- Node3&#45;&gt;Node2 -->
<g id="edge2" class="edge"><title>Node3&#45;&gt;Node2</title>
<path fill="none" stroke="midnightblue" d="M63.5,-136.352C63.5,-126.513 63.5,-115.775 63.5,-108.54"/>
<polygon fill="midnightblue" stroke="midnightblue" points="60.0001,-136.468 63.5,-146.468 67.0001,-136.468 60.0001,-136.468"/>
</g>
</g>
</svg>
