<?xml version="1.0" encoding="UTF-8" standalone="no"?>
<!DOCTYPE svg PUBLIC "-//W3C//DTD SVG 1.1//EN"
 "http://www.w3.org/Graphics/SVG/1.1/DTD/svg11.dtd">
<!-- Generated by graphviz version 2.38.0 (20140413.2041)
 -->
<!-- Title: atwork_commander::ObjectBase Pages: 1 -->
<svg width="322pt" height="84pt"
 viewBox="0.00 0.00 321.50 84.00" xmlns="http://www.w3.org/2000/svg" xmlns:xlink="http://www.w3.org/1999/xlink">
<g id="graph0" class="graph" transform="scale(1 1) rotate(0) translate(4 80)">
<title>atwork_commander::ObjectBase</title>
<!-- Node1 -->
<g id="node1" class="node"><title>Node1</title>
<polygon fill="#bfbfbf" stroke="black" points="72,-56.5 72,-75.5 231,-75.5 231,-56.5 72,-56.5"/>
<text text-anchor="middle" x="151.5" y="-63.5" font-family="Helvetica,sans-Serif" font-size="10.00">atwork_commander::ObjectBase</text>
</g>
<!-- Node2 -->
<g id="node2" class="node"><title>Node2</title>
<g id="a_node2"><a xlink:href="structatwork__commander_1_1Object.html" target="_top" xlink:title="atwork_commander::Object">
<polygon fill="none" stroke="black" points="0,-0.5 0,-19.5 137,-19.5 137,-0.5 0,-0.5"/>
<text text-anchor="middle" x="68.5" y="-7.5" font-family="Helvetica,sans-Serif" font-size="10.00">atwork_commander::Object</text>
</a>
</g>
</g>
<!-- Node1&#45;&gt;Node2 -->
<g id="edge1" class="edge"><title>Node1&#45;&gt;Node2</title>
<path fill="none" stroke="midnightblue" d="M129.401,-50.6221C114.238,-40.7574 94.6172,-27.9919 81.8023,-19.6545"/>
<polygon fill="midnightblue" stroke="midnightblue" points="127.874,-53.8042 138.165,-56.324 131.691,-47.9367 127.874,-53.8042"/>
</g>
<!-- Node3 -->
<g id="node3" class="node"><title>Node3</title>
<g id="a_node3"><a xlink:href="structatwork__commander_1_1ObjectType.html" target="_top" xlink:title="atwork_commander::ObjectType">
<polygon fill="none" stroke="black" points="155.5,-0.5 155.5,-19.5 313.5,-19.5 313.5,-0.5 155.5,-0.5"/>
<text text-anchor="middle" x="234.5" y="-7.5" font-family="Helvetica,sans-Serif" font-size="10.00">atwork_commander::ObjectType</text>
</a>
</g>
</g>
<!-- Node1&#45;&gt;Node3 -->
<g id="edge2" class="edge"><title>Node1&#45;&gt;Node3</title>
<path fill="none" stroke="midnightblue" d="M173.599,-50.6221C188.762,-40.7574 208.383,-27.9919 221.198,-19.6545"/>
<polygon fill="midnightblue" stroke="midnightblue" points="171.309,-47.9367 164.835,-56.324 175.126,-53.8042 171.309,-47.9367"/>
</g>
</g>
</svg>
