<?xml version="1.0" encoding="UTF-8" standalone="no"?>
<!DOCTYPE svg PUBLIC "-//W3C//DTD SVG 1.1//EN"
 "http://www.w3.org/Graphics/SVG/1.1/DTD/svg11.dtd">
<!-- Generated by graphviz version 2.38.0 (20140413.2041)
 -->
<!-- Title: atwork_commander::task_generator::ObjectType Pages: 1 -->
<svg width="135pt" height="253pt"
 viewBox="0.00 0.00 135.00 253.00" xmlns="http://www.w3.org/2000/svg" xmlns:xlink="http://www.w3.org/1999/xlink">
<g id="graph0" class="graph" transform="scale(1 1) rotate(0) translate(4 249)">
<title>atwork_commander::task_generator::ObjectType</title>
<!-- Node1 -->
<g id="node1" class="node"><title>Node1</title>
<polygon fill="#bfbfbf" stroke="black" points="0,-0.5 0,-30.5 127,-30.5 127,-0.5 0,-0.5"/>
<text text-anchor="start" x="8" y="-18.5" font-family="Helvetica,sans-Serif" font-size="10.00">atwork_commander::task</text>
<text text-anchor="middle" x="63.5" y="-7.5" font-family="Helvetica,sans-Serif" font-size="10.00">_generator::ObjectType</text>
</g>
<!-- Node2 -->
<g id="node2" class="node"><title>Node2</title>
<g id="a_node2"><a xlink:href="structatwork__commander_1_1task__generator_1_1ObjectBase.html" target="_top" xlink:title="atwork_commander::task\l_generator::ObjectBase">
<polygon fill="none" stroke="black" points="0,-68.5 0,-98.5 127,-98.5 127,-68.5 0,-68.5"/>
<text text-anchor="start" x="8" y="-86.5" font-family="Helvetica,sans-Serif" font-size="10.00">atwork_commander::task</text>
<text text-anchor="middle" x="63.5" y="-75.5" font-family="Helvetica,sans-Serif" font-size="10.00">_generator::ObjectBase</text>
</a>
</g>
</g>
<!-- Node2&#45;&gt;Node1 -->
<g id="edge1" class="edge"><title>Node2&#45;&gt;Node1</title>
<path fill="none" stroke="midnightblue" d="M63.5,-58.0322C63.5,-48.8606 63.5,-38.7449 63.5,-30.7931"/>
<polygon fill="midnightblue" stroke="midnightblue" points="60.0001,-58.1789 63.5,-68.179 67.0001,-58.179 60.0001,-58.1789"/>
</g>
<!-- Node3 -->
<g id="node3" class="node"><title>Node3</title>
<g id="a_node3"><a xlink:title="STL class. ">
<polygon fill="none" stroke="#bfbfbf" points="33.5,-157.5 33.5,-176.5 93.5,-176.5 93.5,-157.5 33.5,-157.5"/>
<text text-anchor="middle" x="63.5" y="-164.5" font-family="Helvetica,sans-Serif" font-size="10.00">std::string</text>
</a>
</g>
</g>
<!-- Node3&#45;&gt;Node2 -->
<g id="edge2" class="edge"><title>Node3&#45;&gt;Node2</title>
<path fill="none" stroke="#9a32cd" stroke-dasharray="5,2" d="M63.5,-147.229C63.5,-132.408 63.5,-112.051 63.5,-98.5974"/>
<polygon fill="#9a32cd" stroke="#9a32cd" points="60.0001,-147.278 63.5,-157.278 67.0001,-147.278 60.0001,-147.278"/>
<text text-anchor="middle" x="75" y="-131" font-family="Helvetica,sans-Serif" font-size="10.00"> form</text>
<text text-anchor="middle" x="75" y="-120" font-family="Helvetica,sans-Serif" font-size="10.00">color</text>
</g>
<!-- Node4 -->
<g id="node4" class="node"><title>Node4</title>
<g id="a_node4"><a xlink:title="STL class. ">
<polygon fill="none" stroke="#bfbfbf" points="16,-214.5 16,-244.5 111,-244.5 111,-214.5 16,-214.5"/>
<text text-anchor="start" x="24" y="-232.5" font-family="Helvetica,sans-Serif" font-size="10.00">std::basic_string&lt;</text>
<text text-anchor="middle" x="63.5" y="-221.5" font-family="Helvetica,sans-Serif" font-size="10.00"> char &gt;</text>
</a>
</g>
</g>
<!-- Node4&#45;&gt;Node3 -->
<g id="edge3" class="edge"><title>Node4&#45;&gt;Node3</title>
<path fill="none" stroke="midnightblue" d="M63.5,-204.352C63.5,-194.513 63.5,-183.775 63.5,-176.54"/>
<polygon fill="midnightblue" stroke="midnightblue" points="60.0001,-204.468 63.5,-214.468 67.0001,-204.468 60.0001,-204.468"/>
</g>
</g>
</svg>
