<?xml version="1.0" encoding="UTF-8" standalone="no"?>
<!DOCTYPE svg PUBLIC "-//W3C//DTD SVG 1.1//EN"
 "http://www.w3.org/Graphics/SVG/1.1/DTD/svg11.dtd">
<!-- Generated by graphviz version 2.38.0 (20140413.2041)
 -->
<!-- Title: RefboxMockBase::generateCall Pages: 1 -->
<svg width="764pt" height="39pt"
 viewBox="0.00 0.00 764.00 39.00" xmlns="http://www.w3.org/2000/svg" xmlns:xlink="http://www.w3.org/1999/xlink">
<g id="graph0" class="graph" transform="scale(1 1) rotate(0) translate(4 35)">
<title>RefboxMockBase::generateCall</title>
<!-- Node1 -->
<g id="node1" class="node"><title>Node1</title>
<polygon fill="#bfbfbf" stroke="black" points="0,-6 0,-25 155,-25 155,-6 0,-6"/>
<text text-anchor="middle" x="77.5" y="-13" font-family="Helvetica,sans-Serif" font-size="10.00">RefboxMockBase::generateCall</text>
</g>
<!-- Node2 -->
<g id="node2" class="node"><title>Node2</title>
<g id="a_node2"><a xlink:href="control__node_8cpp.html#ae7f1525a6480d4cc745dc300c883f55e" target="_top" xlink:title="generate">
<polygon fill="none" stroke="black" points="191,-6 191,-25 245,-25 245,-6 191,-6"/>
<text text-anchor="middle" x="218" y="-13" font-family="Helvetica,sans-Serif" font-size="10.00">generate</text>
</a>
</g>
</g>
<!-- Node1&#45;&gt;Node2 -->
<g id="edge1" class="edge"><title>Node1&#45;&gt;Node2</title>
<path fill="none" stroke="midnightblue" d="M155.042,-15.5C164.003,-15.5 172.799,-15.5 180.821,-15.5"/>
<polygon fill="midnightblue" stroke="midnightblue" points="180.87,-19.0001 190.87,-15.5 180.87,-12.0001 180.87,-19.0001"/>
</g>
<!-- Node3 -->
<g id="node3" class="node"><title>Node3</title>
<g id="a_node3"><a xlink:href="classatwork__commander_1_1Control.html#a0be93e60d9410ceaad5af2bc7a62c771" target="_top" xlink:title="Command to generate a new Task on the RefBox. ">
<polygon fill="none" stroke="black" points="281,-0.5 281,-30.5 421,-30.5 421,-0.5 281,-0.5"/>
<text text-anchor="start" x="289" y="-18.5" font-family="Helvetica,sans-Serif" font-size="10.00">atwork_commander::Control</text>
<text text-anchor="middle" x="351" y="-7.5" font-family="Helvetica,sans-Serif" font-size="10.00">::generate</text>
</a>
</g>
</g>
<!-- Node2&#45;&gt;Node3 -->
<g id="edge2" class="edge"><title>Node2&#45;&gt;Node3</title>
<path fill="none" stroke="midnightblue" d="M245.195,-15.5C252.872,-15.5 261.691,-15.5 270.885,-15.5"/>
<polygon fill="midnightblue" stroke="midnightblue" points="270.972,-19.0001 280.972,-15.5 270.972,-12.0001 270.972,-19.0001"/>
</g>
<!-- Node4 -->
<g id="node4" class="node"><title>Node4</title>
<g id="a_node4"><a xlink:href="classatwork__commander_1_1ControlImpl.html#aa442ba265143eca7295803670ef72f3d" target="_top" xlink:title="atwork_commander::Control\lImpl::generate">
<polygon fill="none" stroke="black" points="457,-0.5 457,-30.5 597,-30.5 597,-0.5 457,-0.5"/>
<text text-anchor="start" x="465" y="-18.5" font-family="Helvetica,sans-Serif" font-size="10.00">atwork_commander::Control</text>
<text text-anchor="middle" x="527" y="-7.5" font-family="Helvetica,sans-Serif" font-size="10.00">Impl::generate</text>
</a>
</g>
</g>
<!-- Node3&#45;&gt;Node4 -->
<g id="edge3" class="edge"><title>Node3&#45;&gt;Node4</title>
<path fill="none" stroke="midnightblue" d="M421.019,-15.5C429.476,-15.5 438.169,-15.5 446.761,-15.5"/>
<polygon fill="midnightblue" stroke="midnightblue" points="446.78,-19.0001 456.779,-15.5 446.779,-12.0001 446.78,-19.0001"/>
</g>
<!-- Node5 -->
<g id="node5" class="node"><title>Node5</title>
<g id="a_node5"><a xlink:href="namespaceatwork__commander.html#a144d24cd0805258cbfd6f8cb8795feca" target="_top" xlink:title="atwork_commander::call">
<polygon fill="none" stroke="black" points="633,-6 633,-25 756,-25 756,-6 633,-6"/>
<text text-anchor="middle" x="694.5" y="-13" font-family="Helvetica,sans-Serif" font-size="10.00">atwork_commander::call</text>
</a>
</g>
</g>
<!-- Node4&#45;&gt;Node5 -->
<g id="edge4" class="edge"><title>Node4&#45;&gt;Node5</title>
<path fill="none" stroke="midnightblue" d="M597.228,-15.5C605.666,-15.5 614.297,-15.5 622.757,-15.5"/>
<polygon fill="midnightblue" stroke="midnightblue" points="622.968,-19.0001 632.968,-15.5 622.968,-12.0001 622.968,-19.0001"/>
</g>
</g>
</svg>
