<?xml version="1.0" encoding="UTF-8" standalone="no"?>
<!DOCTYPE svg PUBLIC "-//W3C//DTD SVG 1.1//EN"
 "http://www.w3.org/Graphics/SVG/1.1/DTD/svg11.dtd">
<!-- Generated by graphviz version 2.38.0 (20140413.2041)
 -->
<!-- Title: atwork_commander::Object Pages: 1 -->
<svg width="318pt" height="252pt"
 viewBox="0.00 0.00 317.50 252.00" xmlns="http://www.w3.org/2000/svg" xmlns:xlink="http://www.w3.org/1999/xlink">
<g id="graph0" class="graph" transform="scale(1 1) rotate(0) translate(4 248)">
<title>atwork_commander::Object</title>
<!-- Node1 -->
<g id="node1" class="node"><title>Node1</title>
<polygon fill="#bfbfbf" stroke="black" points="109,-0.5 109,-19.5 246,-19.5 246,-0.5 109,-0.5"/>
<text text-anchor="middle" x="177.5" y="-7.5" font-family="Helvetica,sans-Serif" font-size="10.00">atwork_commander::Object</text>
</g>
<!-- Node1&#45;&gt;Node1 -->
<g id="edge4" class="edge"><title>Node1&#45;&gt;Node1</title>
<path fill="none" stroke="#9a32cd" stroke-dasharray="5,2" d="M256.05,-15.0121C261.01,-13.8341 264,-12.1634 264,-10 264,-6.62305 256.713,-4.4465 246.025,-3.47034"/>
<polygon fill="#9a32cd" stroke="#9a32cd" points="255.389,-11.5723 246.025,-16.5297 256.437,-18.4934 255.389,-11.5723"/>
<text text-anchor="middle" x="285.5" y="-7.5" font-family="Helvetica,sans-Serif" font-size="10.00"> container</text>
</g>
<!-- Node2 -->
<g id="node2" class="node"><title>Node2</title>
<g id="a_node2"><a xlink:href="structatwork__commander_1_1ObjectBase.html" target="_top" xlink:title="atwork_commander::ObjectBase">
<polygon fill="none" stroke="black" points="0,-78.5 0,-97.5 159,-97.5 159,-78.5 0,-78.5"/>
<text text-anchor="middle" x="79.5" y="-85.5" font-family="Helvetica,sans-Serif" font-size="10.00">atwork_commander::ObjectBase</text>
</a>
</g>
</g>
<!-- Node2&#45;&gt;Node1 -->
<g id="edge1" class="edge"><title>Node2&#45;&gt;Node1</title>
<path fill="none" stroke="midnightblue" d="M98.6481,-72.1505C118.829,-56.4999 149.926,-32.3841 166.389,-19.6165"/>
<polygon fill="midnightblue" stroke="midnightblue" points="96.4992,-69.3878 90.7418,-78.2818 100.789,-74.9193 96.4992,-69.3878"/>
</g>
<!-- Node3 -->
<g id="node3" class="node"><title>Node3</title>
<g id="a_node3"><a xlink:title="STL class. ">
<polygon fill="none" stroke="#bfbfbf" points="101.5,-156.5 101.5,-175.5 161.5,-175.5 161.5,-156.5 101.5,-156.5"/>
<text text-anchor="middle" x="131.5" y="-163.5" font-family="Helvetica,sans-Serif" font-size="10.00">std::string</text>
</a>
</g>
</g>
<!-- Node3&#45;&gt;Node2 -->
<g id="edge2" class="edge"><title>Node3&#45;&gt;Node2</title>
<path fill="none" stroke="#9a32cd" stroke-dasharray="5,2" d="M119.872,-148.006C109.174,-132.369 93.7413,-109.814 85.3955,-97.6165"/>
<polygon fill="#9a32cd" stroke="#9a32cd" points="116.999,-150.005 125.535,-156.282 122.777,-146.052 116.999,-150.005"/>
<text text-anchor="middle" x="124" y="-130" font-family="Helvetica,sans-Serif" font-size="10.00"> form</text>
<text text-anchor="middle" x="124" y="-119" font-family="Helvetica,sans-Serif" font-size="10.00">color</text>
</g>
<!-- Node5 -->
<g id="node5" class="node"><title>Node5</title>
<g id="a_node5"><a xlink:href="structatwork__commander_1_1Table.html" target="_top" xlink:title="atwork_commander::Table">
<polygon fill="none" stroke="black" points="177.5,-78.5 177.5,-97.5 309.5,-97.5 309.5,-78.5 177.5,-78.5"/>
<text text-anchor="middle" x="243.5" y="-85.5" font-family="Helvetica,sans-Serif" font-size="10.00">atwork_commander::Table</text>
</a>
</g>
</g>
<!-- Node3&#45;&gt;Node5 -->
<g id="edge6" class="edge"><title>Node3&#45;&gt;Node5</title>
<path fill="none" stroke="#9a32cd" stroke-dasharray="5,2" d="M152.769,-150.568C175.812,-134.931 211.819,-110.498 230.802,-97.6165"/>
<polygon fill="#9a32cd" stroke="#9a32cd" points="150.657,-147.771 144.348,-156.282 154.588,-153.563 150.657,-147.771"/>
<text text-anchor="middle" x="213" y="-130" font-family="Helvetica,sans-Serif" font-size="10.00"> type</text>
<text text-anchor="middle" x="213" y="-119" font-family="Helvetica,sans-Serif" font-size="10.00">name</text>
</g>
<!-- Node4 -->
<g id="node4" class="node"><title>Node4</title>
<g id="a_node4"><a xlink:title="STL class. ">
<polygon fill="none" stroke="#bfbfbf" points="84,-213.5 84,-243.5 179,-243.5 179,-213.5 84,-213.5"/>
<text text-anchor="start" x="92" y="-231.5" font-family="Helvetica,sans-Serif" font-size="10.00">std::basic_string&lt;</text>
<text text-anchor="middle" x="131.5" y="-220.5" font-family="Helvetica,sans-Serif" font-size="10.00"> char &gt;</text>
</a>
</g>
</g>
<!-- Node4&#45;&gt;Node3 -->
<g id="edge3" class="edge"><title>Node4&#45;&gt;Node3</title>
<path fill="none" stroke="midnightblue" d="M131.5,-203.352C131.5,-193.513 131.5,-182.775 131.5,-175.54"/>
<polygon fill="midnightblue" stroke="midnightblue" points="128,-203.468 131.5,-213.468 135,-203.468 128,-203.468"/>
</g>
<!-- Node5&#45;&gt;Node1 -->
<g id="edge5" class="edge"><title>Node5&#45;&gt;Node1</title>
<path fill="none" stroke="#9a32cd" stroke-dasharray="5,2" d="M229.121,-70.4421C215.53,-54.7918 195.674,-31.9282 184.983,-19.6165"/>
<polygon fill="#9a32cd" stroke="#9a32cd" points="226.729,-73.0264 235.929,-78.2818 232.015,-68.4366 226.729,-73.0264"/>
<text text-anchor="middle" x="243" y="-52" font-family="Helvetica,sans-Serif" font-size="10.00"> destination</text>
<text text-anchor="middle" x="243" y="-41" font-family="Helvetica,sans-Serif" font-size="10.00">source</text>
</g>
</g>
</svg>
