<?xml version="1.0" encoding="UTF-8" standalone="no"?>
<!DOCTYPE svg PUBLIC "-//W3C//DTD SVG 1.1//EN"
 "http://www.w3.org/Graphics/SVG/1.1/DTD/svg11.dtd">
<!-- Generated by graphviz version 2.38.0 (20140413.2041)
 -->
<!-- Title: RefboxMockBase Pages: 1 -->
<svg width="258pt" height="162pt"
 viewBox="0.00 0.00 258.00 162.00" xmlns="http://www.w3.org/2000/svg" xmlns:xlink="http://www.w3.org/1999/xlink">
<g id="graph0" class="graph" transform="scale(1 1) rotate(0) translate(4 158)">
<title>RefboxMockBase</title>
<!-- Node1 -->
<g id="node1" class="node"><title>Node1</title>
<polygon fill="#bfbfbf" stroke="black" points="137,-0.5 137,-19.5 232,-19.5 232,-0.5 137,-0.5"/>
<text text-anchor="middle" x="184.5" y="-7.5" font-family="Helvetica,sans-Serif" font-size="10.00">RefboxMockBase</text>
</g>
<!-- Node2 -->
<g id="node2" class="node"><title>Node2</title>
<g id="a_node2"><a xlink:href="classRefboxMockBase_1_1RefboxWrapper.html" target="_top" xlink:title="RefboxMockBase::RefboxWrapper">
<polygon fill="none" stroke="black" points="0,-67.5 0,-86.5 169,-86.5 169,-67.5 0,-67.5"/>
<text text-anchor="middle" x="84.5" y="-74.5" font-family="Helvetica,sans-Serif" font-size="10.00">RefboxMockBase::RefboxWrapper</text>
</a>
</g>
</g>
<!-- Node2&#45;&gt;Node1 -->
<g id="edge1" class="edge"><title>Node2&#45;&gt;Node1</title>
<path fill="none" stroke="#9a32cd" stroke-dasharray="5,2" d="M106.394,-61.7687C126.188,-48.9026 154.686,-30.379 171.227,-19.6273"/>
<polygon fill="#9a32cd" stroke="#9a32cd" points="104.463,-58.8493 97.9864,-67.2338 108.278,-64.7184 104.463,-58.8493"/>
<text text-anchor="middle" x="153" y="-41" font-family="Helvetica,sans-Serif" font-size="10.00"> state</text>
</g>
<!-- Node3 -->
<g id="node3" class="node"><title>Node3</title>
<polygon fill="none" stroke="#bfbfbf" points="49,-134.5 49,-153.5 120,-153.5 120,-134.5 49,-134.5"/>
<text text-anchor="middle" x="84.5" y="-141.5" font-family="Helvetica,sans-Serif" font-size="10.00">RefboxState</text>
</g>
<!-- Node3&#45;&gt;Node2 -->
<g id="edge2" class="edge"><title>Node3&#45;&gt;Node2</title>
<path fill="none" stroke="#9a32cd" stroke-dasharray="5,2" d="M84.5,-124.037C84.5,-111.67 84.5,-96.1198 84.5,-86.6273"/>
<polygon fill="#9a32cd" stroke="#9a32cd" points="81.0001,-124.234 84.5,-134.234 88.0001,-124.234 81.0001,-124.234"/>
<text text-anchor="middle" x="102" y="-108" font-family="Helvetica,sans-Serif" font-size="10.00"> mState</text>
</g>
<!-- Node4 -->
<g id="node4" class="node"><title>Node4</title>
<g id="a_node4"><a xlink:title="STL class. ">
<polygon fill="none" stroke="#bfbfbf" points="187,-67.5 187,-86.5 250,-86.5 250,-67.5 187,-67.5"/>
<text text-anchor="middle" x="218.5" y="-74.5" font-family="Helvetica,sans-Serif" font-size="10.00">std::thread</text>
</a>
</g>
</g>
<!-- Node4&#45;&gt;Node1 -->
<g id="edge3" class="edge"><title>Node4&#45;&gt;Node1</title>
<path fill="none" stroke="#9a32cd" stroke-dasharray="5,2" d="M209.17,-58.1635C202.613,-45.6281 194.13,-29.4104 189.013,-19.6273"/>
<polygon fill="#9a32cd" stroke="#9a32cd" points="206.178,-59.9951 213.915,-67.2338 212.381,-56.7506 206.178,-59.9951"/>
<text text-anchor="middle" x="212" y="-41" font-family="Helvetica,sans-Serif" font-size="10.00"> run</text>
</g>
</g>
</svg>
