<?xml version="1.0" encoding="UTF-8" standalone="no"?>
<!DOCTYPE svg PUBLIC "-//W3C//DTD SVG 1.1//EN"
 "http://www.w3.org/Graphics/SVG/1.1/DTD/svg11.dtd">
<!-- Generated by graphviz version 2.38.0 (20140413.2041)
 -->
<!-- Title: atwork_commander::TaskDefinition Pages: 1 -->
<svg width="257pt" height="296pt"
 viewBox="0.00 0.00 256.50 296.00" xmlns="http://www.w3.org/2000/svg" xmlns:xlink="http://www.w3.org/1999/xlink">
<g id="graph0" class="graph" transform="scale(1 1) rotate(0) translate(4 292)">
<title>atwork_commander::TaskDefinition</title>
<!-- Node1 -->
<g id="node1" class="node"><title>Node1</title>
<polygon fill="#bfbfbf" stroke="black" points="39,-0.5 39,-19.5 210,-19.5 210,-0.5 39,-0.5"/>
<text text-anchor="middle" x="124.5" y="-7.5" font-family="Helvetica,sans-Serif" font-size="10.00">atwork_commander::TaskDefinition</text>
</g>
<!-- Node2 -->
<g id="node2" class="node"><title>Node2</title>
<polygon fill="none" stroke="#bfbfbf" points="0,-122.5 0,-152.5 103,-152.5 103,-122.5 0,-122.5"/>
<text text-anchor="start" x="8" y="-140.5" font-family="Helvetica,sans-Serif" font-size="10.00">std::unordered_map</text>
<text text-anchor="middle" x="51.5" y="-129.5" font-family="Helvetica,sans-Serif" font-size="10.00">&lt; std::string, int &gt;</text>
</g>
<!-- Node2&#45;&gt;Node1 -->
<g id="edge1" class="edge"><title>Node2&#45;&gt;Node1</title>
<path fill="none" stroke="#9a32cd" stroke-dasharray="5,2" d="M54.6989,-112.531C58.5454,-91.1874 66.7159,-60.0198 83.5,-38 89.3899,-30.2727 98.1646,-24.0734 106.087,-19.5735"/>
<polygon fill="#9a32cd" stroke="#9a32cd" points="51.2417,-111.986 53.0988,-122.416 58.1517,-113.104 51.2417,-111.986"/>
<text text-anchor="middle" x="108" y="-74" font-family="Helvetica,sans-Serif" font-size="10.00"> objects</text>
<text text-anchor="middle" x="108" y="-63" font-family="Helvetica,sans-Serif" font-size="10.00">parameters</text>
</g>
<!-- Node3 -->
<g id="node3" class="node"><title>Node3</title>
<g id="a_node3"><a xlink:title="STL class. ">
<polygon fill="none" stroke="#bfbfbf" points="66.5,-200.5 66.5,-219.5 126.5,-219.5 126.5,-200.5 66.5,-200.5"/>
<text text-anchor="middle" x="96.5" y="-207.5" font-family="Helvetica,sans-Serif" font-size="10.00">std::string</text>
</a>
</g>
</g>
<!-- Node3&#45;&gt;Node2 -->
<g id="edge2" class="edge"><title>Node3&#45;&gt;Node2</title>
<path fill="none" stroke="#9a32cd" stroke-dasharray="5,2" d="M85.4464,-191.683C77.7686,-179.654 67.6672,-163.829 60.4848,-152.576"/>
<polygon fill="#9a32cd" stroke="#9a32cd" points="82.6515,-193.809 90.9821,-200.355 88.552,-190.043 82.6515,-193.809"/>
<text text-anchor="middle" x="91" y="-174" font-family="Helvetica,sans-Serif" font-size="10.00"> keys</text>
</g>
<!-- Node5 -->
<g id="node5" class="node"><title>Node5</title>
<polygon fill="none" stroke="#bfbfbf" points="121,-128 121,-147 246,-147 246,-128 121,-128"/>
<text text-anchor="middle" x="183.5" y="-135" font-family="Helvetica,sans-Serif" font-size="10.00">std::vector&lt; std::string &gt;</text>
</g>
<!-- Node3&#45;&gt;Node5 -->
<g id="edge5" class="edge"><title>Node3&#45;&gt;Node5</title>
<path fill="none" stroke="#9a32cd" stroke-dasharray="5,2" d="M115.042,-193.975C132.597,-179.749 158.349,-158.881 172.745,-147.215"/>
<polygon fill="#9a32cd" stroke="#9a32cd" points="112.734,-191.34 107.168,-200.355 117.141,-196.779 112.734,-191.34"/>
<text text-anchor="middle" x="164" y="-174" font-family="Helvetica,sans-Serif" font-size="10.00"> elements</text>
</g>
<!-- Node4 -->
<g id="node4" class="node"><title>Node4</title>
<g id="a_node4"><a xlink:title="STL class. ">
<polygon fill="none" stroke="#bfbfbf" points="49,-257.5 49,-287.5 144,-287.5 144,-257.5 49,-257.5"/>
<text text-anchor="start" x="57" y="-275.5" font-family="Helvetica,sans-Serif" font-size="10.00">std::basic_string&lt;</text>
<text text-anchor="middle" x="96.5" y="-264.5" font-family="Helvetica,sans-Serif" font-size="10.00"> char &gt;</text>
</a>
</g>
</g>
<!-- Node4&#45;&gt;Node3 -->
<g id="edge3" class="edge"><title>Node4&#45;&gt;Node3</title>
<path fill="none" stroke="midnightblue" d="M96.5,-247.352C96.5,-237.513 96.5,-226.775 96.5,-219.54"/>
<polygon fill="midnightblue" stroke="midnightblue" points="93.0001,-247.468 96.5,-257.468 100,-247.468 93.0001,-247.468"/>
</g>
<!-- Node5&#45;&gt;Node1 -->
<g id="edge4" class="edge"><title>Node5&#45;&gt;Node1</title>
<path fill="none" stroke="#9a32cd" stroke-dasharray="5,2" d="M175.123,-118.682C162.271,-91.3441 138.17,-40.0773 128.584,-19.6865"/>
<polygon fill="#9a32cd" stroke="#9a32cd" points="172.023,-120.313 179.445,-127.874 178.358,-117.335 172.023,-120.313"/>
<text text-anchor="middle" x="208" y="-96" font-family="Helvetica,sans-Serif" font-size="10.00"> shTypes</text>
<text text-anchor="middle" x="208" y="-85" font-family="Helvetica,sans-Serif" font-size="10.00">cavities</text>
<text text-anchor="middle" x="208" y="-74" font-family="Helvetica,sans-Serif" font-size="10.00">normalTableTypes</text>
<text text-anchor="middle" x="208" y="-63" font-family="Helvetica,sans-Serif" font-size="10.00">ppTypes</text>
<text text-anchor="middle" x="208" y="-52" font-family="Helvetica,sans-Serif" font-size="10.00">ttTypes</text>
<text text-anchor="middle" x="208" y="-41" font-family="Helvetica,sans-Serif" font-size="10.00">allowedTables</text>
</g>
</g>
</svg>
