<?xml version="1.0" encoding="UTF-8" standalone="no"?>
<!DOCTYPE svg PUBLIC "-//W3C//DTD SVG 1.1//EN"
 "http://www.w3.org/Graphics/SVG/1.1/DTD/svg11.dtd">
<!-- Generated by graphviz version 2.38.0 (20140413.2041)
 -->
<!-- Title: atwork_commander::ArenaDescription Pages: 1 -->
<svg width="682pt" height="137pt"
 viewBox="0.00 0.00 682.00 136.50" xmlns="http://www.w3.org/2000/svg" xmlns:xlink="http://www.w3.org/1999/xlink">
<g id="graph0" class="graph" transform="scale(1 1) rotate(0) translate(4 132.5)">
<title>atwork_commander::ArenaDescription</title>
<!-- Node1 -->
<g id="node1" class="node"><title>Node1</title>
<polygon fill="#bfbfbf" stroke="black" points="491,-49.5 491,-68.5 674,-68.5 674,-49.5 491,-49.5"/>
<text text-anchor="middle" x="582.5" y="-56.5" font-family="Helvetica,sans-Serif" font-size="10.00">atwork_commander::ArenaDescription</text>
</g>
<!-- Node2 -->
<g id="node2" class="node"><title>Node2</title>
<polygon fill="none" stroke="#bfbfbf" points="282,-98 282,-128 385,-128 385,-98 282,-98"/>
<text text-anchor="start" x="290" y="-116" font-family="Helvetica,sans-Serif" font-size="10.00">std::unordered_map</text>
<text text-anchor="middle" x="333.5" y="-105" font-family="Helvetica,sans-Serif" font-size="10.00">&lt; std::string, int &gt;</text>
</g>
<!-- Node2&#45;&gt;Node1 -->
<g id="edge1" class="edge"><title>Node2&#45;&gt;Node1</title>
<path fill="none" stroke="#9a32cd" stroke-dasharray="5,2" d="M395.361,-101.184C419.565,-96.3578 447.638,-90.6005 473,-85 496.359,-79.8417 522.432,-73.6093 543.163,-68.5397"/>
<polygon fill="#9a32cd" stroke="#9a32cd" points="394.371,-97.8124 385.244,-103.193 395.734,-104.678 394.371,-97.8124"/>
<text text-anchor="middle" x="443.5" y="-100" font-family="Helvetica,sans-Serif" font-size="10.00"> objects</text>
</g>
<!-- Node3 -->
<g id="node3" class="node"><title>Node3</title>
<g id="a_node3"><a xlink:title="STL class. ">
<polygon fill="none" stroke="#bfbfbf" points="132,-49.5 132,-68.5 192,-68.5 192,-49.5 132,-49.5"/>
<text text-anchor="middle" x="162" y="-56.5" font-family="Helvetica,sans-Serif" font-size="10.00">std::string</text>
</a>
</g>
</g>
<!-- Node3&#45;&gt;Node2 -->
<g id="edge2" class="edge"><title>Node3&#45;&gt;Node2</title>
<path fill="none" stroke="#9a32cd" stroke-dasharray="5,2" d="M186.429,-73.6498C193.77,-77.7729 202.038,-81.9575 210,-85 232.926,-93.7606 259.359,-100.229 281.79,-104.728"/>
<polygon fill="#9a32cd" stroke="#9a32cd" points="188.118,-70.5829 177.72,-68.5506 184.581,-76.6237 188.118,-70.5829"/>
<text text-anchor="middle" x="231.5" y="-101" font-family="Helvetica,sans-Serif" font-size="10.00"> keys</text>
</g>
<!-- Node5 -->
<g id="node5" class="node"><title>Node5</title>
<polygon fill="none" stroke="#bfbfbf" points="282,-38.5 282,-79.5 385,-79.5 385,-38.5 282,-38.5"/>
<text text-anchor="start" x="290" y="-67.5" font-family="Helvetica,sans-Serif" font-size="10.00">std::unordered_map</text>
<text text-anchor="start" x="290" y="-56.5" font-family="Helvetica,sans-Serif" font-size="10.00">&lt; std::string, std::</text>
<text text-anchor="middle" x="333.5" y="-45.5" font-family="Helvetica,sans-Serif" font-size="10.00">string &gt;</text>
</g>
<!-- Node3&#45;&gt;Node5 -->
<g id="edge5" class="edge"><title>Node3&#45;&gt;Node5</title>
<path fill="none" stroke="#9a32cd" stroke-dasharray="5,2" d="M202.176,-59C225.872,-59 256.335,-59 281.849,-59"/>
<polygon fill="#9a32cd" stroke="#9a32cd" points="202.138,-55.5001 192.138,-59 202.138,-62.5001 202.138,-55.5001"/>
<text text-anchor="middle" x="231.5" y="-73" font-family="Helvetica,sans-Serif" font-size="10.00"> keys</text>
<text text-anchor="middle" x="231.5" y="-62" font-family="Helvetica,sans-Serif" font-size="10.00">elements</text>
</g>
<!-- Node6 -->
<g id="node6" class="node"><title>Node6</title>
<polygon fill="none" stroke="#bfbfbf" points="271,-0.5 271,-19.5 396,-19.5 396,-0.5 271,-0.5"/>
<text text-anchor="middle" x="333.5" y="-7.5" font-family="Helvetica,sans-Serif" font-size="10.00">std::vector&lt; std::string &gt;</text>
</g>
<!-- Node3&#45;&gt;Node6 -->
<g id="edge7" class="edge"><title>Node3&#45;&gt;Node6</title>
<path fill="none" stroke="#9a32cd" stroke-dasharray="5,2" d="M201.621,-46.5445C204.452,-45.6711 207.268,-44.8147 210,-44 239.082,-35.3267 272.263,-26.1619 296.751,-19.5357"/>
<polygon fill="#9a32cd" stroke="#9a32cd" points="200.529,-43.2187 192.029,-49.5443 202.618,-49.8996 200.529,-43.2187"/>
<text text-anchor="middle" x="231.5" y="-47" font-family="Helvetica,sans-Serif" font-size="10.00"> elements</text>
</g>
<!-- Node4 -->
<g id="node4" class="node"><title>Node4</title>
<g id="a_node4"><a xlink:title="STL class. ">
<polygon fill="none" stroke="#bfbfbf" points="0,-44 0,-74 95,-74 95,-44 0,-44"/>
<text text-anchor="start" x="8" y="-62" font-family="Helvetica,sans-Serif" font-size="10.00">std::basic_string&lt;</text>
<text text-anchor="middle" x="47.5" y="-51" font-family="Helvetica,sans-Serif" font-size="10.00"> char &gt;</text>
</a>
</g>
</g>
<!-- Node4&#45;&gt;Node3 -->
<g id="edge3" class="edge"><title>Node4&#45;&gt;Node3</title>
<path fill="none" stroke="midnightblue" d="M105.526,-59C114.678,-59 123.803,-59 131.931,-59"/>
<polygon fill="midnightblue" stroke="midnightblue" points="105.233,-55.5001 95.2328,-59 105.233,-62.5001 105.233,-55.5001"/>
</g>
<!-- Node5&#45;&gt;Node1 -->
<g id="edge4" class="edge"><title>Node5&#45;&gt;Node1</title>
<path fill="none" stroke="#9a32cd" stroke-dasharray="5,2" d="M395.348,-59C424.018,-59 458.815,-59 490.531,-59"/>
<polygon fill="#9a32cd" stroke="#9a32cd" points="395.08,-55.5001 385.08,-59 395.08,-62.5001 395.08,-55.5001"/>
<text text-anchor="middle" x="443.5" y="-73" font-family="Helvetica,sans-Serif" font-size="10.00"> workstations</text>
<text text-anchor="middle" x="443.5" y="-62" font-family="Helvetica,sans-Serif" font-size="10.00">waypoints</text>
</g>
<!-- Node6&#45;&gt;Node1 -->
<g id="edge6" class="edge"><title>Node6&#45;&gt;Node1</title>
<path fill="none" stroke="#9a32cd" stroke-dasharray="5,2" d="M392.42,-21.4901C435.267,-29.9903 492.95,-41.4334 533.295,-49.4371"/>
<polygon fill="#9a32cd" stroke="#9a32cd" points="392.907,-18.0187 382.417,-19.5058 391.545,-24.8849 392.907,-18.0187"/>
<text text-anchor="middle" x="443.5" y="-41" font-family="Helvetica,sans-Serif" font-size="10.00"> cavities</text>
</g>
</g>
</svg>
