<?xml version="1.0" encoding="UTF-8" standalone="no"?>
<!DOCTYPE svg PUBLIC "-//W3C//DTD SVG 1.1//EN"
 "http://www.w3.org/Graphics/SVG/1.1/DTD/svg11.dtd">
<!-- Generated by graphviz version 2.38.0 (20140413.2041)
 -->
<!-- Title: RefboxMockBase::loadTaskCall Pages: 1 -->
<svg width="480pt" height="28pt"
 viewBox="0.00 0.00 480.00 28.00" xmlns="http://www.w3.org/2000/svg" xmlns:xlink="http://www.w3.org/1999/xlink">
<g id="graph0" class="graph" transform="scale(1 1) rotate(0) translate(4 24)">
<title>RefboxMockBase::loadTaskCall</title>
<!-- Node1 -->
<g id="node1" class="node"><title>Node1</title>
<polygon fill="#bfbfbf" stroke="black" points="0,-0.5 0,-19.5 158,-19.5 158,-0.5 0,-0.5"/>
<text text-anchor="middle" x="79" y="-7.5" font-family="Helvetica,sans-Serif" font-size="10.00">RefboxMockBase::loadTaskCall</text>
</g>
<!-- Node2 -->
<g id="node2" class="node"><title>Node2</title>
<g id="a_node2"><a xlink:href="structRefboxMockBase.html#a4b3ccf44781edf61e4f6382899fdbf26" target="_top" xlink:title="RefboxMockBase::connect">
<polygon fill="none" stroke="black" points="194,-0.5 194,-19.5 329,-19.5 329,-0.5 194,-0.5"/>
<text text-anchor="middle" x="261.5" y="-7.5" font-family="Helvetica,sans-Serif" font-size="10.00">RefboxMockBase::connect</text>
</a>
</g>
</g>
<!-- Node1&#45;&gt;Node2 -->
<g id="edge1" class="edge"><title>Node1&#45;&gt;Node2</title>
<path fill="none" stroke="midnightblue" d="M168.218,-10C176.846,-10 185.499,-10 193.86,-10"/>
<polygon fill="midnightblue" stroke="midnightblue" points="168.12,-6.5001 158.12,-10 168.12,-13.5001 168.12,-6.5001"/>
</g>
<!-- Node3 -->
<g id="node3" class="node"><title>Node3</title>
<g id="a_node3"><a xlink:href="structControlTests.html#a2bc96f00c7bf8ee99a12bf53094c63fd" target="_top" xlink:title="ControlTests::SetUp">
<polygon fill="none" stroke="black" points="365,-0.5 365,-19.5 472,-19.5 472,-0.5 365,-0.5"/>
<text text-anchor="middle" x="418.5" y="-7.5" font-family="Helvetica,sans-Serif" font-size="10.00">ControlTests::SetUp</text>
</a>
</g>
</g>
<!-- Node2&#45;&gt;Node3 -->
<g id="edge2" class="edge"><title>Node2&#45;&gt;Node3</title>
<path fill="none" stroke="midnightblue" d="M339.299,-10C347.985,-10 356.683,-10 364.957,-10"/>
<polygon fill="midnightblue" stroke="midnightblue" points="339.134,-6.5001 329.133,-10 339.133,-13.5001 339.134,-6.5001"/>
</g>
</g>
</svg>
