<?xml version="1.0" encoding="UTF-8" standalone="no"?>
<!DOCTYPE svg PUBLIC "-//W3C//DTD SVG 1.1//EN"
 "http://www.w3.org/Graphics/SVG/1.1/DTD/svg11.dtd">
<!-- Generated by graphviz version 2.38.0 (20140413.2041)
 -->
<!-- Title: RefboxMock Pages: 1 -->
<svg width="258pt" height="219pt"
 viewBox="0.00 0.00 258.00 219.00" xmlns="http://www.w3.org/2000/svg" xmlns:xlink="http://www.w3.org/1999/xlink">
<g id="graph0" class="graph" transform="scale(1 1) rotate(0) translate(4 215)">
<title>RefboxMock</title>
<!-- Node1 -->
<g id="node1" class="node"><title>Node1</title>
<polygon fill="#bfbfbf" stroke="black" points="148.5,-0.5 148.5,-19.5 220.5,-19.5 220.5,-0.5 148.5,-0.5"/>
<text text-anchor="middle" x="184.5" y="-7.5" font-family="Helvetica,sans-Serif" font-size="10.00">RefboxMock</text>
</g>
<!-- Node2 -->
<g id="node2" class="node"><title>Node2</title>
<g id="a_node2"><a xlink:href="structRefboxMockBase.html" target="_top" xlink:title="RefboxMockBase">
<polygon fill="none" stroke="black" points="137,-57.5 137,-76.5 232,-76.5 232,-57.5 137,-57.5"/>
<text text-anchor="middle" x="184.5" y="-64.5" font-family="Helvetica,sans-Serif" font-size="10.00">RefboxMockBase</text>
</a>
</g>
</g>
<!-- Node2&#45;&gt;Node1 -->
<g id="edge1" class="edge"><title>Node2&#45;&gt;Node1</title>
<path fill="none" stroke="midnightblue" d="M184.5,-47.1166C184.5,-37.8173 184.5,-27.0557 184.5,-19.7149"/>
<polygon fill="midnightblue" stroke="midnightblue" points="181,-47.4062 184.5,-57.4062 188,-47.4063 181,-47.4062"/>
</g>
<!-- Node3 -->
<g id="node3" class="node"><title>Node3</title>
<g id="a_node3"><a xlink:href="classRefboxMockBase_1_1RefboxWrapper.html" target="_top" xlink:title="RefboxMockBase::RefboxWrapper">
<polygon fill="none" stroke="black" points="0,-124.5 0,-143.5 169,-143.5 169,-124.5 0,-124.5"/>
<text text-anchor="middle" x="84.5" y="-131.5" font-family="Helvetica,sans-Serif" font-size="10.00">RefboxMockBase::RefboxWrapper</text>
</a>
</g>
</g>
<!-- Node3&#45;&gt;Node2 -->
<g id="edge2" class="edge"><title>Node3&#45;&gt;Node2</title>
<path fill="none" stroke="#9a32cd" stroke-dasharray="5,2" d="M106.394,-118.769C126.188,-105.903 154.686,-87.379 171.227,-76.6273"/>
<polygon fill="#9a32cd" stroke="#9a32cd" points="104.463,-115.849 97.9864,-124.234 108.278,-121.718 104.463,-115.849"/>
<text text-anchor="middle" x="153" y="-98" font-family="Helvetica,sans-Serif" font-size="10.00"> state</text>
</g>
<!-- Node4 -->
<g id="node4" class="node"><title>Node4</title>
<polygon fill="none" stroke="#bfbfbf" points="49,-191.5 49,-210.5 120,-210.5 120,-191.5 49,-191.5"/>
<text text-anchor="middle" x="84.5" y="-198.5" font-family="Helvetica,sans-Serif" font-size="10.00">RefboxState</text>
</g>
<!-- Node4&#45;&gt;Node3 -->
<g id="edge3" class="edge"><title>Node4&#45;&gt;Node3</title>
<path fill="none" stroke="#9a32cd" stroke-dasharray="5,2" d="M84.5,-181.037C84.5,-168.67 84.5,-153.12 84.5,-143.627"/>
<polygon fill="#9a32cd" stroke="#9a32cd" points="81.0001,-181.234 84.5,-191.234 88.0001,-181.234 81.0001,-181.234"/>
<text text-anchor="middle" x="102" y="-165" font-family="Helvetica,sans-Serif" font-size="10.00"> mState</text>
</g>
<!-- Node5 -->
<g id="node5" class="node"><title>Node5</title>
<g id="a_node5"><a xlink:title="STL class. ">
<polygon fill="none" stroke="#bfbfbf" points="187,-124.5 187,-143.5 250,-143.5 250,-124.5 187,-124.5"/>
<text text-anchor="middle" x="218.5" y="-131.5" font-family="Helvetica,sans-Serif" font-size="10.00">std::thread</text>
</a>
</g>
</g>
<!-- Node5&#45;&gt;Node2 -->
<g id="edge4" class="edge"><title>Node5&#45;&gt;Node2</title>
<path fill="none" stroke="#9a32cd" stroke-dasharray="5,2" d="M209.17,-115.163C202.613,-102.628 194.13,-86.4104 189.013,-76.6273"/>
<polygon fill="#9a32cd" stroke="#9a32cd" points="206.178,-116.995 213.915,-124.234 212.381,-113.751 206.178,-116.995"/>
<text text-anchor="middle" x="212" y="-98" font-family="Helvetica,sans-Serif" font-size="10.00"> run</text>
</g>
</g>
</svg>
