<?xml version="1.0" encoding="UTF-8" standalone="no"?>
<!DOCTYPE svg PUBLIC "-//W3C//DTD SVG 1.1//EN"
 "http://www.w3.org/Graphics/SVG/1.1/DTD/svg11.dtd">
<!-- Generated by graphviz version 2.38.0 (20140413.2041)
 -->
<!-- Title: RefboxMockBase::connect Pages: 1 -->
<!--zoomable 180 -->
<svg id="main" version="1.1" xmlns="http://www.w3.org/2000/svg" xmlns:xlink="http://www.w3.org/1999/xlink" xml:space="preserve" onload="init(evt)">
<style type="text/css"><![CDATA[
.edge:hover path { stroke: red; }
.edge:hover polygon { stroke: red; fill: red; }
]]></style>
<script type="text/javascript"><![CDATA[
var edges = document.getElementsByTagName('g');
if (edges && edges.length) {
  for (var i=0;i<edges.length;i++) {
    if (edges[i].id.substr(0,4)=='edge') {
      edges[i].setAttribute('class','edge');
    }
  }
}
]]></script>
        <defs>
                <circle id="rim" cx="0" cy="0" r="7"/>
                <circle id="rim2" cx="0" cy="0" r="3.5"/>
                <g id="zoomPlus">
                        <use xlink:href="#rim" fill="#404040">
                                <set attributeName="fill" to="#808080" begin="zoomplus.mouseover" end="zoomplus.mouseout"/>
                        </use>
                        <path d="M-4,0h8M0,-4v8" fill="none" stroke="white" stroke-width="1.5" pointer-events="none"/>
                </g>
                <g id="zoomMin">
                        <use xlink:href="#rim" fill="#404040">
                                <set attributeName="fill" to="#808080" begin="zoomminus.mouseover" end="zoomminus.mouseout"/>
                        </use>
                        <path d="M-4,0h8" fill="none" stroke="white" stroke-width="1.5" pointer-events="none"/>
                </g>
                <g id="dirArrow">
                        <path fill="none" stroke="white" stroke-width="1.5" d="M0,-3.0v7 M-2.5,-0.5L0,-3.0L2.5,-0.5"/>
                </g>
               <g id="resetDef">
                       <use xlink:href="#rim2" fill="#404040">
                               <set attributeName="fill" to="#808080" begin="reset.mouseover" end="reset.mouseout"/>
                       </use>
               </g>
        </defs>

<script type="text/javascript">
var viewWidth = 970;
var viewHeight = 180;
var sectionId = 'dynsection-2';
</script>
<script xlink:href="svgpan.js"/>
<svg id="graph" class="graph">
<g id="viewport">
<title>RefboxMockBase::connect</title>
<!-- Node1 -->
<g id="node1" class="node"><title>Node1</title>
<polygon fill="#bfbfbf" stroke="black" points="0,-76.5 0,-95.5 135,-95.5 135,-76.5 0,-76.5"/>
<text text-anchor="middle" x="67.5" y="-83.5" font-family="Helvetica,sans-Serif" font-size="10.00">RefboxMockBase::connect</text>
</g>
<!-- Node2 -->
<g id="node2" class="node"><title>Node2</title>
<g id="a_node2"><a xlink:href="structRefboxMockBase.html#a853adab4d4ebd43316656b9228d85b6d" target="_top" xlink:title="RefboxMockBase::generateCall">
<polygon fill="none" stroke="black" points="180,-152.5 180,-171.5 335,-171.5 335,-152.5 180,-152.5"/>
<text text-anchor="middle" x="257.5" y="-159.5" font-family="Helvetica,sans-Serif" font-size="10.00">RefboxMockBase::generateCall</text>
</a>
</g>
</g>
<!-- Node1&#45;&gt;Node2 -->
<g id="edge1" class="edge"><title>Node1&#45;&gt;Node2</title>
<path fill="none" stroke="midnightblue" d="M82.7869,-95.7073C102.023,-108.355 137.69,-130.344 171,-143 177.841,-145.599 185.131,-147.892 192.46,-149.903"/>
<polygon fill="midnightblue" stroke="midnightblue" points="191.883,-153.368 202.44,-152.472 193.628,-146.589 191.883,-153.368"/>
</g>
<!-- Node7 -->
<g id="node7" class="node"><title>Node7</title>
<g id="a_node7"><a xlink:href="structRefboxMockBase.html#a5732bf17e0bef1b66f566da5f926816c" target="_top" xlink:title="RefboxMockBase::loadTaskCall">
<polygon fill="none" stroke="black" points="178.5,-114.5 178.5,-133.5 336.5,-133.5 336.5,-114.5 178.5,-114.5"/>
<text text-anchor="middle" x="257.5" y="-121.5" font-family="Helvetica,sans-Serif" font-size="10.00">RefboxMockBase::loadTaskCall</text>
</a>
</g>
</g>
<!-- Node1&#45;&gt;Node7 -->
<g id="edge6" class="edge"><title>Node1&#45;&gt;Node7</title>
<path fill="none" stroke="midnightblue" d="M115.94,-95.589C141.308,-100.716 172.727,-107.067 199.423,-112.463"/>
<polygon fill="midnightblue" stroke="midnightblue" points="198.906,-115.929 209.401,-114.48 200.292,-109.068 198.906,-115.929"/>
</g>
<!-- Node8 -->
<g id="node8" class="node"><title>Node8</title>
<g id="a_node8"><a xlink:href="structRefboxMockBase.html#a953ca9650012845aa27ad00f2216f667" target="_top" xlink:title="RefboxMockBase::periodic">
<polygon fill="none" stroke="black" points="190.5,-76.5 190.5,-95.5 324.5,-95.5 324.5,-76.5 190.5,-76.5"/>
<text text-anchor="middle" x="257.5" y="-83.5" font-family="Helvetica,sans-Serif" font-size="10.00">RefboxMockBase::periodic</text>
</a>
</g>
</g>
<!-- Node1&#45;&gt;Node8 -->
<g id="edge7" class="edge"><title>Node1&#45;&gt;Node8</title>
<path fill="none" stroke="midnightblue" d="M135.046,-86C149.636,-86 165.193,-86 180.134,-86"/>
<polygon fill="midnightblue" stroke="midnightblue" points="180.36,-89.5001 190.36,-86 180.36,-82.5001 180.36,-89.5001"/>
</g>
<!-- Node9 -->
<g id="node9" class="node"><title>Node9</title>
<g id="a_node9"><a xlink:href="structRefboxMockBase.html#a7e9673745c84952c97ebff920f58693b" target="_top" xlink:title="RefboxMockBase::startCall">
<polygon fill="none" stroke="black" points="189,-38.5 189,-57.5 326,-57.5 326,-38.5 189,-38.5"/>
<text text-anchor="middle" x="257.5" y="-45.5" font-family="Helvetica,sans-Serif" font-size="10.00">RefboxMockBase::startCall</text>
</a>
</g>
</g>
<!-- Node1&#45;&gt;Node9 -->
<g id="edge8" class="edge"><title>Node1&#45;&gt;Node9</title>
<path fill="none" stroke="midnightblue" d="M115.94,-76.411C141.308,-71.2835 172.727,-64.9328 199.423,-59.5368"/>
<polygon fill="midnightblue" stroke="midnightblue" points="200.292,-62.932 209.401,-57.5201 198.906,-56.0707 200.292,-62.932"/>
</g>
<!-- Node15 -->
<g id="node15" class="node"><title>Node15</title>
<g id="a_node15"><a xlink:href="structRefboxMockBase.html#a6ba2f6e52a598f161b442d094dcbce4a" target="_top" xlink:title="RefboxMockBase::stateChangeCall">
<polygon fill="none" stroke="black" points="171,-0.5 171,-19.5 344,-19.5 344,-0.5 171,-0.5"/>
<text text-anchor="middle" x="257.5" y="-7.5" font-family="Helvetica,sans-Serif" font-size="10.00">RefboxMockBase::stateChangeCall</text>
</a>
</g>
</g>
<!-- Node1&#45;&gt;Node15 -->
<g id="edge15" class="edge"><title>Node1&#45;&gt;Node15</title>
<path fill="none" stroke="midnightblue" d="M82.7869,-76.2927C102.023,-63.6447 137.69,-41.6555 171,-29 177.841,-26.401 185.131,-24.1077 192.46,-22.097"/>
<polygon fill="midnightblue" stroke="midnightblue" points="193.628,-25.4105 202.44,-19.5281 191.883,-18.6315 193.628,-25.4105"/>
</g>
<!-- Node3 -->
<g id="node3" class="node"><title>Node3</title>
<g id="a_node3"><a xlink:href="control__node_8cpp.html#ae7f1525a6480d4cc745dc300c883f55e" target="_top" xlink:title="generate">
<polygon fill="none" stroke="black" points="380,-149.5 380,-168.5 434,-168.5 434,-149.5 380,-149.5"/>
<text text-anchor="middle" x="407" y="-156.5" font-family="Helvetica,sans-Serif" font-size="10.00">generate</text>
</a>
</g>
</g>
<!-- Node2&#45;&gt;Node3 -->
<g id="edge2" class="edge"><title>Node2&#45;&gt;Node3</title>
<path fill="none" stroke="midnightblue" d="M335.274,-160.438C347.349,-160.193 359.316,-159.95 369.877,-159.735"/>
<polygon fill="midnightblue" stroke="midnightblue" points="369.994,-163.233 379.921,-159.53 369.851,-156.235 369.994,-163.233"/>
</g>
<!-- Node4 -->
<g id="node4" class="node"><title>Node4</title>
<g id="a_node4"><a xlink:href="classatwork__commander_1_1Control.html#a0be93e60d9410ceaad5af2bc7a62c771" target="_top" xlink:title="Command to generate a new Task on the RefBox. ">
<polygon fill="none" stroke="black" points="470,-139 470,-169 610,-169 610,-139 470,-139"/>
<text text-anchor="start" x="478" y="-157" font-family="Helvetica,sans-Serif" font-size="10.00">atwork_commander::Control</text>
<text text-anchor="middle" x="540" y="-146" font-family="Helvetica,sans-Serif" font-size="10.00">::generate</text>
</a>
</g>
</g>
<!-- Node3&#45;&gt;Node4 -->
<g id="edge3" class="edge"><title>Node3&#45;&gt;Node4</title>
<path fill="none" stroke="midnightblue" d="M434.195,-158C441.872,-157.707 450.691,-157.371 459.885,-157.02"/>
<polygon fill="midnightblue" stroke="midnightblue" points="460.113,-160.514 469.972,-156.635 459.846,-153.519 460.113,-160.514"/>
</g>
<!-- Node5 -->
<g id="node5" class="node"><title>Node5</title>
<g id="a_node5"><a xlink:href="classatwork__commander_1_1ControlImpl.html#aa442ba265143eca7295803670ef72f3d" target="_top" xlink:title="atwork_commander::Control\lImpl::generate">
<polygon fill="none" stroke="black" points="646,-138 646,-168 786,-168 786,-138 646,-138"/>
<text text-anchor="start" x="654" y="-156" font-family="Helvetica,sans-Serif" font-size="10.00">atwork_commander::Control</text>
<text text-anchor="middle" x="716" y="-145" font-family="Helvetica,sans-Serif" font-size="10.00">Impl::generate</text>
</a>
</g>
</g>
<!-- Node4&#45;&gt;Node5 -->
<g id="edge4" class="edge"><title>Node4&#45;&gt;Node5</title>
<path fill="none" stroke="midnightblue" d="M610.019,-153.603C618.476,-153.555 627.169,-153.505 635.761,-153.455"/>
<polygon fill="midnightblue" stroke="midnightblue" points="635.8,-156.955 645.779,-153.398 635.759,-149.955 635.8,-156.955"/>
</g>
<!-- Node6 -->
<g id="node6" class="node"><title>Node6</title>
<g id="a_node6"><a xlink:href="namespaceatwork__commander.html#a144d24cd0805258cbfd6f8cb8795feca" target="_top" xlink:title="atwork_commander::call">
<polygon fill="none" stroke="black" points="830.5,-140.5 830.5,-159.5 953.5,-159.5 953.5,-140.5 830.5,-140.5"/>
<text text-anchor="middle" x="892" y="-147.5" font-family="Helvetica,sans-Serif" font-size="10.00">atwork_commander::call</text>
</a>
</g>
</g>
<!-- Node5&#45;&gt;Node6 -->
<g id="edge5" class="edge"><title>Node5&#45;&gt;Node6</title>
<path fill="none" stroke="midnightblue" d="M786.019,-151.81C797.207,-151.617 808.809,-151.417 820.041,-151.223"/>
<polygon fill="midnightblue" stroke="midnightblue" points="820.292,-154.72 830.23,-151.048 820.171,-147.721 820.292,-154.72"/>
</g>
<!-- Node10 -->
<g id="node10" class="node"><title>Node10</title>
<g id="a_node10"><a xlink:href="control__node_8cpp.html#a92904aa73140a9bcbc31b3f01cbc1b91" target="_top" xlink:title="start">
<polygon fill="none" stroke="black" points="389,-48.5 389,-67.5 425,-67.5 425,-48.5 389,-48.5"/>
<text text-anchor="middle" x="407" y="-55.5" font-family="Helvetica,sans-Serif" font-size="10.00">start</text>
</a>
</g>
</g>
<!-- Node9&#45;&gt;Node10 -->
<g id="edge9" class="edge"><title>Node9&#45;&gt;Node10</title>
<path fill="none" stroke="midnightblue" d="M326.206,-52.5903C344.854,-53.8545 364.021,-55.154 378.895,-56.1624"/>
<polygon fill="midnightblue" stroke="midnightblue" points="378.684,-59.656 388.897,-56.8405 379.157,-52.672 378.684,-59.656"/>
</g>
<!-- Node11 -->
<g id="node11" class="node"><title>Node11</title>
<g id="a_node11"><a xlink:href="classatwork__commander_1_1Control.html#a03d7ab8dde7ac8c41b29a9480b013ed6" target="_top" xlink:title="Command to start the current Task of the RefBox. ">
<polygon fill="none" stroke="black" points="470,-46 470,-76 610,-76 610,-46 470,-46"/>
<text text-anchor="start" x="478" y="-64" font-family="Helvetica,sans-Serif" font-size="10.00">atwork_commander::Control</text>
<text text-anchor="middle" x="540" y="-53" font-family="Helvetica,sans-Serif" font-size="10.00">::start</text>
</a>
</g>
</g>
<!-- Node10&#45;&gt;Node11 -->
<g id="edge10" class="edge"><title>Node10&#45;&gt;Node11</title>
<path fill="none" stroke="midnightblue" d="M425.126,-58.3922C434.466,-58.6061 446.771,-58.8879 459.835,-59.1871"/>
<polygon fill="midnightblue" stroke="midnightblue" points="459.859,-62.6884 469.937,-59.4184 460.019,-55.6903 459.859,-62.6884"/>
</g>
<!-- Node12 -->
<g id="node12" class="node"><title>Node12</title>
<g id="a_node12"><a xlink:href="classatwork__commander_1_1ControlImpl.html#a61e7adc72e3d1ae5f8ba7099e7ea1a58" target="_top" xlink:title="atwork_commander::Control\lImpl::start">
<polygon fill="none" stroke="black" points="646,-52 646,-82 786,-82 786,-52 646,-52"/>
<text text-anchor="start" x="654" y="-70" font-family="Helvetica,sans-Serif" font-size="10.00">atwork_commander::Control</text>
<text text-anchor="middle" x="716" y="-59" font-family="Helvetica,sans-Serif" font-size="10.00">Impl::start</text>
</a>
</g>
</g>
<!-- Node11&#45;&gt;Node12 -->
<g id="edge11" class="edge"><title>Node11&#45;&gt;Node12</title>
<path fill="none" stroke="midnightblue" d="M610.019,-63.38C618.476,-63.6716 627.169,-63.9713 635.761,-64.2676"/>
<polygon fill="midnightblue" stroke="midnightblue" points="635.665,-67.7663 645.779,-64.6131 635.906,-60.7704 635.665,-67.7663"/>
</g>
<!-- Node12&#45;&gt;Node6 -->
<g id="edge14" class="edge"><title>Node12&#45;&gt;Node6</title>
<path fill="none" stroke="midnightblue" d="M746.726,-82.093C767.672,-92.6366 796.43,-106.93 822,-119 834.247,-124.781 847.824,-130.935 859.672,-136.224"/>
<polygon fill="midnightblue" stroke="midnightblue" points="858.591,-139.573 869.15,-140.435 861.433,-133.176 858.591,-139.573"/>
</g>
<!-- Node13 -->
<g id="node13" class="node"><title>Node13</title>
<g id="a_node13"><a xlink:href="classatwork__commander_1_1ControlError.html#aa8e0a508d07409af6b9ccc3f2b04862c" target="_top" xlink:title="Constructor taking the error description. ">
<polygon fill="none" stroke="black" points="822,-79 822,-109 962,-109 962,-79 822,-79"/>
<text text-anchor="start" x="830" y="-97" font-family="Helvetica,sans-Serif" font-size="10.00">atwork_commander::Control</text>
<text text-anchor="middle" x="892" y="-86" font-family="Helvetica,sans-Serif" font-size="10.00">Error::ControlError</text>
</a>
</g>
</g>
<!-- Node12&#45;&gt;Node13 -->
<g id="edge12" class="edge"><title>Node12&#45;&gt;Node13</title>
<path fill="none" stroke="midnightblue" d="M786.019,-77.7099C794.476,-79.0221 803.169,-80.3711 811.761,-81.7042"/>
<polygon fill="midnightblue" stroke="midnightblue" points="811.361,-85.184 821.779,-83.2589 812.434,-78.2668 811.361,-85.184"/>
</g>
<!-- Node14 -->
<g id="node14" class="node"><title>Node14</title>
<g id="a_node14"><a xlink:href="namespaceatwork__commander__msgs.html#a9ecf5e83b56ed832452324374f4ec311" target="_top" xlink:title="atwork_commander_msgs\l::stateName">
<polygon fill="none" stroke="black" points="826.5,-30 826.5,-60 957.5,-60 957.5,-30 826.5,-30"/>
<text text-anchor="start" x="834.5" y="-48" font-family="Helvetica,sans-Serif" font-size="10.00">atwork_commander_msgs</text>
<text text-anchor="middle" x="892" y="-37" font-family="Helvetica,sans-Serif" font-size="10.00">::stateName</text>
</a>
</g>
</g>
<!-- Node12&#45;&gt;Node14 -->
<g id="edge13" class="edge"><title>Node12&#45;&gt;Node14</title>
<path fill="none" stroke="midnightblue" d="M786.019,-58.2734C795.982,-57.0138 806.274,-55.7125 816.34,-54.4398"/>
<polygon fill="midnightblue" stroke="midnightblue" points="816.829,-57.9059 826.311,-53.179 815.951,-50.9612 816.829,-57.9059"/>
</g>
</g>
</svg>
        <g id="navigator" transform="translate(0 0)" fill="#404254">
                <rect fill="#f2f5e9" fill-opacity="0.5" stroke="#606060" stroke-width=".5" x="0" y="0" width="60" height="60"/>
                <use id="zoomplus" xlink:href="#zoomPlus" x="17" y="9" onmousedown="handleZoom(evt,'in')"/>
                <use id="zoomminus" xlink:href="#zoomMin" x="42" y="9" onmousedown="handleZoom(evt,'out')"/>
                <use id="reset" xlink:href="#resetDef" x="30" y="36" onmousedown="handleReset()"/>
                <g id="arrowUp" xlink:href="#dirArrow" transform="translate(30 24)" onmousedown="handlePan(0,-1)">
                  <use xlink:href="#rim" fill="#404040">
                        <set attributeName="fill" to="#808080" begin="arrowUp.mouseover" end="arrowUp.mouseout"/>
                  </use>
                  <path fill="none" stroke="white" stroke-width="1.5" d="M0,-3.0v7 M-2.5,-0.5L0,-3.0L2.5,-0.5"/>
                </g>
                <g id="arrowRight" xlink:href="#dirArrow" transform="rotate(90) translate(36 -43)" onmousedown="handlePan(1,0)">
                  <use xlink:href="#rim" fill="#404040">
                        <set attributeName="fill" to="#808080" begin="arrowRight.mouseover" end="arrowRight.mouseout"/>
                  </use>
                  <path fill="none" stroke="white" stroke-width="1.5" d="M0,-3.0v7 M-2.5,-0.5L0,-3.0L2.5,-0.5"/>
                </g>
                <g id="arrowDown" xlink:href="#dirArrow" transform="rotate(180) translate(-30 -48)" onmousedown="handlePan(0,1)">
                  <use xlink:href="#rim" fill="#404040">
                        <set attributeName="fill" to="#808080" begin="arrowDown.mouseover" end="arrowDown.mouseout"/>
                  </use>
                  <path fill="none" stroke="white" stroke-width="1.5" d="M0,-3.0v7 M-2.5,-0.5L0,-3.0L2.5,-0.5"/>
                </g>
                <g id="arrowLeft" xlink:href="#dirArrow" transform="rotate(270) translate(-36 17)" onmousedown="handlePan(-1,0)">
                  <use xlink:href="#rim" fill="#404040">
                        <set attributeName="fill" to="#808080" begin="arrowLeft.mouseover" end="arrowLeft.mouseout"/>
                  </use>
                  <path fill="none" stroke="white" stroke-width="1.5" d="M0,-3.0v7 M-2.5,-0.5L0,-3.0L2.5,-0.5"/>
                </g>
        </g>
        <svg viewBox="0 0 15 15" width="100%" height="30px" preserveAspectRatio="xMaxYMin meet">
         <g id="arrow_out" transform="scale(0.3 0.3)">
          <a xlink:href="structRefboxMockBase_a4b3ccf44781edf61e4f6382899fdbf26_cgraph_org.svg" target="_base">
           <rect id="button" ry="5" rx="5" y="6" x="6" height="38" width="38"
                fill="#f2f5e9" fill-opacity="0.5" stroke="#606060" stroke-width="1.0"/>
           <path id="arrow"
             d="M 11.500037,31.436501 C 11.940474,20.09759 22.043105,11.32322 32.158766,21.979434 L 37.068811,17.246167 C 37.068811,17.246167 37.088388,32 37.088388,32 L 22.160133,31.978069 C 22.160133,31.978069 26.997745,27.140456 26.997745,27.140456 C 18.528582,18.264221 13.291696,25.230495 11.500037,31.436501 z"
             style="fill:#404040;"/>
          </a>
         </g>
        </svg>
</svg>
