<?xml version="1.0" encoding="UTF-8" standalone="no"?>
<!DOCTYPE svg PUBLIC "-//W3C//DTD SVG 1.1//EN"
 "http://www.w3.org/Graphics/SVG/1.1/DTD/svg11.dtd">
<!-- Generated by graphviz version 2.38.0 (20140413.2041)
 -->
<!-- Title: atwork_commander::ArenaDescription Pages: 1 -->
<!--zoomable 137 -->
<svg id="main" version="1.1" xmlns="http://www.w3.org/2000/svg" xmlns:xlink="http://www.w3.org/1999/xlink" xml:space="preserve" onload="init(evt)">
<style type="text/css"><![CDATA[
.edge:hover path { stroke: red; }
.edge:hover polygon { stroke: red; fill: red; }
]]></style>
<script type="text/javascript"><![CDATA[
var edges = document.getElementsByTagName('g');
if (edges && edges.length) {
  for (var i=0;i<edges.length;i++) {
    if (edges[i].id.substr(0,4)=='edge') {
      edges[i].setAttribute('class','edge');
    }
  }
}
]]></script>
        <defs>
                <circle id="rim" cx="0" cy="0" r="7"/>
                <circle id="rim2" cx="0" cy="0" r="3.5"/>
                <g id="zoomPlus">
                        <use xlink:href="#rim" fill="#404040">
                                <set attributeName="fill" to="#808080" begin="zoomplus.mouseover" end="zoomplus.mouseout"/>
                        </use>
                        <path d="M-4,0h8M0,-4v8" fill="none" stroke="white" stroke-width="1.5" pointer-events="none"/>
                </g>
                <g id="zoomMin">
                        <use xlink:href="#rim" fill="#404040">
                                <set attributeName="fill" to="#808080" begin="zoomminus.mouseover" end="zoomminus.mouseout"/>
                        </use>
                        <path d="M-4,0h8" fill="none" stroke="white" stroke-width="1.5" pointer-events="none"/>
                </g>
                <g id="dirArrow">
                        <path fill="none" stroke="white" stroke-width="1.5" d="M0,-3.0v7 M-2.5,-0.5L0,-3.0L2.5,-0.5"/>
                </g>
               <g id="resetDef">
                       <use xlink:href="#rim2" fill="#404040">
                               <set attributeName="fill" to="#808080" begin="reset.mouseover" end="reset.mouseout"/>
                       </use>
               </g>
        </defs>

<script type="text/javascript">
var viewWidth = 682;
var viewHeight = 137;
var sectionId = 'dynsection-0';
</script>
<script xlink:href="svgpan.js"/>
<svg id="graph" class="graph">
<g id="viewport">
<title>atwork_commander::ArenaDescription</title>
<!-- Node1 -->
<g id="node1" class="node"><title>Node1</title>
<polygon fill="#bfbfbf" stroke="black" points="491,-49.5 491,-68.5 674,-68.5 674,-49.5 491,-49.5"/>
<text text-anchor="middle" x="582.5" y="-56.5" font-family="Helvetica,sans-Serif" font-size="10.00">atwork_commander::ArenaDescription</text>
</g>
<!-- Node2 -->
<g id="node2" class="node"><title>Node2</title>
<polygon fill="none" stroke="#bfbfbf" points="282,-98 282,-128 385,-128 385,-98 282,-98"/>
<text text-anchor="start" x="290" y="-116" font-family="Helvetica,sans-Serif" font-size="10.00">std::unordered_map</text>
<text text-anchor="middle" x="333.5" y="-105" font-family="Helvetica,sans-Serif" font-size="10.00">&lt; std::string, int &gt;</text>
</g>
<!-- Node2&#45;&gt;Node1 -->
<g id="edge1" class="edge"><title>Node2&#45;&gt;Node1</title>
<path fill="none" stroke="#9a32cd" stroke-dasharray="5,2" d="M395.361,-101.184C419.565,-96.3578 447.638,-90.6005 473,-85 496.359,-79.8417 522.432,-73.6093 543.163,-68.5397"/>
<polygon fill="#9a32cd" stroke="#9a32cd" points="394.371,-97.8124 385.244,-103.193 395.734,-104.678 394.371,-97.8124"/>
<text text-anchor="middle" x="443.5" y="-100" font-family="Helvetica,sans-Serif" font-size="10.00"> objects</text>
</g>
<!-- Node3 -->
<g id="node3" class="node"><title>Node3</title>
<g id="a_node3"><a xlink:title="STL class. ">
<polygon fill="none" stroke="#bfbfbf" points="132,-49.5 132,-68.5 192,-68.5 192,-49.5 132,-49.5"/>
<text text-anchor="middle" x="162" y="-56.5" font-family="Helvetica,sans-Serif" font-size="10.00">std::string</text>
</a>
</g>
</g>
<!-- Node3&#45;&gt;Node2 -->
<g id="edge2" class="edge"><title>Node3&#45;&gt;Node2</title>
<path fill="none" stroke="#9a32cd" stroke-dasharray="5,2" d="M186.429,-73.6498C193.77,-77.7729 202.038,-81.9575 210,-85 232.926,-93.7606 259.359,-100.229 281.79,-104.728"/>
<polygon fill="#9a32cd" stroke="#9a32cd" points="188.118,-70.5829 177.72,-68.5506 184.581,-76.6237 188.118,-70.5829"/>
<text text-anchor="middle" x="231.5" y="-101" font-family="Helvetica,sans-Serif" font-size="10.00"> keys</text>
</g>
<!-- Node5 -->
<g id="node5" class="node"><title>Node5</title>
<polygon fill="none" stroke="#bfbfbf" points="282,-38.5 282,-79.5 385,-79.5 385,-38.5 282,-38.5"/>
<text text-anchor="start" x="290" y="-67.5" font-family="Helvetica,sans-Serif" font-size="10.00">std::unordered_map</text>
<text text-anchor="start" x="290" y="-56.5" font-family="Helvetica,sans-Serif" font-size="10.00">&lt; std::string, std::</text>
<text text-anchor="middle" x="333.5" y="-45.5" font-family="Helvetica,sans-Serif" font-size="10.00">string &gt;</text>
</g>
<!-- Node3&#45;&gt;Node5 -->
<g id="edge5" class="edge"><title>Node3&#45;&gt;Node5</title>
<path fill="none" stroke="#9a32cd" stroke-dasharray="5,2" d="M202.176,-59C225.872,-59 256.335,-59 281.849,-59"/>
<polygon fill="#9a32cd" stroke="#9a32cd" points="202.138,-55.5001 192.138,-59 202.138,-62.5001 202.138,-55.5001"/>
<text text-anchor="middle" x="231.5" y="-73" font-family="Helvetica,sans-Serif" font-size="10.00"> keys</text>
<text text-anchor="middle" x="231.5" y="-62" font-family="Helvetica,sans-Serif" font-size="10.00">elements</text>
</g>
<!-- Node6 -->
<g id="node6" class="node"><title>Node6</title>
<polygon fill="none" stroke="#bfbfbf" points="271,-0.5 271,-19.5 396,-19.5 396,-0.5 271,-0.5"/>
<text text-anchor="middle" x="333.5" y="-7.5" font-family="Helvetica,sans-Serif" font-size="10.00">std::vector&lt; std::string &gt;</text>
</g>
<!-- Node3&#45;&gt;Node6 -->
<g id="edge7" class="edge"><title>Node3&#45;&gt;Node6</title>
<path fill="none" stroke="#9a32cd" stroke-dasharray="5,2" d="M201.621,-46.5445C204.452,-45.6711 207.268,-44.8147 210,-44 239.082,-35.3267 272.263,-26.1619 296.751,-19.5357"/>
<polygon fill="#9a32cd" stroke="#9a32cd" points="200.529,-43.2187 192.029,-49.5443 202.618,-49.8996 200.529,-43.2187"/>
<text text-anchor="middle" x="231.5" y="-47" font-family="Helvetica,sans-Serif" font-size="10.00"> elements</text>
</g>
<!-- Node4 -->
<g id="node4" class="node"><title>Node4</title>
<g id="a_node4"><a xlink:title="STL class. ">
<polygon fill="none" stroke="#bfbfbf" points="0,-44 0,-74 95,-74 95,-44 0,-44"/>
<text text-anchor="start" x="8" y="-62" font-family="Helvetica,sans-Serif" font-size="10.00">std::basic_string&lt;</text>
<text text-anchor="middle" x="47.5" y="-51" font-family="Helvetica,sans-Serif" font-size="10.00"> char &gt;</text>
</a>
</g>
</g>
<!-- Node4&#45;&gt;Node3 -->
<g id="edge3" class="edge"><title>Node4&#45;&gt;Node3</title>
<path fill="none" stroke="midnightblue" d="M105.526,-59C114.678,-59 123.803,-59 131.931,-59"/>
<polygon fill="midnightblue" stroke="midnightblue" points="105.233,-55.5001 95.2328,-59 105.233,-62.5001 105.233,-55.5001"/>
</g>
<!-- Node5&#45;&gt;Node1 -->
<g id="edge4" class="edge"><title>Node5&#45;&gt;Node1</title>
<path fill="none" stroke="#9a32cd" stroke-dasharray="5,2" d="M395.348,-59C424.018,-59 458.815,-59 490.531,-59"/>
<polygon fill="#9a32cd" stroke="#9a32cd" points="395.08,-55.5001 385.08,-59 395.08,-62.5001 395.08,-55.5001"/>
<text text-anchor="middle" x="443.5" y="-73" font-family="Helvetica,sans-Serif" font-size="10.00"> workstations</text>
<text text-anchor="middle" x="443.5" y="-62" font-family="Helvetica,sans-Serif" font-size="10.00">waypoints</text>
</g>
<!-- Node6&#45;&gt;Node1 -->
<g id="edge6" class="edge"><title>Node6&#45;&gt;Node1</title>
<path fill="none" stroke="#9a32cd" stroke-dasharray="5,2" d="M392.42,-21.4901C435.267,-29.9903 492.95,-41.4334 533.295,-49.4371"/>
<polygon fill="#9a32cd" stroke="#9a32cd" points="392.907,-18.0187 382.417,-19.5058 391.545,-24.8849 392.907,-18.0187"/>
<text text-anchor="middle" x="443.5" y="-41" font-family="Helvetica,sans-Serif" font-size="10.00"> cavities</text>
</g>
</g>
</svg>
        <g id="navigator" transform="translate(0 0)" fill="#404254">
                <rect fill="#f2f5e9" fill-opacity="0.5" stroke="#606060" stroke-width=".5" x="0" y="0" width="60" height="60"/>
                <use id="zoomplus" xlink:href="#zoomPlus" x="17" y="9" onmousedown="handleZoom(evt,'in')"/>
                <use id="zoomminus" xlink:href="#zoomMin" x="42" y="9" onmousedown="handleZoom(evt,'out')"/>
                <use id="reset" xlink:href="#resetDef" x="30" y="36" onmousedown="handleReset()"/>
                <g id="arrowUp" xlink:href="#dirArrow" transform="translate(30 24)" onmousedown="handlePan(0,-1)">
                  <use xlink:href="#rim" fill="#404040">
                        <set attributeName="fill" to="#808080" begin="arrowUp.mouseover" end="arrowUp.mouseout"/>
                  </use>
                  <path fill="none" stroke="white" stroke-width="1.5" d="M0,-3.0v7 M-2.5,-0.5L0,-3.0L2.5,-0.5"/>
                </g>
                <g id="arrowRight" xlink:href="#dirArrow" transform="rotate(90) translate(36 -43)" onmousedown="handlePan(1,0)">
                  <use xlink:href="#rim" fill="#404040">
                        <set attributeName="fill" to="#808080" begin="arrowRight.mouseover" end="arrowRight.mouseout"/>
                  </use>
                  <path fill="none" stroke="white" stroke-width="1.5" d="M0,-3.0v7 M-2.5,-0.5L0,-3.0L2.5,-0.5"/>
                </g>
                <g id="arrowDown" xlink:href="#dirArrow" transform="rotate(180) translate(-30 -48)" onmousedown="handlePan(0,1)">
                  <use xlink:href="#rim" fill="#404040">
                        <set attributeName="fill" to="#808080" begin="arrowDown.mouseover" end="arrowDown.mouseout"/>
                  </use>
                  <path fill="none" stroke="white" stroke-width="1.5" d="M0,-3.0v7 M-2.5,-0.5L0,-3.0L2.5,-0.5"/>
                </g>
                <g id="arrowLeft" xlink:href="#dirArrow" transform="rotate(270) translate(-36 17)" onmousedown="handlePan(-1,0)">
                  <use xlink:href="#rim" fill="#404040">
                        <set attributeName="fill" to="#808080" begin="arrowLeft.mouseover" end="arrowLeft.mouseout"/>
                  </use>
                  <path fill="none" stroke="white" stroke-width="1.5" d="M0,-3.0v7 M-2.5,-0.5L0,-3.0L2.5,-0.5"/>
                </g>
        </g>
        <svg viewBox="0 0 15 15" width="100%" height="30px" preserveAspectRatio="xMaxYMin meet">
         <g id="arrow_out" transform="scale(0.3 0.3)">
          <a xlink:href="structatwork__commander_1_1ArenaDescription__coll__graph_org.svg" target="_base">
           <rect id="button" ry="5" rx="5" y="6" x="6" height="38" width="38"
                fill="#f2f5e9" fill-opacity="0.5" stroke="#606060" stroke-width="1.0"/>
           <path id="arrow"
             d="M 11.500037,31.436501 C 11.940474,20.09759 22.043105,11.32322 32.158766,21.979434 L 37.068811,17.246167 C 37.068811,17.246167 37.088388,32 37.088388,32 L 22.160133,31.978069 C 22.160133,31.978069 26.997745,27.140456 26.997745,27.140456 C 18.528582,18.264221 13.291696,25.230495 11.500037,31.436501 z"
             style="fill:#404040;"/>
          </a>
         </g>
        </svg>
</svg>
