<?xml version="1.0" encoding="UTF-8" standalone="no"?>
<!DOCTYPE svg PUBLIC "-//W3C//DTD SVG 1.1//EN"
 "http://www.w3.org/Graphics/SVG/1.1/DTD/svg11.dtd">
<!-- Generated by graphviz version 2.38.0 (20140413.2041)
 -->
<!-- Title: atwork_commander::ObjectBase Pages: 1 -->
<svg width="167pt" height="174pt"
 viewBox="0.00 0.00 167.00 174.00" xmlns="http://www.w3.org/2000/svg" xmlns:xlink="http://www.w3.org/1999/xlink">
<g id="graph0" class="graph" transform="scale(1 1) rotate(0) translate(4 170)">
<title>atwork_commander::ObjectBase</title>
<!-- Node1 -->
<g id="node1" class="node"><title>Node1</title>
<polygon fill="#bfbfbf" stroke="black" points="-1.42109e-14,-0.5 -1.42109e-14,-19.5 159,-19.5 159,-0.5 -1.42109e-14,-0.5"/>
<text text-anchor="middle" x="79.5" y="-7.5" font-family="Helvetica,sans-Serif" font-size="10.00">atwork_commander::ObjectBase</text>
</g>
<!-- Node2 -->
<g id="node2" class="node"><title>Node2</title>
<g id="a_node2"><a xlink:title="STL class. ">
<polygon fill="none" stroke="#bfbfbf" points="49.5,-78.5 49.5,-97.5 109.5,-97.5 109.5,-78.5 49.5,-78.5"/>
<text text-anchor="middle" x="79.5" y="-85.5" font-family="Helvetica,sans-Serif" font-size="10.00">std::string</text>
</a>
</g>
</g>
<!-- Node2&#45;&gt;Node1 -->
<g id="edge1" class="edge"><title>Node2&#45;&gt;Node1</title>
<path fill="none" stroke="#9a32cd" stroke-dasharray="5,2" d="M79.5,-68.2239C79.5,-52.6974 79.5,-31.3582 79.5,-19.6165"/>
<polygon fill="#9a32cd" stroke="#9a32cd" points="76.0001,-68.2818 79.5,-78.2818 83.0001,-68.2819 76.0001,-68.2818"/>
<text text-anchor="middle" x="91" y="-52" font-family="Helvetica,sans-Serif" font-size="10.00"> form</text>
<text text-anchor="middle" x="91" y="-41" font-family="Helvetica,sans-Serif" font-size="10.00">color</text>
</g>
<!-- Node3 -->
<g id="node3" class="node"><title>Node3</title>
<g id="a_node3"><a xlink:title="STL class. ">
<polygon fill="none" stroke="#bfbfbf" points="32,-135.5 32,-165.5 127,-165.5 127,-135.5 32,-135.5"/>
<text text-anchor="start" x="40" y="-153.5" font-family="Helvetica,sans-Serif" font-size="10.00">std::basic_string&lt;</text>
<text text-anchor="middle" x="79.5" y="-142.5" font-family="Helvetica,sans-Serif" font-size="10.00"> char &gt;</text>
</a>
</g>
</g>
<!-- Node3&#45;&gt;Node2 -->
<g id="edge2" class="edge"><title>Node3&#45;&gt;Node2</title>
<path fill="none" stroke="midnightblue" d="M79.5,-125.352C79.5,-115.513 79.5,-104.775 79.5,-97.5399"/>
<polygon fill="midnightblue" stroke="midnightblue" points="76.0001,-125.468 79.5,-135.468 83.0001,-125.468 76.0001,-125.468"/>
</g>
</g>
</svg>
