<?xml version="1.0" encoding="UTF-8" standalone="no"?>
<!DOCTYPE svg PUBLIC "-//W3C//DTD SVG 1.1//EN"
 "http://www.w3.org/Graphics/SVG/1.1/DTD/svg11.dtd">
<!-- Generated by graphviz version 2.38.0 (20140413.2041)
 -->
<!-- Title: ControlTests Pages: 1 -->
<svg width="491pt" height="375pt"
 viewBox="0.00 0.00 491.00 375.00" xmlns="http://www.w3.org/2000/svg" xmlns:xlink="http://www.w3.org/1999/xlink">
<g id="graph0" class="graph" transform="scale(1 1) rotate(0) translate(4 371)">
<title>ControlTests</title>
<!-- Node1 -->
<g id="node1" class="node"><title>Node1</title>
<polygon fill="#bfbfbf" stroke="black" points="201,-0.5 201,-19.5 274,-19.5 274,-0.5 201,-0.5"/>
<text text-anchor="middle" x="237.5" y="-7.5" font-family="Helvetica,sans-Serif" font-size="10.00">ControlTests</text>
</g>
<!-- Node2 -->
<g id="node2" class="node"><title>Node2</title>
<g id="a_node2"><a xlink:href="structatwork__commander_1_1testing_1_1BasicControlTest.html" target="_top" xlink:title="atwork_commander::testing\l::BasicControlTest">
<polygon fill="none" stroke="black" points="91,-67.5 91,-97.5 228,-97.5 228,-67.5 91,-67.5"/>
<text text-anchor="start" x="99" y="-85.5" font-family="Helvetica,sans-Serif" font-size="10.00">atwork_commander::testing</text>
<text text-anchor="middle" x="159.5" y="-74.5" font-family="Helvetica,sans-Serif" font-size="10.00">::BasicControlTest</text>
</a>
</g>
</g>
<!-- Node2&#45;&gt;Node1 -->
<g id="edge1" class="edge"><title>Node2&#45;&gt;Node1</title>
<path fill="none" stroke="midnightblue" d="M182.722,-60.5106C197.711,-46.9628 216.44,-30.0348 227.661,-19.8932"/>
<polygon fill="midnightblue" stroke="midnightblue" points="180.356,-57.9313 175.284,-67.2333 185.05,-63.1244 180.356,-57.9313"/>
</g>
<!-- Node3 -->
<g id="node3" class="node"><title>Node3</title>
<polygon fill="none" stroke="#bfbfbf" points="0,-145.5 0,-164.5 71,-164.5 71,-145.5 0,-145.5"/>
<text text-anchor="middle" x="35.5" y="-152.5" font-family="Helvetica,sans-Serif" font-size="10.00">testing::Test</text>
</g>
<!-- Node3&#45;&gt;Node2 -->
<g id="edge2" class="edge"><title>Node3&#45;&gt;Node2</title>
<path fill="none" stroke="midnightblue" d="M59.5936,-140.302C81.2408,-127.994 112.893,-109.998 134.742,-97.5762"/>
<polygon fill="midnightblue" stroke="midnightblue" points="57.6681,-137.37 50.7048,-145.355 61.1279,-143.455 57.6681,-137.37"/>
</g>
<!-- Node4 -->
<g id="node4" class="node"><title>Node4</title>
<g id="a_node4"><a xlink:href="classatwork__commander_1_1Control.html" target="_top" xlink:title="Interface class to the new RefBox of the @Work League. ">
<polygon fill="none" stroke="black" points="89.5,-145.5 89.5,-164.5 229.5,-164.5 229.5,-145.5 89.5,-145.5"/>
<text text-anchor="middle" x="159.5" y="-152.5" font-family="Helvetica,sans-Serif" font-size="10.00">atwork_commander::Control</text>
</a>
</g>
</g>
<!-- Node4&#45;&gt;Node2 -->
<g id="edge3" class="edge"><title>Node4&#45;&gt;Node2</title>
<path fill="none" stroke="#9a32cd" stroke-dasharray="5,2" d="M159.5,-135.236C159.5,-123.408 159.5,-108.383 159.5,-97.5762"/>
<polygon fill="#9a32cd" stroke="#9a32cd" points="156,-135.355 159.5,-145.355 163,-135.355 156,-135.355"/>
<text text-anchor="middle" x="176" y="-119" font-family="Helvetica,sans-Serif" font-size="10.00"> control</text>
</g>
<!-- Node5 -->
<g id="node5" class="node"><title>Node5</title>
<g id="a_node5"><a xlink:href="classatwork__commander_1_1ControlImpl.html" target="_top" xlink:title="atwork_commander::ControlImpl">
<polygon fill="none" stroke="black" points="57.5,-212.5 57.5,-231.5 215.5,-231.5 215.5,-212.5 57.5,-212.5"/>
<text text-anchor="middle" x="136.5" y="-219.5" font-family="Helvetica,sans-Serif" font-size="10.00">atwork_commander::ControlImpl</text>
</a>
</g>
</g>
<!-- Node5&#45;&gt;Node4 -->
<g id="edge4" class="edge"><title>Node5&#45;&gt;Node4</title>
<path fill="none" stroke="#9a32cd" stroke-dasharray="5,2" d="M142.944,-202.79C147.36,-190.308 153.02,-174.314 156.447,-164.627"/>
<polygon fill="#9a32cd" stroke="#9a32cd" points="139.638,-201.639 139.602,-212.234 146.237,-203.974 139.638,-201.639"/>
<text text-anchor="middle" x="165" y="-186" font-family="Helvetica,sans-Serif" font-size="10.00"> mImpl</text>
</g>
<!-- Node6 -->
<g id="node6" class="node"><title>Node6</title>
<g id="a_node6"><a xlink:title="STL class. ">
<polygon fill="none" stroke="#bfbfbf" points="106.5,-279.5 106.5,-298.5 166.5,-298.5 166.5,-279.5 106.5,-279.5"/>
<text text-anchor="middle" x="136.5" y="-286.5" font-family="Helvetica,sans-Serif" font-size="10.00">std::string</text>
</a>
</g>
</g>
<!-- Node6&#45;&gt;Node5 -->
<g id="edge5" class="edge"><title>Node6&#45;&gt;Node5</title>
<path fill="none" stroke="#9a32cd" stroke-dasharray="5,2" d="M136.5,-269.037C136.5,-256.67 136.5,-241.12 136.5,-231.627"/>
<polygon fill="#9a32cd" stroke="#9a32cd" points="133,-269.234 136.5,-279.234 140,-269.234 133,-269.234"/>
<text text-anchor="middle" x="152" y="-253" font-family="Helvetica,sans-Serif" font-size="10.00"> refbox</text>
</g>
<!-- Node7 -->
<g id="node7" class="node"><title>Node7</title>
<g id="a_node7"><a xlink:title="STL class. ">
<polygon fill="none" stroke="#bfbfbf" points="89,-336.5 89,-366.5 184,-366.5 184,-336.5 89,-336.5"/>
<text text-anchor="start" x="97" y="-354.5" font-family="Helvetica,sans-Serif" font-size="10.00">std::basic_string&lt;</text>
<text text-anchor="middle" x="136.5" y="-343.5" font-family="Helvetica,sans-Serif" font-size="10.00"> char &gt;</text>
</a>
</g>
</g>
<!-- Node7&#45;&gt;Node6 -->
<g id="edge6" class="edge"><title>Node7&#45;&gt;Node6</title>
<path fill="none" stroke="midnightblue" d="M136.5,-326.352C136.5,-316.513 136.5,-305.775 136.5,-298.54"/>
<polygon fill="midnightblue" stroke="midnightblue" points="133,-326.468 136.5,-336.468 140,-326.468 133,-326.468"/>
</g>
<!-- Node8 -->
<g id="node8" class="node"><title>Node8</title>
<polygon fill="none" stroke="#bfbfbf" points="217,-279.5 217,-298.5 288,-298.5 288,-279.5 217,-279.5"/>
<text text-anchor="middle" x="252.5" y="-286.5" font-family="Helvetica,sans-Serif" font-size="10.00">RefboxState</text>
</g>
<!-- Node8&#45;&gt;Node5 -->
<g id="edge7" class="edge"><title>Node8&#45;&gt;Node5</title>
<path fill="none" stroke="#9a32cd" stroke-dasharray="5,2" d="M228.028,-274.287C205.038,-261.405 171.343,-242.524 151.896,-231.627"/>
<polygon fill="#9a32cd" stroke="#9a32cd" points="226.421,-277.399 236.856,-279.234 229.843,-271.292 226.421,-277.399"/>
<text text-anchor="middle" x="214" y="-253" font-family="Helvetica,sans-Serif" font-size="10.00"> state</text>
</g>
<!-- Node11 -->
<g id="node11" class="node"><title>Node11</title>
<g id="a_node11"><a xlink:href="classRefboxMockBase_1_1RefboxWrapper.html" target="_top" xlink:title="RefboxMockBase::RefboxWrapper">
<polygon fill="none" stroke="black" points="233,-212.5 233,-231.5 402,-231.5 402,-212.5 233,-212.5"/>
<text text-anchor="middle" x="317.5" y="-219.5" font-family="Helvetica,sans-Serif" font-size="10.00">RefboxMockBase::RefboxWrapper</text>
</a>
</g>
</g>
<!-- Node8&#45;&gt;Node11 -->
<g id="edge11" class="edge"><title>Node8&#45;&gt;Node11</title>
<path fill="none" stroke="#9a32cd" stroke-dasharray="5,2" d="M268.503,-271.997C281.25,-259.25 298.605,-241.895 308.873,-231.627"/>
<polygon fill="#9a32cd" stroke="#9a32cd" points="265.862,-269.688 261.266,-279.234 270.812,-274.638 265.862,-269.688"/>
<text text-anchor="middle" x="307" y="-253" font-family="Helvetica,sans-Serif" font-size="10.00"> mState</text>
</g>
<!-- Node9 -->
<g id="node9" class="node"><title>Node9</title>
<g id="a_node9"><a xlink:href="structRefboxMock.html" target="_top" xlink:title="RefboxMock">
<polygon fill="none" stroke="black" points="255.5,-73 255.5,-92 327.5,-92 327.5,-73 255.5,-73"/>
<text text-anchor="middle" x="291.5" y="-80" font-family="Helvetica,sans-Serif" font-size="10.00">RefboxMock</text>
</a>
</g>
</g>
<!-- Node9&#45;&gt;Node1 -->
<g id="edge8" class="edge"><title>Node9&#45;&gt;Node1</title>
<path fill="none" stroke="#9a32cd" stroke-dasharray="5,2" d="M278.783,-64.8971C267.942,-50.7431 252.786,-30.9566 244.176,-19.7154"/>
<polygon fill="#9a32cd" stroke="#9a32cd" points="276.019,-67.0448 284.879,-72.8553 281.576,-62.7882 276.019,-67.0448"/>
<text text-anchor="middle" x="282" y="-41" font-family="Helvetica,sans-Serif" font-size="10.00"> refbox</text>
</g>
<!-- Node10 -->
<g id="node10" class="node"><title>Node10</title>
<g id="a_node10"><a xlink:href="structRefboxMockBase.html" target="_top" xlink:title="RefboxMockBase">
<polygon fill="none" stroke="black" points="270,-145.5 270,-164.5 365,-164.5 365,-145.5 270,-145.5"/>
<text text-anchor="middle" x="317.5" y="-152.5" font-family="Helvetica,sans-Serif" font-size="10.00">RefboxMockBase</text>
</a>
</g>
</g>
<!-- Node10&#45;&gt;Node9 -->
<g id="edge9" class="edge"><title>Node10&#45;&gt;Node9</title>
<path fill="none" stroke="midnightblue" d="M310.777,-135.771C305.611,-121.762 298.703,-103.032 294.714,-92.2154"/>
<polygon fill="midnightblue" stroke="midnightblue" points="307.568,-137.184 314.312,-145.355 314.135,-134.762 307.568,-137.184"/>
</g>
<!-- Node11&#45;&gt;Node10 -->
<g id="edge10" class="edge"><title>Node11&#45;&gt;Node10</title>
<path fill="none" stroke="#9a32cd" stroke-dasharray="5,2" d="M317.5,-202.037C317.5,-189.67 317.5,-174.12 317.5,-164.627"/>
<polygon fill="#9a32cd" stroke="#9a32cd" points="314,-202.234 317.5,-212.234 321,-202.234 314,-202.234"/>
<text text-anchor="middle" x="330" y="-186" font-family="Helvetica,sans-Serif" font-size="10.00"> state</text>
</g>
<!-- Node12 -->
<g id="node12" class="node"><title>Node12</title>
<g id="a_node12"><a xlink:title="STL class. ">
<polygon fill="none" stroke="#bfbfbf" points="420,-212.5 420,-231.5 483,-231.5 483,-212.5 420,-212.5"/>
<text text-anchor="middle" x="451.5" y="-219.5" font-family="Helvetica,sans-Serif" font-size="10.00">std::thread</text>
</a>
</g>
</g>
<!-- Node12&#45;&gt;Node10 -->
<g id="edge12" class="edge"><title>Node12&#45;&gt;Node10</title>
<path fill="none" stroke="#9a32cd" stroke-dasharray="5,2" d="M424.584,-207.944C398.042,-195.069 358.23,-175.757 335.368,-164.667"/>
<polygon fill="#9a32cd" stroke="#9a32cd" points="423.181,-211.153 433.706,-212.369 426.236,-204.855 423.181,-211.153"/>
<text text-anchor="middle" x="402" y="-186" font-family="Helvetica,sans-Serif" font-size="10.00"> run</text>
</g>
</g>
</svg>
