<?xml version="1.0" encoding="UTF-8" standalone="no"?>
<!DOCTYPE svg PUBLIC "-//W3C//DTD SVG 1.1//EN"
 "http://www.w3.org/Graphics/SVG/1.1/DTD/svg11.dtd">
<!-- Generated by graphviz version 2.38.0 (20140413.2041)
 -->
<!-- Title: ControlTests::SetUp Pages: 1 -->
<svg width="1123pt" height="279pt"
 viewBox="0.00 0.00 1123.00 278.50" xmlns="http://www.w3.org/2000/svg" xmlns:xlink="http://www.w3.org/1999/xlink">
<g id="graph0" class="graph" transform="scale(1 1) rotate(0) translate(4 274.5)">
<title>ControlTests::SetUp</title>
<!-- Node1 -->
<g id="node1" class="node"><title>Node1</title>
<polygon fill="#bfbfbf" stroke="black" points="0,-105 0,-124 107,-124 107,-105 0,-105"/>
<text text-anchor="middle" x="53.5" y="-112" font-family="Helvetica,sans-Serif" font-size="10.00">ControlTests::SetUp</text>
</g>
<!-- Node2 -->
<g id="node2" class="node"><title>Node2</title>
<g id="a_node2"><a xlink:href="structRefboxMockBase.html#a4b3ccf44781edf61e4f6382899fdbf26" target="_top" xlink:title="RefboxMockBase::connect">
<polygon fill="none" stroke="black" points="144,-156 144,-175 279,-175 279,-156 144,-156"/>
<text text-anchor="middle" x="211.5" y="-163" font-family="Helvetica,sans-Serif" font-size="10.00">RefboxMockBase::connect</text>
</a>
</g>
</g>
<!-- Node1&#45;&gt;Node2 -->
<g id="edge1" class="edge"><title>Node1&#45;&gt;Node2</title>
<path fill="none" stroke="midnightblue" d="M83.8424,-124.093C108.682,-132.213 144.484,-143.918 171.691,-152.812"/>
<polygon fill="midnightblue" stroke="midnightblue" points="170.697,-156.17 181.289,-155.95 172.872,-149.516 170.697,-156.17"/>
</g>
<!-- Node17 -->
<g id="node17" class="node"><title>Node17</title>
<g id="a_node17"><a xlink:href="structatwork__commander_1_1testing_1_1BasicControlTest.html#a7c61bf7ebe16ebad769123295ffae3f0" target="_top" xlink:title="atwork_commander::testing\l::BasicControlTest::SetUp">
<polygon fill="none" stroke="black" points="143,-49.5 143,-79.5 280,-79.5 280,-49.5 143,-49.5"/>
<text text-anchor="start" x="151" y="-67.5" font-family="Helvetica,sans-Serif" font-size="10.00">atwork_commander::testing</text>
<text text-anchor="middle" x="211.5" y="-56.5" font-family="Helvetica,sans-Serif" font-size="10.00">::BasicControlTest::SetUp</text>
</a>
</g>
</g>
<!-- Node1&#45;&gt;Node17 -->
<g id="edge17" class="edge"><title>Node1&#45;&gt;Node17</title>
<path fill="none" stroke="midnightblue" d="M84.2096,-104.978C103.867,-98.6772 130.271,-90.2145 153.853,-82.6561"/>
<polygon fill="midnightblue" stroke="midnightblue" points="154.96,-85.9767 163.415,-79.5915 152.824,-79.3107 154.96,-85.9767"/>
</g>
<!-- Node3 -->
<g id="node3" class="node"><title>Node3</title>
<g id="a_node3"><a xlink:href="structRefboxMockBase.html#a5732bf17e0bef1b66f566da5f926816c" target="_top" xlink:title="RefboxMockBase::loadTaskCall">
<polygon fill="none" stroke="black" points="327.5,-251 327.5,-270 485.5,-270 485.5,-251 327.5,-251"/>
<text text-anchor="middle" x="406.5" y="-258" font-family="Helvetica,sans-Serif" font-size="10.00">RefboxMockBase::loadTaskCall</text>
</a>
</g>
</g>
<!-- Node2&#45;&gt;Node3 -->
<g id="edge2" class="edge"><title>Node2&#45;&gt;Node3</title>
<path fill="none" stroke="midnightblue" d="M222.433,-175.11C239.864,-191.408 277.754,-224.362 316,-241.5 321.708,-244.058 327.777,-246.278 333.961,-248.204"/>
<polygon fill="midnightblue" stroke="midnightblue" points="333.163,-251.616 343.739,-250.996 335.084,-244.885 333.163,-251.616"/>
</g>
<!-- Node4 -->
<g id="node4" class="node"><title>Node4</title>
<g id="a_node4"><a xlink:href="structRefboxMockBase.html#a6ba2f6e52a598f161b442d094dcbce4a" target="_top" xlink:title="RefboxMockBase::stateChangeCall">
<polygon fill="none" stroke="black" points="320,-213 320,-232 493,-232 493,-213 320,-213"/>
<text text-anchor="middle" x="406.5" y="-220" font-family="Helvetica,sans-Serif" font-size="10.00">RefboxMockBase::stateChangeCall</text>
</a>
</g>
</g>
<!-- Node2&#45;&gt;Node4 -->
<g id="edge3" class="edge"><title>Node2&#45;&gt;Node4</title>
<path fill="none" stroke="midnightblue" d="M235.615,-175.067C256.385,-183.402 287.858,-195.392 316,-203.5 325.176,-206.144 334.978,-208.594 344.606,-210.795"/>
<polygon fill="midnightblue" stroke="midnightblue" points="344.022,-214.25 354.543,-212.997 345.537,-207.416 344.022,-214.25"/>
</g>
<!-- Node5 -->
<g id="node5" class="node"><title>Node5</title>
<g id="a_node5"><a xlink:href="structRefboxMockBase.html#a7e9673745c84952c97ebff920f58693b" target="_top" xlink:title="RefboxMockBase::startCall">
<polygon fill="none" stroke="black" points="338,-175 338,-194 475,-194 475,-175 338,-175"/>
<text text-anchor="middle" x="406.5" y="-182" font-family="Helvetica,sans-Serif" font-size="10.00">RefboxMockBase::startCall</text>
</a>
</g>
</g>
<!-- Node2&#45;&gt;Node5 -->
<g id="edge4" class="edge"><title>Node2&#45;&gt;Node5</title>
<path fill="none" stroke="midnightblue" d="M279.19,-172.065C294.742,-173.596 311.439,-175.24 327.434,-176.815"/>
<polygon fill="midnightblue" stroke="midnightblue" points="327.531,-180.341 337.825,-177.838 328.216,-173.375 327.531,-180.341"/>
</g>
<!-- Node12 -->
<g id="node12" class="node"><title>Node12</title>
<g id="a_node12"><a xlink:href="structRefboxMockBase.html#a853adab4d4ebd43316656b9228d85b6d" target="_top" xlink:title="RefboxMockBase::generateCall">
<polygon fill="none" stroke="black" points="329,-137 329,-156 484,-156 484,-137 329,-137"/>
<text text-anchor="middle" x="406.5" y="-144" font-family="Helvetica,sans-Serif" font-size="10.00">RefboxMockBase::generateCall</text>
</a>
</g>
</g>
<!-- Node2&#45;&gt;Node12 -->
<g id="edge11" class="edge"><title>Node2&#45;&gt;Node12</title>
<path fill="none" stroke="midnightblue" d="M279.19,-158.935C291.953,-157.678 305.488,-156.346 318.773,-155.038"/>
<polygon fill="midnightblue" stroke="midnightblue" points="319.258,-158.507 328.867,-154.044 318.572,-151.541 319.258,-158.507"/>
</g>
<!-- Node16 -->
<g id="node16" class="node"><title>Node16</title>
<g id="a_node16"><a xlink:href="structRefboxMockBase.html#a953ca9650012845aa27ad00f2216f667" target="_top" xlink:title="RefboxMockBase::periodic">
<polygon fill="none" stroke="black" points="339.5,-99 339.5,-118 473.5,-118 473.5,-99 339.5,-99"/>
<text text-anchor="middle" x="406.5" y="-106" font-family="Helvetica,sans-Serif" font-size="10.00">RefboxMockBase::periodic</text>
</a>
</g>
</g>
<!-- Node2&#45;&gt;Node16 -->
<g id="edge16" class="edge"><title>Node2&#45;&gt;Node16</title>
<path fill="none" stroke="midnightblue" d="M235.615,-155.933C256.385,-147.598 287.858,-135.608 316,-127.5 325.176,-124.856 334.978,-122.406 344.606,-120.205"/>
<polygon fill="midnightblue" stroke="midnightblue" points="345.537,-123.584 354.543,-118.003 344.022,-116.75 345.537,-123.584"/>
</g>
<!-- Node6 -->
<g id="node6" class="node"><title>Node6</title>
<g id="a_node6"><a xlink:href="control__node_8cpp.html#a92904aa73140a9bcbc31b3f01cbc1b91" target="_top" xlink:title="start">
<polygon fill="none" stroke="black" points="542,-175 542,-194 578,-194 578,-175 542,-175"/>
<text text-anchor="middle" x="560" y="-182" font-family="Helvetica,sans-Serif" font-size="10.00">start</text>
</a>
</g>
</g>
<!-- Node5&#45;&gt;Node6 -->
<g id="edge5" class="edge"><title>Node5&#45;&gt;Node6</title>
<path fill="none" stroke="midnightblue" d="M475.274,-184.5C495.246,-184.5 515.966,-184.5 531.797,-184.5"/>
<polygon fill="midnightblue" stroke="midnightblue" points="531.906,-188 541.906,-184.5 531.906,-181 531.906,-188"/>
</g>
<!-- Node7 -->
<g id="node7" class="node"><title>Node7</title>
<g id="a_node7"><a xlink:href="classatwork__commander_1_1Control.html#a03d7ab8dde7ac8c41b29a9480b013ed6" target="_top" xlink:title="Command to start the current Task of the RefBox. ">
<polygon fill="none" stroke="black" points="623,-172.5 623,-202.5 763,-202.5 763,-172.5 623,-172.5"/>
<text text-anchor="start" x="631" y="-190.5" font-family="Helvetica,sans-Serif" font-size="10.00">atwork_commander::Control</text>
<text text-anchor="middle" x="693" y="-179.5" font-family="Helvetica,sans-Serif" font-size="10.00">::start</text>
</a>
</g>
</g>
<!-- Node6&#45;&gt;Node7 -->
<g id="edge6" class="edge"><title>Node6&#45;&gt;Node7</title>
<path fill="none" stroke="midnightblue" d="M578.126,-184.892C587.466,-185.106 599.771,-185.388 612.835,-185.687"/>
<polygon fill="midnightblue" stroke="midnightblue" points="612.859,-189.188 622.937,-185.918 613.019,-182.19 612.859,-189.188"/>
</g>
<!-- Node8 -->
<g id="node8" class="node"><title>Node8</title>
<g id="a_node8"><a xlink:href="classatwork__commander_1_1ControlImpl.html#a61e7adc72e3d1ae5f8ba7099e7ea1a58" target="_top" xlink:title="atwork_commander::Control\lImpl::start">
<polygon fill="none" stroke="black" points="799,-172.5 799,-202.5 939,-202.5 939,-172.5 799,-172.5"/>
<text text-anchor="start" x="807" y="-190.5" font-family="Helvetica,sans-Serif" font-size="10.00">atwork_commander::Control</text>
<text text-anchor="middle" x="869" y="-179.5" font-family="Helvetica,sans-Serif" font-size="10.00">Impl::start</text>
</a>
</g>
</g>
<!-- Node7&#45;&gt;Node8 -->
<g id="edge7" class="edge"><title>Node7&#45;&gt;Node8</title>
<path fill="none" stroke="midnightblue" d="M763.019,-187.5C771.476,-187.5 780.169,-187.5 788.761,-187.5"/>
<polygon fill="midnightblue" stroke="midnightblue" points="788.78,-191 798.779,-187.5 788.779,-184 788.78,-191"/>
</g>
<!-- Node9 -->
<g id="node9" class="node"><title>Node9</title>
<g id="a_node9"><a xlink:href="classatwork__commander_1_1ControlError.html#aa8e0a508d07409af6b9ccc3f2b04862c" target="_top" xlink:title="Constructor taking the error description. ">
<polygon fill="none" stroke="black" points="975,-219.5 975,-249.5 1115,-249.5 1115,-219.5 975,-219.5"/>
<text text-anchor="start" x="983" y="-237.5" font-family="Helvetica,sans-Serif" font-size="10.00">atwork_commander::Control</text>
<text text-anchor="middle" x="1045" y="-226.5" font-family="Helvetica,sans-Serif" font-size="10.00">Error::ControlError</text>
</a>
</g>
</g>
<!-- Node8&#45;&gt;Node9 -->
<g id="edge8" class="edge"><title>Node8&#45;&gt;Node9</title>
<path fill="none" stroke="midnightblue" d="M925.533,-202.5C942.327,-207.037 960.93,-212.061 978.321,-216.759"/>
<polygon fill="midnightblue" stroke="midnightblue" points="977.831,-220.252 988.398,-219.481 979.656,-213.494 977.831,-220.252"/>
</g>
<!-- Node10 -->
<g id="node10" class="node"><title>Node10</title>
<g id="a_node10"><a xlink:href="namespaceatwork__commander__msgs.html#a9ecf5e83b56ed832452324374f4ec311" target="_top" xlink:title="atwork_commander_msgs\l::stateName">
<polygon fill="none" stroke="black" points="979.5,-170.5 979.5,-200.5 1110.5,-200.5 1110.5,-170.5 979.5,-170.5"/>
<text text-anchor="start" x="987.5" y="-188.5" font-family="Helvetica,sans-Serif" font-size="10.00">atwork_commander_msgs</text>
<text text-anchor="middle" x="1045" y="-177.5" font-family="Helvetica,sans-Serif" font-size="10.00">::stateName</text>
</a>
</g>
</g>
<!-- Node8&#45;&gt;Node10 -->
<g id="edge9" class="edge"><title>Node8&#45;&gt;Node10</title>
<path fill="none" stroke="midnightblue" d="M939.019,-186.707C948.878,-186.593 959.059,-186.476 969.025,-186.362"/>
<polygon fill="midnightblue" stroke="midnightblue" points="969.352,-189.858 979.311,-186.244 969.272,-182.859 969.352,-189.858"/>
</g>
<!-- Node11 -->
<g id="node11" class="node"><title>Node11</title>
<g id="a_node11"><a xlink:href="namespaceatwork__commander.html#a144d24cd0805258cbfd6f8cb8795feca" target="_top" xlink:title="atwork_commander::call">
<polygon fill="none" stroke="black" points="983.5,-131 983.5,-150 1106.5,-150 1106.5,-131 983.5,-131"/>
<text text-anchor="middle" x="1045" y="-138" font-family="Helvetica,sans-Serif" font-size="10.00">atwork_commander::call</text>
</a>
</g>
</g>
<!-- Node8&#45;&gt;Node11 -->
<g id="edge10" class="edge"><title>Node8&#45;&gt;Node11</title>
<path fill="none" stroke="midnightblue" d="M925.533,-172.5C949.165,-166.116 976.377,-158.766 998.757,-152.721"/>
<polygon fill="midnightblue" stroke="midnightblue" points="999.928,-156.03 1008.67,-150.043 998.102,-149.272 999.928,-156.03"/>
</g>
<!-- Node13 -->
<g id="node13" class="node"><title>Node13</title>
<g id="a_node13"><a xlink:href="control__node_8cpp.html#ae7f1525a6480d4cc745dc300c883f55e" target="_top" xlink:title="generate">
<polygon fill="none" stroke="black" points="533,-132 533,-151 587,-151 587,-132 533,-132"/>
<text text-anchor="middle" x="560" y="-139" font-family="Helvetica,sans-Serif" font-size="10.00">generate</text>
</a>
</g>
</g>
<!-- Node12&#45;&gt;Node13 -->
<g id="edge12" class="edge"><title>Node12&#45;&gt;Node13</title>
<path fill="none" stroke="midnightblue" d="M484.138,-143.971C497.623,-143.526 511.072,-143.082 522.773,-142.696"/>
<polygon fill="midnightblue" stroke="midnightblue" points="523.099,-146.187 532.978,-142.359 522.868,-139.191 523.099,-146.187"/>
</g>
<!-- Node14 -->
<g id="node14" class="node"><title>Node14</title>
<g id="a_node14"><a xlink:href="classatwork__commander_1_1Control.html#a0be93e60d9410ceaad5af2bc7a62c771" target="_top" xlink:title="Command to generate a new Task on the RefBox. ">
<polygon fill="none" stroke="black" points="623,-123.5 623,-153.5 763,-153.5 763,-123.5 623,-123.5"/>
<text text-anchor="start" x="631" y="-141.5" font-family="Helvetica,sans-Serif" font-size="10.00">atwork_commander::Control</text>
<text text-anchor="middle" x="693" y="-130.5" font-family="Helvetica,sans-Serif" font-size="10.00">::generate</text>
</a>
</g>
</g>
<!-- Node13&#45;&gt;Node14 -->
<g id="edge13" class="edge"><title>Node13&#45;&gt;Node14</title>
<path fill="none" stroke="midnightblue" d="M587.195,-140.9C594.872,-140.724 603.691,-140.522 612.885,-140.312"/>
<polygon fill="midnightblue" stroke="midnightblue" points="613.055,-143.809 622.972,-140.081 612.895,-136.811 613.055,-143.809"/>
</g>
<!-- Node15 -->
<g id="node15" class="node"><title>Node15</title>
<g id="a_node15"><a xlink:href="classatwork__commander_1_1ControlImpl.html#aa442ba265143eca7295803670ef72f3d" target="_top" xlink:title="atwork_commander::Control\lImpl::generate">
<polygon fill="none" stroke="black" points="799,-123.5 799,-153.5 939,-153.5 939,-123.5 799,-123.5"/>
<text text-anchor="start" x="807" y="-141.5" font-family="Helvetica,sans-Serif" font-size="10.00">atwork_commander::Control</text>
<text text-anchor="middle" x="869" y="-130.5" font-family="Helvetica,sans-Serif" font-size="10.00">Impl::generate</text>
</a>
</g>
</g>
<!-- Node14&#45;&gt;Node15 -->
<g id="edge14" class="edge"><title>Node14&#45;&gt;Node15</title>
<path fill="none" stroke="midnightblue" d="M763.019,-138.5C771.476,-138.5 780.169,-138.5 788.761,-138.5"/>
<polygon fill="midnightblue" stroke="midnightblue" points="788.78,-142 798.779,-138.5 788.779,-135 788.78,-142"/>
</g>
<!-- Node15&#45;&gt;Node11 -->
<g id="edge15" class="edge"><title>Node15&#45;&gt;Node11</title>
<path fill="none" stroke="midnightblue" d="M939.019,-139.293C950.207,-139.422 961.809,-139.555 973.041,-139.684"/>
<polygon fill="midnightblue" stroke="midnightblue" points="973.19,-143.186 983.23,-139.801 973.271,-136.187 973.19,-143.186"/>
</g>
<!-- Node18 -->
<g id="node18" class="node"><title>Node18</title>
<g id="a_node18"><a xlink:href="classatwork__commander_1_1Control.html#a75e872177ff5b6b401103ee4c791a77e" target="_top" xlink:title="Setter of RefBox namespace. ">
<polygon fill="none" stroke="black" points="336.5,-49.5 336.5,-79.5 476.5,-79.5 476.5,-49.5 336.5,-49.5"/>
<text text-anchor="start" x="344.5" y="-67.5" font-family="Helvetica,sans-Serif" font-size="10.00">atwork_commander::Control</text>
<text text-anchor="middle" x="406.5" y="-56.5" font-family="Helvetica,sans-Serif" font-size="10.00">::refbox</text>
</a>
</g>
</g>
<!-- Node17&#45;&gt;Node18 -->
<g id="edge18" class="edge"><title>Node17&#45;&gt;Node18</title>
<path fill="none" stroke="midnightblue" d="M280.002,-64.5C294.983,-64.5 310.991,-64.5 326.389,-64.5"/>
<polygon fill="midnightblue" stroke="midnightblue" points="326.402,-68.0001 336.402,-64.5 326.402,-61.0001 326.402,-68.0001"/>
</g>
<!-- Node19 -->
<g id="node19" class="node"><title>Node19</title>
<g id="a_node19"><a xlink:href="structatwork__commander_1_1testing_1_1BasicControlTest.html#a901a67e292d03c0f675ab9bf97ac6644" target="_top" xlink:title="atwork_commander::testing\l::BasicControlTest::readRefboxName">
<polygon fill="none" stroke="black" points="316,-0.5 316,-30.5 497,-30.5 497,-0.5 316,-0.5"/>
<text text-anchor="start" x="324" y="-18.5" font-family="Helvetica,sans-Serif" font-size="10.00">atwork_commander::testing</text>
<text text-anchor="middle" x="406.5" y="-7.5" font-family="Helvetica,sans-Serif" font-size="10.00">::BasicControlTest::readRefboxName</text>
</a>
</g>
</g>
<!-- Node17&#45;&gt;Node19 -->
<g id="edge19" class="edge"><title>Node17&#45;&gt;Node19</title>
<path fill="none" stroke="midnightblue" d="M271.718,-49.4654C292.189,-44.2682 315.304,-38.3994 336.491,-33.0204"/>
<polygon fill="midnightblue" stroke="midnightblue" points="337.563,-36.3594 346.394,-30.5062 335.84,-29.5747 337.563,-36.3594"/>
</g>
</g>
</svg>
