<?xml version="1.0" encoding="UTF-8" standalone="no"?>
<!DOCTYPE svg PUBLIC "-//W3C//DTD SVG 1.1//EN"
 "http://www.w3.org/Graphics/SVG/1.1/DTD/svg11.dtd">
<!-- Generated by graphviz version 2.38.0 (20140413.2041)
 -->
<!-- Title: atwork_commander::task_generator::Object Pages: 1 -->
<svg width="884pt" height="107pt"
 viewBox="0.00 0.00 884.00 107.33" xmlns="http://www.w3.org/2000/svg" xmlns:xlink="http://www.w3.org/1999/xlink">
<g id="graph0" class="graph" transform="scale(1 1) rotate(0) translate(4 103.331)">
<title>atwork_commander::task_generator::Object</title>
<!-- Node1 -->
<g id="node1" class="node"><title>Node1</title>
<polygon fill="#bfbfbf" stroke="black" points="749,-55.5 749,-85.5 876,-85.5 876,-55.5 749,-55.5"/>
<text text-anchor="start" x="757" y="-73.5" font-family="Helvetica,sans-Serif" font-size="10.00">atwork_commander::task</text>
<text text-anchor="middle" x="812.5" y="-62.5" font-family="Helvetica,sans-Serif" font-size="10.00">_generator::Object</text>
</g>
<!-- Node2 -->
<g id="node2" class="node"><title>Node2</title>
<g id="a_node2"><a xlink:href="structatwork__commander_1_1task__generator_1_1ObjectBase.html" target="_top" xlink:title="atwork_commander::task\l_generator::ObjectBase">
<polygon fill="none" stroke="black" points="253,-55.5 253,-85.5 380,-85.5 380,-55.5 253,-55.5"/>
<text text-anchor="start" x="261" y="-73.5" font-family="Helvetica,sans-Serif" font-size="10.00">atwork_commander::task</text>
<text text-anchor="middle" x="316.5" y="-62.5" font-family="Helvetica,sans-Serif" font-size="10.00">_generator::ObjectBase</text>
</a>
</g>
</g>
<!-- Node2&#45;&gt;Node1 -->
<g id="edge1" class="edge"><title>Node2&#45;&gt;Node1</title>
<path fill="none" stroke="midnightblue" d="M390.316,-83.5097C392.907,-83.8623 395.474,-84.1941 398,-84.5 518.093,-99.0445 549.354,-103.352 670,-94.5 695.968,-92.5946 724.314,-88.2457 748.769,-83.7656"/>
<polygon fill="midnightblue" stroke="midnightblue" points="390.647,-80.0212 380.249,-82.058 389.647,-86.9496 390.647,-80.0212"/>
</g>
<!-- Node6 -->
<g id="node6" class="node"><title>Node6</title>
<g id="a_node6"><a xlink:href="structatwork__commander_1_1task__generator_1_1ObjectType.html" target="_top" xlink:title="atwork_commander::task\l_generator::ObjectType">
<polygon fill="none" stroke="black" points="543,-55.5 543,-85.5 670,-85.5 670,-55.5 543,-55.5"/>
<text text-anchor="start" x="551" y="-73.5" font-family="Helvetica,sans-Serif" font-size="10.00">atwork_commander::task</text>
<text text-anchor="middle" x="606.5" y="-62.5" font-family="Helvetica,sans-Serif" font-size="10.00">_generator::ObjectType</text>
</a>
</g>
</g>
<!-- Node2&#45;&gt;Node6 -->
<g id="edge7" class="edge"><title>Node2&#45;&gt;Node6</title>
<path fill="none" stroke="midnightblue" d="M390.465,-70.5C437.47,-70.5 497.947,-70.5 542.787,-70.5"/>
<polygon fill="midnightblue" stroke="midnightblue" points="390.347,-67.0001 380.347,-70.5 390.347,-74.0001 390.347,-67.0001"/>
</g>
<!-- Node3 -->
<g id="node3" class="node"><title>Node3</title>
<g id="a_node3"><a xlink:title="STL class. ">
<polygon fill="none" stroke="#bfbfbf" points="132,-37 132,-56 192,-56 192,-37 132,-37"/>
<text text-anchor="middle" x="162" y="-44" font-family="Helvetica,sans-Serif" font-size="10.00">std::string</text>
</a>
</g>
</g>
<!-- Node3&#45;&gt;Node2 -->
<g id="edge2" class="edge"><title>Node3&#45;&gt;Node2</title>
<path fill="none" stroke="#9a32cd" stroke-dasharray="5,2" d="M202.229,-52.6738C217.62,-55.096 235.668,-57.9363 252.777,-60.6288"/>
<polygon fill="#9a32cd" stroke="#9a32cd" points="202.466,-49.168 192.043,-51.0707 201.377,-56.0829 202.466,-49.168"/>
<text text-anchor="middle" x="222.5" y="-72.5" font-family="Helvetica,sans-Serif" font-size="10.00"> form</text>
<text text-anchor="middle" x="222.5" y="-61.5" font-family="Helvetica,sans-Serif" font-size="10.00">color</text>
</g>
<!-- Node5 -->
<g id="node5" class="node"><title>Node5</title>
<g id="a_node5"><a xlink:href="structatwork__commander_1_1task__generator_1_1Table.html" target="_top" xlink:title="atwork_commander::task\l_generator::Table">
<polygon fill="none" stroke="black" points="398,-0.5 398,-30.5 525,-30.5 525,-0.5 398,-0.5"/>
<text text-anchor="start" x="406" y="-18.5" font-family="Helvetica,sans-Serif" font-size="10.00">atwork_commander::task</text>
<text text-anchor="middle" x="461.5" y="-7.5" font-family="Helvetica,sans-Serif" font-size="10.00">_generator::Table</text>
</a>
</g>
</g>
<!-- Node3&#45;&gt;Node5 -->
<g id="edge5" class="edge"><title>Node3&#45;&gt;Node5</title>
<path fill="none" stroke="#9a32cd" stroke-dasharray="5,2" d="M193.17,-33.358C198.679,-31.4171 204.444,-29.6773 210,-28.5 272.945,-15.1628 346.674,-12.8904 397.773,-13.3533"/>
<polygon fill="#9a32cd" stroke="#9a32cd" points="191.73,-30.1612 183.63,-36.9906 194.221,-36.703 191.73,-30.1612"/>
<text text-anchor="middle" x="222.5" y="-42.5" font-family="Helvetica,sans-Serif" font-size="10.00"> type</text>
<text text-anchor="middle" x="222.5" y="-31.5" font-family="Helvetica,sans-Serif" font-size="10.00">name</text>
</g>
<!-- Node4 -->
<g id="node4" class="node"><title>Node4</title>
<g id="a_node4"><a xlink:title="STL class. ">
<polygon fill="none" stroke="#bfbfbf" points="0,-31.5 0,-61.5 95,-61.5 95,-31.5 0,-31.5"/>
<text text-anchor="start" x="8" y="-49.5" font-family="Helvetica,sans-Serif" font-size="10.00">std::basic_string&lt;</text>
<text text-anchor="middle" x="47.5" y="-38.5" font-family="Helvetica,sans-Serif" font-size="10.00"> char &gt;</text>
</a>
</g>
</g>
<!-- Node4&#45;&gt;Node3 -->
<g id="edge3" class="edge"><title>Node4&#45;&gt;Node3</title>
<path fill="none" stroke="midnightblue" d="M105.526,-46.5C114.678,-46.5 123.803,-46.5 131.931,-46.5"/>
<polygon fill="midnightblue" stroke="midnightblue" points="105.233,-43.0001 95.2328,-46.5 105.233,-50.0001 105.233,-43.0001"/>
</g>
<!-- Node5&#45;&gt;Node1 -->
<g id="edge4" class="edge"><title>Node5&#45;&gt;Node1</title>
<path fill="none" stroke="#9a32cd" stroke-dasharray="5,2" d="M535.403,-13.3167C575.433,-13.3652 625.785,-15.472 670,-23.5 706.93,-30.2054 747.421,-44.3932 775.591,-55.436"/>
<polygon fill="#9a32cd" stroke="#9a32cd" points="535.184,-9.81724 525.195,-13.3483 535.206,-16.8172 535.184,-9.81724"/>
<text text-anchor="middle" x="606.5" y="-37.5" font-family="Helvetica,sans-Serif" font-size="10.00"> destination</text>
<text text-anchor="middle" x="606.5" y="-26.5" font-family="Helvetica,sans-Serif" font-size="10.00">source</text>
</g>
<!-- Node6&#45;&gt;Node1 -->
<g id="edge6" class="edge"><title>Node6&#45;&gt;Node1</title>
<path fill="none" stroke="#9a32cd" stroke-dasharray="5,2" d="M680.212,-70.5C702.589,-70.5 727.02,-70.5 748.674,-70.5"/>
<polygon fill="#9a32cd" stroke="#9a32cd" points="680.093,-67.0001 670.093,-70.5 680.093,-74.0001 680.093,-67.0001"/>
<text text-anchor="middle" x="709.5" y="-73.5" font-family="Helvetica,sans-Serif" font-size="10.00"> container</text>
</g>
</g>
</svg>
