<?xml version="1.0" encoding="UTF-8" standalone="no"?>
<!DOCTYPE svg PUBLIC "-//W3C//DTD SVG 1.1//EN"
 "http://www.w3.org/Graphics/SVG/1.1/DTD/svg11.dtd">
<!-- Generated by graphviz version 2.38.0 (20140413.2041)
 -->
<!-- Title: atwork_commander::task_generator::jurek::Converter::diff Pages: 1 -->
<svg width="514pt" height="50pt"
 viewBox="0.00 0.00 514.00 50.00" xmlns="http://www.w3.org/2000/svg" xmlns:xlink="http://www.w3.org/1999/xlink">
<g id="graph0" class="graph" transform="scale(1 1) rotate(0) translate(4 46)">
<title>atwork_commander::task_generator::jurek::Converter::diff</title>
<!-- Node1 -->
<g id="node1" class="node"><title>Node1</title>
<polygon fill="#bfbfbf" stroke="black" points="0,-6 0,-36 158,-36 158,-6 0,-6"/>
<text text-anchor="start" x="8" y="-24" font-family="Helvetica,sans-Serif" font-size="10.00">atwork_commander::task</text>
<text text-anchor="middle" x="79" y="-13" font-family="Helvetica,sans-Serif" font-size="10.00">_generator::jurek::Converter::diff</text>
</g>
<!-- Node2 -->
<g id="node2" class="node"><title>Node2</title>
<g id="a_node2"><a xlink:href="classatwork__commander_1_1task__generator_1_1jurek_1_1Generator.html#a70cc89ff444ae7b05324a744e852fd92" target="_top" xlink:title="atwork_commander::task\l_generator::jurek::Generator\l::fromTask">
<polygon fill="none" stroke="black" points="194,-0.5 194,-41.5 332,-41.5 332,-0.5 194,-0.5"/>
<text text-anchor="start" x="202" y="-29.5" font-family="Helvetica,sans-Serif" font-size="10.00">atwork_commander::task</text>
<text text-anchor="start" x="202" y="-18.5" font-family="Helvetica,sans-Serif" font-size="10.00">_generator::jurek::Generator</text>
<text text-anchor="middle" x="263" y="-7.5" font-family="Helvetica,sans-Serif" font-size="10.00">::fromTask</text>
</a>
</g>
</g>
<!-- Node1&#45;&gt;Node2 -->
<g id="edge1" class="edge"><title>Node1&#45;&gt;Node2</title>
<path fill="none" stroke="midnightblue" d="M168.291,-21C176.88,-21 185.502,-21 193.85,-21"/>
<polygon fill="midnightblue" stroke="midnightblue" points="168.241,-17.5001 158.241,-21 168.241,-24.5001 168.241,-17.5001"/>
</g>
<!-- Node3 -->
<g id="node3" class="node"><title>Node3</title>
<g id="a_node3"><a xlink:href="classatwork__commander_1_1task__generator_1_1jurek_1_1Generator.html#a25c39f9ca5492f944c61ed463ba0b36b" target="_top" xlink:title="atwork_commander::task\l_generator::jurek::Generator\l::check">
<polygon fill="none" stroke="black" points="368,-0.5 368,-41.5 506,-41.5 506,-0.5 368,-0.5"/>
<text text-anchor="start" x="376" y="-29.5" font-family="Helvetica,sans-Serif" font-size="10.00">atwork_commander::task</text>
<text text-anchor="start" x="376" y="-18.5" font-family="Helvetica,sans-Serif" font-size="10.00">_generator::jurek::Generator</text>
<text text-anchor="middle" x="437" y="-7.5" font-family="Helvetica,sans-Serif" font-size="10.00">::check</text>
</a>
</g>
</g>
<!-- Node2&#45;&gt;Node3 -->
<g id="edge2" class="edge"><title>Node2&#45;&gt;Node3</title>
<path fill="none" stroke="midnightblue" d="M342.637,-21C351.025,-21 359.508,-21 367.762,-21"/>
<polygon fill="midnightblue" stroke="midnightblue" points="342.473,-17.5001 332.473,-21 342.473,-24.5001 342.473,-17.5001"/>
</g>
</g>
</svg>
