<?xml version="1.0" encoding="UTF-8" standalone="no"?>
<!DOCTYPE svg PUBLIC "-//W3C//DTD SVG 1.1//EN"
 "http://www.w3.org/Graphics/SVG/1.1/DTD/svg11.dtd">
<!-- Generated by graphviz version 2.38.0 (20140413.2041)
 -->
<!-- Title: /home/travis/build/steup/atwork&#45;commander/atwork_commander_gen/src/TaskGenerator.cpp Pages: 1 -->
<svg width="812pt" height="251pt"
 viewBox="0.00 0.00 812.00 251.00" xmlns="http://www.w3.org/2000/svg" xmlns:xlink="http://www.w3.org/1999/xlink">
<g id="graph0" class="graph" transform="scale(1 1) rotate(0) translate(4 247)">
<title>/home/travis/build/steup/atwork&#45;commander/atwork_commander_gen/src/TaskGenerator.cpp</title>
<!-- Node1 -->
<g id="node1" class="node"><title>Node1</title>
<polygon fill="#bfbfbf" stroke="black" points="523,-190.5 523,-242.5 666,-242.5 666,-190.5 523,-190.5"/>
<text text-anchor="start" x="531" y="-230.5" font-family="Helvetica,sans-Serif" font-size="10.00">/home/travis/build</text>
<text text-anchor="start" x="531" y="-219.5" font-family="Helvetica,sans-Serif" font-size="10.00">/steup/atwork&#45;commander</text>
<text text-anchor="start" x="531" y="-208.5" font-family="Helvetica,sans-Serif" font-size="10.00">/atwork_commander_gen/src</text>
<text text-anchor="middle" x="594.5" y="-197.5" font-family="Helvetica,sans-Serif" font-size="10.00">/TaskGenerator.cpp</text>
</g>
<!-- Node2 -->
<g id="node2" class="node"><title>Node2</title>
<g id="a_node2"><a xlink:href="TaskGenerator_8h.html" target="_top" xlink:title="atwork_commander_gen\l/TaskGenerator.h">
<polygon fill="none" stroke="black" points="240,-123.5 240,-153.5 363,-153.5 363,-123.5 240,-123.5"/>
<text text-anchor="start" x="248" y="-141.5" font-family="Helvetica,sans-Serif" font-size="10.00">atwork_commander_gen</text>
<text text-anchor="middle" x="301.5" y="-130.5" font-family="Helvetica,sans-Serif" font-size="10.00">/TaskGenerator.h</text>
</a>
</g>
</g>
<!-- Node1&#45;&gt;Node2 -->
<g id="edge1" class="edge"><title>Node1&#45;&gt;Node2</title>
<path fill="none" stroke="midnightblue" d="M522.824,-196.908C474.842,-184.462 412.221,-168.219 365.838,-156.188"/>
<polygon fill="midnightblue" stroke="midnightblue" points="366.461,-152.734 355.903,-153.611 364.704,-159.51 366.461,-152.734"/>
</g>
<!-- Node11 -->
<g id="node11" class="node"><title>Node11</title>
<g id="a_node11"><a xlink:href="GeneratorPluginInterface_8h.html" target="_top" xlink:title="atwork_commander_gen\l/GeneratorPluginInterface.h">
<polygon fill="none" stroke="black" points="381.5,-123.5 381.5,-153.5 517.5,-153.5 517.5,-123.5 381.5,-123.5"/>
<text text-anchor="start" x="389.5" y="-141.5" font-family="Helvetica,sans-Serif" font-size="10.00">atwork_commander_gen</text>
<text text-anchor="middle" x="449.5" y="-130.5" font-family="Helvetica,sans-Serif" font-size="10.00">/GeneratorPluginInterface.h</text>
</a>
</g>
</g>
<!-- Node1&#45;&gt;Node11 -->
<g id="edge11" class="edge"><title>Node1&#45;&gt;Node11</title>
<path fill="none" stroke="midnightblue" d="M546.62,-190.404C526.719,-179.974 504.011,-168.071 485.559,-158.4"/>
<polygon fill="midnightblue" stroke="midnightblue" points="487.087,-155.249 476.605,-153.707 483.837,-161.449 487.087,-155.249"/>
</g>
<!-- Node12 -->
<g id="node12" class="node"><title>Node12</title>
<polygon fill="none" stroke="#bfbfbf" points="535.5,-129 535.5,-148 653.5,-148 653.5,-129 535.5,-129"/>
<text text-anchor="middle" x="594.5" y="-136" font-family="Helvetica,sans-Serif" font-size="10.00">pluginlib/class_loader.h</text>
</g>
<!-- Node1&#45;&gt;Node12 -->
<g id="edge14" class="edge"><title>Node1&#45;&gt;Node12</title>
<path fill="none" stroke="midnightblue" d="M594.5,-190.193C594.5,-179.765 594.5,-167.896 594.5,-158.266"/>
<polygon fill="midnightblue" stroke="midnightblue" points="598,-158.209 594.5,-148.209 591,-158.209 598,-158.209"/>
</g>
<!-- Node13 -->
<g id="node13" class="node"><title>Node13</title>
<polygon fill="none" stroke="#bfbfbf" points="672,-129 672,-148 727,-148 727,-129 672,-129"/>
<text text-anchor="middle" x="699.5" y="-136" font-family="Helvetica,sans-Serif" font-size="10.00">ros/ros.h</text>
</g>
<!-- Node1&#45;&gt;Node13 -->
<g id="edge15" class="edge"><title>Node1&#45;&gt;Node13</title>
<path fill="none" stroke="midnightblue" d="M629.172,-190.404C645.636,-178.487 664.755,-164.649 678.899,-154.411"/>
<polygon fill="midnightblue" stroke="midnightblue" points="681.349,-156.959 687.398,-148.26 677.245,-151.288 681.349,-156.959"/>
</g>
<!-- Node14 -->
<g id="node14" class="node"><title>Node14</title>
<polygon fill="none" stroke="#bfbfbf" points="745,-129 745,-148 804,-148 804,-129 745,-129"/>
<text text-anchor="middle" x="774.5" y="-136" font-family="Helvetica,sans-Serif" font-size="10.00">stdexcept</text>
</g>
<!-- Node1&#45;&gt;Node14 -->
<g id="edge16" class="edge"><title>Node1&#45;&gt;Node14</title>
<path fill="none" stroke="midnightblue" d="M653.938,-190.404C684.358,-177.56 720.065,-162.484 744.683,-152.089"/>
<polygon fill="midnightblue" stroke="midnightblue" points="746.333,-155.192 754.184,-148.078 743.61,-148.743 746.333,-155.192"/>
</g>
<!-- Node3 -->
<g id="node3" class="node"><title>Node3</title>
<g id="a_node3"><a xlink:href="ConfigParserInterface_8h.html" target="_top" xlink:title="atwork_commander_gen\l/ConfigParserInterface.h">
<polygon fill="none" stroke="black" points="115,-56.5 115,-86.5 238,-86.5 238,-56.5 115,-56.5"/>
<text text-anchor="start" x="123" y="-74.5" font-family="Helvetica,sans-Serif" font-size="10.00">atwork_commander_gen</text>
<text text-anchor="middle" x="176.5" y="-63.5" font-family="Helvetica,sans-Serif" font-size="10.00">/ConfigParserInterface.h</text>
</a>
</g>
</g>
<!-- Node2&#45;&gt;Node3 -->
<g id="edge2" class="edge"><title>Node2&#45;&gt;Node3</title>
<path fill="none" stroke="midnightblue" d="M274.377,-123.396C256.277,-113.984 232.274,-101.503 212.569,-91.2557"/>
<polygon fill="midnightblue" stroke="midnightblue" points="214.057,-88.0848 203.57,-86.5765 210.828,-94.2953 214.057,-88.0848"/>
</g>
<!-- Node6 -->
<g id="node6" class="node"><title>Node6</title>
<polygon fill="none" stroke="#bfbfbf" points="280,-0.5 280,-19.5 321,-19.5 321,-0.5 280,-0.5"/>
<text text-anchor="middle" x="300.5" y="-7.5" font-family="Helvetica,sans-Serif" font-size="10.00">string</text>
</g>
<!-- Node2&#45;&gt;Node6 -->
<g id="edge9" class="edge"><title>Node2&#45;&gt;Node6</title>
<path fill="none" stroke="midnightblue" d="M295.672,-123.198C291.937,-113.237 287.439,-99.5426 285.5,-87 283.395,-73.384 283.293,-69.5999 285.5,-56 286.968,-46.9568 289.992,-37.275 292.944,-29.2176"/>
<polygon fill="midnightblue" stroke="midnightblue" points="296.263,-30.3393 296.644,-19.7514 289.744,-27.7907 296.263,-30.3393"/>
</g>
<!-- Node9 -->
<g id="node9" class="node"><title>Node9</title>
<polygon fill="none" stroke="#bfbfbf" points="365,-56.5 365,-86.5 496,-86.5 496,-56.5 365,-56.5"/>
<text text-anchor="start" x="373" y="-74.5" font-family="Helvetica,sans-Serif" font-size="10.00">atwork_commander_msgs</text>
<text text-anchor="middle" x="430.5" y="-63.5" font-family="Helvetica,sans-Serif" font-size="10.00">/Task.h</text>
</g>
<!-- Node2&#45;&gt;Node9 -->
<g id="edge8" class="edge"><title>Node2&#45;&gt;Node9</title>
<path fill="none" stroke="midnightblue" d="M329.491,-123.396C348.255,-113.941 373.165,-101.39 393.553,-91.1168"/>
<polygon fill="midnightblue" stroke="midnightblue" points="395.208,-94.202 402.564,-86.5765 392.058,-87.9507 395.208,-94.202"/>
</g>
<!-- Node10 -->
<g id="node10" class="node"><title>Node10</title>
<polygon fill="none" stroke="#bfbfbf" points="294.5,-62 294.5,-81 346.5,-81 346.5,-62 294.5,-62"/>
<text text-anchor="middle" x="320.5" y="-69" font-family="Helvetica,sans-Serif" font-size="10.00">memory</text>
</g>
<!-- Node2&#45;&gt;Node10 -->
<g id="edge10" class="edge"><title>Node2&#45;&gt;Node10</title>
<path fill="none" stroke="midnightblue" d="M305.623,-123.396C308.409,-113.863 312.116,-101.182 315.133,-90.8624"/>
<polygon fill="midnightblue" stroke="midnightblue" points="318.512,-91.7749 317.959,-81.1945 311.793,-89.8109 318.512,-91.7749"/>
</g>
<!-- Node4 -->
<g id="node4" class="node"><title>Node4</title>
<polygon fill="none" stroke="#bfbfbf" points="0,-0.5 0,-19.5 83,-19.5 83,-0.5 0,-0.5"/>
<text text-anchor="middle" x="41.5" y="-7.5" font-family="Helvetica,sans-Serif" font-size="10.00">unordered_map</text>
</g>
<!-- Node3&#45;&gt;Node4 -->
<g id="edge3" class="edge"><title>Node3&#45;&gt;Node4</title>
<path fill="none" stroke="midnightblue" d="M144.507,-56.3993C122.058,-46.5054 92.2855,-33.3832 70.5236,-23.7919"/>
<polygon fill="midnightblue" stroke="midnightblue" points="71.7059,-20.4882 61.1437,-19.6578 68.8828,-26.8936 71.7059,-20.4882"/>
</g>
<!-- Node5 -->
<g id="node5" class="node"><title>Node5</title>
<polygon fill="none" stroke="#bfbfbf" points="101,-0.5 101,-19.5 136,-19.5 136,-0.5 101,-0.5"/>
<text text-anchor="middle" x="118.5" y="-7.5" font-family="Helvetica,sans-Serif" font-size="10.00">map</text>
</g>
<!-- Node3&#45;&gt;Node5 -->
<g id="edge4" class="edge"><title>Node3&#45;&gt;Node5</title>
<path fill="none" stroke="midnightblue" d="M162.755,-56.3993C154.153,-47.575 143.048,-36.1827 134.114,-27.0178"/>
<polygon fill="midnightblue" stroke="midnightblue" points="136.426,-24.3755 126.94,-19.6578 131.414,-29.2616 136.426,-24.3755"/>
</g>
<!-- Node3&#45;&gt;Node6 -->
<g id="edge5" class="edge"><title>Node3&#45;&gt;Node6</title>
<path fill="none" stroke="midnightblue" d="M205.886,-56.3993C226.32,-46.5945 253.36,-33.6194 273.299,-24.052"/>
<polygon fill="midnightblue" stroke="midnightblue" points="274.955,-27.1395 282.457,-19.6578 271.927,-20.8284 274.955,-27.1395"/>
</g>
<!-- Node7 -->
<g id="node7" class="node"><title>Node7</title>
<polygon fill="none" stroke="#bfbfbf" points="154,-0.5 154,-19.5 199,-19.5 199,-0.5 154,-0.5"/>
<text text-anchor="middle" x="176.5" y="-7.5" font-family="Helvetica,sans-Serif" font-size="10.00">iosfwd</text>
</g>
<!-- Node3&#45;&gt;Node7 -->
<g id="edge6" class="edge"><title>Node3&#45;&gt;Node7</title>
<path fill="none" stroke="midnightblue" d="M176.5,-56.3993C176.5,-48.4664 176.5,-38.458 176.5,-29.8583"/>
<polygon fill="midnightblue" stroke="midnightblue" points="180,-29.6577 176.5,-19.6578 173,-29.6578 180,-29.6577"/>
</g>
<!-- Node8 -->
<g id="node8" class="node"><title>Node8</title>
<polygon fill="none" stroke="#bfbfbf" points="217.5,-0.5 217.5,-19.5 261.5,-19.5 261.5,-0.5 217.5,-0.5"/>
<text text-anchor="middle" x="239.5" y="-7.5" font-family="Helvetica,sans-Serif" font-size="10.00">vector</text>
</g>
<!-- Node3&#45;&gt;Node8 -->
<g id="edge7" class="edge"><title>Node3&#45;&gt;Node8</title>
<path fill="none" stroke="midnightblue" d="M191.43,-56.3993C200.868,-47.4859 213.08,-35.9523 222.833,-26.7408"/>
<polygon fill="midnightblue" stroke="midnightblue" points="225.466,-29.0686 230.333,-19.6578 220.66,-23.9795 225.466,-29.0686"/>
</g>
<!-- Node11&#45;&gt;Node6 -->
<g id="edge13" class="edge"><title>Node11&#45;&gt;Node6</title>
<path fill="none" stroke="midnightblue" d="M470.499,-123.451C492.812,-106.803 522.569,-78.4886 504.5,-56 483.133,-29.4066 383.011,-17.5974 331.416,-13.2046"/>
<polygon fill="midnightblue" stroke="midnightblue" points="331.439,-9.69504 321.189,-12.3771 330.874,-16.6722 331.439,-9.69504"/>
</g>
<!-- Node11&#45;&gt;Node9 -->
<g id="edge12" class="edge"><title>Node11&#45;&gt;Node9</title>
<path fill="none" stroke="midnightblue" d="M445.377,-123.396C443.062,-115.474 440.111,-105.379 437.449,-96.2712"/>
<polygon fill="midnightblue" stroke="midnightblue" points="440.78,-95.1928 434.615,-86.5765 434.061,-97.1569 440.78,-95.1928"/>
</g>
</g>
</svg>
