<?xml version="1.0" encoding="UTF-8" standalone="no"?>
<!DOCTYPE svg PUBLIC "-//W3C//DTD SVG 1.1//EN"
 "http://www.w3.org/Graphics/SVG/1.1/DTD/svg11.dtd">
<!-- Generated by graphviz version 2.38.0 (20140413.2041)
 -->
<!-- Title: /home/travis/build/steup/atwork&#45;commander/atwork_commander_gui/src/task_viz.h Pages: 1 -->
<svg width="306pt" height="150pt"
 viewBox="0.00 0.00 306.00 150.00" xmlns="http://www.w3.org/2000/svg" xmlns:xlink="http://www.w3.org/1999/xlink">
<g id="graph0" class="graph" transform="scale(1 1) rotate(0) translate(4 146)">
<title>/home/travis/build/steup/atwork&#45;commander/atwork_commander_gui/src/task_viz.h</title>
<!-- Node1 -->
<g id="node1" class="node"><title>Node1</title>
<polygon fill="#bfbfbf" stroke="black" points="79,-89.5 79,-141.5 219,-141.5 219,-89.5 79,-89.5"/>
<text text-anchor="start" x="87" y="-129.5" font-family="Helvetica,sans-Serif" font-size="10.00">/home/travis/build</text>
<text text-anchor="start" x="87" y="-118.5" font-family="Helvetica,sans-Serif" font-size="10.00">/steup/atwork&#45;commander</text>
<text text-anchor="start" x="87" y="-107.5" font-family="Helvetica,sans-Serif" font-size="10.00">/atwork_commander_gui/src</text>
<text text-anchor="middle" x="149" y="-96.5" font-family="Helvetica,sans-Serif" font-size="10.00">/task_viz.h</text>
</g>
<!-- Node2 -->
<g id="node2" class="node"><title>Node2</title>
<g id="a_node2"><a xlink:href="task__viz_8cpp.html" target="_top" xlink:title="/home/travis/build\l/steup/atwork&#45;commander\l/atwork_commander_gui/src\l/task_viz.cpp">
<polygon fill="none" stroke="black" points="0,-0.5 0,-52.5 140,-52.5 140,-0.5 0,-0.5"/>
<text text-anchor="start" x="8" y="-40.5" font-family="Helvetica,sans-Serif" font-size="10.00">/home/travis/build</text>
<text text-anchor="start" x="8" y="-29.5" font-family="Helvetica,sans-Serif" font-size="10.00">/steup/atwork&#45;commander</text>
<text text-anchor="start" x="8" y="-18.5" font-family="Helvetica,sans-Serif" font-size="10.00">/atwork_commander_gui/src</text>
<text text-anchor="middle" x="70" y="-7.5" font-family="Helvetica,sans-Serif" font-size="10.00">/task_viz.cpp</text>
</a>
</g>
</g>
<!-- Node1&#45;&gt;Node2 -->
<g id="edge1" class="edge"><title>Node1&#45;&gt;Node2</title>
<path fill="none" stroke="midnightblue" d="M119.298,-81.79C110.525,-72.1288 101.064,-61.7097 92.7987,-52.6075"/>
<polygon fill="midnightblue" stroke="midnightblue" points="116.836,-84.2856 126.15,-89.336 122.019,-79.5798 116.836,-84.2856"/>
</g>
<!-- Node3 -->
<g id="node3" class="node"><title>Node3</title>
<g id="a_node3"><a xlink:href="task__viz__node_8cpp.html" target="_top" xlink:title="/home/travis/build\l/steup/atwork&#45;commander\l/atwork_commander_gui/src\l/task_viz_node.cpp">
<polygon fill="none" stroke="black" points="158,-0.5 158,-52.5 298,-52.5 298,-0.5 158,-0.5"/>
<text text-anchor="start" x="166" y="-40.5" font-family="Helvetica,sans-Serif" font-size="10.00">/home/travis/build</text>
<text text-anchor="start" x="166" y="-29.5" font-family="Helvetica,sans-Serif" font-size="10.00">/steup/atwork&#45;commander</text>
<text text-anchor="start" x="166" y="-18.5" font-family="Helvetica,sans-Serif" font-size="10.00">/atwork_commander_gui/src</text>
<text text-anchor="middle" x="228" y="-7.5" font-family="Helvetica,sans-Serif" font-size="10.00">/task_viz_node.cpp</text>
</a>
</g>
</g>
<!-- Node1&#45;&gt;Node3 -->
<g id="edge2" class="edge"><title>Node1&#45;&gt;Node3</title>
<path fill="none" stroke="midnightblue" d="M178.702,-81.79C187.475,-72.1288 196.936,-61.7097 205.201,-52.6075"/>
<polygon fill="midnightblue" stroke="midnightblue" points="175.981,-79.5798 171.85,-89.336 181.164,-84.2856 175.981,-79.5798"/>
</g>
</g>
</svg>
