<?xml version="1.0" encoding="UTF-8" standalone="no"?>
<!DOCTYPE svg PUBLIC "-//W3C//DTD SVG 1.1//EN"
 "http://www.w3.org/Graphics/SVG/1.1/DTD/svg11.dtd">
<!-- Generated by graphviz version 2.38.0 (20140413.2041)
 -->
<!-- Title: /home/travis/build/steup/atwork&#45;commander/atwork_commander_gui/src/task_viz_node.cpp Pages: 1 -->
<svg width="212pt" height="184pt"
 viewBox="0.00 0.00 212.00 184.00" xmlns="http://www.w3.org/2000/svg" xmlns:xlink="http://www.w3.org/1999/xlink">
<g id="graph0" class="graph" transform="scale(1 1) rotate(0) translate(4 180)">
<title>/home/travis/build/steup/atwork&#45;commander/atwork_commander_gui/src/task_viz_node.cpp</title>
<!-- Node1 -->
<g id="node1" class="node"><title>Node1</title>
<polygon fill="#bfbfbf" stroke="black" points="12.5,-123.5 12.5,-175.5 152.5,-175.5 152.5,-123.5 12.5,-123.5"/>
<text text-anchor="start" x="20.5" y="-163.5" font-family="Helvetica,sans-Serif" font-size="10.00">/home/travis/build</text>
<text text-anchor="start" x="20.5" y="-152.5" font-family="Helvetica,sans-Serif" font-size="10.00">/steup/atwork&#45;commander</text>
<text text-anchor="start" x="20.5" y="-141.5" font-family="Helvetica,sans-Serif" font-size="10.00">/atwork_commander_gui/src</text>
<text text-anchor="middle" x="82.5" y="-130.5" font-family="Helvetica,sans-Serif" font-size="10.00">/task_viz_node.cpp</text>
</g>
<!-- Node2 -->
<g id="node2" class="node"><title>Node2</title>
<g id="a_node2"><a xlink:href="task__viz_8h.html" target="_top" xlink:title="task_viz.h">
<polygon fill="none" stroke="black" points="51.5,-67.5 51.5,-86.5 113.5,-86.5 113.5,-67.5 51.5,-67.5"/>
<text text-anchor="middle" x="82.5" y="-74.5" font-family="Helvetica,sans-Serif" font-size="10.00">task_viz.h</text>
</a>
</g>
</g>
<!-- Node1&#45;&gt;Node2 -->
<g id="edge1" class="edge"><title>Node1&#45;&gt;Node2</title>
<path fill="none" stroke="midnightblue" d="M82.5,-123.446C82.5,-114.73 82.5,-105.104 82.5,-96.9641"/>
<polygon fill="midnightblue" stroke="midnightblue" points="86.0001,-96.6954 82.5,-86.6955 79.0001,-96.6955 86.0001,-96.6954"/>
</g>
<!-- Node3 -->
<g id="node3" class="node"><title>Node3</title>
<polygon fill="none" stroke="#bfbfbf" points="0,-6 0,-25 55,-25 55,-6 0,-6"/>
<text text-anchor="middle" x="27.5" y="-13" font-family="Helvetica,sans-Serif" font-size="10.00">ros/ros.h</text>
</g>
<!-- Node2&#45;&gt;Node3 -->
<g id="edge2" class="edge"><title>Node2&#45;&gt;Node3</title>
<path fill="none" stroke="midnightblue" d="M74.6198,-67.4751C66.2064,-58.3733 52.6807,-43.741 42.2742,-32.483"/>
<polygon fill="midnightblue" stroke="midnightblue" points="44.7237,-29.9766 35.3655,-25.0091 39.5833,-34.7282 44.7237,-29.9766"/>
</g>
<!-- Node4 -->
<g id="node4" class="node"><title>Node4</title>
<polygon fill="none" stroke="#bfbfbf" points="73,-0.5 73,-30.5 204,-30.5 204,-0.5 73,-0.5"/>
<text text-anchor="start" x="81" y="-18.5" font-family="Helvetica,sans-Serif" font-size="10.00">atwork_commander_msgs</text>
<text text-anchor="middle" x="138.5" y="-7.5" font-family="Helvetica,sans-Serif" font-size="10.00">/Task.h</text>
</g>
<!-- Node2&#45;&gt;Node4 -->
<g id="edge3" class="edge"><title>Node2&#45;&gt;Node4</title>
<path fill="none" stroke="midnightblue" d="M90.5234,-67.4751C97.7534,-59.7932 108.691,-48.1717 118.298,-37.9643"/>
<polygon fill="midnightblue" stroke="midnightblue" points="120.997,-40.2038 125.302,-30.523 115.9,-35.4062 120.997,-40.2038"/>
</g>
</g>
</svg>
