<?xml version="1.0" encoding="UTF-8" standalone="no"?>
<!DOCTYPE svg PUBLIC "-//W3C//DTD SVG 1.1//EN"
 "http://www.w3.org/Graphics/SVG/1.1/DTD/svg11.dtd">
<!-- Generated by graphviz version 2.38.0 (20140413.2041)
 -->
<!-- Title: /home/travis/build/steup/atwork&#45;commander/atwork_commander_gen/include/atwork_commander_gen/TaskGenerator.h Pages: 1 -->
<svg width="491pt" height="150pt"
 viewBox="0.00 0.00 491.00 150.00" xmlns="http://www.w3.org/2000/svg" xmlns:xlink="http://www.w3.org/1999/xlink">
<g id="graph0" class="graph" transform="scale(1 1) rotate(0) translate(4 146)">
<title>/home/travis/build/steup/atwork&#45;commander/atwork_commander_gen/include/atwork_commander_gen/TaskGenerator.h</title>
<!-- Node1 -->
<g id="node1" class="node"><title>Node1</title>
<polygon fill="#bfbfbf" stroke="black" points="149.5,-89.5 149.5,-141.5 351.5,-141.5 351.5,-89.5 149.5,-89.5"/>
<text text-anchor="start" x="157.5" y="-129.5" font-family="Helvetica,sans-Serif" font-size="10.00">/home/travis/build</text>
<text text-anchor="start" x="157.5" y="-118.5" font-family="Helvetica,sans-Serif" font-size="10.00">/steup/atwork&#45;commander</text>
<text text-anchor="start" x="157.5" y="-107.5" font-family="Helvetica,sans-Serif" font-size="10.00">/atwork_commander_gen/include</text>
<text text-anchor="middle" x="250.5" y="-96.5" font-family="Helvetica,sans-Serif" font-size="10.00">/atwork_commander_gen/TaskGenerator.h</text>
</g>
<!-- Node2 -->
<g id="node2" class="node"><title>Node2</title>
<g id="a_node2"><a xlink:href="atwork__refbox__ros__node_8cpp.html" target="_top" xlink:title="/home/travis/build\l/steup/atwork&#45;commander\l/atwork_commander_core\l/src/atwork_refbox_ros_node.cpp">
<polygon fill="none" stroke="black" points="0,-0.5 0,-52.5 161,-52.5 161,-0.5 0,-0.5"/>
<text text-anchor="start" x="8" y="-40.5" font-family="Helvetica,sans-Serif" font-size="10.00">/home/travis/build</text>
<text text-anchor="start" x="8" y="-29.5" font-family="Helvetica,sans-Serif" font-size="10.00">/steup/atwork&#45;commander</text>
<text text-anchor="start" x="8" y="-18.5" font-family="Helvetica,sans-Serif" font-size="10.00">/atwork_commander_core</text>
<text text-anchor="middle" x="80.5" y="-7.5" font-family="Helvetica,sans-Serif" font-size="10.00">/src/atwork_refbox_ros_node.cpp</text>
</a>
</g>
</g>
<!-- Node1&#45;&gt;Node2 -->
<g id="edge1" class="edge"><title>Node1&#45;&gt;Node2</title>
<path fill="none" stroke="midnightblue" d="M192.419,-84.7763C171.967,-74.3094 149.196,-62.656 129.561,-52.6075"/>
<polygon fill="midnightblue" stroke="midnightblue" points="190.832,-87.8959 201.329,-89.336 194.021,-81.6645 190.832,-87.8959"/>
</g>
<!-- Node3 -->
<g id="node3" class="node"><title>Node3</title>
<g id="a_node3"><a xlink:href="ExampleNode_8cpp.html" target="_top" xlink:title="/home/travis/build\l/steup/atwork&#45;commander\l/atwork_commander_gen/src\l/ExampleNode.cpp">
<polygon fill="none" stroke="black" points="179,-0.5 179,-52.5 322,-52.5 322,-0.5 179,-0.5"/>
<text text-anchor="start" x="187" y="-40.5" font-family="Helvetica,sans-Serif" font-size="10.00">/home/travis/build</text>
<text text-anchor="start" x="187" y="-29.5" font-family="Helvetica,sans-Serif" font-size="10.00">/steup/atwork&#45;commander</text>
<text text-anchor="start" x="187" y="-18.5" font-family="Helvetica,sans-Serif" font-size="10.00">/atwork_commander_gen/src</text>
<text text-anchor="middle" x="250.5" y="-7.5" font-family="Helvetica,sans-Serif" font-size="10.00">/ExampleNode.cpp</text>
</a>
</g>
</g>
<!-- Node1&#45;&gt;Node3 -->
<g id="edge2" class="edge"><title>Node1&#45;&gt;Node3</title>
<path fill="none" stroke="midnightblue" d="M250.5,-79.1908C250.5,-70.2824 250.5,-60.8986 250.5,-52.6075"/>
<polygon fill="midnightblue" stroke="midnightblue" points="247,-79.336 250.5,-89.336 254,-79.336 247,-79.336"/>
</g>
<!-- Node4 -->
<g id="node4" class="node"><title>Node4</title>
<g id="a_node4"><a xlink:href="TaskGenerator_8cpp.html" target="_top" xlink:title="/home/travis/build\l/steup/atwork&#45;commander\l/atwork_commander_gen/src\l/TaskGenerator.cpp">
<polygon fill="none" stroke="black" points="340,-0.5 340,-52.5 483,-52.5 483,-0.5 340,-0.5"/>
<text text-anchor="start" x="348" y="-40.5" font-family="Helvetica,sans-Serif" font-size="10.00">/home/travis/build</text>
<text text-anchor="start" x="348" y="-29.5" font-family="Helvetica,sans-Serif" font-size="10.00">/steup/atwork&#45;commander</text>
<text text-anchor="start" x="348" y="-18.5" font-family="Helvetica,sans-Serif" font-size="10.00">/atwork_commander_gen/src</text>
<text text-anchor="middle" x="411.5" y="-7.5" font-family="Helvetica,sans-Serif" font-size="10.00">/TaskGenerator.cpp</text>
</a>
</g>
</g>
<!-- Node1&#45;&gt;Node4 -->
<g id="edge3" class="edge"><title>Node1&#45;&gt;Node4</title>
<path fill="none" stroke="midnightblue" d="M306.028,-84.4944C325.262,-74.1005 346.608,-62.5658 365.037,-52.6075"/>
<polygon fill="midnightblue" stroke="midnightblue" points="304.202,-81.5027 297.068,-89.336 307.529,-87.6611 304.202,-81.5027"/>
</g>
</g>
</svg>
