<?xml version="1.0" encoding="UTF-8" standalone="no"?>
<!DOCTYPE svg PUBLIC "-//W3C//DTD SVG 1.1//EN"
 "http://www.w3.org/Graphics/SVG/1.1/DTD/svg11.dtd">
<!-- Generated by graphviz version 2.38.0 (20140413.2041)
 -->
<!-- Title: /home/travis/build/steup/atwork&#45;commander/atwork_commander_gen/include/atwork_commander_gen/TaskGenerator.h Pages: 1 -->
<svg width="530pt" height="184pt"
 viewBox="0.00 0.00 529.50 184.00" xmlns="http://www.w3.org/2000/svg" xmlns:xlink="http://www.w3.org/1999/xlink">
<g id="graph0" class="graph" transform="scale(1 1) rotate(0) translate(4 180)">
<title>/home/travis/build/steup/atwork&#45;commander/atwork_commander_gen/include/atwork_commander_gen/TaskGenerator.h</title>
<!-- Node1 -->
<g id="node1" class="node"><title>Node1</title>
<polygon fill="#bfbfbf" stroke="black" points="237.5,-123.5 237.5,-175.5 439.5,-175.5 439.5,-123.5 237.5,-123.5"/>
<text text-anchor="start" x="245.5" y="-163.5" font-family="Helvetica,sans-Serif" font-size="10.00">/home/travis/build</text>
<text text-anchor="start" x="245.5" y="-152.5" font-family="Helvetica,sans-Serif" font-size="10.00">/steup/atwork&#45;commander</text>
<text text-anchor="start" x="245.5" y="-141.5" font-family="Helvetica,sans-Serif" font-size="10.00">/atwork_commander_gen/include</text>
<text text-anchor="middle" x="338.5" y="-130.5" font-family="Helvetica,sans-Serif" font-size="10.00">/atwork_commander_gen/TaskGenerator.h</text>
</g>
<!-- Node2 -->
<g id="node2" class="node"><title>Node2</title>
<g id="a_node2"><a xlink:href="ConfigParserInterface_8h.html" target="_top" xlink:title="atwork_commander_gen\l/ConfigParserInterface.h">
<polygon fill="none" stroke="black" points="123,-56.5 123,-86.5 246,-86.5 246,-56.5 123,-56.5"/>
<text text-anchor="start" x="131" y="-74.5" font-family="Helvetica,sans-Serif" font-size="10.00">atwork_commander_gen</text>
<text text-anchor="middle" x="184.5" y="-63.5" font-family="Helvetica,sans-Serif" font-size="10.00">/ConfigParserInterface.h</text>
</a>
</g>
</g>
<!-- Node1&#45;&gt;Node2 -->
<g id="edge1" class="edge"><title>Node1&#45;&gt;Node2</title>
<path fill="none" stroke="midnightblue" d="M287.648,-123.404C266.319,-112.878 241.954,-100.854 222.261,-91.1353"/>
<polygon fill="midnightblue" stroke="midnightblue" points="223.803,-87.9935 213.287,-86.7066 220.705,-94.2707 223.803,-87.9935"/>
</g>
<!-- Node5 -->
<g id="node5" class="node"><title>Node5</title>
<polygon fill="none" stroke="#bfbfbf" points="280,-0.5 280,-19.5 321,-19.5 321,-0.5 280,-0.5"/>
<text text-anchor="middle" x="300.5" y="-7.5" font-family="Helvetica,sans-Serif" font-size="10.00">string</text>
</g>
<!-- Node1&#45;&gt;Node5 -->
<g id="edge8" class="edge"><title>Node1&#45;&gt;Node5</title>
<path fill="none" stroke="midnightblue" d="M325.615,-123.339C320.51,-112.421 315.029,-99.3318 311.5,-87 306.064,-68.0021 303.235,-45.5265 301.817,-29.9686"/>
<polygon fill="midnightblue" stroke="midnightblue" points="305.273,-29.2814 300.987,-19.5921 298.295,-29.8392 305.273,-29.2814"/>
</g>
<!-- Node8 -->
<g id="node8" class="node"><title>Node8</title>
<polygon fill="none" stroke="#bfbfbf" points="320,-56.5 320,-86.5 451,-86.5 451,-56.5 320,-56.5"/>
<text text-anchor="start" x="328" y="-74.5" font-family="Helvetica,sans-Serif" font-size="10.00">atwork_commander_msgs</text>
<text text-anchor="middle" x="385.5" y="-63.5" font-family="Helvetica,sans-Serif" font-size="10.00">/Task.h</text>
</g>
<!-- Node1&#45;&gt;Node8 -->
<g id="edge7" class="edge"><title>Node1&#45;&gt;Node8</title>
<path fill="none" stroke="midnightblue" d="M354.15,-123.193C359.7,-114.22 365.909,-104.179 371.328,-95.4164"/>
<polygon fill="midnightblue" stroke="midnightblue" points="374.346,-97.1912 376.629,-86.8453 368.392,-93.5094 374.346,-97.1912"/>
</g>
<!-- Node9 -->
<g id="node9" class="node"><title>Node9</title>
<polygon fill="none" stroke="#bfbfbf" points="469.5,-62 469.5,-81 521.5,-81 521.5,-62 469.5,-62"/>
<text text-anchor="middle" x="495.5" y="-69" font-family="Helvetica,sans-Serif" font-size="10.00">memory</text>
</g>
<!-- Node1&#45;&gt;Node9 -->
<g id="edge9" class="edge"><title>Node1&#45;&gt;Node9</title>
<path fill="none" stroke="midnightblue" d="M390.343,-123.404C416.523,-110.731 447.191,-95.8852 468.629,-85.5077"/>
<polygon fill="midnightblue" stroke="midnightblue" points="470.304,-88.5854 477.78,-81.0779 467.254,-82.2848 470.304,-88.5854"/>
</g>
<!-- Node3 -->
<g id="node3" class="node"><title>Node3</title>
<polygon fill="none" stroke="#bfbfbf" points="0,-0.5 0,-19.5 83,-19.5 83,-0.5 0,-0.5"/>
<text text-anchor="middle" x="41.5" y="-7.5" font-family="Helvetica,sans-Serif" font-size="10.00">unordered_map</text>
</g>
<!-- Node2&#45;&gt;Node3 -->
<g id="edge2" class="edge"><title>Node2&#45;&gt;Node3</title>
<path fill="none" stroke="midnightblue" d="M150.611,-56.3993C126.618,-46.4163 94.7261,-33.1465 71.6226,-23.5335"/>
<polygon fill="midnightblue" stroke="midnightblue" points="72.885,-20.268 62.3078,-19.6578 70.1959,-26.7308 72.885,-20.268"/>
</g>
<!-- Node4 -->
<g id="node4" class="node"><title>Node4</title>
<polygon fill="none" stroke="#bfbfbf" points="101,-0.5 101,-19.5 136,-19.5 136,-0.5 101,-0.5"/>
<text text-anchor="middle" x="118.5" y="-7.5" font-family="Helvetica,sans-Serif" font-size="10.00">map</text>
</g>
<!-- Node2&#45;&gt;Node4 -->
<g id="edge3" class="edge"><title>Node2&#45;&gt;Node4</title>
<path fill="none" stroke="midnightblue" d="M168.859,-56.3993C158.873,-47.3967 145.922,-35.7214 135.655,-26.4652"/>
<polygon fill="midnightblue" stroke="midnightblue" points="137.875,-23.7541 128.104,-19.6578 133.187,-28.9533 137.875,-23.7541"/>
</g>
<!-- Node2&#45;&gt;Node5 -->
<g id="edge4" class="edge"><title>Node2&#45;&gt;Node5</title>
<path fill="none" stroke="midnightblue" d="M211.99,-56.3993C230.932,-46.6837 255.942,-33.8551 274.544,-24.3137"/>
<polygon fill="midnightblue" stroke="midnightblue" points="276.321,-27.336 283.621,-19.6578 273.126,-21.1076 276.321,-27.336"/>
</g>
<!-- Node6 -->
<g id="node6" class="node"><title>Node6</title>
<polygon fill="none" stroke="#bfbfbf" points="154,-0.5 154,-19.5 199,-19.5 199,-0.5 154,-0.5"/>
<text text-anchor="middle" x="176.5" y="-7.5" font-family="Helvetica,sans-Serif" font-size="10.00">iosfwd</text>
</g>
<!-- Node2&#45;&gt;Node6 -->
<g id="edge5" class="edge"><title>Node2&#45;&gt;Node6</title>
<path fill="none" stroke="midnightblue" d="M182.604,-56.3993C181.526,-48.3772 180.162,-38.2328 178.997,-29.569"/>
<polygon fill="midnightblue" stroke="midnightblue" points="182.465,-29.1022 177.664,-19.6578 175.528,-30.035 182.465,-29.1022"/>
</g>
<!-- Node7 -->
<g id="node7" class="node"><title>Node7</title>
<polygon fill="none" stroke="#bfbfbf" points="217.5,-0.5 217.5,-19.5 261.5,-19.5 261.5,-0.5 217.5,-0.5"/>
<text text-anchor="middle" x="239.5" y="-7.5" font-family="Helvetica,sans-Serif" font-size="10.00">vector</text>
</g>
<!-- Node2&#45;&gt;Node7 -->
<g id="edge6" class="edge"><title>Node2&#45;&gt;Node7</title>
<path fill="none" stroke="midnightblue" d="M197.534,-56.3993C205.691,-47.575 216.222,-36.1827 224.694,-27.0178"/>
<polygon fill="midnightblue" stroke="midnightblue" points="227.279,-29.3769 231.497,-19.6578 222.139,-24.6253 227.279,-29.3769"/>
</g>
</g>
</svg>
